<svg width="153" height="152" viewBox="0 0 153 152" fill="none" xmlns="http://www.w3.org/2000/svg">
<rect x="1" y="0.5" width="151" height="151" rx="75.5" fill="#FCFCFC"/>
<rect x="1" y="0.5" width="151" height="151" rx="75.5" stroke="#697485" stroke-linecap="round" stroke-dasharray="8 8"/>
<path d="M87.1839 101.275C86.0297 102.341 84.6737 103.053 83.2421 103.482C77.8181 105.135 71.0382 102.7 68.0488 98.0582C67.9542 97.9194 67.8596 97.7744 67.7965 97.6104C67.0145 96.267 66.5099 94.7659 66.409 93.2144C66.3081 91.6692 66.6234 89.3734 68.1434 88.6229C69.657 87.9039 71.4987 88.0111 72.779 89.1464C73.4096 89.6951 74.0529 90.3069 74.6332 90.9376C76.9037 93.2964 79.6408 94.6209 82.8826 94.9677C83.9043 95.0687 84.9827 95.1885 85.9603 95.4975C88.6092 96.3427 89.2525 99.37 87.1775 101.262L87.1839 101.275Z" fill="#D1D5DB"/>
<path d="M102.244 65.2845C101.777 67.2838 100.478 68.4758 98.8443 68.4002C95.2746 68.2362 94.0637 63.2284 95.7098 60.5669C97.2928 58.0062 101.102 58.782 102.042 61.4625C102.458 62.6608 102.534 64.061 102.25 65.2908L102.244 65.2845Z" fill="#D1D5DB"/>
<path d="M57.0801 65.2845C56.6134 67.2838 55.3142 68.4758 53.6807 68.4002C50.111 68.2362 48.9001 63.2284 50.5462 60.5669C52.1292 58.0062 55.9386 58.782 56.8783 61.4625C57.2946 62.6608 57.3702 64.061 57.0864 65.2908L57.0801 65.2845Z" fill="#D1D5DB"/>
</svg>
