<svg width="174" height="171" viewBox="0 0 174 171" fill="none" xmlns="http://www.w3.org/2000/svg">
<path d="M54.6463 102.886H25.8145V134.815H54.6463V102.886Z" fill="#EBEBEA"/>
<path d="M10.9256 134.812H25.8145L25.8145 102.883H10.9256L10.9256 134.812Z" fill="#DBDBD9"/>
<path d="M11.9531 132.615C13.0561 130.346 14.15 128.068 15.2319 125.783L18.4623 118.914L21.6504 112.015C22.708 109.713 23.7536 107.401 24.7901 105.083C23.6871 107.352 22.5932 109.631 21.5114 111.916L18.281 118.784L15.0929 125.683C14.0352 127.986 12.9896 130.298 11.9531 132.615Z" fill="#EBEBEA"/>
<path d="M11.9531 105.086C12.9896 107.404 14.0352 109.715 15.0929 112.018L18.281 118.917L21.5114 125.786C22.5932 128.07 23.6871 130.349 24.7901 132.618C23.7536 130.301 22.708 127.989 21.6504 125.686L18.4623 118.79L15.2319 111.921C14.15 109.637 13.0561 107.358 11.9531 105.089V105.086Z" fill="#EBEBEA"/>
<path d="M54.6463 54.6621H25.8145V84.3915H54.6463V54.6621Z" fill="#EBEBEA"/>
<path d="M10.9256 84.3945H25.8145L25.8145 54.6652H10.9256L10.9256 84.3945Z" fill="#DBDBD9"/>
<path d="M37.7852 61.5641H38.3956H38.8549L39.1148 61.0323L39.4835 61.5641L39.9821 60.4702L40.4535 61.5641H41.8013H42.4177L42.6413 60.8328L42.8499 61.5641H43.2518V54.6621H37.7852V61.5641Z" fill="#DBDBD9"/>
<path d="M11.9531 82.4969C13.0561 80.3816 14.15 78.2633 15.2319 76.1358L18.4623 69.7415L21.6504 63.32C22.708 61.1745 23.7536 59.0229 24.7901 56.8652C23.6871 58.9806 22.5932 61.0989 21.5114 63.2263L18.281 69.6206L15.0929 76.0422C14.0352 78.1877 12.9896 80.3393 11.9531 82.4969Z" fill="#EBEBEA"/>
<path d="M11.9531 56.8623C12.9896 59.0199 14.0352 61.1715 15.0929 63.3171L18.281 69.7386L21.5114 76.1329C22.5932 78.2603 23.6871 80.3817 24.7901 82.494C23.7536 80.3364 22.708 78.1848 21.6504 76.0392L18.4623 69.6177L15.2319 63.2234C14.15 61.096 13.0561 58.9746 11.9531 56.8623Z" fill="#EBEBEA"/>
<path d="M27.7158 82.5454H30.916V79.3452H27.7158V82.5454Z" fill="white"/>
<path d="M52.7245 84.3916H23.8926V102.883H52.7245V84.3916Z" fill="#DBDBD9"/>
<path d="M9.00372 102.886H23.8926L23.8926 84.3948H9.00372L9.00372 102.886Z" fill="#C8C6C4"/>
<path d="M35.8633 91.2936H36.4737H36.933L37.1959 90.7618L37.5616 91.2936L38.0602 90.1997L38.5316 91.2936H39.8824H40.4958L40.7195 90.5623L40.931 91.2936H41.3299V84.3916H35.8633V91.2936Z" fill="white"/>
<path d="M10.0312 101.786C11.1342 100.441 12.2282 99.0936 13.31 97.7429L16.5404 93.6784L19.7285 89.5958C20.7862 88.233 21.8317 86.864 22.8682 85.4951C21.7653 86.8399 20.6713 88.1846 19.5895 89.5384L16.3591 93.6029L13.171 97.6854C12.1133 99.0483 11.0678 100.417 10.0312 101.786Z" fill="#DBDBD9"/>
<path d="M10.0312 85.4951C11.0678 86.8671 12.1133 88.236 13.171 89.5958L16.3591 93.6784L19.5895 97.7429C20.6713 99.0967 21.7653 100.441 22.8682 101.786C21.8317 100.414 20.7862 99.0453 19.7285 97.6854L16.5404 93.6029L13.31 89.5384C12.2282 88.1846 11.1342 86.8399 10.0312 85.4951Z" fill="#DBDBD9"/>
<path d="M164.99 106.884H136.158V134.815H164.99V106.884Z" fill="#DBDBD9"/>
<path d="M121.273 134.812H136.162V106.881H121.273V134.812Z" fill="#C8C6C4"/>
<path d="M148.129 113.783H148.739H149.199L149.459 113.251L149.827 113.783L150.326 112.689L150.797 113.783H152.145H152.761L152.985 113.051L153.194 113.783H153.595V106.884H148.129V113.783Z" fill="white"/>
<path d="M122.297 133.153C123.4 131.122 124.494 129.089 125.576 127.046L128.806 120.908L131.994 114.744C133.052 112.686 134.097 110.619 135.134 108.549C134.031 110.58 132.937 112.613 131.855 114.656L128.625 120.794L125.437 126.958C124.379 129.016 123.333 131.083 122.297 133.153Z" fill="#DBDBD9"/>
<path d="M122.297 108.546C123.333 110.619 124.379 112.683 125.437 114.741L128.625 120.905L131.855 127.043C132.937 129.086 134.031 131.122 135.134 133.15C134.097 131.077 133.052 129.013 131.994 126.955L128.806 120.791L125.576 114.653C124.494 112.61 123.4 110.574 122.297 108.546Z" fill="#DBDBD9"/>
<path d="M122.548 101.795H82.6016V134.8H122.548V101.795Z" fill="#DDED95"/>
<path opacity="0.1" d="M122.548 101.795H82.6016V134.8H122.548V101.795Z" fill="black"/>
<path d="M138.377 101.795H122.549V134.8H138.377V101.795Z" fill="#DDED95"/>
<path opacity="0.2" d="M138.377 101.795H122.549V134.8H138.377V101.795Z" fill="black"/>
<path d="M137.286 132.527C136.113 130.179 134.95 127.825 133.801 125.465L130.368 118.367L126.978 111.238C125.854 108.857 124.742 106.47 123.639 104.073C124.811 106.421 125.975 108.775 127.123 111.135L130.556 118.234L133.946 125.365C135.07 127.747 136.183 130.134 137.286 132.53V132.527Z" fill="#DDED95"/>
<path d="M137.286 104.07C136.183 106.467 135.07 108.857 133.946 111.235L130.556 118.367L127.123 125.465C125.972 127.828 124.811 130.182 123.639 132.527C124.742 130.131 125.854 127.741 126.978 125.363L130.368 118.234L133.801 111.135C134.953 108.772 136.113 106.418 137.286 104.073V104.07Z" fill="#DDED95"/>
<path d="M105.4 108.93H104.771H104.297L104.025 108.38L103.647 108.93L103.13 107.796L102.644 108.93H101.248H100.613L100.384 108.174L100.166 108.93H99.752V101.795H105.4V108.93Z" fill="white"/>
<path d="M124.956 68.79H95.1543V101.792H124.956V68.79Z" fill="#DDED95"/>
<path d="M140.345 68.793H124.957V101.798H140.345V68.793Z" fill="#DDED95"/>
<path opacity="0.1" d="M140.345 68.793H124.957V101.798H140.345V68.793Z" fill="black"/>
<g opacity="0.1">
<path d="M122.773 99.5225C120.585 97.1745 118.412 94.8204 116.267 92.4603L109.854 85.3619L103.523 78.2333C101.423 75.852 99.347 73.4647 97.2891 71.0684C99.4769 73.4164 101.65 75.7674 103.795 78.1305L110.208 85.229L116.535 92.3576C118.636 94.7388 120.712 97.1261 122.77 99.5225H122.773Z" fill="black"/>
<path d="M122.774 71.0654C120.716 73.4618 118.64 75.8491 116.539 78.2303L110.212 85.359L103.799 92.4574C101.651 94.8205 99.4808 97.1746 97.293 99.5196C99.3509 97.1232 101.427 94.7329 103.527 92.3547L109.858 85.226L116.27 78.1276C118.419 75.7645 120.589 73.4104 122.777 71.0654H122.774Z" fill="black"/>
</g>
<path d="M138.178 96.2109H135.482V100.019H138.178V96.2109Z" fill="white"/>
<path d="M3.42578 134.816C56.9677 134.571 117.031 134.568 170.576 134.816C117.034 135.063 56.9707 135.06 3.42578 134.816Z" fill="#263237"/>
<path d="M91.2695 37.9062C91.4962 38.0453 91.7228 38.1873 91.9495 38.3323" stroke="#263238" stroke-width="0.299167" stroke-miterlimit="10"/>
<path d="M93.2809 39.2568C100.53 44.6177 106.175 54.3693 99.8565 63.8973C96.1366 69.509 89.8268 67.1973 87.6511 65.1877C85.2487 62.9666 87.4607 60.6911 89.8601 62.2111C94.0212 64.8462 94.6045 70.9474 89.9961 75.4561C86.9923 78.3934 83.088 78.5777 80.9395 78.4055" stroke="#263238" stroke-width="0.299167" stroke-miterlimit="10"/>
<path d="M80.1305 78.3178C79.6319 78.2483 79.3418 78.1758 79.3418 78.1758" stroke="#263238" stroke-width="0.299167" stroke-miterlimit="10"/>
<path d="M76.0685 77.8705C75.8782 79.4872 79.1539 80.3727 79.4017 78.2604C79.6495 76.1481 76.2589 76.2538 76.0685 77.8705Z" fill="#263238"/>
<path d="M80.369 80.5206C80.0637 81.128 78.988 81.2095 77.8729 80.4359C76.7578 79.6623 75.9902 78.3206 75.9902 78.3206C75.9902 78.3206 77.5254 78.1363 78.8127 78.5654C80.1 78.9975 80.6772 79.9101 80.369 80.5206Z" fill="#EBEBEA"/>
<path d="M75.9863 78.3213C76.6179 78.6053 77.2374 78.9136 77.8599 79.2218C78.4764 79.5361 79.0959 79.8504 79.7002 80.1858C79.0687 79.9018 78.4492 79.5935 77.8267 79.2853C77.2102 78.971 76.5907 78.6567 75.9863 78.3213Z" fill="#263238"/>
<path d="M78.8969 80.5089C78.7519 80.3427 78.631 80.1644 78.5071 79.9831C78.3923 79.7987 78.2714 79.6174 78.1777 79.418C78.3228 79.5842 78.4437 79.7625 78.5676 79.9438C78.6824 80.1281 78.8002 80.3094 78.8969 80.5089Z" fill="#263238"/>
<path d="M77.543 79.1036C77.7636 79.0401 77.9902 79.0069 78.2168 78.9706C78.4435 78.9434 78.6701 78.9102 78.8998 78.9102C78.6792 78.9736 78.4526 79.0069 78.2259 79.0431C77.9993 79.0703 77.7726 79.1005 77.543 79.1036Z" fill="#263238"/>
<path d="M77.2022 79.3664C77.1267 79.2818 77.0753 79.1881 77.0239 79.0914C76.9786 78.9917 76.9333 78.895 76.9121 78.7832C76.9877 78.8678 77.039 78.9615 77.0904 79.0582C77.1357 79.1579 77.1811 79.2546 77.2022 79.3664Z" fill="#263238"/>
<path d="M80.8857 76.3263C80.7286 75.6645 79.7011 75.3351 78.438 75.8337C77.1748 76.3293 76.1172 77.4565 76.1172 77.4565C76.1172 77.4565 77.5707 77.9914 78.9215 77.8675C80.2723 77.7436 81.0429 76.9881 80.8857 76.3263Z" fill="#EBEBEA"/>
<path d="M76.1172 77.457C76.7971 77.327 77.474 77.1699 78.1479 77.0127C78.8218 76.8496 79.4957 76.6864 80.1605 76.499C79.4806 76.629 78.8037 76.7861 78.1298 76.9432C77.4559 77.1064 76.782 77.2696 76.1172 77.457Z" fill="#263238"/>
<path d="M79.4538 76C79.2756 76.1269 79.1154 76.275 78.9522 76.42C78.7981 76.5711 78.641 76.7222 78.502 76.8945C78.6802 76.7676 78.8404 76.6195 79.0036 76.4744C79.1577 76.3233 79.3148 76.1722 79.4538 76Z" fill="#263238"/>
<path d="M77.8125 77.0547C78.015 77.1665 78.2265 77.2511 78.435 77.3387C78.6496 77.4173 78.8611 77.5019 79.0847 77.5563C78.8822 77.4445 78.6707 77.3599 78.4622 77.2723C78.2477 77.1937 78.0361 77.1121 77.8125 77.0547Z" fill="#263238"/>
<path d="M77.5401 76.7197C77.4464 76.7832 77.3769 76.8648 77.3044 76.9464C77.2379 77.031 77.1714 77.1156 77.123 77.2183C77.2167 77.1549 77.2862 77.0733 77.3588 76.9917C77.4252 76.9071 77.4917 76.8225 77.5401 76.7197Z" fill="#263238"/>
<path d="M76.0681 77.8706C76.3915 77.9068 76.6211 78.2 76.5819 78.5203C76.5456 78.8436 76.2525 79.0733 75.9322 79.034C75.6088 78.9978 75.3792 78.7046 75.4184 78.3843C75.4547 78.061 75.7478 77.8313 76.0681 77.8706Z" fill="#455A62"/>
<path d="M76.2049 76.7046C76.5282 76.7408 76.7579 77.034 76.7186 77.3543C76.6823 77.6776 76.3892 77.9073 76.0689 77.868C75.7455 77.8317 75.5159 77.5386 75.5552 77.2183C75.5914 76.895 75.8845 76.6653 76.2049 76.7046Z" fill="#455A62"/>
<path d="M110.045 10.525L66.9004 23.7402L74.6789 49.1351L117.823 35.9198L110.045 10.525Z" fill="#DDED95"/>
<path opacity="0.2" d="M110.042 10.5238L95.543 14.9648L103.321 40.3597L117.82 35.9186L110.042 10.5238Z" fill="black"/>
<path d="M109.344 11.8185C108.857 14.0637 108.383 16.315 107.92 18.5663L106.552 25.3293L105.231 32.1044C104.796 34.3648 104.376 36.6282 103.965 38.8946C104.451 36.6493 104.926 34.398 105.388 32.1467L106.757 25.3837L108.078 18.6056C108.513 16.3452 108.933 14.0818 109.344 11.8154V11.8185Z" fill="#DDED95"/>
<path d="M116.466 35.0721C114.855 33.4252 113.239 31.7843 111.613 30.1555L106.723 25.2812L101.801 20.4431C100.157 18.8355 98.5008 17.2399 96.8418 15.6504C98.4494 17.3003 100.066 18.9382 101.695 20.567L106.584 25.4413L111.507 30.2794C113.151 31.887 114.807 33.4826 116.466 35.0721Z" fill="#DDED95"/>
<path d="M75.183 27.012L75.4199 26.9395L74.3986 23.6051L74.1617 23.6777L75.183 27.012Z" fill="#263238"/>
<path d="M74.6224 27.179L74.8594 27.1064L73.8381 23.7721L73.6011 23.8447L74.6224 27.179Z" fill="#263238"/>
<path d="M74.0443 27.3685L74.2812 27.2959L73.2599 23.9616L73.023 24.0341L74.0443 27.3685Z" fill="#263238"/>
<path d="M73.4877 27.5257L73.7246 27.4531L72.7039 24.1186L72.4669 24.1911L73.4877 27.5257Z" fill="#263238"/>
<path d="M72.9193 27.7005L73.1562 27.6279L72.1349 24.2936L71.898 24.3662L72.9193 27.7005Z" fill="#263238"/>
<path d="M72.3549 27.8734L72.5918 27.8008L71.5705 24.4664L71.3335 24.539L72.3549 27.8734Z" fill="#263238"/>
<path d="M71.7748 28.0638L72.0117 27.9912L70.9904 24.6569L70.7535 24.7294L71.7748 28.0638Z" fill="#263238"/>
<path d="M71.2084 28.2308L71.4453 28.1582L70.4234 24.824L70.1865 24.8966L71.2084 28.2308Z" fill="#263238"/>
<path d="M70.64 28.4105L70.877 28.3379L69.8556 25.0035L69.6187 25.0761L70.64 28.4105Z" fill="#263238"/>
<path d="M76.8007 23.1442L75.8125 23.1714L77.949 22.5156L77.118 23.0505L77.4927 24.2774C78.1696 24.1626 78.6259 24.7277 78.9704 25.8518L76.8339 26.5075C76.4894 25.3864 76.5529 24.6612 77.1784 24.3771L76.8007 23.1472V23.1442Z" fill="#263238"/>
<path d="M78.9492 23.9961L79.5052 23.8239L79.0066 22.1921L80.433 21.7539L80.9346 23.3888L81.4936 23.2165L80.7412 25.3076L78.9492 23.9961Z" fill="#263238"/>
<path opacity="0.1" d="M66.8965 23.7394L67.5341 25.8214L97.3602 20.9048L95.541 14.9668L66.8965 23.7394Z" fill="black"/>
<path d="M123.413 38.8008L108.911 43.2429L103.32 40.3631L117.822 35.9209L123.413 38.8008Z" fill="#DDED95"/>
<path opacity="0.2" d="M123.413 38.8008L108.911 43.2429L103.32 40.3631L117.822 35.9209L123.413 38.8008Z" fill="black"/>
<path d="M71.6562 54.6535L86.1553 50.2113L89.1772 44.6934L74.6751 49.1355L71.6562 54.6535Z" fill="#DDED95"/>
<path opacity="0.1" d="M71.6562 54.6535L86.1553 50.2113L89.1772 44.6934L74.6751 49.1355L71.6562 54.6535Z" fill="black"/>
<path d="M19.34 109.476C19.1889 105.726 19.2494 101.97 19.4942 98.226C20.0018 90.505 21.271 82.8415 23.0177 75.308C23.9998 71.0652 25.2116 66.898 26.4717 62.7308C26.511 62.6039 26.7104 62.6402 26.6772 62.7732C22.779 77.4565 19.5788 92.6083 19.7994 107.872C19.8598 112.145 20.3554 116.339 20.7603 120.585C20.7724 120.7 20.5851 120.745 20.5579 120.627C19.754 116.995 19.4911 113.19 19.34 109.48V109.476Z" fill="#263238"/>
<path d="M26.6721 62.7705C26.6721 62.7705 32.5799 77.7651 31.2563 81.2887C29.9327 84.8122 27.2069 85.5646 27.2069 85.5646C27.2069 85.5646 30.8211 90.726 28.2948 95.5641C25.7685 100.405 20.1569 100.175 19.7852 105.663C19.7852 105.663 19.4739 82.718 26.6721 62.7705Z" fill="#DDED95"/>
<path d="M20.4291 96.1889C20.4231 96.1648 20.4231 96.1376 20.4351 96.1104C21.2631 85.9145 23.0733 75.7519 26.1647 65.9489C26.1737 65.9186 26.2221 65.9307 26.213 65.9579C25.0435 70.3427 24.001 74.7547 23.1125 79.1878C23.8801 78.3991 24.8834 77.9428 25.932 77.6164C25.9531 77.6104 25.9622 77.6375 25.9441 77.6466C24.8501 78.118 23.8046 78.665 23.034 79.5927C22.8617 80.463 22.6925 81.3303 22.5323 82.2006C23.8529 80.7259 25.6842 79.9916 27.5154 79.2966C27.5426 79.2875 27.5547 79.3268 27.5306 79.3359C25.6237 80.1125 23.723 81.1127 22.4296 82.7566C21.9793 85.2436 21.5835 87.7428 21.242 90.2479C22.206 89.2386 23.3966 88.5617 24.7655 88.2293C24.8078 88.2202 24.829 88.2806 24.7867 88.2927C23.3815 88.6977 22.1758 89.4834 21.2148 90.5803C21.2088 90.5894 21.1997 90.5924 21.1936 90.5954C21.0758 91.4778 20.964 92.3602 20.8582 93.2426C21.6016 92.608 22.4236 92.1275 23.3271 91.7528C23.3513 91.7437 23.3634 91.78 23.3392 91.7891C22.4205 92.1789 21.5925 92.744 20.8673 93.4269C20.8582 93.436 20.8461 93.436 20.8371 93.439C20.7373 94.2791 20.6406 95.1192 20.556 95.9593C21.9098 94.3274 23.584 93.1459 25.5663 92.3814C25.6056 92.3663 25.6237 92.4267 25.5875 92.4418C23.6625 93.2789 21.9642 94.6055 20.6497 96.2403C20.6134 96.2857 20.5681 96.2917 20.5258 96.2796C20.3989 97.5699 20.2841 98.8633 20.1904 100.157C20.1904 100.175 20.1602 100.175 20.1602 100.157C20.2357 98.8331 20.3264 97.5065 20.4351 96.1829L20.4291 96.1889Z" fill="#263238"/>
<path d="M25.1769 76.1265C26.2013 75.4224 27.5037 75.1233 28.7246 75.0205C28.7548 75.0205 28.7578 75.0628 28.7276 75.0658C27.4554 75.2562 26.3856 75.7155 25.2192 76.2111C25.1678 76.2323 25.1316 76.1567 25.1769 76.1265Z" fill="#263238"/>
<path d="M24.4616 92.001C25.2715 91.5145 26.1962 91.2395 27.1269 91.0884C27.1601 91.0823 27.1632 91.1337 27.1299 91.1398C26.1871 91.312 25.3531 91.6474 24.4948 92.0645C24.4586 92.0826 24.4284 92.0222 24.4616 92.001Z" fill="#263238"/>
<path d="M3.80867 81.533C6.27152 83.2645 8.63766 85.262 10.6472 87.5103C12.7897 89.9067 14.3521 92.6233 15.443 95.6422C17.6792 101.825 18.903 108.522 19.0148 115.091C19.0783 118.775 18.7489 122.428 17.9632 126.027C17.936 126.157 17.7396 126.121 17.7577 125.988C18.7217 119.654 18.6855 113.19 17.652 106.869C16.6366 100.665 15.0441 93.9167 11.1005 88.8762C8.95496 86.1323 6.27756 83.9717 3.63038 81.7415C3.49138 81.6236 3.66967 81.4302 3.8117 81.533H3.80867Z" fill="#263238"/>
<path d="M18.1454 110.625C18.1454 110.625 16.1177 107.207 13.1623 104.255C10.2069 101.299 7.71687 99.1991 7.33309 97.247C6.94931 95.2918 10.2945 93.8534 10.2945 93.8534C10.2945 93.8534 6.20592 94.5877 5.0848 92.8713C3.9667 91.1548 3.42578 81.2158 3.42578 81.2158C3.42578 81.2158 10.8657 86.5283 14.3318 93.9743C17.7979 101.42 18.1454 110.628 18.1454 110.628V110.625Z" fill="#DDED95"/>
<path d="M5.99794 83.7632C9.12862 86.8365 12.2774 90.1152 14.1208 94.1525C14.7524 95.5365 15.2903 96.9749 15.7647 98.4375V98.4436C15.8584 98.7367 15.9551 99.0298 16.0457 99.3259C16.0548 99.3411 16.0608 99.3562 16.0608 99.3743C16.9735 102.39 17.6171 105.512 18.1731 108.558C18.1762 108.579 18.146 108.588 18.1429 108.567C17.8226 107.017 17.469 105.451 17.0732 103.889C17.0581 103.889 17.043 103.889 17.0278 103.88C16.3963 103.614 15.7587 103.448 15.0757 103.384C15.0304 103.381 15.0334 103.303 15.0787 103.306C15.7375 103.339 16.3842 103.454 17.0097 103.659C16.6501 102.251 16.2573 100.846 15.8161 99.465C14.3807 99.1144 12.8818 98.924 11.4041 98.8878C11.389 98.8878 11.386 98.8636 11.4041 98.8636C12.8939 98.7941 14.293 98.924 15.7435 99.2323C15.668 98.9935 15.5864 98.7578 15.5078 98.5221C14.5378 98.3015 13.5648 98.1142 12.5706 98.0235C12.5524 98.0235 12.5554 97.9903 12.5706 97.9933C13.5436 98.0205 14.4985 98.1202 15.4444 98.3438C15.0394 97.1472 14.6013 95.9656 14.1178 94.8143C13.7159 93.8624 13.2384 92.9588 12.7126 92.0885C11.9178 91.9072 11.1472 91.738 10.3313 91.6624C10.3072 91.6624 10.3102 91.6231 10.3313 91.6231C11.0717 91.5748 11.8423 91.6292 12.5585 91.8437C12.1686 91.2122 11.7546 90.5927 11.3165 89.9943C9.64839 89.6257 7.95613 89.2812 6.25178 89.6015C6.22156 89.6075 6.2125 89.5562 6.23969 89.5501C7.86547 89.124 9.47614 89.3688 11.0929 89.6891C10.9176 89.4534 10.7363 89.2238 10.555 88.9911C9.53053 88.6738 8.51215 88.5197 7.43636 88.5015C7.41521 88.5015 7.41219 88.4683 7.43636 88.4683C8.41545 88.3746 9.39455 88.4683 10.3434 88.7251C8.96544 87.0117 7.43938 85.4011 5.93448 83.8116C5.86498 83.739 5.91937 83.6937 5.9919 83.7662L5.99794 83.7632Z" fill="#263238"/>
<path d="M6.08296 90.5383C6.5725 90.487 7.07111 90.4326 7.56368 90.487C7.62412 90.493 7.61808 90.5897 7.55764 90.5927C7.06809 90.6079 6.57855 90.5716 6.089 90.5957C6.05274 90.5957 6.04669 90.5414 6.08296 90.5383Z" fill="#263238"/>
<path d="M11.4366 100.181C12.2192 100.172 12.9989 100.38 13.7302 100.64C13.7483 100.646 13.7393 100.676 13.7181 100.673C12.9596 100.492 12.1951 100.419 11.4305 100.293C11.3671 100.284 11.3701 100.181 11.4366 100.178V100.181Z" fill="#263238"/>
<path d="M13.0411 96.8512C13.3584 96.8361 13.7029 96.8905 14.0142 96.9388C14.0474 96.9449 14.0444 96.9963 14.0111 96.9963C13.6938 97.0023 13.3463 97.0114 13.0351 96.9509C12.9807 96.9419 12.9837 96.8542 13.0411 96.8512Z" fill="#263238"/>
<path d="M39.9554 92.0823C37.562 92.9133 35.1868 93.9861 33.0413 95.3399C30.7537 96.7843 28.862 98.6216 27.2816 100.813C24.0451 105.3 21.5037 110.434 19.8961 115.726C18.9955 118.693 18.4153 121.724 18.2189 124.821C18.2129 124.933 18.3791 124.948 18.3942 124.837C19.0802 119.488 20.6002 114.266 22.8998 109.389C25.1542 104.605 28.0038 99.5101 32.3614 96.3431C34.7336 94.6176 37.3989 93.4905 40.0551 92.2938C40.1941 92.2303 40.0944 92.0339 39.9554 92.0823Z" fill="#DDED95"/>
<path d="M21.6289 112.311C21.6289 112.311 24.0615 110.014 27.1348 108.307C30.2081 106.6 32.7102 105.475 33.4717 103.983C34.2332 102.49 31.861 100.553 31.861 100.553C31.861 100.553 35.0008 102.091 36.3032 100.961C37.6056 99.8305 40.3405 91.9102 40.3405 91.9102C40.3405 91.9102 33.0909 94.4878 28.5672 99.7127C24.0404 104.938 21.6319 112.308 21.6319 112.308L21.6289 112.311Z" fill="#DDED95"/>
<path d="M22.0042 110.68C25.6305 103.874 30.4655 97.7187 37.0955 93.6543C37.0955 93.6543 37.1016 93.6543 37.0985 93.6573C35.3549 94.7694 33.7442 96.0507 32.2454 97.4528C33.5871 97.4166 34.953 97.6281 36.1436 98.2748C36.1708 98.2899 36.1497 98.3262 36.1225 98.3141C34.7959 97.8668 33.5236 97.5707 32.1124 97.6372C32.0943 97.6372 32.0822 97.6281 32.0671 97.619C31.8314 97.8427 31.5987 98.0693 31.369 98.299C32.0671 98.3292 32.7712 98.4289 33.4511 98.5739C33.4693 98.577 33.4632 98.6072 33.4451 98.6042C32.7108 98.4621 31.9915 98.4138 31.2451 98.4229C30.0303 99.6437 28.9002 100.949 27.8274 102.306C28.3109 102.236 28.8186 102.276 29.2839 102.412C29.3172 102.421 29.3081 102.472 29.2718 102.466C28.743 102.4 28.2414 102.409 27.7186 102.445C27.5191 102.699 27.3197 102.95 27.1263 103.203C28.6161 103.113 30.0757 103.258 31.5262 103.63C31.5473 103.636 31.5413 103.669 31.5201 103.663C30.0273 103.37 28.5194 103.276 27.0024 103.37C26.8181 103.614 26.6428 103.868 26.4615 104.116C27.3499 104.089 28.2142 104.201 29.0815 104.415C29.1147 104.424 29.1056 104.476 29.0724 104.467C28.1809 104.264 27.2744 104.213 26.3618 104.255C25.5821 105.331 24.8357 106.428 24.1165 107.54C24.4973 107.461 24.8961 107.504 25.2648 107.609C25.286 107.615 25.2799 107.643 25.2588 107.64C24.8327 107.588 24.4338 107.646 24.0138 107.697C23.3671 108.703 22.7446 109.719 22.1462 110.737C22.0949 110.822 21.9558 110.758 22.0042 110.668V110.68Z" fill="#263238"/>
<path d="M27.6456 105.034C28.3558 104.973 29.075 105.085 29.7519 105.291C29.77 105.297 29.767 105.327 29.7458 105.321C29.0478 105.191 28.3588 105.143 27.6517 105.106C27.6063 105.106 27.5973 105.037 27.6456 105.031V105.034Z" fill="#263238"/>
<path d="M33.9676 96.7421C34.2879 96.7058 34.6233 96.7481 34.9376 96.7995C34.9739 96.8055 34.9648 96.8599 34.9255 96.8569C34.6052 96.8237 34.2909 96.8358 33.9706 96.8267C33.9192 96.8267 33.9102 96.7512 33.9646 96.7451L33.9676 96.7421Z" fill="#263238"/>
<path d="M12.2793 134.815H28.6398L26.3069 117.724L25.7116 113.342H15.2075L14.6122 117.724L12.2793 134.815Z" fill="#455A62"/>
<path d="M14.6133 117.723H26.308L25.7127 113.341H15.2086L14.6133 117.723Z" fill="#263238"/>
<path d="M13.707 115.535H27.2148V111.824H13.707V115.535Z" fill="#455A62"/>
<path d="M79.0851 8.99527C79.0851 13.9119 75.0963 17.9008 70.1796 17.9008C68.1912 17.9008 66.3569 17.2481 64.8762 16.1451L60.5156 17.2602L62.3318 13.1987C61.6579 11.9477 61.2771 10.5153 61.2771 8.99829C61.2771 4.08167 65.266 0.0927734 70.1827 0.0927734C75.0993 0.0927734 79.0882 4.08167 79.0882 8.99829L79.0851 8.99527Z" fill="white"/>
<path d="M79.0839 8.99579C79.1383 13.6525 75.3005 17.7442 70.6438 17.9587C68.5738 18.1189 66.4675 17.4813 64.7873 16.2574L64.9082 16.2816C63.3429 16.6986 61.7745 17.1156 60.2031 17.5175L60.3512 17.1851L62.1522 13.1176L62.1583 13.2869C60.8166 10.8663 60.7471 7.82329 61.8803 5.32117C63.5302 1.49545 67.9905 -0.728666 72.0369 0.217186C76.062 1.06634 79.1504 4.88299 79.0839 8.99579ZM79.0839 8.99579C79.096 3.29046 73.5629 -1.02481 68.0419 0.474049C64.1316 1.43199 61.2638 5.30605 61.4753 9.32215C61.5328 10.6729 61.9014 12.0056 62.5451 13.1902L62.5058 13.2748L60.6745 17.3302L60.4691 17.0884C61.9226 16.7197 63.3822 16.3632 64.8387 16.0066L64.9052 15.9915L64.9596 16.0308C66.2439 17.0068 67.8032 17.6233 69.4199 17.7744C74.5692 18.2851 79.0718 14.1632 79.0839 8.99881V8.99579Z" fill="#263238"/>
<path d="M70.7984 9.95945V10.9416C70.7984 11.3646 70.4811 11.6819 70.058 11.6819C69.6652 11.6819 69.3177 11.3646 69.3177 10.9416V9.3732C69.3177 9.3732 69.3328 9.35809 69.3328 9.34298C69.3227 9.33291 69.3177 9.32284 69.3177 9.31276C69.3177 8.91992 69.6652 8.57241 70.058 8.57241C71.0099 8.57241 71.7775 7.81692 71.7775 6.88316C71.7775 5.94939 71.0069 5.19392 70.058 5.19392C69.4385 5.19392 68.8976 5.52633 68.6106 6.02494C68.399 6.38757 67.9457 6.50845 67.5861 6.29692C67.2386 6.08539 67.1177 5.64721 67.3293 5.2876C67.8732 4.35081 68.8976 3.71924 70.058 3.71924C71.8077 3.71924 73.2401 5.13651 73.2401 6.88618C73.2401 8.379 72.1975 9.63308 70.7954 9.96549L70.7984 9.95945ZM70.7984 13.2624V13.5343C70.7984 13.9574 70.4811 14.2747 70.058 14.2747C69.6652 14.2747 69.3177 13.9574 69.3177 13.5343V13.2624C69.3177 12.8544 69.6652 12.522 70.058 12.522C70.4811 12.522 70.7984 12.8544 70.7984 13.2624Z" fill="#DDED95"/>
<path d="M19.1347 162.792C19.0814 162.387 19.0067 161.971 18.9107 161.544C18.8147 161.117 18.7027 160.675 18.5747 160.216C18.4467 159.757 18.3027 159.288 18.1427 158.808C18.196 158.755 18.2814 158.696 18.3987 158.632C18.5267 158.568 18.676 158.536 18.8467 158.536C19.028 158.536 19.1774 158.595 19.2947 158.712C19.412 158.829 19.5187 159.048 19.6147 159.368C19.796 159.987 19.9454 160.616 20.0627 161.256C20.18 161.885 20.2387 162.387 20.2387 162.76C20.2174 163.432 20.036 164.051 19.6947 164.616C19.364 165.192 18.8947 165.651 18.2867 165.992C17.6787 166.333 16.9427 166.504 16.0787 166.504C15.1934 166.504 14.436 166.333 13.8067 165.992C13.188 165.661 12.7134 165.181 12.3827 164.552C12.052 163.933 11.8867 163.197 11.8867 162.344C11.8867 161.491 11.988 160.883 12.1907 160.52C12.3934 160.157 12.628 159.976 12.8947 159.976C13.0227 159.976 13.1347 159.992 13.2307 160.024C13.3267 160.056 13.412 160.099 13.4867 160.152C13.3907 160.419 13.3054 160.707 13.2307 161.016C13.1667 161.325 13.1347 161.683 13.1347 162.088C13.1347 163.112 13.3854 163.891 13.8867 164.424C14.3987 164.968 15.1507 165.24 16.1427 165.24C16.7187 165.24 17.2254 165.128 17.6627 164.904C18.1 164.68 18.4467 164.381 18.7027 164.008C18.9587 163.635 19.1027 163.229 19.1347 162.792ZM15.8067 159.048C15.5614 159.048 15.364 158.973 15.2147 158.824C15.0654 158.675 14.9907 158.477 14.9907 158.232C14.9907 157.987 15.0654 157.789 15.2147 157.64C15.364 157.491 15.5614 157.416 15.8067 157.416C16.052 157.416 16.2494 157.491 16.3987 157.64C16.548 157.789 16.6227 157.987 16.6227 158.232C16.6227 158.477 16.548 158.675 16.3987 158.824C16.2494 158.973 16.052 159.048 15.8067 159.048ZM25.6266 163.224C25.0079 163.224 24.4372 163.171 23.9146 163.064C23.3919 162.957 22.9226 162.808 22.5066 162.616C22.4532 162.477 22.4106 162.333 22.3786 162.184C22.3466 162.024 22.3306 161.859 22.3306 161.688C22.3306 161.507 22.3359 161.373 22.3466 161.288C22.3679 161.192 22.3999 161.064 22.4426 160.904C22.9972 160.563 23.5572 160.179 24.1226 159.752C24.6879 159.325 25.2159 158.856 25.7066 158.344L25.8986 158.216C26.1119 157.96 26.3039 157.635 26.4746 157.24C26.6559 156.835 26.7946 156.344 26.8906 155.768C26.9972 155.192 27.0506 154.509 27.0506 153.72V152.36C27.1039 152.339 27.1892 152.317 27.3066 152.296C27.4346 152.264 27.5626 152.248 27.6906 152.248C27.9039 152.248 28.0586 152.296 28.1546 152.392C28.2612 152.477 28.3146 152.611 28.3146 152.792L28.3306 153.864C28.3412 154.547 28.3039 155.16 28.2186 155.704C28.1439 156.237 28.0319 156.712 27.8826 157.128C27.7332 157.533 27.5626 157.896 27.3706 158.216C27.1892 158.525 27.0026 158.797 26.8106 159.032L26.5866 159.24C26.1599 159.688 25.6746 160.115 25.1306 160.52C24.5866 160.925 24.0586 161.283 23.5466 161.592C23.8026 161.699 24.1066 161.779 24.4586 161.832C24.8106 161.885 25.1519 161.912 25.4826 161.912C25.9839 161.912 26.3626 161.875 26.6186 161.8C26.8852 161.725 27.0612 161.635 27.1466 161.528C27.2426 161.421 27.2906 161.315 27.2906 161.208C27.2906 160.941 27.1892 160.643 26.9866 160.312C26.7839 159.971 26.4746 159.619 26.0586 159.256L25.7866 159.016C25.5412 158.76 25.2746 158.504 24.9866 158.248C24.6986 157.981 24.4052 157.725 24.1066 157.48C23.8186 157.224 23.5359 156.984 23.2586 156.76C22.9919 156.525 22.7466 156.312 22.5226 156.12C22.3946 156.003 22.2879 155.896 22.2026 155.8C22.1279 155.704 22.0906 155.597 22.0906 155.48C22.0906 155.235 22.1812 155.043 22.3626 154.904C22.5439 154.765 22.6932 154.675 22.8106 154.632C23.3332 155.091 23.9252 155.624 24.5866 156.232C25.2479 156.84 25.8826 157.464 26.4906 158.104L26.7786 158.344C27.3332 158.845 27.7599 159.357 28.0586 159.88C28.3679 160.403 28.5226 160.877 28.5226 161.304C28.5226 161.923 28.2666 162.397 27.7546 162.728C27.2532 163.059 26.5439 163.224 25.6266 163.224ZM31.7437 163.112C31.509 163.112 31.3384 163.069 31.2317 162.984C31.1357 162.888 31.0877 162.744 31.0877 162.552L31.0237 152.36C31.077 152.339 31.1624 152.317 31.2797 152.296C31.4077 152.264 31.5357 152.248 31.6637 152.248C32.0797 152.248 32.2877 152.429 32.2877 152.792L32.2717 163C32.2184 163.021 32.1437 163.043 32.0477 163.064C31.9624 163.096 31.861 163.112 31.7437 163.112ZM43.7308 161.448H44.4828C44.8775 161.448 45.1815 161.357 45.3948 161.176C45.6081 160.995 45.7148 160.675 45.7148 160.216L45.6508 152.36C45.7041 152.339 45.7948 152.317 45.9228 152.296C46.0508 152.264 46.1895 152.248 46.3388 152.248C46.5308 152.248 46.6748 152.296 46.7708 152.392C46.8668 152.477 46.9148 152.616 46.9148 152.808L46.8988 160.232C46.8988 160.915 46.7441 161.405 46.4348 161.704C46.1361 162.003 45.6668 162.152 45.0268 162.152L44.9468 162.008C45.3095 162.029 45.6401 162.067 45.9388 162.12C46.2481 162.173 46.5148 162.264 46.7388 162.392C46.9735 162.509 47.1548 162.675 47.2828 162.888C47.4108 163.101 47.4748 163.379 47.4748 163.72C47.4748 164.211 47.3361 164.648 47.0588 165.032C46.7921 165.416 46.4188 165.736 45.9388 165.992C45.4695 166.259 44.9361 166.456 44.3388 166.584C43.7521 166.723 43.1388 166.792 42.4988 166.792C41.4855 166.792 40.6215 166.637 39.9068 166.328C39.1921 166.019 38.6481 165.555 38.2748 164.936C37.9015 164.328 37.7148 163.571 37.7148 162.664C37.7148 161.864 37.8215 161.272 38.0348 160.888C38.2481 160.493 38.4935 160.296 38.7708 160.296C38.8988 160.296 39.0108 160.312 39.1068 160.344C39.2135 160.376 39.2988 160.419 39.3628 160.472C39.2668 160.739 39.1761 161.037 39.0908 161.368C39.0055 161.699 38.9628 162.099 38.9628 162.568C38.9628 163.613 39.2721 164.365 39.8908 164.824C40.5095 165.293 41.3735 165.528 42.4828 165.528C43.1761 165.528 43.8055 165.448 44.3708 165.288C44.9468 165.139 45.4055 164.92 45.7468 164.632C46.0881 164.344 46.2588 164.013 46.2588 163.64C46.2588 163.299 46.1361 163.085 45.8908 163C45.6455 162.915 45.3415 162.84 44.9788 162.776C44.9041 162.755 44.7921 162.733 44.6428 162.712C44.4935 162.691 44.3495 162.669 44.2108 162.648C43.9975 162.616 43.8268 162.563 43.6988 162.488C43.5815 162.413 43.5228 162.264 43.5228 162.04C43.5228 161.901 43.5441 161.784 43.5868 161.688C43.6401 161.581 43.6881 161.501 43.7308 161.448ZM50.3687 163.112C50.134 163.112 49.9634 163.069 49.8567 162.984C49.7607 162.888 49.7127 162.744 49.7127 162.552L49.6487 152.36C49.702 152.339 49.7874 152.317 49.9047 152.296C50.0327 152.264 50.1607 152.248 50.2887 152.248C50.7047 152.248 50.9127 152.429 50.9127 152.792L50.8967 163C50.8434 163.021 50.7687 163.043 50.6727 163.064C50.5874 163.096 50.486 163.112 50.3687 163.112ZM62.1798 163.256C60.8038 163.256 59.6998 163.101 58.8678 162.792C58.0358 162.472 57.4331 162.024 57.0598 161.448C56.6865 160.872 56.4998 160.189 56.4998 159.4C56.4998 158.707 56.5798 158.216 56.7398 157.928C56.8998 157.629 57.1131 157.48 57.3798 157.48C57.5078 157.48 57.6198 157.496 57.7158 157.528C57.8118 157.549 57.8918 157.581 57.9558 157.624C57.9025 157.88 57.8545 158.12 57.8118 158.344C57.7691 158.557 57.7478 158.813 57.7478 159.112C57.7478 159.784 57.9078 160.333 58.2278 160.76C58.5478 161.187 59.0438 161.501 59.7158 161.704C60.3985 161.896 61.2678 161.992 62.3238 161.992C63.0171 161.992 63.6838 161.933 64.3238 161.816C64.9745 161.688 65.5291 161.544 65.9878 161.384C66.4571 161.213 66.7718 161.064 66.9318 160.936C66.9318 160.477 66.8945 160.019 66.8198 159.56C66.7558 159.091 66.6758 158.643 66.5798 158.216C66.4838 157.789 66.3878 157.405 66.2918 157.064C66.3771 157.011 66.4785 156.963 66.5958 156.92C66.7131 156.867 66.8411 156.84 66.9798 156.84C67.1718 156.84 67.3265 156.904 67.4438 157.032C67.5718 157.149 67.6731 157.363 67.7478 157.672C67.7905 157.864 67.8331 158.125 67.8758 158.456C67.9291 158.787 67.9718 159.139 68.0038 159.512C68.0465 159.885 68.0678 160.232 68.0678 160.552C68.0678 161 67.9878 161.352 67.8278 161.608C67.6785 161.864 67.4065 162.099 67.0118 162.312C66.4571 162.611 65.7531 162.84 64.8998 163C64.0571 163.171 63.1505 163.256 62.1798 163.256ZM61.1078 156.888C60.8625 156.888 60.6705 156.819 60.5318 156.68C60.3931 156.531 60.3238 156.339 60.3238 156.104C60.3238 155.859 60.3931 155.667 60.5318 155.528C60.6705 155.389 60.8625 155.32 61.1078 155.32C61.3531 155.32 61.5451 155.389 61.6838 155.528C61.8225 155.667 61.8918 155.859 61.8918 156.104C61.8918 156.339 61.8225 156.531 61.6838 156.68C61.5451 156.819 61.3531 156.888 61.1078 156.888ZM63.3478 156.888C63.1025 156.888 62.9105 156.819 62.7718 156.68C62.6331 156.531 62.5638 156.339 62.5638 156.104C62.5638 155.859 62.6331 155.667 62.7718 155.528C62.9105 155.389 63.1025 155.32 63.3478 155.32C63.5931 155.32 63.7851 155.389 63.9238 155.528C64.0625 155.667 64.1318 155.859 64.1318 156.104C64.1318 156.339 64.0625 156.531 63.9238 156.68C63.7851 156.819 63.5931 156.888 63.3478 156.888ZM71.6627 152.792L71.6467 160.664C71.6467 161.059 71.7534 161.336 71.9667 161.496C72.18 161.645 72.484 161.72 72.8787 161.72H73.1827V163.016L72.7667 163C72.3507 162.979 71.9667 162.899 71.6147 162.76C71.2734 162.621 70.996 162.387 70.7827 162.056C70.58 161.725 70.4734 161.277 70.4627 160.712L70.3987 152.36C70.452 152.339 70.5374 152.317 70.6547 152.296C70.7827 152.264 70.9107 152.248 71.0387 152.248C71.252 152.248 71.4067 152.296 71.5027 152.392C71.6094 152.477 71.6627 152.611 71.6627 152.792ZM73.1827 163.016V161.736C73.2254 161.8 73.2627 161.885 73.2947 161.992C73.3267 162.099 73.3427 162.227 73.3427 162.376C73.3427 162.525 73.3214 162.659 73.2787 162.776C73.2467 162.883 73.2147 162.963 73.1827 163.016ZM77.5987 161.736C78.8147 161.736 79.748 161.603 80.3987 161.336C81.0494 161.059 81.3747 160.605 81.3747 159.976C81.3747 159.475 81.1934 159.069 80.8307 158.76C80.468 158.44 80.004 158.28 79.4387 158.28C79.1507 158.28 78.8414 158.328 78.5107 158.424C78.1907 158.52 77.8547 158.701 77.5027 158.968C77.1507 159.224 76.804 159.597 76.4627 160.088C76.132 160.579 75.8174 161.219 75.5187 162.008L74.2387 161.928L74.7027 160.76L75.4387 159.704C75.8547 158.84 76.4094 158.179 77.1027 157.72C77.8067 157.251 78.6067 157.016 79.5027 157.016C80.1214 157.016 80.66 157.139 81.1187 157.384C81.5774 157.629 81.9347 157.976 82.1907 158.424C82.4467 158.861 82.5747 159.379 82.5747 159.976C82.5747 160.979 82.1747 161.736 81.3747 162.248C80.5747 162.749 79.316 163 77.5987 163C77.2147 163 76.788 163 76.3187 163C75.86 163 75.4067 163 74.9587 163C74.5107 163 74.1054 163 73.7427 163C73.38 163 73.108 163 72.9267 163V161.72H74.8947L75.1507 161.736C75.492 161.736 75.8707 161.736 76.2867 161.736C76.7027 161.736 77.14 161.736 77.5987 161.736ZM74.5907 162.024L74.4947 152.36C74.548 152.339 74.6334 152.317 74.7507 152.296C74.8787 152.264 75.0067 152.248 75.1347 152.248C75.348 152.248 75.5027 152.296 75.5987 152.392C75.7054 152.477 75.7587 152.611 75.7587 152.792L75.7267 160.872L74.5907 162.024ZM79.0387 155.784C78.7934 155.784 78.596 155.709 78.4467 155.56C78.2974 155.411 78.2227 155.213 78.2227 154.968C78.2227 154.723 78.2974 154.525 78.4467 154.376C78.596 154.227 78.7934 154.152 79.0387 154.152C79.284 154.152 79.4814 154.227 79.6307 154.376C79.78 154.525 79.8547 154.723 79.8547 154.968C79.8547 155.213 79.78 155.411 79.6307 155.56C79.4814 155.709 79.284 155.784 79.0387 155.784ZM89.6183 163L89.6343 161.72H91.0903V163H89.6183ZM87.1383 157.416C87.7463 157.416 88.253 157.597 88.6583 157.96C89.0743 158.312 89.3836 158.808 89.5863 159.448C89.7996 160.088 89.9063 160.829 89.9063 161.672L89.0583 163C88.8556 163 88.5996 163 88.2903 163C87.981 163 87.6876 163 87.4103 163C86.4396 163 85.6983 162.771 85.1863 162.312C84.6743 161.843 84.4183 161.181 84.4183 160.328C84.4183 159.763 84.5356 159.261 84.7703 158.824C85.0156 158.387 85.3463 158.045 85.7623 157.8C86.1783 157.544 86.637 157.416 87.1383 157.416ZM87.1223 158.664C86.6956 158.664 86.3383 158.824 86.0503 159.144C85.7623 159.453 85.6183 159.837 85.6183 160.296C85.6183 160.765 85.7783 161.123 86.0983 161.368C86.4183 161.603 86.8823 161.72 87.4903 161.72C87.7143 161.72 87.9436 161.72 88.1783 161.72C88.413 161.72 88.621 161.72 88.8023 161.72C88.8023 160.643 88.6423 159.864 88.3223 159.384C88.013 158.904 87.613 158.664 87.1223 158.664ZM85.9383 166.664C85.3836 166.664 84.9143 166.568 84.5303 166.376C84.1463 166.184 83.9543 165.907 83.9543 165.544C83.9543 165.395 83.9863 165.256 84.0503 165.128C84.125 165.011 84.205 164.915 84.2903 164.84C84.461 165.011 84.701 165.144 85.0103 165.24C85.3196 165.336 85.6076 165.384 85.8743 165.384C86.7596 165.384 87.4263 165.112 87.8743 164.568C88.333 164.024 88.6316 163.293 88.7703 162.376L89.9063 161.672C89.9063 162.771 89.7356 163.688 89.3943 164.424C89.053 165.171 88.5836 165.731 87.9863 166.104C87.389 166.477 86.7063 166.664 85.9383 166.664ZM91.0903 163V161.72C91.133 161.784 91.1703 161.869 91.2023 161.976C91.2343 162.083 91.2503 162.211 91.2503 162.36C91.2503 162.509 91.229 162.643 91.1863 162.76C91.1543 162.867 91.1223 162.947 91.0903 163ZM98.4489 163C97.4996 163.011 96.7209 162.931 96.1129 162.76C95.5156 162.579 94.9929 162.328 94.5449 162.008H95.1689C94.8916 162.211 94.5343 162.387 94.0969 162.536C93.6703 162.685 93.2116 162.803 92.7209 162.888C92.2409 162.963 91.7769 163 91.3289 163H90.8329V161.72H91.5049C91.7929 161.72 92.1076 161.709 92.4489 161.688C92.7903 161.667 93.1103 161.635 93.4089 161.592C93.7183 161.539 93.9529 161.48 94.1129 161.416L93.8089 161.752C93.4249 161.571 93.0676 161.283 92.7369 160.888C92.4169 160.483 92.2569 159.96 92.2569 159.32C92.2569 158.797 92.3689 158.339 92.5929 157.944C92.8169 157.539 93.1209 157.219 93.5049 156.984C93.8889 156.749 94.3263 156.632 94.8169 156.632C95.3076 156.632 95.7449 156.749 96.1289 156.984C96.5236 157.219 96.8329 157.539 97.0569 157.944C97.2809 158.339 97.3929 158.797 97.3929 159.32C97.3929 159.747 97.3129 160.12 97.1529 160.44C97.0036 160.76 96.8116 161.027 96.5769 161.24C96.3423 161.453 96.0969 161.624 95.8409 161.752L95.3929 161.384C95.9049 161.523 96.3689 161.613 96.7849 161.656C97.2009 161.699 97.7076 161.72 98.3049 161.72H98.7049V163H98.4489ZM94.8169 161.16C95.1903 161 95.5103 160.776 95.7769 160.488C96.0543 160.2 96.1929 159.816 96.1929 159.336C96.1929 158.931 96.0543 158.589 95.7769 158.312C95.5103 158.035 95.1903 157.896 94.8169 157.896C94.4543 157.896 94.1343 158.035 93.8569 158.312C93.5903 158.589 93.4569 158.931 93.4569 159.336C93.4569 159.816 93.5903 160.205 93.8569 160.504C94.1236 160.803 94.4436 161.021 94.8169 161.16ZM98.7049 163V161.72C98.7476 161.784 98.7849 161.869 98.8169 161.976C98.8489 162.083 98.8649 162.211 98.8649 162.36C98.8649 162.509 98.8436 162.643 98.8009 162.76C98.7689 162.867 98.7369 162.947 98.7049 163ZM94.8169 155.4C94.5716 155.4 94.3743 155.325 94.2249 155.176C94.0756 155.027 94.0009 154.829 94.0009 154.584C94.0009 154.339 94.0756 154.141 94.2249 153.992C94.3743 153.843 94.5716 153.768 94.8169 153.768C95.0623 153.768 95.2596 153.843 95.4089 153.992C95.5583 154.141 95.6329 154.339 95.6329 154.584C95.6329 154.829 95.5583 155.027 95.4089 155.176C95.2596 155.325 95.0623 155.4 94.8169 155.4ZM109.21 163C108.304 163 107.658 162.733 107.274 162.2C106.89 161.667 106.698 160.957 106.698 160.072L107.594 159.736C107.616 160.28 107.69 160.696 107.818 160.984C107.946 161.272 108.128 161.469 108.362 161.576C108.608 161.672 108.896 161.72 109.226 161.72H109.418V163H109.21ZM109.418 163V161.72C109.461 161.784 109.498 161.869 109.53 161.976C109.562 162.083 109.578 162.211 109.578 162.36C109.578 162.509 109.557 162.643 109.514 162.76C109.482 162.867 109.45 162.947 109.418 163ZM106.746 159.592V159.992C106.224 159.715 105.696 159.448 105.162 159.192C104.64 158.925 104.138 158.707 103.658 158.536C103.178 158.365 102.746 158.28 102.362 158.28C101.904 158.28 101.493 158.355 101.13 158.504C100.768 158.643 100.453 158.845 100.186 159.112C100.069 159.027 99.9623 158.92 99.8663 158.792C99.7703 158.653 99.7223 158.493 99.7223 158.312C99.7223 158.088 99.8396 157.88 100.074 157.688C100.32 157.485 100.64 157.325 101.034 157.208C101.429 157.091 101.856 157.032 102.314 157.032C102.816 157.032 103.312 157.107 103.802 157.256C104.304 157.405 104.778 157.597 105.226 157.832C105.685 158.056 106.106 158.285 106.49 158.52C106.874 158.755 107.205 158.952 107.482 159.112C107.525 159.208 107.557 159.299 107.578 159.384C107.6 159.459 107.61 159.587 107.61 159.768C107.61 159.864 107.594 159.987 107.562 160.136C107.541 160.275 107.514 160.381 107.482 160.456C107.024 160.68 106.501 160.936 105.914 161.224C105.338 161.512 104.704 161.795 104.01 162.072C103.317 162.339 102.576 162.563 101.786 162.744C100.997 162.915 100.165 163 99.2903 163H98.4423V161.72H99.1303C100.165 161.72 101.125 161.603 102.01 161.368C102.906 161.123 103.744 160.835 104.522 160.504C105.312 160.173 106.053 159.869 106.746 159.592ZM109.161 163V161.688H109.305C109.604 161.688 109.86 161.624 110.073 161.496C110.297 161.357 110.489 161.181 110.649 160.968C110.809 160.755 110.948 160.525 111.065 160.28C111.374 159.576 111.7 159.005 112.041 158.568C112.382 158.131 112.74 157.811 113.113 157.608C113.497 157.395 113.913 157.288 114.361 157.288C114.948 157.288 115.444 157.437 115.849 157.736C116.265 158.024 116.58 158.419 116.793 158.92C117.017 159.411 117.129 159.965 117.129 160.584C117.129 161.384 116.873 161.987 116.361 162.392C115.849 162.787 115.22 162.984 114.473 162.984C114.014 162.984 113.588 162.925 113.193 162.808C112.809 162.68 112.468 162.499 112.169 162.264C111.881 162.019 111.646 161.725 111.465 161.384L111.721 161.528C111.476 161.955 111.166 162.307 110.793 162.584C110.42 162.851 109.918 162.989 109.289 163H109.161ZM114.489 161.736C114.894 161.736 115.241 161.635 115.529 161.432C115.817 161.229 115.961 160.931 115.961 160.536C115.961 160.205 115.908 159.891 115.801 159.592C115.694 159.283 115.524 159.032 115.289 158.84C115.054 158.637 114.745 158.536 114.361 158.536C113.892 158.536 113.481 158.733 113.129 159.128C112.777 159.523 112.484 160.019 112.249 160.616C112.494 160.957 112.809 161.229 113.193 161.432C113.588 161.635 114.02 161.736 114.489 161.736ZM130.136 163C129.667 163 129.272 162.931 128.952 162.792C128.632 162.643 128.371 162.451 128.168 162.216C127.966 161.971 127.79 161.715 127.64 161.448L127.432 161.048C127.155 160.429 126.862 159.811 126.552 159.192C126.254 158.563 125.966 157.976 125.688 157.432C125.422 156.888 125.182 156.429 124.968 156.056C125.064 155.949 125.187 155.859 125.336 155.784C125.486 155.699 125.646 155.656 125.816 155.656C126.008 155.656 126.168 155.704 126.296 155.8C126.424 155.885 126.536 156.04 126.632 156.264L128.216 159.96C128.44 160.483 128.686 160.909 128.952 161.24C129.23 161.56 129.651 161.72 130.216 161.72H130.296V163H130.136ZM124.328 163C123.987 163 123.672 162.973 123.384 162.92C123.096 162.867 122.878 162.813 122.728 162.76C122.462 162.653 122.275 162.541 122.168 162.424C122.072 162.296 122.024 162.157 122.024 162.008C122.024 161.848 122.046 161.715 122.088 161.608C122.142 161.501 122.2 161.411 122.264 161.336C122.552 161.475 122.878 161.581 123.24 161.656C123.614 161.72 123.998 161.747 124.392 161.736C124.915 161.725 125.39 161.661 125.816 161.544C126.243 161.427 126.595 161.277 126.872 161.096C127.16 160.915 127.342 160.723 127.416 160.52L128.28 161.24C128.184 161.485 127.987 161.747 127.688 162.024C127.39 162.301 126.968 162.536 126.424 162.728C125.88 162.909 125.182 163 124.328 163ZM130.296 163V161.72C130.339 161.784 130.376 161.869 130.408 161.976C130.44 162.083 130.456 162.211 130.456 162.36C130.456 162.509 130.435 162.643 130.392 162.76C130.36 162.867 130.328 162.947 130.296 163ZM138.34 159.592V159.992C137.817 159.715 137.289 159.448 136.756 159.192C136.233 158.925 135.732 158.707 135.252 158.536C134.772 158.365 134.34 158.28 133.956 158.28C133.497 158.28 133.087 158.355 132.724 158.504C132.361 158.643 132.047 158.845 131.78 159.112C131.663 159.027 131.556 158.92 131.46 158.792C131.364 158.653 131.316 158.493 131.316 158.312C131.316 158.088 131.433 157.88 131.668 157.688C131.913 157.485 132.233 157.325 132.628 157.208C133.023 157.091 133.449 157.032 133.908 157.032C134.409 157.032 134.905 157.107 135.396 157.256C135.897 157.405 136.372 157.597 136.82 157.832C137.279 158.056 137.7 158.285 138.084 158.52C138.468 158.755 138.799 158.952 139.076 159.112C139.119 159.208 139.151 159.299 139.172 159.384C139.193 159.459 139.204 159.587 139.204 159.768C139.204 159.864 139.188 159.987 139.156 160.136C139.135 160.275 139.108 160.381 139.076 160.456C138.617 160.68 138.095 160.936 137.508 161.224C136.932 161.512 136.297 161.795 135.604 162.072C134.911 162.339 134.169 162.563 133.38 162.744C132.591 162.915 131.759 163 130.884 163H130.036V161.72H130.724C131.759 161.72 132.719 161.603 133.604 161.368C134.5 161.123 135.337 160.835 136.116 160.504C136.905 160.173 137.647 159.869 138.34 159.592ZM134.66 165.88C134.415 165.88 134.217 165.805 134.068 165.656C133.919 165.507 133.844 165.309 133.844 165.064C133.844 164.819 133.919 164.621 134.068 164.472C134.217 164.323 134.415 164.248 134.66 164.248C134.905 164.248 135.103 164.323 135.252 164.472C135.401 164.621 135.476 164.819 135.476 165.064C135.476 165.309 135.401 165.507 135.252 165.656C135.103 165.805 134.905 165.88 134.66 165.88ZM146.165 163L146.181 161.72H147.637V163H146.165ZM143.685 157.416C144.293 157.416 144.8 157.597 145.205 157.96C145.621 158.312 145.931 158.808 146.133 159.448C146.347 160.088 146.453 160.829 146.453 161.672L145.605 163C145.403 163 145.147 163 144.837 163C144.528 163 144.235 163 143.957 163C142.987 163 142.245 162.771 141.733 162.312C141.221 161.843 140.965 161.181 140.965 160.328C140.965 159.763 141.083 159.261 141.317 158.824C141.563 158.387 141.893 158.045 142.309 157.8C142.725 157.544 143.184 157.416 143.685 157.416ZM143.669 158.664C143.243 158.664 142.885 158.824 142.597 159.144C142.309 159.453 142.165 159.837 142.165 160.296C142.165 160.765 142.325 161.123 142.645 161.368C142.965 161.603 143.429 161.72 144.037 161.72C144.261 161.72 144.491 161.72 144.725 161.72C144.96 161.72 145.168 161.72 145.349 161.72C145.349 160.643 145.189 159.864 144.869 159.384C144.56 158.904 144.16 158.664 143.669 158.664ZM142.485 166.664C141.931 166.664 141.461 166.568 141.077 166.376C140.693 166.184 140.501 165.907 140.501 165.544C140.501 165.395 140.533 165.256 140.597 165.128C140.672 165.011 140.752 164.915 140.837 164.84C141.008 165.011 141.248 165.144 141.557 165.24C141.867 165.336 142.155 165.384 142.421 165.384C143.307 165.384 143.973 165.112 144.421 164.568C144.88 164.024 145.179 163.293 145.317 162.376L146.453 161.672C146.453 162.771 146.283 163.688 145.941 164.424C145.6 165.171 145.131 165.731 144.533 166.104C143.936 166.477 143.253 166.664 142.485 166.664ZM147.637 163V161.72C147.68 161.784 147.717 161.869 147.749 161.976C147.781 162.083 147.797 162.211 147.797 162.36C147.797 162.509 147.776 162.643 147.733 162.76C147.701 162.867 147.669 162.947 147.637 163ZM147.38 163V161.72H147.636C147.966 161.72 148.297 161.693 148.628 161.64C148.969 161.587 149.273 161.517 149.54 161.432C149.806 161.347 150.009 161.256 150.148 161.16C150.148 160.701 150.116 160.227 150.052 159.736C149.988 159.235 149.908 158.755 149.812 158.296C149.716 157.827 149.62 157.416 149.524 157.064C149.609 157.011 149.71 156.963 149.828 156.92C149.945 156.867 150.073 156.84 150.212 156.84C150.404 156.84 150.564 156.904 150.692 157.032C150.82 157.149 150.916 157.363 150.98 157.672C151.022 157.864 151.065 158.125 151.108 158.456C151.161 158.787 151.204 159.139 151.236 159.512C151.278 159.885 151.3 160.232 151.3 160.552C151.3 161.043 151.257 161.416 151.172 161.672C151.086 161.928 150.889 162.152 150.58 162.344C150.26 162.547 149.828 162.707 149.284 162.824C148.75 162.941 148.201 163 147.636 163H147.38ZM148.868 155.608C148.622 155.608 148.43 155.539 148.292 155.4C148.153 155.251 148.084 155.059 148.084 154.824C148.084 154.579 148.153 154.387 148.292 154.248C148.43 154.109 148.622 154.04 148.868 154.04C149.113 154.04 149.305 154.109 149.444 154.248C149.582 154.387 149.652 154.579 149.652 154.824C149.652 155.059 149.582 155.251 149.444 155.4C149.305 155.539 149.113 155.608 148.868 155.608ZM151.108 155.608C150.862 155.608 150.67 155.539 150.532 155.4C150.393 155.251 150.324 155.059 150.324 154.824C150.324 154.579 150.393 154.387 150.532 154.248C150.67 154.109 150.862 154.04 151.108 154.04C151.353 154.04 151.545 154.109 151.684 154.248C151.822 154.387 151.892 154.579 151.892 154.824C151.892 155.059 151.822 155.251 151.684 155.4C151.545 155.539 151.353 155.608 151.108 155.608ZM159.892 163.224C159.274 163.224 158.703 163.171 158.18 163.064C157.658 162.957 157.188 162.808 156.772 162.616C156.719 162.477 156.676 162.333 156.644 162.184C156.612 162.024 156.596 161.859 156.596 161.688C156.596 161.507 156.602 161.373 156.612 161.288C156.634 161.192 156.666 161.064 156.708 160.904C157.263 160.563 157.823 160.179 158.388 159.752C158.954 159.325 159.482 158.856 159.972 158.344L160.164 158.216C160.378 157.96 160.57 157.635 160.74 157.24C160.922 156.835 161.06 156.344 161.156 155.768C161.263 155.192 161.316 154.509 161.316 153.72V152.36C161.37 152.339 161.455 152.317 161.572 152.296C161.7 152.264 161.828 152.248 161.956 152.248C162.17 152.248 162.324 152.296 162.42 152.392C162.527 152.477 162.58 152.611 162.58 152.792L162.596 153.864C162.607 154.547 162.57 155.16 162.484 155.704C162.41 156.237 162.298 156.712 162.148 157.128C161.999 157.533 161.828 157.896 161.636 158.216C161.455 158.525 161.268 158.797 161.076 159.032L160.852 159.24C160.426 159.688 159.94 160.115 159.396 160.52C158.852 160.925 158.324 161.283 157.812 161.592C158.068 161.699 158.372 161.779 158.724 161.832C159.076 161.885 159.418 161.912 159.748 161.912C160.25 161.912 160.628 161.875 160.884 161.8C161.151 161.725 161.327 161.635 161.412 161.528C161.508 161.421 161.556 161.315 161.556 161.208C161.556 160.941 161.455 160.643 161.252 160.312C161.05 159.971 160.74 159.619 160.324 159.256L160.052 159.016C159.807 158.76 159.54 158.504 159.252 158.248C158.964 157.981 158.671 157.725 158.372 157.48C158.084 157.224 157.802 156.984 157.524 156.76C157.258 156.525 157.012 156.312 156.788 156.12C156.66 156.003 156.554 155.896 156.468 155.8C156.394 155.704 156.356 155.597 156.356 155.48C156.356 155.235 156.447 155.043 156.628 154.904C156.81 154.765 156.959 154.675 157.076 154.632C157.599 155.091 158.191 155.624 158.852 156.232C159.514 156.84 160.148 157.464 160.756 158.104L161.044 158.344C161.599 158.845 162.026 159.357 162.324 159.88C162.634 160.403 162.788 160.877 162.788 161.304C162.788 161.923 162.532 162.397 162.02 162.728C161.519 163.059 160.81 163.224 159.892 163.224Z" fill="#697485"/>
</svg>
