<svg width="142" height="117" viewBox="0 0 142 117" fill="none" xmlns="http://www.w3.org/2000/svg">
<path d="M123.867 57.0744C123.867 72.7848 119.079 86.9388 109.917 97.1619C100.759 107.381 87.2134 113.693 69.6534 113.693C34.5134 113.693 5.85005 88.427 5.85005 57.0744C5.85005 41.3647 10.6964 27.1603 19.9158 16.8866C29.132 6.61653 42.7357 0.254348 60.2951 0.254348C95.4326 0.254348 123.867 25.7195 123.867 57.0744Z" fill="#ECECFE" stroke="#3537F5" stroke-width="0.508696"/>
<path d="M125.394 60.1265C125.394 75.8369 120.605 89.9909 111.443 100.214C102.285 110.433 88.7395 116.746 71.1796 116.746C36.0396 116.746 7.37617 91.4792 7.37617 60.1265C7.37617 44.4168 12.2225 30.2124 21.4419 19.9387C30.6581 9.66865 44.2618 3.30647 61.8213 3.30647C96.9588 3.30647 125.394 28.7717 125.394 60.1265Z" stroke="#3537F5" stroke-width="0.508696"/>
<path d="M77.9225 26.3102C77.8462 26.3102 77.775 26.2746 77.7292 26.2136C77.6631 26.122 77.6682 25.9999 77.7394 25.9134L92.344 8.43466C92.4305 8.33292 92.5831 8.31766 92.6848 8.40414C92.7866 8.49062 92.8018 8.64322 92.7154 8.74496L78.7466 25.4607L116.222 9.83357C116.344 9.7827 116.487 9.83867 116.538 9.96584C116.588 10.0879 116.533 10.2304 116.405 10.2812L78.0192 26.2899C77.9886 26.3001 77.9581 26.3102 77.9276 26.3102H77.9225Z" fill="#ECECFE"/>
<path d="M119.422 93.4521C119.422 93.4521 119.376 93.4521 119.356 93.4419L100.178 88.0141C100.051 87.9785 99.9746 87.8411 100.01 87.714C100.046 87.5868 100.183 87.5105 100.31 87.5461L119.488 92.9739C119.615 93.0095 119.692 93.1468 119.656 93.274C119.626 93.3808 119.529 93.4521 119.422 93.4521Z" fill="#3537F5"/>
<path d="M0.244835 38.8385C0.117661 38.8385 0.0108452 38.7367 0.000671294 38.6096C-0.00950262 38.4773 0.0973142 38.3603 0.229575 38.3552L10.6375 37.7549C10.7698 37.7499 10.8868 37.8516 10.8918 37.9839C10.902 38.1161 10.7952 38.2331 10.6629 38.2382L0.255019 38.8385C0.255019 38.8385 0.244846 38.8385 0.239759 38.8385H0.244835Z" fill="#3238F5"/>
<path d="M42.4202 3.15901L40.5177 2.04497L39.5155 0.0763168C39.4952 0.0305342 39.4494 0.00508696 39.3985 0C39.3477 0 39.3019 0.0254373 39.2764 0.0661329L38.1624 1.96867L36.1937 2.9708C36.148 2.99114 36.1225 3.03692 36.1174 3.08779C36.1174 3.13866 36.1429 3.18443 36.1836 3.20987L38.0861 4.32391L39.0882 6.29258C39.1086 6.33836 39.1543 6.36379 39.2052 6.36888C39.2561 6.36888 39.2968 6.34344 39.3222 6.30275L40.4413 4.40023L42.41 3.3981C42.4558 3.37775 42.4812 3.33196 42.4863 3.28109C42.4863 3.23022 42.4609 3.18445 42.4202 3.15901Z" fill="#3238F5"/>
<path d="M29.9074 80.3333L26.8682 78.5537L25.2674 75.4089C25.2349 75.3358 25.1617 75.2951 25.0805 75.287C24.9992 75.287 24.9261 75.3276 24.8854 75.3926L23.1058 78.4318L19.961 80.0327C19.8879 80.0652 19.8472 80.1383 19.8391 80.2195C19.8391 80.3008 19.8797 80.3739 19.9448 80.4146L22.9839 82.1942L24.5848 85.339C24.6173 85.4121 24.6904 85.4528 24.7717 85.4609C24.8529 85.4609 24.9179 85.4203 24.9586 85.3553L26.7463 82.3161L29.8911 80.7153C29.9643 80.6827 30.0049 80.6096 30.013 80.5283C30.013 80.4471 29.9724 80.374 29.9074 80.3333Z" fill="#3238F5"/>
<path d="M12.1025 33.7212C12.1025 33.7212 12.0619 33.7212 12.0364 33.7111L5.10291 31.7933C4.97573 31.7577 4.89942 31.6254 4.93503 31.4932C4.97064 31.366 5.1029 31.2897 5.23516 31.3253L12.1687 33.2431C12.2959 33.2787 12.3722 33.4109 12.3366 33.5432C12.306 33.65 12.2094 33.7212 12.1025 33.7212Z" fill="#3238F5"/>
<path d="M12.9571 30.8975C12.891 30.8975 12.8299 30.872 12.7791 30.8212L5.86591 23.5621C5.77434 23.4654 5.77942 23.3128 5.87607 23.2213C5.97273 23.1297 6.12534 23.1348 6.21691 23.2314L13.1301 30.4905C13.2216 30.5872 13.2165 30.7398 13.1199 30.8313C13.0741 30.8771 13.0131 30.8975 12.952 30.8975H12.9571Z" fill="#3238F5"/>
<path d="M103.943 0.229216C103.987 0.1101 104.12 0.0456879 104.243 0.0807077C104.37 0.117509 104.442 0.258543 104.401 0.384206L101.317 10.3429C101.276 10.4686 101.139 10.5425 101.014 10.501C100.886 10.4642 100.814 10.3231 100.856 10.1975L103.939 0.238754C103.939 0.238754 103.943 0.229226 103.945 0.224461L103.943 0.229216Z" fill="#3238F5"/>
<path d="M104.582 13.1281C104.582 13.1281 104.596 13.09 104.615 13.0697L108.84 7.24734C108.918 7.1407 109.068 7.11555 109.18 7.19524C109.287 7.27314 109.312 7.42374 109.232 7.53515L105.007 13.3576C104.929 13.4642 104.778 13.4893 104.667 13.4097C104.578 13.3436 104.545 13.2282 104.582 13.1281Z" fill="#3238F5"/>
<path d="M42.7305 61.2715L62.4118 80.1196L90.8022 32.0479" stroke="#3537F5" stroke-width="5.08696" stroke-linecap="round" stroke-linejoin="round"/>
<path fill-rule="evenodd" clip-rule="evenodd" d="M139.017 57.9607C134.017 57.9607 129.144 57.0705 124.804 55.3409C117.769 52.5482 112.652 47.8377 110.764 42.415C109.121 37.7045 109.778 31.8239 112.611 25.8569C113.291 24.4254 114.088 23.0079 114.99 21.6195L115.378 21.8739C114.487 23.2449 113.699 24.6449 113.028 26.0604C110.251 31.9155 109.6 37.6689 111.202 42.2675C113.043 47.5579 118.064 52.1667 124.972 54.9086C129.376 56.6574 134.133 57.5187 139.017 57.5099V57.8997V57.9607Z" fill="#3537F5"/>
</svg>
