<svg width="533" height="545" viewBox="0 0 533 545" fill="none" xmlns="http://www.w3.org/2000/svg">
<mask id="mask0_472_24010" style="mask-type:luminance" maskUnits="userSpaceOnUse" x="0" y="0" width="533" height="545">
<path d="M266.5 544.98C413.684 544.98 533 422.982 533 272.49C533 121.998 413.684 0 266.5 0C119.316 0 0 121.998 0 272.49C0 422.982 119.316 544.98 266.5 544.98Z" fill="white"/>
</mask>
<g mask="url(#mask0_472_24010)">
<path d="M176.34 511.64C173.54 518.95 170.14 525.91 166.05 532.29C156.41 547.6 143.11 559.46 126.08 564.2C125.94 564.24 125.76 564.27 125.61 564.31C84.7098 575.46 26.5898 561.23 26.5898 561.23C27.0198 550.01 28.5998 539.54 31.1398 529.86C32.0698 526.31 33.0798 522.87 34.2598 519.54C34.3998 519.07 34.5798 518.57 34.7598 518.11C58.7098 451.07 128.9 422.32 166.54 406.33C166.68 406.4 166.79 406.51 166.94 406.58C188.31 420.06 191.96 470.89 176.33 511.65L176.34 511.64Z" fill="#DFEE95"/>
<path d="M505.5 561.219C505.5 561.219 447.35 575.449 406.45 564.299C406.31 564.259 406.16 564.229 406.02 564.189C385.91 558.599 371 542.999 361.1 523.609C359.13 519.769 357.34 515.759 355.76 511.639C340.13 470.879 343.79 420.049 365.15 406.569C365.29 406.499 365.4 406.389 365.54 406.319C383.14 413.819 407.89 424.109 431.68 439.819C431.68 439.819 431.68 439.809 431.68 439.799C432.11 440.089 432.54 440.369 433.01 440.659C433.51 441.019 434.05 441.339 434.59 441.739C463.45 461.349 490.44 489.169 500.95 529.859C503.5 539.539 505.07 550.009 505.5 561.229V561.219Z" fill="#DFEE95"/>
<path d="M409.57 498.489C409.39 517.489 408.53 539.639 406.45 564.309C403.37 600.589 397.6 642.249 387.45 687.159C367.05 777.679 364.72 808.799 266.35 814.239V814.279C265.92 814.239 266.14 814.239 265.71 814.279V814.239C167.34 808.789 165.08 777.849 144.61 687.159C134.47 642.239 128.69 600.579 125.61 564.309C124.54 551.299 123.75 538.999 123.24 527.489C120.55 464.969 125.57 425.819 125.57 425.819C140.52 417.789 154.03 411.479 166.94 406.569C176.47 402.909 185.72 400.049 194.97 397.819C216.8 392.549 238.85 390.689 265.7 390.359H266.34C304.66 390.789 333.13 394.409 365.14 406.559C378.04 411.469 391.52 417.779 406.47 425.809C406.47 425.809 409.98 453.089 409.55 498.479L409.57 498.489Z" fill="#DFEE95"/>
<path d="M413.17 471.93C414.14 495.15 413.61 518.36 411.7 541.52C411.05 549.24 410.11 556.94 409.01 564.62C408.81 566.04 407.49 567.02 406.07 566.82C404.66 566.62 403.68 565.31 403.87 563.91C405.71 548.75 407.02 533.35 407.83 518.09C408.66 502.77 409.11 487.39 409.13 472.05C409.14 469.46 412.98 469.29 413.17 471.93Z" fill="black"/>
<path d="M122.94 472.05C123 495.06 123.88 518.12 125.84 541.05C126.45 548.48 127.32 556.58 128.21 563.96C128.51 567.29 123.63 567.96 123.07 564.62C120.81 549.28 119.55 533.82 118.93 518.35C118.33 502.87 118.22 487.43 118.9 471.94C119.07 469.35 122.91 469.41 122.94 472.06V472.05Z" fill="black"/>
<path d="M191.62 250.27C191.62 262.27 194.69 275.5 182.73 275.5C164.18 275.5 152.05 260.68 152.05 248.69C152.05 236.7 157.99 228.55 169.96 228.55C181.93 228.55 191.62 238.27 191.62 250.27Z" fill="#F5DCCB"/>
<path d="M171.26 256.04C170.44 258.73 167.36 259.5 165.06 257.94C160.33 254.83 156.81 243.1 163.91 243.1C164.41 243.1 164.91 243.21 165.34 243.42C168.59 245.11 172.21 253.17 171.26 256.04Z" fill="#BF6A49"/>
<path d="M340.45 250.27C340.45 262.27 337.38 275.5 349.34 275.5C367.89 275.5 380.02 260.68 380.02 248.69C380.02 236.7 374.08 228.55 362.11 228.55C350.14 228.55 340.45 238.27 340.45 250.27Z" fill="#F5DCCB"/>
<path d="M360.81 256.04C361.63 258.73 364.71 259.5 367.01 257.94C371.74 254.83 375.26 243.1 368.16 243.1C367.66 243.1 367.16 243.21 366.73 243.42C363.48 245.11 359.86 253.17 360.82 256.04H360.81Z" fill="#BF6A49"/>
<path d="M336.67 409.939C336.67 448.939 305.05 480.599 266.05 480.599C227.05 480.599 195.39 448.949 195.39 409.939C195.39 400.549 197.22 391.589 200.59 383.379C200.7 383.059 200.8 382.729 200.95 382.449C206.9 365.599 210.63 354.089 212.42 344.699C213.71 337.889 214.25 332.479 214.93 326.019V325.729C214.93 297.479 237.8 274.609 266.05 274.609C294.3 274.609 317.13 297.479 317.13 325.729C317.85 332.289 318.39 337.769 319.71 344.689C321.54 354.259 325.34 366.019 331.5 383.369C334.83 391.579 336.66 400.539 336.66 409.929L336.67 409.939Z" fill="#F5DCCB"/>
<path d="M285.467 372.942C311.582 362.227 324.065 332.37 313.349 306.256C302.634 280.142 272.777 267.659 246.663 278.374C220.549 289.09 208.066 318.946 218.781 345.06C229.497 371.175 259.353 383.658 285.467 372.942Z" fill="#F5DCCB"/>
<path d="M296.04 473.872C331.372 457.314 346.591 415.249 330.033 379.918C313.475 344.586 271.41 329.367 236.079 345.925C200.747 362.483 185.528 404.548 202.086 439.879C218.644 475.211 260.709 490.43 296.04 473.872Z" fill="#F5DCCB"/>
<path d="M344.52 308.659C332.29 328.559 303.37 357.019 266.4 357.449H265.69C228.72 357.019 199.8 328.559 187.57 308.659C165.18 272.239 170.24 199.929 186.72 165.299C202.66 131.819 231.4 114.069 265.69 113.319C265.83 113.279 265.93 113.279 266.06 113.279C266.16 113.279 266.3 113.279 266.4 113.319C300.69 114.069 329.44 131.819 345.37 165.299C361.85 199.929 366.91 272.239 344.52 308.659Z" fill="#F5DCCB"/>
<path d="M293.26 195.94C293.42 185.01 320.42 187.96 319.08 198.99C317.95 208.32 293.13 204.84 293.26 195.94Z" fill="#1E1D1E"/>
<path d="M213.09 199.12C210.71 188.45 237.65 185.05 238.91 196.09C239.97 205.43 215.03 207.81 213.09 199.12Z" fill="#1E1D1E"/>
<path d="M311.82 237.909C310.99 241.469 308.68 243.579 305.78 243.439C299.44 243.149 297.29 234.249 300.21 229.519C303.02 224.969 309.8 226.339 311.46 231.109C312.2 233.229 312.33 235.729 311.82 237.909Z" fill="#0D1016"/>
<path d="M231.57 237.909C230.74 241.469 228.43 243.579 225.53 243.439C219.19 243.149 217.04 234.249 219.96 229.519C222.77 224.969 229.55 226.339 231.21 231.109C231.95 233.229 232.08 235.729 231.57 237.909Z" fill="#0D1016"/>
<path d="M275.84 503.229C272.38 499.239 269.38 494.859 267.04 490.069C266.38 488.709 263.3 482.199 261.78 481.949C260.13 481.679 259.9 483.989 259.19 485.239C248.17 504.809 241.72 516.599 221.67 505.669C206.32 497.299 191.83 487.639 179.65 474.979C166.96 461.789 155.21 447.809 145.7 432.049C143.97 429.179 143.03 426.019 141.52 423.089C140.12 420.359 140.7 417.859 142.57 415.739C152.24 404.789 167.61 393.559 178.77 388.429C182.21 386.849 185.57 386.929 188.88 388.909C219.79 407.419 242.7 432.369 259.21 463.429C260.81 466.439 261.39 468.449 263.08 465.479C275.5 443.729 287.33 426.139 307.39 408.289C313.08 403.219 329.52 391.719 333.67 389.429C338.22 386.919 342.32 387.029 346.81 389.389C360.67 396.659 369.74 404.469 379.82 414.499C382.56 417.229 383.06 419.889 381.77 423.429C377.35 435.519 364.01 452.309 355.59 462.119C336.07 484.869 318.96 496.909 298.45 507.219C288.77 512.079 281.73 509.979 275.85 503.219L275.84 503.229Z" fill="#D8E28F"/>
<path d="M273.54 530.21C273.54 536.81 268.19 542.16 261.59 542.16C254.99 542.16 249.64 536.81 249.64 530.21C249.64 523.61 254.99 518.26 261.59 518.26C268.19 518.26 273.54 523.61 273.54 530.21Z" fill="white"/>
<path d="M419 235.8C420.53 230.93 420.95 225.8 419.84 220.92C418.8 216.34 395.88 188.44 391.25 195.11C397.27 186.43 403.2 176.07 400.46 165.87C398.26 157.67 391.07 152 384.94 146.13C363.08 125.19 358.32 72.5897 322.3 71.4497C317.36 71.2897 312.2 72.3197 307.62 70.4797C302.98 68.6197 299.96 64.2297 296.5 60.6197C280.23 43.6397 251.62 43.2597 236.82 62.0897C234.05 65.6097 231.63 69.8697 227.43 71.4097C223.11 72.9997 218.37 71.1697 213.79 70.7197C201.85 69.5597 190.87 78.1497 184.59 88.3597C178.31 98.5797 175.43 110.46 170.76 121.51C161.3 143.88 113.1 167.52 145.08 195.66C131.21 196.61 118.67 207.66 115.97 221.29C113.28 234.92 120.68 249.92 133.15 256.06C120.46 249.8 122.91 294.24 131.16 301.28C146.39 314.27 165.6 308.14 176.31 292.77C184.3 281.31 186.6 268.06 181.62 254.99C176.36 241.19 179.78 228.46 186.36 215.17C192.29 203.2 199.78 191.67 202.17 178.53C203.18 172.99 203.24 167.3 204.47 161.8C206.7 151.84 213.29 147.15 221.77 142.5C232.05 136.87 241.59 129.9 252.59 125.87C292.42 124.81 310.29 135.82 319.1 146.98C334.26 166.2 326.81 191.29 347.86 212.72C350.84 215.75 356.75 222.17 359.17 231.82C360.38 236.65 359.65 242.94 354.93 252.96C345.5 272.99 358.92 304.83 382.01 308.38C410.5 312.76 423.74 273.67 403.26 256.25C410.41 251.89 416.38 244.21 419.02 235.79L419 235.8Z" fill="#1E1D1E"/>
<path d="M273.46 218.769C276.3 228.539 277.94 238.139 279.36 248.159C281.11 258.639 277.34 266.729 266.12 268.299C263.62 268.659 260.78 269.139 258.2 268.709C254.84 268.239 254.79 263.429 258.09 262.859C259.03 262.689 260.41 262.519 261.3 262.239C263.94 261.429 268.26 260.999 270.19 259.359C273.21 256.859 272.61 252.589 272.35 248.939C271.34 239.359 270.29 229.349 269.03 219.839C268.58 217.039 272.59 216.059 273.47 218.769H273.46Z" fill="#E0A080"/>
<path d="M253.56 287.33C257.61 291.71 262.96 295.11 268.76 296.5C272.26 297.33 275.77 297.37 279.39 297.05C283.9 296.51 284.98 302.93 280.55 303.87C274.58 305.09 268.21 304.56 262.65 302C257.08 299.52 252.35 295.51 249.1 290.36C247.4 287.41 251.43 284.71 253.56 287.34V287.33Z" fill="#0D1016"/>
<path d="M335.08 231.02C333.19 217.08 319.38 207.42 304.36 209.44C293.76 210.86 284.8 217.93 281.54 227.47L281.23 228.39L280.31 227.98C267.81 222.47 258.16 225.04 252.26 228.16L251.25 228.69L250.96 227.62C247.52 215.36 234.65 207.5 220.95 209.28C213.64 210.26 207.12 213.82 202.62 219.31C198.11 224.77 196.13 231.49 197.03 238.23C197.94 244.97 201.63 250.92 207.43 254.98C213.2 259.07 220.42 260.79 227.76 259.8C240.83 258.03 250.93 247.92 251.8 235.76L251.84 235.33L252.16 235.07C253.89 233.7 258.7 230.51 265.83 230.51C270.29 230.51 274.99 231.77 279.81 234.27L280.31 234.52V235.03C280.28 236 280.32 237.02 280.47 238.37C282.19 251.04 293.81 260.2 307.27 260.2C308.57 260.2 309.88 260.12 311.2 259.94C318.52 258.96 325.03 255.39 329.53 249.9C334 244.45 335.98 237.74 335.12 231L335.08 231.02ZM324.48 246.58C320.98 250.8 315.97 253.54 310.37 254.3C304.81 255.09 299.23 253.72 294.79 250.57C290.26 247.38 287.4 242.75 286.72 237.53C286 232.33 287.54 227.11 291.05 222.83C294.5 218.62 299.5 215.88 305.12 215.12C306.15 214.98 307.18 214.91 308.2 214.91C312.73 214.91 317.09 216.27 320.75 218.85C325.23 221.97 328.1 226.59 328.82 231.89C329.54 237.09 328 242.31 324.49 246.58H324.48ZM241.05 246.43C237.59 250.64 232.58 253.38 226.94 254.14C221.26 254.94 215.79 253.56 211.35 250.41C206.82 247.22 203.95 242.59 203.28 237.37C202.56 232.17 204.09 226.95 207.61 222.68C211.1 218.46 216.1 215.72 221.68 214.96C222.71 214.82 223.74 214.75 224.77 214.75C229.29 214.75 233.65 216.11 237.31 218.69C241.8 221.85 244.66 226.48 245.38 231.73C246.1 236.93 244.56 242.15 241.05 246.43Z" fill="#C27023"/>
</g>
</svg>
