<svg width="533" height="545" viewBox="0 0 533 545" fill="none" xmlns="http://www.w3.org/2000/svg">
<mask id="mask0_472_24008" style="mask-type:luminance" maskUnits="userSpaceOnUse" x="0" y="0" width="533" height="545">
<path d="M266.5 544.98C413.684 544.98 533 422.982 533 272.49C533 121.998 413.684 0 266.5 0C119.316 0 0 121.998 0 272.49C0 422.982 119.316 544.98 266.5 544.98Z" fill="white"/>
</mask>
<g mask="url(#mask0_472_24008)">
<path d="M404.18 456.36C404.01 474.59 403.18 495.84 401.19 519.5C398.23 554.3 392.7 594.26 382.97 637.35C363.4 724.18 361.17 754.03 266.81 759.25V759.28C266.4 759.25 266.61 759.25 266.19 759.28V759.25C171.83 754.02 169.66 724.35 150.03 637.35C140.3 594.26 134.76 554.3 131.81 519.5C130.78 507.02 130.02 495.22 129.54 484.18C126.96 424.21 131.78 386.66 131.78 386.66C146.12 378.96 159.08 372.91 171.46 368.19C180.61 364.68 189.48 361.93 198.35 359.8C219.29 354.75 240.44 352.96 266.2 352.65H266.82C303.58 353.06 330.89 356.54 361.59 368.19C373.97 372.9 386.9 378.95 401.24 386.66C401.24 386.66 404.61 412.83 404.2 456.36H404.18Z" fill="#3537F5"/>
<path d="M180.48 469.07C177.81 476.09 174.55 482.76 170.63 488.89C161.39 503.58 148.65 514.98 132.32 519.54C132.18 519.57 132.01 519.61 131.87 519.64C92.6396 530.38 36.8896 516.78 36.8896 516.78C37.2896 506.02 38.7896 495.97 41.2296 486.69C42.1196 483.29 43.0796 479.98 44.2096 476.78C44.3496 476.33 44.5196 475.85 44.6896 475.4C67.5896 411.07 134.89 383.42 170.98 368.04C171.12 368.11 171.22 368.21 171.36 368.28C191.87 381.19 195.43 429.95 180.48 469.06V469.07Z" fill="#3537F5"/>
<path d="M496.28 516.291C496.28 516.291 440.52 530.001 401.27 519.351C401.13 519.321 400.99 519.281 400.86 519.251C381.56 513.911 367.24 498.961 357.73 480.371C355.84 476.691 354.11 472.841 352.59 468.891C337.55 429.811 341.01 381.041 361.49 368.091C361.63 368.021 361.73 367.921 361.87 367.851C378.76 375.021 402.51 384.871 425.35 399.911C425.35 399.911 425.35 399.911 425.35 399.901C425.76 400.171 426.18 400.451 426.62 400.721C427.1 401.061 427.62 401.371 428.13 401.751C455.83 420.531 481.75 447.191 491.87 486.211C494.32 495.491 495.84 505.531 496.27 516.291H496.28Z" fill="#3537F5"/>
<path d="M407.639 430.89C408.569 453.16 408.059 475.43 406.229 497.64C405.609 505.04 404.709 512.43 403.649 519.8C403.449 521.16 402.189 522.1 400.829 521.91C399.479 521.72 398.539 520.47 398.719 519.12C400.479 504.57 401.739 489.8 402.519 475.17C403.319 460.48 403.739 445.72 403.769 431.01C403.779 428.52 407.469 428.36 407.639 430.9V430.89Z" fill="#0D1016"/>
<path d="M129.23 431C129.29 453.07 130.14 475.19 132.01 497.19C132.6 504.32 133.43 512.09 134.28 519.17C134.57 522.36 129.89 523 129.35 519.8C127.18 505.09 125.97 490.26 125.38 475.41C124.8 460.56 124.7 445.75 125.35 430.89C125.51 428.4 129.2 428.46 129.22 431H129.23Z" fill="#0D1016"/>
<path d="M217.509 290.641C217.509 290.741 217.479 290.811 217.479 290.921" stroke="#2A38B7" stroke-width="5.16" stroke-miterlimit="10" stroke-linecap="round"/>
<path d="M334.259 371.42C334.259 408.83 303.929 439.2 266.519 439.2C229.109 439.2 198.739 408.84 198.739 371.42C198.739 362.41 200.489 353.81 203.729 345.94C203.829 345.63 203.939 345.32 204.069 345.05C209.779 328.89 213.359 317.85 215.069 308.84C216.309 302.31 216.819 297.11 217.479 290.92V290.65C217.479 263.55 239.419 241.61 266.519 241.61C293.619 241.61 315.519 263.55 315.519 290.65C316.209 296.94 316.719 302.2 317.999 308.84C319.749 318.02 323.399 329.3 329.309 345.94C332.509 353.81 334.259 362.41 334.259 371.42Z" fill="#F5DCCB"/>
<path d="M266.499 339.65C293.572 339.65 315.519 317.703 315.519 290.63C315.519 263.557 293.572 241.61 266.499 241.61C239.426 241.61 217.479 263.557 217.479 290.63C217.479 317.703 239.426 339.65 266.499 339.65Z" fill="#F5DCCB"/>
<path d="M266.499 439.181C303.928 439.181 334.269 408.839 334.269 371.411C334.269 333.982 303.928 303.641 266.499 303.641C229.071 303.641 198.729 333.982 198.729 371.411C198.729 408.839 229.071 439.181 266.499 439.181Z" fill="#F5DCCB"/>
<path d="M195.119 218.26C195.119 229.77 198.069 242.47 186.589 242.47C168.799 242.47 157.159 228.25 157.159 216.75C157.159 205.25 162.859 197.43 174.339 197.43C185.819 197.43 195.119 206.76 195.119 218.26Z" fill="#F5DCCB"/>
<path d="M175.59 223.8C174.81 226.38 171.85 227.12 169.64 225.62C165.11 222.64 161.72 211.38 168.54 211.38C169.02 211.38 169.5 211.48 169.92 211.69C173.04 213.31 176.51 221.04 175.59 223.79V223.8Z" fill="#BF6A49"/>
<path d="M337.88 218.26C337.88 229.77 334.93 242.47 346.41 242.47C364.2 242.47 375.84 228.25 375.84 216.75C375.84 205.25 370.14 197.43 358.66 197.43C347.18 197.43 337.88 206.76 337.88 218.26Z" fill="#F5DCCB"/>
<path d="M357.41 223.8C358.19 226.38 361.15 227.12 363.36 225.62C367.89 222.64 371.28 211.38 364.46 211.38C363.98 211.38 363.5 211.48 363.09 211.69C359.97 213.31 356.5 221.04 357.42 223.79L357.41 223.8Z" fill="#BF6A49"/>
<path d="M341.78 274.27C330.05 293.35 302.31 320.66 266.84 321.07H266.16C230.7 320.66 202.96 293.35 191.22 274.27C169.74 239.33 174.6 169.97 190.4 136.75C205.69 104.63 233.26 87.6104 266.15 86.8904C266.28 86.8604 266.38 86.8604 266.51 86.8604C266.61 86.8604 266.74 86.8604 266.83 86.8904C299.72 87.6104 327.3 104.63 342.58 136.75C358.39 169.97 363.25 239.33 341.77 274.27H341.78Z" fill="#F5DCCB"/>
<path d="M292.61 175.61C292.76 165.13 318.66 167.96 317.38 178.54C316.29 187.49 292.49 184.15 292.61 175.61Z" fill="#0D1016"/>
<path d="M215.71 178.66C213.42 168.43 239.27 165.16 240.48 175.75C241.5 184.71 217.57 187 215.71 178.66Z" fill="#0D1016"/>
<path d="M273.62 188.05C276.33 197.41 277.92 206.67 279.28 216.24C280.96 226.29 277.34 234.05 266.58 235.56C264.18 235.91 261.46 236.36 258.98 235.96C255.76 235.51 255.7 230.9 258.87 230.35C259.77 230.18 261.1 230.03 261.95 229.76C266.21 228.56 271.98 228.44 272.57 223.12C273.29 219.05 271.32 207.28 271.05 203L270.24 195.99C269.99 193.63 269.68 191.27 269.36 189C269.03 186.35 272.81 185.5 273.63 188.06L273.62 188.05Z" fill="#E0A080"/>
<path d="M218.67 203.01C222.73 194.6 232.61 194.1 238.95 200.27C241.84 202.9 238.62 207.45 235.2 205.65C233.2 204.5 230.94 202.95 228.64 202.91C226.92 202.81 225.03 203.89 223.74 205.07C223.32 205.52 222.74 205.88 222.27 206.18C220.19 207.57 217.579 205.22 218.679 203.01H218.67Z" fill="#0D1016"/>
<path d="M295.16 203.08C299.22 194.67 309.1 194.17 315.44 200.33C318.33 202.96 315.11 207.51 311.69 205.71C309.69 204.56 307.43 203.01 305.13 202.97C303.41 202.87 301.52 203.95 300.23 205.13C299.81 205.58 299.23 205.94 298.76 206.24C296.68 207.63 294.07 205.28 295.17 203.07L295.16 203.08Z" fill="#0D1016"/>
<path d="M255.62 251.08C259.5 255.28 264.64 258.54 270.21 259.88C273.57 260.68 276.93 260.72 280.41 260.4C282.33 260.12 284.14 261.51 284.25 263.47C284.36 265.17 283.16 266.65 281.52 266.94C280.81 267.07 280.1 267.18 279.38 267.28C274.33 268.02 269.01 267.26 264.35 265.15C259.01 262.77 254.47 258.92 251.35 253.98C249.72 251.15 253.59 248.56 255.63 251.08H255.62Z" fill="#0D1016"/>
<path d="M211.22 69.1301C232.05 101.85 210.38 139.73 173.25 144.1C121.06 150.25 91.7698 87.5102 134.15 55.8302C157.39 38.4502 194.28 42.5201 211.22 69.1301Z" fill="#0D1016"/>
<path d="M407.949 64.0898C431.309 91.4298 417.299 138.19 373.359 144.08C346.809 147.64 320.039 131.58 314.649 103.72C310.319 81.3397 324.249 53.6897 355.169 46.6897C359.119 45.7897 394.089 47.8697 407.949 64.0997V64.0898Z" fill="#0D1016"/>
<path d="M374.46 150.89C375.21 161.69 372.66 171.92 369.13 181.96C364.93 193.89 359.2 200.85 347.13 195.71C340.51 192.89 322.71 176.02 315.26 167.79C279.83 128.67 273.72 109.04 267.21 97.3701C266.06 95.3101 265.32 99.3801 262.54 104.94C245.2 139.55 212.61 177.55 188.71 194.08C181.48 199.08 172.06 198.79 167.55 190.08C154.07 164.04 154.21 125.3 176.09 96.4201C191.88 75.5801 213.52 66.7401 228.5 66.9901C237.49 67.1401 245.43 65.7201 258.88 71.7401C260.42 72.4301 262.09 72.8801 263.55 73.7101C265.84 75.0101 267.91 74.7801 270.14 73.5801C273.68 71.6601 277.51 70.4401 281.33 69.1601C288.31 66.8001 295.48 67.0901 302.67 66.9401C318.85 66.6001 340.68 75.4501 356.33 95.3201C366 107.6 371.3 121.75 373.86 136.97C374.63 141.52 374.31 146.25 374.49 150.9L374.46 150.89Z" fill="#0D1016"/>
<path d="M211.48 72.3601C189.56 80.5401 171.41 98.8101 164.31 121.17C161.95 128.53 160.85 136.29 161.26 144C161.35 145.38 160.3 146.57 158.92 146.64C157.57 146.72 156.4 145.69 156.3 144.35C153.81 110.58 178.72 78.8501 210.21 68.6901C212.58 67.9501 213.84 71.4401 211.48 72.3501V72.3601Z" fill="#F89437"/>
<path d="M321.749 68.7002C353.239 78.8602 378.149 110.6 375.659 144.36C375.549 145.73 374.359 146.75 372.989 146.65C371.629 146.55 370.609 145.36 370.699 144.01C370.919 140.17 370.729 136.3 370.209 132.48C367.579 113.14 356.379 95.5202 340.929 83.7402C334.729 78.9702 327.819 75.1102 320.469 72.3602C318.169 71.4602 319.329 67.9702 321.749 68.7002Z" fill="#F89437"/>
<path d="M295.319 88.2901C295.389 90.9601 296.909 93.7301 298.229 96.2001C299.139 97.9201 301.619 102.72 302.539 104.52C311.149 120.91 323.269 135.41 337.419 147.3C340.559 149.93 343.859 152.46 347.179 154.77C350.489 157.06 353.959 158.95 357.679 160.24C358.979 160.69 359.659 162.11 359.209 163.4C358.759 164.69 357.369 165.37 356.079 164.95C351.859 163.57 347.869 161.49 344.269 159.07C326.689 146.98 312.009 130.83 301.509 112.28C299.619 109.08 297.479 104.29 295.819 100.92C294.009 96.8601 291.469 93.0701 291.449 88.3301C291.519 85.8201 295.199 85.7601 295.329 88.2901H295.319Z" fill="#555A63"/>
<path d="M241.949 88.0602C240.339 96.4602 235.939 104 232.079 111.45C222.049 130 207.519 146.13 190.129 158.07C186.709 160.4 182.999 162.89 178.619 164.32C177.309 164.75 175.909 164.03 175.479 162.73C175.059 161.44 175.759 160.05 177.039 159.61C180.559 158.41 183.799 156.19 187.169 153.81C203.839 142.18 217.919 126.86 228.009 109.2C231.789 102.28 236.389 94.9701 238.149 87.2901C238.729 84.8701 242.359 85.5701 241.949 88.0701V88.0602Z" fill="#555A63"/>
<path d="M213.82 99.3798C209.49 108.45 202.77 116.17 195.31 122.79C192.81 124.97 190.23 127.04 187.54 128.95C186.42 129.75 184.87 129.48 184.07 128.36C183.31 127.29 183.53 125.81 184.53 124.99C191.91 119.01 199.08 112.7 205 105.25C206.96 102.79 208.77 100.21 210.41 97.5298C211.69 95.4898 214.82 97.1798 213.82 99.3698V99.3798Z" fill="#555A63"/>
<path d="M323.569 97.5497C330.169 108.41 339.629 117.08 349.449 125C351.869 127.06 349.069 130.74 346.439 128.96C341.049 125.11 336.039 120.72 331.539 115.83C327.039 110.9 323.019 105.44 320.159 99.3797C319.699 98.4097 320.119 97.2497 321.089 96.7997C321.999 96.3697 323.069 96.7097 323.579 97.5497H323.569Z" fill="#555A63"/>
<path d="M132.029 82.0203C132.459 95.0203 137.209 108.65 147.009 117.49C149.379 119.62 146.439 123.24 143.869 121.34C135.099 114.39 130.349 103.56 128.609 92.7603C128.059 89.1703 127.869 85.5203 128.159 81.8803C128.249 80.8103 129.179 80.0203 130.249 80.1003C131.259 80.1803 132.019 81.0203 132.029 82.0103V82.0203Z" fill="#555A63"/>
<path d="M179.48 71.7405C173.39 65.3305 163.86 63.7305 155.33 63.2205C152.32 63.0605 149.3 63.1105 146.31 63.3105C143.15 63.4605 142.67 58.8705 145.8 58.3605C155.57 57.2005 165.81 58.1605 174.67 62.7205C177.64 64.3105 180.45 66.4705 182.5 69.3205C183.13 70.1905 182.93 71.4005 182.06 72.0305C181.24 72.6205 180.12 72.4805 179.47 71.7405H179.48Z" fill="#555A63"/>
<path d="M160.63 88.9398C152.71 85.7998 144.74 81.4698 136.62 78.9798C133.62 78.0198 134.73 73.5898 137.83 74.1598C146.72 76.1798 154.52 81.0198 162.32 85.4598C164.35 86.6698 162.83 89.7898 160.63 88.9498V88.9398Z" fill="#555A63"/>
<path d="M398.69 81.8903C399.44 92.8203 396.54 103.94 390.53 113.12C388.46 116.18 385.98 119.04 382.98 121.35C381.89 122.19 380.33 121.99 379.49 120.9C378.68 119.85 378.84 118.35 379.84 117.5C387.22 110.97 391.6 101.5 393.66 91.9403C394.35 88.6703 394.75 85.3403 394.82 82.0103C394.92 79.5803 398.45 79.4703 398.69 81.9003V81.8903Z" fill="#555A63"/>
<path d="M344.34 69.3201C350.59 61.0501 361.49 58.5701 371.27 57.9601C374.53 57.8201 377.79 57.9101 381.05 58.3601C382.41 58.5501 383.36 59.8 383.18 61.16C383 62.47 381.82 63.4101 380.52 63.3001C371.73 62.7801 362.39 63.2801 354.27 66.8801C351.64 68.0901 349.24 69.6801 347.36 71.7601C345.72 73.5201 342.96 71.2801 344.35 69.3201H344.34Z" fill="#555A63"/>
<path d="M364.539 85.4501C372.339 81.0101 380.139 76.1701 389.029 74.1501C390.379 73.8701 391.689 74.7401 391.969 76.0901C392.229 77.3701 391.459 78.6101 390.239 78.9801C386.219 80.2201 382.259 81.8901 378.369 83.6201C374.779 85.2101 369.859 87.53 366.229 88.94C364.019 89.78 362.509 86.6401 364.549 85.4501H364.539Z" fill="#555A63"/>
<path d="M267.359 95.5801C265.819 109.04 268.559 123.51 276.569 134.54C279.179 138.06 282.469 141.02 286.319 142.15C287.649 142.53 288.409 143.92 288.019 145.24C287.639 146.53 286.309 147.28 285.019 146.95C270.459 142.84 263.529 123.37 262.659 109.74C262.329 104.8 262.649 99.8401 263.539 95.0101C263.729 93.9601 264.749 93.2601 265.799 93.4501C266.809 93.6401 267.499 94.5801 267.369 95.5901L267.359 95.5801Z" fill="#0D1016"/>
<path d="M215.14 353.911C225.16 362.821 233.35 377.551 239.19 385.951C250.93 402.821 263.56 420.271 271.97 439.121C279.79 456.641 262.55 453.461 251.8 448.651C231.6 439.611 212.71 424.561 198.48 407.721C188.95 396.451 179.73 381.451 180.91 366.091C181.78 354.771 187.73 345.411 200.25 346.501C205.56 346.961 210.54 349.821 215.13 353.901L215.14 353.911Z" fill="#2A38B7"/>
<path d="M317.86 353.911C307.84 362.821 299.65 377.551 293.81 385.951C282.07 402.821 269.44 420.271 261.03 439.121C253.21 456.641 270.45 453.461 281.2 448.651C301.4 439.611 320.28 424.561 334.52 407.721C344.05 396.451 353.27 381.451 352.09 366.091C351.22 354.771 345.27 345.411 332.75 346.501C327.44 346.961 322.46 349.821 317.87 353.901L317.86 353.911Z" fill="#2A38B7"/>
</g>
</svg>
