<svg width="533" height="545" viewBox="0 0 533 545" fill="none" xmlns="http://www.w3.org/2000/svg">
<mask id="mask0_472_24011" style="mask-type:luminance" maskUnits="userSpaceOnUse" x="0" y="0" width="533" height="545">
<path d="M266.5 544.98C413.684 544.98 533 422.982 533 272.49C533 121.998 413.684 0 266.5 0C119.316 0 0 121.998 0 272.49C0 422.982 119.316 544.98 266.5 544.98Z" fill="white"/>
</mask>
<g mask="url(#mask0_472_24011)">
<path d="M266.801 112.81C321.601 112.81 366.101 157.3 366.101 212.11V314.07C366.101 340.08 344.981 361.2 318.971 361.2H214.641C188.631 361.2 167.511 340.08 167.511 314.07V212.11C167.511 157.31 212.001 112.81 266.811 112.81H266.801Z" fill="#1E1D1E"/>
<path d="M187.19 470.669C184.69 477.199 181.66 483.399 178.01 489.099C169.41 502.759 157.54 513.349 142.34 517.569C142.21 517.599 142.05 517.629 141.92 517.669C105.42 527.619 53.5703 514.919 53.5703 514.919C53.9503 504.909 55.3603 495.569 57.6303 486.929C58.4603 483.759 59.3603 480.689 60.4103 477.719C60.5403 477.299 60.7003 476.859 60.8603 476.439C82.2303 416.619 144.86 390.969 178.45 376.699C178.58 376.759 178.67 376.859 178.8 376.919C197.86 388.949 201.13 434.309 187.18 470.679L187.19 470.669Z" fill="#DFEE95"/>
<path d="M480.911 514.909C480.911 514.909 429.021 527.609 392.531 517.659C392.401 517.629 392.271 517.599 392.151 517.559C374.211 512.569 360.901 498.659 352.071 481.349C350.311 477.929 348.711 474.339 347.301 470.669C333.351 434.299 336.621 388.939 355.681 376.909C355.811 376.849 355.901 376.749 356.031 376.689C371.741 383.379 393.811 392.559 415.051 406.569C415.431 406.829 415.821 407.079 416.231 407.339C416.681 407.659 417.161 407.949 417.641 408.299C443.391 425.799 467.481 450.619 476.851 486.929C479.121 495.569 480.531 504.909 480.911 514.919V514.909Z" fill="#DFEE95"/>
<path d="M392.551 394.089C371.431 382.739 353.611 373.119 330.271 368.149C327.421 370.389 281.781 403.689 267.251 440.859C252.701 403.589 207.921 370.169 205.291 368.119C186.891 372.299 171.051 378.429 141.881 394.089C141.881 394.089 137.401 429.019 139.801 484.809C140.251 494.819 140.921 505.539 141.851 516.859V516.919C141.881 517.179 141.881 517.399 141.911 517.659C144.661 550.029 149.811 587.199 158.861 627.279C177.131 708.209 179.141 735.819 266.921 740.679V740.709C267.301 740.679 267.111 740.679 267.501 740.709V740.679C355.281 735.819 357.351 708.049 375.561 627.279C384.611 587.199 389.761 550.029 392.511 517.659V517.499C394.371 495.559 395.131 475.849 395.291 458.929C395.671 418.429 392.541 394.089 392.541 394.089H392.551Z" fill="#DFEE95"/>
<g opacity="0.35">
<path d="M144.57 458.669C144.76 455.729 143.09 454.129 140.84 452.479C136.72 449.459 132.19 446.979 128.79 442.969C127.28 441.189 125.26 439.619 122.86 439.029C120.99 438.569 119.37 437.769 117.74 436.759C115.57 435.419 113.2 435.269 110.88 436.519C109.22 437.409 107.55 438.299 105.97 439.319C98.7702 443.969 91.6102 448.659 84.4302 453.349C83.1302 454.199 81.9402 455.169 81.1202 456.529C80.0902 458.249 80.2702 459.319 82.0702 460.749C82.6102 461.179 83.1702 461.539 83.4602 462.179C84.5402 464.609 86.5902 466.209 88.3902 468.039C91.7702 471.469 95.5902 474.389 99.3602 477.349C102.19 479.569 105.15 481.619 108.04 483.759C109.76 485.029 111.67 485.679 114.05 485.479C116.37 485.789 118.48 485.089 120.29 483.139C121.43 481.909 122.97 481.019 124.38 480.059C130.77 475.739 137.19 471.459 143.59 467.159C144.02 466.869 144.47 466.609 144.83 466.249C145.87 465.209 146.47 463.979 145.76 462.549C145.15 461.309 144.47 460.119 144.57 458.679V458.669ZM125.56 460.809C121.72 463.349 117.83 465.819 113.94 468.299C113.67 468.469 113.29 468.469 112.77 468.589C112.3 468.349 111.64 468.129 111.12 467.729C109.77 466.689 108.47 465.569 107.16 464.479C105.48 463.079 103.8 461.659 102.12 460.249C103.27 458.209 105.52 457.589 107.23 456.259C108.98 454.889 110.8 453.619 112.62 452.349C113.86 451.489 115.18 451.429 116.46 452.279C119.44 454.269 122.43 456.249 125.37 458.299C126.51 459.089 126.58 460.129 125.57 460.799L125.56 460.809Z" fill="white"/>
<path d="M247.99 452.849C243.09 449.709 238.26 446.459 234.15 442.239C232.84 440.899 231.36 439.629 229.51 439.059C227.53 438.449 225.63 437.739 223.91 436.539C222.86 435.799 221.69 435.829 220.46 436.209C218.8 436.719 217.29 437.519 215.86 438.479C213.44 440.109 211.02 441.739 208.6 443.369C204.2 446.329 200.14 449.819 195.12 451.829C193.73 452.389 192.61 453.599 191.37 454.519C189.87 455.619 189.25 457.259 189.1 458.979C188.96 460.539 190.67 460.529 191.53 461.249C192.17 461.779 192.58 462.589 193.15 463.229C194.28 464.519 195.32 465.899 196.6 467.019C201.64 471.409 206.7 475.799 211.89 480.009C214.01 481.729 216.44 483.079 218.82 484.439C221.52 485.989 224.08 485.749 226.26 483.349C228.02 481.409 230.24 480.129 232.47 478.819C236.45 476.459 240.41 474.049 244.05 471.159C245.52 469.999 247.23 469.139 248.81 468.099C249.81 467.439 250.82 466.789 251.7 465.989C252.33 465.419 252.7 464.599 252.65 463.129C252.36 461.679 251.06 460.009 251.12 457.809C251.18 455.689 249.94 454.109 247.99 452.869V452.849ZM233.05 460.509C229.4 463.009 225.73 465.499 222.04 467.959C221.26 468.479 220.38 468.439 219.66 467.849C217.01 465.709 214.38 463.549 211.79 461.339C211.01 460.669 211.05 459.879 211.98 459.249C215.23 457.049 218.49 454.869 221.72 452.639C222.66 451.989 223.51 451.809 224.51 452.519C227.3 454.469 230.14 456.359 232.92 458.329C233.28 458.579 233.4 459.159 233.6 459.519C233.38 459.939 233.3 460.349 233.06 460.509H233.05Z" fill="white"/>
<path d="M358.81 458.289C358.64 455.429 357.03 453.639 354.74 452.169C350.55 449.489 346.72 446.359 343.16 442.869C341.46 441.209 339.59 439.619 337.24 438.859C335.43 438.279 333.67 437.669 332.13 436.519C330.73 435.479 329.2 435.619 327.75 436.349C326.07 437.189 324.38 438.049 322.83 439.099C318.57 441.969 314.42 445.009 310.13 447.839C307.28 449.719 304.23 451.299 301.32 453.089C299.71 454.079 298.27 455.239 297.71 457.239C297.17 459.169 297.17 459.359 299.15 460.859C299.68 461.259 300.33 461.639 300.65 462.189C302.51 465.369 305.43 467.569 308.05 469.999C313.32 474.889 318.7 479.679 324.9 483.409C326.37 484.289 327.76 485.319 329.52 485.409C331.4 485.559 332.93 484.899 334.16 483.559C335.68 481.899 337.45 480.549 339.4 479.449C345.99 475.739 351.91 471.059 358.05 466.699C360.73 464.799 360.69 464.789 359.47 461.269C359.14 460.309 358.86 459.289 358.8 458.289H358.81ZM341.65 459.919C341.52 460.109 341.32 460.639 340.93 460.899C337.38 463.289 333.81 465.629 330.22 467.969C329.23 468.609 328.26 468.369 327.38 467.689C324.95 465.799 322.51 463.929 320.1 462.009C318.8 460.969 318.72 459.959 319.95 459.109C323.19 456.879 326.48 454.719 329.77 452.559C330.67 451.959 331.58 451.759 332.6 452.489C335.37 454.489 338.2 456.419 340.98 458.399C341.39 458.689 341.79 459.059 341.65 459.919Z" fill="white"/>
<path d="M122.471 405.199C122.831 405.519 123.021 406.039 123.271 406.429C123.121 406.809 123.081 407.199 122.861 407.419C120.321 410.029 117.121 411.719 114.041 413.559C113.271 414.019 112.381 413.909 111.561 413.579C111.141 413.409 110.731 413.189 110.371 412.919C106.311 415.929 102.301 419.099 98.4307 422.519C101.411 424.999 104.371 427.499 107.361 429.969C108.561 430.959 109.941 431.679 111.611 431.389C115.841 430.639 120.011 429.819 123.431 426.859C125.371 425.179 127.471 423.669 129.581 422.209C132.651 420.079 135.431 417.589 139.021 416.109C142.071 414.859 143.301 411.859 143.361 408.529C143.381 406.529 142.701 404.779 141.341 403.379C139.791 401.789 138.201 400.199 136.471 398.819C135.861 398.329 135.311 397.809 134.741 397.299C130.531 399.639 126.301 402.179 122.081 404.869C122.211 404.979 122.351 405.089 122.481 405.199H122.471Z" fill="white"/>
<path d="M440.581 436.709C439.021 435.459 437.381 435.669 435.751 436.479C434.371 437.169 432.971 437.859 431.711 438.729C425.071 443.289 418.641 448.169 411.481 451.969C409.301 453.129 406.901 454.509 406.051 457.209C405.801 458.009 405.541 458.919 405.711 459.689C405.821 460.179 406.791 460.419 407.231 460.899C408.721 462.529 410.001 464.379 411.621 465.859C416.051 469.919 420.541 473.909 425.141 477.779C427.761 479.979 430.621 481.909 433.431 483.889C434.701 484.789 436.151 485.359 437.621 485.379C439.211 485.339 440.341 484.619 441.431 483.729C443.691 481.889 445.821 479.769 448.341 478.389C454.381 475.069 459.561 470.469 465.581 467.129C466.031 466.879 466.461 466.579 466.841 466.249C467.661 465.539 468.161 464.729 468.211 463.759C465.951 459.169 463.461 454.779 460.731 450.629C458.551 449.229 456.391 447.779 454.581 445.989C450.591 442.079 446.341 438.809 441.021 437.019C440.861 436.969 440.731 436.839 440.591 436.729L440.581 436.709ZM449.691 460.059C449.511 460.349 449.401 460.739 449.151 460.909C445.591 463.309 442.021 465.689 438.431 468.029C437.301 468.759 436.141 468.649 435.091 467.779C432.461 465.579 429.821 463.389 427.221 461.159C426.621 460.649 426.551 459.929 427.231 459.439C430.441 457.139 433.671 454.879 436.891 452.599C438.171 451.699 439.441 451.679 440.691 452.629C443.561 454.799 446.441 456.969 449.291 459.169C449.511 459.339 449.551 459.759 449.681 460.059H449.691Z" fill="white"/>
<path d="M178.08 466.309C176.04 465.799 174.431 464.729 172.851 463.269C170.311 460.919 168.38 461.019 165.51 463.149C162.75 465.199 160.081 467.359 157.031 468.969C151.691 471.789 146.78 475.179 142.26 479.199C140.35 480.909 138.53 482.349 139.77 485.389C138.26 488.569 140.44 490.509 142.64 492.189C149.46 497.379 155.99 502.939 163.55 507.129C166.88 508.969 169.6 509.209 173.12 507.279C181.58 502.639 189.42 497.129 197.14 491.419C199.36 489.779 199.59 488.699 198.45 486.139C197.75 484.549 196.87 483.109 195.51 481.969C194.72 481.309 193.8 480.679 193.3 479.829C190.41 474.949 185.381 472.289 181.59 468.349C180.62 467.339 179.45 466.649 178.08 466.299V466.309ZM177.3 487.139C174.71 488.799 172.08 490.409 169.42 491.959C168.65 492.409 167.68 492.329 166.96 491.819C164.59 490.139 162.26 488.409 159.98 486.619C159.36 486.129 159.52 485.309 160.18 484.869C163.15 482.849 166.151 480.869 169.161 478.899C169.771 478.499 170.521 478.489 171.091 478.939C173.501 480.869 175.78 482.929 177.71 485.349C177.81 485.479 177.84 485.669 177.95 485.969C177.77 486.309 177.66 486.919 177.3 487.149V487.139Z" fill="white"/>
<path d="M140.47 506.919C137.37 504.769 134.19 502.739 131.21 500.429C126.85 497.039 122.4 493.929 116.81 492.899C115.99 492.749 115.19 492.329 114.43 491.939C112.59 491.009 110.79 491.219 108.97 491.969C107.21 492.699 105.64 493.71 104.15 494.89C101.06 497.34 98.1102 500.009 94.8002 502.109C89.9702 505.179 86.9202 509.579 84.2102 514.399C83.4902 515.679 83.6701 516.709 84.5401 517.659C85.3501 518.539 86.2702 519.329 87.2202 520.049C87.3702 520.159 87.5202 520.269 87.6602 520.379C104.54 522.009 124.9 522.289 141.92 517.649C141.94 517.849 141.96 518.049 141.98 518.249C142.92 517.229 143.4 516.04 142.49 514.7C141.65 513.46 141.54 512.199 142.09 510.809C142.78 509.039 141.86 507.869 140.48 506.919H140.47ZM123.01 514.739C120.59 516.889 118.39 519.319 115.56 520.969C115.28 521.129 114.89 521.089 114.27 521.179C113.87 521.039 113.15 520.929 112.61 520.559C110.2 518.909 107.83 517.219 105.48 515.479C104.46 514.719 104.35 513.639 105.25 512.859C107.32 511.059 109.4 509.269 111.59 507.609C112.78 506.709 114.23 506.779 115.44 507.689C117.91 509.549 120.32 511.479 122.73 513.399C123.16 513.739 123.4 514.389 123 514.739H123.01Z" fill="white"/>
<path d="M178.43 378.03C178.67 378.22 178.74 378.61 178.95 379.03C178.76 379.39 178.63 379.98 178.27 380.23C175.59 382.05 172.88 383.81 170.15 385.55C169.55 385.93 168.81 385.94 168.21 385.53C166.84 384.63 165.5 383.69 164.15 382.77C163.35 383.15 162.58 383.5 161.75 383.9C157.79 385.67 153.65 387.59 149.4 389.66C154.95 393.43 160.99 396.48 166.17 400.79C167.41 401.83 168.94 402.03 170.5 401.15C171.55 400.56 172.66 400.14 173.94 400.49C175.78 400.99 177.24 400.18 178.68 399.11C181.84 396.75 185.11 394.54 188.25 392.15C191.41 389.75 194.16 386.95 196.42 383.65C197.94 381.43 198.14 378.86 198.88 376.44C198.61 374.93 197.69 373.9 196.59 373.07C195.69 372.4 194.77 371.75 193.86 371.1C188.53 372.68 183.1 374.59 177.22 376.98C177.62 377.34 178.02 377.7 178.42 378.03H178.43Z" fill="white"/>
<path d="M63.5103 507.049C71.4603 502.259 79.1903 497.179 86.5903 491.589C89.4303 489.439 89.6103 488.879 88.1503 485.639C87.5903 484.389 87.1403 483.109 86.1203 482.099C83.0703 479.079 80.2003 475.859 76.9903 473.029C74.1803 470.549 71.6103 467.639 68.0503 466.179C67.2203 465.839 66.4303 465.479 65.6703 465.069C63.9203 468.729 62.2703 472.479 60.8603 476.429C60.7003 476.849 60.5403 477.289 60.4103 477.709C60.3003 478.009 60.2203 478.319 60.1103 478.609C60.4903 478.649 60.8603 478.779 61.2303 479.089C63.4503 480.959 65.6703 482.819 67.8503 484.739C68.2103 485.049 68.3703 485.589 68.6603 486.099C68.3703 486.519 68.1803 487.059 67.8003 487.299C65.3603 488.859 62.8903 490.389 60.3903 491.869C59.0703 492.649 57.7703 492.379 56.5603 491.499C55.4403 496.529 54.5903 501.769 54.0703 507.239C57.2703 509.329 60.1203 509.079 63.4903 507.049H63.5103Z" fill="white"/>
<path d="M302.98 482.629C299.45 480.119 297.15 476.419 294.09 473.439C289.38 468.839 283.52 466.049 278.21 462.399C276.68 461.349 275.04 461.389 273.49 462.709C270.36 465.399 266.88 467.589 263.25 469.539C258.56 472.059 254.22 475.059 250.2 478.589C248.05 480.479 245.83 482.109 247.01 485.059C246.76 489.549 246.66 489.779 249.55 491.969C256.76 497.449 263.67 503.359 271.8 507.569C274.36 508.899 276.45 509.259 278.96 507.729C284.08 504.629 289.5 502.039 294.22 498.259C296.76 496.229 299.44 494.379 302.1 492.509C306.63 489.329 306.8 488.569 303.9 483.829C303.63 483.399 303.37 482.899 302.97 482.619L302.98 482.629ZM285.14 487.079C282.1 488.949 279.01 490.729 275.92 492.519C275.29 492.889 274.58 492.819 274 492.379C271.71 490.619 269.41 488.869 267.16 487.049C266.36 486.399 266.43 485.489 267.19 484.859C269.95 482.579 272.92 480.599 276.06 478.879C276.49 478.649 277.02 478.599 277.5 478.469C277.99 478.719 278.5 478.879 278.87 479.199C281.06 481.079 283.25 482.979 285.38 484.919C286.19 485.659 285.95 486.579 285.14 487.079Z" fill="white"/>
<path d="M323.271 373.609C324.411 374.489 325.54 375.359 326.68 376.229C329.19 378.139 330.461 378.129 333.141 376.189C334.251 375.389 335.211 374.399 336.581 374.009C338.531 373.449 340.131 372.339 341.671 371.089C337.991 369.999 334.221 368.999 330.271 368.159C329.661 368.639 327.081 370.549 323.271 373.609Z" fill="white"/>
<path d="M464.951 491.519C469.851 495.359 474.741 499.209 479.861 502.749C479.151 497.249 478.171 491.949 476.841 486.919C475.671 482.409 474.281 478.069 472.681 473.899C470.511 475.409 468.401 476.999 466.321 478.649C463.981 480.509 462.381 482.449 462.991 485.759C462.331 487.989 462.901 489.909 464.941 491.509L464.951 491.519Z" fill="white"/>
<path d="M341.43 388.929C339.52 386.859 337.29 385.349 334.33 385.169C333.51 385.119 332.51 384.919 331.93 384.409C329.61 382.399 327.59 383.199 325.4 384.679C317.85 389.769 310.68 395.369 303.51 400.969C302.71 401.589 301.98 402.389 301.46 403.259C300.12 405.509 299.92 407.839 301.75 409.939C303.1 411.489 304.52 413.009 306.09 414.329C310.57 418.059 315.17 421.659 319.68 425.359C321.67 426.989 323.49 428.829 325.49 430.439C326.9 431.579 328.46 431.979 330.24 430.879C332.13 429.709 334.14 428.719 336.13 427.729C339.56 426.019 342.15 423.189 345.26 421.059C347.51 419.509 349.45 417.389 352.11 416.599C353.91 416.059 355.15 415.179 356.04 413.599C356.98 411.929 357.7 410.209 357.69 408.629C357.62 405.469 356.21 403.329 354.22 401.589C349.7 397.629 345.49 393.359 341.43 388.949V388.929ZM332.76 411.699C332.3 412.189 331.66 412.509 331.11 412.909C329.34 414.209 327.75 414.049 326.02 412.649C318.66 406.719 319.01 408.759 325.99 402.769C327.02 401.889 328.25 401.239 329.42 400.539C329.84 400.289 330.37 400.219 330.9 400.049C331.36 400.249 331.93 400.329 332.27 400.659C334.33 402.669 337.24 403.739 338.68 406.429C337.76 409.369 334.57 409.759 332.76 411.699Z" fill="white"/>
<path d="M194.03 410.319C194.54 410.989 195.26 411.509 195.87 412.099C202.38 418.479 210.03 423.479 216.81 429.529C219.04 431.509 221.23 431.589 223.86 430.159C227.94 427.939 231.86 425.509 235.47 422.579C238.4 420.209 241.38 417.909 244.9 416.419C247.45 415.339 248.99 413.569 249.54 411.099C241.77 401.169 233.11 392.299 225.5 385.219C224.78 384.989 224.07 384.669 223.48 384.239C221.67 382.919 219.97 383.149 218.22 384.249C216.62 385.259 214.99 386.199 213.45 387.299C210.25 389.599 207.09 391.959 203.95 394.339C200.94 396.619 197.93 398.899 195.01 401.289C191.86 403.869 191.54 407.079 194.02 410.319H194.03ZM215.18 405.199C217.19 403.609 219.19 401.999 221.26 400.499C222.5 399.599 223.84 399.679 225.01 400.759C226.64 402.269 228.27 403.789 229.85 405.359C230.18 405.689 230.29 406.239 230.48 406.619C230.28 407.019 230.2 407.389 229.97 407.599C227.57 409.809 224.9 411.659 222.11 413.339C220.77 414.149 219.47 413.969 218.32 412.979C217.15 411.979 216.01 410.939 214.92 409.849C212.5 407.449 212.51 407.319 215.18 405.199Z" fill="white"/>
<path d="M410.43 410.779C411.22 411.679 412.13 412.469 412.98 413.319C419.05 419.419 426.32 424.089 432.7 429.829C434.6 431.539 436.57 431.499 438.86 430.419C440.09 429.839 441.27 429.189 442.43 428.519C434.67 420.859 426.25 414.159 417.63 408.299C417.15 407.949 416.67 407.659 416.22 407.339C415.8 407.079 415.42 406.829 415.04 406.569C413.25 405.389 411.44 404.319 409.65 403.209C407.8 405.669 408.06 408.069 410.43 410.779Z" fill="white"/>
<path d="M357.09 383.669C357.71 384.479 358.42 385.259 359.23 385.859C361.99 387.899 364.77 389.909 367.61 391.829C372.01 394.809 376.84 397.129 380.84 400.709C381.98 401.729 383.25 401.899 384.62 401.089C385.65 400.479 386.7 399.819 388 400.339C390.04 400.869 391.81 400.099 393.19 398.779C394.36 397.649 395.65 396.699 396.98 395.809C390.15 392.109 383.44 388.809 377.1 385.899C370.42 382.469 363.85 379.329 357.09 376.549C356.82 377.139 356.57 377.749 356.36 378.399C355.69 380.439 355.88 382.079 357.1 383.669H357.09Z" fill="white"/>
<path d="M179.56 414.749C176.66 413.609 174.04 412.089 171.45 410.409C167.93 408.129 166.99 408.259 163.62 410.679C159.86 413.379 156.06 416.009 152.31 418.709C150.92 419.709 149.59 420.779 148.26 421.849C145.07 424.429 142.16 426.939 141.38 431.529C140.75 435.259 140.07 435.219 142.68 437.609C144.19 438.989 145.78 440.369 147.55 441.339C150.13 442.749 152.42 444.509 154.77 446.229C157.67 448.359 160.61 450.439 163.58 452.449C164.85 453.309 166.24 453.989 167.63 454.659C170 455.799 172.14 455.509 174.35 453.949C180.22 449.809 186.2 445.809 192.18 441.829C194.53 440.269 196.31 438.269 197.6 435.779C197.91 435.189 198.19 434.579 198.38 434.209C198.08 431.299 197.52 428.819 195.11 427.239C191.94 425.149 189.34 422.409 186.58 419.849C184.45 417.869 182.25 415.809 179.55 414.739L179.56 414.749ZM178.08 433.069C175.67 434.709 173.24 436.309 170.81 437.909C169.68 438.649 168.52 438.529 167.43 437.829C166.42 437.179 165.46 436.469 164.47 435.789C159.22 432.189 159.12 432.219 164.82 428.389C165.39 428.009 166.01 427.699 166.56 427.299C169.25 425.349 169.85 424.789 173.36 427.449C174.99 428.689 176.57 430.009 178.14 431.329C178.37 431.529 178.45 431.909 178.6 432.209C178.43 432.499 178.32 432.889 178.07 433.059L178.08 433.069Z" fill="white"/>
<path d="M225.11 536.809C226.36 535.909 227.54 534.939 228.93 534.229C236.05 530.599 241.92 525.359 247.43 519.699C249.04 518.049 250.12 516.119 248.9 513.649C248.62 513.089 248.76 512.319 248.79 512.689C248.91 508.469 249.01 508.069 246.89 506.859C239.05 502.379 232.88 495.159 223.77 492.789C223.45 492.709 223.19 492.439 222.9 492.249C220.75 490.899 218.56 491.219 216.57 492.449C214.54 493.699 212.55 495.099 210.78 496.699C208.47 498.769 206.12 500.749 203.54 502.459C199.79 504.939 196.6 507.839 194.41 511.949C192.04 516.399 191.81 516.379 195.5 519.519C195.76 519.739 196.02 519.969 196.29 520.179C203.53 525.669 211.04 530.799 218.03 536.629C220.38 538.589 222.67 538.569 225.12 536.819L225.11 536.809ZM214.14 513.209C216 510.689 218.77 509.259 221.21 507.439C221.33 507.349 221.54 507.389 221.7 507.369C222.02 507.459 222.39 507.479 222.66 507.649C223.52 508.189 224.43 508.709 225.18 509.389C227.01 511.039 229.49 512.059 230.4 514.629C228.66 517.239 226.2 519.039 223.6 520.669C222.97 521.069 222.23 520.919 221.67 520.509C219.18 518.729 216.7 516.939 214.27 515.069C213.72 514.639 213.68 513.819 214.13 513.209H214.14Z" fill="white"/>
<path d="M165.98 561.639C168.33 563.149 170.57 562.629 172.73 561.229C173.3 560.859 173.79 560.359 174.32 559.919C179.04 555.939 183.76 551.959 188.5 547.999C190.47 546.349 192.58 544.839 194.47 543.099C197.79 540.039 198 537.529 194.99 534.259C190.24 529.099 185.77 523.689 180.28 519.189C177.56 516.959 175 515.499 170.86 516.159C167.07 515.429 163.44 517.019 160.18 519.919C158.91 521.049 157.37 521.879 155.92 522.809C151.53 525.609 148 529.359 144.37 533.029C144.03 533.369 143.81 533.739 143.54 534.089C143.96 538.039 144.41 542.049 144.9 546.119C145.15 546.339 145.4 546.559 145.65 546.769C149.35 549.839 153.04 552.929 156.91 555.789C159.8 557.929 162.96 559.699 166 561.639H165.98ZM161.01 537.589C163.14 535.639 165.35 533.779 167.89 532.369C169.55 531.449 171.16 531.579 172.57 532.939C174.04 534.359 175.51 535.769 176.95 537.219C177.17 537.439 177.25 537.809 177.39 538.119C177.21 538.379 177.07 538.699 176.83 538.879C175.61 539.789 174.34 540.649 173.12 541.559C171.52 542.759 170.41 545.349 168.42 545.069C166.63 544.819 165.07 542.949 163.44 541.749C162.62 541.149 161.84 540.489 161.08 539.809C160.32 539.119 160.28 538.289 161.02 537.609L161.01 537.589Z" fill="white"/>
<path d="M218.7 590.29C220.23 591.46 221.91 591.76 223.45 590.6C225.93 588.73 228.92 587.75 231.4 586.03C237.17 582.03 242.76 577.76 247.5 572.49C248.93 570.9 250.17 569.35 248.96 567.01C248.6 566.31 248.72 565.36 248.63 564.64C249.79 562.04 248.48 560.62 246.56 559.42C244.23 557.97 241.77 556.69 239.64 555C234.66 551.05 229.75 547.06 223.36 545.57C221.12 543.82 218.86 544.48 216.58 545.49C214.99 546.2 213.71 547.33 212.4 548.44C209.51 550.86 206.77 553.55 203.59 555.5C198.68 558.5 195.51 562.76 192.99 567.73C192.33 569.03 192.41 570.01 193.4 570.94C194.4 571.88 195.42 572.8 196.51 573.62C200.07 576.3 203.69 578.9 207.25 581.57C211.09 584.45 214.9 587.36 218.71 590.27L218.7 590.29ZM219.81 561.12C220.77 559.97 221.84 560.15 222.93 561.02C223.86 561.76 224.97 562.32 225.78 563.17C227.37 564.84 230.03 565.3 230.91 567.74C228.73 569.62 226.56 571.51 224.37 573.37C224.13 573.57 223.73 573.57 223.29 573.7C222.9 573.62 222.38 573.58 221.92 573.41C221.45 573.24 220.94 573.02 220.58 572.69C218.32 570.63 215.33 569.569 213.26 567.27C214.44 564.15 217.88 563.44 219.82 561.12H219.81Z" fill="white"/>
<path d="M395.35 467.759C394.58 466.929 393.36 466.349 392.25 466.029C390.24 465.439 388.56 464.569 387.01 463.039C385.04 461.099 383.68 461.179 381.58 462.879C378.09 465.689 374.31 468.019 370.44 470.239C365.97 472.799 361.75 475.719 357.96 479.239C356.14 480.929 354.3 482.519 355.68 485.749C353.75 488.269 355.48 490.059 357.53 491.589C363.84 496.309 369.84 501.499 376.67 505.449C384.03 509.709 381.92 510.119 390.02 505.699C397.1 501.829 403.62 497.089 410.17 492.389C414.16 489.519 414.51 487.959 411.65 483.999C411.06 483.179 410.26 482.489 409.54 481.759C408.82 481.029 407.84 480.449 407.37 479.579C404.56 474.399 399.17 471.869 395.34 467.749L395.35 467.759ZM386.21 491.509C385.25 492.159 384.08 492.499 383 492.979C382.28 492.649 381.6 492.469 381.06 492.079C378.85 490.489 376.66 488.869 374.51 487.199C373.5 486.409 373.58 485.569 374.72 484.699C377.44 482.649 380.21 480.679 383.21 479.039C384.56 478.299 385.78 478.109 386.95 479.199C389.3 481.399 391.61 483.649 393.94 485.869C391.95 488.539 388.85 489.719 386.22 491.509H386.21Z" fill="white"/>
<path d="M82.2101 441.269C83.9801 440.159 85.3101 438.679 86.6201 437.039C87.8201 435.529 88.2101 434.059 88.1001 432.619C84.8601 436.069 81.7501 439.679 78.8301 443.519C79.9601 442.779 81.0601 441.989 82.2101 441.269Z" fill="white"/>
<path d="M325.83 589.669C328.46 591.879 330.03 591.919 332.75 589.869C334.42 588.609 336.13 587.589 338.06 586.839C339 586.469 339.9 585.899 340.69 585.249C344.92 581.759 349.14 578.269 353.28 574.679C354.43 573.679 355.29 572.359 356.25 571.159C357.3 569.849 357.76 568.489 356.6 566.959C356.05 566.229 356.08 565.359 356.37 564.409C357.26 562.279 356.04 560.859 354.44 559.699C351.95 557.889 349.26 556.329 346.86 554.399C341.86 550.389 336.33 547.429 330.39 545.089C328.66 544.409 327.08 544.199 325.48 545.109C324 545.959 322.53 546.859 321.19 547.899C317.82 550.529 314.68 553.509 311.14 555.889C307.16 558.569 304.38 562.089 302.12 566.199C300.25 569.599 300.24 569.819 302.95 572.209C303.46 572.659 304 573.089 304.55 573.499C308.52 576.489 312.43 579.569 316.49 582.409C319.73 584.669 322.8 587.109 325.82 589.649L325.83 589.669ZM324.79 563.189C325.07 562.989 325.32 562.759 325.57 562.519C329.26 558.999 328.77 559.279 333.13 562.439C334.78 563.639 336.33 564.979 337.9 566.279C338.15 566.479 338.28 566.829 338.47 567.109C338.39 567.429 338.39 567.789 338.23 568.059C337.96 568.489 337.62 568.879 337.26 569.239C331.13 575.519 330.84 574.829 325.08 570.429C320.71 567.089 319.05 567.379 324.79 563.189Z" fill="white"/>
<path d="M67.8101 517.319C66.3101 516.049 64.4001 515.209 62.5801 515.749C61.5701 516.049 60.5901 516.169 59.6201 516.219C61.9901 516.699 64.9701 517.259 68.4401 517.839C68.2301 517.669 68.0201 517.489 67.8201 517.319H67.8101Z" fill="white"/>
<path d="M354.8 506.959C350.73 504.689 347.2 501.669 343.47 498.939C340.41 496.709 337.53 494.299 333.62 493.659C332.81 493.529 331.93 493.129 331.31 492.579C329.29 490.799 327.2 491.119 325.1 492.229C323.59 493.029 322.03 493.839 320.77 494.959C316.54 498.739 312.03 502.139 307.51 505.549C306.27 506.489 305.06 507.399 304.33 508.839C303.47 510.509 302.53 512.149 301.61 513.779C300.28 516.139 300.32 516.719 302.49 518.529C304.2 519.959 306.06 521.199 307.81 522.579C313.86 527.359 320.36 531.559 326.2 536.619C328.49 538.599 330.26 538.559 332.69 536.679C334.2 535.509 335.76 534.569 337.53 533.839C339.09 533.189 340.58 532.269 341.94 531.249C344.27 529.509 346.56 527.689 348.72 525.739C351.01 523.669 353.17 521.459 355.3 519.229C356.76 517.699 358 516.069 356.38 513.799C355.6 512.709 356.18 511.479 356.55 510.399C356.86 508.749 356.07 507.669 354.79 506.949L354.8 506.959ZM334.92 518.149C329.94 522.799 329.7 521.109 326.01 518.249C324.79 517.309 323.52 516.429 322.33 515.449C320.98 514.349 320.88 513.539 322.04 512.549C324 510.889 326.01 509.289 328.03 507.719C328.41 507.419 328.96 507.329 329.44 507.139C329.94 507.329 330.47 507.419 330.88 507.699C332.17 508.539 333.46 509.389 334.66 510.349C339.51 514.199 339.32 514.019 334.9 518.149H334.92Z" fill="white"/>
<path d="M275.66 425.769C276.08 425.499 276.55 425.309 277.02 425.079C277.51 425.279 278.05 425.369 278.44 425.659C280.75 427.389 283.05 429.129 285.29 430.949C286.27 431.749 286.17 432.689 285.07 433.479C282.87 435.069 280.62 436.609 278.36 438.119C277.12 438.939 275.71 438.999 274.5 438.179C272.94 437.109 271.42 435.969 269.91 434.819C268.95 436.819 268.05 438.829 267.25 440.859C264.58 434.029 260.89 427.329 256.64 420.929C255.81 421.569 254.96 422.189 254.15 422.849C251.56 424.969 249.16 427.009 249.07 430.699C249.05 431.319 248.54 431.949 248.17 432.519C247.15 434.109 247.6 435.469 248.83 436.649C249.69 437.479 250.61 438.259 251.59 438.939C257.5 443.039 263.42 447.099 269.35 451.169C270.62 452.039 271.92 452.869 273.2 453.729C276.07 455.659 278.76 455.749 281.7 453.599C287.92 449.069 294.3 444.749 300.61 440.339C300.89 440.139 301.18 439.959 301.44 439.739C303.38 438.129 303.65 435.609 304.81 434.049C304.76 431.659 303.5 428.939 301.6 427.349C297.92 424.279 294.25 421.219 290.79 417.909C289.33 416.509 287.6 415.159 285.74 414.439C284.94 414.129 284.21 413.709 283.45 413.339C280.16 417.619 277.06 422.079 274.32 426.659C274.77 426.369 275.2 426.069 275.65 425.779L275.66 425.769Z" fill="white"/>
<path d="M252.43 546.399C255.41 548.989 258.54 551.399 261.59 553.899C265.06 556.739 268.86 559.059 272.7 561.349C275.32 562.909 277.44 562.449 279.79 560.749C287.3 555.299 293.7 548.489 301.3 543.149C303.92 541.309 304.21 537.299 302.14 534.869C297.13 528.979 291.69 523.499 286.01 518.249C283.99 516.389 281.64 515.519 278.91 516.259C277.89 516.539 276.93 516.809 276.3 516.579C273.86 515.799 272.21 516.729 270.63 517.829C266.82 520.469 262.95 523.029 259.24 525.809C256.22 528.079 253.48 530.729 251.16 533.729C247.57 538.389 247.99 542.549 252.41 546.399H252.43ZM268.46 537.079C270.69 534.939 273.33 533.349 275.91 531.699C276.52 531.309 277.2 531.159 277.84 531.529C280.52 533.099 282.67 535.269 284.64 537.639C284.73 537.749 284.7 537.969 284.72 538.139C284.53 538.409 284.38 538.739 284.13 538.929C281.57 540.909 278.99 542.869 276.4 544.819C275.47 545.519 274.54 545.499 273.61 544.739C271.91 543.329 270.15 541.979 268.47 540.539C267.15 539.399 267.14 538.329 268.45 537.079H268.46Z" fill="white"/>
<path d="M464.14 518.159C464.96 516.799 465.29 515.3 464.36 513.44C464.15 513.02 464.28 512.429 464.28 512.469C464.34 508.259 464.37 508.219 461.85 506.419C458.23 503.829 454.47 501.439 450.94 498.729C447.94 496.419 445.11 494 441.14 493.5C440.18 493.38 439.24 492.74 438.4 492.18C436.75 491.08 435.09 491.28 433.55 492.19C431.64 493.32 429.82 494.61 428.04 495.94C425.58 497.79 423.28 499.87 420.75 501.62C416.49 504.58 412.4 507.619 410.52 512.74C410.35 513.209 409.98 513.609 409.71 514.049C408.33 516.289 408.35 516.739 410.31 518.299C411.52 519.269 412.78 520.179 414.03 521.099C432.28 522.359 451.12 520.259 464.13 518.169L464.14 518.159ZM432.99 509.89C434 508.98 435.19 508.25 436.34 507.51C436.75 507.25 437.3 507.219 437.81 507.079C438.3 507.299 438.82 507.419 439.21 507.719C441.53 509.489 443.84 511.269 446.11 513.099C447.15 513.939 447.15 514.66 446.22 515.69C445.76 516.2 445.28 516.7 444.75 517.13C438.78 522.08 438.78 522.179 433.02 517.919C426.64 513.209 428.28 514.11 432.98 509.89H432.99Z" fill="white"/>
<path d="M386.5 410.41C385.61 409.58 384.59 408.94 382.99 408.89C381.72 409.07 380.44 409.9 379.17 410.81C376.1 413.01 373.06 415.25 369.9 417.31C366.86 419.29 364.11 421.57 361.49 424.07C359.46 426 357.59 427.88 357.37 430.93C357.27 432.41 355.66 433.63 356.28 435.29C356.9 436.96 358.39 437.98 359.69 439.06C361 440.15 362.4 441.19 363.91 441.99C365.75 442.96 367.4 444.15 369.05 445.38C372.48 447.95 376.01 450.39 379.47 452.93C380.59 453.75 381.8 454.34 383.1 454.83C384.66 455.41 386.14 455.4 387.54 454.51C391.01 452.31 394.52 450.15 397.9 447.81C400.72 445.86 403.27 443.55 406.31 441.9C408.31 440.81 409.71 439.09 410.9 437.14C413.11 433.52 412.9 430.49 410 427.44C409.29 426.7 408.52 425.98 407.68 425.41C404.82 423.47 402.32 421.15 399.96 418.63C397.94 416.48 395.52 414.79 392.7 413.9C390.35 413.16 388.28 412.08 386.49 410.41H386.5ZM392.67 433.56C390.64 435.13 388.6 436.67 386.5 438.14C385.27 439 383.86 438.98 382.61 438.26C381.14 437.4 379.82 436.3 378.39 435.38C374.31 432.74 373.11 432.14 378.79 428.45C379.36 428.08 379.96 427.73 380.59 427.47C382.15 426.82 383.13 424.61 384.92 425.12C386.47 425.56 387.78 426.91 389.12 427.95C390.33 428.89 391.48 429.92 392.6 430.96C392.96 431.29 393.14 431.81 393.45 432.31C393.19 432.74 393.03 433.29 392.66 433.57L392.67 433.56Z" fill="white"/>
<path d="M386.75 516.429C385.73 516.779 384.77 516.909 383.55 516.549C381.88 515.859 380.41 516.779 378.98 517.769C375.04 520.509 370.99 523.109 367.23 526.079C364.55 528.189 362.09 530.649 359.87 533.249C356.09 537.669 356.79 543.129 361.26 546.729C364.46 549.309 367.61 551.959 370.8 554.549C374.14 557.249 377.73 559.589 381.51 561.629C383.38 562.639 385.02 562.639 386.72 561.239C387.05 560.969 387.38 560.709 387.7 560.439C388.66 553.549 389.51 546.799 390.26 540.209C388.38 541.669 386.75 543.429 384.9 544.919C383.49 546.049 382.62 546.029 381.23 544.899C380.04 543.929 379.02 542.719 377.76 541.859C373.83 539.199 373.62 538.569 377.93 535.259C379.69 533.909 381.66 532.849 383.55 531.679C384.86 530.859 386.12 530.859 387.28 531.999C388.45 533.149 389.61 534.299 390.77 535.459C391.42 529.399 392.02 523.429 392.51 517.669C392.63 517.699 392.75 517.729 392.87 517.759C391.09 516.169 389.06 515.649 386.74 516.439L386.75 516.429Z" fill="white"/>
</g>
<mask id="mask1_472_24011" style="mask-type:luminance" maskUnits="userSpaceOnUse" x="139" y="368" width="257" height="373">
<path d="M392.551 394.089C371.431 382.739 353.611 373.119 330.271 368.149C327.421 370.389 281.781 403.689 267.251 440.859C252.701 403.589 207.921 370.169 205.291 368.119C186.891 372.299 171.051 378.429 141.881 394.089C141.881 394.089 137.401 429.019 139.801 484.809C140.251 494.819 140.921 505.539 141.851 516.859V516.919C141.881 517.179 141.881 517.399 141.911 517.659C144.661 550.029 149.811 587.199 158.861 627.279C177.131 708.209 179.141 735.819 266.921 740.679V740.709C267.301 740.679 267.111 740.679 267.501 740.709V740.679C355.281 735.819 357.351 708.049 375.561 627.279C384.611 587.199 389.761 550.029 392.511 517.659V517.499C394.371 495.559 395.131 475.849 395.291 458.929C395.671 418.429 392.541 394.089 392.541 394.089H392.551Z" fill="white"/>
</mask>
<g mask="url(#mask1_472_24011)">
<path d="M177.11 432.21C155.51 403.62 155.45 367.27 176.96 351.02C198.47 334.77 233.42 344.77 255.02 373.35C276.62 401.94 276.68 438.29 255.17 454.54C233.66 470.79 198.71 460.79 177.11 432.21Z" fill="#D8E28F"/>
<path d="M356.98 432.21C378.58 403.62 378.64 367.27 357.13 351.02C335.62 334.77 300.67 344.77 279.07 373.35C257.47 401.94 257.41 438.29 278.92 454.54C300.43 470.79 335.38 460.79 356.98 432.21Z" fill="#D8E28F"/>
</g>
<path d="M278.75 474.53C278.75 480.9 273.59 486.06 267.22 486.06C260.85 486.06 255.69 480.9 255.69 474.53C255.69 468.16 260.85 463 267.22 463C273.59 463 278.75 468.16 278.75 474.53Z" fill="#DFEE95"/>
<path d="M398.53 435.219C399.39 455.939 398.92 476.649 397.22 497.309C396.64 504.199 395.81 511.069 394.82 517.919C394.64 519.179 393.47 520.059 392.2 519.879C390.94 519.699 390.07 518.539 390.24 517.289C391.88 503.759 393.05 490.019 393.77 476.409C394.51 462.749 394.9 448.999 394.93 435.329C394.94 433.019 398.37 432.859 398.53 435.219Z" fill="#555A63"/>
<path d="M139.551 435.33C139.611 455.85 140.391 476.44 142.141 496.9C142.691 503.53 143.461 510.76 144.251 517.34C144.521 520.31 140.171 520.91 139.661 517.93C137.641 504.24 136.521 490.45 135.971 476.64C135.431 462.83 135.331 449.05 135.951 435.23C136.101 432.92 139.531 432.97 139.551 435.34V435.33Z" fill="#555A63"/>
<path d="M200.831 237.43C200.831 248.13 203.571 259.95 192.901 259.95C176.351 259.95 165.521 246.73 165.521 236.02C165.521 225.31 170.821 218.05 181.501 218.05C192.181 218.05 200.831 226.73 200.831 237.43Z" fill="#F8A384"/>
<path d="M182.66 242.59C181.93 244.99 179.18 245.68 177.13 244.29C172.91 241.51 169.77 231.05 176.11 231.05C176.56 231.05 177.01 231.15 177.39 231.34C180.29 232.85 183.52 240.04 182.67 242.6L182.66 242.59Z" fill="#75363F"/>
<path d="M333.63 237.43C333.63 248.13 330.89 259.95 341.56 259.95C358.11 259.95 368.94 246.73 368.94 236.02C368.94 225.31 363.64 218.05 352.96 218.05C342.28 218.05 333.63 226.73 333.63 237.43Z" fill="#F8A384"/>
<path d="M351.791 242.59C352.521 244.99 355.271 245.68 357.321 244.29C361.541 241.51 364.691 231.05 358.341 231.05C357.891 231.05 357.441 231.15 357.061 231.34C354.161 232.85 350.931 240.04 351.781 242.6L351.791 242.59Z" fill="#75363F"/>
<path d="M221.66 304.76C221.66 304.86 221.63 304.92 221.63 305.02" stroke="#2A38B7" stroke-width="4.8" stroke-miterlimit="10" stroke-linecap="round"/>
<path d="M330.26 379.9C330.26 414.7 302.05 442.95 267.24 442.95C232.43 442.95 204.19 414.7 204.19 379.9C204.19 371.52 205.82 363.52 208.83 356.2C208.93 355.91 209.02 355.62 209.15 355.37C214.46 340.34 217.79 330.07 219.39 321.69C220.54 315.61 221.02 310.78 221.63 305.02V304.76C221.63 279.55 242.04 259.14 267.24 259.14C292.44 259.14 312.82 279.55 312.82 304.76C313.46 310.61 313.94 315.51 315.12 321.68C316.75 330.22 320.14 340.71 325.64 356.2C328.62 363.53 330.25 371.52 330.25 379.9H330.26Z" fill="#F8A384"/>
<path d="M267.23 350.349C292.414 350.349 312.83 329.934 312.83 304.749C312.83 279.565 292.414 259.149 267.23 259.149C242.046 259.149 221.63 279.565 221.63 304.749C221.63 329.934 242.046 350.349 267.23 350.349Z" fill="#F8A384"/>
<path d="M267.23 442.939C302.046 442.939 330.27 414.715 330.27 379.899C330.27 345.083 302.046 316.859 267.23 316.859C232.414 316.859 204.19 345.083 204.19 379.899C204.19 414.715 232.414 442.939 267.23 442.939Z" fill="#F8A384"/>
<path d="M337.26 289.54C326.34 307.29 300.54 332.69 267.55 333.08H266.91C233.92 332.7 208.12 307.3 197.2 289.54C177.22 257.04 181.74 192.52 196.44 161.62C210.66 131.74 236.31 115.91 266.91 115.24C267.03 115.21 267.12 115.21 267.24 115.21C267.33 115.21 267.45 115.21 267.54 115.24C298.14 115.91 323.79 131.75 338.01 161.62C352.72 192.52 357.23 257.04 337.25 289.54H337.26Z" fill="#F8A384"/>
<path d="M291.52 197.75C291.66 188 315.76 190.63 314.56 200.47C313.55 208.79 291.4 205.69 291.52 197.75Z" fill="#0D1016"/>
<path d="M284.201 283.48C282.371 285.17 280.221 286.3 277.951 286.98C269.351 289.6 258.601 285.74 253.861 278.38C253.711 278.16 253.561 277.93 253.461 277.67C252.221 275.54 251.421 273.16 251.261 270.7C251.101 268.25 251.601 264.61 254.011 263.42C256.411 262.28 259.331 262.45 261.361 264.25C262.361 265.12 263.381 266.09 264.301 267.09C267.901 270.83 272.241 272.93 277.381 273.48C279.001 273.64 280.711 273.83 282.261 274.32C286.461 275.66 287.481 280.46 284.191 283.46L284.201 283.48Z" fill="white"/>
<path d="M219.99 200.589C217.86 191.069 241.91 188.039 243.03 197.879C243.98 206.209 221.72 208.339 219.99 200.589Z" fill="#0D1016"/>
<path d="M273.851 209.33C276.371 218.04 277.851 226.65 279.111 235.56C280.701 244.98 277.191 252.17 267.301 253.53C265.071 253.85 262.531 254.28 260.231 253.9C257.231 253.48 257.181 249.19 260.131 248.68C260.971 248.52 262.201 248.38 262.991 248.13C266.951 247.02 272.321 246.9 272.871 241.95C273.541 238.16 271.711 227.21 271.451 223.23L270.691 216.71C270.461 214.51 270.161 212.32 269.871 210.21C269.561 207.75 273.081 206.96 273.841 209.33H273.851Z" fill="#AB5555"/>
<path d="M308.081 226.41C307.341 229.58 305.281 231.47 302.691 231.35C297.031 231.09 295.111 223.15 297.721 218.93C300.231 214.87 306.271 216.1 307.761 220.35C308.421 222.25 308.541 224.47 308.091 226.42L308.081 226.41Z" fill="#0D1016"/>
<path d="M236.47 226.41C235.73 229.58 233.67 231.47 231.08 231.35C225.42 231.09 223.5 223.15 226.11 218.93C228.62 214.87 234.66 216.1 236.15 220.35C236.81 222.25 236.93 224.47 236.48 226.42L236.47 226.41Z" fill="#0D1016"/>
<path d="M339.28 256.57C341.23 250.39 347.85 247.08 354.16 249.14C360.31 251.14 363.63 257.82 361.56 264.05C359.6 269.97 352.49 273.43 346.48 271.39C340.92 269.5 337.45 262.36 339.28 256.57Z" fill="#FCAF5B"/>
<path d="M358.11 262.469C357.9 263.019 357.84 263.239 357.74 263.449C357.26 264.469 356.2 265.149 355.28 265.049C354.36 264.949 353.43 264.009 353.26 262.939C353.17 262.369 353.15 261.779 353.22 261.209C353.45 259.259 352.84 257.559 351.81 255.959C351.56 255.569 351.31 255.179 351.1 254.769C350.76 254.109 350.69 253.449 351.24 252.849C351.75 252.289 352.4 252.149 353.13 252.269C354.2 252.449 355.07 252.989 355.8 253.769C358.23 256.359 358.62 259.459 358.11 262.469Z" fill="white"/>
<path d="M194.49 256.57C192.54 250.39 185.92 247.08 179.61 249.14C173.46 251.14 170.151 257.82 172.211 264.05C174.171 269.97 181.28 273.43 187.29 271.39C192.85 269.5 196.32 262.36 194.49 256.57Z" fill="#FCAF5B"/>
<path d="M175.66 262.469C175.87 263.019 175.93 263.239 176.03 263.449C176.51 264.469 177.57 265.149 178.49 265.049C179.41 264.949 180.34 264.009 180.51 262.939C180.6 262.369 180.62 261.779 180.55 261.209C180.32 259.259 180.93 257.559 181.96 255.959C182.21 255.569 182.46 255.179 182.67 254.769C183.01 254.109 183.08 253.449 182.53 252.849C182.02 252.289 181.37 252.149 180.64 252.269C179.57 252.449 178.7 252.989 177.97 253.769C175.54 256.359 175.15 259.459 175.66 262.469Z" fill="white"/>
<path d="M360.13 204.41C355.33 207.31 347.53 189.27 320.05 175.39C292.33 161.39 278.66 168.84 257.17 152.93C247.42 145.71 230.48 129.56 234.37 119.76C240.07 105.4 291.6 101.88 325.3 126.86C359.07 151.89 367.47 199.96 360.13 204.4V204.41Z" fill="#1E1D1E"/>
<path d="M271.891 115.599C273.071 120.269 251.551 122.549 238.281 142.589C230.281 154.669 233.361 160.009 226.111 169.849C212.531 188.269 182.241 196.029 175.301 187.849C167.651 178.849 186.541 147.569 208.121 130.199C214.691 124.909 224.511 118.499 237.621 115.009C252.971 110.929 270.831 111.379 271.901 115.599H271.891Z" fill="#1E1D1E"/>
</g>
</svg>
