<svg width="533" height="545" viewBox="0 0 533 545" fill="none" xmlns="http://www.w3.org/2000/svg">
<mask id="mask0_472_24012" style="mask-type:luminance" maskUnits="userSpaceOnUse" x="0" y="0" width="533" height="545">
<path d="M266.5 544.98C413.684 544.98 533 422.982 533 272.49C533 121.998 413.684 0 266.5 0C119.316 0 0 121.998 0 272.49C0 422.982 119.316 544.98 266.5 544.98Z" fill="white"/>
</mask>
<g mask="url(#mask0_472_24012)">
<path d="M180.45 468.99C177.77 476.01 174.5 482.68 170.58 488.8C161.33 503.48 148.57 514.87 132.24 519.41C132.1 519.44 131.93 519.48 131.79 519.51C92.5495 530.2 36.8096 516.55 36.8096 516.55C37.2196 505.79 38.7396 495.75 41.1796 486.46C42.0696 483.06 43.0396 479.75 44.1696 476.56C44.3096 476.11 44.4796 475.63 44.6496 475.18C67.6196 410.88 134.95 383.3 171.06 367.96C171.2 368.03 171.3 368.13 171.44 368.2C191.93 381.13 195.44 429.89 180.45 468.99Z" fill="#DFEE95"/>
<path d="M496.2 516.54C496.2 516.54 440.42 530.19 401.19 519.5C401.05 519.47 400.91 519.43 400.78 519.4C381.49 514.04 367.18 499.08 357.69 480.47C355.8 476.79 354.08 472.94 352.57 468.98C337.58 429.88 341.08 381.12 361.58 368.19C361.72 368.12 361.82 368.02 361.96 367.95C378.84 375.14 402.58 385.02 425.41 400.08V400.07C425.82 400.35 426.24 400.62 426.68 400.9C427.16 401.24 427.68 401.55 428.19 401.93C455.87 420.74 481.77 447.43 491.84 486.45C494.28 495.73 495.79 505.78 496.21 516.54H496.2Z" fill="#DFEE95"/>
<path d="M404.18 456.37C404.01 474.6 403.18 495.85 401.19 519.51C398.23 554.31 392.7 594.27 382.97 637.36C363.4 724.19 361.17 754.04 266.81 759.26V759.29C266.4 759.26 266.61 759.26 266.19 759.29V759.26C171.83 754.03 169.66 724.36 150.03 637.36C140.3 594.27 134.76 554.31 131.81 519.51C130.78 507.03 130.02 495.23 129.54 484.19C126.96 424.22 131.78 386.67 131.78 386.67C146.12 378.97 159.08 372.92 171.46 368.2C180.61 364.69 189.48 361.94 198.35 359.81C219.29 354.76 240.44 352.97 266.2 352.66H266.82C303.58 353.07 330.89 356.55 361.59 368.2C373.97 372.91 386.9 378.96 401.24 386.67C401.24 386.67 404.61 412.84 404.2 456.37H404.18Z" fill="#DFEE95"/>
<path d="M407.639 430.9C408.569 453.17 408.059 475.44 406.229 497.65C405.609 505.05 404.709 512.44 403.649 519.81C403.449 521.17 402.189 522.11 400.829 521.92C399.479 521.73 398.539 520.48 398.719 519.13C400.479 504.58 401.739 489.81 402.519 475.18C403.319 460.49 403.739 445.73 403.769 431.02C403.779 428.53 407.469 428.37 407.639 430.91V430.9Z" fill="#0D1016"/>
<path d="M129.23 431.01C129.29 453.08 130.14 475.2 132.01 497.2C132.6 504.33 133.43 512.1 134.28 519.18C134.57 522.37 129.89 523.01 129.35 519.81C127.18 505.1 125.97 490.27 125.38 475.42C124.8 460.57 124.7 445.76 125.35 430.9C125.51 428.41 129.2 428.47 129.22 431.01H129.23Z" fill="#0D1016"/>
<path d="M175.59 223.81C174.81 226.39 171.85 227.13 169.64 225.63C165.11 222.65 161.72 211.39 168.54 211.39C169.02 211.39 169.5 211.49 169.92 211.7C173.04 213.32 176.51 221.05 175.59 223.8V223.81Z" fill="#B0594D"/>
<path d="M357.409 223.81C358.189 226.39 361.149 227.13 363.359 225.63C367.889 222.65 371.279 211.39 364.459 211.39C363.979 211.39 363.499 211.49 363.089 211.7C359.969 213.32 356.499 221.05 357.419 223.8L357.409 223.81Z" fill="#B0594D"/>
<path d="M217.509 290.65C217.509 290.75 217.479 290.82 217.479 290.93" stroke="#2A38B7" stroke-width="5.16" stroke-miterlimit="10" stroke-linecap="round"/>
<path d="M334.25 371.43C334.25 408.84 303.92 439.21 266.51 439.21C229.1 439.21 198.729 408.85 198.729 371.43C198.729 362.42 200.48 353.82 203.72 345.95C203.82 345.64 203.93 345.33 204.06 345.06C209.77 328.9 213.35 317.86 215.06 308.85C216.3 302.32 216.81 297.12 217.47 290.93V290.66C217.47 263.56 239.41 241.62 266.51 241.62C293.61 241.62 315.51 263.56 315.51 290.66C316.2 296.95 316.71 302.21 317.99 308.85C319.74 318.03 323.389 329.31 329.299 345.95C332.499 353.82 334.25 362.42 334.25 371.43Z" fill="#F8A384"/>
<path d="M266.5 339.66C293.573 339.66 315.52 317.713 315.52 290.64C315.52 263.567 293.573 241.62 266.5 241.62C239.427 241.62 217.479 263.567 217.479 290.64C217.479 317.713 239.427 339.66 266.5 339.66Z" fill="#F8A384"/>
<path d="M266.5 439.19C303.928 439.19 334.27 408.849 334.27 371.42C334.27 333.992 303.928 303.65 266.5 303.65C229.071 303.65 198.729 333.992 198.729 371.42C198.729 408.849 229.071 439.19 266.5 439.19Z" fill="#F8A384"/>
<path d="M341.78 274.28C330.05 293.36 302.31 320.67 266.84 321.08H266.16C230.7 320.67 202.96 293.36 191.22 274.28C169.74 239.34 174.6 169.98 190.4 136.76C205.69 104.64 233.26 87.6201 266.15 86.9001C266.28 86.8701 266.38 86.8701 266.51 86.8701C266.61 86.8701 266.74 86.8701 266.83 86.9001C299.72 87.6201 327.3 104.64 342.58 136.76C358.39 169.98 363.25 239.34 341.77 274.28H341.78Z" fill="#F8A384"/>
<path d="M253.989 254.18C258.619 259.48 265.279 263.4 272.359 264.03C274.769 264.37 277.22 264.13 279.68 263.93C282.82 263.74 283.369 268.28 280.279 268.85C269.059 271.25 256.97 265.93 250.78 256.35C249.49 254.24 252.499 252.21 253.989 254.18Z" fill="#2A38B7"/>
<path d="M292.61 175.61C292.76 165.13 318.66 167.96 317.38 178.54C316.29 187.49 292.49 184.15 292.61 175.61Z" fill="#0D1016"/>
<path d="M284.74 267.77C282.78 269.58 280.46 270.8 278.02 271.54C268.78 274.35 257.22 270.21 252.12 262.3C251.96 262.06 251.8 261.82 251.69 261.54C250.36 259.25 249.49 256.69 249.32 254.05C249.15 251.41 249.69 247.5 252.28 246.23C254.86 245 258 245.19 260.19 247.12C261.26 248.06 262.36 249.1 263.36 250.18C267.23 254.2 271.9 256.46 277.42 257.05C279.16 257.23 281 257.42 282.67 257.95C287.19 259.39 288.28 264.55 284.74 267.78V267.77Z" fill="white"/>
<path d="M215.71 178.67C213.42 168.44 239.27 165.17 240.48 175.76C241.5 184.72 217.57 187.01 215.71 178.67Z" fill="#0D1016"/>
<path d="M273.62 188.05C276.33 197.41 277.92 206.67 279.28 216.24C280.96 226.29 277.34 234.05 266.58 235.56C264.18 235.91 261.46 236.36 258.98 235.96C255.76 235.51 255.7 230.9 258.87 230.35C259.77 230.18 261.1 230.03 261.95 229.76C266.21 228.56 271.98 228.44 272.57 223.12C273.29 219.05 271.32 207.28 271.05 203L270.24 195.99C269.99 193.63 269.68 191.27 269.36 189C269.03 186.35 272.81 185.5 273.63 188.06L273.62 188.05Z" fill="#CC7A66"/>
<path d="M310.409 206.42C309.609 209.83 307.399 211.86 304.609 211.73C298.529 211.45 296.459 202.91 299.269 198.37C301.969 194.01 308.469 195.32 310.059 199.9C310.769 201.94 310.899 204.33 310.409 206.42Z" fill="#0D1016"/>
<path d="M233.43 206.42C232.63 209.83 230.42 211.86 227.63 211.73C221.55 211.45 219.48 202.91 222.29 198.37C224.99 194.01 231.49 195.32 233.08 199.9C233.79 201.94 233.92 204.33 233.43 206.42Z" fill="#0D1016"/>
<mask id="mask1_472_24012" style="mask-type:luminance" maskUnits="userSpaceOnUse" x="176" y="86" width="181" height="236">
<path d="M341.78 274.28C330.05 293.36 302.31 320.67 266.84 321.08H266.16C230.7 320.67 202.96 293.36 191.22 274.28C169.74 239.34 174.6 169.98 190.4 136.76C205.69 104.64 233.26 87.6201 266.15 86.9001C266.28 86.8701 266.38 86.8701 266.51 86.8701C266.61 86.8701 266.74 86.8701 266.83 86.9001C299.72 87.6201 327.3 104.64 342.58 136.76C358.39 169.98 363.25 239.34 341.77 274.28H341.78Z" fill="white"/>
</mask>
<g mask="url(#mask1_472_24012)">
<path d="M258.409 80.9201C258.329 87.0301 257.639 91.9301 256.259 96.6801C252.299 110.34 246.929 123.36 239.799 135.76C233.779 146.24 227.169 156.24 219.089 165.19C209.839 175.43 199.669 184.65 187.749 191.77C186.829 192.32 185.959 192.96 185.029 193.5C178.679 197.21 175.669 197.03 169.779 192.4C164.139 187.96 159.739 182.47 156.089 176.3C148.479 163.43 144.369 149.58 144.639 134.63C144.809 125.12 147.029 115.94 150.439 107.04C156.389 91.5201 165.499 78.1201 177.759 66.9501C186.479 59.0101 196.579 53.2001 208.229 51.0201C228.179 47.2901 243.129 53.7001 255.809 69.6601C256.579 70.6301 256.929 71.9501 257.349 73.1501C257.699 74.1601 257.959 75.2201 258.079 76.2801C258.289 78.2001 258.369 80.1301 258.419 80.9201H258.409Z" fill="#0D1016"/>
<path d="M383.15 140.96C383.42 154.46 379.36 172.63 372.4 184.33C369.09 189.9 363.57 194.56 357.12 195.14C350.69 195.72 344.63 192.28 339.27 188.67C315.07 172.37 299.31 148.45 277.35 129.79C274.64 127.49 273.32 124.5 272.55 124.91C272.04 125.18 272.41 126.11 272.66 126.62C281.24 144.33 281.78 142.17 284.93 147.76C290.55 157.74 269.86 164.3 251.99 150.69C202.75 113.19 238.73 33.6803 309.74 48.6503C341.94 55.4403 358.93 69.1903 370.08 86.6603C379.65 101.64 382.71 118.36 383.15 140.94V140.96Z" fill="#0D1016"/>
</g>
<path d="M380.179 363.9C364.909 348.8 362.439 329.13 364.259 309.29C365.389 297.05 368.149 284.74 370.549 273.39C376.669 244.61 379.179 215.07 377.979 185.7C376.879 158.26 367.839 132.85 350.989 110.8C334.999 89.8199 312.749 73.8 287.369 67.78C276.309 65.16 264.199 64.5299 252.979 66.2999C224.539 70.7999 199.509 87.8299 181.999 110.8C165.149 132.84 156.109 158.25 155.009 185.7C153.809 215.07 156.319 244.61 162.439 273.39C164.849 284.74 167.599 297.05 168.729 309.29C170.549 329.13 168.079 348.8 152.809 363.9C149.339 367.3 127.569 387.49 127.569 387.49C168.489 459.67 266.359 454.3 266.359 454.3H266.629C266.629 454.3 364.499 459.66 405.419 387.49C405.419 387.49 383.649 367.3 380.179 363.9ZM266.389 320.5C266.389 320.5 266.459 320.5 266.489 320.47C266.519 320.5 266.589 320.5 266.589 320.5H266.379H266.389ZM342.279 244.74C341.079 255.71 338.639 266.64 334.029 276.69C329.249 287.11 322.129 296.29 312.989 303.24C288.099 322.15 255.519 324.18 227.949 308.47C217.599 302.56 208.869 294.2 202.749 283.95C197.039 274.39 193.669 263.63 191.809 252.69C189.949 241.82 189.579 230.75 189.849 219.78C190.089 209.91 190.879 200.11 191.569 190.28C191.709 188.39 191.839 186.53 191.949 184.64C193.599 155.38 232.009 144.03 252.989 140C264.709 137.77 275.889 138.86 287.379 141.58C308.869 146.7 339.579 158.53 341.059 184.63C341.579 193.88 342.469 203.1 342.879 212.35C343.399 223.11 343.459 233.98 342.289 244.74H342.279Z" fill="#0D1016"/>
<path d="M341.58 345.81C329.85 363.03 306.86 371.03 287.12 374.23C281.19 375.15 272.53 375.8 266.45 376.04C262.95 375.91 259.53 375.75 256.06 375.57C245.81 374.62 235.26 372.94 225.5 369.59C215.58 366.28 205.86 361.44 198.05 354.32C196.05 352.54 194.17 350.57 192.5 348.45C191.24 346.82 189.13 344.4 191.66 342.67C192.82 341.96 194.33 342.31 195.05 343.45C195.39 344.02 195.92 344.71 196.44 345.37C205.42 356.12 218.64 362.28 231.88 366.18C233.67 366.62 237.42 367.59 239.14 367.96C240.65 368.22 244.94 369 246.52 369.28C252.24 370.13 260.58 370.73 266.45 370.95C272.35 370.79 280.64 370.26 286.4 369.44C287.96 369.16 292.27 368.43 293.8 368.17C297.59 367.33 302.18 366.22 305.84 364.96C318.11 360.84 330.46 354.5 338.22 343.87C339.49 341.66 342.88 343.52 341.57 345.81H341.58Z" fill="#555A63"/>
<path d="M367.52 374.98C338.69 397.97 296.72 414.4 259.55 412.37C257.54 412.25 254.66 412.13 252.69 411.79C248.69 411.34 243.01 410.52 239.12 409.65C230.3 407.93 221.17 405.25 212.79 402.06C199.94 397.27 187.66 391.04 176.21 383.51C172.38 380.97 168.7 378.38 165.03 375.4C163.96 374.53 163.8 372.97 164.67 371.9C165.55 370.81 167.17 370.67 168.23 371.59C175.07 377.02 182.76 381.79 190.44 386.06C213.65 398.95 239.88 406.86 266.45 407.63C293.06 407.08 319.36 399.19 342.67 386.44C350.41 382.2 358.11 377.44 365.02 372.01C366.91 370.41 369.53 373.21 367.51 374.98H367.52Z" fill="#555A63"/>
<path d="M341.689 146.39C331.329 131.62 315.599 120.73 298.559 115.02C277.949 108.3 254.969 108.43 234.409 115.24C217.459 121.03 201.849 131.99 191.619 146.77C190.879 147.92 189.339 148.26 188.179 147.51C187.029 146.77 186.699 145.25 187.419 144.1C189.569 140.7 191.949 137.86 194.599 134.93C228.429 97.8099 291.769 95.0398 329.719 127.35C335.559 132.38 340.769 137.82 344.999 144.38C345.569 145.28 345.299 146.48 344.389 147.05C343.459 147.64 342.229 147.33 341.679 146.39H341.689Z" fill="#555A63"/>
</g>
</svg>
