<svg width="533" height="545" viewBox="0 0 533 545" fill="none" xmlns="http://www.w3.org/2000/svg">
<mask id="mask0_472_24013" style="mask-type:luminance" maskUnits="userSpaceOnUse" x="0" y="0" width="533" height="545">
<path d="M266.5 544.98C413.684 544.98 533 422.982 533 272.49C533 121.998 413.684 0 266.5 0C119.316 0 0 121.998 0 272.49C0 422.982 119.316 544.98 266.5 544.98Z" fill="white"/>
</mask>
<g mask="url(#mask0_472_24013)">
<path d="M180.46 468.98C177.78 476 174.51 482.67 170.59 488.79C161.34 503.47 148.58 514.86 132.25 519.4C132.11 519.43 131.94 519.47 131.8 519.5C92.5603 530.19 36.8203 516.54 36.8203 516.54C37.2303 505.78 38.7503 495.74 41.1903 486.45C42.0803 483.05 43.0503 479.74 44.1803 476.55C44.3203 476.1 44.4903 475.62 44.6603 475.17C67.6303 410.87 134.96 383.29 171.07 367.95C171.21 368.02 171.31 368.12 171.45 368.19C191.94 381.12 195.45 429.88 180.46 468.98Z" fill="#0D1016"/>
<path d="M496.21 516.54C496.21 516.54 440.43 530.19 401.2 519.5C401.06 519.47 400.92 519.43 400.79 519.4C381.5 514.04 367.19 499.08 357.7 480.47C355.81 476.79 354.09 472.94 352.58 468.98C337.59 429.88 341.09 381.12 361.59 368.19C361.73 368.12 361.83 368.02 361.97 367.95C378.85 375.14 402.59 385.02 425.42 400.08V400.07C425.83 400.35 426.25 400.62 426.69 400.9C427.17 401.24 427.69 401.55 428.2 401.93C455.88 420.74 481.78 447.43 491.85 486.45C494.29 495.73 495.8 505.78 496.22 516.54H496.21Z" fill="#0D1016"/>
<path d="M404.19 456.37C404.02 474.56 403.19 495.81 401.2 519.44V519.51C398.24 554.31 392.71 594.27 382.97 637.36C363.4 724.19 361.17 754.04 266.81 759.26V759.29C266.4 759.26 266.61 759.26 266.19 759.29V759.26C171.83 754.03 169.66 724.36 150.03 637.36C140.3 594.27 134.76 554.31 131.81 519.51V519.44C130.78 506.99 130.02 495.2 129.54 484.19C126.96 424.22 131.78 386.67 131.78 386.67C146.12 378.97 159.08 372.92 171.46 368.2C171.77 368.06 172.11 367.96 172.42 367.82C181.22 364.48 189.79 361.87 198.35 359.81C199.07 359.64 199.83 359.47 200.55 359.29C220.77 354.61 241.33 352.96 266.2 352.65H266.82C291.51 352.93 311.94 354.58 331.98 359.18C341.71 361.38 351.34 364.3 361.35 368.09C361.42 368.12 361.52 368.16 361.59 368.19C373.97 372.9 386.9 378.95 401.24 386.66C401.24 386.66 404.61 412.83 404.2 456.36L404.19 456.37Z" fill="#0D1016"/>
<path d="M407.64 430.89C408.57 453.16 408.06 475.43 406.23 497.64C405.61 505.04 404.71 512.43 403.65 519.8C403.45 521.16 402.19 522.1 400.83 521.91C399.48 521.72 398.54 520.47 398.72 519.12C400.48 504.57 401.74 489.8 402.52 475.17C403.32 460.48 403.74 445.72 403.77 431.01C403.78 428.52 407.47 428.36 407.64 430.9V430.89Z" fill="#555A63"/>
<path d="M129.241 431C129.301 453.07 130.141 475.19 132.021 497.19C132.611 504.32 133.441 512.09 134.291 519.17C134.581 522.36 129.901 523 129.361 519.8C127.191 505.09 125.981 490.26 125.391 475.41C124.811 460.56 124.711 445.75 125.361 430.89C125.521 428.4 129.211 428.46 129.231 431H129.241Z" fill="#555A63"/>
<path d="M338.69 453.55H301.45C295.35 453.55 290.5 458.64 290.72 464.74C290.88 469.2 291.13 473.43 291.45 477.45C295.64 529.98 313.2 545.58 337.02 546.99V547.07C337.3 547.07 337.58 547.04 337.86 547.03C338.14 547.04 338.42 547.06 338.7 547.07V546.99C362.52 545.58 380.07 529.98 384.27 477.45C384.59 473.43 384.83 469.2 385 464.74C385.22 458.64 380.37 453.56 374.27 453.56H338.71L338.69 453.55Z" fill="#555A63"/>
<path d="M338.69 453.55H301.45C295.35 453.55 290.5 458.64 290.72 464.74C290.88 469.2 291.13 473.43 291.45 477.45H337.02H338.7H384.27C384.59 473.43 384.83 469.2 385 464.74C385.22 458.64 380.37 453.56 374.27 453.56H338.71L338.69 453.55Z" fill="#3F4349"/>
<path d="M181.23 236.58C207.37 231.73 227.7 252.41 229.29 278.1C230.01 289.65 228.13 300.51 221.27 309.97C207.04 329.62 186.21 332.36 169.08 321.67C158.8 315.25 153.4 305.31 150.33 293.98C142.99 266.93 161.21 240.3 181.23 236.58Z" fill="#3537F5"/>
<path d="M303.62 282.77C302.96 272.67 305.71 263.61 310.8 255.36C327.5 228.34 362.34 229.57 377.61 256.59C384.39 268.59 386.07 281.45 382.51 294.61C377.79 312.09 367.03 323.91 348.61 327.51C335.99 329.97 318.23 322.82 309.76 306.76C305.76 299.18 302.83 291.32 303.62 282.77Z" fill="#3537F5"/>
<path d="M169.21 259.95C168.35 270.92 165.43 282.24 170.77 292.32C175.74 301.67 185.62 308.23 196.16 309.24C199.37 309.61 199 314.35 195.75 314.2C180.35 313.25 165.84 301.26 163.38 285.79C161.92 276.98 164.17 267.97 165.35 259.52C165.75 257.07 169.35 257.46 169.2 259.95H169.21Z" fill="#2A38B7"/>
<path d="M368.5 259.51C369.68 267.96 371.93 276.98 370.47 285.78C368.01 301.25 353.49 313.24 338.1 314.19C336.73 314.29 335.54 313.25 335.45 311.88C335.36 310.53 336.37 309.35 337.71 309.23C340.34 308.98 342.94 308.37 345.42 307.46C358.31 302.81 367.15 290.8 366.2 276.89C366.05 271.39 365.14 265.73 364.65 259.94C364.48 257.47 368.1 257.04 368.5 259.51Z" fill="#2A38B7"/>
<path d="M217.51 290.64C217.51 290.74 217.48 290.81 217.48 290.92" stroke="#2A38B7" stroke-width="5.16" stroke-miterlimit="10" stroke-linecap="round"/>
<path d="M334.26 371.42C334.26 408.83 303.93 439.2 266.52 439.2C229.11 439.2 198.74 408.84 198.74 371.42C198.74 362.41 200.49 353.81 203.73 345.94C203.83 345.63 203.93 345.32 204.07 345.05C209.78 328.89 213.36 317.85 215.07 308.84C216.31 302.31 216.82 297.11 217.48 290.92V290.65C217.48 263.55 239.42 241.61 266.52 241.61C293.62 241.61 315.52 263.55 315.52 290.65C316.21 296.94 316.72 302.2 318 308.84C319.75 318.02 323.4 329.3 329.31 345.94C332.51 353.81 334.26 362.41 334.26 371.42Z" fill="#F8A384"/>
<path d="M266.5 339.65C293.573 339.65 315.52 317.703 315.52 290.63C315.52 263.557 293.573 241.61 266.5 241.61C239.427 241.61 217.48 263.557 217.48 290.63C217.48 317.703 239.427 339.65 266.5 339.65Z" fill="#F8A384"/>
<path d="M266.5 439.18C303.929 439.18 334.27 408.838 334.27 371.41C334.27 333.981 303.929 303.64 266.5 303.64C229.072 303.64 198.73 333.981 198.73 371.41C198.73 408.838 229.072 439.18 266.5 439.18Z" fill="#F8A384"/>
<path d="M195.08 218.41C195.08 229.92 198.03 242.62 186.55 242.62C168.76 242.62 157.12 228.4 157.12 216.9C157.12 205.4 162.82 197.58 174.3 197.58C185.78 197.58 195.08 206.91 195.08 218.41Z" fill="#F8A384"/>
<path d="M337.84 218.41C337.84 229.92 334.89 242.62 346.37 242.62C364.16 242.62 375.8 228.4 375.8 216.9C375.8 205.4 370.1 197.58 358.62 197.58C347.14 197.58 337.84 206.91 337.84 218.41Z" fill="#F8A384"/>
<path d="M175.551 223.8C174.771 226.38 171.811 227.12 169.601 225.62C165.071 222.64 161.681 211.38 168.501 211.38C168.981 211.38 169.461 211.48 169.871 211.69C172.991 213.31 176.461 221.04 175.541 223.79L175.551 223.8Z" fill="#B0594D"/>
<path d="M357.37 223.8C358.15 226.38 361.11 227.12 363.32 225.62C367.85 222.64 371.24 211.38 364.42 211.38C363.94 211.38 363.46 211.48 363.04 211.69C359.92 213.31 356.45 221.04 357.37 223.79V223.8Z" fill="#B0594D"/>
<path d="M341.78 274.27C330.05 293.35 302.31 320.66 266.84 321.07H266.16C230.7 320.66 202.96 293.35 191.22 274.27C169.74 239.33 174.6 169.97 190.4 136.75C205.69 104.63 233.26 87.6104 266.15 86.8904C266.28 86.8604 266.38 86.8604 266.51 86.8604C266.61 86.8604 266.74 86.8604 266.83 86.8904C299.72 87.6104 327.3 104.63 342.58 136.75C358.39 169.97 363.25 239.33 341.77 274.27H341.78Z" fill="#F8A384"/>
<path d="M292.621 175.61C292.771 165.13 318.671 167.96 317.391 178.54C316.301 187.49 292.501 184.15 292.621 175.61Z" fill="#3537F5"/>
<path d="M215.721 178.66C213.431 168.43 239.281 165.16 240.491 175.75C241.511 184.71 217.581 187 215.721 178.66Z" fill="#3537F5"/>
<path d="M273.62 188.05C276.33 197.41 277.92 206.67 279.28 216.24C280.96 226.29 277.34 234.05 266.58 235.56C264.18 235.91 261.46 236.36 258.98 235.96C255.76 235.51 255.7 230.9 258.87 230.35C259.77 230.18 261.1 230.03 261.95 229.76C266.21 228.56 271.98 228.44 272.57 223.12C273.29 219.05 271.32 207.28 271.05 203L270.24 195.99C269.99 193.63 269.68 191.27 269.36 189C269.03 186.35 272.81 185.5 273.63 188.06L273.62 188.05Z" fill="#CC7A66"/>
<path d="M218.67 203.01C222.73 194.6 232.61 194.1 238.95 200.27C241.84 202.9 238.62 207.45 235.2 205.65C233.2 204.5 230.94 202.95 228.64 202.91C226.92 202.81 225.03 203.89 223.74 205.07C223.32 205.52 222.74 205.88 222.27 206.18C220.19 207.57 217.58 205.22 218.68 203.01H218.67Z" fill="#0D1016"/>
<path d="M295.17 203.08C299.23 194.67 309.11 194.17 315.45 200.33C318.34 202.96 315.12 207.51 311.7 205.71C309.7 204.56 307.44 203.01 305.14 202.97C303.42 202.87 301.53 203.95 300.24 205.13C299.82 205.58 299.24 205.94 298.77 206.24C296.69 207.63 294.08 205.28 295.18 203.07L295.17 203.08Z" fill="#0D1016"/>
<path d="M285.21 268C283.17 270.52 280.64 272.34 277.92 273.56C268.02 278.06 255.36 274.73 249.27 266.74C249.08 266.5 248.89 266.27 248.76 265.98C247.19 263.72 246.03 261.11 245.52 258.33C245.01 255.56 244.99 251.33 247.23 249.46C249.5 247.62 252.56 247.15 254.98 248.78C256.18 249.58 257.441 250.5 258.601 251.48C263.201 255.2 268.54 256.86 274.76 256.47C276.77 256.33 278.931 256.2 280.971 256.49C286.651 257.32 288.94 263.43 285.2 268H285.21Z" fill="#0D1016"/>
<path d="M267.39 47.9799C291.11 46.1899 320.85 60.9599 328.1 87.0599C330.25 94.7899 328.53 94.8999 335.24 94.9299C375.37 95.1199 400.8 153.42 378.74 193.18C376.8 196.68 374.56 200.03 372.25 203.3C366.04 212.06 341.36 210.27 325.45 181.6C314.56 161.97 314.33 150.06 313.12 145.85C312.1 142.3 309.83 148.87 300.27 155.89C280.3 170.55 252.79 171.13 231.85 155.34C223.49 149.04 222.52 144.97 221 144.89C217.71 144.71 218.95 180.64 188.41 202.84C180.17 208.83 166.74 211.01 159.89 201.9C152.84 192.52 148.19 182.25 146.78 170.71C141.06 123.85 172.78 94.7399 197.39 94.9599C204.08 95.0199 202.92 94.4699 204.14 89.7699C209.07 70.8199 224.32 55.0999 248.72 49.3299C254.56 47.9499 260.45 47.8999 267.38 47.9999L267.39 47.9799Z" fill="#3537F5"/>
<path d="M221.3 86.0499C218.39 106.54 227.35 129.25 246.72 138.34C265 147.2 290 142.04 302.2 125.53C310.33 114.28 312.78 99.7099 311.6 86.0699C311.46 84.6899 312.47 83.4598 313.86 83.3398C315.22 83.2198 316.42 84.2199 316.55 85.5699C316.92 89.2899 317.02 93.0299 316.87 96.7699C316.31 108.05 313.1 119.39 306.37 128.59C292.66 147.15 265.01 152.91 244.59 142.69C232.11 136.69 223.1 124.94 219.13 111.85C216.62 103.32 216.11 94.2098 217.47 85.4698C217.91 82.9698 221.63 83.5199 221.3 86.0499Z" fill="#2A38B7"/>
<path d="M240.351 67.6502C238.951 77.6602 238.961 88.5602 243.451 97.6802C247.811 106.34 256.831 113.02 266.701 113.04C276.661 113.25 285.031 105.89 289.001 97.0902C293.691 87.6202 291.761 77.1302 291.821 66.7002C291.911 63.4602 296.701 63.4402 296.791 66.7002C296.811 71.8902 297.401 77.1702 297.331 82.7402C297.691 103.44 279.791 124.07 258.021 116.63C249.821 113.79 242.991 107.52 239.271 99.7302C234.441 89.4502 234.681 77.8802 236.521 67.0302C237.001 64.5602 240.661 65.1402 240.351 67.6502Z" fill="#2A38B7"/>
<path d="M200.7 113.92C216.78 138.76 193.95 179.97 171.4 193.79C170.23 194.5 168.7 194.13 167.98 192.96C167.27 191.79 167.64 190.26 168.81 189.54C171.75 187.68 174.49 185.41 177.05 182.94C189.58 170.47 199.32 153.84 201.36 136.13C202.03 129.13 201.04 121.94 197.43 116.01C196.17 113.87 199.26 111.86 200.7 113.93V113.92Z" fill="#2A38B7"/>
<path d="M256.64 57.8796C256.57 62.7596 256.58 67.5496 258.13 71.5796C259.56 75.2296 262.53 78.7497 266.57 78.9297C272.65 78.7297 275.16 69.9996 275.78 64.8696C276.03 62.6496 275.99 60.3496 275.43 58.5696C274.55 55.4796 279.02 53.9996 280.15 57.0096C282.79 65.3596 279.47 78.9296 271.14 83.0896C263.76 86.5396 255.81 80.0996 253.76 73.1696C252.03 68.0896 252.38 62.8196 252.77 57.6996C252.85 56.6296 253.78 55.8296 254.85 55.9096C255.88 55.9896 256.66 56.8596 256.64 57.8696V57.8796Z" fill="#2A38B7"/>
<path d="M182.61 124.18C182.39 136.17 179.14 148.25 172.45 158.3C170.19 161.66 167.55 164.79 164.51 167.5C163.49 168.41 161.91 168.33 161 167.3C160.11 166.31 160.17 164.8 161.11 163.88C169.02 156.05 174.22 145.83 176.83 135.05C177.71 131.41 178.35 127.7 178.74 123.94C179.04 121.51 182.6 121.72 182.61 124.18Z" fill="#2A38B7"/>
<path d="M336.411 116.01C329.061 128.42 332.65 144.08 338.33 156.61C342.85 166.36 349.07 175.45 356.79 182.94C359.35 185.41 362.091 187.69 365.031 189.54C366.211 190.26 366.581 191.82 365.84 192.99C365.111 194.14 363.6 194.49 362.45 193.79C355.71 189.69 350.24 184.18 345.48 178.23C332.33 161.35 320.41 133.99 333.15 113.92C334.57 111.87 337.691 113.85 336.411 116.01Z" fill="#2A38B7"/>
<path d="M355.11 123.96C356.59 138.69 362.08 153.38 372.74 163.89C374.96 166.18 371.77 169.59 369.33 167.51C363.28 162.1 358.77 155.08 355.8 147.58C352.87 140.13 351.37 132.16 351.23 124.18C351.21 123.11 352.06 122.22 353.13 122.2C354.15 122.18 355 122.95 355.1 123.95L355.11 123.96Z" fill="#2A38B7"/>
<path d="M267.39 47.9799C291.11 46.1899 320.85 60.9599 328.1 87.0599C330.25 94.7899 328.53 94.8999 335.24 94.9299C375.37 95.1199 400.8 153.42 378.74 193.18C376.8 196.68 374.56 200.03 372.25 203.3C366.04 212.06 341.36 210.27 325.45 181.6C314.56 161.97 314.33 150.06 313.12 145.85C312.1 142.3 309.83 148.87 300.27 155.89C280.3 170.55 252.79 171.13 231.85 155.34C223.49 149.04 222.52 144.97 221 144.89C217.71 144.71 218.95 180.64 188.41 202.84C180.17 208.83 166.74 211.01 159.89 201.9C152.84 192.52 148.19 182.25 146.78 170.71C141.06 123.85 172.78 94.7399 197.39 94.9599C204.08 95.0199 202.92 94.4699 204.14 89.7699C209.07 70.8199 224.32 55.0999 248.72 49.3299C254.56 47.9499 260.45 47.8999 267.38 47.9999L267.39 47.9799Z" fill="#3537F5"/>
<path d="M221.3 86.0499C218.39 106.54 227.35 129.25 246.72 138.34C265 147.2 290 142.04 302.2 125.53C310.33 114.28 312.78 99.7099 311.6 86.0699C311.46 84.6899 312.47 83.4598 313.86 83.3398C315.22 83.2198 316.42 84.2199 316.55 85.5699C316.92 89.2899 317.02 93.0299 316.87 96.7699C316.31 108.05 313.1 119.39 306.37 128.59C292.66 147.15 265.01 152.91 244.59 142.69C232.11 136.69 223.1 124.94 219.13 111.85C216.62 103.32 216.11 94.2098 217.47 85.4698C217.91 82.9698 221.63 83.5199 221.3 86.0499Z" fill="#2A38B7"/>
<path d="M240.351 67.6502C238.951 77.6602 238.961 88.5602 243.451 97.6802C247.811 106.34 256.831 113.02 266.701 113.04C276.661 113.25 285.031 105.89 289.001 97.0902C293.691 87.6202 291.761 77.1302 291.821 66.7002C291.911 63.4602 296.701 63.4402 296.791 66.7002C296.811 71.8902 297.401 77.1702 297.331 82.7402C297.691 103.44 279.791 124.07 258.021 116.63C249.821 113.79 242.991 107.52 239.271 99.7302C234.441 89.4502 234.681 77.8802 236.521 67.0302C237.001 64.5602 240.661 65.1402 240.351 67.6502Z" fill="#2A38B7"/>
<path d="M200.7 113.92C216.78 138.76 193.95 179.97 171.4 193.79C170.23 194.5 168.7 194.13 167.98 192.96C167.27 191.79 167.64 190.26 168.81 189.54C171.75 187.68 174.49 185.41 177.05 182.94C189.58 170.47 199.32 153.84 201.36 136.13C202.03 129.13 201.04 121.94 197.43 116.01C196.17 113.87 199.26 111.86 200.7 113.93V113.92Z" fill="#2A38B7"/>
<path d="M256.64 57.8796C256.57 62.7596 256.58 67.5496 258.13 71.5796C259.56 75.2296 262.53 78.7497 266.57 78.9297C272.65 78.7297 275.16 69.9996 275.78 64.8696C276.03 62.6496 275.99 60.3496 275.43 58.5696C274.55 55.4796 279.02 53.9996 280.15 57.0096C282.79 65.3596 279.47 78.9296 271.14 83.0896C263.76 86.5396 255.81 80.0996 253.76 73.1696C252.03 68.0896 252.38 62.8196 252.77 57.6996C252.85 56.6296 253.78 55.8296 254.85 55.9096C255.88 55.9896 256.66 56.8596 256.64 57.8696V57.8796Z" fill="#2A38B7"/>
<path d="M182.61 124.18C182.39 136.17 179.14 148.25 172.45 158.3C170.19 161.66 167.55 164.79 164.51 167.5C163.49 168.41 161.91 168.33 161 167.3C160.11 166.31 160.17 164.8 161.11 163.88C169.02 156.05 174.22 145.83 176.83 135.05C177.71 131.41 178.35 127.7 178.74 123.94C179.04 121.51 182.6 121.72 182.61 124.18Z" fill="#2A38B7"/>
<path d="M336.411 116.01C329.061 128.42 332.65 144.08 338.33 156.61C342.85 166.36 349.07 175.45 356.79 182.94C359.35 185.41 362.091 187.69 365.031 189.54C366.211 190.26 366.581 191.82 365.84 192.99C365.111 194.14 363.6 194.49 362.45 193.79C355.71 189.69 350.24 184.18 345.48 178.23C332.33 161.35 320.41 133.99 333.15 113.92C334.57 111.87 337.691 113.85 336.411 116.01Z" fill="#2A38B7"/>
<path d="M355.11 123.96C356.59 138.69 362.08 153.38 372.74 163.89C374.96 166.18 371.77 169.59 369.33 167.51C363.28 162.1 358.77 155.08 355.8 147.58C352.87 140.13 351.37 132.16 351.23 124.18C351.21 123.11 352.06 122.22 353.13 122.2C354.15 122.18 355 122.95 355.1 123.95L355.11 123.96Z" fill="#2A38B7"/>
<path d="M361.34 368.09C361.13 368.3 361 368.5 360.79 368.74L360.76 368.77C357.67 372.35 353.02 378.74 349.65 383.38L349.61 383.41C347.72 386.06 346.24 388.09 345.72 388.71C337.19 398.89 328.91 409.41 320.03 419.35C301.91 439.64 274.67 468.7 245.24 450.68C232.86 443.08 223.75 431.56 214.36 420.76C202.94 407.59 192.32 393.7 181.66 379.84L181.63 379.81C179.26 376.68 176.85 373.55 174.44 370.42C173.79 369.56 173.1 368.67 172.41 367.81C181.21 364.47 189.78 361.86 198.34 359.8C199.06 359.63 199.82 359.46 200.54 359.28C221.83 384 243.08 408.73 264.16 433.59C265.4 435.07 267.67 435.07 268.91 433.59L331.98 359.18C341.71 361.38 351.34 364.3 361.35 368.09H361.34Z" fill="#555A63"/>
</g>
</svg>
