<svg width="533" height="545" viewBox="0 0 533 545" fill="none" xmlns="http://www.w3.org/2000/svg">
<mask id="mask0_472_24005" style="mask-type:luminance" maskUnits="userSpaceOnUse" x="0" y="0" width="533" height="545">
<path d="M266.5 544.98C413.684 544.98 533 422.982 533 272.49C533 121.998 413.684 0 266.5 0C119.316 0 0 121.998 0 272.49C0 422.982 119.316 544.98 266.5 544.98Z" fill="white"/>
</mask>
<g mask="url(#mask0_472_24005)">
<path d="M180.46 468.98C177.78 476 174.51 482.67 170.59 488.79C161.34 503.47 148.58 514.86 132.25 519.4C132.11 519.43 131.94 519.47 131.8 519.5C92.5603 530.19 36.8203 516.54 36.8203 516.54C37.2303 505.78 38.7503 495.74 41.1903 486.45C42.0803 483.05 43.0503 479.74 44.1803 476.55C44.3203 476.1 44.4903 475.62 44.6603 475.17C67.6303 410.87 134.96 383.29 171.07 367.95C171.21 368.02 171.31 368.12 171.45 368.19C191.94 381.12 195.45 429.88 180.46 468.98Z" fill="#3537F5"/>
<path d="M496.21 516.54C496.21 516.54 440.43 530.19 401.2 519.5C401.06 519.47 400.92 519.43 400.79 519.4C381.5 514.04 367.19 499.08 357.7 480.47C355.81 476.79 354.09 472.94 352.58 468.98C337.59 429.88 341.09 381.12 361.59 368.19C361.73 368.12 361.83 368.02 361.97 367.95C378.85 375.14 402.59 385.02 425.42 400.08V400.07C425.83 400.35 426.25 400.62 426.69 400.9C427.17 401.24 427.69 401.55 428.2 401.93C455.88 420.74 481.78 447.43 491.85 486.45C494.29 495.73 495.8 505.78 496.22 516.54H496.21Z" fill="#3537F5"/>
<path d="M404.191 456.36C404.021 474.59 403.191 495.84 401.201 519.5C398.241 554.3 392.711 594.26 382.971 637.35C363.401 724.18 361.171 754.03 266.811 759.25V759.28C266.401 759.25 266.611 759.25 266.191 759.28V759.25C171.831 754.02 169.661 724.35 150.031 637.35C140.301 594.26 134.761 554.3 131.811 519.5C130.781 507.02 130.021 495.22 129.541 484.18C126.961 424.21 131.781 386.66 131.781 386.66C146.121 378.96 159.081 372.91 171.461 368.19C180.611 364.68 189.481 361.93 198.351 359.8C219.291 354.75 240.441 352.96 266.201 352.65H266.821C303.581 353.06 330.891 356.54 361.591 368.19C373.971 372.9 386.901 378.95 401.241 386.66C401.241 386.66 404.611 412.83 404.201 456.36H404.191Z" fill="#3537F5"/>
<g opacity="0.3">
<path d="M482.21 501.121C482.21 507.501 487.38 512.671 493.76 512.671C494.51 512.671 495.23 512.591 495.94 512.451C495.41 504.441 494.28 496.841 492.59 489.681C486.77 490.271 482.21 495.141 482.21 501.121Z" fill="white"/>
<path d="M424.439 443.35C424.439 449.73 429.61 454.9 435.99 454.9C442.37 454.9 447.549 449.73 447.549 443.35C447.549 436.97 442.38 431.8 435.99 431.8C429.6 431.8 424.439 436.97 424.439 443.35Z" fill="white"/>
<path d="M476.43 472.241C476.43 465.861 471.25 460.681 464.87 460.681C458.49 460.681 453.32 465.861 453.32 472.241C453.32 478.621 458.49 483.791 464.87 483.791C471.25 483.791 476.43 478.621 476.43 472.241Z" fill="white"/>
<path d="M407.11 483.791C413.49 483.791 418.67 478.621 418.67 472.241C418.67 465.861 413.49 460.681 407.11 460.681C400.73 460.681 395.56 465.861 395.56 472.241C395.56 478.621 400.73 483.791 407.11 483.791Z" fill="white"/>
<path d="M395.55 414.46C395.55 420.84 400.72 426.01 407.1 426.01C413.48 426.01 418.66 420.84 418.66 414.46C418.66 408.08 413.48 402.91 407.1 402.91C400.72 402.91 395.55 408.08 395.55 414.46Z" fill="white"/>
<path d="M378.22 489.57C371.84 489.57 366.67 494.75 366.67 501.13C366.67 507.51 371.84 512.68 378.22 512.68C384.6 512.68 389.78 507.51 389.78 501.13C389.78 494.75 384.61 489.57 378.22 489.57Z" fill="white"/>
<path d="M378.22 431.8C371.84 431.8 366.67 436.97 366.67 443.35C366.67 449.73 371.84 454.9 378.22 454.9C384.6 454.9 389.78 449.73 389.78 443.35C389.78 436.97 384.61 431.8 378.22 431.8Z" fill="white"/>
<path d="M455.96 522.75C461.68 522.27 467.08 521.64 471.98 520.96C470.02 519.42 467.57 518.46 464.88 518.46C461.26 518.46 458.08 520.15 455.96 522.75Z" fill="white"/>
<path d="M395.55 530.01C395.55 533.39 397.03 536.4 399.34 538.51C400.01 532.27 400.62 526.12 401.13 520.16C397.8 522.19 395.55 525.82 395.55 530V530.01Z" fill="white"/>
<path d="M407.11 518.45C405.27 518.45 403.55 518.92 402 519.69C406.39 520.84 410.98 521.7 415.68 522.31C413.56 519.96 410.53 518.45 407.11 518.45Z" fill="white"/>
<path d="M435.99 512.68C442.37 512.68 447.549 507.51 447.549 501.13C447.549 494.75 442.38 489.57 435.99 489.57C429.6 489.57 424.439 494.75 424.439 501.13C424.439 507.51 429.61 512.68 435.99 512.68Z" fill="white"/>
<path d="M320.45 374.021C314.07 374.021 308.9 379.201 308.9 385.581C308.9 387.181 309.22 388.701 309.81 390.081C310.39 391.461 311.24 392.711 312.29 393.751C313.34 394.801 314.58 395.641 315.96 396.231C317.34 396.811 318.86 397.141 320.46 397.141C322.06 397.141 323.57 396.821 324.96 396.231C326.34 395.651 327.59 394.801 328.63 393.751C329.67 392.701 330.52 391.461 331.11 390.081C331.7 388.701 332.02 387.181 332.02 385.581C332.02 379.201 326.84 374.021 320.46 374.021H320.45Z" fill="white"/>
<path d="M376.15 374.23C370.76 375.21 366.67 379.91 366.67 385.58C366.67 387.18 366.99 388.7 367.58 390.08C368.16 391.46 369.01 392.71 370.06 393.75C371.11 394.8 372.35 395.64 373.73 396.23C375.11 396.81 376.63 397.14 378.23 397.14C379.83 397.14 381.34 396.82 382.73 396.23C384.11 395.65 385.36 394.8 386.4 393.75C387.44 392.7 388.29 391.46 388.88 390.08C389.46 388.7 389.79 387.18 389.79 385.58C389.79 383.56 389.23 381.69 388.31 380.04C384.27 378.03 380.21 376.1 376.16 374.23H376.15Z" fill="white"/>
<path d="M349.34 368.25C351.81 368.25 354.09 367.46 355.97 366.14C350.11 364.08 344.34 362.31 338.57 360.8C340.23 365.15 344.41 368.25 349.34 368.25Z" fill="white"/>
<path d="M291.56 368.25C297.94 368.25 303.12 363.08 303.12 356.7C303.12 355.94 303.04 355.2 302.9 354.49C295.79 353.77 288.43 353.28 280.68 352.99C280.28 354.16 280.02 355.4 280.02 356.71C280.02 363.09 285.19 368.26 291.57 368.26L291.56 368.25Z" fill="white"/>
<path d="M320.45 454.9C326.83 454.9 332.01 449.73 332.01 443.35C332.01 436.97 326.83 431.8 320.45 431.8C314.07 431.8 308.9 436.97 308.9 443.35C308.9 449.73 314.07 454.9 320.45 454.9Z" fill="white"/>
<path d="M349.34 483.791C355.72 483.791 360.9 478.621 360.9 472.241C360.9 465.861 355.73 460.681 349.34 460.681C342.95 460.681 337.79 465.861 337.79 472.241C337.79 478.621 342.96 483.791 349.34 483.791Z" fill="white"/>
<path d="M291.56 483.791C297.94 483.791 303.12 478.621 303.12 472.241C303.12 465.861 297.94 460.681 291.56 460.681C285.18 460.681 280.01 465.861 280.01 472.241C280.01 478.621 285.18 483.791 291.56 483.791Z" fill="white"/>
<path d="M349.34 426.02C355.72 426.02 360.9 420.85 360.9 414.47C360.9 408.09 355.73 402.92 349.34 402.92C342.95 402.92 337.79 408.09 337.79 414.47C337.79 420.85 342.96 426.02 349.34 426.02Z" fill="white"/>
<path d="M291.56 426.02C297.94 426.02 303.12 420.85 303.12 414.47C303.12 408.09 297.94 402.92 291.56 402.92C285.18 402.92 280.01 408.09 280.01 414.47C280.01 420.85 285.18 426.02 291.56 426.02Z" fill="white"/>
<path d="M349.34 518.45C342.96 518.45 337.79 523.62 337.79 530C337.79 536.38 342.96 541.55 349.34 541.55C355.72 541.55 360.9 536.38 360.9 530C360.9 523.62 355.73 518.45 349.34 518.45Z" fill="white"/>
<path d="M291.56 518.45C285.18 518.45 280.01 523.62 280.01 530C280.01 536.38 285.18 541.55 291.56 541.55C297.94 541.55 303.12 536.38 303.12 530C303.12 523.62 297.94 518.45 291.56 518.45Z" fill="white"/>
<path d="M320.45 512.68C326.83 512.68 332.01 507.51 332.01 501.13C332.01 494.75 326.83 489.57 320.45 489.57C314.07 489.57 308.9 494.75 308.9 501.13C308.9 507.51 314.07 512.68 320.45 512.68Z" fill="white"/>
<path d="M233.79 368.25C240.17 368.25 245.35 363.08 245.35 356.7C245.35 355.53 245.12 354.43 244.8 353.36C237.02 353.8 229.58 354.44 222.37 355.38C222.32 355.82 222.24 356.24 222.24 356.7C222.24 363.08 227.41 368.25 233.79 368.25Z" fill="white"/>
<path d="M185.44 363.351C181.25 364.651 177.02 366.111 172.74 367.721C173.79 368.031 174.87 368.251 176.02 368.251C179.92 368.251 183.35 366.311 185.44 363.351Z" fill="white"/>
<path d="M204.91 431.8C198.53 431.8 193.36 436.97 193.36 443.35C193.36 449.73 198.53 454.9 204.91 454.9C211.29 454.9 216.47 449.73 216.47 443.35C216.47 436.97 211.3 431.8 204.91 431.8Z" fill="white"/>
<path d="M256.22 452.93C257.45 453.76 258.85 454.36 260.35 454.67C261.1 454.82 261.88 454.9 262.68 454.9C269.06 454.9 274.24 449.73 274.24 443.35C274.24 436.97 269.07 431.8 262.68 431.8C261.88 431.8 261.11 431.88 260.35 432.03C258.85 432.34 257.45 432.94 256.22 433.77C253.15 435.85 251.13 439.36 251.13 443.35C251.13 447.34 253.15 450.85 256.22 452.93Z" fill="white"/>
<path d="M233.79 483.791C240.17 483.791 245.35 478.621 245.35 472.241C245.35 465.861 240.18 460.681 233.79 460.681C227.4 460.681 222.24 465.861 222.24 472.241C222.24 478.621 227.41 483.791 233.79 483.791Z" fill="white"/>
<path d="M176.02 483.791C182.4 483.791 187.58 478.621 187.58 472.241C187.58 465.861 182.4 460.681 176.02 460.681C169.64 460.681 164.47 465.861 164.47 472.241C164.47 478.621 169.64 483.791 176.02 483.791Z" fill="white"/>
<path d="M233.79 426.02C240.17 426.02 245.35 420.85 245.35 414.47C245.35 408.09 240.18 402.92 233.79 402.92C227.4 402.92 222.24 408.09 222.24 414.47C222.24 420.85 227.41 426.02 233.79 426.02Z" fill="white"/>
<path d="M164.47 414.46C164.47 420.84 169.64 426.01 176.02 426.01C182.4 426.01 187.58 420.84 187.58 414.46C187.58 408.08 182.4 402.91 176.02 402.91C169.64 402.91 164.47 408.08 164.47 414.46Z" fill="white"/>
<path d="M196.74 393.751C197.79 394.801 199.03 395.641 200.41 396.231C201.79 396.811 203.31 397.141 204.91 397.141C206.51 397.141 208.02 396.821 209.41 396.231C210.79 395.651 212.04 394.801 213.08 393.751C214.12 392.701 214.97 391.461 215.56 390.081C216.14 388.701 216.47 387.181 216.47 385.581C216.47 379.201 211.3 374.021 204.91 374.021C198.52 374.021 193.36 379.201 193.36 385.581C193.36 387.181 193.68 388.701 194.27 390.081C194.85 391.461 195.7 392.711 196.74 393.751Z" fill="white"/>
<path d="M254.51 393.75C255.03 394.27 255.6 394.75 256.22 395.16C256.83 395.58 257.49 395.93 258.18 396.22C258.87 396.51 259.6 396.74 260.35 396.89C261.1 397.04 261.88 397.12 262.68 397.12C264.28 397.12 265.79 396.8 267.18 396.21C268.56 395.63 269.81 394.78 270.85 393.73C271.9 392.68 272.74 391.44 273.33 390.06C273.91 388.68 274.24 387.16 274.24 385.56C274.24 379.18 269.07 374 262.68 374C261.88 374 261.11 374.08 260.35 374.23C258.85 374.54 257.45 375.14 256.22 375.97C253.15 378.05 251.13 381.56 251.13 385.55C251.13 387.15 251.45 388.67 252.04 390.05C252.62 391.43 253.47 392.68 254.52 393.72L254.51 393.75Z" fill="white"/>
<path d="M222.24 530.01C222.24 536.39 227.41 541.56 233.79 541.56C240.17 541.56 245.35 536.39 245.35 530.01C245.35 523.63 240.18 518.46 233.79 518.46C227.4 518.46 222.24 523.63 222.24 530.01Z" fill="white"/>
<path d="M176.02 541.56C182.4 541.56 187.58 536.39 187.58 530.01C187.58 523.63 182.4 518.46 176.02 518.46C169.64 518.46 164.47 523.63 164.47 530.01C164.47 536.39 169.64 541.56 176.02 541.56Z" fill="white"/>
<path d="M204.91 512.68C211.29 512.68 216.47 507.51 216.47 501.13C216.47 494.75 211.3 489.57 204.91 489.57C198.52 489.57 193.36 494.75 193.36 501.13C193.36 507.51 198.53 512.68 204.91 512.68Z" fill="white"/>
<path d="M256.22 510.701C257.45 511.531 258.85 512.131 260.35 512.441C261.1 512.591 261.88 512.671 262.68 512.671C269.06 512.671 274.24 507.501 274.24 501.121C274.24 494.741 269.07 489.561 262.68 489.561C261.88 489.561 261.11 489.641 260.35 489.791C258.85 490.101 257.45 490.701 256.22 491.531C253.15 493.611 251.13 497.121 251.13 501.111C251.13 505.101 253.15 508.611 256.22 510.691V510.701Z" fill="white"/>
<path d="M135.75 383.9C135.67 384.45 135.58 385 135.58 385.57C135.58 387.17 135.9 388.69 136.49 390.07C137.07 391.45 137.92 392.7 138.97 393.74C140.01 394.79 141.26 395.63 142.64 396.22C144.02 396.8 145.54 397.13 147.14 397.13C148.74 397.13 150.26 396.81 151.64 396.22C153.02 395.64 154.27 394.79 155.31 393.74C156.36 392.69 157.2 391.45 157.79 390.07C158.38 388.69 158.7 387.17 158.7 385.57C158.7 381.37 156.44 377.73 153.09 375.71C147.58 378.17 141.76 380.88 135.77 383.9H135.75Z" fill="white"/>
<path d="M89.3703 489.57C82.9903 489.57 77.8203 494.75 77.8203 501.13C77.8203 507.51 82.9903 512.68 89.3703 512.68C95.7503 512.68 100.93 507.51 100.93 501.13C100.93 494.75 95.7503 489.57 89.3703 489.57Z" fill="white"/>
<path d="M89.3703 454.9C95.7503 454.9 100.93 449.73 100.93 443.35C100.93 436.97 95.7503 431.8 89.3703 431.8C82.9903 431.8 77.8203 436.97 77.8203 443.35C77.8203 449.73 82.9903 454.9 89.3703 454.9Z" fill="white"/>
<path d="M147.14 454.9C153.52 454.9 158.7 449.73 158.7 443.35C158.7 436.97 153.53 431.8 147.14 431.8C140.75 431.8 135.59 436.97 135.59 443.35C135.59 449.73 140.76 454.9 147.14 454.9Z" fill="white"/>
<path d="M129.81 472.241C129.81 465.861 124.64 460.681 118.25 460.681C111.86 460.681 106.7 465.861 106.7 472.241C106.7 478.621 111.87 483.791 118.25 483.791C124.63 483.791 129.81 478.621 129.81 472.241Z" fill="white"/>
<path d="M72.0397 472.241C72.0397 465.861 66.8697 460.681 60.4797 460.681C54.0897 460.681 48.9297 465.861 48.9297 472.241C48.9297 478.621 54.0997 483.791 60.4797 483.791C66.8597 483.791 72.0397 478.621 72.0397 472.241Z" fill="white"/>
<path d="M118.25 402.91C111.87 402.91 106.7 408.08 106.7 414.46C106.7 420.84 111.87 426.01 118.25 426.01C124.63 426.01 129.81 420.84 129.81 414.46C129.81 408.08 124.64 402.91 118.25 402.91Z" fill="white"/>
<path d="M109 523.15C114.57 522.75 120.09 522.06 125.39 520.99C123.42 519.43 120.96 518.45 118.25 518.45C114.45 518.45 111.1 520.31 109 523.15Z" fill="white"/>
<path d="M60.4803 518.45C58.4003 518.45 56.4703 519.05 54.7803 520.01C58.9303 520.68 63.6403 521.34 68.7203 521.92C66.6203 519.78 63.7103 518.45 60.4803 518.45Z" fill="white"/>
<path d="M147.14 512.68C153.52 512.68 158.7 507.51 158.7 501.13C158.7 494.75 153.53 489.57 147.14 489.57C140.75 489.57 135.59 494.75 135.59 501.13C135.59 507.51 140.76 512.68 147.14 512.68Z" fill="white"/>
<path d="M43.1499 501.121C43.1499 497.901 41.8199 494.991 39.6899 492.891C38.4699 498.711 37.6399 504.821 37.1699 511.181C40.7199 509.211 43.1499 505.471 43.1499 501.121Z" fill="#4D162B"/>
</g>
<mask id="mask1_472_24005" style="mask-type:luminance" maskUnits="userSpaceOnUse" x="128" y="352" width="277" height="408">
<path d="M401.231 386.651C351.381 359.831 318.381 353.221 266.811 352.661V352.641C266.711 352.641 266.291 352.641 266.191 352.641V352.661C214.651 353.221 181.641 359.821 131.771 386.651C131.771 386.651 117.881 494.971 150.021 637.351C169.661 724.351 171.841 754.021 266.191 759.241V759.281C266.601 759.261 266.411 759.261 266.811 759.281V759.241C361.151 754.021 363.391 724.161 382.981 637.351C415.121 494.981 401.231 386.651 401.231 386.651Z" fill="white"/>
</mask>
<g mask="url(#mask1_472_24005)">
<path d="M266.5 468.891C317.598 468.891 359.02 434.542 359.02 392.171C359.02 349.8 317.598 315.451 266.5 315.451C215.403 315.451 173.98 349.8 173.98 392.171C173.98 434.542 215.403 468.891 266.5 468.891Z" fill="#2A38B7"/>
</g>
<path d="M407.64 430.89C408.57 453.16 408.06 475.43 406.23 497.64C405.61 505.04 404.71 512.43 403.65 519.8C403.45 521.16 402.19 522.1 400.83 521.91C399.48 521.72 398.54 520.47 398.72 519.12C400.48 504.57 401.74 489.8 402.52 475.17C403.32 460.48 403.74 445.72 403.77 431.01C403.78 428.52 407.47 428.36 407.64 430.9V430.89Z" fill="#0D1016"/>
<path d="M129.241 431C129.301 453.07 130.141 475.19 132.021 497.19C132.611 504.32 133.441 512.09 134.291 519.17C134.581 522.36 129.901 523.01 129.361 519.8C127.191 505.09 125.981 490.26 125.391 475.41C124.811 460.56 124.711 445.75 125.361 430.89C125.521 428.4 129.211 428.46 129.231 431H129.241Z" fill="#0D1016"/>
<path d="M194.53 338.941C184.01 335.321 177.01 328.371 174.85 317.011C174.1 313.061 175.4 309.491 175.82 305.761C175.94 304.731 176.33 303.711 176.68 302.721C178.81 296.721 178.44 296.881 173.08 294.091C156.91 285.681 152.43 264.811 160.45 249.131C170.21 230.041 196.18 229.481 209.94 244.911C224.09 260.781 230.87 279.801 231.89 300.941C232.99 323.541 215.84 346.261 194.53 338.931V338.941Z" fill="#0D1016"/>
<path d="M320.01 248.3C332.96 231.4 360.57 228.21 372.12 248.24C380.08 262.04 380.37 278.21 366.92 289.51C364.99 291.13 362.76 292.39 360.66 293.79C358.76 295.06 355.58 295.11 354.91 297.21C354.38 298.85 356.01 301.13 356.5 303.17C357.25 306.24 358.19 309.33 358.42 312.45C360.16 335.79 324.24 354.34 307.22 325.41C294.01 302.95 304.36 268.73 320.01 248.31V248.3Z" fill="#0D1016"/>
<path d="M362.401 250.6C369.011 263.23 363.271 276.88 352.281 284.75C349.761 286.67 346.771 283.17 349.061 280.98L349.241 280.81L352.331 278C353.731 276.57 355.141 274.93 356.291 273.32C360.561 267.37 361.691 259.29 358.991 252.44C357.921 250.16 361.121 248.43 362.401 250.6Z" fill="#555A63"/>
<path d="M337.15 296.99C342.79 302.07 345.1 310.25 342.96 317.55C342.13 319.99 341.09 322.4 339.64 324.51C339.21 325.14 338.03 326.69 337.58 327.33C336.54 328.44 335.5 329.56 334.43 330.65C332.22 332.85 328.8 329.78 330.74 327.34C332.02 325.76 333.57 324.17 334.68 322.44C335 321.95 335.53 321.33 335.77 320.81C340.09 314.13 339.69 305.88 334.52 299.83C332.78 298.02 335.25 295.36 337.16 296.99H337.15Z" fill="#555A63"/>
<path d="M172.41 252.44C169.42 259.96 171.15 268.82 176.34 274.94C177.01 275.92 178.28 277.1 179.07 278.01L182.16 280.82C184.74 282.91 181.78 286.74 179.12 284.76C168.12 276.89 162.39 263.23 169 250.61C170.29 248.44 173.48 250.17 172.41 252.45V252.44Z" fill="#555A63"/>
<path d="M196.89 299.84C191.72 305.89 191.32 314.13 195.64 320.82C195.88 321.34 196.41 321.97 196.73 322.45C197.84 324.17 199.38 325.76 200.66 327.34C202.6 329.8 199.22 332.84 196.98 330.65C195.44 329.08 193.69 327.31 192.46 325.46C185.74 316.63 185.91 304.71 194.26 297C196.16 295.37 198.64 298.06 196.9 299.84H196.89Z" fill="#555A63"/>
<path d="M195.12 218.261C195.12 229.771 198.07 242.471 186.59 242.471C168.8 242.471 157.16 228.251 157.16 216.751C157.16 205.251 162.86 197.431 174.34 197.431C185.82 197.431 195.12 206.761 195.12 218.261Z" fill="#D17E79"/>
<path d="M175.6 223.801C174.82 226.381 171.86 227.121 169.65 225.621C165.12 222.641 161.73 211.381 168.55 211.381C169.03 211.381 169.51 211.481 169.93 211.691C173.05 213.311 176.52 221.041 175.6 223.791V223.801Z" fill="#75363F"/>
<path d="M337.88 218.261C337.88 229.771 334.93 242.471 346.41 242.471C364.2 242.471 375.84 228.251 375.84 216.751C375.84 205.251 370.14 197.431 358.66 197.431C347.18 197.431 337.88 206.761 337.88 218.261Z" fill="#D17E79"/>
<path d="M357.41 223.801C358.19 226.381 361.15 227.121 363.36 225.621C367.89 222.641 371.28 211.381 364.46 211.381C363.98 211.381 363.5 211.481 363.09 211.691C359.97 213.311 356.5 221.041 357.42 223.791L357.41 223.801Z" fill="#75363F"/>
<path d="M334.26 371.42C334.26 408.83 303.93 439.2 266.52 439.2C229.11 439.2 198.74 408.84 198.74 371.42C198.74 362.41 200.49 353.81 203.73 345.94C203.83 345.63 203.93 345.32 204.07 345.05C209.78 328.89 213.36 317.85 215.07 308.84C216.31 302.31 216.82 297.11 217.48 290.92V290.65C217.48 263.55 239.42 241.61 266.52 241.61C293.62 241.61 315.52 263.55 315.52 290.65C316.21 296.94 316.72 302.2 318 308.84C319.75 318.02 323.4 329.3 329.31 345.94C332.51 353.81 334.26 362.41 334.26 371.42Z" fill="#D17E79"/>
<path d="M266.5 339.65C293.573 339.65 315.52 317.703 315.52 290.63C315.52 263.557 293.573 241.61 266.5 241.61C239.427 241.61 217.48 263.557 217.48 290.63C217.48 317.703 239.427 339.65 266.5 339.65Z" fill="#D17E79"/>
<path d="M266.5 439.181C303.929 439.181 334.27 408.839 334.27 371.411C334.27 333.982 303.929 303.641 266.5 303.641C229.072 303.641 198.73 333.982 198.73 371.411C198.73 408.839 229.072 439.181 266.5 439.181Z" fill="#D17E79"/>
<path d="M341.781 274.27C330.051 293.35 302.311 320.66 266.841 321.07H266.161C230.701 320.66 202.961 293.35 191.221 274.27C169.741 239.33 174.601 169.97 190.401 136.75C205.691 104.63 233.261 87.6104 266.151 86.8904C266.281 86.8604 266.381 86.8604 266.511 86.8604C266.611 86.8604 266.741 86.8604 266.831 86.8904C299.721 87.6104 327.301 104.63 342.581 136.75C358.391 169.97 363.251 239.33 341.771 274.27H341.781Z" fill="#D17E79"/>
<path d="M292.621 175.611C292.771 165.131 318.671 167.961 317.391 178.541C316.301 187.491 292.501 184.151 292.621 175.611Z" fill="#0D1016"/>
<path d="M215.721 178.66C213.431 168.43 239.281 165.16 240.491 175.75C241.511 184.71 217.581 187 215.721 178.66Z" fill="#0D1016"/>
<path d="M273.62 188.05C276.33 197.41 277.92 206.67 279.28 216.24C280.96 226.29 277.34 234.05 266.58 235.56C264.18 235.91 261.46 236.36 258.98 235.96C255.76 235.51 255.7 230.9 258.87 230.35C259.77 230.18 261.1 230.03 261.95 229.76C266.21 228.56 271.97 228.44 272.57 223.12C273.29 219.04 271.32 207.28 271.05 203L270.24 195.99C269.99 193.63 269.68 191.27 269.36 189C269.03 186.35 272.81 185.5 273.63 188.06L273.62 188.05Z" fill="#AB5555"/>
<path d="M310.42 206.41C309.62 209.82 307.41 211.85 304.62 211.72C298.54 211.44 296.47 202.9 299.28 198.36C301.98 194 308.48 195.31 310.07 199.89C310.78 201.93 310.91 204.32 310.42 206.41Z" fill="#0D1016"/>
<path d="M233.441 206.41C232.641 209.82 230.431 211.85 227.641 211.72C221.561 211.44 219.491 202.9 222.301 198.36C224.991 194 231.501 195.31 233.091 199.89C233.801 201.93 233.931 204.32 233.441 206.41Z" fill="#0D1016"/>
<path d="M285.59 268.001C283.55 270.521 281.02 272.341 278.3 273.561C268.4 278.061 255.74 274.731 249.65 266.741C249.46 266.501 249.27 266.271 249.14 265.981C247.57 263.721 246.41 261.111 245.9 258.331C245.39 255.561 245.37 251.331 247.61 249.461C249.88 247.621 252.94 247.151 255.36 248.781C256.56 249.581 257.82 250.501 258.98 251.481C263.58 255.201 268.92 256.861 275.14 256.471C277.15 256.331 279.31 256.201 281.35 256.491C287.03 257.321 289.32 263.431 285.58 268.001H285.59Z" fill="#0D1016"/>
<path d="M217.33 118.22C217.17 114.65 217.81 110.72 218.79 106.8C219.95 102.15 222.59 98.86 227.09 97.14C232.82 94.95 238.61 93.08 244.79 92.51C248.98 92.12 253.12 91.22 257.37 91.48C325.86 95.66 334.77 141.39 317.56 154.27C307.04 162.14 293.1 159.48 285.36 152.57C276.57 144.72 280.76 144.24 271.7 153.68C258 167.98 232 163.86 221.26 140.82C218.01 133.85 216.37 126.47 217.33 118.22Z" fill="#0D1016"/>
<path d="M235.38 141.761C235.38 141.761 249.2 159.531 269.54 142.911" stroke="#555A63" stroke-width="5.16" stroke-miterlimit="10" stroke-linecap="round"/>
<path d="M286.91 139.79C286.91 139.79 296.51 151.61 310 145.98" stroke="#555A63" stroke-width="5.16" stroke-miterlimit="10" stroke-linecap="round"/>
<path d="M369.911 201.11C366.061 207.09 358.461 206.65 355.051 200.32C352.611 195.82 351.231 182.4 348.071 174.74C341.361 158.51 329.911 146.58 315.781 138.36C303.261 131.07 288.651 126.67 273.351 124.71C258.291 122.78 229.951 128.18 209.181 143.79C178.751 166.69 183.321 190.97 177.581 201.01C173.661 207.85 163.071 207.44 160.251 193.96C158.571 185.91 156.641 177.9 156.361 169.58C156.291 166.42 155.231 163.39 155.361 160.16C156.221 140.56 159.591 121.58 168.261 103.73C182.671 74.1204 205.951 50.1204 237.171 40.4904C241.781 39.0804 246.971 38.0504 252.511 37.3904C268.221 35.5004 286.351 36.8104 299.591 41.6904C325.241 51.1804 345.151 69.5404 358.631 92.1004C377.821 124.15 376.751 153.28 377.611 157.78C378.131 160.5 375.171 192.99 369.911 201.11Z" fill="#C27023"/>
<path d="M376.49 174.521C374.9 182.571 374.28 190.411 371.58 197.811C371.08 199.181 370.34 200.521 369.48 201.711C365.72 206.911 358.56 206.431 355.33 200.791C354.27 198.951 353.55 196.991 353.15 194.871C352.49 191.341 351.66 187.851 350.9 184.341C339.99 134.031 276.43 113.851 232.4 131.171C216.94 137.251 203.53 146.011 193.44 159.511C186.83 168.361 183.06 178.301 181.11 189.051C180.43 192.791 179.79 196.541 178.19 200.051C177.06 202.501 175.31 204.171 172.69 204.921C169.07 205.951 166.01 204.981 163.72 201.921C162.31 200.041 161.21 197.941 160.73 195.661C159.33 189.051 158.07 182.411 156.82 175.771C156.46 173.841 157.11 171.991 157.72 170.191C164.37 150.601 174.72 133.311 190.47 119.731C230.58 85.1608 301.49 85.1008 341.94 119.161C349.72 125.711 356.34 133.411 361.86 142.041C367.36 150.641 371.71 159.761 375.06 169.371C375.68 171.151 376.07 173.011 376.48 174.531L376.49 174.521Z" fill="#FFC473"/>
<path d="M196.12 127.33C198.07 130.43 199.01 134.57 200.32 137.97" stroke="#555A63" stroke-width="3.44" stroke-miterlimit="10" stroke-linecap="round"/>
<path d="M217.051 112.801C219.001 115.901 219.941 120.041 221.251 123.451" stroke="#555A63" stroke-width="3.44" stroke-miterlimit="10" stroke-linecap="round"/>
<path d="M240.9 104.79C242.43 108.11 242.82 112.34 243.68 115.89" stroke="#555A63" stroke-width="3.44" stroke-miterlimit="10" stroke-linecap="round"/>
<path d="M165.99 170.74C167.94 173.84 168.88 177.98 170.19 181.38" stroke="#555A63" stroke-width="3.44" stroke-miterlimit="10" stroke-linecap="round"/>
<path d="M178.021 147.24C179.971 150.34 180.911 154.47 182.221 157.88" stroke="#555A63" stroke-width="3.44" stroke-miterlimit="10" stroke-linecap="round"/>
<path d="M334.761 127.33C332.811 130.43 331.871 134.57 330.561 137.97" stroke="#555A63" stroke-width="3.44" stroke-miterlimit="10" stroke-linecap="round"/>
<path d="M313.83 112.801C311.88 115.901 310.94 120.041 309.63 123.451" stroke="#555A63" stroke-width="3.44" stroke-miterlimit="10" stroke-linecap="round"/>
<path d="M289.98 104.79C288.45 108.11 288.06 112.34 287.2 115.89" stroke="#555A63" stroke-width="3.44" stroke-miterlimit="10" stroke-linecap="round"/>
<path d="M265.58 102.021C265.58 106.151 265.83 109.781 265.58 113.431" stroke="#555A63" stroke-width="3.44" stroke-miterlimit="10" stroke-linecap="round"/>
<path d="M364.89 170.74C362.94 173.84 362 177.98 360.69 181.38" stroke="#555A63" stroke-width="3.44" stroke-miterlimit="10" stroke-linecap="round"/>
<path d="M352.86 147.24C350.91 150.34 349.97 154.47 348.66 157.88" stroke="#555A63" stroke-width="3.44" stroke-miterlimit="10" stroke-linecap="round"/>
<path d="M197.761 126.3C200.391 129.45 201.611 133.39 202.641 137.08C203.401 140 199.361 141.52 198.001 138.87C196.311 135.37 195.771 131.7 194.441 128.26C193.691 126.23 196.371 124.68 197.761 126.3Z" fill="#C27023"/>
<path d="M197.761 126.3C200.391 129.45 201.611 133.39 202.641 137.08C203.401 140 199.361 141.52 198.001 138.87C196.311 135.37 195.771 131.7 194.441 128.26C193.691 126.23 196.371 124.68 197.761 126.3Z" fill="#C27023"/>
<path d="M218.69 111.76C221.32 114.91 222.54 118.85 223.57 122.54C224.33 125.46 220.29 126.98 218.93 124.33C217.24 120.83 216.7 117.16 215.38 113.72C214.63 111.69 217.31 110.14 218.7 111.76H218.69Z" fill="#C27023"/>
<path d="M218.69 111.76C221.32 114.91 222.54 118.85 223.57 122.54C224.33 125.46 220.29 126.98 218.93 124.33C217.24 120.83 216.7 117.16 215.38 113.72C214.63 111.69 217.31 110.14 218.7 111.76H218.69Z" fill="#C27023"/>
<path d="M242.66 103.98C244.86 107.44 245.55 111.511 246.09 115.311C246.47 118.301 242.26 119.29 241.26 116.48C240.04 112.79 239.99 109.08 239.12 105.5C238.64 103.39 241.5 102.2 242.67 103.99L242.66 103.98Z" fill="#C27023"/>
<path d="M242.66 103.98C244.86 107.44 245.55 111.511 246.09 115.311C246.47 118.301 242.26 119.29 241.26 116.48C240.04 112.79 239.99 109.08 239.12 105.5C238.64 103.39 241.5 102.2 242.67 103.99L242.66 103.98Z" fill="#C27023"/>
<path d="M167.63 169.71C170.26 172.86 171.48 176.8 172.51 180.49C173.27 183.41 169.23 184.93 167.87 182.28C166.18 178.78 165.64 175.11 164.32 171.67C163.57 169.64 166.25 168.09 167.64 169.71H167.63Z" fill="#C27023"/>
<path d="M167.63 169.71C170.26 172.86 171.48 176.8 172.51 180.49C173.27 183.41 169.23 184.93 167.87 182.28C166.18 178.78 165.64 175.11 164.32 171.67C163.57 169.64 166.25 168.09 167.64 169.71H167.63Z" fill="#C27023"/>
<path d="M179.67 146.21C182.3 149.36 183.52 153.3 184.55 156.99C185.31 159.91 181.27 161.43 179.91 158.78C178.22 155.28 177.68 151.61 176.36 148.17C175.61 146.14 178.29 144.59 179.68 146.21H179.67Z" fill="#C27023"/>
<path d="M179.67 146.21C182.3 149.36 183.52 153.3 184.55 156.99C185.31 159.91 181.27 161.43 179.91 158.78C178.22 155.28 177.68 151.61 176.36 148.17C175.61 146.14 178.29 144.59 179.68 146.21H179.67Z" fill="#C27023"/>
<path d="M336.4 128.371C335.09 131.781 334.56 135.41 332.88 138.88C331.5 141.561 327.47 139.981 328.24 137.091C328.86 134.821 332.17 123.181 335.88 126.111C336.54 126.691 336.72 127.601 336.4 128.371Z" fill="#C27023"/>
<path d="M336.4 128.37C335.09 131.78 334.56 135.41 332.88 138.88C331.51 141.53 327.52 140.01 328.23 137.14C328.85 134.86 332.17 123.18 335.89 126.11C336.55 126.69 336.73 127.6 336.41 128.37H336.4Z" fill="#C27023"/>
<path d="M315.471 113.831C314.171 117.241 313.631 120.881 311.951 124.341C310.581 126.991 306.591 125.471 307.301 122.601C307.921 120.321 311.241 108.631 314.961 111.571C315.621 112.151 315.801 113.061 315.481 113.831H315.471Z" fill="#C27023"/>
<path d="M315.47 113.83C314.17 117.24 313.63 120.88 311.95 124.34C310.57 127.02 306.54 125.44 307.31 122.55C307.93 120.28 311.24 108.64 314.95 111.57C315.61 112.15 315.79 113.06 315.47 113.83Z" fill="#C27023"/>
<path d="M291.74 105.6C290.89 109.15 290.83 112.82 289.62 116.47C288.61 119.28 284.45 118.29 284.78 115.35C285.1 113.01 286.87 100.99 290.94 103.42C291.67 103.9 291.97 104.79 291.75 105.59L291.74 105.6Z" fill="#C27023"/>
<path d="M291.74 105.6C290.89 109.15 290.83 112.82 289.62 116.47C288.59 119.3 284.4 118.26 284.79 115.3C285.11 112.97 286.88 100.99 290.94 103.42C291.67 103.9 291.97 104.79 291.75 105.59L291.74 105.6Z" fill="#C27023"/>
<path d="M267.52 102.02C268.15 105.84 268.66 109.68 268.07 113.6C267.53 116.53 263.27 116.25 263.11 113.3C263.01 109.58 263.04 105.79 263.65 102.02C263.84 100.95 264.86 100.24 265.93 100.43C266.76 100.58 267.38 101.23 267.52 102.02Z" fill="#C27023"/>
<path d="M267.52 102.02C268.15 105.84 268.66 109.68 268.07 113.6C267.84 114.96 266.55 115.88 265.19 115.65C264.01 115.45 263.16 114.45 263.11 113.3C263.01 109.58 263.04 105.79 263.65 102.02C263.84 100.95 264.86 100.24 265.93 100.43C266.76 100.58 267.38 101.23 267.52 102.02Z" fill="#C27023"/>
<path d="M366.53 171.77C365.22 175.18 364.69 178.81 363.01 182.28C361.64 184.93 357.65 183.41 358.36 180.54C358.98 178.26 362.3 166.57 366.02 169.51C366.68 170.09 366.86 171 366.54 171.77H366.53Z" fill="#C27023"/>
<path d="M366.53 171.77C365.23 175.18 364.69 178.81 363.01 182.28C361.64 184.93 357.65 183.41 358.36 180.54C358.98 178.26 362.3 166.57 366.02 169.51C366.68 170.09 366.86 171 366.54 171.77H366.53Z" fill="#C27023"/>
<path d="M354.5 148.28C353.19 151.69 352.66 155.32 350.98 158.79C349.61 161.44 345.62 159.92 346.33 157.05C346.95 154.77 350.27 143.08 353.99 146.02C354.65 146.6 354.83 147.51 354.51 148.28H354.5Z" fill="#C27023"/>
<path d="M354.5 148.28C353.19 151.69 352.66 155.32 350.98 158.79C349.61 161.44 345.62 159.92 346.33 157.05C346.95 154.77 350.27 143.09 353.99 146.02C354.65 146.6 354.83 147.51 354.51 148.28H354.5Z" fill="#C27023"/>
<g style="mix-blend-mode:multiply" opacity="0.5">
<path d="M369.911 201.11C366.061 207.09 358.461 206.65 355.051 200.32C352.611 195.82 351.231 182.4 348.071 174.74C341.361 158.51 329.911 146.58 315.781 138.36C355.221 75.5002 255.121 38.3602 252.511 37.4002C268.221 35.5102 286.351 36.8202 299.591 41.7002C325.241 51.1902 345.151 69.5502 358.631 92.1102C377.821 124.16 376.751 153.29 377.611 157.79C378.131 160.51 375.171 193 369.911 201.12V201.11Z" fill="#FCAF5B"/>
</g>
</g>
</svg>
