<svg width="533" height="545" viewBox="0 0 533 545" fill="none" xmlns="http://www.w3.org/2000/svg">
<mask id="mask0_472_24018" style="mask-type:luminance" maskUnits="userSpaceOnUse" x="0" y="0" width="533" height="545">
<path d="M266.5 544.98C413.684 544.98 533 422.982 533 272.49C533 121.998 413.684 0 266.5 0C119.316 0 0 121.998 0 272.49C0 422.982 119.316 544.98 266.5 544.98Z" fill="white"/>
</mask>
<g mask="url(#mask0_472_24018)">
<path d="M262.63 187.28C284.63 187.06 306.32 189.56 327.66 194.93C336.24 197.09 344.42 200.35 352.26 204.43C359.36 208.13 365.63 212.93 371.16 218.78C378.93 227 384.2 240.55 376.54 254.39C375.46 256.35 372.89 258.35 373.93 260.52C374.69 262.11 377.42 262.74 379.23 263.86C392.8 272.26 399.9 284.75 401.86 300.31C402.63 306.41 401.05 312.28 398.68 317.88C397.54 320.57 396.71 321.07 399.88 323.94C403.07 326.82 406.01 329.96 409.13 332.92C415.9 339.36 419.9 347.39 421.96 356.31C425.28 370.7 420.75 382.53 409.36 391.79C407.36 393.41 405.3 394.98 403.13 396.35C394.6 401.75 385.65 402.98 376.12 399.08C373.81 398.14 371.57 395.51 369.14 396.72C367.25 397.66 366.23 400.3 364.77 402.15C360.71 407.29 355.75 411.38 349.86 414.22C342.05 417.98 333.77 420.68 325.14 420.88C313.42 421.16 302.62 417.88 293.92 409.48C291.45 407.1 289.25 404.44 286.91 401.92C286.2 401.16 285.44 401.21 284.74 401.95C281.95 404.93 279.32 408.08 276.36 410.87C270.98 415.94 264.78 419.58 257.64 421.85C248.72 424.68 240.26 423.45 231.9 420.04C224.15 416.88 217.91 411.71 212.79 405.16C209.88 401.44 207.03 397.66 204.82 393.46C204.13 392.14 203.19 392.34 202.28 393.27C200.32 395.26 198.34 397.23 196.43 399.27C193.15 402.76 189.26 405.42 185.11 407.71C176.31 412.58 167.09 415.26 156.8 415.02C147.41 414.8 139.03 412.35 131.35 407.21C124.2 402.42 118.94 396.07 115.82 387.97C113.41 381.72 113.43 375.33 114.65 368.92C116.41 359.7 120.41 351.42 125.82 343.8C126.19 343.27 126.56 342.74 126.96 342.24C132.11 335.68 131.71 337.13 127.45 330.87C125.37 327.82 123.88 324.56 123.03 320.94C120.89 311.84 122.99 303.44 127.32 295.53C131.81 287.33 138.01 280.5 145.28 274.64C145.95 274.1 146.7 273.67 147.38 273.14C149.94 271.12 150.05 270.83 148.23 267.84C142.58 258.53 140.91 248.56 144.08 238.16C146.22 231.13 150.07 224.86 154.95 219.3C165.62 207.14 178.92 199.32 194.44 195C202.33 192.81 210.21 191.16 218.48 190.86C225.09 190.62 231.62 189 238.25 188.32C242.3 187.91 246.34 187.37 250.42 187.29C254.5 187.21 258.59 187.27 262.67 187.27L262.63 187.28Z" fill="#0D1016"/>
<path d="M376.821 341.89C380.481 346.86 385.521 349.87 390.631 344.74C392.111 343.36 393.441 341.66 394.731 339.88C395.531 338.74 397.111 338.48 398.231 339.29C399.281 340.05 399.551 341.48 398.911 342.57C397.651 344.7 396.141 346.74 394.231 348.58C392.161 350.46 389.631 352.07 386.701 352.42C383.741 352.81 380.651 351.71 378.421 349.9C376.271 348.18 374.731 346.23 373.451 343.79C372.971 342.83 373.351 341.67 374.311 341.19C375.221 340.73 376.301 341.06 376.831 341.89H376.821Z" fill="#555A63"/>
<path d="M343.29 312.661C346.95 317.631 351.99 320.651 357.11 315.511C358.59 314.131 359.92 312.431 361.21 310.651C362.01 309.511 363.59 309.251 364.71 310.061C365.76 310.821 366.03 312.251 365.39 313.341C364.13 315.471 362.62 317.511 360.71 319.351C358.64 321.231 356.11 322.841 353.18 323.191C350.22 323.581 347.13 322.481 344.9 320.671C342.75 318.951 341.21 317.001 339.93 314.561C339.45 313.601 339.83 312.441 340.79 311.961C341.7 311.501 342.78 311.831 343.31 312.661H343.29Z" fill="#555A63"/>
<path d="M357.83 275.59C361.49 280.56 366.53 283.57 371.64 278.44C373.12 277.06 374.45 275.36 375.74 273.58C376.54 272.44 378.12 272.17 379.24 272.99C380.29 273.75 380.56 275.18 379.92 276.27C378.66 278.4 377.15 280.44 375.24 282.28C373.17 284.16 370.64 285.77 367.71 286.12C364.75 286.51 361.66 285.41 359.43 283.6C357.28 281.88 355.74 279.93 354.46 277.49C353.98 276.53 354.36 275.37 355.32 274.89C356.23 274.43 357.31 274.76 357.84 275.59H357.83Z" fill="#555A63"/>
<path d="M162.95 343.79C158.62 352.31 149.58 355.74 142.17 348.58C140.26 346.74 138.75 344.7 137.49 342.57C136.79 341.39 137.18 339.86 138.36 339.16C139.49 338.49 140.93 338.82 141.67 339.88C143.92 342.94 146.74 346.65 150.41 347.38C154.03 348.06 157.64 344.57 159.67 341.77C161.08 339.89 164 341.71 162.96 343.79H162.95Z" fill="#555A63"/>
<path d="M196.481 314.57C192.151 323.09 183.111 326.52 175.701 319.36C173.791 317.52 172.281 315.48 171.021 313.35C170.321 312.17 170.711 310.64 171.891 309.94C173.021 309.27 174.461 309.6 175.201 310.65C177.451 313.71 180.271 317.42 183.941 318.15C187.561 318.84 191.171 315.34 193.201 312.54C194.611 310.66 197.531 312.48 196.491 314.56L196.481 314.57Z" fill="#555A63"/>
<path d="M181.941 277.5C177.611 286.02 168.571 289.45 161.161 282.29C159.251 280.45 157.741 278.41 156.481 276.28C155.781 275.1 156.171 273.57 157.351 272.87C158.481 272.2 159.921 272.53 160.661 273.58C162.911 276.64 165.731 280.35 169.401 281.08C173.021 281.77 176.631 278.27 178.661 275.47C180.071 273.59 182.991 275.41 181.951 277.49L181.941 277.5Z" fill="#555A63"/>
<path d="M180.46 469C177.78 476.02 174.51 482.69 170.59 488.81C161.34 503.49 148.58 514.88 132.25 519.42C132.11 519.45 131.94 519.49 131.8 519.52C92.5703 530.21 36.8203 516.56 36.8203 516.56C37.2303 505.8 38.7503 495.76 41.1903 486.47C42.0803 483.07 43.0503 479.76 44.1803 476.57C44.3203 476.12 44.4903 475.64 44.6603 475.19C67.6303 410.89 134.96 383.31 171.07 367.97C171.21 368.04 171.31 368.14 171.45 368.21C191.94 381.14 195.45 429.9 180.46 469Z" fill="#DFEE95"/>
<path d="M496.201 516.55C496.201 516.55 440.421 530.2 401.191 519.51C401.051 519.48 400.911 519.44 400.781 519.41C381.491 514.05 367.181 499.09 357.691 480.48C355.801 476.8 354.081 472.95 352.571 468.99C337.581 429.89 341.091 381.13 361.581 368.2C361.721 368.13 361.821 368.03 361.961 367.96C378.841 375.15 402.571 385.02 425.411 400.08C425.821 400.36 426.231 400.63 426.681 400.91C427.161 401.25 427.681 401.56 428.191 401.94C455.871 420.75 481.771 447.43 491.841 486.46C494.281 495.74 495.791 505.79 496.211 516.55H496.201Z" fill="#DFEE95"/>
<path d="M401.22 386.67C378.52 374.47 359.36 364.12 334.27 358.78C331.21 361.19 282.14 396.98 266.53 436.94C250.88 396.88 202.75 360.94 199.93 358.74C180.15 363.23 163.12 369.82 131.77 386.66C131.77 386.66 126.96 424.21 129.54 484.18C130.02 494.94 130.74 506.46 131.74 518.64V518.71C131.77 518.99 131.77 519.23 131.81 519.5C134.77 554.3 140.3 594.26 150.04 637.35C169.68 724.35 171.84 754.03 266.2 759.25V759.28C266.61 759.25 266.41 759.25 266.82 759.28V759.25C361.18 754.02 363.41 724.17 382.98 637.35C392.71 594.26 398.25 554.3 401.21 519.5V519.33C403.2 495.74 404.03 474.56 404.2 456.37C404.61 412.84 401.24 386.67 401.24 386.67H401.22Z" fill="#DFEE95"/>
<g opacity="0.35">
<path d="M134.64 456.09C134.85 452.93 133.04 451.21 130.63 449.44C126.21 446.19 121.33 443.52 117.67 439.21C116.05 437.29 113.87 435.61 111.29 434.98C109.28 434.49 107.53 433.62 105.79 432.54C103.45 431.1 100.91 430.93 98.4105 432.28C96.6305 433.24 94.8305 434.19 93.1305 435.29C85.3905 440.29 77.6905 445.34 69.9805 450.37C68.5805 451.28 67.3005 452.33 66.4205 453.79C65.3105 455.63 65.5105 456.78 67.4405 458.33C68.0205 458.79 68.6305 459.18 68.9305 459.87C70.0905 462.49 72.3005 464.2 74.2305 466.17C77.8705 469.86 81.9705 472.99 86.0205 476.18C89.0605 478.57 92.2405 480.77 95.3505 483.07C97.2005 484.44 99.2505 485.13 101.81 484.92C104.31 485.26 106.57 484.5 108.52 482.4C109.75 481.08 111.4 480.12 112.92 479.09C119.79 474.45 126.69 469.84 133.57 465.22C134.03 464.91 134.52 464.63 134.9 464.24C136.01 463.12 136.66 461.8 135.9 460.26C135.24 458.93 134.52 457.65 134.62 456.1L134.64 456.09ZM114.2 458.39C110.07 461.12 105.89 463.78 101.71 466.44C101.42 466.63 101.01 466.62 100.45 466.76C99.9505 466.51 99.2405 466.27 98.6705 465.84C97.2205 464.72 95.8305 463.52 94.4205 462.34C92.6105 460.83 90.8105 459.31 89.0005 457.8C90.2305 455.61 92.6605 454.94 94.4905 453.51C96.3705 452.04 98.3205 450.67 100.28 449.31C101.61 448.39 103.03 448.32 104.41 449.24C107.62 451.38 110.83 453.51 113.99 455.71C115.21 456.56 115.29 457.68 114.21 458.4L114.2 458.39Z" fill="white"/>
<path d="M245.82 449.84C240.56 446.46 235.36 442.97 230.94 438.44C229.53 437 227.94 435.64 225.95 435.03C223.82 434.37 221.77 433.61 219.93 432.32C218.8 431.52 217.55 431.56 216.23 431.96C214.44 432.51 212.83 433.37 211.29 434.4C208.69 436.15 206.09 437.91 203.49 439.65C198.76 442.83 194.4 446.58 189 448.74C187.51 449.34 186.3 450.65 184.96 451.63C183.34 452.82 182.68 454.58 182.52 456.42C182.37 458.1 184.2 458.08 185.13 458.86C185.82 459.43 186.26 460.3 186.87 460.98C188.08 462.36 189.21 463.85 190.58 465.05C196 469.77 201.43 474.49 207.02 479.02C209.3 480.86 211.91 482.32 214.47 483.78C217.37 485.44 220.13 485.19 222.47 482.61C224.36 480.53 226.75 479.15 229.14 477.74C233.42 475.2 237.67 472.61 241.59 469.51C243.17 468.26 245.01 467.34 246.7 466.23C247.77 465.53 248.86 464.82 249.8 463.96C250.47 463.35 250.87 462.47 250.82 460.88C250.51 459.32 249.11 457.52 249.17 455.16C249.24 452.88 247.9 451.19 245.81 449.84H245.82ZM229.76 458.07C225.83 460.76 221.89 463.43 217.93 466.08C217.09 466.64 216.15 466.6 215.37 465.96C212.53 463.66 209.69 461.34 206.91 458.96C206.07 458.24 206.12 457.39 207.11 456.72C210.6 454.36 214.11 452.01 217.58 449.61C218.59 448.91 219.5 448.72 220.58 449.48C223.58 451.58 226.63 453.61 229.62 455.73C230 456 230.14 456.62 230.35 457.01C230.11 457.46 230.03 457.9 229.77 458.08L229.76 458.07Z" fill="white"/>
<path d="M364.95 455.68C364.76 452.6 363.04 450.68 360.57 449.1C356.07 446.22 351.95 442.85 348.12 439.1C346.3 437.31 344.28 435.6 341.76 434.79C339.82 434.17 337.93 433.51 336.27 432.28C334.77 431.16 333.13 431.31 331.56 432.1C329.75 433.01 327.94 433.93 326.27 435.05C321.69 438.13 317.23 441.41 312.62 444.44C309.56 446.46 306.28 448.15 303.15 450.08C301.42 451.15 299.87 452.4 299.27 454.54C298.69 456.62 298.69 456.82 300.82 458.43C301.39 458.86 302.09 459.27 302.43 459.86C304.43 463.28 307.57 465.64 310.38 468.26C316.04 473.52 321.83 478.66 328.5 482.67C330.08 483.62 331.58 484.72 333.47 484.82C335.49 484.98 337.14 484.27 338.45 482.84C340.09 481.06 341.99 479.61 344.08 478.43C351.16 474.44 357.53 469.41 364.12 464.72C367 462.67 366.96 462.66 365.65 458.88C365.29 457.85 365 456.76 364.93 455.68H364.95ZM346.51 457.43C346.37 457.64 346.15 458.21 345.74 458.49C341.92 461.05 338.08 463.58 334.23 466.09C333.17 466.78 332.12 466.52 331.17 465.78C328.56 463.75 325.93 461.74 323.34 459.68C321.94 458.56 321.86 457.48 323.18 456.56C326.66 454.16 330.2 451.84 333.74 449.52C334.71 448.88 335.68 448.66 336.78 449.45C339.76 451.6 342.8 453.67 345.79 455.8C346.23 456.11 346.66 456.51 346.51 457.44V457.43Z" fill="white"/>
<path d="M110.88 398.611C111.27 398.951 111.47 399.511 111.74 399.931C111.58 400.341 111.53 400.761 111.3 400.991C108.57 403.801 105.13 405.611 101.82 407.591C100.99 408.091 100.03 407.971 99.1501 407.611C98.7001 407.431 98.2601 407.191 97.8701 406.901C93.5001 410.131 89.2 413.541 85.04 417.221C88.24 419.891 91.43 422.571 94.64 425.221C95.93 426.281 97.4101 427.061 99.2101 426.741C103.75 425.931 108.24 425.051 111.91 421.871C114 420.071 116.25 418.451 118.52 416.871C121.82 414.581 124.8 411.901 128.67 410.321C131.95 408.971 133.27 405.751 133.33 402.171C133.35 400.021 132.62 398.141 131.16 396.641C129.49 394.931 127.78 393.231 125.92 391.741C125.27 391.221 124.68 390.651 124.06 390.101C119.54 392.621 114.99 395.341 110.45 398.241C110.59 398.361 110.74 398.481 110.88 398.601V398.611Z" fill="white"/>
<path d="M452.86 432.491C451.19 431.151 449.42 431.371 447.66 432.251C446.18 432.991 444.67 433.731 443.31 434.671C436.17 439.581 429.26 444.821 421.56 448.901C419.21 450.141 416.64 451.631 415.72 454.541C415.45 455.401 415.18 456.381 415.36 457.201C415.48 457.721 416.52 457.981 416.99 458.501C418.59 460.251 419.97 462.241 421.71 463.831C426.47 468.191 431.3 472.491 436.25 476.641C439.07 479.011 442.14 481.081 445.16 483.211C446.53 484.171 448.08 484.791 449.66 484.811C451.37 484.771 452.59 484.001 453.76 483.041C456.19 481.061 458.47 478.781 461.18 477.291C467.68 473.721 473.25 468.771 479.71 465.191C480.19 464.921 480.65 464.601 481.07 464.241C481.95 463.481 482.49 462.611 482.54 461.561C480.11 456.631 477.43 451.911 474.49 447.451C472.14 445.941 469.83 444.381 467.88 442.471C463.59 438.261 459.02 434.751 453.31 432.821C453.14 432.761 453 432.621 452.85 432.511L452.86 432.491ZM462.65 457.591C462.46 457.901 462.34 458.321 462.07 458.511C458.24 461.081 454.41 463.651 450.55 466.171C449.34 466.961 448.08 466.831 446.96 465.901C444.13 463.541 441.3 461.181 438.5 458.781C437.86 458.231 437.78 457.461 438.52 456.931C441.97 454.451 445.44 452.031 448.91 449.581C450.28 448.611 451.65 448.591 453 449.611C456.09 451.941 459.18 454.281 462.24 456.641C462.48 456.831 462.52 457.271 462.66 457.601L462.65 457.591Z" fill="white"/>
<path d="M170.66 464.311C168.47 463.761 166.73 462.621 165.04 461.041C162.31 458.521 160.23 458.621 157.15 460.911C154.19 463.111 151.31 465.441 148.04 467.171C142.3 470.201 137.02 473.841 132.17 478.171C130.11 480.001 128.16 481.551 129.49 484.821C127.87 488.241 130.21 490.331 132.57 492.131C139.9 497.701 146.93 503.691 155.05 508.191C158.62 510.171 161.55 510.431 165.34 508.351C174.44 503.361 182.86 497.431 191.16 491.301C193.55 489.541 193.79 488.371 192.57 485.621C191.81 483.911 190.88 482.361 189.41 481.141C188.56 480.431 187.57 479.761 187.03 478.841C183.92 473.601 178.52 470.731 174.44 466.501C173.4 465.411 172.14 464.671 170.66 464.301V464.311ZM169.82 486.711C167.03 488.491 164.21 490.221 161.35 491.891C160.53 492.371 159.48 492.291 158.71 491.741C156.16 489.941 153.65 488.081 151.21 486.151C150.54 485.621 150.72 484.751 151.42 484.271C154.62 482.101 157.84 479.971 161.08 477.851C161.74 477.421 162.54 477.401 163.15 477.891C165.74 479.961 168.19 482.181 170.27 484.781C170.38 484.921 170.4 485.121 170.53 485.441C170.34 485.811 170.22 486.461 169.83 486.711H169.82Z" fill="white"/>
<path d="M130.24 507.97C126.91 505.66 123.49 503.471 120.29 500.991C115.6 497.351 110.82 494.01 104.81 492.9C103.92 492.74 103.07 492.291 102.25 491.871C100.27 490.871 98.3403 491.1 96.3803 491.91C94.4903 492.69 92.8003 493.781 91.2003 495.051C87.8803 497.681 84.7103 500.561 81.1503 502.821C75.9603 506.121 72.6803 510.85 69.7603 516.03C68.9803 517.4 69.1803 518.51 70.1203 519.54C70.9903 520.48 71.9803 521.33 73.0003 522.111C73.1603 522.231 73.3203 522.35 73.4803 522.47C91.6303 524.22 113.51 524.53 131.81 519.54C131.83 519.75 131.85 519.971 131.87 520.191C132.88 519.101 133.39 517.821 132.42 516.371C131.52 515.041 131.4 513.691 131.99 512.181C132.73 510.281 131.74 509.021 130.26 507.991L130.24 507.97ZM111.47 516.371C108.87 518.691 106.51 521.301 103.46 523.071C103.16 523.241 102.74 523.19 102.08 523.29C101.65 523.14 100.87 523.021 100.29 522.631C97.7003 520.861 95.1503 519.03 92.6303 517.17C91.5303 516.36 91.4203 515.2 92.3803 514.35C94.6003 512.41 96.8403 510.49 99.1903 508.71C100.47 507.74 102.03 507.811 103.33 508.801C105.98 510.801 108.57 512.871 111.17 514.931C111.63 515.301 111.89 516.001 111.46 516.371H111.47Z" fill="white"/>
<path d="M171.04 369.41C171.29 369.62 171.38 370.04 171.6 370.49C171.39 370.88 171.26 371.52 170.87 371.78C167.99 373.73 165.07 375.63 162.14 377.5C161.5 377.91 160.7 377.91 160.05 377.48C158.58 376.51 157.14 375.51 155.68 374.52C154.82 374.93 153.99 375.3 153.1 375.73C148.85 377.63 144.39 379.7 139.83 381.92C145.8 385.97 152.29 389.25 157.86 393.88C159.2 394.99 160.84 395.22 162.52 394.27C163.65 393.63 164.84 393.19 166.22 393.56C168.2 394.1 169.77 393.23 171.32 392.08C174.72 389.55 178.23 387.16 181.61 384.6C185 382.02 187.97 379.02 190.39 375.47C192.02 373.09 192.24 370.32 193.03 367.72C192.74 366.1 191.76 364.99 190.57 364.1C189.61 363.37 188.61 362.69 187.64 361.98C181.91 363.68 176.07 365.73 169.76 368.3C170.19 368.69 170.61 369.07 171.05 369.42L171.04 369.41Z" fill="white"/>
<path d="M47.5001 508.11C56.0501 502.96 64.3601 497.5 72.3101 491.49C75.3601 489.18 75.5601 488.58 73.9901 485.09C73.3901 483.75 72.9001 482.37 71.8101 481.29C68.5301 478.05 65.4501 474.58 62.0001 471.54C58.9801 468.87 56.2101 465.75 52.3901 464.17C51.5001 463.8 50.6501 463.42 49.8301 462.98C47.9501 466.91 46.1801 470.95 44.6601 475.19C44.4901 475.64 44.3201 476.12 44.1801 476.57C44.0701 476.89 43.9701 477.22 43.8601 477.54C44.2601 477.59 44.6701 477.72 45.0601 478.06C47.4501 480.07 49.8401 482.07 52.1801 484.13C52.5601 484.46 52.7301 485.04 53.0501 485.59C52.7401 486.04 52.5301 486.62 52.1201 486.88C49.4901 488.56 46.8401 490.2 44.1601 491.79C42.7401 492.63 41.3401 492.33 40.0401 491.39C38.8401 496.8 37.9201 502.43 37.3701 508.32C40.8101 510.56 43.8701 510.3 47.5001 508.12V508.11Z" fill="white"/>
<path d="M304.93 481.85C301.14 479.15 298.66 475.18 295.38 471.97C290.32 467.03 284.02 464.02 278.31 460.1C276.66 458.97 274.9 459.01 273.24 460.44C269.88 463.33 266.14 465.68 262.24 467.78C257.19 470.49 252.53 473.72 248.21 477.51C245.9 479.54 243.51 481.3 244.78 484.46C244.52 489.28 244.4 489.53 247.51 491.89C255.26 497.78 262.68 504.13 271.43 508.66C274.18 510.09 276.43 510.48 279.13 508.84C284.63 505.51 290.46 502.72 295.53 498.66C298.26 496.48 301.14 494.49 304 492.48C308.87 489.06 309.06 488.24 305.93 483.15C305.64 482.68 305.36 482.15 304.93 481.85ZM285.75 486.64C282.48 488.65 279.16 490.56 275.84 492.48C275.16 492.87 274.4 492.8 273.77 492.33C271.3 490.44 268.83 488.56 266.42 486.6C265.56 485.9 265.64 484.92 266.45 484.25C269.42 481.8 272.61 479.67 275.99 477.82C276.45 477.57 277.02 477.52 277.54 477.38C278.07 477.65 278.62 477.82 279.02 478.16C281.38 480.18 283.72 482.22 286.02 484.31C286.89 485.1 286.63 486.09 285.76 486.63L285.75 486.64Z" fill="white"/>
<path d="M326.75 364.65C327.97 365.59 329.19 366.54 330.42 367.47C333.12 369.52 334.48 369.52 337.36 367.42C338.55 366.56 339.58 365.49 341.06 365.07C343.16 364.47 344.88 363.27 346.53 361.93C342.58 360.75 338.52 359.69 334.27 358.78C333.62 359.3 330.84 361.35 326.74 364.64L326.75 364.65Z" fill="white"/>
<path d="M479.05 491.401C484.32 495.531 489.571 499.671 495.081 503.471C494.321 497.561 493.261 491.861 491.841 486.461C490.591 481.611 489.091 476.951 487.371 472.471C485.041 474.101 482.761 475.801 480.531 477.581C478.011 479.581 476.291 481.661 476.961 485.231C476.251 487.621 476.871 489.691 479.061 491.411L479.05 491.401Z" fill="white"/>
<path d="M346.26 381.12C344.21 378.89 341.81 377.27 338.63 377.08C337.75 377.03 336.68 376.81 336.05 376.27C333.55 374.11 331.38 374.97 329.03 376.56C320.91 382.03 313.2 388.05 305.5 394.07C304.64 394.74 303.85 395.6 303.3 396.53C301.86 398.95 301.64 401.45 303.61 403.71C305.06 405.37 306.58 407.01 308.28 408.42C313.1 412.43 318.04 416.3 322.88 420.28C325.02 422.04 326.98 424.01 329.13 425.75C330.65 426.98 332.32 427.4 334.23 426.22C336.26 424.96 338.42 423.9 340.57 422.83C344.25 420.99 347.05 417.95 350.39 415.66C352.81 414 354.89 411.72 357.75 410.86C359.68 410.28 361.02 409.34 361.98 407.63C362.99 405.83 363.77 403.99 363.75 402.29C363.68 398.89 362.16 396.6 360.02 394.72C355.16 390.47 350.64 385.88 346.27 381.13L346.26 381.12ZM336.94 405.6C336.45 406.13 335.76 406.47 335.17 406.9C333.27 408.29 331.56 408.13 329.69 406.62C321.77 400.24 322.16 402.43 329.66 395.99C330.76 395.04 332.09 394.34 333.35 393.6C333.8 393.33 334.37 393.26 334.95 393.08C335.45 393.29 336.06 393.38 336.42 393.73C338.64 395.89 341.76 397.04 343.31 399.93C342.32 403.09 338.89 403.51 336.94 405.6Z" fill="white"/>
<path d="M187.81 404.12C188.36 404.84 189.13 405.4 189.78 406.04C196.78 412.9 205 418.28 212.29 424.77C214.68 426.9 217.04 426.98 219.86 425.45C224.25 423.06 228.46 420.45 232.35 417.3C235.5 414.75 238.7 412.28 242.48 410.68C245.22 409.52 246.88 407.62 247.47 404.96C239.12 394.29 229.8 384.76 221.63 377.14C220.85 376.89 220.09 376.55 219.46 376.08C217.51 374.66 215.69 374.91 213.81 376.09C212.09 377.17 210.33 378.19 208.69 379.37C205.25 381.84 201.86 384.38 198.48 386.94C195.25 389.39 192.01 391.84 188.87 394.41C185.48 397.18 185.14 400.64 187.8 404.12H187.81ZM210.55 398.61C212.71 396.9 214.86 395.17 217.09 393.55C218.43 392.58 219.87 392.67 221.13 393.83C222.88 395.46 224.63 397.09 226.33 398.77C226.69 399.12 226.81 399.71 227.01 400.13C226.8 400.56 226.71 400.96 226.47 401.18C223.89 403.56 221.02 405.55 218.02 407.35C216.57 408.22 215.18 408.03 213.94 406.96C212.69 405.88 211.46 404.76 210.28 403.6C207.67 401.02 207.69 400.88 210.56 398.6L210.55 398.61Z" fill="white"/>
<path d="M420.44 404.6C421.29 405.57 422.27 406.42 423.18 407.33C429.71 413.88 437.52 418.91 444.38 425.07C446.43 426.91 448.54 426.87 451 425.7C452.32 425.07 453.59 424.38 454.84 423.66C446.5 415.43 437.45 408.22 428.18 401.93C427.66 401.55 427.15 401.24 426.67 400.9C426.22 400.62 425.81 400.35 425.4 400.07C423.47 398.8 421.53 397.65 419.6 396.45C417.61 399.09 417.89 401.68 420.44 404.59V404.6Z" fill="white"/>
<path d="M363.1 375.47C363.76 376.34 364.53 377.18 365.4 377.83C368.36 380.02 371.35 382.18 374.4 384.25C379.13 387.45 384.32 389.95 388.62 393.79C389.85 394.89 391.21 395.07 392.68 394.2C393.79 393.55 394.92 392.84 396.31 393.4C398.51 393.97 400.4 393.15 401.89 391.72C403.15 390.51 404.53 389.48 405.96 388.53C398.62 384.55 391.41 381.01 384.59 377.87C377.41 374.18 370.35 370.81 363.08 367.82C362.79 368.46 362.52 369.11 362.29 369.81C361.57 372 361.77 373.76 363.09 375.47H363.1Z" fill="white"/>
<path d="M172.25 408.87C169.13 407.64 166.32 406.01 163.54 404.21C159.76 401.76 158.75 401.9 155.12 404.5C151.08 407.4 147 410.23 142.96 413.13C141.47 414.2 140.03 415.35 138.6 416.51C135.17 419.28 132.05 421.98 131.21 426.92C130.53 430.93 129.8 430.88 132.61 433.46C134.23 434.94 135.94 436.43 137.85 437.47C140.62 438.98 143.09 440.87 145.61 442.72C148.73 445.01 151.88 447.24 155.09 449.41C156.46 450.33 157.95 451.07 159.44 451.79C161.99 453.02 164.29 452.7 166.67 451.02C172.98 446.57 179.4 442.27 185.83 437.99C188.36 436.31 190.27 434.16 191.65 431.49C191.98 430.85 192.29 430.2 192.49 429.8C192.17 426.67 191.56 424.01 188.98 422.3C185.57 420.05 182.78 417.11 179.81 414.35C177.52 412.22 175.16 410.01 172.25 408.86V408.87ZM170.66 428.56C168.07 430.32 165.46 432.05 162.84 433.76C161.62 434.56 160.38 434.43 159.21 433.67C158.13 432.97 157.09 432.2 156.03 431.48C150.39 427.61 150.28 427.65 156.41 423.53C157.02 423.12 157.69 422.79 158.29 422.36C161.18 420.27 161.83 419.66 165.6 422.52C167.36 423.86 169.05 425.28 170.74 426.7C170.99 426.91 171.07 427.32 171.23 427.64C171.04 427.95 170.93 428.37 170.66 428.55V428.56Z" fill="white"/>
<path d="M221.23 540.09C222.58 539.13 223.84 538.08 225.34 537.32C232.99 533.42 239.3 527.79 245.23 521.7C246.96 519.92 248.12 517.85 246.81 515.2C246.51 514.59 246.66 513.77 246.69 514.17C246.82 509.63 246.92 509.2 244.65 507.9C236.23 503.08 229.59 495.32 219.79 492.77C219.45 492.68 219.16 492.39 218.85 492.19C216.53 490.74 214.18 491.08 212.04 492.4C209.85 493.75 207.72 495.25 205.81 496.97C203.33 499.2 200.8 501.33 198.02 503.16C193.99 505.82 190.56 508.95 188.2 513.36C185.65 518.14 185.4 518.13 189.37 521.5C189.65 521.74 189.93 521.98 190.22 522.21C198 528.11 206.08 533.63 213.59 539.89C216.11 541.99 218.58 541.97 221.21 540.09H221.23ZM209.44 514.71C211.44 512 214.42 510.46 217.04 508.51C217.17 508.42 217.39 508.46 217.57 508.43C217.92 508.53 218.31 508.55 218.6 508.73C219.53 509.32 220.5 509.87 221.31 510.6C223.28 512.37 225.95 513.47 226.93 516.23C225.06 519.04 222.41 520.97 219.62 522.72C218.94 523.15 218.15 522.99 217.55 522.55C214.87 520.64 212.2 518.71 209.6 516.7C209.01 516.24 208.97 515.35 209.45 514.7L209.44 514.71Z" fill="white"/>
<path d="M157.65 566.79C160.18 568.41 162.58 567.85 164.9 566.35C165.51 565.95 166.04 565.41 166.6 564.94C171.68 560.67 176.75 556.38 181.84 552.12C183.96 550.34 186.22 548.72 188.25 546.85C191.82 543.56 192.04 540.86 188.81 537.35C183.7 531.8 178.89 525.99 172.99 521.15C170.06 518.75 167.31 517.18 162.86 517.89C158.79 517.1 154.88 518.81 151.38 521.93C150.01 523.15 148.35 524.04 146.8 525.03C142.08 528.04 138.28 532.07 134.39 536.02C134.03 536.39 133.79 536.78 133.49 537.16C133.94 541.41 134.43 545.72 134.95 550.1C135.22 550.34 135.48 550.57 135.76 550.8C139.74 554.1 143.71 557.42 147.86 560.49C150.97 562.79 154.37 564.69 157.63 566.78L157.65 566.79ZM152.31 540.94C154.6 538.84 156.98 536.84 159.71 535.33C161.5 534.34 163.22 534.48 164.74 535.94C166.32 537.46 167.9 538.98 169.45 540.54C169.69 540.78 169.77 541.18 169.92 541.5C169.72 541.78 169.58 542.12 169.32 542.32C168.01 543.3 166.65 544.22 165.33 545.2C163.61 546.49 162.41 549.28 160.27 548.97C158.35 548.7 156.67 546.69 154.91 545.4C154.03 544.75 153.19 544.04 152.37 543.31C151.55 542.57 151.51 541.67 152.3 540.94H152.31Z" fill="white"/>
<path d="M404.23 465.871C403.4 464.981 402.1 464.361 400.9 464.011C398.73 463.381 396.94 462.441 395.27 460.801C393.15 458.721 391.69 458.801 389.43 460.621C385.68 463.641 381.62 466.141 377.45 468.531C372.64 471.281 368.11 474.421 364.04 478.211C362.08 480.031 360.11 481.741 361.59 485.201C359.51 487.901 361.37 489.831 363.58 491.481C370.36 496.551 376.81 502.131 384.16 506.381C392.07 510.961 389.8 511.401 398.51 506.651C406.12 502.491 413.13 497.401 420.17 492.351C424.46 489.271 424.84 487.591 421.77 483.331C421.13 482.451 420.28 481.711 419.51 480.931C418.73 480.141 417.68 479.521 417.18 478.591C414.16 473.021 408.37 470.301 404.25 465.871H404.23ZM394.4 491.401C393.37 492.101 392.11 492.461 390.95 492.981C390.17 492.631 389.44 492.431 388.87 492.011C386.49 490.301 384.14 488.561 381.83 486.761C380.74 485.921 380.83 485.001 382.06 484.071C384.98 481.861 387.96 479.751 391.18 477.981C392.63 477.191 393.95 476.981 395.2 478.151C397.73 480.521 400.21 482.931 402.71 485.321C400.57 488.191 397.24 489.461 394.41 491.381L394.4 491.401Z" fill="white"/>
<path d="M67.6005 437.39C69.5105 436.2 70.9405 434.61 72.3505 432.84C73.6405 431.22 74.0605 429.64 73.9405 428.09C70.4605 431.8 67.1105 435.68 63.9805 439.8C65.1905 439 66.3705 438.15 67.6105 437.38L67.6005 437.39Z" fill="white"/>
<path d="M52.1205 519.14C50.5105 517.78 48.4505 516.87 46.5005 517.45C45.4105 517.78 44.3605 517.91 43.3105 517.96C45.8605 518.47 49.0605 519.08 52.7905 519.7C52.5705 519.51 52.3405 519.33 52.1205 519.14Z" fill="white"/>
<path d="M360.64 508.011C356.27 505.571 352.47 502.32 348.46 499.39C345.17 496.99 342.07 494.4 337.87 493.71C337 493.57 336.05 493.14 335.39 492.55C333.22 490.64 330.97 490.98 328.72 492.18C327.1 493.04 325.42 493.911 324.07 495.121C319.53 499.181 314.67 502.841 309.81 506.501C308.48 507.511 307.18 508.49 306.39 510.04C305.47 511.84 304.46 513.59 303.46 515.35C302.03 517.89 302.07 518.511 304.41 520.451C306.25 521.981 308.25 523.32 310.13 524.8C316.64 529.94 323.62 534.45 329.9 539.89C332.36 542.02 334.26 541.981 336.87 539.951C338.5 538.691 340.17 537.69 342.07 536.9C343.75 536.2 345.35 535.211 346.81 534.121C349.32 532.251 351.78 530.291 354.1 528.191C356.56 525.971 358.89 523.591 361.18 521.191C362.75 519.541 364.09 517.79 362.34 515.35C361.5 514.18 362.13 512.861 362.52 511.691C362.85 509.921 362.01 508.75 360.63 507.99L360.64 508.011ZM339.27 520.04C333.92 525.04 333.65 523.23 329.69 520.15C328.38 519.13 327.02 518.19 325.73 517.14C324.28 515.95 324.17 515.09 325.42 514.02C327.52 512.23 329.69 510.521 331.86 508.821C332.27 508.501 332.86 508.401 333.38 508.201C333.92 508.401 334.49 508.51 334.93 508.8C336.32 509.71 337.7 510.62 339 511.65C344.21 515.79 344.01 515.6 339.26 520.03L339.27 520.04Z" fill="white"/>
<path d="M275.56 420.72C276.01 420.43 276.511 420.23 277.021 419.98C277.551 420.19 278.13 420.29 278.55 420.61C281.03 422.47 283.511 424.34 285.911 426.3C286.961 427.16 286.85 428.17 285.68 429.02C283.31 430.73 280.901 432.39 278.471 434C277.141 434.88 275.62 434.95 274.32 434.06C272.64 432.91 271.01 431.69 269.39 430.45C268.35 432.6 267.391 434.76 266.541 436.94C263.671 429.6 259.71 422.4 255.14 415.51C254.24 416.19 253.341 416.86 252.461 417.57C249.671 419.85 247.101 422.04 246.991 426.01C246.971 426.67 246.421 427.36 246.031 427.97C244.931 429.68 245.411 431.14 246.741 432.41C247.671 433.3 248.651 434.14 249.711 434.87C256.061 439.27 262.43 443.64 268.8 448.01C270.16 448.95 271.57 449.84 272.94 450.76C276.02 452.84 278.91 452.93 282.081 450.62C288.761 445.74 295.621 441.1 302.411 436.37C302.711 436.16 303.02 435.96 303.31 435.72C305.4 433.99 305.69 431.28 306.93 429.6C306.87 427.04 305.531 424.11 303.481 422.4C299.531 419.1 295.58 415.81 291.86 412.25C290.29 410.74 288.43 409.3 286.43 408.51C285.57 408.17 284.781 407.73 283.971 407.33C280.431 411.93 277.101 416.72 274.161 421.65C274.641 421.34 275.111 421.01 275.591 420.7L275.56 420.72Z" fill="white"/>
<path d="M250.59 550.401C253.79 553.181 257.15 555.781 260.44 558.471C264.17 561.521 268.26 564.021 272.39 566.481C275.21 568.161 277.49 567.671 280.01 565.841C288.09 559.981 294.96 552.661 303.14 546.921C305.96 544.941 306.27 540.631 304.05 538.011C298.66 531.681 292.82 525.781 286.71 520.151C284.54 518.151 282.01 517.221 279.07 518.021C277.98 518.321 276.95 518.611 276.27 518.361C273.64 517.531 271.88 518.521 270.18 519.701C266.08 522.541 261.92 525.291 257.94 528.281C254.69 530.721 251.74 533.571 249.26 536.791C245.4 541.801 245.85 546.281 250.61 550.421L250.59 550.401ZM267.83 540.381C270.22 538.081 273.06 536.371 275.84 534.591C276.49 534.171 277.22 534.011 277.91 534.411C280.79 536.101 283.11 538.431 285.22 540.981C285.32 541.101 285.28 541.341 285.31 541.521C285.1 541.811 284.95 542.161 284.68 542.371C281.92 544.491 279.15 546.601 276.38 548.701C275.38 549.461 274.38 549.441 273.38 548.611C271.55 547.091 269.66 545.641 267.86 544.091C266.44 542.871 266.43 541.721 267.83 540.371V540.381Z" fill="white"/>
<path d="M478.18 520.04C479.07 518.58 479.41 516.97 478.42 514.96C478.2 514.51 478.33 513.88 478.33 513.91C478.39 509.39 478.43 509.34 475.72 507.4C471.83 504.62 467.78 502.04 463.99 499.13C460.76 496.65 457.72 494.04 453.45 493.5C452.42 493.37 451.41 492.68 450.5 492.08C448.72 490.9 446.94 491.12 445.29 492.09C443.24 493.3 441.28 494.69 439.37 496.12C436.72 498.11 434.25 500.34 431.54 502.23C426.96 505.41 422.56 508.68 420.54 514.19C420.36 514.7 419.96 515.13 419.67 515.6C418.19 518.01 418.21 518.49 420.32 520.17C421.62 521.21 422.97 522.2 424.32 523.18C443.94 524.53 464.19 522.27 478.18 520.03V520.04ZM444.7 511.15C445.79 510.17 447.06 509.38 448.3 508.59C448.74 508.31 449.33 508.28 449.88 508.12C450.4 508.35 450.97 508.49 451.39 508.81C453.88 510.71 456.36 512.63 458.81 514.59C459.93 515.49 459.93 516.27 458.93 517.37C458.44 517.92 457.92 518.45 457.35 518.92C450.93 524.25 450.93 524.35 444.74 519.77C437.88 514.71 439.64 515.68 444.7 511.13V511.15Z" fill="white"/>
<path d="M394.71 404.21C393.75 403.32 392.66 402.63 390.94 402.57C389.57 402.76 388.2 403.65 386.84 404.63C383.54 406.99 380.28 409.4 376.88 411.61C373.61 413.74 370.66 416.19 367.84 418.88C365.66 420.96 363.64 422.98 363.42 426.25C363.31 427.84 361.58 429.15 362.25 430.94C362.92 432.74 364.51 433.83 365.92 435C367.33 436.17 368.83 437.3 370.45 438.15C372.43 439.19 374.2 440.47 375.97 441.8C379.66 444.56 383.45 447.19 387.17 449.92C388.38 450.81 389.67 451.44 391.07 451.96C392.75 452.58 394.34 452.57 395.85 451.62C399.58 449.25 403.35 446.93 406.99 444.42C410.02 442.32 412.77 439.84 416.03 438.07C418.18 436.9 419.69 435.05 420.96 432.95C423.33 429.05 423.11 425.8 419.99 422.53C419.23 421.73 418.4 420.96 417.49 420.35C414.42 418.26 411.73 415.77 409.2 413.06C407.03 410.75 404.43 408.93 401.4 407.98C398.87 407.19 396.65 406.03 394.73 404.23L394.71 404.21ZM401.34 429.1C399.16 430.79 396.96 432.44 394.71 434.03C393.39 434.96 391.87 434.94 390.53 434.16C388.95 433.24 387.53 432.06 385.99 431.06C381.6 428.22 380.31 427.58 386.42 423.61C387.03 423.21 387.68 422.84 388.35 422.55C390.02 421.85 391.08 419.48 393.01 420.03C394.67 420.5 396.08 421.96 397.53 423.07C398.83 424.08 400.07 425.19 401.27 426.31C401.65 426.67 401.85 427.22 402.18 427.76C401.9 428.23 401.72 428.81 401.33 429.11L401.34 429.1Z" fill="white"/>
<path d="M394.99 518.191C393.89 518.561 392.86 518.711 391.55 518.311C389.75 517.571 388.17 518.551 386.63 519.621C382.4 522.571 378.04 525.361 374 528.561C371.12 530.831 368.48 533.471 366.09 536.261C362.03 541.011 362.78 546.881 367.58 550.751C371.02 553.521 374.4 556.371 377.84 559.151C381.43 562.061 385.29 564.561 389.35 566.761C391.36 567.851 393.12 567.851 394.95 566.341C395.3 566.051 395.66 565.771 396.01 565.481C397.04 558.071 397.96 550.811 398.76 543.731C396.74 545.301 394.99 547.191 393 548.791C391.49 550.011 390.55 549.991 389.06 548.771C387.78 547.731 386.68 546.421 385.33 545.501C381.11 542.641 380.88 541.961 385.51 538.411C387.4 536.961 389.52 535.821 391.55 534.561C392.96 533.681 394.32 533.681 395.56 534.911C396.81 536.151 398.06 537.391 399.32 538.631C400.02 532.121 400.66 525.701 401.19 519.501C401.32 519.541 401.45 519.561 401.58 519.601C399.66 517.891 397.49 517.331 394.99 518.181V518.191Z" fill="white"/>
</g>
<mask id="mask1_472_24018" style="mask-type:luminance" maskUnits="userSpaceOnUse" x="128" y="358" width="277" height="402">
<path d="M401.22 386.67C378.52 374.47 359.36 364.12 334.27 358.78C331.21 361.19 282.14 396.98 266.53 436.94C250.88 396.88 202.75 360.94 199.93 358.74C180.15 363.23 163.12 369.82 131.77 386.66C131.77 386.66 126.96 424.21 129.54 484.18C130.02 494.94 130.74 506.46 131.74 518.64V518.71C131.77 518.99 131.77 519.23 131.81 519.5C134.77 554.3 140.3 594.26 150.04 637.35C169.68 724.35 171.84 754.03 266.2 759.25V759.28C266.61 759.25 266.41 759.25 266.82 759.28V759.25C361.18 754.02 363.41 724.17 382.98 637.35C392.71 594.26 398.25 554.3 401.21 519.5V519.33C403.2 495.74 404.03 474.56 404.2 456.37C404.61 412.84 401.24 386.67 401.24 386.67H401.22Z" fill="white"/>
</mask>
<g mask="url(#mask1_472_24018)">
<path d="M169.62 427.64C146.4 396.91 146.33 357.83 169.46 340.36C192.59 322.89 230.16 333.64 253.37 364.37C276.59 395.1 276.66 434.18 253.53 451.65C230.4 469.12 192.83 458.37 169.62 427.64Z" fill="#D8E28F"/>
<path d="M362.98 427.64C386.2 396.91 386.27 357.83 363.14 340.36C340.01 322.89 302.44 333.64 279.23 364.37C256.01 395.1 255.94 434.18 279.07 451.65C302.2 469.12 339.77 458.37 362.98 427.64Z" fill="#D8E28F"/>
</g>
<path d="M278.89 473.14C278.89 479.98 273.34 485.53 266.5 485.53C259.66 485.53 254.11 479.98 254.11 473.14C254.11 466.3 259.66 460.75 266.5 460.75C273.34 460.75 278.89 466.3 278.89 473.14Z" fill="#DFEE95"/>
<path d="M407.65 430.89C408.58 453.16 408.07 475.43 406.24 497.64C405.62 505.04 404.72 512.43 403.66 519.8C403.46 521.16 402.2 522.1 400.84 521.91C399.49 521.72 398.55 520.47 398.73 519.12C400.49 504.57 401.75 489.8 402.53 475.17C403.33 460.48 403.75 445.72 403.78 431.01C403.79 428.52 407.48 428.36 407.65 430.9V430.89Z" fill="#555A63"/>
<path d="M129.241 431C129.301 453.07 130.141 475.19 132.021 497.19C132.611 504.32 133.441 512.09 134.291 519.17C134.581 522.36 129.901 523 129.361 519.8C127.191 505.09 125.981 490.26 125.391 475.41C124.811 460.56 124.711 445.75 125.361 430.89C125.521 428.4 129.211 428.46 129.231 431H129.241Z" fill="#555A63"/>
<path d="M195.12 218.26C195.12 229.77 198.07 242.47 186.59 242.47C168.8 242.47 157.16 228.25 157.16 216.75C157.16 205.25 162.86 197.43 174.34 197.43C185.82 197.43 195.12 206.76 195.12 218.26Z" fill="#D17E79"/>
<path d="M175.591 223.8C174.811 226.38 171.851 227.12 169.641 225.62C165.111 222.64 161.721 211.38 168.541 211.38C169.021 211.38 169.501 211.48 169.911 211.69C173.031 213.31 176.501 221.04 175.581 223.79L175.591 223.8Z" fill="#75363F"/>
<path d="M337.88 218.26C337.88 229.77 334.93 242.47 346.41 242.47C364.2 242.47 375.84 228.25 375.84 216.75C375.84 205.25 370.14 197.43 358.66 197.43C347.18 197.43 337.88 206.76 337.88 218.26Z" fill="#D17E79"/>
<path d="M357.41 223.8C358.19 226.38 361.15 227.12 363.36 225.62C367.89 222.64 371.28 211.38 364.46 211.38C363.98 211.38 363.5 211.48 363.08 211.69C359.96 213.31 356.49 221.04 357.41 223.79V223.8Z" fill="#75363F"/>
<path d="M217.51 290.64C217.51 290.74 217.48 290.81 217.48 290.92" stroke="#2A38B7" stroke-width="5.16" stroke-miterlimit="10" stroke-linecap="round"/>
<path d="M334.26 371.42C334.26 408.83 303.93 439.2 266.52 439.2C229.11 439.2 198.74 408.84 198.74 371.42C198.74 362.41 200.49 353.81 203.73 345.94C203.83 345.63 203.93 345.32 204.07 345.05C209.78 328.89 213.36 317.85 215.07 308.84C216.31 302.31 216.82 297.11 217.48 290.92V290.65C217.48 263.55 239.42 241.61 266.52 241.61C293.62 241.61 315.52 263.55 315.52 290.65C316.21 296.94 316.72 302.2 318 308.84C319.75 318.02 323.4 329.3 329.31 345.94C332.51 353.81 334.26 362.41 334.26 371.42Z" fill="#D17E79"/>
<path d="M266.5 339.65C293.573 339.65 315.52 317.703 315.52 290.63C315.52 263.557 293.573 241.61 266.5 241.61C239.427 241.61 217.48 263.557 217.48 290.63C217.48 317.703 239.427 339.65 266.5 339.65Z" fill="#D17E79"/>
<path d="M266.5 439.18C303.929 439.18 334.27 408.838 334.27 371.41C334.27 333.981 303.929 303.64 266.5 303.64C229.072 303.64 198.73 333.981 198.73 371.41C198.73 408.838 229.072 439.18 266.5 439.18Z" fill="#D17E79"/>
<path d="M341.781 274.27C330.051 293.35 302.311 320.66 266.841 321.07H266.161C230.701 320.66 202.961 293.35 191.221 274.27C169.741 239.33 174.601 169.97 190.411 136.75C205.701 104.63 233.271 87.6104 266.161 86.8904C266.291 86.8604 266.391 86.8604 266.521 86.8604C266.621 86.8604 266.751 86.8604 266.841 86.8904C299.731 87.6104 327.311 104.63 342.591 136.75C358.401 169.97 363.261 239.33 341.771 274.27H341.781Z" fill="#D17E79"/>
<path d="M292.61 175.61C292.76 165.13 318.66 167.96 317.38 178.54C316.29 187.49 292.49 184.15 292.61 175.61Z" fill="#0D1016"/>
<path d="M284.741 267.77C282.781 269.58 280.461 270.8 278.021 271.54C268.781 274.35 257.221 270.21 252.121 262.3C251.961 262.06 251.791 261.82 251.691 261.54C250.361 259.25 249.491 256.69 249.321 254.05C249.151 251.41 249.691 247.5 252.281 246.23C254.861 245 258.001 245.19 260.191 247.12C261.261 248.06 262.361 249.1 263.361 250.18C267.231 254.2 271.901 256.46 277.421 257.05C279.161 257.23 281.001 257.42 282.671 257.95C287.191 259.39 288.281 264.55 284.741 267.78V267.77Z" fill="white"/>
<path d="M215.71 178.66C213.42 168.43 239.27 165.16 240.48 175.75C241.5 184.71 217.57 187 215.71 178.66Z" fill="#0D1016"/>
<path d="M273.62 188.05C276.33 197.41 277.92 206.67 279.28 216.24C280.96 226.29 277.34 234.05 266.58 235.56C264.18 235.91 261.46 236.36 258.98 235.96C255.76 235.51 255.7 230.9 258.87 230.35C259.77 230.18 261.1 230.03 261.95 229.76C266.21 228.56 271.98 228.44 272.57 223.12C273.29 219.04 271.32 207.28 271.05 203L270.24 195.99C269.99 193.63 269.68 191.27 269.36 189C269.03 186.35 272.81 185.5 273.63 188.06L273.62 188.05Z" fill="#AB5555"/>
<path d="M310.41 206.41C309.61 209.82 307.4 211.85 304.61 211.72C298.53 211.44 296.46 202.9 299.27 198.36C301.97 194 308.47 195.31 310.06 199.89C310.77 201.93 310.9 204.32 310.41 206.41Z" fill="#0D1016"/>
<path d="M233.441 206.41C232.641 209.82 230.431 211.85 227.641 211.72C221.561 211.44 219.491 202.9 222.301 198.36C225.001 194 231.501 195.31 233.091 199.89C233.801 201.93 233.931 204.32 233.441 206.41Z" fill="#0D1016"/>
<path d="M338.41 171.69C337.79 169.38 339.94 166.39 338.2 164.51C336.8 163 333.92 162.85 331.71 162.08C317.09 156.98 305.96 147.74 298.49 134.13C297.45 132.24 296.78 132.13 295.06 133.33C292.6 135.05 290.29 137.05 287.67 138.47C278.24 143.6 268.74 143.42 259.42 138.11C254.11 135.09 249.88 130.83 246.39 125.83C246.02 125.3 245.56 124.76 244.87 125.06C244.58 125.19 244.45 125.78 244.33 126.18C240.8 137.72 233.49 145.98 222.7 151.28C217.97 153.61 212.93 154.4 207.73 154.33C206.28 154.31 205.8 155.04 205.78 156.24C205.71 161.61 205.75 166.98 204.48 172.26C204.08 173.93 203.79 175.62 203.41 177.29C200.31 190.73 191.69 198.87 178.78 202.84C173.51 204.46 168.18 204.15 162.86 202.94C153.96 200.91 149.15 193.59 148.43 185.3C147.95 179.84 148.53 174.44 151.31 169.69C153.37 166.17 152.41 164.07 149.81 161.4C144.63 156.08 141.55 149.43 139.36 142.38C137.31 135.76 137.97 129.19 140.02 122.72C144.28 109.29 152.73 99.5301 165.72 93.8501C166.11 93.6801 166.53 93.5601 166.94 93.4501C169.35 92.7701 170.43 91.2001 170.32 88.6901C170.16 85.0201 170.71 81.4501 171.52 77.8501C174.53 64.6201 183.25 56.8401 195.4 52.1501C203.83 48.8901 212.29 49.9601 220.76 51.8801C225.95 53.0501 225.82 53.0201 228.2 48.4201C234.1 37.0201 243.1 30.3201 256.37 30.3901C262.8 30.4301 269.21 30.0701 275.54 32.0601C285.73 35.2601 293.96 41.1001 300.62 49.3401C302.77 51.9901 302.86 52.0601 305.93 50.6401C319.3 44.4801 334.26 43.1501 345.19 53.1901C349.85 57.4701 353.6 62.3301 356 68.2301C364.9 90.0701 359.74 90.4701 367.02 90.9401C391.36 92.5001 398.44 119.24 391.63 136.67C390.35 139.95 388.55 142.83 386.32 145.43C384.01 148.13 383.41 150.78 384.57 154.28C386.93 161.38 387.04 168.68 384.72 175.84C382.07 184 377.99 191.19 370.06 195.45C362.9 199.3 355.85 199.62 348.62 195.41C344.04 192.74 341.09 188.97 339.88 183.98C338.92 180.04 337.97 176.03 338.41 171.68V171.69Z" fill="#0D1016"/>
<path d="M212.151 73.9003C215.811 78.8703 220.851 81.8803 225.961 76.7503C227.441 75.3703 228.771 73.6703 230.061 71.8903C230.861 70.7503 232.441 70.4903 233.561 71.3003C234.611 72.0603 234.881 73.4903 234.241 74.5803C232.981 76.7103 231.471 78.7503 229.561 80.5903C227.491 82.4703 224.961 84.0803 222.031 84.4303C219.071 84.8203 215.981 83.7203 213.751 81.9103C211.601 80.1903 210.061 78.2403 208.781 75.8003C208.301 74.8403 208.681 73.6803 209.641 73.2003C210.551 72.7403 211.631 73.0703 212.161 73.9003H212.151Z" fill="#555A63"/>
<path d="M263.08 97.1899C266.74 102.16 271.78 105.17 276.89 100.04C278.37 98.6599 279.7 96.9599 280.99 95.1799C281.79 94.0399 283.37 93.7799 284.49 94.5899C285.54 95.3499 285.81 96.7799 285.17 97.8699C283.91 99.9999 282.4 102.04 280.49 103.88C278.42 105.76 275.89 107.37 272.96 107.72C270 108.11 266.91 107.01 264.68 105.2C262.53 103.48 260.99 101.53 259.71 99.0899C259.23 98.1299 259.61 96.9699 260.57 96.4899C261.48 96.0299 262.56 96.3599 263.09 97.1899H263.08Z" fill="#555A63"/>
<path d="M306.06 71.4003C309.72 76.3703 314.76 79.3903 319.87 74.2503C321.35 72.8703 322.68 71.1703 323.97 69.3903C324.77 68.2503 326.35 67.9903 327.47 68.8003C328.52 69.5603 328.79 70.9903 328.15 72.0803C326.89 74.2103 325.38 76.2503 323.47 78.0903C321.4 79.9703 318.87 81.5803 315.94 81.9303C312.98 82.3203 309.89 81.2203 307.66 79.4103C305.51 77.6903 303.97 75.7403 302.69 73.3003C302.21 72.3403 302.59 71.1803 303.55 70.7003C304.46 70.2403 305.54 70.5703 306.07 71.4003H306.06Z" fill="#555A63"/>
<path d="M327.75 113.97C331.41 118.94 336.45 121.96 341.56 116.82C343.04 115.44 344.37 113.74 345.66 111.96C346.46 110.82 348.04 110.56 349.16 111.37C350.21 112.13 350.48 113.56 349.84 114.65C348.58 116.78 347.07 118.82 345.16 120.66C343.09 122.54 340.56 124.15 337.63 124.5C334.67 124.89 331.58 123.79 329.35 121.98C327.2 120.26 325.66 118.31 324.38 115.87C323.9 114.91 324.28 113.75 325.24 113.27C326.15 112.81 327.23 113.14 327.76 113.97H327.75Z" fill="#555A63"/>
<path d="M352.151 161.04C355.811 166.01 360.851 169.02 365.961 163.89C367.441 162.51 368.771 160.81 370.061 159.03C370.861 157.89 372.441 157.62 373.561 158.44C374.611 159.2 374.881 160.63 374.241 161.72C372.981 163.85 371.471 165.89 369.561 167.73C367.491 169.61 364.961 171.22 362.031 171.57C359.071 171.96 355.981 170.86 353.751 169.05C351.601 167.33 350.061 165.38 348.781 162.94C348.301 161.98 348.681 160.82 349.641 160.34C350.551 159.88 351.631 160.21 352.161 161.04H352.151Z" fill="#555A63"/>
<path d="M191.781 112.62C195.441 117.59 200.481 120.61 205.591 115.47C207.071 114.09 208.401 112.39 209.691 110.61C210.491 109.47 212.071 109.21 213.191 110.02C214.241 110.78 214.511 112.21 213.871 113.3C212.611 115.43 211.101 117.47 209.191 119.31C207.121 121.19 204.591 122.8 201.661 123.15C198.701 123.54 195.611 122.44 193.381 120.63C191.231 118.91 189.691 116.96 188.411 114.52C187.931 113.56 188.311 112.4 189.271 111.92C190.181 111.46 191.261 111.79 191.791 112.62H191.781Z" fill="#555A63"/>
<path d="M167.51 157.6C171.17 162.57 176.21 165.58 181.33 160.45C182.81 159.07 184.14 157.37 185.43 155.59C186.23 154.45 187.81 154.19 188.93 155C189.98 155.76 190.25 157.19 189.61 158.28C188.35 160.41 186.84 162.45 184.93 164.29C182.86 166.17 180.33 167.78 177.4 168.13C174.44 168.52 171.35 167.42 169.12 165.61C166.97 163.89 165.43 161.94 164.15 159.5C163.67 158.54 164.05 157.38 165.01 156.9C165.92 156.44 167 156.77 167.53 157.6H167.51Z" fill="#555A63"/>
<path d="M343.961 238.84C346.061 232.2 353.181 228.64 359.961 230.85C366.571 233 370.141 240.18 367.921 246.88C365.811 253.25 358.171 256.96 351.701 254.77C345.731 252.74 341.991 245.06 343.961 238.84Z" fill="#FCAF5B"/>
<path d="M364.2 245.17C363.98 245.76 363.91 246 363.8 246.22C363.29 247.32 362.15 248.05 361.15 247.94C360.16 247.83 359.16 246.83 358.98 245.67C358.89 245.06 358.86 244.42 358.93 243.81C359.18 241.72 358.53 239.89 357.42 238.17C357.15 237.75 356.88 237.33 356.65 236.89C356.29 236.18 356.21 235.47 356.8 234.82C357.35 234.22 358.05 234.07 358.83 234.2C359.98 234.39 360.91 234.98 361.7 235.81C364.32 238.6 364.74 241.92 364.18 245.16L364.2 245.17Z" fill="white"/>
<path d="M188.3 238.84C186.2 232.2 179.08 228.64 172.3 230.85C165.69 233 162.13 240.18 164.34 246.88C166.45 253.25 174.09 256.96 180.56 254.77C186.54 252.74 190.27 245.06 188.3 238.84Z" fill="#FCAF5B"/>
<path d="M168.061 245.17C168.281 245.76 168.35 246 168.46 246.22C168.97 247.32 170.11 248.05 171.11 247.94C172.1 247.83 173.101 246.83 173.281 245.67C173.371 245.06 173.4 244.42 173.33 243.81C173.08 241.72 173.73 239.89 174.84 238.17C175.11 237.75 175.38 237.33 175.61 236.89C175.97 236.18 176.05 235.47 175.46 234.82C174.91 234.22 174.21 234.07 173.43 234.2C172.28 234.39 171.351 234.98 170.561 235.81C167.941 238.6 167.52 241.92 168.08 245.16L168.061 245.17Z" fill="white"/>
</g>
</svg>
