<svg width="533" height="545" viewBox="0 0 533 545" fill="none" xmlns="http://www.w3.org/2000/svg">
<mask id="mask0_472_24016" style="mask-type:luminance" maskUnits="userSpaceOnUse" x="0" y="0" width="533" height="545">
<path d="M266.5 544.98C413.684 544.98 533 422.982 533 272.49C533 121.998 413.684 0 266.5 0C119.316 0 0 121.998 0 272.49C0 422.982 119.316 544.98 266.5 544.98Z" fill="white"/>
</mask>
<g mask="url(#mask0_472_24016)">
<path d="M224.14 71.9501C258.83 71.3801 294.57 81.7801 325.72 96.9701C341.46 104.65 362.89 80.6501 373.92 94.4801C390.27 114.97 394.58 190.24 385.72 223.66C382.3 236.56 382.65 246.88 390.72 259.21C395.01 265.76 411.35 273.96 417.05 277.23C430.23 284.81 437.36 296.58 438.9 311.91C440.6 328.83 425.15 340.32 423.3 356.1C421.83 368.71 434.75 368.95 448.57 383.91C473.63 411.02 447.94 462.27 406.02 448.27C401.28 446.69 396.36 445.68 391.57 444.23C383.83 441.88 376.74 443.74 369.97 447.62C354.14 456.69 350.76 466.34 330.79 470.94C316.28 474.28 302.22 472.31 288.87 465.56C257.08 449.49 248.59 421.97 220.59 437.59C203.4 447.18 193.68 456.47 169.79 459.38C147.68 462.08 124.03 451.08 107.62 435.03C93.9301 421.65 89.0701 401.3 99.3401 384.71C104.25 376.77 108.62 371.14 115.39 365.04C118.92 361.86 119.78 357.77 118.74 353.31C116.04 341.72 111.82 339.38 103.95 329.12C82.2401 300.81 112.16 271.34 128.81 250.44C132.63 245.65 134.47 239.81 135.74 234C140.41 212.73 137.02 210.5 134.4 182.91C133.79 176.52 133.24 170.05 133.53 163.65C134.12 150.53 140.06 123.62 151.65 103.86C155.65 97.0401 160.15 90.5901 165.06 84.4401C170.37 77.7801 177.29 74.2401 185.57 73.4801C192.82 72.8201 200.05 71.8901 207.31 71.5601C212.91 71.3001 218.54 71.7901 224.17 71.9401L224.14 71.9501Z" fill="#3537F5"/>
<path d="M372.691 250.571C370.441 263.161 372.431 277.131 380.681 287.201C384.711 292.101 390.071 295.941 395.981 298.361C399.021 299.621 402.231 300.781 405.421 302.201C418.161 307.491 424.761 316.331 416.151 329.271C411.861 335.101 406.301 338.241 402.641 344.231C395.301 355.171 394.991 368.801 408.011 375.271C410.821 376.861 408.601 381.121 405.661 379.651C389.781 371.821 389.231 354.831 398.311 341.371C400.281 338.391 402.651 335.631 405.241 333.201C407.781 330.821 410.231 328.731 411.911 326.311C421.781 312.001 404.621 307.401 394.091 302.821C380.821 297.421 370.771 284.961 368.541 270.761C367.291 263.811 367.481 256.691 368.881 249.831C369.091 248.781 370.121 248.101 371.171 248.321C372.211 248.531 372.891 249.551 372.691 250.581V250.571Z" fill="#2A38B7"/>
<path d="M351.2 280.97C347.87 289.47 340.74 293.24 349.17 301.95C351.86 304.46 355.79 305.53 359.97 306.36C369.88 308.01 378.84 310.22 383.04 320.91C388.61 335.35 376.12 351.75 361.2 352.43C359.83 352.51 358.65 351.47 358.57 350.1C358.49 348.74 359.52 347.57 360.87 347.47C374.47 346.65 385.17 329.06 375.27 317.94C368.85 310.49 357.15 312.76 348.98 307.65C343.64 304.34 339.5 297.64 341.21 291.31C342.46 286.97 345.98 283.59 347.57 279.6C348.53 277.27 352.03 278.58 351.19 280.97H351.2Z" fill="#2A38B7"/>
<path d="M156.66 241.391C152.36 253.531 146.05 264.891 138.22 275.101C131.14 284.321 114.34 296.501 126.01 308.321C131.37 312.911 139.6 310.471 146.01 313.981C152.01 317.031 153.48 324.561 153 330.691C151.17 348.541 137.94 365.741 126.71 378.991C124.53 381.381 120.87 378.331 122.93 375.751C127.55 370.321 131.85 364.611 135.8 358.721C139.71 352.821 143.23 346.641 145.58 340.151C147.83 333.931 150.26 322.551 143.58 318.461C138.86 316.141 133.73 316.951 128.22 315.081C120.13 312.561 115.21 302.511 118.05 294.511C120.59 287.021 126.27 281.851 131.26 276.311C136.1 271.101 140.04 265.241 143.75 259.211C147.41 253.121 150.53 246.711 153.01 240.061C153.92 237.751 157.45 238.921 156.65 241.381L156.66 241.391Z" fill="#2A38B7"/>
<path d="M172.61 252.76C173.91 258.3 172.23 264.16 169.67 268.99C165.91 276.72 159.32 283.39 160.76 292.14C161.35 295.37 163.12 297.95 166 299.81C170.24 302.62 175.44 304.08 179.6 307.64C183.85 311.48 186.28 317.03 187.51 322.58C189.3 331.01 185.81 339.68 180.55 346.13C177.19 350.37 173.33 353.99 169.5 357.47C168.48 358.39 166.91 358.32 165.99 357.3C165.07 356.29 165.14 354.73 166.14 353.81C169.87 350.33 173.49 346.82 176.48 342.95C179.45 339.1 181.81 334.85 182.48 330.35C183.46 323.93 180.96 316.25 176.21 311.59C172.47 308.42 167.4 307.02 163.12 304.06C159.45 301.72 156.52 297.56 155.85 293.06C153.93 283.2 161.53 274.62 165.77 266.92C168.07 262.76 169.71 258.25 168.83 253.54C168.4 251.08 172.03 250.27 172.63 252.76H172.61Z" fill="#2A38B7"/>
<path d="M180.46 468.99C177.78 476.01 174.51 482.68 170.59 488.8C161.34 503.48 148.58 514.87 132.25 519.41C132.11 519.44 131.94 519.48 131.8 519.51C92.5603 530.2 36.8203 516.55 36.8203 516.55C37.2303 505.79 38.7503 495.75 41.1903 486.46C42.0803 483.06 43.0503 479.75 44.1803 476.56C44.3203 476.11 44.4903 475.63 44.6603 475.18C67.6303 410.88 134.96 383.3 171.07 367.96C171.21 368.03 171.31 368.13 171.45 368.2C191.94 381.13 195.45 429.89 180.46 468.99Z" fill="#0D1016"/>
<path d="M496.21 516.54C496.21 516.54 440.43 530.19 401.2 519.5C401.06 519.47 400.92 519.43 400.79 519.4C381.5 514.04 367.19 499.08 357.7 480.47C355.81 476.79 354.09 472.94 352.58 468.98C337.59 429.88 341.09 381.12 361.59 368.19C361.73 368.12 361.83 368.02 361.97 367.95C378.85 375.14 402.59 385.02 425.42 400.08C425.42 400.08 425.42 400.08 425.42 400.07C425.83 400.35 426.25 400.62 426.69 400.9C427.17 401.24 427.69 401.55 428.2 401.93C455.88 420.74 481.78 447.43 491.85 486.45C494.29 495.74 495.8 505.78 496.22 516.54H496.21Z" fill="#0D1016"/>
<path d="M404.19 456.37C404.02 474.6 403.19 495.85 401.2 519.51C398.24 554.31 392.71 594.27 382.97 637.36C363.4 724.19 361.17 754.04 266.81 759.26V759.29C266.4 759.26 266.61 759.26 266.19 759.29V759.26C171.83 754.03 169.66 724.36 150.03 637.36C140.3 594.27 134.76 554.31 131.81 519.51C130.78 507.03 130.02 495.23 129.54 484.19C126.96 424.22 131.78 386.67 131.78 386.67C146.12 378.97 159.08 372.92 171.46 368.2C180.61 364.69 189.48 361.94 198.35 359.81C219.29 354.76 240.44 352.97 266.2 352.66H266.82C303.58 353.07 330.89 356.55 361.59 368.2C373.97 372.91 386.9 378.96 401.24 386.67C401.24 386.67 404.61 412.84 404.2 456.37H404.19Z" fill="#0D1016"/>
<g opacity="0.3">
<path opacity="0.3" d="M489.78 479.311C485.37 477.841 481.35 479.431 477.59 481.791C475.17 483.311 473.96 485.521 474.22 488.351C474.38 490.061 474.68 491.791 475.21 493.421C476.44 497.211 478.4 498.251 482.15 496.561C485.71 494.951 489.15 494.601 492.88 495.571C493.22 495.661 493.56 495.721 493.9 495.781C493.31 492.601 492.65 489.471 491.86 486.451C491.23 484.021 490.54 481.641 489.8 479.301L489.78 479.311Z" fill="white"/>
<path opacity="0.3" d="M233.08 496.13C234.92 497.53 237.07 498 239.19 496.99C241.73 495.78 244.06 494.151 245.7 491.791C247.26 489.551 247.2 487.1 244.98 485.48C242.22 483.47 240.91 481.051 241.29 477.771C241.95 471.981 239.53 467.581 234.95 464.451C231.89 462.361 230.75 459.82 231 456.25C231.29 452.11 229.34 448.73 226.69 445.75C225.05 443.91 222.96 442.84 220.39 442.73C217.76 442.94 215.47 444.171 213.34 445.661C210.43 447.711 209.79 450.141 212.14 452.791C215.39 456.451 216.6 460.47 216.46 465.25C216.37 468.17 217.72 470.841 220.27 472.411C225.17 475.411 227.39 479.41 226.94 485.32C226.58 489.98 229.51 493.421 233.09 496.151L233.08 496.13Z" fill="white"/>
<path opacity="0.3" d="M129.771 389.921C131.071 389.151 132.38 388.371 133.59 387.481C136.03 385.661 138.6 385.151 141.51 386.231C146.22 387.961 150.48 386.541 154.41 383.971C157.18 382.151 158.331 379.421 157.711 376.111C157.571 375.381 157.371 374.651 157.141 373.931C146.381 378.641 134.181 384.321 121.771 391.381C124.581 392.151 127.22 391.421 129.76 389.921H129.771Z" fill="white"/>
<path opacity="0.3" d="M88.2705 490.821C88.6605 491.001 89.1005 491.051 89.5105 491.191C94.3305 492.871 98.4105 490.971 102.28 488.411C104.2 487.141 105.091 485.171 104.951 482.981C104.921 480.551 103.611 477.111 101.981 475.071C99.8805 472.431 97.5505 471.911 94.7605 474.171C92.0605 476.361 89.3605 476.591 86.3005 475.601C85.6805 475.401 85.0605 475.211 84.4605 474.961C81.4105 473.691 78.5505 474.141 75.8005 475.831C74.7005 476.511 73.5005 477.071 72.5005 477.871C69.7205 480.081 66.8005 480.581 63.4005 479.401C58.9305 477.841 54.9105 479.401 51.0905 481.721C48.1605 483.501 47.0605 486.161 47.5705 489.451C47.8005 490.931 48.2405 492.411 48.8305 493.781C50.3305 497.241 52.0105 498.081 55.4505 496.541C58.7605 495.061 62.0405 494.431 65.5105 495.411C70.5205 496.821 74.8605 495.871 78.6805 492.281C81.4905 489.641 84.7305 489.151 88.2505 490.821H88.2705Z" fill="white"/>
<path opacity="0.3" d="M345.77 388.181C348.63 385.451 351.71 385.071 355.34 386.381C358.54 387.541 361.72 386.971 364.8 385.581C371.04 382.771 372.64 378.791 369.97 372.481C369.75 371.951 369.51 371.491 369.26 371.071C367.55 370.341 365.95 369.651 364.34 368.971C363.86 369.091 363.35 369.261 362.79 369.501C359.18 371.061 355.74 371.151 352.06 370.091C348.29 369.001 344.77 369.671 341.66 372.141C340.98 372.681 340.19 373.091 339.57 373.681C337.12 376.041 334.29 376.491 331.16 375.461C329.28 374.841 327.36 374.621 324.22 374.701C324.32 374.701 323.22 374.671 322.16 374.841C314.21 376.151 311.38 382.071 315.33 389.071C317.88 393.591 320.15 394.191 324.6 391.101C326.78 389.591 328.86 389.171 331.29 390.061C332.31 390.431 333.37 390.671 334.37 391.081C336.99 392.171 339.48 391.721 341.88 390.501C343.23 389.821 344.69 389.181 345.75 388.161L345.77 388.181Z" fill="white"/>
<path opacity="0.3" d="M116.35 443.061C119.38 442.151 122.3 442.581 124.75 445.051C127.17 447.511 130.28 448.361 133.51 448.111C141.62 448.751 144.28 443.861 144 437.331C143.89 434.701 142.8 433.341 140.26 432.731C139.01 432.431 137.69 432.311 136.4 432.301C133.67 432.281 131.26 431.401 129.26 429.611C125.49 426.241 121.23 425.431 116.58 427.161C112.85 428.551 109.94 427.741 107.17 424.971C104.5 422.301 101.14 420.751 97.2904 420.581C90.9104 420.311 87.5604 423.571 87.6604 429.891C87.6804 430.971 87.7104 432.071 87.9204 433.121C88.6304 436.631 90.4104 438.051 93.9004 437.051C97.2904 436.081 99.7404 436.911 102.11 439.261C106.1 443.211 110.74 444.771 116.36 443.071L116.35 443.061Z" fill="white"/>
<path opacity="0.3" d="M328.34 443.31C332.39 442.11 335.95 442.55 338.97 445.93C341.02 448.22 343.99 448.21 346.74 448.14C354.88 448.84 357.61 443.82 357.33 437.52C357.2 434.61 356.04 433.24 353.15 432.59C352.52 432.45 351.86 432.32 351.22 432.35C347.56 432.55 344.46 431.3 341.63 429.04C338.15 426.27 334.22 425.45 330.04 427.11C326.06 428.69 322.97 427.64 320.11 424.66C317.77 422.22 314.58 421.27 311.33 420.79C304.83 419.82 300.89 423.3 300.98 429.82C301 430.9 301.02 432 301.23 433.05C301.93 436.59 303.67 437.99 307.17 437.02C310.54 436.09 313.09 436.76 315.36 439.24C315.8 439.72 316.29 440.15 316.81 440.54C320.24 443.14 323.95 444.61 328.33 443.31H328.34Z" fill="white"/>
<path opacity="0.3" d="M291.82 492.361C294.7 489.911 297.82 489.001 301.42 490.731C302 491.011 302.66 491.101 303.29 491.291C308.16 492.761 312.21 490.791 315.98 488.061C317.64 486.861 318.39 485.031 318.31 483.451C318.29 479.951 316.93 477.501 315.16 475.261C312.82 472.291 310.21 471.901 307.98 474.161C305.51 476.671 302.61 476.591 299.54 475.601C298.92 475.401 298.3 475.211 297.7 474.961C294.63 473.661 291.77 474.251 289.03 475.901C287.92 476.571 286.75 477.171 285.73 477.951C283.14 479.941 280.41 480.691 277.22 479.531C272.76 477.901 268.73 479.231 264.83 481.481C261.6 483.341 260.42 486.101 260.94 489.681C261.22 491.631 261.87 493.471 262.9 495.151C264.14 497.161 265.71 498.001 267.84 496.881C272.19 494.601 276.49 494.741 281.09 495.801C284.13 496.501 287.12 495.801 289.73 493.901C290.43 493.391 291.17 492.931 291.83 492.371L291.82 492.361Z" fill="white"/>
<path opacity="0.3" d="M235.02 357.041C238.62 358.381 240.59 360.801 241.2 364.621C241.91 369.071 244.88 371.821 248.8 373.681C251 374.721 253.24 375.701 255.56 374.161C258.28 372.371 260.82 370.361 262.03 367.151C262.11 366.951 262.1 366.721 262.13 366.541C261.98 364.871 261.04 363.621 259.77 362.791C256.28 360.521 254.47 357.211 253.47 353.311C253.44 353.181 253.37 353.081 253.34 352.961C245.46 353.241 237.94 353.701 230.72 354.421C231.94 355.481 233.31 356.401 235.02 357.031V357.041Z" fill="white"/>
<path opacity="0.3" d="M442.61 492.421C447.24 498.771 452.42 499.081 457.66 493.281C460.65 489.981 460.62 487.681 457.19 484.601C454.74 482.401 453.4 479.931 453.98 476.911C454.94 473.071 453.37 470.201 451.4 467.571C450.39 466.221 448.96 465.111 447.56 464.121C445.22 462.471 444.09 460.341 444.28 457.481C444.33 456.831 444.28 456.181 444.26 455.531C444.12 450.551 441.42 447.021 437.68 444.141C436.07 442.901 434.21 442.341 432.17 442.941C429.65 443.691 427.34 444.891 425.36 446.621C423.88 447.921 423.6 449.531 424.51 451.311C424.9 452.081 425.36 452.841 425.93 453.471C428.56 456.351 429.66 459.761 429.62 463.591C429.57 467.831 431.25 471.101 434.87 473.421C438.66 475.851 440.44 479.291 440.05 483.881C439.78 487.011 440.75 489.851 442.62 492.411L442.61 492.421Z" fill="white"/>
<path opacity="0.3" d="M190.31 540.23C193.08 540.6 194.79 540.23 196.13 539.01C198.59 536.77 200.19 533.96 200.82 530.68C201.16 528.88 200.47 527.27 198.37 526.65C193.9 525.33 192.31 522.26 191.88 517.99C191.56 514.79 189.82 512.36 186.99 510.75C185.86 510.11 184.84 509.25 183.66 508.76C180.22 507.34 178.12 505.17 177.41 501.23C176.59 496.67 173.11 493.86 169.18 491.75C167.4 490.8 165.46 490.49 163.56 491.44C161.22 492.62 159.1 494.09 157.68 496.38C156.24 498.7 156.07 500.57 158.17 502.17C162.18 505.25 164.2 509.38 165.7 513.98C166.62 516.8 168.67 518.72 171.29 520C172.45 520.57 173.66 521.05 174.87 521.53C177.48 522.57 179.15 524.46 179.73 527.19C180.23 529.53 180.84 531.82 182.05 533.9C184.14 537.49 187.31 539.52 190.34 540.23H190.31Z" fill="white"/>
<path opacity="0.3" d="M405.68 520.59C405.48 519.86 405.33 519.09 405.24 518.26C404.85 514.47 402.68 511.93 399.43 510.18C398.67 509.77 397.95 509.24 397.14 508.96C393.56 507.71 391.4 505.41 390.79 501.52C390.18 497.62 387.47 495.03 384.38 492.88C380.5 490.17 378.13 490.25 374.33 493.07C373.47 493.71 372.62 494.42 371.93 495.23C369.36 498.22 369.38 500.32 372.39 503.02C374.86 505.24 377.03 507.55 377.87 510.86C379.2 516.09 382.31 519.68 387.57 521.26C390.58 522.16 392.04 524.37 392.88 527.28C393.54 529.55 394.32 531.84 395.43 533.92C396.43 535.81 397.8 537.23 399.37 538.29C400.05 531.9 400.68 525.59 401.2 519.5C402.67 519.9 404.17 520.26 405.68 520.59Z" fill="white"/>
<path opacity="0.3" d="M255.55 587.481C257.99 586.001 259.97 584.021 261.54 581.661C262.32 580.491 262.3 579.181 261.46 578.011C260.96 577.311 260.42 576.561 259.72 576.111C256.23 573.861 254.4 570.571 253.42 566.661C252.52 563.071 250.24 560.601 246.89 559.071C245.91 558.621 244.95 558.121 243.96 557.691C240.97 556.381 239.14 554.311 238.74 550.891C238.16 546.011 235.12 542.691 231.11 540.181C229.63 539.261 228.02 538.621 226.03 538.731C224.6 538.711 223.19 539.301 222.19 540.501C220.95 541.981 219.74 543.541 218.81 545.231C216.72 549.021 217.22 551.061 221.3 552.981C224.19 554.341 225.69 556.271 226.19 559.261C227.07 564.591 229.86 568.431 235.01 570.351C238.58 571.681 240.54 574.091 241.18 577.921C242.11 583.531 246.45 586.041 251.2 587.961C252.69 588.561 254.2 588.311 255.56 587.481H255.55Z" fill="white"/>
<path opacity="0.3" d="M344.14 451.74C335.34 451.74 327.04 459.58 327.37 468.14C327.68 476.17 332.94 484.4 343.94 484.55C353.74 484.69 360.93 476.07 359.98 468.7C361.16 460.02 352.48 451.74 344.14 451.74ZM348.91 470.97C348.03 473.45 345.9 473.73 343.74 473.8C342.41 473.66 341.09 473.62 340.14 472.58C339.9 472.31 339.83 471.86 339.77 471.48C339.76 471.39 340.14 471.11 340.27 471.15C343.09 472.03 345.25 470.76 347.31 469.06C347.78 468.67 348.54 468.29 348.9 469.14C349.12 469.66 349.11 470.42 348.91 470.97Z" fill="white"/>
<path opacity="0.3" d="M476.21 458.05C477.15 461.48 480.14 463 482.87 462.201C478.92 454.091 474.26 446.631 469.04 439.771C468.89 443.051 469.75 446.42 471.81 449.55C473.59 452.26 475.31 454.79 476.21 458.05Z" fill="white"/>
<path opacity="0.3" d="M130.3 484.571C139.46 484.771 146.51 478.031 146.62 468.941C147.81 459.531 138.85 451.851 130.98 451.741C122.35 451.621 114.6 459.711 114.56 467.611C114.52 477.921 121.81 484.391 130.3 484.571ZM127.25 471.181C129.85 471.911 131.86 470.881 133.7 469.191C134.01 468.901 134.36 468.611 134.75 468.451C135.09 468.311 135.65 468.171 135.85 468.341C136.09 468.551 136.22 469.131 136.12 469.471C135.2 472.731 133.86 473.761 130.66 473.791C129.36 473.741 128.06 473.651 127.01 472.781C126.71 472.531 126.47 472.101 126.41 471.721C126.39 471.571 127.02 471.111 127.25 471.181Z" fill="white"/>
<path opacity="0.3" d="M64.3396 440.89C64.2296 443.89 62.1596 446.06 59.3696 446.21C56.3796 450.65 53.6296 455.32 51.1396 460.23C53.0796 462.84 56.9496 463.08 59.1996 460.12C61.0496 457.68 63.3696 456.64 65.8996 455.37C71.7596 452.43 75.1397 447.69 75.1096 440.9C75.1096 436.7 73.9096 433.07 71.7796 430.36C69.1696 433.27 66.6497 436.29 64.2397 439.44C64.3197 439.9 64.3696 440.37 64.3496 440.88L64.3396 440.89Z" fill="white"/>
<path opacity="0.3" d="M272.5 460.14C274.36 457.76 276.68 456.7 279.15 455.36C284.76 452.31 288.57 447.81 288.43 439.78C288.51 431.8 282.34 424.8 273.68 424.34C266.81 423.97 261.36 426.65 258.02 432.7C254.54 439 255.36 445.28 259.6 450.93C261.31 453.2 262.7 455.32 263.45 458.18C264.59 462.59 269.74 463.69 272.51 460.15L272.5 460.14ZM271.69 435.02C275.11 434.85 277.54 437.04 277.66 440.39C277.78 443.79 275.54 446.22 272.2 446.29C269.04 446.36 266.43 443.75 266.47 440.57C266.51 437.62 268.82 435.16 271.69 435.02Z" fill="white"/>
<path opacity="0.3" d="M333.231 368.551C338.211 368.491 342.541 366.231 345.471 362.741C336.031 359.931 326.691 357.831 317.061 356.311C318.761 363.511 325.201 368.651 333.231 368.551Z" fill="white"/>
<path opacity="0.3" d="M164.73 559.401C173.2 558.781 180.62 552.82 180.5 542.24C180.76 533.15 172.87 525.94 164.41 526.24C154.28 526.59 147.8 533.33 147.75 543.24C147.7 551.82 156.27 560.021 164.74 559.401H164.73ZM164.35 536.781C167.47 536.941 169.71 539.441 169.71 542.771C169.71 546.171 168.03 547.91 164.67 548.01C161.04 548.11 158.59 546.17 158.43 543.07C158.27 539.97 161.42 536.631 164.35 536.781Z" fill="white"/>
<path opacity="0.3" d="M175.05 442.631C184.14 442.611 192.09 435.141 191.79 426.311C191.51 418.241 186.05 410.001 175.24 409.861C166.05 409.741 158.9 417.091 159.01 426.401C158.7 434.951 166.75 442.641 175.05 442.621V442.631ZM175.68 420.621C178.79 420.711 181.07 422.951 181.09 425.911C181.11 429.411 178.34 432.031 174.83 431.841C171.84 431.681 169.8 429.361 169.86 426.171C169.92 422.781 172.29 420.511 175.68 420.611V420.621Z" fill="white"/>
<path opacity="0.3" d="M90.1297 499.591C81.9297 498.601 73.4097 506.861 73.4297 515.711C73.4297 518.121 73.9997 520.451 74.9697 522.571C84.1697 523.411 94.2597 523.861 104.32 523.431C105.49 521.071 106.15 518.411 106.2 515.541C106.33 508.261 99.8997 499.181 90.1297 499.591ZM89.4797 521.521C86.4197 521.281 84.0797 518.491 84.2597 515.281C84.4197 512.351 86.7597 510.321 89.9197 510.371C93.2697 510.421 95.5298 512.771 95.4598 516.131C95.3898 519.251 92.6097 521.761 89.4797 521.521Z" fill="white"/>
<path opacity="0.3" d="M217.38 387.3C217.54 379.08 210.33 371.05 201.08 371.13C190.62 371.23 184.73 378.89 184.27 387.48C183.8 396.32 191.96 403.89 200.97 403.86C211.41 403.32 217.2 396.71 217.38 387.3ZM201.13 393.09C197.72 393.21 195.25 391.08 195 387.8C194.76 384.74 197.3 382 200.53 381.83C203.6 381.67 207.06 384.97 206.87 387.9C206.71 390.42 203.87 393.001 201.14 393.101L201.13 393.09Z" fill="white"/>
<path opacity="0.3" d="M319.51 515.331C319.69 507.601 311.8 498.861 303.07 499.591C295.66 498.721 286.51 506.531 286.81 516.231C287.08 524.971 294.5 532.301 303.27 532.171C312.49 532.041 319.3 524.681 319.52 515.331H319.51ZM302.72 521.531C299.67 521.261 297.37 518.431 297.58 515.201C297.77 512.271 300.15 510.271 303.32 510.351C306.69 510.441 308.9 512.821 308.79 516.211C308.68 519.321 305.85 521.801 302.72 521.531Z" fill="white"/>
<path opacity="0.3" d="M414.01 403.83C418.31 403.88 422.09 402.35 424.95 399.8C421.33 397.42 417.69 395.21 414.06 393.08C411.76 393.04 409.93 391.94 408.99 390.16C405.29 388.1 401.63 386.17 398.01 384.33C397.81 385.23 397.65 386.16 397.59 387.11C397.06 395.91 404.97 403.72 414 403.82L414.01 403.83Z" fill="white"/>
<path opacity="0.3" d="M388.07 442.581C396.42 442.651 404.56 436.681 405.09 426.461C405.55 417.631 397.63 409.951 388.6 409.891C379.8 409.831 372.59 416.991 372.46 425.921C372.33 434.631 379.56 442.511 388.07 442.581ZM389.02 420.601C392.39 420.691 394.77 423.301 394.43 426.551C394.1 429.761 391.43 432.041 388.18 431.881C385.19 431.731 383.13 429.391 383.18 426.191C383.23 422.811 385.63 420.511 389.02 420.601Z" fill="white"/>
<path opacity="0.3" d="M378.06 559.161C386.83 558.971 393.89 551.541 393.8 542.591C393.49 532.721 386.84 526.511 377.17 526.271C369 526.071 360.99 534.681 361.03 542.871C361.08 551.471 369.31 559.351 378.06 559.161ZM377.32 536.741C380.39 536.621 382.96 539.211 383.05 542.511C383.14 545.981 380.82 548.681 377.76 548.631C374.72 548.581 371.82 545.821 371.76 542.921C371.7 540.021 374.55 536.841 377.31 536.741H377.32Z" fill="white"/>
<path opacity="0.3" d="M292.37 385.42C293.42 376.49 284.81 368.52 276.49 368.49C267.4 368.46 260.06 377.3 260.36 384.66C260.76 394.34 266.94 401.25 276.37 401.28C285.56 401.31 292.3 394.62 292.37 385.42ZM270.54 385.07C270.7 382.07 273.56 379.24 276.43 379.25C279.62 379.25 281.68 381.66 281.65 385.33C281.62 388.78 279.92 390.48 276.47 390.52C273.09 390.56 270.39 388.07 270.55 385.08L270.54 385.07Z" fill="white"/>
<path opacity="0.3" d="M433.59 411.541C437.51 411.061 440.84 412.17 443.79 414.67C444.82 415.54 445.91 416.09 447.04 416.43C441.32 411.45 435.37 406.9 429.31 402.73C427.64 404 427.28 405.65 428.15 407.92C429.11 410.45 430.88 411.89 433.59 411.55V411.541Z" fill="white"/>
<path opacity="0.3" d="M261 418.131C264.42 418.001 266.7 416.431 267.87 413.191C269.01 410.031 267.97 407.741 264.65 407.701C260.52 407.651 257.09 406.321 253.8 404.021C251.34 402.291 248.61 401.951 245.78 403.231C244.99 403.581 244.2 403.961 243.37 404.201C239.92 405.171 236.64 405.491 233.61 402.801C231.27 400.721 228.23 400.121 225.22 399.801C222.31 399.951 219.58 400.651 217.09 402.041C214.49 403.481 213.85 406.031 215.2 408.721C216.31 410.941 218.14 411.861 220.52 411.591C224.4 411.161 227.83 412.021 230.73 414.711C232.99 416.801 235.77 417.151 238.64 416.771C240.56 416.511 242.52 416.151 244.3 415.441C247.35 414.231 250.12 414.221 252.94 416.061C255.35 417.631 258.08 418.261 260.99 418.151L261 418.131Z" fill="white"/>
<path opacity="0.3" d="M287.04 359.111C287.69 359.161 288.33 359.331 288.97 359.311C291.83 359.211 293.87 360.511 295.54 362.771C297.69 365.681 300.76 367.261 304.24 368.021C307.22 368.671 310.87 366.081 311.46 362.991C311.63 362.081 311.36 361.241 310.74 360.611C310.14 360.011 309.46 359.371 308.69 359.071C306.21 358.101 304.29 356.551 302.77 354.481C293.91 353.581 284.66 353.061 274.75 352.811C277.64 357.111 281.94 358.681 287.04 359.121V359.111Z" fill="white"/>
<path opacity="0.3" d="M192.65 361.271C188.94 362.271 185.22 363.411 181.47 364.651C183.52 365.071 185.69 364.89 187.82 364.73C190.13 364.55 191.75 363.251 192.66 361.281L192.65 361.271Z" fill="white"/>
<path opacity="0.3" d="M146.95 532.961C149.49 530.841 149.74 527.061 147.06 525.141C144.1 523.011 141.75 520.621 141.26 516.941C140.62 512.091 137.55 509.311 133.49 507.281C132.53 506.801 131.54 506.341 130.52 506.001C127.88 505.121 126.03 503.561 125.28 500.741C124.96 499.501 124.28 498.351 123.71 497.191C122.4 494.541 120.14 492.861 117.6 491.571C115.45 490.471 111.88 491.611 110.03 493.811C108.84 495.221 109.12 497.221 111.49 499.471C113.81 501.661 115.17 504.221 115.9 507.221C116.86 511.141 119.46 513.551 123.1 514.981C123.91 515.301 124.72 515.591 125.54 515.861C127.83 516.611 129.42 517.791 130.17 519.931C130.71 519.791 131.25 519.671 131.78 519.531C131.99 521.961 132.23 524.461 132.47 526.941C133.91 529.141 136.02 530.911 138.36 532.431C140.01 533.501 141.88 534.091 144.02 533.941C145.01 533.941 146.05 533.731 146.93 532.991L146.95 532.961Z" fill="white"/>
<path opacity="0.3" d="M361.78 530.731C362.79 528.351 362.62 526.561 360.29 525.061C356.71 522.751 354.93 519.611 354.24 515.531C353.7 512.351 351.76 510.051 348.9 508.551C347.18 507.651 345.49 506.641 343.69 505.961C341.05 504.971 339.36 503.311 338.54 500.581C337.58 497.381 335.64 494.831 332.89 492.851C329.7 490.571 327.87 490.461 324.64 492.671C322.15 494.371 321.76 496.441 323.91 498.591C326.26 500.931 328.41 503.271 329.08 506.641C329.98 511.151 332.91 513.941 337.12 515.181C341.25 516.401 343.56 518.391 344.3 523.071C345.21 528.781 351.61 533.721 356.71 533.921C359.34 534.021 360.74 533.141 361.77 530.721L361.78 530.731Z" fill="white"/>
<path opacity="0.3" d="M483.53 518.45C480.85 514.64 477.19 513.46 472.79 513.79C471.71 513.87 470.61 513.73 469.54 513.86C466.32 514.25 463.58 513.51 461.35 510.98C459.41 508.78 456.72 507.85 453.96 507.15C450.56 506.28 448.7 506.97 446.65 509.73C444.62 512.45 445.06 515.94 448.94 516.71C451.88 517.29 454.06 518.77 455.92 521.06C456.41 521.67 456.95 522.16 457.51 522.62C467.9 521.7 477.18 520.28 484.05 519.04C483.89 518.84 483.7 518.67 483.54 518.46L483.53 518.45Z" fill="white"/>
<path opacity="0.3" d="M56.7601 518.11C54.6601 514.83 51.6401 513.65 47.9001 513.82C46.6101 513.88 45.2901 513.72 44.0101 513.86C41.4601 514.13 39.1501 513.8 37.0801 512.66C37.0001 513.96 36.8801 515.23 36.8301 516.54C36.8301 516.54 45.8401 518.74 59.1501 520.69C58.2701 519.98 57.4401 519.17 56.7701 518.11H56.7601Z" fill="white"/>
<path opacity="0.3" d="M263.71 528.161C266.61 531.941 270.9 533.511 275.25 533.751C276.29 533.701 276.94 533.701 277.59 533.631C281.08 533.201 282.96 531.411 283.12 528.401C283.28 525.241 281.99 523.611 278.08 523.061C274.86 522.611 272.2 521.311 270.43 518.741C267.64 514.671 263.82 513.471 259.2 513.831C258.34 513.901 257.46 513.781 256.61 513.891C253.18 514.321 250.26 513.561 247.87 510.841C245.62 508.281 242.38 507.461 239.19 506.841C236.27 506.271 232.92 509.031 232.22 512.301C231.77 514.391 232.97 515.881 236.52 516.881C239.13 517.611 241.36 518.821 243.01 520.891C245.71 524.281 249.23 525.321 253.37 524.891C254.23 524.801 255.11 524.921 255.96 524.811C259.24 524.381 261.61 525.411 263.72 528.171L263.71 528.161Z" fill="white"/>
<path opacity="0.3" d="M176.3 463.131C179.93 462.541 181.65 459.601 180.84 455.901C180.43 454.021 179.81 452.141 178.97 450.411C177.38 447.161 175.13 446.081 171.53 447.091C167.56 448.201 163.6 448.831 159.46 448.941C154.52 449.071 151.72 452.361 151.66 457.381C151.61 461.711 154.59 464.521 159.63 464.891C160.06 464.921 160.49 464.891 161.59 464.891C166.05 464.381 171.21 463.961 176.3 463.131Z" fill="white"/>
<path opacity="0.3" d="M97.9103 411.48C99.3503 410.74 99.7903 409.2 99.7703 407.76C99.7903 407.04 99.7203 406.33 99.5703 405.62C93.8103 409.8 88.1703 414.34 82.7803 419.28C88.1203 417.27 92.8603 414.06 97.9103 411.48Z" fill="white"/>
<path opacity="0.3" d="M199.13 461.88C200.79 461.57 202.43 460.89 203.96 460.14C206.57 458.84 207.78 456.57 207.12 453.74C206.47 450.96 206.49 448.19 206.45 444.19C206.45 443.67 206.54 441.94 206.43 440.23C206.15 435.86 204.45 434.03 200.21 433.39C194.04 432.45 191.29 434.5 190.49 440.63C190.43 441.06 190.39 441.49 190.4 441.92C190.49 446.44 190.42 450.97 190.74 455.48C191.08 460.38 194.31 462.77 199.14 461.89L199.13 461.88Z" fill="white"/>
<path opacity="0.3" d="M295.99 534.84C292.17 530.56 289 530.46 285.3 534.72C284.18 536.01 283.25 537.49 282.43 539C281.27 541.11 281.54 543.26 283.18 544.98C287.03 549.04 290.931 553.05 294.941 556.95C296.611 558.58 298.77 558.75 300.98 557.91C303.04 557.13 304.761 555.88 306.201 554.23C307.071 553.23 307.591 552.06 307.591 550.32C307.441 547.98 306.06 545.82 304.3 543.88C301.55 540.85 298.72 537.91 296 534.86L295.99 534.84Z" fill="white"/>
<path opacity="0.3" d="M404.19 456.681C404.46 459.291 406.01 461.151 408.63 461.661C412.46 462.401 415.92 461.211 418.94 458.901C420.19 457.951 420.92 456.311 420.58 454.841C419.48 450.121 420.01 445.351 419.79 440.601C419.56 435.471 417.4 433.551 411.88 433.261C407.03 433.011 404.65 434.831 404.01 439.821C403.66 442.591 403.95 445.441 403.95 448.251C403.9 448.251 403.84 448.251 403.79 448.251C403.91 451.061 403.91 453.891 404.2 456.681H404.19Z" fill="white"/>
<path opacity="0.3" d="M296.71 419.03C301.57 417.15 305.93 414.31 310.43 411.77C313.22 410.2 313.88 407.44 312.51 404.46C311.8 402.91 310.81 401.43 309.71 400.12C306.87 396.77 304.23 396.23 300.65 398.75C297.61 400.88 294.38 402.52 291.05 404.06C290.07 404.51 289.11 405.02 288.21 405.61C286.28 406.89 285.21 408.68 285.32 410.87C285.23 418.37 289.93 421.64 296.71 419.02V419.03Z" fill="white"/>
<path opacity="0.3" d="M365.41 459.09C366.48 463.21 368.98 464.85 374.66 464.89C379.24 464.37 384.19 463.92 389.1 463.2C392.03 462.77 393.62 460.79 393.82 457.84C394.02 454.96 393.4 452.22 391.91 449.75C390.57 447.52 388.64 446.35 385.91 447.04C381.5 448.15 377.07 448.85 372.48 448.98C367.22 449.14 364.09 453.98 365.41 459.08V459.09Z" fill="white"/>
<path opacity="0.3" d="M410.68 512.79C413.73 513.92 416.06 512.23 418.12 510.13C421.93 506.25 424.72 501.62 427.87 497.25C428.47 496.42 428.66 495.29 428.81 494.9C428.97 492.37 428.19 490.89 426.85 489.67C425.05 488.04 422.85 487.18 420.57 486.45C418.23 485.7 416.23 486.19 414.79 488.12C411.44 492.6 408.16 497.14 404.96 501.72C404.1 502.95 403.6 504.51 404.16 506.04C405.33 509.23 407.53 511.63 410.68 512.8V512.79Z" fill="white"/>
<path opacity="0.3" d="M215.53 493.911C215.48 489.631 207.8 484.551 203.9 486.261C203.13 486.601 202.38 487.121 201.81 487.741C200.94 488.691 200.08 489.711 199.51 490.851C198.13 493.591 196.25 495.921 194.22 498.191C193.08 499.461 192.18 500.961 191.31 502.441C190.49 503.841 190.66 505.311 191.3 506.801C194.36 513.891 200.33 515.071 205.63 509.601C205.78 509.451 205.94 509.291 206.06 509.121C208.86 505.271 211.65 501.421 214.45 497.581C215.25 496.481 215.55 495.251 215.53 493.921V493.911Z" fill="white"/>
<path opacity="0.3" d="M222.83 536.33C226.92 535.61 229.67 532.8 229.51 528.81C229.33 524.27 228.43 519.79 227.04 515.45C226.3 513.16 224.55 511.96 222.19 511.71C220.9 511.58 219.59 511.54 218.3 511.58C212.94 511.74 211.24 513.43 211.15 519.5C211.5 523.17 212.13 527.7 213.77 531.95C215.25 535.79 218.35 537.11 222.83 536.33Z" fill="white"/>
<path opacity="0.3" d="M175.54 485.881C179.56 487.401 183.82 488.081 187.24 488.421C188.54 488.421 188.97 488.431 189.4 488.421C194.24 488.291 196.39 486.381 197.13 481.591C197.83 477.061 196.03 473.991 191.73 472.671C189.48 471.981 187.14 471.561 184.83 471.041C176.25 469.081 174.46 470.181 172.07 478.851C171.03 482.621 171.79 484.471 175.53 485.891L175.54 485.881Z" fill="white"/>
<path opacity="0.3" d="M442 523.52C441.61 521.39 441.18 519.26 440.79 517.12C440.33 514.61 439.18 512.45 436.55 511.97C433.18 511.36 429.65 510.8 426.55 512.92C425.75 513.47 425.15 514.59 424.86 515.57C424.5 516.78 424.56 518.12 424.5 518.68C424.52 520.28 424.65 521.76 424.84 523.2C430.57 523.58 436.34 523.64 442 523.5V523.52Z" fill="white"/>
<path opacity="0.3" d="M196.62 567.481C197.48 567.581 198.34 567.591 198.23 567.581C199.86 567.581 200.51 567.611 201.16 567.581C205.31 567.321 207.73 565.051 207.38 560.971C207.01 556.691 206.28 552.391 205.19 548.241C204.03 543.821 201.2 542.211 196.96 542.751C191.96 543.391 189.13 546.051 189.35 550.701C189.54 554.771 190.27 558.841 191.06 562.851C191.62 565.721 193.78 567.151 196.64 567.481H196.62Z" fill="white"/>
<path opacity="0.3" d="M103.88 454.811C100 450.731 94.9803 448.161 89.6403 446.331C89.4503 446.261 89.2103 446.331 89.1603 446.331C87.1703 446.241 85.5603 446.811 84.3603 448.191C83.2403 449.491 82.2003 450.881 81.2503 452.311C79.2103 455.391 79.2803 457.281 81.9103 459.711C85.5903 463.101 89.8903 465.581 94.6003 467.271C95.5803 467.621 96.7303 467.631 97.7903 467.601C101.01 467.491 102.87 465.381 104.14 462.781C105.42 460.151 105.92 456.971 103.87 454.821L103.88 454.811Z" fill="white"/>
<path opacity="0.3" d="M145.03 401.21C141.62 403.92 138.99 407.36 136.58 410.97C132.75 416.72 135.73 420.65 140.21 423.29C142.94 424.9 145.64 424.61 147.94 422.37C151.04 419.36 154.05 416.25 156.46 412.63C157.18 411.54 157.87 410.44 157.74 408.57C157.62 408.2 157.52 407.26 157.04 406.6C155.77 404.87 154.44 403.15 152.92 401.64C150.08 398.81 148.19 398.7 145.02 401.22L145.03 401.21Z" fill="white"/>
<path opacity="0.3" d="M356.86 424.28C359.04 424.19 360.53 423.28 361.71 421.97C364.03 419.4 366.27 416.76 368.47 414.09C372.13 409.63 372.05 407.85 368.11 403.47C367.39 402.67 366.64 401.88 365.83 401.15C363.42 398.98 361.57 398.82 358.88 400.82C355.01 403.7 352.21 407.57 349.49 411.5C347.72 414.06 347.38 416.66 349.23 419.34C351.16 422.16 353.66 424.05 356.86 424.27V424.28Z" fill="white"/>
<path opacity="0.3" d="M389.581 486.101C393.261 487.271 397.131 487.831 399.691 488.391C401.621 488.391 402.271 488.421 402.911 488.391C407.591 488.131 409.961 485.881 410.511 481.201C411.041 476.671 409.071 473.721 404.611 472.571C402.321 471.981 399.961 471.611 397.651 471.091C389.481 469.251 388.151 470.041 385.631 478.241C384.271 482.661 385.091 484.671 389.571 486.091L389.581 486.101Z" fill="white"/>
<path opacity="0.3" d="M315.77 453.41C313.37 451.59 310.69 450.12 308.06 448.63C301.36 444.83 299.12 445.43 294.8 452.01C292.54 455.45 292.61 457.31 295.51 459.94C298.9 463.01 302.87 465.22 307.09 466.97C308.07 467.38 309.18 467.47 309.67 467.58C313.56 467.69 315.92 465.95 317.53 462.22C318.99 458.85 318.48 455.47 315.76 453.41H315.77Z" fill="white"/>
<path opacity="0.3" d="M247.57 430.74C243.6 427.51 238.49 426.86 233.98 424.83C233.8 424.75 233.55 424.82 233.28 424.82C231.73 425.01 230.45 425.8 229.63 427.14C228.02 429.75 227.09 432.64 227 435.7C226.92 438.38 228.15 440.16 230.89 440.99C233.37 441.75 235.8 442.52 238.16 443.64C242.63 445.77 244.61 445.14 247.35 440.99C248.06 439.91 248.69 438.77 249.2 437.58C250.5 434.56 250.08 432.77 247.56 430.72L247.57 430.74Z" fill="white"/>
<path opacity="0.3" d="M443.97 440.911C446.64 441.781 449.28 442.611 451.82 443.841C455.68 445.701 457.63 445.111 460.15 441.731C460.79 440.871 461.3 439.911 461.79 438.951C463.97 434.721 463.59 432.921 459.89 430.091C459.04 429.441 458.1 428.851 457.11 428.451C454.31 427.321 451.48 426.251 448.63 425.261C446.22 424.421 444.3 424.981 442.99 427.021C441.34 429.601 440.49 432.491 440.16 435.021C440.13 438.191 441.24 440.031 443.95 440.911H443.97Z" fill="white"/>
<path opacity="0.3" d="M329.951 544.17C334.411 546.31 336.61 545.65 338.92 541.33C340.14 539.05 341.141 536.64 341.521 534.29C341.541 532.89 341.181 531.78 340.191 531.25C337.541 529.82 334.831 528.48 332.081 527.27C330.831 526.72 329.5 527.13 328.42 527.96C325.95 529.86 324.16 532.28 323.31 535.28C322.59 537.82 323.351 540.05 325.461 541.61C326.841 542.63 328.401 543.43 329.951 544.17Z" fill="white"/>
<path opacity="0.3" d="M465.73 478.101C467.59 478.101 468.02 478.101 468.46 478.101C474.96 478.241 476.03 473.741 475.17 469.621C475 468.781 474.75 467.941 474.45 467.131C473.23 463.811 470.65 462.161 466.89 462.251C463.81 462.331 462.06 463.771 460.9 467.211C460.63 468.031 460.36 468.861 460.22 469.711C459.31 474.991 461.85 478.051 465.72 478.101H465.73Z" fill="white"/>
<path opacity="0.3" d="M246.74 386.071C246.35 381.861 243.96 379.921 239.87 380.491C239.24 380.581 238.62 380.801 237.99 380.931C232.65 382.031 231.21 384.201 232.39 389.481C232.57 390.311 232.86 391.131 233.15 391.941C234.37 395.261 237.13 397.111 240.52 396.911C243.82 396.721 246.06 394.421 246.66 390.571C246.79 389.731 246.77 388.861 246.76 389.181C246.76 387.361 246.81 386.711 246.76 386.071H246.74Z" fill="white"/>
<path opacity="0.3" d="M332.43 399.48C332.22 399.5 332 399.5 331.79 399.52C327.53 400.02 325.72 402.01 325.8 406.37C325.82 407.86 326.08 409.37 326.45 410.82C327.03 413.11 328.64 414.43 330.89 415.04C336.14 416.46 339.19 414.54 340.18 409.14C340.3 408.51 340.35 407.86 340.39 407.49C340.76 401.08 338.62 399 332.43 399.48Z" fill="white"/>
<path opacity="0.3" d="M225.57 369.32C226.72 368.36 227.72 367.17 228.59 365.94C229.18 365.09 229.42 363.991 229.83 362.961C229.47 362.071 229.32 361.141 228.81 360.521C226.88 358.141 224.66 355.9 221.67 355.48C220.5 355.64 219.34 355.82 218.18 356C216.17 357.06 215.12 359.411 213.99 361.461C213.68 362.021 213.52 362.671 213.29 363.281C212.61 365.091 213 366.73 214.23 368.12C218.35 372.84 220.34 373.72 225.57 369.31V369.32Z" fill="white"/>
<path opacity="0.3" d="M253.88 533.851C248.42 532.761 244.03 532.931 243.67 540.521C243.65 540.951 243.67 541.381 243.67 541.811C243.58 548.191 245.6 550.041 251.81 549.231C252.66 549.121 253.49 548.881 254.31 548.631C255.58 548.231 256.59 547.481 257.27 546.301C258.8 543.661 257.81 536.811 255.53 534.811C255.06 534.401 254.47 533.981 253.88 533.861V533.851Z" fill="white"/>
<path opacity="0.3" d="M120.47 415.411C124.11 415.411 126.01 413.691 126.82 409.471C127.06 408.211 127.16 406.901 127.12 405.621C126.96 401.051 125.31 399.481 120.39 399.431C119.93 399.451 119.06 399.441 118.21 399.561C114.27 400.081 112.52 401.991 112.45 405.971C112.43 407.251 112.51 408.571 112.82 409.811C113.73 413.451 116.5 415.411 120.48 415.411H120.47Z" fill="white"/>
<path opacity="0.3" d="M44.1805 476.551C44.0205 477.011 43.8805 477.481 43.7305 477.941C48.1605 477.381 49.4205 475.141 48.6605 469.801C48.5305 468.861 48.2705 467.931 47.9205 467.041C46.7605 469.691 45.6605 472.381 44.6605 475.171C44.4905 475.621 44.3205 476.101 44.1805 476.551Z" fill="white"/>
<path opacity="0.3" d="M261.8 468.681C261.55 467.641 261.17 466.591 260.6 465.691C258.92 463.031 256.33 462.171 253.34 462.451C250.45 462.721 248.82 464.211 247.98 467.281C247.34 469.601 247.23 471.971 247.75 474.331C248.23 476.511 249.55 477.701 251.71 477.981C252.56 478.091 253.43 478.071 253.65 478.081C260.85 478.101 263.33 475.031 261.8 468.681Z" fill="white"/>
<path opacity="0.3" d="M163.61 390.34C162.7 394.24 163.49 397.16 165.83 398.49C170.09 400.91 173.5 399.53 174.75 394.83C175.02 393.79 175.09 392.7 175.16 392.26C175.27 387.18 172.54 384.08 168.79 384.39C166.34 384.59 164.46 386.75 163.62 390.35L163.61 390.34Z" fill="white"/>
<path opacity="0.3" d="M466.79 507.41C467.15 507.33 467.841 507.34 468.371 507.04C471.241 505.46 473.591 503.27 475.131 500.37C475.481 499.71 475.471 498.65 475.241 497.9C473.621 492.72 469.421 491.44 465.381 494.92C464.101 496.03 462.981 497.37 461.951 498.73C459.631 501.81 462.571 507.1 466.781 507.41H466.79Z" fill="white"/>
<path opacity="0.3" d="M378.53 386.82C377.35 388.66 376.72 390.69 376.67 393.41C376.71 393.75 376.73 394.62 376.93 395.45C377.77 398.79 383.31 400.82 385.86 398.75C389.12 396.09 389.35 388.68 386.25 385.89C383.67 383.57 380.38 383.94 378.53 386.82Z" fill="white"/>
<path opacity="0.3" d="M203.49 413.01C199.78 411.78 192.5 417.76 193.29 421.54C193.79 423.91 195.36 425.74 197.55 426.9C197.9 427.09 198.39 427.12 198.8 427.1C202.16 426.94 206.79 422.58 207.25 419.18C207.57 416.83 205.68 413.74 203.48 413.01H203.49Z" fill="white"/>
<path opacity="0.3" d="M42.5496 506.6C44.2096 505.25 45.8896 503.87 47.2896 502.27C49.5796 499.65 49.3596 497.35 46.8996 494.9C44.9396 492.94 42.7796 492.51 40.4596 493.8C40.0696 494.02 39.7196 494.28 39.3596 494.53C38.6096 498.34 38.0396 502.27 37.5996 506.31C38.5196 506.95 39.5396 507.38 40.5396 507.42C40.9796 507.25 41.9096 507.11 42.5296 506.6H42.5496Z" fill="white"/>
<path opacity="0.3" d="M254.41 493.541C251.39 494.931 249.2 497.261 248.22 500.511C247.61 502.521 248.83 504.931 251.04 506.491C252.79 507.721 254.47 507.781 256.34 506.281C258 504.951 259.48 503.391 260.95 501.851C261.68 501.081 262.12 500.071 262.1 498.411C262.02 495.261 257.62 492.071 254.42 493.541H254.41Z" fill="white"/>
<path opacity="0.3" d="M412.93 413.56C410.61 414.77 408.55 416.33 407.25 418.73C406.33 420.43 406.39 421.95 407.48 423.59C410.17 427.65 412.09 428.07 415.96 425.29C417.37 424.28 418.8 423.25 419.61 421.66C420.1 420.71 420.43 419.68 420.66 419.1C420.71 414.67 416.36 411.76 412.93 413.55V413.56Z" fill="white"/>
<path opacity="0.3" d="M148.721 492.56C150.601 493.88 152.531 493.91 154.641 492.23C156.311 490.91 157.781 489.32 159.221 487.74C160.131 486.74 160.461 485.441 159.811 484.151C158.941 482.421 157.871 480.801 156.261 479.661C155.761 479.311 155.091 479.201 154.621 479.021C154.051 479.101 153.591 479.07 153.211 479.23C150.151 480.56 147.781 482.701 146.461 485.771C145.421 488.181 146.491 490.98 148.721 492.56Z" fill="white"/>
<path opacity="0.3" d="M364.94 493.461C367.83 493.291 372.58 488.811 372.92 485.941C373.16 483.901 371.32 480.601 369.33 479.521C368.53 479.091 367.69 479.051 366.86 479.361C363.96 480.461 361.62 482.311 360.17 485.061C358.2 488.761 361.06 493.691 364.94 493.461Z" fill="white"/>
</g>
<path d="M405.71 430.95C405.71 430.95 407.05 476.99 401.19 519.46L405.71 430.95Z" fill="white"/>
<path d="M405.71 430.95C405.71 430.95 407.05 476.99 401.19 519.46" stroke="black" stroke-width="3.44" stroke-miterlimit="10"/>
<path d="M127.3 430.95C127.3 430.95 125.96 476.99 131.82 519.46L127.3 430.95Z" fill="white"/>
<path d="M127.3 430.95C127.3 430.95 125.96 476.99 131.82 519.46" stroke="black" stroke-width="3.44" stroke-miterlimit="10"/>
<path d="M407.64 430.89C408.57 453.16 408.06 475.43 406.23 497.64C405.61 505.04 404.71 512.43 403.65 519.8C403.45 521.16 402.19 522.1 400.83 521.91C399.48 521.72 398.54 520.47 398.72 519.12C400.48 504.57 401.74 489.8 402.52 475.17C403.32 460.48 403.74 445.72 403.77 431.01C403.78 428.52 407.47 428.36 407.64 430.9V430.89Z" fill="#555A63"/>
<path d="M129.241 431.01C129.301 453.08 130.141 475.2 132.021 497.2C132.611 504.33 133.441 512.1 134.291 519.18C134.581 522.37 129.901 523.01 129.361 519.81C127.191 505.1 125.981 490.27 125.391 475.42C124.811 460.57 124.711 445.76 125.361 430.9C125.521 428.41 129.211 428.47 129.231 431.01H129.241Z" fill="#555A63"/>
<mask id="mask1_472_24016" style="mask-type:luminance" maskUnits="userSpaceOnUse" x="128" y="352" width="277" height="408">
<path d="M401.231 386.66C351.381 359.84 318.381 353.23 266.811 352.67V352.65C266.711 352.65 266.291 352.65 266.191 352.65V352.67C214.651 353.23 181.641 359.83 131.771 386.66C131.771 386.66 117.881 494.98 150.021 637.36C169.661 724.36 171.841 754.03 266.191 759.25V759.29C266.601 759.27 266.411 759.27 266.811 759.29V759.25C361.151 754.03 363.391 724.17 382.981 637.36C415.121 494.99 401.231 386.66 401.231 386.66Z" fill="white"/>
</mask>
<g mask="url(#mask1_472_24016)">
<path d="M266.5 468.9C317.598 468.9 359.02 434.551 359.02 392.18C359.02 349.809 317.598 315.46 266.5 315.46C215.403 315.46 173.98 349.809 173.98 392.18C173.98 434.551 215.403 468.9 266.5 468.9Z" fill="#555A63"/>
</g>
<path d="M195.12 214.641C195.12 226.151 198.07 238.851 186.59 238.851C168.8 238.851 157.16 224.631 157.16 213.131C157.16 201.631 162.86 193.811 174.34 193.811C185.82 193.811 195.12 203.141 195.12 214.641Z" fill="#F5DCCB"/>
<path d="M175.591 220.181C174.811 222.761 171.851 223.501 169.641 222.001C165.111 219.021 161.721 207.761 168.541 207.761C169.021 207.761 169.501 207.861 169.921 208.071C173.041 209.691 176.511 217.421 175.591 220.171V220.181Z" fill="#BF6A49"/>
<path d="M337.88 214.641C337.88 226.151 334.93 238.851 346.41 238.851C364.2 238.851 375.84 224.631 375.84 213.131C375.84 201.631 370.14 193.811 358.66 193.811C347.18 193.811 337.88 203.141 337.88 214.641Z" fill="#F5DCCB"/>
<path d="M357.41 220.181C358.19 222.761 361.15 223.501 363.36 222.001C367.89 219.021 371.28 207.761 364.46 207.761C363.98 207.761 363.5 207.861 363.09 208.071C359.97 209.691 356.5 217.421 357.42 220.171L357.41 220.181Z" fill="#BF6A49"/>
<path d="M217.51 290.65C217.51 290.75 217.48 290.82 217.48 290.93" stroke="#2A38B7" stroke-width="5.16" stroke-miterlimit="10" stroke-linecap="round"/>
<path d="M334.26 371.43C334.26 408.84 303.93 439.21 266.52 439.21C229.11 439.21 198.74 408.85 198.74 371.43C198.74 362.42 200.49 353.82 203.73 345.95C203.83 345.64 203.93 345.33 204.07 345.06C209.78 328.9 213.36 317.86 215.07 308.85C216.31 302.32 216.82 297.12 217.48 290.93V290.66C217.48 263.56 239.42 241.62 266.52 241.62C293.62 241.62 315.52 263.56 315.52 290.66C316.21 296.95 316.72 302.21 318 308.85C319.75 318.03 323.4 329.31 329.31 345.95C332.51 353.83 334.26 362.42 334.26 371.43Z" fill="#F5DCCB"/>
<path d="M285.138 335.947C310.184 325.669 322.157 297.034 311.879 271.987C301.602 246.941 272.966 234.968 247.92 245.246C222.873 255.523 210.901 284.159 221.178 309.205C231.456 334.251 260.091 346.224 285.138 335.947Z" fill="#F5DCCB"/>
<path d="M314.426 419.342C340.892 392.876 340.892 349.966 314.426 323.5C287.96 297.034 245.051 297.034 218.585 323.5C192.119 349.966 192.119 392.876 218.585 419.341C245.05 445.807 287.96 445.807 314.426 419.342Z" fill="#F5DCCB"/>
<path d="M341.78 274.28C330.05 293.36 302.31 320.67 266.84 321.08H266.16C230.7 320.67 202.96 293.36 191.22 274.28C169.74 239.34 174.6 169.98 190.4 136.76C205.69 104.64 233.26 87.6201 266.15 86.9001C266.28 86.8701 266.38 86.8701 266.51 86.8701C266.61 86.8701 266.74 86.8701 266.83 86.9001C299.72 87.6201 327.3 104.64 342.58 136.76C358.39 169.98 363.25 239.34 341.77 274.28H341.78Z" fill="#F5DCCB"/>
<path d="M292.621 175.611C292.771 165.131 318.671 167.961 317.391 178.541C316.301 187.491 292.501 184.151 292.621 175.611Z" fill="#3537F5"/>
<path d="M215.721 178.66C213.431 168.43 239.281 165.16 240.491 175.75C241.511 184.71 217.581 187 215.721 178.66Z" fill="#3537F5"/>
<path d="M273.621 188.05C276.331 197.41 277.921 206.67 279.281 216.24C280.961 226.29 277.341 234.05 266.581 235.56C264.181 235.91 261.451 236.36 258.981 235.96C255.761 235.51 255.701 230.9 258.881 230.35C259.781 230.18 261.111 230.03 261.961 229.76C266.221 228.56 271.991 228.44 272.581 223.12C273.301 219.05 271.331 207.28 271.061 203L270.251 195.99C270.001 193.63 269.691 191.27 269.371 189C269.041 186.35 272.821 185.5 273.641 188.06L273.621 188.05Z" fill="#E0A080"/>
<path d="M218.67 203.02C222.73 194.61 232.61 194.11 238.95 200.28C241.84 202.91 238.62 207.46 235.2 205.66C233.2 204.51 230.94 202.96 228.64 202.92C226.92 202.82 225.03 203.9 223.74 205.08C223.32 205.53 222.74 205.89 222.27 206.19C220.19 207.58 217.58 205.23 218.68 203.02H218.67Z" fill="#0D1016"/>
<path d="M295.17 203.091C299.23 194.681 309.11 194.181 315.45 200.341C318.34 202.971 315.12 207.521 311.7 205.721C309.7 204.571 307.44 203.021 305.14 202.981C303.42 202.881 301.53 203.961 300.24 205.141C299.82 205.591 299.24 205.951 298.77 206.251C296.69 207.641 294.08 205.291 295.18 203.081L295.17 203.091Z" fill="#0D1016"/>
<path d="M258.42 80.9201C258.34 87.0301 257.65 91.9301 256.27 96.6801C252.31 110.34 246.93 123.36 239.81 135.76C233.78 146.24 227.18 156.24 219.1 165.19C209.85 175.43 199.68 184.65 187.76 191.77C186.84 192.32 185.97 192.96 185.04 193.5C178.69 197.21 175.68 197.03 169.79 192.4C164.15 187.96 159.74 182.47 156.1 176.3C148.49 163.43 144.38 149.58 144.65 134.63C144.82 125.12 147.04 115.94 150.45 107.04C156.4 91.5201 165.51 78.1201 177.77 66.9501C186.49 59.0101 196.59 53.2001 208.24 51.0201C228.19 47.2901 243.14 53.7001 255.82 69.6601C256.59 70.6301 256.94 71.9501 257.36 73.1501C257.71 74.1601 257.97 75.22 258.09 76.28C258.3 78.2 258.38 80.1301 258.43 80.9201H258.42Z" fill="#3537F5"/>
<path d="M383.151 140.96C383.381 152.67 372.261 200.23 355.051 195.8C344.811 193.17 337.661 170.07 332.031 162.12C319.061 143.78 300.551 149.51 277.351 129.79C274.641 127.49 273.321 124.5 272.551 124.91C272.041 125.18 272.411 126.11 272.661 126.62C281.241 144.33 281.781 142.17 284.931 147.76C290.551 157.74 269.861 164.3 251.991 150.69C202.751 113.19 238.731 33.6803 309.741 48.6503C341.941 55.4403 358.931 69.1903 370.081 86.6603C379.651 101.64 382.711 118.36 383.151 140.94V140.96Z" fill="#3537F5"/>
<path d="M242.77 68.1805C235.7 76.6505 230.16 87.1805 228.49 98.1305C226.66 109.141 229.88 120.331 236.37 129.281C238.11 131.951 234.32 134.701 232.33 132.171C220.24 116.691 220.2 97.0205 229.44 80.1605C232.32 74.7905 235.72 69.9405 239.97 65.4905C241.76 63.7105 244.49 66.3005 242.77 68.1705V68.1805Z" fill="#2A38B7"/>
<path d="M214.111 66.0007C180.811 88.6507 155.121 125.421 152.421 166.301C151.901 172.061 152.041 177.861 152.311 183.651C152.411 185.041 151.341 186.251 149.951 186.321C148.601 186.381 147.461 185.361 147.351 184.021C146.441 172.011 147.131 159.811 149.801 148.011C155.031 124.421 167.731 102.891 184.361 85.5407C192.721 76.8707 201.851 69.0507 212.111 62.6707C214.301 61.4207 216.301 64.5907 214.101 65.9907L214.111 66.0007Z" fill="#2A38B7"/>
<path d="M211.7 103.13C192.49 116.47 178.62 138.11 176.14 161.52C175.5 166.93 175.5 172.52 175.85 177.94C175.9 179.31 174.83 180.46 173.46 180.52C172.11 180.57 170.97 179.53 170.89 178.19C170.6 174.37 170.35 170.53 170.54 166.7C171.09 147.45 179.19 128.69 192.17 114.57C197.37 108.89 203.12 103.84 209.72 99.7999C211.91 98.5499 213.88 101.76 211.71 103.13H211.7Z" fill="#2A38B7"/>
<path d="M279.15 61.9905C308.94 61.6005 338.93 75.4304 356.5 99.7604C366.27 113.37 372.21 129.46 375.17 145.86C377.58 158.23 378.14 171.73 377.91 184.34C377.81 187.64 372.91 187.61 372.94 184.23C374.23 126.52 352.23 75.6704 289.86 66.6004C286.33 66.1404 282.67 65.8304 279.23 65.8704C276.77 65.8704 276.57 62.1504 279.15 62.0004V61.9905Z" fill="#2A38B7"/>
<path d="M257.11 81.5099C304.1 91.5799 347.12 123.79 355.48 173.23C355.99 176.39 351.39 177.38 350.61 174.21C349.4 168.62 348.07 163.04 345.99 157.71C336.36 130.58 314.1 109.74 288.62 97.1599C278.41 92.0899 267.471 87.8699 256.401 85.3099C253.911 84.8399 254.51 81.0499 257.11 81.4999V81.5099Z" fill="#2A38B7"/>
<path d="M248.641 95.8199C248.431 109.37 253.441 122.83 261.181 133.85C262.221 135.51 264.081 137.73 265.301 139.29C266.741 141.05 268.331 142.7 269.831 144.42C270.861 145.44 270.841 147.13 269.741 148.09C268.741 148.97 267.231 148.89 266.311 147.94L263.791 145.31C262.301 143.88 260.321 141.44 259.031 139.79C258.351 139.01 257.451 137.73 256.861 136.85L254.811 133.82C254.181 132.68 252.671 130.17 252.081 129.06C247.901 120.94 245.161 111.97 244.621 102.82C244.521 100.35 244.491 97.9799 244.791 95.3599C244.911 94.2999 245.871 93.5399 246.931 93.6599C248.001 93.7799 248.751 94.7599 248.641 95.8099V95.8199Z" fill="#2A38B7"/>
<path d="M255.621 251.091C259.501 255.291 264.641 258.551 270.211 259.891C273.571 260.691 276.931 260.731 280.411 260.411C282.331 260.131 284.141 261.52 284.251 263.48C284.361 265.18 283.161 266.661 281.521 266.951C280.811 267.081 280.101 267.191 279.381 267.291C274.331 268.031 269.011 267.271 264.351 265.161C259.011 262.781 254.471 258.931 251.351 253.991C249.721 251.161 253.591 248.571 255.631 251.091H255.621Z" fill="#0D1016"/>
</g>
</svg>
