<svg width="533" height="545" viewBox="0 0 533 545" fill="none" xmlns="http://www.w3.org/2000/svg">
<mask id="mask0_472_24003" style="mask-type:luminance" maskUnits="userSpaceOnUse" x="0" y="0" width="533" height="545">
<path d="M266.5 544.98C413.684 544.98 533 422.982 533 272.49C533 121.998 413.684 0 266.5 0C119.316 0 0 121.998 0 272.49C0 422.982 119.316 544.98 266.5 544.98Z" fill="white"/>
</mask>
<g mask="url(#mask0_472_24003)">
<path d="M180.66 500.61C177.98 507.63 174.71 514.3 170.79 520.42C161.54 535.1 148.78 546.49 132.45 551.03C132.31 551.06 132.14 551.1 132 551.13C92.7595 561.82 37.0195 548.17 37.0195 548.17C37.4295 537.41 38.9495 527.37 41.3895 518.08C42.2795 514.68 43.2495 511.37 44.3795 508.18C44.5195 507.73 44.6895 507.25 44.8595 506.8C67.8295 442.5 135.16 414.92 171.27 399.58C171.41 399.65 171.51 399.75 171.65 399.82C192.14 412.75 195.65 461.51 180.66 500.61Z" fill="#DFEE95"/>
<path d="M496.41 548.17C496.41 548.17 440.63 561.82 401.4 551.13C401.26 551.1 401.12 551.06 400.99 551.03C381.7 545.67 367.39 530.71 357.9 512.1C356.01 508.42 354.29 504.57 352.78 500.61C337.79 461.51 341.29 412.75 361.79 399.82C361.93 399.75 362.03 399.65 362.17 399.58C379.05 406.77 402.79 416.65 425.62 431.71V431.7C426.03 431.98 426.45 432.25 426.89 432.53C427.37 432.87 427.89 433.18 428.4 433.56C456.08 452.37 481.98 479.06 492.05 518.08C494.49 527.36 496 537.41 496.42 548.17H496.41Z" fill="#DFEE95"/>
<path d="M404.39 487.99C404.22 506.22 403.39 527.47 401.4 551.13C398.44 585.93 392.91 625.89 383.18 668.98C363.61 755.81 361.38 785.66 267.02 790.88V790.91C266.61 790.88 266.82 790.88 266.4 790.91V790.88C172.04 785.65 169.87 755.98 150.24 668.98C140.51 625.89 134.97 585.93 132.02 551.13C130.99 538.65 130.23 526.85 129.75 515.81C127.17 455.84 131.99 418.29 131.99 418.29C146.33 410.59 159.29 404.54 171.67 399.82C180.82 396.31 189.69 393.56 198.56 391.43C219.5 386.38 240.65 384.59 266.41 384.28H267.03C303.79 384.69 331.1 388.17 361.8 399.82C374.18 404.53 387.11 410.58 401.45 418.29C401.45 418.29 404.82 444.46 404.41 487.99H404.39Z" fill="#DFEE95"/>
<path d="M407.84 462.52C408.77 484.79 408.259 507.06 406.429 529.27C405.809 536.67 404.91 544.06 403.85 551.43C403.65 552.79 402.39 553.73 401.03 553.54C399.68 553.35 398.74 552.1 398.92 550.75C400.68 536.2 401.94 521.43 402.72 506.8C403.52 492.11 403.94 477.35 403.97 462.64C403.98 460.15 407.67 459.99 407.84 462.53V462.52Z" fill="#0D1016"/>
<path d="M129.44 462.63C129.5 484.7 130.35 506.82 132.22 528.82C132.81 535.95 133.64 543.72 134.49 550.8C134.78 553.99 130.1 554.63 129.56 551.43C127.39 536.72 126.18 521.89 125.59 507.04C125.01 492.19 124.91 477.38 125.56 462.52C125.72 460.03 129.41 460.09 129.43 462.63H129.44Z" fill="#0D1016"/>
<path d="M378.799 223.97C386.359 271.73 391.279 448.51 335.299 448.51C261.919 483.87 166.429 467.39 166.429 419.04C166.429 370.69 137.169 182.88 193.149 182.88C249.129 182.88 367.109 150.05 378.809 223.97H378.799Z" fill="#2A38B7"/>
<path d="M343.219 268.391C343.219 268.391 336.189 325.051 287.739 361.781C239.289 398.511 286.569 277.381 286.569 277.381L343.229 268.391H343.219Z" fill="#243077"/>
<path d="M184.189 274.48C184.189 274.48 198.209 334.81 229.449 357.62C260.679 380.42 247.059 328.99 247.059 328.99L184.199 274.48H184.189Z" fill="#243077"/>
<path d="M229.449 357.621C239.009 368.201 249.609 375.761 254.669 375.301C260.309 374.791 283.489 370.611 307.149 344.081C310.169 327.281 315.479 315.491 315.479 315.491L229.449 312.721V357.621Z" fill="#B7A69A"/>
<path d="M353.05 243.521C348.68 256.501 343.81 266.541 341.26 271.201C337.52 285.141 332.34 296.871 326.37 306.721C301.46 347.801 262.69 356.221 255.96 356.251C242.19 356.301 211.77 334.051 196.88 310.191C181.99 286.351 182.76 251.731 180.74 246.131C175.73 235.421 167.1 211.071 182.02 163.741C196.96 116.421 264.33 84.3506 327.02 126.101C372.32 156.251 364.4 209.791 353.05 243.521Z" fill="#F5DCCB"/>
<path d="M206.31 206.06C206.31 206.06 262.02 182.26 319.53 209.63C319.53 209.63 283.79 162.43 268.08 157.36C268.08 157.36 222.27 179.71 206.31 206.06Z" fill="white"/>
<path d="M313.12 264.851L314.4 266.221C315.28 267.281 313.4 268.281 313 266.971L312.57 265.151C312.48 264.841 312.91 264.611 313.12 264.851Z" fill="#D29691"/>
<path d="M315.1 263.001L316.69 263.491C318.03 264.011 316.8 265.841 315.81 264.811L314.75 263.531C314.54 263.291 314.8 262.911 315.1 263.011V263.001Z" fill="#D29691"/>
<path d="M316.28 260.75L318.129 260.45C319.499 260.32 319.3 262.42 317.98 262.03L316.23 261.38C315.92 261.28 315.97 260.79 316.29 260.76L316.28 260.75Z" fill="#D29691"/>
<path d="M196.709 258.68L196.219 260.49C195.769 261.79 193.949 260.74 194.849 259.7L196.169 258.37C196.389 258.13 196.809 258.37 196.709 258.68Z" fill="#D29691"/>
<path d="M194.58 256.99L193.48 258.24C192.47 259.25 191.29 257.36 192.64 256.9L194.249 256.46C194.549 256.37 194.8 256.77 194.58 256.99Z" fill="#D29691"/>
<path d="M193.179 254.791L191.409 255.391C190.079 255.751 189.939 253.631 191.309 253.811L193.149 254.171C193.469 254.221 193.499 254.711 193.189 254.801L193.179 254.791Z" fill="#D29691"/>
<path d="M187.609 239.02C187.609 239.02 182.799 251.88 183.589 272.16C175.379 285.98 157.989 286.62 160.079 256.73C163.049 214.11 167.729 180.78 176.439 164.42C196.169 127.34 223.489 107.15 270.099 104.26C312.779 101.61 356.159 142.65 361.849 156.28C373.769 184.8 376.919 204.68 379.619 229C381.879 249.31 356.999 277.96 347.689 281.47C339.099 255.95 333.729 237.54 322.949 219.9C306.549 193.06 288.789 172.98 267.479 166.38C255.849 165.19 208.989 187.47 187.609 239.03V239.02Z" fill="#2A38B7"/>
<path d="M163.259 352.471C163.259 352.471 151.019 359.711 148.579 393.321C143.639 401.791 132.069 404.531 127.049 410.741C112.659 428.551 121.469 444.271 121.469 444.271C121.469 444.271 145.779 436.561 184.489 449.231C223.199 461.901 324.019 568.081 427.219 442.431C427.219 442.431 420.549 423.011 395.489 414.811C386.369 411.821 385.389 313.741 382.989 308.261C380.589 302.781 284.849 372.331 284.849 372.331L248.539 386.031L163.249 352.461L163.259 352.471Z" fill="#2A38B7"/>
<path d="M252.19 375.69C267.74 386.82 283.63 397.28 300.57 406.05C329.63 418.72 362.52 421.92 393.49 415.03L393.58 415.33C362.58 427.87 329.43 420.75 300.15 406.99C282.3 399.88 265.35 389.87 251.97 375.92L252.18 375.69H252.19Z" fill="#243077"/>
<path d="M301.95 406.53C315.15 405.21 328.18 403.96 340.97 400.66C361.89 393.53 377.59 376.12 385.27 355.65L385.58 355.73C382.05 380.17 363.81 394.63 341.3 401.63C333.02 404.92 324.28 407.44 315.29 407.61C310.82 407.79 306.34 407.63 301.92 406.84L301.94 406.52L301.95 406.53Z" fill="#243077"/>
<path d="M162.55 354.511C181.68 389.111 205.76 421.911 237.54 445.721C266.96 467.521 305.15 474.601 340.8 467.881C370.19 463.221 397.42 448.041 419.2 428.591C392.36 458.501 351.53 474.961 311.33 473.271C246.47 471.661 185.44 411.461 162.55 354.511Z" fill="#243077"/>
<path d="M148.729 393.261C154.439 402.101 159.549 411.031 165.079 419.891C175.929 433.511 190.039 443.991 202.249 456.331L202.069 456.591C192.789 451.621 184.299 444.941 177.299 437.071C172.439 431.991 168.699 425.941 164.269 420.511C157.199 412.691 150.939 403.831 148.439 393.381L148.739 393.271L148.729 393.261Z" fill="#243077"/>
<path d="M309.239 386.7C309.239 386.7 312.409 383.88 317.179 379.65C319.539 377.52 322.289 375.05 325.229 372.39C326.679 371.05 328.179 369.66 329.709 368.25C331.209 366.82 332.739 365.37 334.259 363.91C335.749 362.43 337.259 360.96 338.709 359.48C340.129 357.98 341.599 356.56 342.909 355.09C344.199 353.61 345.579 352.27 346.719 350.88C347.859 349.49 349.039 348.24 350.029 347.02C351.009 345.79 351.919 344.66 352.719 343.66C353.539 342.67 354.139 341.73 354.699 341C355.809 339.52 356.449 338.67 356.449 338.67L356.489 338.62C356.769 338.24 357.309 338.17 357.679 338.45C358.009 338.7 358.109 339.14 357.939 339.5C357.939 339.5 357.469 340.48 356.649 342.18C356.209 343.01 355.759 344.1 355.059 345.22C354.369 346.35 353.599 347.63 352.759 349.02C351.869 350.38 350.849 351.82 349.759 353.33C348.669 354.85 347.429 356.36 346.159 357.94C344.879 359.52 343.459 361.05 342.059 362.66C340.609 364.21 339.089 365.74 337.579 367.3C334.479 370.3 331.319 373.24 328.189 375.78C327.409 376.42 326.649 377.06 325.899 377.68C325.129 378.27 324.379 378.85 323.649 379.41C322.199 380.55 320.769 381.57 319.459 382.5C314.199 386.24 310.379 388.29 310.379 388.29C309.909 388.55 309.309 388.37 309.049 387.9C308.829 387.49 308.929 387 309.259 386.7H309.239Z" fill="#243077"/>
<path d="M335.38 384.8C335.38 384.8 335.78 384.17 336.47 383.06C336.82 382.51 337.24 381.85 337.75 381.11C338.24 380.35 338.8 379.49 339.42 378.58C340.68 376.76 342.08 374.58 343.7 372.35C344.48 371.22 345.29 370.04 346.12 368.85C346.95 367.67 347.8 366.47 348.65 365.26C349.48 364.05 350.31 362.84 351.13 361.65C351.96 360.47 352.83 359.33 353.55 358.16C354.29 357 355.06 355.92 355.77 354.87C356.45 353.81 357.23 352.87 357.78 351.93C360.11 348.2 361.91 345.78 361.91 345.78L361.95 345.73C362.23 345.35 362.77 345.27 363.15 345.55C363.45 345.78 363.56 346.17 363.45 346.51C363.45 346.51 362.51 349.37 360.73 353.56C360.3 354.62 359.72 355.69 359.12 356.84C358.51 357.98 357.9 359.21 357.21 360.44C355.86 362.93 354.17 365.41 352.55 367.95C351.74 369.22 350.79 370.39 349.94 371.59C349.07 372.78 348.2 373.95 347.31 375.04C346.43 376.14 345.55 377.18 344.7 378.15C343.87 379.14 343.05 380.04 342.27 380.85C340.75 382.51 339.39 383.82 338.41 384.71C337.44 385.62 336.86 386.08 336.86 386.08L336.83 386.1C336.41 386.44 335.79 386.37 335.45 385.94C335.19 385.61 335.17 385.15 335.39 384.81L335.38 384.8Z" fill="#243077"/>
<path d="M283.9 234.04C284.04 224.57 307.45 227.12 306.29 236.68C305.31 244.77 283.79 241.75 283.9 234.04Z" fill="#0D1016"/>
<path d="M276.78 317.34C275.01 318.98 272.91 320.08 270.71 320.74C262.36 323.28 251.91 319.54 247.3 312.39C247.15 312.17 247.01 311.96 246.91 311.7C245.71 309.63 244.92 307.31 244.77 304.93C244.61 302.54 245.1 299.01 247.45 297.86C249.78 296.75 252.62 296.92 254.6 298.67C255.57 299.52 256.56 300.46 257.46 301.43C260.95 305.07 265.18 307.1 270.16 307.64C271.73 307.8 273.39 307.98 274.9 308.46C278.98 309.76 279.97 314.43 276.78 317.35V317.34Z" fill="white"/>
<path d="M214.39 236.801C212.32 227.551 235.69 224.601 236.78 234.171C237.7 242.261 216.07 244.331 214.39 236.801Z" fill="#0D1016"/>
<path d="M266.359 245.37C268.699 253.82 270.029 262.18 271.249 270.83C272.929 282.18 268.109 287.14 257.079 288.1C254.999 288.24 251.569 288.69 251.679 285.82C251.779 284.85 252.539 284.11 253.469 284C255.659 283.81 257.289 283.21 259.409 282.81C266.379 281.74 267.069 277.57 266.369 271.37C265.989 267.18 265.389 262.94 264.929 258.71C264.459 255.05 263.849 249.64 263.259 246.07C262.969 244.13 265.799 243.48 266.369 245.38L266.359 245.37Z" fill="#E0A080"/>
<path d="M217.709 261.35C221.209 254.05 229.879 253.6 235.359 258.96C237.889 261.22 235.049 265.23 232.089 263.64C230.349 262.64 228.389 261.29 226.379 261.25C224.639 261.14 222.829 262.39 221.599 263.6L220.829 264.1C219.039 265.32 216.729 263.24 217.709 261.34V261.35Z" fill="#0D1016"/>
<path d="M285.739 261.411C289.239 254.111 297.909 253.661 303.389 259.021C305.919 261.281 303.079 265.301 300.119 263.701C298.379 262.701 296.419 261.351 294.409 261.311C292.669 261.201 290.859 262.451 289.639 263.661L288.869 264.161C287.079 265.381 284.769 263.301 285.749 261.401L285.739 261.411Z" fill="#0D1016"/>
</g>
</svg>
