<svg width="533" height="545" viewBox="0 0 533 545" fill="none" xmlns="http://www.w3.org/2000/svg">
<mask id="mask0_472_24015" style="mask-type:luminance" maskUnits="userSpaceOnUse" x="0" y="0" width="533" height="545">
<path d="M266.5 544.98C413.684 544.98 533 422.982 533 272.49C533 121.998 413.684 0 266.5 0C119.316 0 0 121.998 0 272.49C0 422.982 119.316 544.98 266.5 544.98Z" fill="white"/>
</mask>
<g mask="url(#mask0_472_24015)">
<path d="M217.509 290.64C217.509 290.74 217.479 290.81 217.479 290.92" stroke="#555A63" stroke-width="5.16" stroke-miterlimit="10" stroke-linecap="round"/>
<path d="M334.259 371.42C334.259 408.83 303.929 439.2 266.519 439.2C229.109 439.2 198.739 408.84 198.739 371.42C198.739 362.41 200.489 353.81 203.729 345.94C203.829 345.63 203.929 345.32 204.069 345.05C209.779 328.89 213.359 317.85 215.069 308.84C216.309 302.31 216.819 297.11 217.479 290.92V290.65C217.479 263.55 239.419 241.61 266.519 241.61C293.619 241.61 315.519 263.55 315.519 290.65C316.209 296.94 316.719 302.2 317.999 308.84C319.749 318.02 323.399 329.3 329.309 345.94C332.509 353.81 334.259 362.41 334.259 371.42Z" fill="#F8A384"/>
<path d="M266.499 339.65C293.572 339.65 315.52 317.703 315.52 290.63C315.52 263.557 293.572 241.61 266.499 241.61C239.426 241.61 217.479 263.557 217.479 290.63C217.479 317.703 239.426 339.65 266.499 339.65Z" fill="#F8A384"/>
<path d="M266.499 439.18C303.928 439.18 334.27 408.838 334.27 371.41C334.27 333.981 303.928 303.64 266.499 303.64C229.071 303.64 198.729 333.981 198.729 371.41C198.729 408.838 229.071 439.18 266.499 439.18Z" fill="#F8A384"/>
<path d="M180.45 469C177.77 476.02 174.5 482.69 170.58 488.81C161.33 503.49 148.57 514.88 132.24 519.42C132.1 519.45 131.93 519.49 131.79 519.52C92.5596 530.21 36.8096 516.56 36.8096 516.56C37.2196 505.8 38.7396 495.76 41.1796 486.47C42.0696 483.07 43.0396 479.76 44.1696 476.57C44.3096 476.12 44.4796 475.64 44.6496 475.19C67.6196 410.89 134.95 383.31 171.06 367.97C171.2 368.04 171.3 368.14 171.44 368.21C191.93 381.14 195.44 429.9 180.45 469Z" fill="#DFEE95"/>
<path d="M496.2 516.56C496.2 516.56 440.42 530.21 401.19 519.52C401.05 519.49 400.91 519.45 400.78 519.42C381.49 514.06 367.18 499.1 357.69 480.49C355.8 476.81 354.08 472.96 352.56 469C337.57 429.9 341.08 381.14 361.57 368.21C361.71 368.14 361.81 368.04 361.95 367.97C378.84 375.16 402.56 385.03 425.4 400.09C425.81 400.37 426.22 400.64 426.67 400.92C427.15 401.26 427.67 401.57 428.18 401.95C455.86 420.76 481.76 447.44 491.83 486.47C494.27 495.75 495.78 505.8 496.2 516.56Z" fill="#DFEE95"/>
<path d="M401.22 386.67C378.52 374.47 359.36 364.12 334.27 358.78C331.21 361.19 282.14 396.98 266.53 436.94C250.88 396.88 202.75 360.94 199.93 358.74C180.15 363.23 163.12 369.82 131.77 386.66C131.77 386.66 126.96 424.21 129.54 484.18C130.02 494.94 130.74 506.46 131.74 518.64V518.71C131.77 518.99 131.77 519.23 131.81 519.5C134.77 554.3 140.3 594.26 150.04 637.35C169.68 724.35 171.84 754.03 266.2 759.25V759.28C266.61 759.25 266.41 759.25 266.82 759.28V759.25C361.18 754.02 363.41 724.17 382.98 637.35C392.71 594.26 398.25 554.3 401.21 519.5V519.33C403.2 495.74 404.03 474.56 404.2 456.37C404.61 412.84 401.24 386.67 401.24 386.67H401.22Z" fill="#DFEE95"/>
<path d="M407.639 430.89C408.569 453.16 408.059 475.43 406.229 497.64C405.609 505.04 404.709 512.43 403.649 519.8C403.449 521.16 402.189 522.1 400.829 521.91C399.479 521.72 398.539 520.47 398.719 519.12C400.479 504.57 401.739 489.8 402.519 475.17C403.319 460.48 403.739 445.72 403.769 431.01C403.779 428.52 407.469 428.36 407.639 430.9V430.89Z" fill="#0D1016"/>
<path d="M129.23 431C129.29 453.07 130.13 475.19 132.01 497.19C132.6 504.32 133.43 512.09 134.28 519.17C134.57 522.36 129.89 523 129.35 519.8C127.18 505.09 125.97 490.26 125.38 475.41C124.8 460.56 124.7 445.75 125.35 430.89C125.51 428.4 129.2 428.46 129.22 431H129.23Z" fill="#0D1016"/>
<mask id="mask1_472_24015" style="mask-type:luminance" maskUnits="userSpaceOnUse" x="128" y="358" width="277" height="402">
<path d="M401.22 386.67C378.52 374.47 359.36 364.12 334.27 358.78C331.21 361.19 282.14 396.98 266.53 436.94C250.88 396.88 202.75 360.94 199.93 358.74C180.15 363.23 163.12 369.82 131.77 386.66C131.77 386.66 126.96 424.21 129.54 484.18C130.02 494.94 130.74 506.46 131.74 518.64V518.71C131.77 518.99 131.77 519.23 131.81 519.5C134.77 554.3 140.3 594.26 150.04 637.35C169.68 724.35 171.84 754.03 266.2 759.25V759.28C266.61 759.25 266.41 759.25 266.82 759.28V759.25C361.18 754.02 363.41 724.17 382.98 637.35C392.71 594.26 398.25 554.3 401.21 519.5V519.33C403.2 495.74 404.03 474.56 404.2 456.37C404.61 412.84 401.24 386.67 401.24 386.67H401.22Z" fill="white"/>
</mask>
<g mask="url(#mask1_472_24015)">
<path d="M169.61 427.65C146.39 396.92 146.32 357.84 169.45 340.37C192.58 322.9 230.15 333.65 253.36 364.38C276.58 395.11 276.65 434.19 253.52 451.66C230.39 469.13 192.82 458.38 169.61 427.65Z" fill="#0D1016"/>
<path d="M362.98 427.65C386.2 396.92 386.27 357.84 363.14 340.37C340.01 322.9 302.44 333.65 279.23 364.38C256.01 395.11 255.94 434.19 279.07 451.66C302.2 469.13 339.77 458.38 362.98 427.65Z" fill="#0D1016"/>
</g>
<path d="M195.119 218.41C195.119 229.92 198.069 242.62 186.589 242.62C168.799 242.62 157.159 228.4 157.159 216.9C157.159 205.4 162.859 197.58 174.339 197.58C185.819 197.58 195.119 206.91 195.119 218.41Z" fill="#F8A384"/>
<path d="M337.88 218.41C337.88 229.92 334.93 242.62 346.41 242.62C364.2 242.62 375.84 228.4 375.84 216.9C375.84 205.4 370.14 197.58 358.66 197.58C347.18 197.58 337.88 206.91 337.88 218.41Z" fill="#F8A384"/>
<path d="M175.59 223.8C174.81 226.38 171.85 227.12 169.64 225.62C165.11 222.64 161.72 211.38 168.54 211.38C169.02 211.38 169.5 211.48 169.91 211.69C173.03 213.31 176.5 221.04 175.58 223.79L175.59 223.8Z" fill="#B0594D"/>
<path d="M357.409 223.8C358.189 226.38 361.149 227.12 363.359 225.62C367.889 222.64 371.279 211.38 364.459 211.38C363.979 211.38 363.499 211.48 363.079 211.69C359.959 213.31 356.489 221.04 357.409 223.79V223.8Z" fill="#B0594D"/>
<path d="M203.499 266.97C202.859 270.67 202.329 274.72 201.439 278.69C199.099 289.05 195.749 298.98 188.529 307.13C187.179 308.66 187.169 309.98 188.289 311.72C190.389 314.97 192.029 318.46 193.129 322.22C196.709 334.51 193.459 345.56 187.119 356.06C185.679 358.45 184.089 360.76 182.029 362.69C180.439 364.18 180.039 365.9 181.019 367.93C184.829 375.88 185.699 384.35 185.639 393.05C185.589 400.81 183.509 407.88 179.349 414.38C178.769 415.28 178.169 416.17 177.569 417.06C176.579 418.53 176.839 419.8 177.939 421.14C186.869 431.96 190.889 444.93 192.929 458.37C195.469 475.12 191.769 490.86 182.379 505.11C179.989 508.74 176.879 511.75 173.549 514.45C169.459 517.76 164.149 515.49 163.469 510.26C163.249 508.6 163.469 506.82 163.809 505.16C166.299 493.18 162.579 483.14 154.309 474.52C151.179 471.26 147.949 468.11 144.749 464.93C137.069 457.3 133.079 447.97 132.619 437.27C132.479 433.92 133.399 430.46 134.259 427.15C134.989 424.31 134.509 422.17 132.329 420.22C129.909 418.05 128.129 415.33 126.459 412.57C122.879 406.67 121.849 400.33 122.559 393.42C123.799 381.27 128.689 370.73 135.649 360.94C137.379 358.51 137.519 358.3 135.539 355.95C131.269 350.86 128.779 345.05 127.649 338.56C127.129 335.56 126.949 332.53 127.469 329.58C129.449 318.11 133.899 307.77 142.049 299.26C143.729 297.51 145.029 296.03 144.329 293.14C140.279 276.34 145.959 261.79 155.629 248.5C159.259 243.52 163.119 238.51 168.499 235.09C169.769 234.28 170.989 233.4 172.209 232.53C178.979 227.75 186.039 229.79 191.049 234.38C195.049 238.04 198.049 242.47 199.819 247.7C201.909 253.85 202.619 260.25 203.499 266.98V266.97Z" fill="#0D1016"/>
<path d="M166.97 261.1C161.46 270.53 160.22 282 162.03 292.67C162.61 295.92 157.89 296.89 157.16 293.67L156.72 291.44C155.56 285.47 155.82 279.22 157.19 273.3C158.52 268.07 160.53 263.09 163.88 258.77C165.46 256.86 168.36 259.06 166.97 261.1Z" fill="#555A63"/>
<path d="M184.039 277.87C180.309 283.43 178.579 290.15 178.209 296.79C178.089 298.16 176.879 299.16 175.509 299.04C172.759 298.72 173.209 295.73 173.259 293.71C173.549 288.86 175.039 284.09 177.549 279.93C178.609 278.19 179.679 276.72 181.179 275.24C181.949 274.5 183.179 274.52 183.919 275.29C184.619 276.01 184.619 277.11 184.029 277.87H184.039Z" fill="#555A63"/>
<path d="M154.07 316.45C150.4 326.74 151.28 338.24 155.03 348.39C156.2 351.48 151.74 353.3 150.43 350.27L149.59 348.16C147.35 342.5 146.46 336.32 146.71 330.24C147.05 324.85 148.11 319.58 150.61 314.72C151.83 312.56 155.05 314.16 154.08 316.44L154.07 316.45Z" fill="#555A63"/>
<path d="M173.939 329.78C172.029 334.3 171.159 339.38 171.309 344.3C171.309 345.96 171.519 347.61 171.679 349.28C171.899 350.7 170.899 352.04 169.459 352.17C166.699 352.37 166.589 349.34 166.269 347.34C165.659 342.52 166.249 337.55 167.949 333.01C168.679 331.1 169.449 329.46 170.659 327.73C171.279 326.86 172.489 326.66 173.359 327.28C174.179 327.86 174.379 328.94 173.939 329.79V329.78Z" fill="#555A63"/>
<path d="M146.06 372.28C142.39 382.57 143.27 394.07 147.02 404.22C148.19 407.31 143.73 409.13 142.42 406.1L141.58 403.99C139.34 398.33 138.45 392.15 138.7 386.07C139.04 380.68 140.11 375.41 142.6 370.55C143.82 368.39 147.05 369.99 146.07 372.27L146.06 372.28Z" fill="#555A63"/>
<path d="M165.929 385.61C164.019 390.13 163.149 395.21 163.299 400.13C163.299 401.79 163.509 403.44 163.669 405.11C163.889 406.53 162.889 407.87 161.449 408C158.689 408.2 158.579 405.17 158.259 403.17C157.649 398.35 158.239 393.38 159.939 388.84C160.669 386.93 161.439 385.29 162.649 383.56C163.269 382.69 164.479 382.49 165.349 383.11C166.169 383.69 166.369 384.77 165.929 385.62V385.61Z" fill="#555A63"/>
<path d="M135.079 422.4C148.859 425.57 163.719 423.83 176.389 417.55C177.659 416.87 179.269 417.37 179.859 418.7C180.409 419.91 179.899 421.34 178.729 421.94L176.149 423.26C170.119 426.28 163.409 428.03 156.699 428.59C148.949 429.22 141.319 428.56 133.869 426.08C132.859 425.73 132.319 424.63 132.669 423.62C133.009 422.61 134.099 422.09 135.089 422.4H135.079Z" fill="#D1883A"/>
<path d="M172.77 441.3C183.13 458.51 185.25 481.32 175.13 499.11C174.47 500.31 172.95 500.75 171.75 500.09C170.56 499.44 170.13 497.95 170.74 496.76C171.75 494.69 172.72 492.6 173.46 490.42C178.31 477.3 177.18 462.6 172.26 449.65C171.44 447.44 170.47 445.2 169.41 443.22C168.29 441.03 171.41 439.2 172.77 441.29V441.3Z" fill="#555A63"/>
<path d="M155.21 440.8C159.36 445.63 161.83 451.53 162.71 457.78C163.01 459.85 163.03 461.96 162.89 464.04C162.8 465.41 161.62 466.45 160.25 466.36C158.92 466.28 157.92 465.16 157.92 463.86C157.83 462.05 157.78 460.26 157.49 458.48C156.8 453.18 154.92 447.79 152.19 443.23C150.8 441.23 153.58 439.01 155.21 440.8Z" fill="#555A63"/>
<path d="M373.909 267.21C372.199 271.45 369.389 275.24 365.579 277.8C358.049 282.87 347.149 281.81 340.769 275.35C340.549 275.14 339.749 274.04 339.699 273.37C341.069 272.27 342.589 271.25 344.169 270.31C344.879 270.39 345.429 271.09 345.899 271.52C346.539 272.15 347.209 272.69 347.989 273.13C349.439 273.97 351.129 274.49 352.759 274.7C357.669 275.37 362.199 273.01 365.069 269.07C368.139 264.86 369.289 259.38 368.559 254.27C367.699 248.29 364.209 243.08 359.189 239.78C356.509 238.01 353.159 235.78 356.269 234.28C362.679 231.16 381.519 248.49 373.919 267.22L373.909 267.21Z" fill="#FFE9AC"/>
<path d="M159.409 267.21C161.119 271.45 163.929 275.24 167.739 277.8C175.269 282.87 186.169 281.81 192.549 275.35C192.769 275.14 193.569 274.04 193.619 273.37C192.249 272.27 190.729 271.25 189.149 270.31C188.439 270.39 187.889 271.09 187.419 271.52C186.779 272.15 186.109 272.69 185.329 273.13C183.879 273.97 182.189 274.49 180.559 274.7C175.649 275.37 171.119 273.01 168.249 269.07C165.179 264.86 164.029 259.38 164.759 254.27C165.619 248.29 169.109 243.08 174.129 239.78C176.809 238.01 180.159 235.78 177.049 234.28C170.639 231.16 151.799 248.49 159.399 267.22L159.409 267.21Z" fill="#FFE9AC"/>
<path d="M341.78 274.28C330.05 293.36 302.31 320.67 266.84 321.08H266.16C230.7 320.67 202.96 293.36 191.22 274.28C169.74 239.34 174.6 169.98 190.41 136.76C205.7 104.64 233.27 87.6201 266.16 86.9001C266.29 86.8701 266.39 86.8701 266.52 86.8701C266.62 86.8701 266.75 86.8701 266.84 86.9001C299.73 87.6201 327.31 104.64 342.59 136.76C358.4 169.98 363.26 239.34 341.77 274.28H341.78Z" fill="#F8A384"/>
<path d="M292.61 175.61C292.76 165.13 318.66 167.96 317.38 178.54C316.29 187.49 292.49 184.15 292.61 175.61Z" fill="#0D1016"/>
<path d="M215.71 178.66C213.42 168.43 239.27 165.16 240.48 175.75C241.5 184.71 217.57 187 215.71 178.66Z" fill="#0D1016"/>
<path d="M273.62 188.05C276.33 197.41 277.92 206.67 279.28 216.24C280.96 226.29 277.34 234.05 266.58 235.56C264.18 235.91 261.46 236.36 258.98 235.96C255.76 235.51 255.7 230.9 258.87 230.35C259.77 230.18 261.1 230.03 261.95 229.76C266.21 228.56 271.97 228.44 272.57 223.12C273.29 219.04 271.32 207.28 271.05 203L270.24 195.99C269.99 193.63 269.68 191.27 269.36 189C269.03 186.35 272.81 185.5 273.63 188.06L273.62 188.05Z" fill="#CC7A66"/>
<path d="M316.509 200.11C312.449 208.52 302.569 209.02 296.229 202.85C293.339 200.22 296.559 195.67 299.979 197.47C301.979 198.62 304.239 200.17 306.539 200.21C308.259 200.31 310.149 199.23 311.439 198.05C311.859 197.6 312.439 197.24 312.909 196.94C314.989 195.55 317.599 197.9 316.499 200.11H316.509Z" fill="#0D1016"/>
<path d="M240.009 200.05C235.949 208.46 226.069 208.96 219.729 202.8C216.839 200.17 220.059 195.62 223.479 197.42C225.479 198.57 227.739 200.12 230.039 200.16C231.759 200.26 233.649 199.18 234.939 198C235.359 197.55 235.939 197.19 236.409 196.89C238.489 195.5 241.099 197.85 239.999 200.06L240.009 200.05Z" fill="#0D1016"/>
<path d="M285.19 268C283.15 270.52 280.62 272.34 277.9 273.56C268 278.06 255.34 274.73 249.25 266.74C249.06 266.5 248.87 266.27 248.74 265.98C247.17 263.72 246.01 261.11 245.5 258.33C244.99 255.56 244.97 251.33 247.21 249.46C249.48 247.62 252.54 247.15 254.96 248.78C256.16 249.58 257.42 250.5 258.58 251.48C263.18 255.2 268.52 256.86 274.74 256.47C276.75 256.33 278.91 256.2 280.95 256.49C286.63 257.32 288.92 263.43 285.18 268H285.19Z" fill="#0D1016"/>
<path d="M225.32 113.31C225.76 133.64 219.65 151.27 209.56 167.68C196.34 189.17 170.84 212.94 153.59 195.04C120.62 160.81 151.72 109.65 181.91 87.4102C187.71 83.1402 194.21 80.5602 201.23 78.9902C210.37 76.9502 218.66 82.8102 221.39 90.1502C224.26 97.8802 225.87 105.81 225.33 113.3L225.32 113.31Z" fill="#0D1016"/>
<path d="M306.719 53.2601C323.479 59.6601 335.119 65.7601 352.439 86.5501C386.849 127.86 386.459 179.52 372.339 197.03C364.099 207.25 343.599 205.59 329.059 181.88C317.929 163.71 316.489 154.66 313.699 152.34C312.129 154.67 309.449 164.11 298.439 164.07C276.209 164 266.469 144.78 263.659 145.85C262.859 146.16 263.119 148.04 262.979 149.41C261.809 161.45 250.639 167.15 237.849 159.01C225.099 150.89 219.999 139.2 213.799 127.02C190.419 81.1401 245.689 29.9901 306.709 53.2601H306.719Z" fill="#0D1016"/>
<path d="M212.04 85.4199C210.96 97.9999 208.18 128.93 217.17 138.07C219.63 140.24 216.53 143.93 213.96 141.87C206.48 135.05 206.11 122.71 205.78 113.38C205.74 103.77 206.58 94.3098 208.21 84.8498C208.69 82.4098 212.3 82.9299 212.04 85.4199Z" fill="#555A63"/>
<path d="M222.3 80.6103C246.26 67.0403 275.91 62.6203 302.33 71.2203C320.82 77.3703 337.52 89.2103 348.6 105.32C364.63 128.82 369.17 158.62 365.24 186.44C364.63 189.61 359.94 188.96 360.33 185.67C361 181.34 361.31 176.72 361.42 172.21C362.27 139.37 351.14 106.24 323.17 87.1203C301.49 71.9003 274.98 67.8803 249.42 74.3203C240.74 76.4503 232.12 79.5803 224.32 83.9203C222.17 85.2203 220.08 82.0403 222.3 80.6103Z" fill="#555A63"/>
<path d="M227.339 97.65C266.119 83.56 310.99 87.39 328.229 130.21C329.06 132.6 330.539 136.02 331.089 138.47C332.319 142.48 333.259 147.07 334.079 151.17C334.679 154.48 329.789 155.4 329.179 152.05C322.379 114.89 299.979 93.54 261.379 95.16C250.369 95.63 239.139 97.71 228.739 101.26C226.389 102.16 224.909 98.64 227.329 97.65H227.339Z" fill="#555A63"/>
<path d="M232.42 119.41C257.25 110.88 287.68 114 297.18 142.17C297.64 143.46 296.97 144.89 295.68 145.35C294.39 145.82 292.97 145.14 292.5 143.86C291.4 141.19 290.24 138.54 288.65 136.19C277.42 117.84 252.29 117.78 233.69 123.07C231.28 123.85 230.01 120.32 232.42 119.41Z" fill="#555A63"/>
<path d="M189.149 100.26C174.719 120.19 162.059 146.86 162.209 171.8C162.279 175.44 162.619 179.07 163.279 182.64C163.559 184 162.659 185.34 161.299 185.59C159.969 185.84 158.689 184.97 158.409 183.64C156.769 175.92 156.659 167.96 157.669 160.17C159.779 144.74 165.699 130.21 173.309 116.76C177.099 110.18 181.219 103.75 186.059 97.8899C187.799 95.4699 191.129 97.9899 189.149 100.26Z" fill="#555A63"/>
<path d="M196.7 131C188.06 144.54 180.04 159.92 179.95 176.3C180.02 179.54 175.27 179.81 174.98 176.56C174.44 167.62 176.9 158.93 180.36 150.86C183.89 142.91 188.24 135.54 193.61 128.67C194.27 127.83 195.49 127.68 196.33 128.35C197.15 129 197.3 130.17 196.7 131.01V131Z" fill="#555A63"/>
</g>
</svg>
