<svg width="64" height="82" viewBox="0 0 64 82" fill="none" xmlns="http://www.w3.org/2000/svg">
<mask id="path-1-inside-1_1205_107625" fill="white">
<path fill-rule="evenodd" clip-rule="evenodd" d="M29.5 77.7333C41.6839 65.4919 56 41.3299 56 26.6252C56 11.9205 44.1355 0 29.5 0C14.8645 0 3 11.9205 3 26.6252C3 41.3299 15.1839 64.2677 29.5 77.7333ZM29.5 40.6333C37.5495 40.6333 44.075 34.1079 44.075 26.0583C44.075 18.0088 37.5495 11.4833 29.5 11.4833C21.4504 11.4833 14.925 18.0088 14.925 26.0583C14.925 34.1079 21.4504 40.6333 29.5 40.6333Z"/>
</mask>
<path fill-rule="evenodd" clip-rule="evenodd" d="M29.5 77.7333C41.6839 65.4919 56 41.3299 56 26.6252C56 11.9205 44.1355 0 29.5 0C14.8645 0 3 11.9205 3 26.6252C3 41.3299 15.1839 64.2677 29.5 77.7333ZM29.5 40.6333C37.5495 40.6333 44.075 34.1079 44.075 26.0583C44.075 18.0088 37.5495 11.4833 29.5 11.4833C21.4504 11.4833 14.925 18.0088 14.925 26.0583C14.925 34.1079 21.4504 40.6333 29.5 40.6333Z" fill="#D33942" fill-opacity="0.9"/>
<path d="M29.5 77.7333L28.8948 78.3768L29.5203 78.9651L30.1261 78.3565L29.5 77.7333ZM55.1167 26.6252C55.1167 33.7502 51.6266 43.3062 46.5424 52.6819C41.473 62.0305 34.896 71.0596 28.8739 77.1102L30.1261 78.3565C36.2879 72.1655 42.9609 62.9929 48.0955 53.524C53.2154 44.0823 56.8833 34.2049 56.8833 26.6252H55.1167ZM29.5 0.883333C43.6438 0.883333 55.1167 12.4044 55.1167 26.6252H56.8833C56.8833 11.4366 44.6273 -0.883333 29.5 -0.883333V0.883333ZM3.88333 26.6252C3.88333 12.4044 15.3562 0.883333 29.5 0.883333V-0.883333C14.3727 -0.883333 2.11667 11.4366 2.11667 26.6252H3.88333ZM30.1052 77.0899C23.0297 70.4348 16.4615 61.4171 11.6644 52.2349C6.85815 43.0351 3.88333 33.7727 3.88333 26.6252H2.11667C2.11667 34.1824 5.23381 43.7412 10.0985 53.0529C14.9724 62.3822 21.6542 71.5663 28.8948 78.3768L30.1052 77.0899ZM43.1917 26.0583C43.1917 33.62 37.0617 39.75 29.5 39.75V41.5167C38.0374 41.5167 44.9583 34.5957 44.9583 26.0583H43.1917ZM29.5 12.3667C37.0617 12.3667 43.1917 18.4966 43.1917 26.0583H44.9583C44.9583 17.5209 38.0374 10.6 29.5 10.6V12.3667ZM15.8083 26.0583C15.8083 18.4966 21.9383 12.3667 29.5 12.3667V10.6C20.9626 10.6 14.0417 17.5209 14.0417 26.0583H15.8083ZM29.5 39.75C21.9383 39.75 15.8083 33.62 15.8083 26.0583H14.0417C14.0417 34.5957 20.9626 41.5167 29.5 41.5167V39.75Z" fill="#D33942" fill-opacity="0.9" mask="url(#path-1-inside-1_1205_107625)"/>
<path d="M4.86716 31.9724L4.88655 32.0105L4.92343 32.0321L6.63154 33.0323L4.86106 33.9336L4.82311 33.9529L4.80152 33.9896L3.79906 35.6938L2.89993 33.9275L2.88054 33.8894L2.84366 33.8678L1.13555 32.8676L2.90601 31.9663L2.94411 31.947L2.9657 31.9101L3.96591 30.2019L4.86716 31.9724Z" fill="#292D32" stroke="#292D32" stroke-width="0.291674"/>
<path d="M36.3685 79.5H22.6309" stroke="#292D32" stroke-width="0.30528"/>
<path d="M40.6938 81.2676L18.3066 81.2676" stroke="#292D32" stroke-width="0.30528"/>
<mask id="path-6-inside-2_1205_107625" fill="white">
<path fill-rule="evenodd" clip-rule="evenodd" d="M63.6912 22.6028C60.824 22.6028 58.0298 22.0924 55.5418 21.1007C51.5079 19.4994 48.5737 16.7985 47.4916 13.6893C46.5495 10.9884 46.9257 7.6166 48.5503 4.19527C48.9401 3.37446 49.3971 2.56172 49.9143 1.76562L50.137 1.91146C49.6259 2.69761 49.1743 3.50034 48.7895 4.31193C47.197 7.6691 46.8236 10.9679 47.7424 13.6047C48.7983 16.6381 51.6771 19.2807 55.638 20.8528C58.163 21.8555 60.8907 22.3494 63.6912 22.3444V22.5678V22.6028Z"/>
</mask>
<path fill-rule="evenodd" clip-rule="evenodd" d="M63.6912 22.6028C60.824 22.6028 58.0298 22.0924 55.5418 21.1007C51.5079 19.4994 48.5737 16.7985 47.4916 13.6893C46.5495 10.9884 46.9257 7.6166 48.5503 4.19527C48.9401 3.37446 49.3971 2.56172 49.9143 1.76562L50.137 1.91146C49.6259 2.69761 49.1743 3.50034 48.7895 4.31193C47.197 7.6691 46.8236 10.9679 47.7424 13.6047C48.7983 16.6381 51.6771 19.2807 55.638 20.8528C58.163 21.8555 60.8907 22.3494 63.6912 22.3444V22.5678V22.6028Z" fill="#292D32"/>
<path d="M63.6912 22.6028H63.5453V22.7487H63.6912V22.6028ZM65.0077 22.4222C64.5669 22.4454 64.129 22.457 63.6912 22.457V22.7487C64.1342 22.7487 64.5771 22.7369 65.023 22.7135L65.0077 22.4222ZM63.837 22.6028V22.3444H63.5453V22.6028H63.837ZM63.6912 22.6028V22.8945H63.9828V22.6028H63.6912ZM55.5418 21.1007L55.6498 20.8298L55.6494 20.8296L55.5418 21.1007ZM47.4916 13.6893L47.767 13.5934L47.767 13.5932L47.4916 13.6893ZM48.5503 4.19527L48.8138 4.32038L48.8138 4.32037L48.5503 4.19527ZM48.7895 4.31193L49.053 4.43694L49.0531 4.4369L48.7895 4.31193ZM47.7424 13.6047L48.0179 13.5088L48.0178 13.5087L47.7424 13.6047ZM55.638 20.8528L55.7457 20.5817L55.7456 20.5817L55.638 20.8528ZM50.137 1.91146L50.3816 2.07044L50.54 1.82668L50.2968 1.66743L50.137 1.91146ZM49.9143 1.76562L50.074 1.52159L49.8291 1.36127L49.6697 1.60673L49.9143 1.76562ZM63.6912 22.3444H63.9828V22.0522L63.6906 22.0527L63.6912 22.3444ZM63.6912 22.3112C60.8578 22.3112 58.1006 21.8066 55.6498 20.8298L55.4338 21.3716C57.9589 22.3781 60.7902 22.8945 63.6912 22.8945V22.3112ZM55.6494 20.8296C51.6676 19.249 48.8131 16.599 47.767 13.5934L47.2161 13.7851C48.3343 16.998 51.3482 19.7498 55.4342 21.3718L55.6494 20.8296ZM47.767 13.5932C46.8575 10.9858 47.2111 7.69566 48.8138 4.32038L48.2869 4.07015C46.6404 7.53755 46.2414 10.9909 47.2162 13.7853L47.767 13.5932ZM48.526 4.18693C46.9119 7.58954 46.5155 10.97 47.467 13.7007L48.0178 13.5087C47.1318 10.9659 47.4821 7.74867 49.053 4.43694L48.526 4.18693ZM47.467 13.7006C48.559 16.8381 51.518 19.5313 55.5304 21.1239L55.7456 20.5817C51.8362 19.03 49.0375 16.4381 48.0179 13.5088L47.467 13.7006ZM49.8925 1.75248C49.3748 2.54882 48.9167 3.36288 48.526 4.18697L49.0531 4.4369C49.432 3.63779 49.8771 2.84639 50.3816 2.07044L49.8925 1.75248ZM48.8138 4.32037C49.1977 3.51193 49.6483 2.71045 50.1589 1.92452L49.6697 1.60673C49.1459 2.413 48.6825 3.23699 48.2869 4.07016L48.8138 4.32037ZM50.2968 1.66743L50.074 1.52159L49.7545 2.00966L49.9773 2.15549L50.2968 1.66743ZM55.5304 21.1239C58.092 22.1412 60.8566 22.6411 63.6917 22.636L63.6906 22.0527C60.9248 22.0576 58.2341 21.5699 55.7457 20.5817L55.5304 21.1239ZM63.3995 22.3444V22.5678H63.9828V22.3444H63.3995ZM63.9828 22.6028V22.5678H63.3995V22.6028H63.9828Z" fill="#292D32" mask="url(#path-6-inside-2_1205_107625)"/>
</svg>
