<svg width="103" height="74" viewBox="0 0 103 74" fill="none" xmlns="http://www.w3.org/2000/svg">
<rect x="6.41884" y="16.4726" width="88.0128" height="52.3008" rx="6.5664" fill="white" stroke="#3537F5" stroke-width="0.6912"/>
<path d="M10.4719 36.3947L8.49916 35.2396L7.46004 33.1983C7.43894 33.1508 7.39146 33.1244 7.33872 33.1191C7.28597 33.1191 7.2385 33.1455 7.21213 33.1877L6.05697 35.1605L4.01566 36.1996C3.96818 36.2207 3.9418 36.2681 3.93652 36.3209C3.93652 36.3736 3.9629 36.4211 4.0051 36.4475L5.97785 37.6026L7.01697 39.644C7.03807 39.6914 7.08553 39.7178 7.13827 39.7231C7.19102 39.7231 7.23323 39.6967 7.2596 39.6545L8.42002 37.6818L10.4613 36.6427C10.5088 36.6216 10.5352 36.5741 10.5405 36.5213C10.5405 36.4686 10.5141 36.4211 10.4719 36.3947Z" fill="#3238F5"/>
<path d="M6.69531 19.8711L43.2939 51.3726C46.6989 54.3034 51.721 54.3519 55.182 51.4875L93.3833 19.8711" stroke="#3537F5" stroke-width="0.864"/>
<path d="M93.6259 15.5707C93.6259 21.6256 89.8902 26.4954 83.038 26.4954C76.1857 26.4954 70.5859 21.6256 70.5859 15.5707C70.5859 9.51586 74.3666 4.60742 81.2188 4.60742C88.0711 4.60742 93.6259 9.51586 93.6259 15.5707Z" fill="#FBEBEC"/>
<path d="M93.4608 15.5707C93.4608 18.565 92.5373 21.2542 90.7792 23.1927C89.0232 25.1291 86.4224 26.3303 83.038 26.3303C76.2555 26.3303 70.751 21.5144 70.751 15.5707C70.751 12.5769 71.6855 9.87799 73.455 7.92949C75.2225 5.98318 77.8347 4.77252 81.2188 4.77252C87.9997 4.77252 93.4608 9.62564 93.4608 15.5707Z" stroke="#D33942" stroke-opacity="0.9" stroke-width="0.330197"/>
<path d="M94.6128 16.7231C94.6128 19.7151 93.644 22.4033 91.7978 24.3421C89.9529 26.2795 87.2189 27.4827 83.6606 27.4827C76.5274 27.4827 70.751 22.6598 70.751 16.7231C70.751 13.7315 71.7314 11.0336 73.5896 9.08478C75.4465 7.13742 78.1924 5.92486 81.7505 5.92486C88.882 5.92486 94.6128 10.7849 94.6128 16.7231Z" stroke="#D33942" stroke-opacity="0.9" stroke-width="0.330197"/>
<path d="M62.8559 44.9271L87.0479 69.1191" stroke="#3537F5" stroke-width="0.864"/>
<path d="M70.009 57.5996H54.457" stroke="#3537F5" stroke-width="0.3456"/>
<path d="M68.2815 59.9023L42.9375 59.9023" stroke="#3537F5" stroke-width="0.3456"/>
<path d="M35.9278 44.639L11.5918 68.543" stroke="#3537F5" stroke-width="0.864"/>
<path d="M82.7131 17.7261H81.5467V13.3197L79.7035 14.1837C79.5787 14.1357 79.4731 14.0637 79.3867 13.9677C79.3099 13.8717 79.2715 13.7517 79.2715 13.6077C79.2715 13.3293 79.4443 13.1181 79.7899 12.9741L81.8059 12.0957H82.0795C82.2715 12.0957 82.4251 12.1533 82.5403 12.2685C82.6555 12.3837 82.7131 12.5373 82.7131 12.7293V17.7261ZM81.5467 17.1501H82.7131V20.9661C82.6555 20.9853 82.5787 21.0045 82.4827 21.0237C82.3867 21.0525 82.2811 21.0669 82.1659 21.0669C81.9643 21.0669 81.8107 21.0237 81.7051 20.9373C81.5995 20.8509 81.5467 20.7165 81.5467 20.5341V17.1501Z" fill="#D33942" fill-opacity="0.9"/>
<path fill-rule="evenodd" clip-rule="evenodd" d="M101.02 63.9076C97.7741 63.9076 94.6108 63.3298 91.7942 62.2071C87.2276 60.3943 83.9058 57.3367 82.6807 53.8168C81.6142 50.7592 82.0402 46.9421 83.8794 43.0689C84.3206 42.1397 84.838 41.2196 85.4234 40.3184L85.6756 40.4835C85.097 41.3734 84.5858 42.2822 84.1501 43.201C82.3473 47.0015 81.9246 50.7361 82.9647 53.7211C84.16 57.1551 87.4191 60.1467 91.9032 61.9265C94.7617 63.0617 97.8496 63.6207 101.02 63.615V63.868V63.9076Z" fill="#3537F5"/>
<path d="M90.7117 0.15354C90.7319 0.0735089 90.8129 0.0224733 90.8946 0.0363034C90.9794 0.0509428 91.0361 0.136777 91.0182 0.220819L89.7401 6.8661C89.7223 6.95014 89.6397 7.00758 89.5556 6.98974C89.4708 6.9751 89.4141 6.88926 89.432 6.80521L90.7101 0.159949C90.7101 0.159949 90.7117 0.153547 90.7125 0.150346L90.7117 0.15354Z" fill="#D33942" fill-opacity="0.9"/>
<path d="M92.0432 8.42843C92.0432 8.42843 92.0497 8.40283 92.0602 8.38844L94.3701 4.33023C94.4128 4.25587 94.5081 4.22888 94.5857 4.27233C94.6601 4.31498 94.687 4.41035 94.6436 4.48791L92.3336 8.54612C92.291 8.62049 92.1956 8.64747 92.1181 8.60402C92.0557 8.56782 92.0262 8.49565 92.0432 8.42843Z" fill="#D33942" fill-opacity="0.9"/>
<path d="M93.6857 9.4167C93.6962 9.37508 93.7219 9.34071 93.762 9.31679L99.4301 6.12116C99.5055 6.07892 99.6007 6.10639 99.6429 6.18178C99.6852 6.25717 99.6577 6.35241 99.5823 6.39465L93.9143 9.59028C93.8389 9.63253 93.7437 9.60504 93.7014 9.52965C93.6799 9.49356 93.6768 9.45191 93.6865 9.41349L93.6857 9.4167Z" fill="#D33942" fill-opacity="0.9"/>
</svg>
