<svg width="533" height="545" viewBox="0 0 533 545" fill="none" xmlns="http://www.w3.org/2000/svg">
<mask id="mask0_472_24009" style="mask-type:luminance" maskUnits="userSpaceOnUse" x="0" y="0" width="533" height="545">
<path d="M266.5 544.98C413.684 544.98 533 422.982 533 272.49C533 121.998 413.684 0 266.5 0C119.316 0 0 121.998 0 272.49C0 422.982 119.316 544.98 266.5 544.98Z" fill="white"/>
</mask>
<g mask="url(#mask0_472_24009)">
<path d="M377.79 355.02C377.79 355.02 355.79 272.67 361.99 228.51L341.18 205.11V281.82C341.18 322.24 308.41 355.02 267.98 355.02C227.55 355.02 194.78 322.25 194.78 281.82V205.11L173.97 228.49C180.17 272.66 158.17 355.01 158.17 355.01L152.1 430.13L267.98 522.45L383.86 430.13L377.79 355.01V355.02Z" fill="#E0E9EF"/>
<path d="M267.98 523.1L267.67 522.85L151.59 430.36L151.61 430.1L157.68 354.93V354.89C157.75 354.68 163.24 334.02 167.91 308.23C172.21 284.45 176.67 251.33 173.48 228.58V228.51V228.32L173.61 228.17L195.29 203.82V281.83C195.29 301.25 202.85 319.51 216.59 333.24C230.32 346.97 248.58 354.54 268 354.54C287.42 354.54 305.68 346.98 319.41 333.24C333.14 319.51 340.71 301.25 340.71 281.83V203.82L362.51 228.32V228.59C359.31 251.33 363.77 284.46 368.08 308.24C372.75 334.03 378.24 354.7 378.3 354.9L378.32 354.99L384.41 430.38L384.2 430.54L268.02 523.11L267.98 523.1ZM152.62 429.92L267.98 521.83L383.34 429.92L377.3 355.1C377.01 354.02 371.65 333.67 367.08 308.41C362.78 284.63 358.32 251.52 361.47 228.66L341.67 206.42V281.83C341.67 301.51 334 320.02 320.09 333.94C306.17 347.86 287.67 355.52 267.98 355.52C248.29 355.52 229.79 347.85 215.87 333.94C201.95 320.02 194.29 301.52 194.29 281.83V206.42L174.49 228.66C177.64 251.53 173.19 284.63 168.88 308.41C164.31 333.67 158.94 354.02 158.66 355.1L152.62 429.92Z" fill="#E3DEDF"/>
<path d="M327.56 405.36C327.17 403.67 327.05 403.78 325.26 398.87C322.83 392.18 316 372.48 312.38 347.37C311.8 343.35 311.05 337.4 310.52 330.09C310.52 317.05 305.03 305.31 296.26 296.99C288.07 289.21 277.03 284.41 264.84 284.41C259.37 284.41 254.15 285.42 249.28 287.19C237.63 291.42 228.19 300.22 223.16 311.46C220.61 317.16 219.16 323.45 219.16 330.11V330.37C219.16 349.38 218.59 361.78 218.35 369.62C217.42 400.72 220.63 398.25 218.35 412.93C215.41 431.89 210.54 432.9 212.73 440.99C217.55 458.75 245 468.54 264.84 468.54C284.68 468.54 301.97 459.59 313.55 445.55C317.46 440.81 331.75 423.78 327.54 405.37L327.56 405.36Z" fill="#D17E79"/>
<path d="M198.33 262.65C198.33 273.37 201.08 285.21 190.38 285.21C173.8 285.21 162.96 271.96 162.96 261.24C162.96 250.52 168.27 243.24 178.96 243.24C189.65 243.24 198.32 251.93 198.32 262.65H198.33Z" fill="#D17E79"/>
<path d="M180.13 267.82C179.4 270.23 176.65 270.91 174.59 269.52C170.36 266.74 167.21 256.25 173.57 256.25C174.02 256.25 174.47 256.35 174.85 256.54C177.76 258.05 180.99 265.25 180.14 267.82H180.13Z" fill="#75363F"/>
<path d="M331.36 262.65C331.36 273.37 328.61 285.21 339.31 285.21C355.89 285.21 366.73 271.96 366.73 261.24C366.73 250.52 361.42 243.24 350.72 243.24C340.02 243.24 331.36 251.93 331.36 262.65Z" fill="#D17E79"/>
<path d="M349.559 267.82C350.289 270.23 353.039 270.91 355.099 269.52C359.329 266.74 362.479 256.25 356.119 256.25C355.669 256.25 355.219 256.35 354.839 256.54C351.929 258.05 348.699 265.25 349.549 267.82H349.559Z" fill="#75363F"/>
<path d="M337.799 309.76C336.929 311.55 336.009 313.22 335.009 314.86C324.049 332.64 298.219 358.09 265.159 358.47H264.519C231.479 358.09 205.619 332.64 194.699 314.86C193.609 313.1 192.589 311.24 191.659 309.28C175.189 275.38 180.029 216 193.929 186.71C208.189 156.78 233.889 140.92 264.519 140.25C264.649 140.22 264.749 140.22 264.869 140.22C264.969 140.22 265.059 140.22 265.159 140.25C295.829 140.92 321.519 156.78 335.749 186.71C349.749 216.13 354.529 275.95 337.799 309.76Z" fill="#D17E79"/>
<path d="M337.8 309.76C336.93 311.55 336.01 313.22 335.01 314.86C324.05 332.64 298.22 358.09 265.16 358.47H264.52C231.48 358.09 205.62 332.64 194.7 314.86C193.61 313.1 192.59 311.24 191.66 309.28C204.57 312.48 218.48 310.37 229.57 302.9C236 298.57 241.47 292.9 248.19 288.99C256.27 284.29 269.2 283.28 278.02 286.39C287.36 289.68 294.14 297.48 302.18 302.9C312.63 309.95 325.57 312.22 337.81 309.76H337.8Z" fill="#0D1016"/>
<path d="M239.18 313.36C235.42 317.54 231.19 321.16 226.29 323.96C224.17 324.9 219.19 328.21 218.03 324.54C217.72 323.36 218.39 322.16 219.52 321.77C220.97 321.21 222.45 320.5 223.91 319.68C228.41 317.17 232.63 313.94 236.69 310.75C238.41 309.41 240.6 311.73 239.18 313.36Z" fill="#555A63"/>
<path d="M252.29 322.6C249.75 327.61 246.6 332.21 242.61 336.19C240.81 337.65 236.86 342.14 234.78 338.9C234.18 337.84 234.51 336.5 235.5 335.83C236.76 334.91 238 333.84 239.19 332.67C242.88 329.08 246.12 324.85 249.2 320.72C250.51 318.98 253.23 320.65 252.28 322.6H252.29Z" fill="#555A63"/>
<path d="M298.97 313.85C302.73 317.36 306.64 320.93 310.9 323.8C312.31 324.76 313.74 325.6 315.17 326.3C317.75 327.62 316.12 331.48 313.38 330.57C306.23 327.76 300.85 322.12 296.22 316.2C294.93 314.41 297.39 312.3 298.96 313.85H298.97Z" fill="#555A63"/>
<path d="M282.62 320.44C285.47 324.72 288.46 329.1 291.94 332.87C293.09 334.13 294.29 335.28 295.52 336.28C297.73 338.13 295.23 341.56 292.8 340.02C291.08 338.92 289.66 337.58 288.34 336.19C284.57 332 281.68 327.24 279.41 322.09C279.02 321.17 279.45 320.11 280.37 319.72C281.2 319.37 282.15 319.69 282.61 320.43L282.62 320.44Z" fill="#555A63"/>
<path d="M267.62 322.6C268.49 329.39 269.27 336.62 271.15 343.17C271.51 344.4 270.8 345.69 269.57 346.04C268.43 346.37 267.23 345.78 266.78 344.71C266.01 342.88 265.54 341.04 265.14 339.2C264.08 333.73 263.75 328.24 264.01 322.68C264.07 321.68 264.92 320.92 265.92 320.98C266.82 321.03 267.53 321.73 267.62 322.6Z" fill="#555A63"/>
<path d="M289.18 222.9C289.32 213.13 313.46 215.77 312.26 225.63C311.25 233.97 289.06 230.86 289.18 222.9Z" fill="#0D1016"/>
<path d="M217.52 225.75C215.39 216.22 239.48 213.17 240.6 223.04C241.55 231.38 219.25 233.52 217.52 225.75Z" fill="#0D1016"/>
<path d="M271.48 234.5C274 243.22 275.49 251.85 276.75 260.77C278.35 270.21 274.83 277.4 264.92 278.77C262.69 279.09 260.14 279.52 257.84 279.14C254.84 278.72 254.79 274.43 257.74 273.91C258.58 273.75 259.81 273.61 260.61 273.36C264.58 272.25 269.95 272.13 270.5 267.17C271.17 263.37 269.33 252.41 269.08 248.42L268.32 241.89C268.09 239.69 267.79 237.49 267.5 235.38C267.19 232.91 270.72 232.12 271.48 234.5Z" fill="#AB5555"/>
<path d="M253.69 295.78C257.31 299.69 262.09 302.75 267.28 303.98C270.41 304.72 273.55 304.76 276.78 304.47C278.57 304.21 280.25 305.51 280.36 307.33C280.46 308.91 279.35 310.29 277.82 310.56C277.16 310.68 276.49 310.78 275.82 310.87C271.11 311.56 266.15 310.86 261.82 308.88C256.85 306.65 252.61 303.09 249.7 298.48C248.18 295.84 251.79 293.43 253.69 295.78Z" fill="#CC7A66"/>
<path d="M219.349 248.44C223.139 240.61 232.329 240.14 238.239 245.88C240.939 248.33 237.929 252.57 234.739 250.89C232.869 249.82 230.769 248.37 228.629 248.33C227.319 248.25 225.779 248.94 224.709 249.81C224.319 250.07 223.839 250.58 223.519 250.84L222.689 251.38C220.779 252.68 218.299 250.46 219.349 248.43V248.44Z" fill="#0D1016"/>
<path d="M292.17 248.51C295.96 240.68 305.15 240.21 311.06 245.95C313.76 248.4 310.75 252.64 307.56 250.96C305.69 249.89 303.59 248.44 301.45 248.4C300.14 248.32 298.6 249.01 297.53 249.88C297.14 250.14 296.66 250.65 296.34 250.91L295.51 251.45C293.6 252.75 291.12 250.53 292.17 248.5V248.51Z" fill="#0D1016"/>
<path d="M341.18 190.19C292.68 182.51 243.28 182.51 194.78 190.19C193.36 181.22 191.94 172.25 190.52 163.28C241.84 155.15 294.12 155.15 345.44 163.28C344.02 172.25 342.6 181.22 341.18 190.19Z" fill="#EBF1F4"/>
<path d="M158.17 355.02L152.1 253.08L173.97 228.51C180.17 272.67 158.17 355.02 158.17 355.02Z" fill="#EBF1F4"/>
<path d="M157.86 358.11L151.6 252.91L174.31 227.39L174.46 228.45C177.67 251.32 173.2 284.56 168.88 308.42C164.21 334.25 158.7 354.95 158.65 355.15L157.86 358.11ZM152.61 253.27L158.48 351.86C160.17 345.19 164.29 328.26 167.91 308.24C172.15 284.83 176.54 252.36 173.62 229.66L152.61 253.27Z" fill="#E3DEDF"/>
<path d="M217.269 179.85L201.469 197.6L194.779 205.12L173.969 228.5L152.099 253.08C138.979 238.43 155.129 184.34 155.129 184.34H171.799L217.259 179.84L217.269 179.85Z" fill="#F3F6F8"/>
<path d="M152.1 253.83L151.73 253.42C146.18 247.23 145 233.68 148.21 213.15C150.59 197.94 154.62 184.35 154.66 184.21L154.77 183.86H171.78L218.48 179.24L152.1 253.84V253.83ZM155.5 184.84C154.16 189.49 140.5 238.1 152.1 252.33L173.46 228.32L173.59 228.17L194.4 204.79L201.09 197.27L216.05 180.46L171.82 184.84H155.5Z" fill="#E3DEDF"/>
<path d="M377.79 355.02L383.86 253.08L361.99 228.51C355.79 272.67 377.79 355.02 377.79 355.02Z" fill="#EBF1F4"/>
<path d="M378.1 358.11L377.31 355.15C377.25 354.94 371.75 334.24 367.08 308.42C362.76 284.56 358.29 251.33 361.5 228.45L361.65 227.39L384.36 252.91V253.11L378.1 358.1V358.11ZM362.33 229.65C359.42 252.35 363.81 284.82 368.05 308.24C371.67 328.25 375.79 345.18 377.48 351.85L383.35 253.26L362.34 229.65H362.33Z" fill="#E3DEDF"/>
<path d="M318.689 179.85L334.489 197.6L341.179 205.12L361.989 228.5L383.859 253.08C396.979 238.43 380.829 184.34 380.829 184.34H364.159L318.699 179.84L318.689 179.85Z" fill="#F3F6F8"/>
<path d="M383.859 253.829L317.479 179.229L364.18 183.849H381.19L381.299 184.199C381.34 184.339 385.38 197.929 387.75 213.139C390.96 233.669 389.769 247.219 384.229 253.409L383.859 253.819V253.829ZM362.49 228.329L383.849 252.34C395.449 238.11 381.8 189.489 380.45 184.849H364.099L319.899 180.469L334.859 197.279L341.549 204.799L362.49 228.319V228.329Z" fill="#E3DEDF"/>
<path d="M330.88 141.859C318.72 151.029 285.1 151.819 267.98 152.159C250.86 151.819 217.24 151.029 205.08 141.859C203.31 140.199 203.64 138.379 204.99 136.609C204.99 136.579 205.02 136.559 205.04 136.529C205.44 136.019 205.92 135.509 206.46 135.029C206.51 134.979 206.57 134.919 206.62 134.879C206.63 134.849 206.66 134.839 206.69 134.809C206.85 134.689 207.01 134.559 207.16 134.409C207.33 134.289 207.5 134.159 207.67 134.029C209.4 132.789 211.15 131.629 212.89 130.559H212.9C213.78 129.989 214.67 129.469 215.55 128.979C242.14 113.709 267.96 115.689 267.96 115.689C267.96 115.689 293.78 113.709 320.37 128.979C321.25 129.469 322.14 129.999 323.02 130.559H323.03C324.77 131.629 326.52 132.789 328.25 134.029C328.42 134.159 328.59 134.289 328.76 134.409C328.92 134.559 329.08 134.689 329.23 134.809C329.26 134.839 329.28 134.849 329.3 134.879C329.35 134.919 329.41 134.969 329.46 135.029C330 135.519 330.49 136.019 330.88 136.529C330.91 136.559 330.93 136.579 330.93 136.609C332.28 138.379 332.61 140.199 330.84 141.859H330.88Z" fill="white"/>
<path d="M267.989 152.66C251.499 152.33 217.229 151.64 204.789 142.26L204.749 142.23C203.519 141.08 202.499 139.13 204.559 136.38C204.599 136.31 204.639 136.25 204.679 136.22C205.059 135.73 205.539 135.22 206.139 134.68C206.179 134.64 206.229 134.59 206.279 134.54C206.309 134.5 206.339 134.48 206.359 134.47L206.409 134.43C206.549 134.32 206.699 134.2 206.849 134.07L206.899 134.03C207.059 133.92 207.229 133.79 207.389 133.67C209.099 132.44 210.869 131.27 212.659 130.17L212.789 130.1C213.639 129.56 214.499 129.05 215.349 128.58C229.149 120.66 242.729 117.45 251.699 116.15C261.039 114.8 267.459 115.19 268.009 115.22C268.559 115.18 274.979 114.8 284.319 116.15C293.289 117.45 306.869 120.66 320.669 128.59C321.519 129.06 322.389 129.58 323.249 130.13L323.349 130.18C325.139 131.28 326.909 132.45 328.599 133.67C328.779 133.81 328.939 133.93 329.109 134.05L329.159 134.09C329.309 134.22 329.449 134.35 329.599 134.45L329.649 134.5C329.649 134.5 329.689 134.53 329.719 134.57C329.769 134.61 329.819 134.66 329.859 134.71C330.459 135.25 330.929 135.75 331.319 136.25C331.349 136.29 331.399 136.34 331.439 136.41C333.499 139.16 332.469 141.11 331.249 142.26L331.209 142.29C318.759 151.67 284.489 152.36 268.019 152.69L267.989 152.66ZM205.399 141.49C217.609 150.67 251.629 151.35 267.989 151.67C284.319 151.34 318.349 150.66 330.559 141.49C331.939 140.17 331.949 138.72 330.579 136.92L330.479 136.78C330.139 136.34 329.709 135.89 329.169 135.41L329.149 135.39C329.149 135.39 329.079 135.32 329.039 135.29L328.949 135.22V135.19C328.789 135.08 328.639 134.95 328.489 134.82C328.319 134.7 328.159 134.57 327.989 134.45C326.359 133.28 324.649 132.15 322.919 131.08L322.779 131C321.909 130.44 321.029 129.91 320.159 129.43C293.999 114.4 268.279 116.18 268.019 116.2H267.979H267.939C267.879 116.2 261.399 115.73 251.779 117.12C242.909 118.41 229.469 121.59 215.809 129.43C214.929 129.91 214.049 130.44 213.179 131L213.039 131.08C211.309 132.15 209.599 133.28 207.969 134.46C207.809 134.58 207.639 134.71 207.479 134.83C207.329 134.96 207.179 135.09 207.029 135.2V135.23L206.919 135.3C206.879 135.33 206.849 135.36 206.809 135.4L206.789 135.42C206.249 135.91 205.819 136.36 205.479 136.79L205.379 136.93C204.009 138.73 204.009 140.19 205.399 141.5V141.49Z" fill="#E3DEDF"/>
<path d="M364.15 184.35L318.69 179.85H300.36C297.79 179.85 295.26 180.39 292.91 181.43L278.49 187.81L272.03 190.67C269.46 191.82 266.5 191.82 263.93 190.67L258.86 188.42L243.05 181.42C240.71 180.38 238.17 179.84 235.6 179.84H217.27L171.81 184.34L196.23 148.85L199.79 143.68L201.39 141.35L204.65 136.63L205.15 135.9C205.82 135.39 206.49 134.88 207.17 134.42C207.01 134.57 206.85 134.7 206.69 134.82C206.66 134.84 206.64 134.86 206.62 134.88C206.57 134.92 206.52 134.97 206.46 135.03C205.92 135.52 205.43 136.02 205.04 136.54C205.01 136.56 204.99 136.59 204.99 136.62C203.64 138.39 203.31 140.2 205.08 141.87C217.24 151.04 250.86 151.83 267.98 152.17C285.1 151.83 318.72 151.04 330.88 141.87C332.65 140.21 332.32 138.39 330.97 136.62C330.97 136.59 330.94 136.57 330.92 136.54C330.52 136.03 330.04 135.52 329.5 135.03C329.45 134.98 329.39 134.92 329.34 134.88C329.34 134.86 329.3 134.84 329.28 134.82C329.12 134.7 328.96 134.57 328.8 134.42C329.47 134.88 330.14 135.39 330.82 135.9L331.32 136.63L334.58 141.35L336.18 143.68L339.74 148.85L364.16 184.34L364.15 184.35Z" fill="#FCFFFB"/>
<path d="M267.98 192.03C266.53 192.03 265.08 191.73 263.73 191.13L242.85 181.88C240.54 180.86 238.11 180.34 235.6 180.34H217.29L170.79 184.94L204.78 135.55L204.84 135.5C205.49 135 206.19 134.48 206.88 134.01L207.49 134.78C207.32 134.94 207.16 135.07 207 135.19V135.21L206.92 135.27C206.88 135.3 206.85 135.34 206.81 135.38L206.79 135.4C206.26 135.88 205.82 136.34 205.48 136.78L205.38 136.92C204.01 138.72 204.01 140.17 205.4 141.49C217.61 150.67 251.63 151.35 267.99 151.68C284.33 151.35 318.35 150.67 330.56 141.49C331.94 140.17 331.95 138.72 330.58 136.92L330.48 136.78C330.13 136.33 329.69 135.87 329.17 135.4L329.15 135.38C329.15 135.38 329.07 135.3 329.05 135.28L328.93 135.2V135.17C328.75 135.04 328.6 134.91 328.46 134.78L329.08 134.01C329.78 134.49 330.49 135.03 331.12 135.5L331.18 135.55L340.14 148.57L365.17 184.94L318.67 180.34H300.36C297.86 180.34 295.42 180.86 293.11 181.88L272.24 191.13C270.89 191.73 269.44 192.03 267.99 192.03H267.98ZM217.24 179.35H235.6C238.24 179.35 240.82 179.9 243.25 180.98L264.13 190.23C266.58 191.32 269.38 191.32 271.83 190.23L292.7 180.98C295.14 179.9 297.71 179.35 300.35 179.35H318.73L363.13 183.75L335.75 143.96L332.57 139.33C332.58 140.57 331.93 141.53 331.2 142.22L331.16 142.25C318.71 151.63 284.44 152.32 267.98 152.65C251.49 152.32 217.22 151.63 204.78 142.25L204.74 142.22C204.01 141.54 203.36 140.58 203.37 139.34L196.64 149.13L172.82 183.74L217.24 179.34V179.35Z" fill="#E3DEDF"/>
<path d="M339.73 148.85C337.7 153.9 332.11 158.91 323.6 162.65C306.51 170.11 287.12 173.14 267.98 173.24C248.84 173.13 229.46 170.11 212.36 162.65C203.85 158.92 198.26 153.91 196.23 148.85C194.29 144.02 195.62 139.17 200.79 135.4C200.95 135.29 201.09 135.18 201.24 135.06C201.37 134.97 201.49 134.89 201.62 134.81C201.66 134.78 201.71 134.74 201.75 134.72C201.97 134.56 202.21 134.42 202.44 134.27C203.19 133.82 204 133.4 204.87 132.99C205.6 132.63 206.32 132.34 207.06 132.07C207.21 132 207.35 131.95 207.5 131.91C209.24 131.26 211.17 130.68 213.3 130.21C213.18 130.28 213.05 130.36 212.93 130.45H212.92C212.38 130.81 211.76 131.2 211.11 131.65C211.02 131.7 210.93 131.77 210.85 131.81C209.85 132.48 208.77 133.23 207.68 134.05C207.6 134.12 207.51 134.17 207.42 134.23C207.33 134.3 207.25 134.36 207.17 134.43C207.01 134.58 206.85 134.71 206.7 134.83C206.67 134.86 206.65 134.87 206.63 134.9C206.14 135.28 205.68 135.69 205.23 136.1C205.06 136.25 204.9 136.39 204.76 136.54C204.72 136.58 204.69 136.61 204.65 136.65C204.18 137.12 203.71 137.61 203.3 138.11C203.27 138.14 203.25 138.18 203.23 138.2C202.4 139.22 201.75 140.28 201.38 141.37C200.85 142.93 200.93 144.52 201.92 146.13C209.53 155.32 233.55 157.84 245.36 159.12C252.88 159.79 260.42 160.18 267.97 160.25C275.51 160.17 283.06 159.79 290.58 159.12C302.4 157.84 326.41 155.32 334.02 146.13C335.01 144.52 335.09 142.93 334.56 141.37C334.19 140.29 333.54 139.22 332.71 138.2C332.7 138.17 332.67 138.13 332.64 138.11C332.23 137.61 331.77 137.12 331.29 136.65C331.25 136.61 331.22 136.58 331.18 136.54C331.03 136.39 330.88 136.25 330.71 136.1C330.26 135.69 329.8 135.28 329.31 134.9C329.3 134.87 329.27 134.86 329.24 134.83C329.08 134.71 328.92 134.58 328.77 134.43C328.69 134.36 328.61 134.3 328.52 134.23C328.43 134.16 328.34 134.11 328.26 134.05C327.18 133.23 326.1 132.48 325.09 131.81C325.01 131.77 324.92 131.7 324.83 131.65C324.18 131.2 323.56 130.81 323.02 130.45H323.01C322.89 130.36 322.76 130.28 322.64 130.21C324.78 130.68 326.7 131.27 328.44 131.91C328.59 131.95 328.73 132 328.88 132.07C329.62 132.35 330.34 132.64 331.07 132.99C331.94 133.4 332.75 133.82 333.5 134.27C333.72 134.42 333.96 134.56 334.19 134.72C334.23 134.75 334.28 134.79 334.32 134.81C334.45 134.89 334.57 134.97 334.7 135.06C334.85 135.18 334.99 135.3 335.15 135.4C340.32 139.17 341.65 144.03 339.71 148.85H339.73Z" fill="#1D1D1B"/>
<path d="M336.17 143.68C335.93 144.21 335.64 144.74 335.27 145.29C329.85 152.11 321.28 154.79 313.36 157.36C298.58 161.53 283.29 163.32 267.98 163.43C252.67 163.32 237.38 161.53 222.6 157.36C214.69 154.79 206.11 152.11 200.69 145.29C200.32 144.74 200.03 144.21 199.79 143.68C198.1 140.03 199.21 137.07 201.62 134.8C202.06 134.38 202.53 133.98 203.04 133.61C203.21 133.5 203.37 133.39 203.54 133.28C203.75 133.12 203.98 132.99 204.21 132.84C204.96 132.39 205.74 131.97 206.57 131.61C207.27 131.28 207.98 130.99 208.69 130.73C208.84 130.66 208.98 130.61 209.11 130.57C210.92 129.94 212.74 129.48 214.39 129.17H214.4C214.8 129.09 215.18 129.02 215.55 128.97C214.67 129.46 213.78 129.99 212.9 130.55H212.89C212.31 130.89 211.7 131.25 211.1 131.62C211.01 131.67 210.92 131.74 210.84 131.78C209.65 132.53 208.45 133.34 207.41 134.21C207.32 134.28 207.24 134.34 207.16 134.41C207.08 134.46 207 134.53 206.92 134.59C206.83 134.67 206.75 134.74 206.68 134.8C206.65 134.83 206.63 134.84 206.61 134.87C206.56 134.91 206.5 134.96 206.45 135.02C205.91 135.51 205.42 136.01 205.03 136.52C205 136.55 204.98 136.57 204.98 136.6C203.63 138.37 203.3 140.19 205.07 141.85C217.23 151.02 250.85 151.81 267.97 152.15C285.09 151.81 318.71 151.02 330.87 141.85C332.64 140.19 332.31 138.37 330.96 136.6C330.96 136.57 330.93 136.55 330.91 136.52C330.51 136.01 330.03 135.5 329.49 135.02C329.44 134.97 329.38 134.91 329.33 134.87C329.32 134.84 329.29 134.83 329.26 134.8C329.19 134.73 329.11 134.67 329.02 134.59C328.94 134.52 328.86 134.46 328.78 134.41C328.7 134.34 328.62 134.28 328.53 134.21C327.49 133.34 326.29 132.53 325.1 131.78C325.02 131.74 324.93 131.67 324.84 131.62C324.23 131.25 323.63 130.89 323.05 130.55H323.04C322.16 129.98 321.27 129.46 320.39 128.97C320.76 129.02 321.14 129.09 321.54 129.17H321.55C323.2 129.47 325.02 129.93 326.83 130.57C326.96 130.61 327.11 130.66 327.25 130.73C327.96 130.99 328.67 131.28 329.37 131.61C330.2 131.97 330.98 132.39 331.73 132.84C331.97 132.99 332.19 133.12 332.4 133.28C332.57 133.39 332.73 133.5 332.9 133.61C333.41 133.98 333.89 134.37 334.32 134.8C336.73 137.07 337.84 140.02 336.15 143.68H336.17Z" fill="#242422"/>
<path d="M311.08 501.1C311.08 501.1 368.32 393.64 380.45 307.63C380.45 307.63 424.9 455.98 311.08 501.1Z" fill="white"/>
<path d="M310.01 502.05L310.64 500.86C310.78 500.59 325.13 473.58 340.76 436.41C349.94 414.58 357.77 393.58 364.02 373.98C371.83 349.49 377.19 327.14 379.95 307.55L380.27 305.31L380.92 307.47C381.03 307.84 392.02 345.13 388.94 387.46C387.13 412.34 380.88 434.08 370.36 452.07C357.21 474.57 337.33 491.21 311.26 501.55L310.01 502.05ZM380.6 310.03C377.74 329.11 372.49 350.72 364.97 374.29C358.71 393.92 350.87 414.95 341.68 436.81C327.88 469.61 315.08 494.52 312.15 500.14C337.39 489.86 356.68 473.53 369.51 451.6C379.95 433.75 386.15 412.16 387.96 387.44C390.6 351.23 382.9 318.72 380.61 310.04L380.6 310.03Z" fill="#E3DEDF"/>
<path d="M488.23 556.48H44.7598C44.7598 478.63 104.62 455.47 104.62 455.47L217.52 393.39V367.16C232.14 369.52 246.78 370.85 261.44 371.13C264.81 371.2 268.19 371.21 271.56 371.14C286.18 370.92 300.82 369.62 315.47 367.15V393.38L428.37 455.46C428.37 455.46 488.23 478.62 488.23 556.47V556.48Z" fill="white"/>
<path d="M488.74 556.98H44.2598V556.47C44.2598 538.65 47.4198 522.22 53.6498 507.65C58.6398 495.99 65.5998 485.48 74.3298 476.43C88.8598 461.36 103.6 455.33 104.41 455.01L217.02 393.09V366.56L217.61 366.65C232.2 369 246.95 370.34 261.46 370.62C265.08 370.69 268.38 370.7 271.56 370.63C286.24 370.41 300.99 369.07 315.39 366.65L315.98 366.55V393.08L428.59 455C429.39 455.32 444.14 461.35 458.67 476.42C467.4 485.48 474.36 495.98 479.35 507.64C485.58 522.21 488.74 538.64 488.74 556.46V556.97V556.98ZM45.2698 555.97H487.73C487.67 538.49 484.54 522.38 478.43 508.08C473.49 496.53 466.61 486.13 457.97 477.17C443.25 461.89 428.34 456 428.19 455.95L428.13 455.92L314.97 393.69V367.76C300.7 370.13 286.1 371.44 271.57 371.66C268.38 371.72 265.07 371.72 261.43 371.65C247.07 371.37 232.47 370.07 218.02 367.76V393.7L104.8 455.95C104.65 456.01 89.7398 461.9 75.0198 477.17C66.3798 486.14 59.4998 496.54 54.5598 508.08C48.4498 522.38 45.3198 538.49 45.2598 555.97H45.2698Z" fill="#E3DEDF"/>
<path d="M255.21 407.71H254.2V588.24H255.21V407.71Z" fill="#E3DEDF"/>
<path d="M278.789 407.71H277.779V588.24H278.789V407.71Z" fill="#E3DEDF"/>
<path d="M45.2698 588.249H44.2598V556.479C44.2598 538.659 47.4198 522.229 53.6498 507.659C58.6398 495.999 65.5998 485.489 74.3298 476.439C88.8598 461.369 103.6 455.339 104.41 455.019L217.28 392.949L228.21 386.939L228.7 387.829L217.77 393.839L104.84 455.939H104.81C104.66 456.009 89.7498 461.899 75.0298 477.179C66.3898 486.149 59.5098 496.549 54.5698 508.089C48.3998 522.529 45.2698 538.809 45.2698 556.489V588.259V588.249Z" fill="#E3DEDF"/>
<path d="M488.74 588.249H487.73V556.479C487.73 538.799 484.6 522.519 478.43 508.079C473.49 496.529 466.61 486.129 457.97 477.169C443.25 461.889 428.34 455.999 428.19 455.949L428.13 455.919L315.23 393.839L304.3 387.829L304.79 386.939L315.72 392.949L428.59 455.019C429.39 455.339 444.14 461.369 458.67 476.439C467.4 485.499 474.36 495.999 479.35 507.659C485.58 522.229 488.74 538.659 488.74 556.479V588.249Z" fill="#E3DEDF"/>
<path d="M421.5 520.14L422.25 588.24H420.75L421.5 520.14Z" fill="#E3DEDF"/>
<path d="M267.179 371.14L249.209 407.71C238.709 406.62 218.739 401.88 208.109 398.56L217.519 367.15C232.139 369.51 252.519 370.85 267.169 371.13L267.179 371.14Z" fill="white"/>
<path d="M249.509 408.25L249.159 408.21C239.029 407.16 219.05 402.5 207.96 399.04L207.479 398.89L217.159 366.58L217.599 366.65C233.289 369.18 254.12 370.37 267.18 370.62L267.969 370.64L249.5 408.24L249.509 408.25ZM208.74 398.23C219.74 401.62 238.879 406.07 248.919 407.17L266.38 371.63C253.37 371.35 233.259 370.17 217.889 367.73L208.75 398.23H208.74Z" fill="#E3DEDF"/>
<path d="M315.47 367.16L325.72 399.03C315.2 402.16 294.37 406.45 283.74 407.6L267.18 371.14C281.8 370.92 300.83 369.62 315.47 367.16Z" fill="white"/>
<path d="M283.429 408.14L283.279 407.81L266.399 370.64H267.169C280.209 370.44 299.719 369.29 315.389 366.65L315.819 366.58L326.369 399.36L325.869 399.51C315.119 402.7 294.279 406.96 283.799 408.1L283.439 408.14H283.429ZM267.949 371.63L284.039 407.06C294.419 405.88 314.359 401.82 325.079 398.69L315.119 367.73C299.779 370.27 280.899 371.41 267.949 371.63Z" fill="#E3DEDF"/>
<path d="M283.74 407.6C278.01 408.23 272.27 408.57 266.49 408.6C260.75 408.61 254.98 408.33 249.2 407.71L267.17 371.14C263.8 371.21 270.54 371.21 267.17 371.14L283.73 407.6H283.74Z" fill="#F3F6F8"/>
<path d="M266.11 409.11C260.38 409.11 254.68 408.81 249.15 408.22L248.43 408.14L266.34 371.69C266.04 371.68 265.7 371.61 265.69 371.18C265.69 370.68 266.18 370.66 266.4 370.66C266.51 370.66 266.66 370.66 266.85 370.65H267.16H267.48C267.67 370.65 267.82 370.65 267.92 370.66C268.13 370.66 268.63 370.69 268.63 371.18C268.63 371.62 268.26 371.68 267.96 371.69L284.47 408.03L283.78 408.11C278.02 408.75 272.2 409.08 266.48 409.11C266.35 409.11 266.22 409.11 266.09 409.11H266.11ZM249.98 407.29C255.37 407.84 260.93 408.1 266.49 408.1C271.94 408.07 277.49 407.77 282.99 407.18L267.16 372.33L249.98 407.29Z" fill="#E3DEDF"/>
<path d="M384.139 515.6H315.649V597.35H384.139V515.6Z" fill="white"/>
<path d="M384.649 597.86H315.149V515.1H384.649V597.86ZM316.159 596.85H383.639V516.11H316.159V596.85Z" fill="#E3DEDF"/>
<path d="M384.139 515.6V537.94H356.339L349.889 531.49L343.449 537.94H315.649V515.6H384.139Z" fill="white"/>
<path d="M384.649 538.44H356.139L349.899 532.2L343.659 538.44H315.149V515.09H384.649V538.44ZM356.549 537.43H383.639V516.1H316.159V537.43H343.249L349.909 530.77L356.569 537.43H356.549Z" fill="#E3DEDF"/>
</g>
</svg>
