<svg width="533" height="545" viewBox="0 0 533 545" fill="none" xmlns="http://www.w3.org/2000/svg">
<mask id="mask0_472_24014" style="mask-type:luminance" maskUnits="userSpaceOnUse" x="0" y="0" width="533" height="545">
<path d="M266.5 544.98C413.684 544.98 533 422.982 533 272.49C533 121.998 413.684 0 266.5 0C119.316 0 0 121.998 0 272.49C0 422.982 119.316 544.98 266.5 544.98Z" fill="white"/>
</mask>
<g mask="url(#mask0_472_24014)">
<path d="M180.46 468.98C177.78 476 174.51 482.67 170.59 488.79C161.34 503.47 148.58 514.86 132.25 519.4C132.11 519.43 131.94 519.47 131.8 519.5C92.5603 530.19 36.8203 516.54 36.8203 516.54C37.2303 505.78 38.7503 495.74 41.1903 486.45C42.0903 483.05 43.0503 479.74 44.1803 476.55C44.3203 476.1 44.4903 475.62 44.6603 475.17C67.6303 410.87 134.96 383.29 171.07 367.95C171.21 368.02 171.31 368.12 171.45 368.19C191.94 381.12 195.45 429.88 180.46 468.98Z" fill="#DFEE95"/>
<path d="M496.201 516.54C496.201 516.54 440.421 530.19 401.191 519.5C401.051 519.47 400.911 519.43 400.781 519.4C381.491 514.04 367.181 499.08 357.691 480.47C355.801 476.79 354.081 472.94 352.571 468.98C337.581 429.88 341.081 381.12 361.581 368.19C361.721 368.12 361.821 368.02 361.961 367.95C378.841 375.14 402.581 385.02 425.411 400.08C425.411 400.08 425.411 400.08 425.411 400.07C425.821 400.35 426.241 400.62 426.681 400.9C427.161 401.24 427.681 401.55 428.191 401.93C455.871 420.74 481.771 447.43 491.841 486.45C494.281 495.74 495.791 505.78 496.211 516.54H496.201Z" fill="#DFEE95"/>
<path d="M404.181 456.36C404.011 474.59 403.181 495.84 401.191 519.5C398.231 554.3 392.701 594.26 382.971 637.35C363.401 724.18 361.171 754.03 266.811 759.25V759.28C266.401 759.25 266.611 759.25 266.191 759.28V759.25C171.831 754.02 169.661 724.35 150.031 637.35C140.301 594.26 134.761 554.3 131.811 519.5C130.781 507.02 130.021 495.22 129.541 484.18C126.961 424.21 131.781 386.66 131.781 386.66C146.121 378.96 159.081 372.91 171.461 368.19C180.611 364.68 189.481 361.93 198.351 359.8C219.291 354.75 240.441 352.96 266.201 352.65H266.821C303.581 353.06 330.891 356.54 361.591 368.19C373.971 372.9 386.901 378.95 401.241 386.66C401.241 386.66 404.611 412.83 404.201 456.36H404.181Z" fill="#DFEE95"/>
<path d="M407.64 430.89C408.57 453.16 408.06 475.43 406.23 497.64C405.61 505.04 404.71 512.43 403.65 519.8C403.45 521.16 402.19 522.1 400.83 521.91C399.48 521.72 398.54 520.47 398.72 519.12C400.48 504.57 401.74 489.8 402.52 475.17C403.32 460.48 403.74 445.72 403.77 431.01C403.78 428.52 407.47 428.36 407.64 430.9V430.89Z" fill="#85D4FF"/>
<path d="M129.23 431C129.29 453.07 130.13 475.19 132.01 497.19C132.6 504.32 133.43 512.09 134.28 519.17C134.57 522.36 129.89 523 129.35 519.8C127.18 505.09 125.97 490.26 125.38 475.41C124.8 460.56 124.7 445.75 125.35 430.89C125.51 428.4 129.2 428.46 129.22 431H129.23Z" fill="#85D4FF"/>
<path d="M195.12 218.26C195.12 229.77 198.07 242.47 186.59 242.47C168.8 242.47 157.16 228.25 157.16 216.75C157.16 205.25 162.86 197.43 174.34 197.43C185.82 197.43 195.12 206.76 195.12 218.26Z" fill="#F5DCCB"/>
<path d="M175.591 223.8C174.811 226.38 171.851 227.12 169.641 225.62C165.111 222.64 161.721 211.38 168.541 211.38C169.021 211.38 169.501 211.48 169.911 211.69C173.031 213.31 176.501 221.04 175.581 223.79L175.591 223.8Z" fill="#BF6A49"/>
<path d="M337.88 218.26C337.88 229.77 334.93 242.47 346.41 242.47C364.2 242.47 375.84 228.25 375.84 216.75C375.84 205.25 370.14 197.43 358.66 197.43C347.18 197.43 337.88 206.76 337.88 218.26Z" fill="#F5DCCB"/>
<path d="M357.41 223.8C358.19 226.38 361.15 227.12 363.36 225.62C367.89 222.64 371.28 211.38 364.46 211.38C363.98 211.38 363.5 211.48 363.08 211.69C359.96 213.31 356.49 221.04 357.41 223.79V223.8Z" fill="#BF6A49"/>
<path d="M334.26 371.42C334.26 408.83 303.93 439.2 266.52 439.2C229.11 439.2 198.74 408.84 198.74 371.42C198.74 362.41 200.49 353.81 203.73 345.94C203.83 345.63 203.93 345.32 204.07 345.05C209.78 328.89 213.36 317.85 215.07 308.84C216.31 302.31 216.82 297.11 217.48 290.92V290.65C217.48 263.55 239.42 241.61 266.52 241.61C293.62 241.61 315.52 263.55 315.52 290.65C316.21 296.94 316.72 302.2 318 308.84C319.75 318.02 323.4 329.3 329.31 345.94C332.51 353.82 334.26 362.41 334.26 371.42Z" fill="#F5DCCB"/>
<path d="M285.135 335.931C310.181 325.654 322.154 297.018 311.876 271.972C301.599 246.925 272.963 234.953 247.917 245.23C222.871 255.507 210.898 284.143 221.175 309.189C231.453 334.236 260.088 346.208 285.135 335.931Z" fill="#F5DCCB"/>
<path d="M295.269 432.748C329.161 416.865 343.759 376.516 327.876 342.624C311.993 308.733 271.643 294.135 237.752 310.018C203.861 325.901 189.262 366.251 205.145 400.142C221.028 434.033 261.378 448.631 295.269 432.748Z" fill="#F5DCCB"/>
<path d="M341.781 274.28C330.051 293.36 302.311 320.67 266.841 321.08H266.161C230.701 320.67 202.961 293.36 191.221 274.28C169.741 239.34 174.601 169.98 190.411 136.76C205.701 104.64 233.271 87.6201 266.161 86.9001C266.291 86.8701 266.391 86.8701 266.521 86.8701C266.621 86.8701 266.751 86.8701 266.841 86.9001C299.731 87.6201 327.311 104.64 342.591 136.76C358.401 169.98 363.261 239.34 341.771 274.28H341.781Z" fill="#F5DCCB"/>
<path d="M292.61 166.15C292.76 155.67 318.66 158.5 317.38 169.08C316.29 178.03 292.49 174.69 292.61 166.15Z" fill="#908B8F"/>
<path d="M215.71 169.2C213.42 158.97 239.27 155.7 240.48 166.29C241.5 175.25 217.57 177.54 215.71 169.2Z" fill="#908B8F"/>
<path d="M273.621 188.05C276.331 197.41 277.921 206.67 279.281 216.24C280.961 226.29 277.341 234.05 266.581 235.56C264.181 235.91 261.451 236.36 258.981 235.96C255.761 235.51 255.701 230.9 258.881 230.35C259.781 230.18 261.111 230.03 261.961 229.76C266.221 228.56 271.991 228.44 272.581 223.12C273.301 219.04 271.331 207.28 271.061 203L270.251 195.99C270.001 193.63 269.691 191.27 269.371 189C269.041 186.35 272.821 185.5 273.641 188.06L273.621 188.05Z" fill="#E0A080"/>
<path d="M310.41 206.41C309.61 209.82 307.4 211.85 304.61 211.72C298.53 211.44 296.46 202.9 299.27 198.36C301.97 194 308.47 195.31 310.06 199.89C310.77 201.93 310.9 204.32 310.41 206.41Z" fill="#0D1016"/>
<path d="M233.441 206.41C232.641 209.82 230.431 211.85 227.641 211.72C221.561 211.44 219.491 202.9 222.301 198.36C225.001 194 231.501 195.31 233.091 199.89C233.801 201.93 233.931 204.32 233.441 206.41Z" fill="#0D1016"/>
<path d="M254.531 253.81C258.411 258.01 263.551 261.27 269.121 262.61C272.481 263.41 275.841 263.45 279.321 263.13C281.241 262.85 283.051 264.24 283.161 266.2C283.271 267.9 282.071 269.38 280.431 269.67C279.721 269.8 279.011 269.91 278.291 270.01C273.241 270.75 267.921 269.99 263.261 267.88C257.921 265.5 253.381 261.65 250.261 256.71C248.631 253.88 252.501 251.29 254.541 253.81H254.531Z" fill="#0D1016"/>
<path d="M214.22 162.75C207.91 168.48 203.64 166.78 202.82 172.22C201.92 178.2 200.53 184.1 197.37 189.32C191.22 199.46 179.68 207.88 168.13 204.97C144.26 198.96 138.49 165.17 170.4 144.49C173.36 142.57 172.99 141.65 171.32 137.94C164.82 123.54 174.46 104.91 190.6 101.19C225.89 93.0604 235.94 143 214.22 162.73V162.75Z" fill="#908B8F"/>
<path d="M192.37 113.82C209.33 118.46 216.51 133.54 209.66 149.67C209.14 150.94 207.68 151.55 206.41 151.02C205.19 150.52 204.58 149.15 205 147.91C206.55 143.3 207.48 138.63 206.68 133.9C205.46 126.03 198.51 120.24 191.34 117.56C188.96 116.79 189.91 113.27 192.35 113.82H192.37Z" fill="#575155"/>
<path d="M169.72 153.371C186.68 158.011 193.86 173.091 187.01 189.221C186.49 190.491 185.03 191.101 183.76 190.571C182.54 190.071 181.93 188.701 182.35 187.461C183.9 182.851 184.83 178.181 184.03 173.451C182.81 165.581 175.86 159.791 168.69 157.111C166.31 156.341 167.26 152.821 169.7 153.371H169.72Z" fill="#575155"/>
<path d="M182.41 125.99C187.96 128.54 191.93 133.64 193.26 139.55C193.66 141.54 193.71 143.58 193.48 145.55C193.32 146.91 192.09 147.89 190.72 147.73C189.4 147.58 188.47 146.42 188.52 145.14C188.55 142.07 188 139.14 186.6 136.4C185.23 133.67 183.01 131.11 180.53 129.35C178.65 128.01 180.31 125.09 182.41 125.99Z" fill="#575155"/>
<path d="M159.231 167.73C164.781 170.28 168.751 175.38 170.081 181.29C170.481 183.28 170.531 185.32 170.301 187.29C170.141 188.65 168.911 189.63 167.541 189.47C166.221 189.32 165.291 188.16 165.341 186.88C165.371 183.81 164.821 180.88 163.421 178.14C162.051 175.41 159.831 172.85 157.351 171.09C155.471 169.75 157.131 166.83 159.231 167.73Z" fill="#575155"/>
<path d="M318.781 162.75C325.091 168.48 329.361 166.78 330.181 172.22C331.081 178.2 332.471 184.1 335.631 189.32C341.781 199.46 353.331 207.88 364.871 204.97C388.741 198.96 394.511 165.17 362.601 144.49C359.641 142.57 360.011 141.65 361.681 137.94C368.181 123.54 358.541 104.91 342.401 101.19C307.111 93.0604 297.061 143 318.781 162.73V162.75Z" fill="#908B8F"/>
<path d="M341.65 117.56C333.7 120.45 326.32 127.31 326.04 136.18C325.88 140.17 326.66 144.03 328 147.92C328.96 150.95 324.62 152.59 323.34 149.67C316.49 133.53 323.68 118.46 340.63 113.82C343.08 113.28 344.02 116.79 341.64 117.56H341.65Z" fill="#575155"/>
<path d="M364.291 157.11C356.341 160 348.961 166.86 348.681 175.73C348.521 179.72 349.301 183.58 350.641 187.47C351.601 190.5 347.261 192.14 345.981 189.22C339.131 173.08 346.321 158.01 363.271 153.37C365.721 152.83 366.661 156.34 364.281 157.11H364.291Z" fill="#575155"/>
<path d="M352.32 129.461C348.66 132.121 345.85 136.211 344.89 140.641C344.56 142.151 344.5 143.721 344.47 145.311C344.37 148.391 339.92 148.591 339.52 145.561C338.69 139.581 341.21 133.361 345.63 129.331C347.16 128.081 351.57 123.881 353.13 127.011C353.53 127.931 353.14 128.971 352.32 129.461Z" fill="#575155"/>
<path d="M375.5 171.2C371.84 173.86 369.03 177.95 368.07 182.38C367.74 183.89 367.68 185.46 367.65 187.05C367.55 190.13 363.1 190.33 362.7 187.3C361.87 181.32 364.39 175.1 368.81 171.07C370.34 169.82 374.75 165.62 376.31 168.75C376.71 169.67 376.32 170.71 375.5 171.2Z" fill="#575155"/>
<path d="M332.73 199.8C330.91 186.43 317.67 177.16 303.26 179.1C293.09 180.46 284.5 187.24 281.37 196.39L281.08 197.28L280.2 196.89C268.21 191.6 258.95 194.07 253.29 197.06L252.32 197.57L252.04 196.54C248.74 184.78 236.39 177.24 223.25 178.95C216.24 179.89 209.99 183.31 205.66 188.57C201.33 193.81 199.43 200.26 200.3 206.72C201.17 213.18 204.71 218.89 210.27 222.79C215.81 226.72 222.73 228.36 229.77 227.42C242.3 225.72 252 216.02 252.83 204.36L252.87 203.95L253.18 203.7C254.84 202.38 259.46 199.33 266.29 199.33C270.57 199.33 275.08 200.54 279.7 202.93L280.18 203.17V203.66C280.15 204.59 280.19 205.57 280.33 206.87C281.98 219.02 293.13 227.81 306.04 227.81C307.28 227.81 308.54 227.73 309.81 227.56C316.83 226.62 323.07 223.2 327.4 217.93C331.69 212.71 333.59 206.27 332.76 199.8H332.73ZM322.56 214.72C319.21 218.77 314.4 221.4 309.02 222.12C303.68 222.88 298.34 221.57 294.07 218.54C289.73 215.48 286.98 211.04 286.33 206.03C285.64 201.04 287.11 196.03 290.48 191.93C293.79 187.89 298.58 185.26 303.97 184.53C304.96 184.4 305.95 184.33 306.93 184.33C311.27 184.33 315.46 185.63 318.96 188.11C323.26 191.1 326.01 195.54 326.7 200.62C327.39 205.61 325.92 210.61 322.55 214.71L322.56 214.72ZM242.54 214.58C239.22 218.62 234.42 221.25 229.01 221.98C223.56 222.75 218.32 221.42 214.06 218.4C209.72 215.34 206.97 210.9 206.32 205.89C205.63 200.9 207.1 195.89 210.47 191.8C213.82 187.76 218.61 185.13 223.97 184.4C224.96 184.26 225.95 184.2 226.93 184.2C231.26 184.2 235.45 185.5 238.95 187.98C243.25 191.01 246 195.45 246.69 200.49C247.38 205.48 245.91 210.49 242.54 214.59V214.58Z" fill="#C27023"/>
<path d="M275.9 460.911C272.58 457.091 269.7 452.881 267.46 448.281C266.82 446.971 263.87 440.731 262.41 440.491C260.83 440.231 260.61 442.441 259.93 443.651C249.36 462.421 243.17 473.741 223.94 463.251C209.22 455.221 195.31 445.961 183.64 433.821C171.47 421.171 160.19 407.751 151.08 392.641C149.42 389.881 148.51 386.851 147.07 384.041C145.72 381.421 146.28 379.021 148.07 376.991C157.35 366.491 172.09 355.711 182.79 350.801C186.09 349.291 189.31 349.361 192.48 351.261C222.13 369.021 244.11 392.951 259.94 422.741C261.48 425.631 262.03 427.551 263.65 424.711C275.56 403.851 286.91 386.981 306.15 369.851C311.61 364.991 327.38 353.951 331.35 351.761C335.71 349.351 339.65 349.461 343.95 351.721C357.24 358.701 365.94 366.181 375.62 375.811C378.25 378.421 378.73 380.981 377.49 384.381C373.25 395.981 360.45 412.081 352.37 421.501C333.64 443.321 317.23 454.871 297.56 464.761C288.28 469.431 281.52 467.411 275.88 460.921L275.9 460.911Z" fill="#D8E28F"/>
<path d="M273.7 486.79C273.7 493.12 268.57 498.25 262.24 498.25C255.91 498.25 250.78 493.12 250.78 486.79C250.78 480.46 255.91 475.33 262.24 475.33C268.57 475.33 273.7 480.46 273.7 486.79Z" fill="white"/>
<path d="M273.7 525.76C273.7 532.09 268.57 537.22 262.24 537.22C255.91 537.22 250.78 532.09 250.78 525.76C250.78 519.43 255.91 514.3 262.24 514.3C268.57 514.3 273.7 519.43 273.7 525.76Z" fill="white"/>
</g>
</svg>
