<svg width="533" height="545" viewBox="0 0 533 545" fill="none" xmlns="http://www.w3.org/2000/svg">
<mask id="mask0_472_24004" style="mask-type:luminance" maskUnits="userSpaceOnUse" x="0" y="0" width="533" height="545">
<path d="M266.5 544.98C413.684 544.98 533 422.982 533 272.49C533 121.998 413.684 0 266.5 0C119.316 0 0 121.998 0 272.49C0 422.982 119.316 544.98 266.5 544.98Z" fill="white"/>
</mask>
<g mask="url(#mask0_472_24004)">
<path d="M180.45 468.98C177.77 476 174.5 482.67 170.58 488.79C161.33 503.47 148.57 514.86 132.24 519.4C132.1 519.43 131.93 519.47 131.79 519.5C92.5495 530.19 36.8096 516.54 36.8096 516.54C37.2196 505.78 38.7396 495.74 41.1796 486.45C42.0696 483.05 43.0396 479.74 44.1696 476.55C44.3096 476.1 44.4796 475.62 44.6496 475.17C67.6196 410.87 134.95 383.29 171.06 367.95C171.2 368.02 171.3 368.12 171.44 368.19C191.93 381.12 195.44 429.88 180.45 468.98Z" fill="#DFEE95"/>
<path d="M496.2 516.54C496.2 516.54 440.42 530.19 401.19 519.5C401.05 519.47 400.91 519.43 400.78 519.4C381.49 514.04 367.18 499.08 357.69 480.47C355.8 476.79 354.08 472.94 352.57 468.98C337.58 429.88 341.08 381.12 361.58 368.19C361.72 368.12 361.82 368.02 361.96 367.95C378.84 375.14 402.58 385.02 425.41 400.08C425.41 400.08 425.41 400.08 425.41 400.07C425.82 400.35 426.24 400.62 426.68 400.9C427.16 401.24 427.68 401.55 428.19 401.93C455.87 420.74 481.77 447.43 491.84 486.45C494.28 495.74 495.79 505.78 496.21 516.54H496.2Z" fill="#DFEE95"/>
<path d="M404.18 456.36C404.01 474.59 403.18 495.84 401.19 519.5C398.23 554.3 392.7 594.26 382.97 637.35C363.4 724.18 361.17 754.03 266.81 759.25V759.28C266.4 759.25 266.61 759.25 266.19 759.28V759.25C171.83 754.02 169.66 724.35 150.03 637.35C140.3 594.26 134.76 554.3 131.81 519.5C130.78 507.02 130.02 495.22 129.54 484.18C126.96 424.21 131.78 386.66 131.78 386.66C146.12 378.96 159.08 372.91 171.46 368.19C180.61 364.68 189.48 361.93 198.35 359.8C219.29 354.75 240.44 352.96 266.2 352.65H266.82C303.58 353.06 330.89 356.54 361.59 368.19C373.97 372.9 386.9 378.95 401.24 386.66C401.24 386.66 404.61 412.83 404.2 456.36H404.18Z" fill="#DFEE95"/>
<g opacity="0.25">
<path d="M398.959 390.62C399.829 395.42 399.409 400.26 399.549 405.08C399.579 406.05 399.539 407.02 399.639 407.98C399.899 410.48 400.759 411.3 403.279 412.11C405.759 412.91 408.309 412.62 410.829 412.72C412.439 412.78 413.859 411.51 414.209 409.87C414.439 408.8 414.439 407.68 414.439 406.58C414.459 402.38 414.449 398.18 414.439 393.99C409.419 390.99 404.299 388.14 399.119 385.41C399.059 385.91 399.019 386.41 398.949 386.91C398.779 388.13 398.739 389.42 398.959 390.63V390.62Z" fill="#0D1016"/>
<path d="M418.519 397.641C418.519 400.641 418.509 403.271 418.519 405.891C418.519 406.991 418.529 408.101 418.639 409.201C418.759 410.401 419.499 411.141 420.749 411.631C422.999 412.511 425.169 412.741 427.679 412.531C430.429 412.291 431.699 411.051 432.669 409.061C433.089 408.191 433.239 407.281 433.299 406.361C428.489 402.881 423.529 399.571 418.449 396.421C418.469 396.821 418.479 397.251 418.499 397.641H418.519Z" fill="#0D1016"/>
<path d="M379.899 405.401C379.899 405.681 379.899 405.951 379.919 406.231C380.139 408.871 381.089 409.991 383.819 410.541C385.709 410.921 387.579 411.441 389.589 411.321C392.809 411.121 393.989 410.361 394.519 407.561C394.949 405.251 395.349 402.941 395.299 400.571C395.219 396.431 395.329 392.291 395.299 388.141C395.289 386.581 395.339 385.021 395.429 383.471C390.809 381.101 386.159 378.831 381.489 376.641C380.549 384.541 380.629 392.501 379.919 400.421C379.919 402.081 379.919 403.731 379.919 405.391L379.899 405.401Z" fill="#0D1016"/>
<path d="M244.37 515.75C244.37 510.22 244.39 504.69 244.36 499.16C244.36 497.92 244.26 496.68 244.05 495.45C243.88 494.45 243.27 493.62 242.1 493.38C239.31 492.83 236.53 492.18 233.71 491.84C231.37 491.56 229.72 492.87 229.18 495.04C228.88 496.27 228.94 497.51 229.27 498.74C229.86 500.92 229.9 503.15 229.44 505.32C229.04 507.24 229 509.16 228.98 511.09C228.92 520.91 228.86 530.72 228.81 540.54C228.81 541.51 228.79 542.48 228.9 543.44C229.11 545.41 230.25 546.75 232.31 547.42C234.92 548.27 237.6 548.41 240.32 548.22C241.7 548.13 242.53 547.41 242.97 546.29C243.22 545.65 243.4 544.96 243.45 544.28C243.78 539.74 244.19 535.21 244.33 530.66C244.48 525.69 244.37 520.71 244.37 515.73V515.75Z" fill="#0D1016"/>
<path d="M262.999 531.011C262.309 524.681 262.309 518.331 262.939 512.011C263.349 507.871 263.209 503.751 263.289 499.621C263.299 499.081 263.169 498.521 263.029 497.991C262.769 497.001 262.209 496.191 261.059 495.941C258.139 495.311 255.229 494.611 252.279 494.141C250.279 493.821 248.749 494.871 248.249 496.671C248.029 497.461 247.979 498.311 247.979 499.131C247.959 506.031 247.969 512.921 247.969 519.821H247.889C247.889 526.441 247.959 533.061 247.849 539.681C247.809 542.071 248.529 544.311 248.839 546.631C249.039 548.111 250.129 549.181 251.559 549.721C254.529 550.831 257.619 551.251 260.819 550.661C261.799 550.481 262.439 549.911 262.749 549.101C263.049 548.331 263.409 547.511 263.389 546.721C263.299 541.491 263.559 536.241 262.999 531.021V531.011Z" fill="#0D1016"/>
<path d="M171.25 511.9C172.11 517.4 171.639 522.91 172.039 527.6C172.039 532.14 172.039 535.86 172.039 539.58C172.039 540.54 171.98 541.52 172.14 542.47C172.43 544.28 173.04 546.28 174.77 547.08C177.26 548.23 179.96 549.29 182.92 549.1C184.93 548.97 185.89 548.32 186.37 546.43C187.19 543.2 187.91 539.91 187.3 536.61C186.72 533.45 186.83 530.29 186.66 527.13C186.48 523.83 186.579 520.53 186.039 517.23C185.609 514.65 185.679 512 186.099 509.39C186.819 504.86 186.429 500.31 186.509 495.76C186.519 495.08 186.359 494.39 186.17 493.73C185.79 492.38 184.849 491.59 183.289 491.54C180.589 491.46 177.899 491.47 175.259 492.18C172.509 492.93 172.04 493.28 171.92 495.82C171.8 498.44 171.57 501.04 171.3 503.65C171.02 506.38 170.839 509.21 171.259 511.91L171.25 511.9Z" fill="#0D1016"/>
<path d="M152.899 520.631H152.859C152.859 527.951 152.859 535.261 152.859 542.581C152.859 543.411 152.859 544.241 152.919 545.061C153.069 547.051 154.169 548.441 156.239 549.071C158.529 549.761 160.829 550.311 163.299 550.111C165.499 549.931 166.209 549.571 166.739 547.591C167.419 545.041 167.809 542.461 167.779 539.811C167.659 531.251 167.619 522.701 167.579 514.141C167.549 508.891 167.579 503.651 167.549 498.401C167.549 497.171 167.499 495.911 167.219 494.711C166.859 493.141 165.789 492.411 164.009 492.321C160.819 492.151 157.729 492.731 154.699 493.611C153.599 493.931 153.029 494.751 152.939 495.801C152.869 496.621 152.889 497.461 152.889 498.281C152.889 505.731 152.889 513.191 152.889 520.641L152.899 520.631Z" fill="#0D1016"/>
<path d="M361.669 400.3C361.679 401.26 361.749 402.24 362.009 403.17C362.369 404.44 363.199 405.34 364.779 405.53C366.109 405.69 367.399 406.16 368.739 406.29C374.469 406.83 376.079 405.16 376.499 400.64C376.549 400.09 376.529 399.54 376.519 398.98C376.459 395.11 376.409 391.24 376.339 387.37C376.279 383.5 376.489 379.66 376.969 375.8C377.019 375.41 377.079 375.03 377.129 374.64C372.509 372.53 367.889 370.5 363.289 368.53C363.199 369.75 363.079 370.97 362.919 372.19C362.269 377.11 361.379 382.02 361.529 387.03C361.669 391.45 361.589 395.87 361.649 400.3H361.669Z" fill="#0D1016"/>
<path d="M190.979 540.48C191.199 542.66 192.329 544.54 194.399 545.58C196.079 546.43 198.019 547.01 199.919 547.32C203.289 547.88 204.989 546.64 205.459 543.42C205.699 541.79 205.609 540.11 205.619 538.46C205.739 524.1 204.899 509.73 206.189 495.38C206.459 492.41 204.889 490.45 201.429 490.78C201.129 490.81 200.829 490.78 199.919 490.78C198.699 490.72 196.939 491.1 195.169 491.43C191.979 492.02 191.429 492.52 191.109 495.39C191.029 496.08 191.039 496.77 191.029 497.46C190.959 505.61 190.899 513.76 190.829 521.92C190.819 523.58 191.079 525.3 190.699 526.88C189.579 531.46 190.539 535.96 190.979 540.48Z" fill="#0D1016"/>
<path d="M225.3 508.711C225.73 503.891 225.15 499.231 224.65 494.561C224.54 493.521 224.21 492.561 223.04 492.301C219.82 491.581 216.54 491.201 213.22 491.421C211.49 491.531 210.61 492.361 210.26 494.081C209.82 496.271 209.8 498.501 210.24 500.681C210.66 502.741 210.64 504.791 210.74 506.861C211.1 513.911 210.13 520.911 209.89 527.941C209.79 530.841 210.15 533.811 209.53 536.611C208.87 539.651 209.81 542.351 210.38 545.161C210.65 546.491 211.73 547.101 213.18 547.521C215.62 548.231 217.54 546.861 219.72 546.571C222.14 546.241 223.27 544.741 224.13 542.871C224.75 541.541 224.62 540.171 224.62 538.791C224.62 535.061 224.74 531.331 224.6 527.611C224.37 521.251 226 514.961 225.29 508.711H225.3Z" fill="#0D1016"/>
<path d="M148.739 537.691C148.679 525.141 148.669 512.581 148.639 500.031C148.639 499.071 148.679 498.091 148.489 497.151C148.049 494.921 146.409 493.811 143.939 494.241C141.289 494.701 138.679 495.381 136.069 496.001C134.749 496.311 134.059 497.181 133.979 498.401C133.899 499.641 133.899 500.881 133.899 502.121C133.899 508.471 133.899 514.811 133.899 521.161H133.979C133.979 526.541 133.979 531.921 133.979 537.301C133.979 538.931 133.989 540.561 134.049 542.191C134.189 543.451 134.309 544.681 134.459 545.951C135.139 548.681 136.789 549.791 140.639 550.561C141.079 550.651 141.529 550.721 141.969 550.761C147.839 551.301 149.259 550.131 149.309 544.281C149.309 544.011 149.179 543.741 149.159 543.471C149.009 541.551 148.749 539.631 148.739 537.701V537.691Z" fill="#0D1016"/>
<path d="M396.509 526.031C396.149 524.041 395.249 523.071 393.239 522.731C391.769 522.481 390.279 522.261 388.829 521.911C382.989 520.501 382.499 522.571 381.819 526.611C381.769 526.881 381.779 527.161 381.769 527.441C381.419 534.461 381.079 541.471 380.729 548.491C380.449 554.131 380.149 559.771 379.869 565.401C379.899 565.401 379.929 565.401 379.969 565.401C379.969 567.331 379.889 569.261 379.989 571.191C380.079 572.831 380.969 574.211 382.729 574.631C385.029 575.181 387.349 575.811 389.809 575.661C392.709 575.491 393.999 574.661 394.459 572.111C394.849 569.941 395.109 567.741 395.199 565.541C395.329 562.371 395.279 559.201 395.279 556.031C395.279 549.551 395.499 543.061 396.499 536.661C397.059 533.061 397.159 529.611 396.519 526.031H396.509Z" fill="#0D1016"/>
<path d="M343.819 377.461C343.019 382.921 342.589 388.421 341.999 393.911C341.789 395.881 342.459 397.741 343.029 399.591C343.229 400.251 343.839 400.921 344.659 400.811C346.389 400.581 347.869 401.491 349.449 401.611C354.299 401.951 356.599 400.951 357.229 396.311C357.359 395.361 357.359 394.381 357.299 393.411C356.869 386.211 358.579 379.111 358.499 371.921C358.499 371.381 358.739 370.841 358.779 370.291C358.859 369.281 358.949 368.271 359.039 367.271C354.069 365.441 349.159 363.811 344.289 362.391C344.429 364.231 344.519 366.031 344.649 367.691C344.529 371.161 344.279 374.311 343.819 377.461Z" fill="#0D1016"/>
<path d="M306.209 370.32C305.849 373.33 305.179 376.31 304.929 379.33C304.669 382.49 304.639 385.67 304.709 388.84C304.759 391.1 305.459 391.7 307.739 392.36C309.789 392.95 311.889 393.07 313.979 392.86C316.419 392.61 318.119 391.43 318.859 389.17C319.349 387.69 319.449 386.2 319.479 384.67C319.539 382.05 319.509 379.42 319.809 376.82C320.339 372.16 321.299 367.55 321.219 362.84C321.219 360.89 321.499 358.89 321.179 357C316.129 356.11 310.999 355.37 305.759 354.78C305.739 358.31 305.699 361.85 306.369 365.37C306.669 366.96 306.399 368.67 306.199 370.31L306.209 370.32Z" fill="#0D1016"/>
<path d="M325.109 360.161C325.229 361.811 325.569 363.471 325.459 365.111C325.159 369.931 324.699 374.741 324.279 379.551C323.929 383.541 323.469 387.521 323.239 391.511C323.149 393.051 323.649 394.741 325.499 395.211C327.789 395.791 330.099 396.421 332.569 396.311C335.189 396.191 336.689 394.891 337.629 392.851C338.349 391.291 338.419 389.631 338.349 387.961C338.069 381.181 339.229 374.471 339.659 367.721C339.799 365.551 339.959 363.391 340.069 361.221C335.019 359.861 329.969 358.701 324.879 357.711C324.949 358.531 325.049 359.361 325.109 360.181V360.161Z" fill="#0D1016"/>
<path d="M270.589 551.431C273.159 551.601 275.689 551.521 278.159 550.661C280.379 549.891 281.679 548.491 281.599 546.291C281.379 540.341 282.719 534.461 282.399 528.501C282.249 525.741 282.37 522.971 282.37 520.201H282.359C282.359 515.081 282.269 509.961 282.399 504.851C282.459 502.551 281.369 501.121 279.229 500.351C276.999 499.551 274.71 498.831 272.39 498.331C269.84 497.791 268.319 498.801 268.029 501.281C267.719 503.881 267.789 506.531 267.669 509.151C267.579 511.081 267.6 513.031 267.32 514.941C266.92 517.711 266.809 520.451 267.349 523.191C267.749 525.251 267.939 527.361 267.529 529.381C266.619 533.921 267.11 538.491 266.82 543.031C266.69 545.101 266.96 547.171 267.69 549.171C268.17 550.471 269.029 551.301 270.589 551.411V551.431Z" fill="#0D1016"/>
<path d="M172.419 367.841C172.159 369.971 172.089 372.091 172.109 374.221C172.109 376.021 171.879 377.841 172.159 379.601C172.579 382.281 173.599 384.701 177.039 385.341C178.049 385.531 178.969 386.081 179.969 386.371C182.909 387.211 186.309 386.461 186.569 382.921C186.629 382.091 186.639 381.261 186.629 380.431C186.609 377.661 186.489 374.901 186.549 372.141C186.609 369.071 186.689 365.991 186.869 362.921C182.099 364.361 177.289 365.981 172.409 367.831L172.419 367.841Z" fill="#0D1016"/>
<path d="M128.5 500.741C127.94 498.751 126.68 497.951 124.5 498.411C122.46 498.841 120.37 499.301 118.48 500.101C114.1 501.971 114.24 501.941 114.26 505.941C114.26 506.911 114.19 507.881 114.33 508.831C115.02 513.421 115.16 518.011 114.79 522.611C119.91 522.041 124.93 521.191 129.73 520.001C129.55 514.251 128.93 508.521 128.79 502.781C128.77 502.101 128.68 501.401 128.49 500.741H128.5Z" fill="#0D1016"/>
<path d="M286.36 365.871C286.89 369.301 287.01 372.801 286.29 376.201C285.55 379.711 286.19 383.081 286.77 386.481C287 387.831 287.9 388.691 289.48 388.861C292.39 389.171 295.21 388.781 297.9 387.811C300.26 386.961 301.38 385.141 301.08 382.881C300.25 376.541 300.26 370.221 301.18 363.881C301.44 362.111 301.45 360.291 300.96 358.521C300.66 357.431 300.56 356.351 300.78 355.241C300.84 354.921 300.86 354.611 300.92 354.291C296.14 353.841 291.26 353.481 286.2 353.221C285.72 357.451 285.7 361.641 286.35 365.871H286.36Z" fill="#0D1016"/>
<path d="M266.95 360.331C266.95 366.831 266.97 373.331 266.94 379.831C266.94 381.641 267.06 383.421 267.78 385.131C268.26 386.261 269.13 386.971 270.46 387.061C272.26 387.181 274.04 387.171 275.84 386.781C280.8 385.711 281.59 384.941 281.6 380.381C281.61 377.201 281.44 374.021 281.49 370.841C281.54 367.251 281.07 363.641 281.88 360.091C282.26 358.441 282.43 356.811 282.34 355.151C282.3 354.451 282.25 353.741 282.22 353.041C277.25 352.841 272.14 352.701 266.8 352.641C266.8 355.201 266.8 357.761 266.8 360.321H266.95V360.331Z" fill="#0D1016"/>
<path d="M248.03 378C248.05 379.23 248.41 380.46 248.64 381.68C249.05 383.81 250.56 385.04 252.7 385.7C254.72 386.32 256.81 386.5 258.93 386.36C261.55 386.19 262.43 385.61 263.06 383.35C263.67 381.17 263.47 378.97 263.02 376.77C261.6 369.82 260.95 362.84 262.32 355.8C262.48 355 262.47 354.11 262.25 353.33C262.19 353.13 262.18 352.93 262.13 352.73C256.94 352.83 251.89 352.98 247.03 353.22C246.71 361.5 247.88 369.73 248.01 378H248.03Z" fill="#0D1016"/>
<path d="M300.63 506.7C300.48 505.7 300.33 504.7 299.16 504.35C296.45 503.53 293.75 502.64 290.97 502.08C288.45 501.58 286.98 502.63 286.33 504.9C286.18 505.43 286 505.98 285.99 506.52C285.95 510.24 285.63 513.98 286.22 517.68C286.98 522.49 286.93 527.36 286.39 532.14C285.9 536.56 285.87 540.95 285.96 545.36C286 547.14 286.39 548.92 286.75 550.68C287.11 552.45 287.84 552.97 289.72 553.26C292.82 553.73 295.69 552.91 298.5 551.94C299.99 551.42 300.86 550.22 301.08 548.76C301.22 547.81 301.35 546.79 301.11 545.88C300.34 543.02 301.62 540.11 300.76 537.27C301.8 532.62 301.02 527.9 301.32 523.88C301.25 517.71 301.46 512.18 300.64 506.69L300.63 506.7Z" fill="#0D1016"/>
<path d="M210.049 379.481C210.009 380.441 209.999 381.421 210.129 382.381C210.649 386.011 213.029 387.371 216.829 386.241C217.679 385.991 218.509 385.611 219.389 385.481C221.739 385.121 222.999 383.771 223.879 381.841C224.489 380.511 224.579 379.181 224.579 377.791C224.569 373.231 224.579 368.671 224.579 364.111H224.589C224.589 361.111 224.619 358.121 224.589 355.121C219.609 355.731 214.719 356.481 209.899 357.371C209.909 360.341 209.939 363.311 210.089 366.271C210.319 370.681 210.239 375.081 210.049 379.481Z" fill="#0D1016"/>
<path d="M110.33 504.451C109.78 502.891 108.81 502.211 107 502.161C106.41 502.141 105.78 502.161 105.22 502.311C103.19 502.821 101.16 503.331 99.16 503.941C96.44 504.761 96.14 505.141 96.02 507.781C95.78 513.021 96.43 518.281 95.5 523.511C95.5 523.531 95.5 523.561 95.5 523.581C100.58 523.601 105.71 523.431 110.79 523.011V508.971C110.79 507.451 110.86 505.921 110.34 504.451H110.33Z" fill="#0D1016"/>
<path d="M138.71 385.69C140.76 386.23 142.82 386.4 144.95 386.36C147.19 386.31 148.55 385.56 148.73 383.13C148.86 381.31 148.93 379.47 148.8 377.65C144.56 379.59 140.17 381.68 135.68 383.94C136.42 384.75 137.41 385.35 138.71 385.69Z" fill="#0D1016"/>
<path d="M191.06 378.311C191.16 380.771 192.1 383.101 194.29 384.401C196.51 385.721 199.13 386.601 201.97 386.371C203.78 386.221 204.61 385.661 205.22 384.031C205.77 382.561 205.66 381.031 205.63 379.521C205.51 373.461 205.12 367.411 205.61 361.921V358.171C203.18 358.671 200.76 359.201 198.34 359.781C195.89 360.371 193.45 361.011 190.99 361.701C190.99 365.031 190.99 368.351 190.99 371.681C190.99 373.891 190.98 376.091 191.06 378.301V378.311Z" fill="#0D1016"/>
<path d="M378.12 529.461C378.12 527.801 378.16 526.011 378.11 524.211C378.07 523.031 377.56 522.011 376.26 521.611C373.27 520.691 370.19 520.071 367.05 519.831C365.43 519.711 364.58 520.411 364 521.801C363.45 523.131 363.55 524.511 363.56 525.891C363.61 530.031 363.48 534.141 362.83 538.271C362.04 543.311 361.36 548.381 361.58 553.511C361.73 557.101 361.65 560.691 361.69 564.281C361.7 565.241 361.69 566.231 361.92 567.161C362.26 568.591 363.09 569.601 364.85 569.911C367.06 570.301 369.22 570.891 371.51 570.821C373.86 570.761 375.05 569.971 375.86 567.921C376.49 566.331 376.5 564.681 376.47 563.011C376.4 559.141 376.33 555.281 376.33 551.411C376.33 548.241 376.53 545.091 376.98 541.921C377.56 537.831 378.44 533.741 378.11 529.431L378.12 529.461Z" fill="#0D1016"/>
<path d="M156.749 384.88C159.099 385.56 161.449 385.71 163.879 385.56C165.469 385.46 166.379 384.64 166.719 383.31C167.219 381.29 167.589 379.27 167.599 377.17C167.619 374.55 167.689 371.93 167.829 369.32C163.249 371.26 158.249 373.4 152.959 375.76C152.909 377.3 152.909 378.84 152.909 380.38C152.909 382.73 154.259 384.16 156.749 384.88Z" fill="#0D1016"/>
<path d="M358.39 520.821C358.36 519.581 357.579 518.741 356.339 518.351C353.789 517.531 351.24 516.681 348.63 516.011C346.42 515.451 345.209 516.141 344.459 518.111C343.579 520.391 343.579 522.741 344.029 525.071C344.379 526.871 344.399 528.621 344.059 530.421C343.799 531.771 343.819 533.171 343.739 534.551C343.629 536.481 343.779 538.451 343.409 540.341C342.719 543.771 342.689 547.211 342.609 550.661C342.559 553.011 342.639 555.351 342.099 557.681C341.619 559.781 342.379 561.791 342.929 563.791C343.109 564.461 343.689 565.271 344.419 565.161C346.339 564.871 347.919 565.991 349.659 566.041C354.649 566.201 356.679 565.231 357.219 560.481C357.389 558.971 357.239 557.441 357.299 555.921C357.409 552.881 357.489 549.841 357.719 546.811C358.169 541.031 358.719 535.261 359.239 529.491C359.529 526.551 358.45 523.721 358.38 520.821H358.39Z" fill="#0D1016"/>
<path d="M311.199 557.331C317.209 557.561 319.069 555.681 319.389 550.411C319.799 543.661 319.999 536.911 320.269 530.151C320.319 528.771 320.269 527.391 320.269 526.011H320.239C320.239 521.871 320.229 517.721 320.239 513.581C320.239 511.431 319.469 510.151 316.949 509.341C314.509 508.561 312.029 508.121 309.549 507.661C307.309 507.241 306.289 507.971 305.539 510.041C305.049 511.381 305.049 512.701 305.239 514.111C305.879 518.921 305.879 523.781 305.379 528.581C304.989 532.441 304.939 536.291 304.809 540.151C304.709 543.321 305.009 546.511 304.379 549.661C303.149 555.781 306.369 557.141 311.169 557.321L311.199 557.331Z" fill="#0D1016"/>
<path d="M229.689 356.571C229.619 363.041 230.409 369.541 228.909 375.971C228.719 376.771 228.819 377.621 228.789 378.451C228.569 383.961 230.939 384.551 235.069 385.441C235.509 385.531 235.959 385.561 236.409 385.601C241.739 386.011 243.179 384.901 243.499 380.011C243.849 374.651 244.269 369.281 244.429 363.911C244.529 360.401 244.569 356.881 244.329 353.381C239.319 353.671 234.429 354.041 229.679 354.531V354.911C229.679 355.461 229.679 356.011 229.679 356.571H229.689Z" fill="#0D1016"/>
<path d="M48.7297 516.04C46.6197 516.54 44.5497 517.17 42.4697 517.78C45.0997 518.32 48.5597 518.98 52.6397 519.67C52.5297 518.97 52.3497 518.28 51.9997 517.62C51.2897 516.3 50.2397 515.68 48.7297 516.04Z" fill="#0D1016"/>
<path d="M91.5898 514.14C91.8798 512.47 91.7198 510.84 90.8598 509.29C90.1598 508.03 89.0398 507.37 87.5698 507.57C84.4498 508 81.3698 508.61 78.4798 509.84C77.5698 510.23 77.1298 510.91 77.0498 511.79C76.7998 514.54 76.5698 517.29 76.2998 520.52C76.4498 521.22 76.5598 521.95 76.6398 522.7C81.2698 523.09 86.1098 523.371 91.0298 523.501C90.9298 520.381 91.0598 517.26 91.5898 514.13V514.14Z" fill="#0D1016"/>
<path d="M71.7891 515.701C71.3791 513.291 69.5991 512.091 66.9491 512.661C64.7691 513.131 62.5591 513.451 60.4291 514.271C57.5391 515.381 57.3791 515.191 57.3191 517.841C57.2991 518.691 57.2891 519.541 57.2891 520.411C61.6891 521.081 66.6091 521.731 71.8791 522.271C71.8791 520.911 71.8791 519.551 71.8891 518.191C71.8891 517.361 71.9291 516.521 71.7891 515.711V515.701Z" fill="#0D1016"/>
<path d="M326.95 559.941C328.85 560.361 330.73 560.671 332.7 560.711C335.19 560.761 336.65 559.631 337.5 557.681C338.18 556.131 338.37 554.501 338.37 552.821C338.37 549.791 338.16 546.711 338.66 543.741C339.49 538.801 339.32 533.851 339.45 528.901C339.45 526.561 339.46 524.211 339.45 521.871C339.44 520.221 339.42 518.561 339.34 516.911C339.27 515.541 338.59 514.571 337.04 514.221C334.56 513.661 332.12 512.961 329.62 512.521C327 512.061 325.22 513.271 324.84 515.721C324.63 517.071 324.74 518.471 324.73 519.851C324.67 526.601 324.85 533.341 323.99 540.071C323.31 545.401 323.93 550.811 323.38 556.181C323.13 558.591 324.12 559.331 326.95 559.961V559.941Z" fill="#0D1016"/>
<path d="M190.9 439.26C191.1 442.66 193.45 444.92 197.12 445.17C198.77 445.28 200.41 445.21 202.06 444.91C204.73 444.43 205.55 443.93 205.54 441.47C205.53 436.21 206.71 431.02 206.46 425.76C206.12 419.42 205.82 413.091 205.44 406.751C205.36 405.381 205.07 404.01 204.79 402.65C204.35 400.57 203.54 399.82 201.2 399.6C199.41 399.43 197.6 399.48 195.8 399.48C191.46 399.49 190.79 400.06 190.89 404.03C191.17 415.08 191.1 426.131 190.91 437.181C190.9 437.871 190.87 438.561 190.91 439.251L190.9 439.26Z" fill="#0D1016"/>
<path d="M185.8 402.001C185.46 399.821 184.23 398.561 181.98 398.901C179.28 399.311 176.6 398.921 173.94 399.211C172.49 399.371 171.69 399.991 171.72 401.321C171.78 403.661 171.81 406.031 172.22 408.331C173.26 414.101 173 419.921 172.55 425.671C172.23 429.671 172.14 433.651 172.06 437.631C172.04 438.591 172.16 439.561 172.31 440.511C172.67 442.841 174.21 444.161 176.67 444.661C179.25 445.181 181.71 444.571 184.18 444.001C186.22 443.531 187.1 442.191 187.3 440.391C187.39 439.571 187.38 438.741 187.38 437.911C187.38 434.321 187.38 430.731 187.38 426.201C187.89 418.711 187.1 410.341 185.81 402.001H185.8Z" fill="#0D1016"/>
<path d="M213.17 444.141C214.46 444.461 215.81 444.611 217.14 444.791C222.2 445.471 224.9 443.391 224.86 438.721C224.77 427.001 224.63 415.271 224.49 403.551C224.48 402.591 224.38 401.62 224.14 400.69C223.88 399.67 223.18 399.061 221.87 399.121C219.49 399.231 217.1 399.451 214.72 398.871C213.69 398.621 212.65 399.041 211.66 399.401C210.73 399.741 210.25 400.401 210.11 401.271C210.02 401.811 210.01 402.371 210.01 402.921C210.01 408.991 210.01 415.06 210.01 421.13C210.01 426.65 210.01 432.17 210.01 437.69C210.01 438.66 210.04 439.621 210.05 440.591C210.06 442.541 211.24 443.671 213.17 444.161V444.141Z" fill="#0D1016"/>
<path d="M244.019 436.611C243.749 434.821 243.659 433.041 243.659 431.261C243.639 426.841 243.659 422.431 243.659 418.011H243.569C243.569 412.911 243.569 407.801 243.569 402.691C243.569 402.001 243.609 401.311 243.529 400.621C243.299 398.631 242.399 397.761 240.349 397.981C237.949 398.231 235.619 398.291 233.219 397.921C231.309 397.631 230.229 398.531 229.509 400.261C228.959 401.581 228.939 402.961 228.939 404.341C228.939 415.381 228.949 426.421 228.959 437.451C228.959 438.001 228.949 438.561 229.019 439.101C229.319 441.501 230.299 442.571 232.979 442.851C234.889 443.041 236.879 442.951 238.799 442.751C242.049 442.421 244.479 439.621 244.029 436.611H244.019Z" fill="#0D1016"/>
<path d="M152.909 409.501C153.019 413.081 153.009 416.681 153.359 420.241C153.569 422.451 153.599 424.601 153.399 426.821C153.069 430.381 152.979 433.981 153.059 437.561C153.119 440.231 154.999 442.331 157.469 442.641C159.529 442.901 161.669 443.001 163.739 442.841C166.849 442.601 167.639 441.791 167.699 438.881C167.799 434.201 167.719 429.521 167.719 424.841H167.739C167.739 424.011 167.709 423.181 167.739 422.361C167.979 415.601 167.079 408.881 166.729 402.141C166.549 398.641 164.899 397.481 161.109 398.101C159.599 398.351 158.149 398.381 156.649 398.281C153.069 398.031 152.169 398.811 152.209 402.101C152.209 402.651 152.239 403.221 152.389 403.741C152.929 405.641 152.839 407.571 152.889 409.501H152.909Z" fill="#0D1016"/>
<path d="M300.579 418.51H300.389C300.389 415.19 300.399 411.88 300.389 408.56C300.389 407.6 300.349 406.62 300.199 405.67C300.069 404.81 299.519 403.95 298.579 403.86C296.049 403.62 293.609 402.47 291.029 402.97C286.299 403.87 286.029 403.29 285.849 408.02C285.419 419.2 286.339 430.37 285.989 441.55C285.969 442.22 286.219 442.91 286.409 443.57C286.769 444.87 287.589 445.71 289.059 446.11C291.249 446.71 293.469 446.8 295.709 446.62C299.079 446.35 301.149 444.37 301.359 441.26C301.409 440.57 301.259 439.87 301.319 439.19C301.689 434.89 300.419 430.67 300.569 426.38C300.659 423.76 300.589 421.13 300.589 418.5L300.579 418.51Z" fill="#0D1016"/>
<path d="M261.27 399.25C258.14 399 255.01 398.77 251.87 398.73C249.91 398.7 249.01 399.56 248.39 401.4C247.84 403.01 247.82 404.67 247.81 406.32C247.79 411.01 247.81 415.71 247.81 420.4H247.89C247.89 425.23 247.88 430.06 247.89 434.9C247.89 436 247.91 437.11 248.09 438.2C248.34 439.7 249.35 440.6 250.95 441.07C252.45 441.51 253.94 441.15 255.41 441.27C260.63 441.68 263.72 439.08 263.36 433.67C263.06 429.13 263.1 424.58 262.82 420.03C262.45 413.99 261.97 407.9 262.9 401.84C263.11 400.45 262.38 399.34 261.26 399.26L261.27 399.25Z" fill="#0D1016"/>
<path d="M129.79 420.921C129.74 417.051 129.78 413.181 129.63 409.321C129.56 407.541 129.27 405.751 128.87 404.001C128.19 401.021 126.75 400.021 123.43 400.441C121.18 400.731 118.98 400.811 116.73 400.701C115.05 400.621 114.2 401.441 114.54 403.021C115.35 406.861 115.06 410.731 115.15 414.591C115.21 416.941 115.16 419.291 115.16 421.631H115.19V427.431C115.19 429.361 115.19 431.301 115.19 433.231C115.19 434.611 115.1 435.991 115.16 437.371C115.3 441.111 117.92 443.461 122.04 443.561C123.85 443.601 125.6 443.411 127.35 442.851C128.98 442.321 129.79 441.351 130.15 439.911C130.73 437.591 130.73 435.201 130.36 432.901C129.71 428.911 129.86 424.911 129.8 420.911L129.79 420.921Z" fill="#0D1016"/>
<path d="M269.099 442.861C271.719 443.811 274.399 443.771 277.099 443.481C277.799 443.411 278.499 443.001 279.099 442.621C281.169 441.301 281.649 439.381 281.609 437.171C281.529 432.471 281.589 427.771 281.589 423.071C281.609 416.591 281.119 410.091 282.299 403.641C282.699 401.471 281.739 400.541 279.379 400.431C276.979 400.321 274.569 400.251 272.169 400.321C269.499 400.401 268.199 401.331 267.869 403.701C267.529 406.161 266.919 408.581 266.929 411.101C266.949 419.951 266.829 428.791 266.779 437.641C266.779 438.471 266.779 439.301 266.839 440.131C266.919 441.511 267.679 442.361 269.119 442.891L269.099 442.861Z" fill="#0D1016"/>
<path d="M399.669 513.141C399.799 515.251 400.649 516.231 402.879 516.501C404.799 516.741 406.779 516.701 408.719 516.621C411.449 516.521 413.189 515.261 414.009 512.901C414.279 512.121 414.399 511.281 414.449 510.461C414.699 506.751 414.879 503.041 415.139 499.331C415.599 492.721 414.959 486.091 415.949 479.491C416.549 475.471 415.729 474.811 411.329 474.081C409.559 473.791 407.829 473.261 406.049 473.021C403.369 472.661 402.009 473.601 401.609 475.961C401.449 476.911 401.449 477.891 401.419 478.851C401.359 480.781 401.509 482.731 401.259 484.641C400.209 492.451 400.919 500.361 399.649 508.161C399.649 509.821 399.569 511.481 399.669 513.131V513.141Z" fill="#0D1016"/>
<path d="M494.59 509.931C494.66 511.221 495.18 512.331 495.99 513.181C495.72 508.771 495.3 504.461 494.67 500.301C494.67 500.741 494.67 501.191 494.67 501.631C494.64 504.401 494.45 507.171 494.59 509.921V509.931Z" fill="#0D1016"/>
<path d="M380.769 510.071C380.679 511.801 381.649 513.021 383.349 513.581C385.029 514.141 386.779 514.581 388.539 514.851C393.039 515.551 395.919 513.511 396.139 509.361C396.269 506.751 396.069 504.131 395.979 501.511C395.879 498.501 395.339 495.451 395.709 492.491C396.109 489.331 396.119 486.171 396.339 483.611C396.339 480.671 396.419 478.321 396.309 475.981C396.239 474.441 395.499 473.711 393.859 473.471C391.789 473.181 389.679 472.841 387.599 472.891C383.429 472.991 381.879 473.391 381.659 477.841C381.579 479.491 381.609 481.151 381.569 482.801C381.539 484.041 381.589 485.301 381.379 486.511C380.049 494.341 381.169 502.211 380.769 510.051V510.071Z" fill="#0D1016"/>
<path d="M96.18 421.721C95.99 428.191 95.84 434.661 95.65 441.131C95.57 443.801 97.41 445.931 100.33 446.281C101.65 446.441 103.01 446.321 104.36 446.331C109.24 446.381 110.71 445.671 110.66 440.571C110.61 435.061 110.65 429.551 110.65 424.031C110.71 424.031 110.76 424.031 110.81 424.031C110.81 418.661 110.84 413.281 110.81 407.911C110.78 403.961 110.57 403.781 106.43 403.121C105.26 402.931 104.12 402.941 102.97 403.181C100.94 404.591 98.93 406.061 96.93 407.561C96.98 412.301 96.32 417.001 96.18 421.721Z" fill="#0D1016"/>
<path d="M484.299 473.23C481.929 473.54 479.569 473.93 477.239 474.42C475.539 474.78 474.709 475.87 475.029 477.5C475.649 480.65 475.349 483.82 475.469 486.98C475.779 494.96 476.1 502.93 476.44 510.91C476.47 511.59 476.529 512.3 476.729 512.95C477.259 514.66 478.53 516.01 480.32 516.37C482.94 516.89 485.689 516.96 488.359 516.39C490.329 515.97 491.02 515.13 491.14 513.14C491.23 511.63 491.159 510.11 491.159 508.6C491.059 508.6 490.969 508.6 490.869 508.6C490.869 506.67 490.979 504.74 490.849 502.82C490.429 496.5 489.899 490.2 489.479 483.88C489.349 481.93 489.379 479.97 489.309 478.02C488.799 476.5 488.269 474.99 487.709 473.5C486.939 473.1 485.859 473.03 484.309 473.23H484.299Z" fill="#0D1016"/>
<path d="M143.7 398.79C141.16 398.96 138.63 399.24 136.1 399.46C134.86 399.57 134.24 400.25 134.08 401.32C134 401.86 134.02 402.42 134.02 402.97C134.02 408.34 134.02 413.72 134.02 419.09H133.98C133.98 421.3 133.98 423.5 133.98 425.71C133.96 429.16 133.86 432.6 133.93 436.05C133.98 438.75 136 440.77 138.88 441.02C140.81 441.18 142.79 441.23 144.71 441.05C147.4 440.8 148.36 439.77 148.63 437.33C148.68 436.92 148.67 436.5 148.68 436.09C148.69 426.17 148.71 416.24 148.71 406.32C148.71 404.8 148.62 403.3 148.16 401.82C147.38 399.3 146.49 398.62 143.7 398.81V398.79Z" fill="#0D1016"/>
<path d="M438.489 488.94C438.489 492.53 438.479 496.13 438.469 499.72C438.469 503.04 438.429 506.35 438.499 509.67C438.549 512.32 439.569 513.58 442.339 513.98C444.239 514.26 446.259 514.26 448.169 514.01C451.149 513.62 452.499 512.22 452.119 509.43C451.669 506.1 452.309 502.84 452.229 499.55C452.149 495.96 452.209 492.36 452.209 488.77H452.349C452.349 486.7 452.349 484.63 452.349 482.55C452.349 479.65 452.439 476.74 452.349 473.84C452.279 471.54 451.419 470.63 449.139 470.78C446.589 470.94 444.079 470.94 441.539 470.78C439.279 470.64 438.189 471.56 437.909 473.66C437.559 476.27 437.469 478.93 437.959 481.51C438.429 483.99 438.499 486.45 438.489 488.94Z" fill="#0D1016"/>
<path d="M320.23 424.15C319.22 421.18 319.49 418.14 319.33 415.12C319.28 414.16 319.33 413.19 319.29 412.23C319.26 411.52 319.02 410.85 318.32 410.46C315.76 409.06 313.3 407.5 310.2 407.13C307.67 406.83 306.52 407.4 305.98 409.67C305.79 410.47 305.75 411.31 305.72 412.13C305.68 413.65 305.7 415.16 305.7 416.68C305.68 425.5 305.97 434.32 304.92 443.12C304.79 444.21 304.82 445.33 304.96 446.42C305.1 447.57 305.79 448.46 306.95 449.01C310.08 450.5 313.33 450.43 316.55 449.4C318 448.94 319.05 447.84 319.4 446.39C319.83 444.64 320.27 442.9 320.24 441.08C320.2 438.74 320.24 436.39 320.24 434.05H320.41C320.41 431.84 320.43 429.64 320.41 427.43C320.4 426.33 320.58 425.16 320.23 424.14V424.15Z" fill="#0D1016"/>
<path d="M432.62 474.711C430.03 473.551 427.26 472.941 424.46 472.521C422.51 472.221 421.39 473.081 420.83 474.881C420.67 475.411 420.56 475.961 420.53 476.511C420.27 481.201 419.23 485.831 419.52 490.561C419.59 491.661 419.54 492.791 419.32 493.871C418.26 499.081 418.86 504.351 418.58 509.591C418.45 512.091 419.5 513.621 423.2 514.151C423.94 514.251 424.7 514.171 425.46 514.171V514.151C426.21 514.151 426.97 514.181 427.72 514.151C431.22 513.971 433.38 512.181 433.38 508.941C433.38 503.681 433.81 498.461 434.2 493.221C434.53 488.681 433.94 484.091 434.99 479.581C435.08 479.181 435.04 478.751 435.06 478.341C435.14 476.631 434.33 475.491 432.63 474.731L432.62 474.711Z" fill="#0D1016"/>
<path d="M457.439 509.201C457.429 509.471 457.449 509.751 457.499 510.031C457.819 511.791 459.689 513.781 461.619 513.961C463.849 514.171 466.139 514.221 468.349 513.961C471.099 513.631 472.119 512.331 472.209 509.691C472.269 507.761 472.219 505.831 472.219 503.891C472.339 496.981 470.929 490.151 471.069 483.231C471.119 480.641 470.569 478.011 470.109 475.431C469.669 472.981 468.269 472.071 465.619 472.601C463.279 473.071 460.979 473.771 458.759 474.571C456.139 475.511 455.449 476.521 455.989 479.051C456.579 481.801 456.599 484.551 456.499 487.301C456.259 494.621 457.799 501.881 457.429 509.201H457.439Z" fill="#0D1016"/>
<path d="M76.4592 430.29C76.9692 433.6 76.9392 436.89 76.9592 440.2C76.9592 441.72 76.9592 443.24 77.1092 444.75C77.4092 447.65 78.5692 448.76 81.6892 449.65C84.0892 450.33 86.3792 450.26 88.7592 449.56C90.7492 448.97 91.8292 447.9 91.7892 445.97C91.6992 441.42 91.8492 436.84 91.3992 432.32C90.9992 428.32 90.9392 424.34 91.0092 420.34C91.0092 418.41 91.0392 416.48 90.9992 414.55C90.9792 413.78 90.9692 413.01 90.9492 412.24C85.9292 416.31 81.0592 420.68 76.4292 425.39C76.2292 427.04 76.2192 428.68 76.4692 430.3L76.4592 430.29Z" fill="#0D1016"/>
<path d="M358.389 434.08C358.379 430.21 358.319 426.35 358.379 422.48C358.409 420.57 357.629 419.41 355.609 418.74C353.319 417.99 350.969 417.66 348.589 417.39C345.299 417.02 344.109 417.83 343.799 420.73C343.729 421.41 343.749 422.11 343.749 422.8C343.739 428.32 343.769 433.84 343.719 439.37C343.689 443.09 343.869 446.82 343.049 450.51C342.819 451.55 342.959 452.72 343.169 453.78C343.529 455.6 344.759 456.71 346.859 456.85C347.909 456.92 348.959 456.97 350.009 457.04C355.899 457.42 358.019 456.99 358.229 450.23C358.369 445.68 358.259 441.12 358.259 436.57H358.419C358.419 435.74 358.419 434.91 358.419 434.08H358.389Z" fill="#0D1016"/>
<path d="M339.889 430.941C339.759 428.061 339.629 425.171 339.439 422.291C339.019 416.001 337.309 413.521 329.909 412.621C325.369 412.071 324.579 412.681 324.619 416.851C324.669 421.531 324.779 426.221 324.799 430.901C324.819 434.891 324.819 438.881 323.979 442.841C323.639 444.441 323.769 446.131 323.699 447.781C323.629 449.731 324.799 450.781 326.699 451.421C328.019 451.861 329.349 451.791 330.699 451.921C331.149 451.921 331.599 451.921 332.049 451.921C336.139 451.901 338.199 450.231 338.479 446.541C338.609 444.891 338.859 443.261 339.069 441.631C339.519 438.081 340.059 434.491 339.899 430.941H339.889Z" fill="#0D1016"/>
<path d="M366.56 510.741C368.33 510.991 370.13 511.111 371.93 511.241C373.94 511.391 375.36 510.511 376.38 508.981C377.19 507.751 377.34 506.401 377.33 505.001C377.32 500.731 377.33 496.461 377.33 492.191H377.36C377.36 488.331 377.36 484.471 377.36 480.611C377.36 479.651 377.36 478.671 377.22 477.721C376.81 475.111 375.57 473.911 372.75 473.261C371.44 472.961 370.14 472.641 368.83 472.341C368.1 472.171 367.39 471.931 366.65 471.851C364.26 471.591 362.89 472.571 362.64 474.721C362.55 475.541 362.59 476.371 362.6 477.201C362.76 486.561 363.02 495.921 361.94 505.261C361.58 508.391 363.24 510.271 366.59 510.741H366.56Z" fill="#0D1016"/>
<path d="M63.8692 451.841C65.5092 451.891 67.1692 451.871 68.7892 451.681C72.0692 451.301 73.4192 449.591 73.0992 446.601C72.5192 441.251 71.7192 435.901 71.6192 430.521C66.8692 435.811 62.4192 441.481 58.4092 447.591C58.8892 450.031 61.1792 451.761 63.8592 451.841H63.8692Z" fill="#0D1016"/>
<path d="M336.73 466.84C334.14 466.14 331.53 465.46 328.88 465.04C326.58 464.68 325.23 465.77 324.82 467.97C324.65 468.91 324.72 469.89 324.7 470.86C324.59 475.69 324.79 480.55 324.29 485.35C323.84 489.63 323.93 493.9 323.79 498.17C323.71 500.69 324.98 502 327.68 502.48C329.58 502.81 331.55 502.94 333.49 503C336.67 503.09 338.64 501.6 339.09 498.77C339.26 497.7 339.05 496.58 338.97 495.49C338.9 494.53 338.5 493.53 338.71 492.63C339.7 488.38 339.01 484.09 339.34 479.33C339.34 476.64 339.31 473.46 339.34 470.29C339.36 468.54 338.51 467.33 336.72 466.85L336.73 466.84Z" fill="#0D1016"/>
<path d="M342.91 492.06C342.98 494.53 343.24 496.97 342.91 499.45C342.74 500.8 342.91 502.21 343.12 503.57C343.37 505.17 344.34 506.3 346.05 506.96C348.46 507.9 350.99 508.18 353.53 508.01C356.36 507.83 358.11 506.08 358.32 503.38C358.47 501.46 358.35 499.52 358.35 497.25C358.48 492.61 357.27 487.71 357.52 482.72C357.65 480.24 357.47 477.75 357.49 475.27C357.51 473.47 356.52 472.44 354.74 471.94C352.87 471.42 350.99 470.93 349.11 470.45C344.53 469.28 342.94 470.29 342.87 474.67C342.78 480.47 342.74 486.27 342.9 492.07L342.91 492.06Z" fill="#0D1016"/>
<path d="M43.2395 507.851C46.1295 508.241 48.9095 507.741 51.4995 506.461C52.7895 505.821 53.4595 504.781 53.6295 503.481C53.7195 502.801 53.7295 502.101 53.7295 501.421C53.7295 497.011 53.7295 492.591 53.7295 488.181H53.7495C53.7495 483.631 53.7595 479.081 53.7395 474.531C53.7395 473.711 53.6795 472.871 53.4995 472.071C53.2195 470.841 52.3495 470.161 50.9795 470.101C50.0895 470.061 49.1595 470.101 48.3095 470.291C47.6495 470.441 46.9895 470.641 46.3395 470.821C45.7595 472.261 45.1895 473.701 44.6595 475.181C44.4895 475.631 44.3195 476.111 44.1795 476.561C43.0495 479.761 42.0795 483.061 41.1895 486.461C39.9795 491.061 38.9995 495.851 38.2695 500.811C38.3095 501.611 38.3595 502.421 38.4295 503.211C38.6695 505.981 40.2295 507.461 43.2395 507.871V507.851Z" fill="#0D1016"/>
<path d="M58.1198 499.211C58.3998 501.191 60.2198 502.851 62.3698 502.881C64.6098 502.911 66.9298 502.881 69.0898 502.401C72.2898 501.691 72.9198 500.231 72.8498 497.991C72.7698 495.371 72.8298 492.741 72.8298 490.111C73.1398 483.051 71.4798 476.051 71.8998 469.001C71.9198 468.731 71.8998 468.451 71.8598 468.171C71.5598 465.771 70.1898 464.701 67.5698 465.101C65.9598 465.341 64.4298 466.021 62.8398 466.411C57.3198 467.791 57.2998 467.781 57.2998 473.131C57.2998 476.441 57.4698 479.741 57.8198 483.051C58.2598 487.161 57.9698 491.341 57.9998 495.481C58.0098 496.721 57.9298 497.981 58.0998 499.211H58.1198Z" fill="#0D1016"/>
<path d="M304.85 491.311C304.9 494.481 305.75 495.451 309.11 496.191C310.85 496.571 312.65 496.801 314.43 496.931C317.01 497.121 319.43 495.491 320.08 493.141C320.34 492.221 320.38 491.231 320.38 490.281C320.35 484.081 320.34 477.891 320.2 471.701C320.16 469.931 319.74 468.161 319.42 466.401C319.14 464.891 318.07 463.941 316.49 463.591C314.02 463.041 311.53 462.551 309.02 462.131C306.76 461.751 305.28 462.771 304.91 464.901C304.79 465.571 304.83 466.271 304.83 466.961C304.83 470.811 304.83 474.671 304.83 478.521H304.95C304.95 479.211 304.95 479.901 304.95 480.591C304.91 484.171 304.8 487.751 304.85 491.331V491.311Z" fill="#0D1016"/>
<path d="M365.37 456.42C367.72 457.13 370.14 457.18 372.51 456.82C375.53 456.36 377.12 454.5 377.32 451.64C377.35 451.23 377.35 450.81 377.35 450.4C377.35 443.9 377.29 437.4 377.36 430.91C377.38 428.93 376.74 427.1 376.33 425.21C375.99 423.65 374.89 422.81 373.36 422.4C370.76 421.7 368.08 421.39 365.38 421.3C364 421.26 363.11 421.95 362.89 423.23C362.7 424.31 362.68 425.43 362.67 426.53C362.65 430.54 362.66 434.55 362.66 438.56H362.56C362.56 441.46 362.56 444.37 362.56 447.27C362.56 449.21 362.56 451.14 362.59 453.08C362.61 454.83 363.6 455.88 365.38 456.42H365.37Z" fill="#0D1016"/>
<path d="M88.4198 462.121C85.7598 462.531 83.1098 463.021 80.4598 463.521C78.6498 463.861 77.4898 464.911 77.2498 466.581C77.0298 468.081 77.0298 469.61 76.9598 471.13C76.8698 473.2 76.9798 475.291 76.6798 477.331C76.0498 481.741 76.3998 486.16 76.3898 490.57C76.3898 491.38 76.6298 492.211 76.8698 493.001C77.7098 495.761 79.3698 496.951 82.4198 496.791C84.2098 496.691 85.9998 496.391 87.7598 496.041C91.0598 495.381 91.7198 494.641 91.7598 491.521C91.8098 487.381 91.7698 483.231 91.7698 479.091H91.7798C91.7798 474.951 91.7798 470.801 91.7798 466.661C91.7798 465.831 91.7998 464.99 91.6398 464.19C91.3298 462.58 90.2098 461.841 88.3998 462.121H88.4198Z" fill="#0D1016"/>
<path d="M301.17 463.24C301.05 461.9 300.26 460.95 298.75 460.59C296.72 460.1 294.72 459.48 292.68 459.08C287.5 458.06 286.66 458.74 286.63 463.72C286.6 467.16 286.88 470.64 286.44 474.04C286.01 477.34 285.82 480.62 285.76 483.92C285.63 490.65 285.51 490.98 293.55 492.31C293.99 492.38 294.44 492.46 294.88 492.46C297.78 492.46 299.98 490.85 300.72 488.29C301.31 486.26 301.53 484.22 301.02 482.16C300.69 480.8 300.46 479.44 300.82 478.07C301.54 475.36 301.3 472.59 301.55 469.54C301.45 467.64 301.38 465.44 301.18 463.24H301.17Z" fill="#0D1016"/>
<path d="M96.0398 487.46C96.3398 490.69 98.9899 492.72 102.47 492.36C103.96 492.21 105.44 491.94 106.89 491.59C110.08 490.82 110.78 490.02 110.83 486.94C110.89 483.08 110.84 479.21 110.84 475.34C110.75 475.34 110.67 475.34 110.58 475.34C110.58 471.75 110.6 468.16 110.57 464.57C110.57 463.47 110.55 462.35 110.3 461.29C109.86 459.4 108.9 458.86 106.75 458.9C103.83 458.95 101.24 460.231 98.4299 460.681C96.8499 460.941 96.1499 461.76 95.7799 463.1C94.9199 466.24 94.9599 469.46 95.4099 472.57C95.9499 476.29 95.9799 479.99 95.9699 483.72C95.9699 484.96 95.9199 486.21 96.0299 487.45L96.0398 487.46Z" fill="#0D1016"/>
<path d="M396.1 431.38C396.04 429.23 395.13 428.1 393.02 427.91C390.15 427.65 387.42 426.94 384.64 426.36C383.34 426.09 382.16 426.71 381.87 427.91C381.38 429.92 380.63 431.96 381.02 434.03C381.65 437.47 381.44 440.92 381.49 444.37C381.54 447.69 381.49 451 381.49 454.32C381.49 455.47 381.7 456.59 382.85 457.23C386.15 459.07 389.69 458.92 393.26 458.09C393.53 458.03 393.76 457.79 394.01 457.64C395.8 456.49 396.31 454.84 396.29 452.94C396.26 449.48 396.29 446.03 396.29 442.57H396.12C396.12 438.84 396.19 435.1 396.09 431.37L396.1 431.38Z" fill="#0D1016"/>
<path d="M271.849 486.301C272.429 486.421 273.059 486.351 273.639 486.471C279.579 487.681 282.699 484.691 282.369 479.561C281.999 473.781 281.729 467.991 281.409 462.211C281.389 461.801 281.349 461.381 281.249 460.981C280.859 459.351 279.989 458.581 278.189 458.441C276.999 458.351 275.789 458.421 274.589 458.421C272.949 458.421 271.319 457.921 269.659 458.341C268.039 458.761 267.029 459.621 266.859 461.191C266.799 461.741 266.789 462.291 266.789 462.841C266.839 468.781 266.879 474.721 266.949 480.661C266.999 484.731 267.599 485.391 271.849 486.291V486.301Z" fill="#0D1016"/>
<path d="M460.26 429.921C459.86 430.001 459.44 430.051 459.04 430.131C457 430.541 456.6 430.961 456.54 432.951C456.45 435.701 456.49 438.461 456.51 441.211C456.54 445.071 456.51 448.921 456.67 452.781C456.78 455.671 458.44 457.471 461.51 457.881C463.54 458.151 465.68 458.191 467.72 457.931C470.54 457.581 471.27 456.681 471.34 454.061C471.42 450.761 471.36 447.451 471.36 444.151H471.23C471.23 443.821 471.23 443.491 471.23 443.161C467.84 438.531 464.18 434.121 460.27 429.921H460.26Z" fill="#0D1016"/>
<path d="M419.519 450.271C419.519 451.781 419.459 453.301 419.509 454.811C419.549 455.981 420.029 456.981 421.309 457.441C424.519 458.611 427.749 458.161 430.969 457.461C431.379 457.371 431.739 457.041 432.079 456.781C433.699 455.551 434.269 453.951 434.249 452.031C434.209 446.111 434.279 440.191 434.299 434.261C434.299 433.571 434.269 432.881 434.199 432.201C434.079 431.141 433.499 430.411 432.299 430.201C429.359 429.691 426.419 429.141 423.469 428.701C422.159 428.501 421.149 429.091 420.509 430.161C419.769 431.401 419.559 432.741 419.569 434.151C419.599 437.321 419.579 440.481 419.579 443.651H419.519C419.519 445.851 419.519 448.061 419.519 450.261V450.271Z" fill="#0D1016"/>
<path d="M118.62 486.241C121 486.601 123.41 486.511 125.71 485.881C129.24 484.901 129.68 484.291 129.73 480.871C129.78 477.841 129.73 474.811 129.73 471.771H129.8C129.8 468.461 129.87 465.151 129.77 461.851C129.7 459.611 128.57 458.491 126.19 458.391C123.65 458.291 121.09 458.391 118.55 458.551C117.08 458.641 116 459.431 115.69 460.801C115.41 462.001 115.25 463.241 115.13 464.471C114.65 469.551 115.37 474.671 114.41 479.741C114.15 481.121 114.82 482.451 115.32 483.751C115.87 485.191 117.02 486.011 118.61 486.251L118.62 486.241Z" fill="#0D1016"/>
<path d="M411.79 431.01C410.44 430.42 408.97 430.06 407.54 429.62C403.86 428.49 402.83 428.37 401.72 432.83C401.62 433.23 401.55 433.65 401.53 434.06C401.06 440.67 400.57 447.28 400.16 453.89C400.03 456.03 401 457.3 403.21 457.98C405.84 458.79 408.57 458.81 411.22 458.15C413.93 457.47 415.03 456.03 415.11 453.24C415.19 450.2 415.13 447.16 415.13 444.12H415.33C415.33 443.29 415.34 442.46 415.33 441.63C415.3 439.7 415.12 437.75 415.25 435.83C415.42 433.35 413.94 431.96 411.79 431.01Z" fill="#0D1016"/>
<path d="M480.109 458.281C480.339 458.321 480.579 458.311 480.809 458.341C479.179 455.321 477.459 452.371 475.609 449.511C475.609 450.801 475.609 452.091 475.649 453.381C475.749 456.161 477.169 457.791 480.099 458.281H480.109Z" fill="#0D1016"/>
<path d="M247.929 479.82C248.079 482.41 249.849 483.72 252.699 483.73C253.899 483.73 255.099 483.53 256.289 483.59C261.769 483.84 263.669 480.29 263.289 476.53C263.249 476.12 263.269 475.69 263.149 475.3C262.459 473.01 262.609 470.66 262.599 468.32C262.589 465.98 262.569 463.64 262.549 461.3C262.539 460.1 262.069 459.05 260.789 458.67C257.779 457.78 254.679 457.27 251.509 457.59C249.679 457.77 248.479 458.77 248.119 460.44C247.919 461.38 247.859 462.35 247.839 463.31C247.799 465.65 247.829 467.99 247.829 470.33H247.889C247.889 473.49 247.749 476.67 247.929 479.82Z" fill="#0D1016"/>
<path d="M148.599 461.381C148.449 458.761 147.099 457.731 144.289 457.581C141.709 457.431 139.219 458.011 136.739 458.521C134.829 458.921 134.249 459.591 134.139 461.381C134.059 462.751 134.109 464.131 134.089 465.511C134.029 469.641 133.879 473.781 133.909 477.911C133.939 481.751 135.739 483.361 139.969 483.541C141.469 483.601 142.979 483.641 144.469 483.531C147.249 483.321 148.509 482.191 148.649 479.571C148.789 476.681 148.679 473.791 148.679 470.891C148.669 470.891 148.649 470.891 148.639 470.891C148.639 467.721 148.769 464.551 148.599 461.391V461.381Z" fill="#0D1016"/>
<path d="M451.369 433.461C451.289 430.911 450.209 430.181 447.339 430.091C445.989 430.051 444.639 430.051 443.289 430.091C440.539 430.181 439.909 430.641 439.209 433.041C438.979 433.831 438.769 434.651 438.709 435.471C438.289 441.091 438.709 446.741 437.899 452.371C437.499 455.151 439.099 456.631 442.139 457.331C444.349 457.841 446.569 457.871 448.789 457.281C451.529 456.561 452.229 455.861 452.349 453.241C452.449 451.181 452.369 449.111 452.369 447.051H452.209C452.209 446.641 452.179 446.221 452.209 445.811C452.579 441.661 451.499 437.591 451.369 433.471V433.461Z" fill="#0D1016"/>
<path d="M243.6 462.071C243.6 461.251 243.59 460.411 243.42 459.601C243.2 458.561 242.47 457.831 241.27 457.781C238.42 457.661 235.56 457.501 232.71 457.601C230.63 457.681 229.43 458.851 229.09 460.721C228.92 461.671 228.93 462.651 228.93 463.611C228.93 467.761 228.94 471.901 228.96 476.051C228.96 476.741 228.94 477.441 229.01 478.121C229.29 480.821 230.33 481.821 233.26 481.981C234.75 482.061 236.26 481.821 237.76 481.831C241.8 481.851 244.25 479.301 243.96 475.301C243.8 473.101 243.66 470.891 243.51 468.691C243.54 468.691 243.57 468.691 243.61 468.691C243.61 466.481 243.63 464.271 243.61 462.061L243.6 462.071Z" fill="#0D1016"/>
<path d="M167.659 461.861C167.489 458.811 166.089 457.571 162.869 457.591C160.189 457.601 157.499 457.861 154.819 458.031C154.169 458.071 153.679 458.481 153.519 459.021C153.289 459.801 153.119 460.631 153.099 461.441C153.009 465.981 152.969 470.531 152.939 475.071C152.939 476.031 152.939 477.021 153.169 477.941C153.649 479.831 154.999 481.181 157.069 481.501C159.119 481.821 161.249 481.901 163.329 481.841C166.159 481.751 167.419 480.581 167.539 477.981C167.659 475.371 167.569 472.751 167.569 470.131C167.609 470.131 167.649 470.131 167.689 470.131C167.689 467.381 167.809 464.621 167.659 461.871V461.861Z" fill="#0D1016"/>
<path d="M209.26 463.11C209.93 465.26 209.77 467.48 209.99 469.67C210.23 472.13 210.53 474.59 210.76 477.06C210.89 478.46 211.73 479.32 213.07 479.85C215.98 481.01 218.98 480.73 221.87 479.99C223.65 479.53 224.89 478.19 225.28 476.43C225.49 475.49 225.56 474.52 225.55 473.56C225.52 468.58 223.86 463.79 223.53 458.84C223.44 457.44 222.41 456.83 220.7 456.71C219.66 456.63 218.6 456.7 217.55 456.7V456.73C216.35 456.73 215.14 456.64 213.95 456.75C210.21 457.09 208.97 458.44 209.13 461.89C209.15 462.3 209.13 462.73 209.26 463.12V463.11Z" fill="#0D1016"/>
<path d="M186.679 460.15C186.569 457.8 185.589 456.79 183.119 456.7C180.419 456.59 177.709 456.78 175.009 456.88C173.629 456.93 172.799 457.68 172.469 458.87C172.289 459.53 172.139 460.22 172.119 460.9C171.999 465.04 171.889 469.19 171.859 473.33C171.859 474.56 171.969 475.83 172.339 477.01C173.029 479.24 174.919 480.62 177.279 480.64C179.469 480.67 181.769 480.48 183.909 479.7C185.809 479.01 186.779 477.82 186.739 475.91C186.699 473.42 186.729 470.94 186.729 468.45H186.699C186.699 465.69 186.789 462.92 186.669 460.16L186.679 460.15Z" fill="#0D1016"/>
<path d="M190.9 473.22C190.9 473.9 191.02 474.6 191.21 475.25C192 477.91 193.64 479.18 196.63 479.35C198.42 479.45 200.23 479.5 202.01 479.39C204.5 479.24 205.55 478.29 205.66 476.03C205.77 473.7 205.69 471.36 205.69 469.02H205.55C205.55 466.82 205.57 464.62 205.55 462.42C205.52 460.2 204.27 458.92 201.98 458.25C199.49 457.53 196.99 457.39 194.43 457.56C191.74 457.73 190.97 458.36 190.92 460.84C190.83 464.96 190.87 469.09 190.9 473.22Z" fill="#0D1016"/>
</g>
<path d="M407.639 430.89C408.569 453.16 408.059 475.43 406.229 497.64C405.609 505.04 404.709 512.43 403.649 519.8C403.449 521.16 402.189 522.1 400.829 521.91C399.479 521.72 398.539 520.47 398.719 519.12C400.479 504.57 401.739 489.8 402.519 475.17C403.319 460.48 403.739 445.72 403.769 431.01C403.779 428.52 407.469 428.36 407.639 430.9V430.89Z" fill="#0D1016"/>
<path d="M129.23 431C129.29 453.07 130.14 475.19 132.01 497.19C132.6 504.32 133.43 512.09 134.28 519.17C134.57 522.36 129.89 523 129.35 519.8C127.18 505.09 125.97 490.26 125.38 475.41C124.8 460.56 124.7 445.75 125.35 430.89C125.51 428.4 129.2 428.46 129.22 431H129.23Z" fill="#0D1016"/>
<mask id="mask1_472_24004" style="mask-type:luminance" maskUnits="userSpaceOnUse" x="128" y="352" width="277" height="408">
<path d="M401.23 386.651C351.38 359.831 318.38 353.221 266.81 352.661V352.641C266.71 352.641 266.29 352.641 266.19 352.641V352.661C214.65 353.221 181.64 359.821 131.77 386.651C131.77 386.651 117.88 494.971 150.02 637.351C169.66 724.351 171.84 754.021 266.19 759.241V759.281C266.6 759.261 266.41 759.261 266.81 759.281V759.241C361.15 754.021 363.39 724.161 382.98 637.351C415.12 494.981 401.23 386.651 401.23 386.651Z" fill="white"/>
</mask>
<g mask="url(#mask1_472_24004)">
<path d="M266.5 468.89C317.603 468.89 359.03 434.542 359.03 392.17C359.03 349.799 317.603 315.45 266.5 315.45C215.397 315.45 173.97 349.799 173.97 392.17C173.97 434.542 215.397 468.89 266.5 468.89Z" fill="#DFEE95"/>
</g>
<path d="M334.25 371.42C334.25 408.83 303.92 439.2 266.51 439.2C229.1 439.2 198.729 408.84 198.729 371.42C198.729 362.41 200.48 353.81 203.72 345.94C203.82 345.63 203.93 345.32 204.06 345.05C209.77 328.89 213.35 317.85 215.06 308.84C216.3 302.31 216.81 297.11 217.47 290.92V290.65C217.47 263.55 239.41 241.61 266.51 241.61C293.61 241.61 315.51 263.55 315.51 290.65C316.2 296.94 316.71 302.2 317.99 308.84C319.74 318.02 323.389 329.3 329.299 345.94C332.499 353.82 334.25 362.41 334.25 371.42Z" fill="#D17E79"/>
<path d="M288.288 334.587C312.534 322.541 322.423 293.12 310.377 268.875C298.331 244.63 268.911 234.74 244.666 246.786C220.42 258.832 210.531 288.252 222.577 312.498C234.623 336.743 264.043 346.633 288.288 334.587Z" fill="#D17E79"/>
<path d="M286.088 436.288C321.919 425.47 342.196 387.653 331.378 351.822C320.56 315.991 282.744 295.714 246.913 306.532C211.082 317.35 190.805 355.167 201.623 390.998C212.441 426.829 250.257 447.106 286.088 436.288Z" fill="#D17E79"/>
<path d="M195.119 218.261C195.119 229.771 198.069 242.471 186.589 242.471C168.799 242.471 157.159 228.251 157.159 216.751C157.159 205.251 162.859 197.431 174.339 197.431C185.819 197.431 195.119 206.761 195.119 218.261Z" fill="#D17E79"/>
<path d="M175.59 223.801C174.81 226.381 171.85 227.121 169.64 225.621C165.11 222.641 161.72 211.381 168.54 211.381C169.02 211.381 169.5 211.481 169.92 211.691C173.04 213.311 176.51 221.041 175.59 223.791V223.801Z" fill="#75363F"/>
<path d="M337.88 218.261C337.88 229.771 334.93 242.471 346.41 242.471C364.2 242.471 375.84 228.251 375.84 216.751C375.84 205.251 370.14 197.431 358.66 197.431C347.18 197.431 337.88 206.761 337.88 218.261Z" fill="#D17E79"/>
<path d="M357.409 223.801C358.189 226.381 361.149 227.121 363.359 225.621C367.889 222.641 371.279 211.381 364.459 211.381C363.979 211.381 363.499 211.481 363.089 211.691C359.969 213.311 356.499 221.041 357.419 223.791L357.409 223.801Z" fill="#75363F"/>
<path d="M344.79 268.821C343.86 270.751 342.86 272.531 341.8 274.291C330.04 293.381 302.32 320.681 266.84 321.091H266.15C230.7 320.681 202.95 293.371 191.22 274.291C190.05 272.401 188.95 270.401 187.95 268.311C170.27 231.931 175.47 168.211 190.39 136.781C205.69 104.661 233.27 87.6406 266.14 86.9206C266.28 86.8906 266.38 86.8906 266.52 86.8906C266.62 86.8906 266.72 86.8906 266.83 86.9206C299.74 87.6406 327.32 104.661 342.58 136.781C357.61 168.351 362.73 232.551 344.78 268.831L344.79 268.821Z" fill="#D17E79"/>
<path d="M344.789 268.821C343.859 270.751 342.859 272.531 341.799 274.291C330.039 293.381 302.319 320.681 266.839 321.091H266.149C230.699 320.681 202.949 293.371 191.219 274.291C190.049 272.401 188.949 270.401 187.949 268.311C201.809 271.751 216.729 269.481 228.629 261.471C235.529 256.821 241.399 250.741 248.609 246.541C257.279 241.501 271.159 240.421 280.619 243.751C290.649 247.281 297.919 255.651 306.549 261.471C317.759 269.041 331.649 271.481 344.789 268.831V268.821Z" fill="#0D1016"/>
<path d="M238.95 272.681C234.91 277.161 230.38 281.061 225.12 284.061C223.31 285.031 221.41 285.921 219.28 286.471C217.95 286.811 216.59 286.011 216.25 284.681C215.92 283.411 216.64 282.121 217.85 281.701C219.41 281.101 221 280.331 222.56 279.461C227.38 276.751 231.93 273.301 236.27 269.881C238.11 268.441 240.46 270.931 238.94 272.681H238.95Z" fill="#555A63"/>
<path d="M253.019 282.591C250.289 287.961 246.929 292.921 242.629 297.171C241.139 298.581 239.529 299.931 237.619 301.011C236.419 301.691 234.909 301.271 234.229 300.071C233.579 298.931 233.939 297.501 234.999 296.781C236.349 295.791 237.679 294.641 238.959 293.391C242.909 289.521 246.399 285.011 249.709 280.571C251.119 278.701 254.029 280.491 253.019 282.581V282.591Z" fill="#555A63"/>
<path d="M303.11 273.201C307.14 276.971 311.35 280.781 315.91 283.881C317.42 284.911 318.96 285.811 320.5 286.561C323.26 287.971 321.52 292.121 318.58 291.141C310.91 288.141 305.14 282.071 300.17 275.721C298.79 273.791 301.43 271.541 303.11 273.191V273.201Z" fill="#555A63"/>
<path d="M285.57 280.271C288.62 284.871 291.85 289.551 295.57 293.611C296.81 294.961 298.09 296.191 299.42 297.271C301.79 299.281 299.13 302.921 296.5 301.291C294.66 300.111 293.13 298.671 291.71 297.181C287.65 292.691 284.57 287.571 282.13 282.051C281.71 281.061 282.17 279.921 283.16 279.501C284.05 279.121 285.07 279.471 285.57 280.261V280.271Z" fill="#555A63"/>
<path d="M269.48 282.59C270.16 288.01 270.89 294.04 271.97 299.35C272.34 301.18 272.76 302.97 273.26 304.66C274.07 307.66 269.82 309.15 268.57 306.32C265.68 298.76 265.35 290.66 265.6 282.68C265.76 280.32 269.21 280.25 269.47 282.58L269.48 282.59Z" fill="#555A63"/>
<path d="M292.61 175.611C292.76 165.131 318.66 167.961 317.38 178.541C316.29 187.491 292.49 184.151 292.61 175.611Z" fill="#0D1016"/>
<path d="M215.71 178.66C213.42 168.43 239.27 165.16 240.48 175.75C241.5 184.71 217.57 187 215.71 178.66Z" fill="#0D1016"/>
<path d="M273.62 188.05C276.33 197.41 277.92 206.67 279.28 216.24C280.96 226.29 277.34 234.05 266.58 235.56C264.18 235.91 261.45 236.36 258.98 235.96C255.76 235.51 255.7 230.9 258.88 230.35C259.78 230.18 261.11 230.03 261.96 229.76C266.22 228.56 271.99 228.44 272.58 223.12C273.3 219.05 271.33 207.28 271.06 203L270.25 195.99C270 193.63 269.69 191.27 269.37 189C269.04 186.35 272.82 185.5 273.64 188.06L273.62 188.05Z" fill="#AB5555"/>
<path d="M254.53 253.81C258.41 258.01 263.55 261.27 269.12 262.61C272.48 263.41 275.85 263.45 279.32 263.13C281.24 262.85 283.05 264.24 283.16 266.2C283.27 267.9 282.07 269.38 280.43 269.67C279.72 269.8 279.01 269.91 278.29 270.01C273.24 270.75 267.92 269.99 263.26 267.88C257.92 265.5 253.38 261.65 250.26 256.71C248.63 253.88 252.5 251.29 254.54 253.81H254.53Z" fill="#CC7A66"/>
<path d="M217.669 203.011C221.729 194.601 231.609 194.101 237.949 200.271C240.839 202.901 237.619 207.451 234.199 205.651C232.199 204.501 229.939 202.951 227.639 202.911C225.919 202.811 224.029 203.891 222.739 205.071C222.319 205.521 221.739 205.881 221.269 206.181C219.189 207.571 216.579 205.221 217.679 203.011H217.669Z" fill="#0D1016"/>
<path d="M295.82 203.081C299.88 194.671 309.76 194.171 316.1 200.331C318.99 202.961 315.77 207.511 312.35 205.711C310.35 204.561 308.09 203.011 305.79 202.971C304.07 202.871 302.18 203.951 300.89 205.131C300.47 205.581 299.89 205.941 299.42 206.241C297.34 207.631 294.73 205.281 295.83 203.071L295.82 203.081Z" fill="#0D1016"/>
<path d="M375.629 166.95C376.609 176.7 374.069 189.61 367.689 196.56C362.899 201.78 358.359 202.32 351.939 199.3C333.949 190.85 328.399 151.06 337.859 133.64C346.409 117.9 364.299 120.52 369.929 136.88C373.279 146.62 376.409 156.41 375.629 166.95Z" fill="#0D1016"/>
<path d="M341.229 81.2505C356.849 91.5105 372.719 100.69 391.029 101.9C401.659 102.6 415.019 101.85 419.909 111.31C423.069 117.43 420.649 124.91 417.389 130.98C408.079 148.34 391.969 161.93 373.289 168.19C354.609 174.45 333.559 173.3 315.669 165.04C302.019 158.74 290.529 148.7 278.179 140.12C265.829 131.55 251.719 124.17 236.689 124.49C229.329 124.65 221.779 126.64 214.729 124.51C186.619 116.04 220.999 71.2905 232.719 63.0205C247.229 52.7805 265.899 48.6105 283.399 51.7205C304.719 55.5105 322.799 69.1205 341.239 81.2405L341.229 81.2505Z" fill="#0D1016"/>
<path d="M217.39 101.12C221.36 104.04 225.36 106.99 227.65 111.64C239.3 135.32 221.48 157.71 199.55 172.33C170.41 191.75 183.45 205.72 169.19 202.8C158.98 200.71 152.2 189.46 148.69 179.62C129.62 126.24 181.18 74.4503 217.39 101.12Z" fill="#0D1016"/>
<path d="M208.11 111.73C211.58 125.5 207.93 138.7 197.64 148.56C189.94 155.64 180.92 161.88 175.28 170.66C171.16 176.72 168.97 183.86 170.18 190.9C170.42 192.25 169.51 193.54 168.15 193.78C166.81 194.01 165.53 193.12 165.28 191.78C164.51 187.61 164.64 183.22 165.7 179.11C168.91 167.03 178.28 158.05 187.64 150.48C196.61 143.91 204.27 135.15 205.02 123.6C205.32 119.95 205.02 116.21 204.31 112.52C203.88 110.07 207.48 109.27 208.1 111.72L208.11 111.73Z" fill="#555A63"/>
<path d="M185.96 113.8C186.35 127.3 176.89 138.81 166.94 146.84C163.55 149.43 159.99 151.76 156.3 153.88C155.12 154.58 153.6 154.18 152.9 153C152.19 151.81 152.61 150.28 153.79 149.59C155.47 148.46 157.16 147.38 158.85 146.28C168.39 139.56 177.69 131.02 181.14 119.56C181.7 117.76 182.09 115.77 182.1 113.93C182.18 111.51 185.71 111.38 185.96 113.8Z" fill="#555A63"/>
<path d="M212.229 95.7504C218.949 98.0104 224.699 102.64 228.589 108.54C229.899 110.51 230.889 112.65 231.709 114.86C232.199 116.14 231.549 117.58 230.269 118.06C228.999 118.55 227.599 117.9 227.079 116.67C224.179 110.22 219.489 104.64 213.479 100.87C212.579 100.29 211.609 99.7504 210.769 99.3104C208.719 98.2204 210.029 95.0704 212.239 95.7504H212.229Z" fill="#555A63"/>
<path d="M229.299 78.1807C264.329 60.8307 290.789 67.1708 319.849 91.6408C331.739 101.641 343.759 112.491 358.579 117.601C373.379 122.831 389.249 120.721 404.249 117.011C405.589 116.671 406.939 117.491 407.269 118.831C407.599 120.161 406.789 121.501 405.469 121.831C397.649 123.821 389.639 125.471 381.409 125.851C364.589 126.971 348.529 120.681 335.269 110.771C322.439 101.471 311.459 89.5107 297.599 81.8007C276.219 68.9407 252.919 71.0008 231.039 81.6408C228.829 82.7208 227.009 79.4307 229.299 78.1807Z" fill="#555A63"/>
<path d="M241.359 95.7408C263.449 91.1208 285.139 101.431 300.819 116.141C323.509 136.751 339.939 152.341 372.809 146.591C379.569 145.501 386.279 143.801 392.879 141.721C394.189 141.311 395.589 142.031 395.999 143.341C396.409 144.641 395.689 146.031 394.399 146.451C387.639 148.651 380.729 150.501 373.639 151.701C366.499 152.851 359.189 153.321 351.959 152.491C329.759 150.391 312.999 134.101 297.539 119.721C287.719 110.311 275.729 102.821 262.339 99.9808C255.769 98.6008 248.799 98.1008 242.209 99.5008C239.749 100.051 238.799 96.3308 241.359 95.7208V95.7408Z" fill="#555A63"/>
</g>
</svg>
