<svg width="533" height="545" viewBox="0 0 533 545" fill="none" xmlns="http://www.w3.org/2000/svg">
<path d="M266.191 442.09C268.82 442.09 270.951 439.959 270.951 437.33C270.951 434.701 268.82 432.57 266.191 432.57C263.562 432.57 261.431 434.701 261.431 437.33C261.431 439.959 263.562 442.09 266.191 442.09Z" fill="#0D1016"/>
<path d="M266.191 465.231C268.82 465.231 270.951 463.1 270.951 460.471C270.951 457.842 268.82 455.711 266.191 455.711C263.562 455.711 261.431 457.842 261.431 460.471C261.431 463.1 263.562 465.231 266.191 465.231Z" fill="#0D1016"/>
<path d="M255.24 489.131C253.7 489.131 252.45 470.371 252.45 447.221C252.45 424.071 253.7 405.311 255.24 405.311C256.78 405.311 258.03 424.071 258.03 447.221C258.03 470.371 256.78 489.131 255.24 489.131Z" fill="#373A3F"/>
<path d="M172.15 171.58C171.81 160.89 173.78 150.14 177.91 140.27C182.83 128.49 190.86 118.15 200.91 110.3C204.17 107.76 207.65 105.5 211.28 103.54C212.51 102.88 211.41 101 210.18 101.67C202.04 106.07 194.69 111.98 188.63 118.97C179.45 129.56 173.3 142.63 171.01 156.46C170.18 161.46 169.82 166.53 169.98 171.59C170.02 172.98 172.2 172.99 172.15 171.59V171.58Z" fill="#705451"/>
<path d="M204.911 112.77C199.871 116.32 195.311 120.55 191.441 125.35C185.701 132.47 181.491 140.75 179.171 149.6C178.141 153.53 177.491 157.56 177.191 161.62C177.091 163.01 179.261 163.01 179.361 161.62C179.941 153.69 182.021 145.85 185.501 138.7C188.981 131.55 193.641 125.35 199.361 120.04C201.511 118.04 203.671 116.29 206.011 114.64C206.491 114.3 206.711 113.69 206.401 113.16C206.121 112.69 205.401 112.43 204.921 112.77H204.911Z" fill="#705451"/>
<mask id="mask0_472_24007" style="mask-type:luminance" maskUnits="userSpaceOnUse" x="0" y="0" width="533" height="545">
<path d="M266.5 544.98C413.684 544.98 533 422.982 533 272.49C533 121.998 413.684 0 266.5 0C119.316 0 0 121.998 0 272.49C0 422.982 119.316 544.98 266.5 544.98Z" fill="white"/>
</mask>
<g mask="url(#mask0_472_24007)">
<path d="M187.6 442.77C186.04 451.66 183.68 460.56 180.45 468.98C177.76 476.02 174.5 482.66 170.58 488.8C161.32 503.5 148.58 514.86 132.25 519.4C132.1 519.44 131.92 519.47 131.81 519.51C92.5703 530.22 36.8203 516.57 36.8203 516.57C37.2203 505.79 38.7403 495.74 41.1803 486.48C42.0903 483.07 43.0303 479.77 44.1903 476.57C44.3003 476.1 44.4803 475.63 44.6603 475.19C65.3503 417.26 122.04 389.13 159.47 372.91C163.61 371.13 167.49 369.5 171.08 367.97C171.19 368.04 171.3 368.15 171.44 368.19C187.52 378.35 193.15 410.51 187.59 442.78L187.6 442.77Z" fill="#DFEE95"/>
<path d="M496.201 516.54C496.201 516.54 440.421 530.19 401.191 519.5C401.051 519.47 400.911 519.43 400.781 519.4C381.491 514.04 367.181 499.08 357.691 480.47C355.801 476.79 354.081 472.94 352.571 468.98C337.581 429.88 341.081 381.12 361.581 368.19C361.721 368.12 361.821 368.02 361.961 367.95C378.841 375.14 402.581 385.02 425.411 400.08C425.411 400.08 425.411 400.08 425.411 400.07C425.821 400.35 426.241 400.62 426.681 400.9C427.161 401.24 427.681 401.55 428.191 401.93C455.871 420.74 481.771 447.43 491.841 486.45C494.281 495.74 495.791 505.78 496.211 516.54H496.201Z" fill="#DFEE95"/>
<path d="M404.18 456.38C404 474.42 403.2 495.36 401.28 518.74C401.24 518.99 401.24 519.25 401.21 519.5C398.23 554.31 392.72 594.27 382.95 637.36C363.39 724.18 361.17 754.02 266.8 759.24V759.28C266.4 759.24 266.58 759.24 266.18 759.28V759.24C171.81 754.01 169.67 724.36 150.03 637.36C140.3 594.28 134.75 554.31 131.81 519.5V519.43C130.76 506.98 130 495.18 129.52 484.19C126.94 424.23 131.77 386.66 131.77 386.66C141.57 381.4 150.72 376.9 159.46 373.09C163.52 371.31 167.52 369.68 171.44 368.19C180.59 364.71 189.44 361.95 198.34 359.81C201.86 358.94 205.42 358.21 208.97 357.52C226.54 354.22 244.76 352.91 266.17 352.66H266.79C289.58 352.91 308.71 354.37 327.3 358.14C338.73 360.5 349.88 363.77 361.56 368.19C367.62 370.51 373.83 373.13 380.25 376.14C386.93 379.23 393.9 382.75 401.23 386.67C401.23 386.67 404.57 412.84 404.17 456.4L404.18 456.38Z" fill="#DFEE95"/>
<path d="M407.64 430.89C408.57 453.16 408.06 475.43 406.23 497.64C405.61 505.04 404.71 512.43 403.65 519.8C403.45 521.16 402.19 522.1 400.83 521.91C399.48 521.72 398.54 520.47 398.72 519.12C400.48 504.57 401.74 489.8 402.52 475.17C403.32 460.48 403.74 445.72 403.77 431.01C403.78 428.52 407.47 428.36 407.64 430.9V430.89Z" fill="#0D1016"/>
<path d="M129.23 431C129.29 453.07 130.13 475.19 132.01 497.19C132.6 504.32 133.43 512.09 134.28 519.17C134.57 522.36 129.89 523 129.35 519.8C127.18 505.09 125.97 490.26 125.38 475.41C124.8 460.56 124.7 445.75 125.35 430.89C125.51 428.4 129.2 428.46 129.22 431H129.23Z" fill="#0D1016"/>
<path d="M195.12 218.26C195.12 229.77 198.07 242.47 186.59 242.47C168.8 242.47 157.16 228.25 157.16 216.75C157.16 205.25 162.86 197.43 174.34 197.43C185.82 197.43 195.12 206.76 195.12 218.26Z" fill="#F5DCCB"/>
<path d="M175.591 223.81C174.811 226.39 171.851 227.13 169.641 225.63C165.111 222.65 161.721 211.39 168.541 211.39C169.021 211.39 169.501 211.49 169.911 211.7C173.031 213.32 176.501 221.05 175.581 223.8L175.591 223.81Z" fill="#BF6A49"/>
<path d="M337.88 218.26C337.88 229.77 334.93 242.47 346.41 242.47C364.2 242.47 375.84 228.25 375.84 216.75C375.84 205.25 370.14 197.43 358.66 197.43C347.18 197.43 337.88 206.76 337.88 218.26Z" fill="#F5DCCB"/>
<path d="M357.41 223.81C358.19 226.39 361.15 227.13 363.36 225.63C367.89 222.65 371.28 211.39 364.46 211.39C363.98 211.39 363.5 211.49 363.08 211.7C359.96 213.32 356.49 221.05 357.41 223.8V223.81Z" fill="#BF6A49"/>
<path d="M334.25 371.42C334.25 408.83 303.921 439.2 266.51 439.2C229.1 439.2 198.73 408.84 198.73 371.42C198.73 362.41 200.48 353.81 203.72 345.94C203.82 345.63 203.92 345.32 204.06 345.05C209.77 328.89 213.35 317.85 215.06 308.84C216.3 302.31 216.81 297.11 217.47 290.92V290.65C217.47 263.55 239.41 241.61 266.51 241.61C293.61 241.61 315.51 263.55 315.51 290.65C316.201 296.94 316.71 302.2 317.99 308.84C319.74 318.02 323.39 329.3 329.3 345.94C332.5 353.82 334.25 362.41 334.25 371.42Z" fill="#F5DCCB"/>
<path d="M285.133 335.935C310.179 325.658 322.152 297.022 311.874 271.976C301.597 246.929 272.961 234.957 247.915 245.234C222.869 255.511 210.896 284.147 221.173 309.193C231.451 334.24 260.086 346.212 285.133 335.935Z" fill="#F5DCCB"/>
<path d="M295.279 432.756C329.17 416.873 343.769 376.523 327.886 342.632C312.003 308.741 271.653 294.142 237.762 310.025C203.871 325.908 189.272 366.258 205.155 400.15C221.038 434.041 261.388 448.639 295.279 432.756Z" fill="#F5DCCB"/>
<path d="M341.781 274.28C330.051 293.36 302.311 320.67 266.841 321.08H266.161C230.701 320.67 202.961 293.36 191.221 274.28C169.741 239.34 174.601 169.98 190.411 136.76C205.701 104.64 233.271 87.6201 266.161 86.9001C266.291 86.8701 266.391 86.8701 266.521 86.8701C266.621 86.8701 266.751 86.8701 266.841 86.9001C299.731 87.6201 327.311 104.64 342.591 136.76C358.401 169.98 363.261 239.34 341.771 274.28H341.781Z" fill="#F5DCCB"/>
<path d="M288.94 193.23C289.07 184.21 311.35 186.65 310.25 195.75C309.31 203.45 288.83 200.58 288.94 193.23Z" fill="#573D39"/>
<path d="M222.79 195.861C220.82 187.061 243.06 184.251 244.1 193.361C244.98 201.061 224.39 203.031 222.79 195.861Z" fill="#573D39"/>
<path d="M272.6 212.07C274.93 220.14 276.3 228.06 277.47 236.32C278.94 245.03 275.7 251.68 266.55 252.94C264.61 253.2 261.94 253.64 260.02 253.28C257.25 252.9 257.23 248.88 259.96 248.45C260.73 248.31 261.86 248.19 262.58 247.95C264.76 247.28 268.32 246.93 269.91 245.57C272.32 243.69 271.95 239.89 271.69 236.97C271.27 233 270.17 222.74 269.7 218.9C269.48 216.87 269.21 214.84 268.94 212.89C268.64 210.62 271.93 209.89 272.61 212.08L272.6 212.07Z" fill="#E0A080"/>
<path d="M304.26 227.87C303.57 230.81 301.67 232.55 299.27 232.44C294.04 232.2 292.26 224.85 294.67 220.95C296.99 217.2 302.58 218.33 303.95 222.26C304.56 224.01 304.67 226.07 304.25 227.87H304.26Z" fill="#0D1016"/>
<path d="M238.031 227.87C237.341 230.81 235.441 232.55 233.041 232.44C227.811 232.2 226.031 224.85 228.441 220.95C230.761 217.2 236.351 218.33 237.721 222.26C238.331 224.01 238.441 226.07 238.021 227.87H238.031Z" fill="#0D1016"/>
<path d="M259.84 278.71C263.84 283.02 269.36 286.23 275.26 286.75C277.28 287.04 279.36 286.84 281.44 286.71C283.01 286.61 284.36 287.8 284.46 289.37C284.53 291.93 282.36 292.46 280.27 292.64C270.9 294.06 261.14 289.16 256.16 281.2C254.76 278.76 258.09 276.54 259.84 278.71Z" fill="#0D1016"/>
<path d="M355.961 171C339.511 172.16 341.861 194.75 341.861 194.75C341.861 194.75 344.801 252.09 327.761 283.36C314.471 307.75 292.261 310.3 283.121 310.24C276.781 307.69 274.581 303.05 274.581 303.05H258.721C256.591 307.52 250.831 309.36 245.171 310.04C234.511 309.1 216.621 304.22 205.261 283.36C188.221 252.08 191.161 194.75 191.161 194.75C191.161 194.75 193.511 172.16 177.061 171C172.361 171 169.421 191.27 177.061 197.64V252.4C177.061 252.4 177.061 336.64 254.021 340.12C254.021 339.99 272.411 340.59 279.001 340.11C355.961 336.65 355.961 252.4 355.961 252.4V197.64C363.601 191.27 360.661 171 355.961 171Z" fill="#573D39"/>
<path d="M272.481 261.52C272.541 261.58 267.661 261.42 265.791 261.52C265.791 261.52 214.181 256.98 217.011 304.06C224.381 309.73 232.891 313.7 232.891 313.7C232.301 311.34 229.251 298.18 237.191 286.32C244.811 274.94 259.461 269.34 274.171 272.3C315.571 274 305.361 313.7 305.361 313.7C305.361 313.7 313.871 309.73 321.241 304.06C324.081 256.99 272.461 261.52 272.461 261.52H272.481Z" fill="#573D39"/>
<path d="M190.67 201.7C194.11 202.22 188.35 169.27 202.25 162.32C216.15 156.53 257.85 193.6 311.13 190.12C308.81 186.64 285.65 173.9 285.65 173.9C285.65 173.9 318.08 188.96 328.51 186.64C328.51 180.85 312.29 168.11 312.29 168.11C312.29 168.11 344.72 186.64 351.67 188.96L357.46 190.12C357.46 190.12 378.31 121.78 311.13 89.3401C291.44 82.3901 259 68.4901 211.51 89.3401C164.02 110.19 152.43 195.91 190.66 201.7H190.67Z" fill="#573D39"/>
<path d="M332.44 357.34C310.59 368.26 288.741 379.17 266.891 390.09C244.741 378.67 222.58 367.25 200.43 355.83C199.85 357.4 199.13 358.7 198.35 359.8C190.97 370.16 173.92 368.46 171.45 368.18C171.3 368.14 171.2 368.03 171.09 367.96C167.5 369.48 163.61 371.12 159.48 372.9V442.77H380.27V375.91C364.33 369.72 348.391 363.53 332.451 357.34H332.44Z" fill="#DFEE95"/>
</g>
</svg>
