<svg width="533" height="545" viewBox="0 0 533 545" fill="none" xmlns="http://www.w3.org/2000/svg">
<mask id="mask0_472_24006" style="mask-type:luminance" maskUnits="userSpaceOnUse" x="0" y="0" width="533" height="545">
<path d="M266.5 544.98C413.684 544.98 533 422.982 533 272.49C533 121.998 413.684 0 266.5 0C119.316 0 0 121.998 0 272.49C0 422.982 119.316 544.98 266.5 544.98Z" fill="white"/>
</mask>
<g mask="url(#mask0_472_24006)">
<path d="M199.741 279.81C199.741 290.49 202.481 302.27 191.831 302.27C175.321 302.27 164.521 289.08 164.521 278.4C164.521 267.72 169.81 260.48 180.46 260.48C191.11 260.48 199.741 269.13 199.741 279.81Z" fill="#EBA08C"/>
<path d="M343.14 279.81C343.14 290.49 340.401 302.27 351.051 302.27C367.561 302.27 378.361 289.08 378.361 278.4C378.361 267.72 373.07 260.48 362.42 260.48C351.77 260.48 343.14 269.13 343.14 279.81Z" fill="#EBA08C"/>
<path d="M181.62 284.81C180.89 287.21 178.15 287.89 176.1 286.5C171.89 283.73 168.75 273.29 175.08 273.29C175.53 273.29 175.97 273.39 176.36 273.58C179.25 275.08 182.47 282.25 181.62 284.81Z" fill="#B0594D"/>
<path d="M361.26 284.81C361.99 287.21 364.73 287.89 366.78 286.5C370.99 283.73 374.13 273.29 367.8 273.29C367.35 273.29 366.91 273.39 366.52 273.58C363.63 275.08 360.41 282.25 361.26 284.81Z" fill="#B0594D"/>
<path d="M360.23 255.58C360.23 305.4 328.55 364.85 270.03 364.85C211.51 364.85 179.83 305.39 179.83 255.58C179.83 205.77 220.22 165.38 270.03 165.38C319.84 165.38 360.23 205.77 360.23 255.58Z" fill="#EBA08C"/>
<path d="M189.87 260.77C194.44 254.32 196.8 246.56 198.19 238.78C199.72 230.18 200.04 220.84 195.82 213.19C194.52 210.83 192.74 208.64 190.34 207.42C186.1 205.25 180.69 206.62 177.07 209.71C173.45 212.8 171.33 217.29 169.85 221.82C165.49 235.07 165.79 249.36 168.26 262.96C169.44 269.45 169.2 274.34 176.71 271.44C182.03 269.39 186.6 265.4 189.88 260.79L189.87 260.77Z" fill="#0D1016"/>
<path d="M353.96 260.77C349.39 254.32 347.03 246.56 345.64 238.78C344.11 230.18 343.79 220.84 348.01 213.19C349.31 210.83 351.09 208.64 353.49 207.42C357.73 205.25 363.14 206.62 366.76 209.71C370.38 212.8 372.5 217.29 373.98 221.82C378.34 235.07 378.04 249.36 375.57 262.96C374.39 269.45 374.63 274.34 367.12 271.44C361.8 269.39 357.23 265.4 353.95 260.79L353.96 260.77Z" fill="#0D1016"/>
<path d="M276.55 431.1C299.63 431.1 313.77 413.23 320.81 400.82C312.04 396.34 305.63 391.54 303.64 386.16C296.12 365.81 299.13 342.81 299.13 342.81L274.22 344.53L247.54 342.81C247.54 342.81 252.32 365.81 244.8 386.16C242.68 391.89 235.59 396.95 225.94 401.68C234.07 412.57 251.56 431.1 276.54 431.1H276.55Z" fill="#EBA08C"/>
<path d="M406.26 437.03C390.25 425.03 355.24 415.79 330.42 405.27C321.77 420.53 304.4 442.49 276.03 442.49C245.71 442.49 224.37 420.27 214.23 406.83C189.75 416.71 157.38 425.62 142.18 437.03C117.41 455.61 105.91 625.57 105.91 625.57H442.54C442.54 625.57 431.04 455.61 406.27 437.03H406.26Z" fill="#3537F5"/>
<path d="M276.03 442.49C304.4 442.49 321.77 420.52 330.42 405.27C326.99 403.82 323.77 402.34 320.8 400.82C313.76 413.24 299.62 431.1 276.54 431.1C251.56 431.1 234.06 412.57 225.94 401.68C222.35 403.44 218.4 405.15 214.23 406.83C224.37 420.27 245.71 442.49 276.03 442.49Z" fill="#2A38B7"/>
<path d="M374.63 249.61C383.75 240.82 391.34 169.8 387.39 157.89C386.06 162.37 383.01 168.26 379.43 171.34C381.39 165.94 382.89 160.33 383.12 154.61C383.59 142.63 380.49 130.39 375.51 119.43C365.52 126.81 352.91 130.36 340.39 130.7C327.87 131.04 315.14 130.52 303.38 126.31C306.91 122.64 309.64 117.75 311.35 113C299.87 116.26 287.75 116.48 275.79 116.45C263.84 116.42 251.77 116.16 240.06 118.51C228.35 120.85 216.57 127.69 209.11 136.82C209.92 130.76 212.03 122.37 212 116.26C206.87 123.09 198.38 126.8 192.83 133.31C188.26 138.66 185.96 145.8 186.56 152.75C185.24 151.1 181.58 150.44 179.44 150.4C177.3 150.36 175.2 150.95 173.16 151.58C166.32 153.69 159.65 156.29 153.2 159.35C159.47 163.72 167.77 166.37 175.34 165.01C166.03 171.91 158.56 183.6 157.7 195C156.84 206.39 160 243.43 168.18 251.59C178.21 251.33 189.67 222.41 197.27 215.99C204.86 209.57 210.09 200.54 211.81 190.87C223.87 202.38 239.61 210.19 256.46 210.78C254.17 202.65 249.67 194.67 243.25 189.03C253.06 196.15 263.79 196.56 276 196.95C288.21 197.34 300.75 196.88 312.27 200.85C325.18 205.3 345.34 220.45 354.32 230.55" fill="#0D1016"/>
<path d="M296.23 236.22C296.37 226.53 320.31 229.15 319.12 238.92C318.12 247.19 296.11 244.11 296.23 236.22Z" fill="#0D1016"/>
<path d="M225.16 239.04C223.05 229.58 246.94 226.57 248.06 236.35C249 244.63 226.89 246.74 225.16 239.04Z" fill="#0D1016"/>
<path d="M278.68 256.46C281.18 265.11 282.66 273.67 283.91 282.52C285.49 291.88 282.01 299.02 272.17 300.38C269.95 300.7 267.43 301.12 265.15 300.75C262.18 300.36 262.13 296.05 265.05 295.57C265.89 295.41 267.11 295.27 267.89 295.02C271.82 293.91 277.16 293.8 277.7 288.88C278.36 285.12 276.54 274.24 276.29 270.28L275.54 263.8C275.31 261.62 275.02 259.44 274.72 257.34C274.41 254.89 277.91 254.11 278.66 256.47L278.68 256.46Z" fill="#CC7A66"/>
<path d="M312.691 273.43C311.951 276.58 309.911 278.46 307.331 278.34C301.711 278.08 299.801 270.19 302.391 266C304.881 261.97 310.891 263.18 312.361 267.41C313.021 269.29 313.131 271.51 312.681 273.44L312.691 273.43Z" fill="#0D1016"/>
<path d="M241.54 273.43C240.8 276.58 238.76 278.46 236.18 278.34C230.56 278.08 228.65 270.19 231.24 266C233.73 261.97 239.74 263.18 241.21 267.41C241.87 269.29 241.98 271.51 241.53 273.44L241.54 273.43Z" fill="#0D1016"/>
<path d="M261.04 317.25C264.63 321.12 269.37 324.17 274.52 325.38C277.63 326.12 280.74 326.15 283.95 325.86C285.72 325.61 287.39 326.89 287.5 328.7C287.6 330.27 286.49 331.64 284.98 331.9C284.32 332.02 283.66 332.12 283 332.21C278.33 332.89 273.41 332.2 269.11 330.24C264.18 328.03 259.97 324.5 257.09 319.92C255.58 317.3 259.16 314.91 261.04 317.24V317.25Z" fill="#0D1016"/>
<path d="M244.15 177.1C253.8 176.5 263.46 175.91 273.13 176.21C282.17 176.5 291.21 177.61 299.89 180.23C307.1 182.41 313.99 185.54 320.41 189.48C326.83 193.42 332.79 198.2 338.05 203.64C343.31 209.08 347.87 215.16 351.55 221.76C352.01 222.59 352.46 223.42 352.89 224.26C353.53 225.5 355.4 224.41 354.76 223.16C351.22 216.31 346.76 209.94 341.58 204.23C336.4 198.52 330.48 193.47 324.04 189.22C317.6 184.97 310.63 181.54 303.33 179.05C294.86 176.16 285.98 174.73 277.07 174.2C267.3 173.62 257.5 174.1 247.74 174.69C246.54 174.76 245.34 174.84 244.14 174.91C242.75 175 242.74 177.17 244.14 177.08L244.15 177.1Z" fill="#555A63"/>
<path d="M261.08 167.17C275.42 165.62 290.09 165.31 304.27 168.34C316.11 170.87 327.55 175.82 336.86 183.64C341.88 187.86 346.22 192.85 349.5 198.54C350.2 199.75 352.07 198.66 351.37 197.44C345.33 186.96 335.85 178.82 325.14 173.36C312.99 167.16 299.42 164.48 285.87 163.96C277.59 163.64 269.3 164.11 261.08 165C260.5 165.06 259.99 165.45 259.99 166.09C259.99 166.63 260.49 167.24 261.08 167.18V167.17Z" fill="#555A63"/>
<path d="M192.12 222.91C192.91 231.61 189.81 240.72 183.49 246.85C181.72 248.57 179.66 249.97 177.25 250.58C175.9 250.92 176.47 253.01 177.83 252.67C182.51 251.49 186.13 247.75 188.78 243.89C191.43 240.03 193.24 235.5 193.99 230.86C194.41 228.23 194.53 225.56 194.29 222.91C194.24 222.33 193.83 221.82 193.2 221.82C192.65 221.82 192.06 222.32 192.11 222.91H192.12Z" fill="#555A63"/>
<path d="M192.21 145.11C194.94 139.42 200.18 135.16 206.32 133.69C207.68 133.36 207.1 131.27 205.74 131.6C199.1 133.19 193.29 137.85 190.33 144.02C190.08 144.55 190.18 145.19 190.72 145.5C191.19 145.78 191.95 145.64 192.2 145.11H192.21Z" fill="#555A63"/>
</g>
</svg>
