<svg width="193" height="136" viewBox="0 0 193 136" fill="none" xmlns="http://www.w3.org/2000/svg">
<path d="M64.2649 116.222C60.4191 102.942 47.0255 97.4907 33.9964 105.41C27.4952 109.359 18.9875 111.998 12.4863 111.052C6.13226 110.125 1.22294 106.095 0.430359 99.7147C-0.32878 93.6014 3.94514 89.0365 7.40976 83.9065C10.8276 78.8467 11.7037 72.2753 10.0249 65.0317C7.10543 52.4607 0.32669 33.8468 16.7836 21.5032C23.044 16.808 31.5551 16.9752 38.7084 19.2894C43.3167 20.7809 47.6809 23.1319 51.4699 26.1484C59.6599 32.6629 70.5387 34.5457 81.8054 34.014C90.7178 33.5926 97.433 27.1818 103.697 21.5635C112.248 13.8885 122.087 6.57798 134.022 5.73857C143.707 5.05635 152.934 10.6613 156.505 19.8679C161.913 33.8167 158.957 49.2971 169.682 61.2327C178.233 70.747 186.406 75.9272 191.249 89.2639C195.686 101.49 188.898 115.62 177.815 121.649C164.936 128.652 149.081 127.054 135.119 125.258C134.049 125.121 132.979 124.974 131.912 124.816" stroke="#ADBACF" stroke-width="0.347799" stroke-linejoin="round"/>
<path d="M43.5203 49.7153C43.507 49.4812 43.4869 49.2337 43.4568 48.9695C43.2026 46.8058 41.6275 47.0031 40.6443 47.07C39.6644 47.1369 38.4438 47.1703 37.9756 46.1637C37.7716 45.7256 37.7817 45.1972 37.6479 44.7223C37.3502 43.6723 36.357 43.0435 35.4106 43.0402C34.4642 43.0402 33.5646 43.5485 32.7887 44.1839C32.3841 44.5117 31.9293 44.8996 31.451 44.7758C31.1434 44.6956 30.9026 44.418 30.712 44.1271C29.5883 42.4115 29.595 39.9133 28.3643 38.3014C27.0066 36.519 24.4716 36.4822 22.7527 37.7764C21.0371 39.0706 20.0506 41.3748 19.5991 43.699C19.452 44.4548 19.3282 45.2842 18.8299 45.7992C18.121 46.5382 17.0374 46.2941 16.091 46.1938C14.9941 46.0768 13.8236 46.2473 12.9341 47.0031C12.2084 47.6184 11.7368 48.6986 11.8238 49.7153H43.517H43.5203Z" fill="white" stroke="#ADBACF" stroke-width="0.347799" stroke-linejoin="round"/>
<path d="M138.707 33.0309H186.078C186.078 33.0309 185.219 30.0847 182.179 28.8272C179.514 27.7236 178.597 29.3289 177.49 28.2186C176.962 27.6902 177.414 22.9514 173.233 22.9514C169.053 22.9514 168.16 25.2355 166.234 24.3293C164.542 23.5367 164.595 20.363 162.886 17.711C161.217 15.1193 157.151 13.5241 154.375 14.8751C149.305 17.3465 149.964 21.276 148.302 22.5702C146.663 23.8477 142.904 19.3464 138.704 24.2155C135.808 27.5732 138.704 33.0309 138.704 33.0309H138.707Z" fill="white" stroke="#ADBACF" stroke-width="0.347799" stroke-linejoin="round"/>
<path d="M138.881 135.823C146.519 120.335 153.151 116.239 159.378 117.476C164.22 118.439 168.574 124.365 155.789 135.813" fill="white"/>
<path d="M138.942 135.859C139.708 134.485 140.4 133.07 141.169 131.699C141.841 130.498 142.547 129.314 143.293 128.154C144.53 126.234 145.878 124.378 147.426 122.7C148.6 121.422 149.894 120.238 151.356 119.295C152.519 118.546 153.79 117.957 155.145 117.65C156.342 117.376 157.589 117.332 158.803 117.513C159.797 117.66 160.76 117.954 161.616 118.489C162.438 119.001 163.127 119.72 163.555 120.593C164.05 121.603 164.157 122.756 164 123.86C163.769 125.479 163.047 127 162.194 128.378C160.873 130.512 159.171 132.381 157.389 134.133C156.837 134.675 156.275 135.204 155.72 135.739C155.62 135.836 155.767 135.973 155.867 135.886C157.054 134.899 158.158 133.809 159.205 132.672C160.054 131.749 160.86 130.789 161.592 129.769C162.656 128.288 163.606 126.656 164.07 124.877C164.385 123.679 164.462 122.392 164.09 121.198C163.786 120.225 163.191 119.362 162.402 118.717C161.636 118.091 160.723 117.66 159.763 117.422C158.589 117.131 157.339 117.061 156.138 117.208C154.794 117.372 153.499 117.807 152.305 118.436C150.841 119.205 149.526 120.248 148.339 121.395C146.791 122.894 145.443 124.592 144.216 126.358C142.611 128.666 141.199 131.107 139.902 133.598C139.527 134.317 139.156 135.043 138.832 135.786C138.798 135.862 138.905 135.933 138.949 135.856L138.942 135.859Z" fill="#ADBACF"/>
<path d="M159.83 117.583L148.155 135.812" stroke="#ADBACF" stroke-width="0.347799" stroke-linejoin="round"/>
<path d="M48.3767 135.886C43.2834 129.943 32.6153 114.934 41.8621 109.767C46.9387 106.932 53.6672 109.513 56.9212 115.767C60.0112 121.71 61.1918 128.726 62.4826 135.802" fill="white"/>
<path d="M48.45 135.809C47.3163 134.471 46.2361 133.087 45.2095 131.665C43.9821 129.97 42.8317 128.214 41.7983 126.392C40.7683 124.572 39.8453 122.676 39.1865 120.686C38.618 118.964 38.2267 117.125 38.3839 115.302C38.5277 113.657 39.1965 112.112 40.4105 110.975C41.8819 109.597 43.9186 108.841 45.9184 108.764C48.0888 108.681 50.2291 109.366 52.045 110.533C54.1151 111.864 55.7337 113.79 56.854 115.971C58.2319 118.65 59.205 121.512 59.9775 124.418C60.7501 127.325 61.3587 130.492 61.9172 133.555C62.0577 134.317 62.1948 135.08 62.3319 135.842C62.3653 136.03 62.6496 135.949 62.6161 135.765C62.0409 132.605 61.4858 129.438 60.7534 126.311C60.0511 123.325 59.1783 120.365 57.9376 117.553C57.3724 116.275 56.747 115.018 55.9344 113.877C55.2187 112.874 54.3793 111.961 53.4262 111.179C51.7039 109.767 49.6205 108.791 47.3966 108.54C45.2931 108.303 43.1327 108.771 41.3435 109.915C39.8854 110.848 38.8019 112.229 38.3538 113.911C37.8923 115.633 38.0695 117.469 38.4775 119.181C38.9591 121.195 39.7818 123.121 40.7215 124.957C41.7114 126.886 42.8585 128.732 44.0891 130.518C45.176 132.09 46.3298 133.622 47.5538 135.09C47.7979 135.384 48.0454 135.675 48.2962 135.963C48.3865 136.066 48.537 135.916 48.45 135.809Z" fill="#ADBACF"/>
<path d="M44.4805 108.878L56.4896 135.906" stroke="#ADBACF" stroke-width="0.347799" stroke-linejoin="round"/>
<path d="M78.1569 135.823C67.8132 117.058 61.1314 98.4543 69.4786 89.6155C77.7489 80.8569 86.4004 91.2341 88.5073 100.431C91.0857 111.694 91.4602 123.884 91.4067 135.823" fill="white"/>
<path d="M78.1569 135.823C67.8132 117.058 61.1314 98.4543 69.4786 89.6155C77.7489 80.8569 86.4004 91.2341 88.5073 100.431C91.0857 111.694 91.4602 123.884 91.4067 135.823" stroke="#ADBACF" stroke-width="0.347799" stroke-linejoin="round"/>
<path d="M72.5381 87.3345L84.9652 135.792" stroke="#ADBACF" stroke-width="0.347799" stroke-linejoin="round"/>
<path d="M62.3857 135.886C58.3426 129.274 50.4402 114.179 58.7205 108.828C63.2686 105.888 70.3383 109.497 73.4518 115.978C76.4081 122.134 76.7726 128.468 78.1203 135.799" fill="white"/>
<path d="M62.4785 135.832C61.5488 134.291 60.6626 132.722 59.8366 131.124C58.8534 129.224 57.9538 127.278 57.1913 125.275C56.4322 123.288 55.8034 121.238 55.4623 119.138C55.1614 117.279 55.0811 115.329 55.556 113.49C56.0008 111.767 56.9773 110.246 58.422 109.199C59.9871 108.065 61.8966 107.721 63.7861 108.062C65.8863 108.44 67.8226 109.53 69.4211 110.915C71.3039 112.547 72.6985 114.597 73.7051 116.867C74.8488 119.446 75.5912 122.178 76.143 124.937C76.7182 127.803 77.1129 130.702 77.5911 133.585C77.7148 134.338 77.8452 135.087 77.9823 135.839C78.0158 136.026 78.3 135.946 78.2666 135.762C77.7148 132.762 77.3102 129.736 76.7784 126.733C76.2835 123.914 75.6615 121.108 74.6548 118.426C74.1733 117.138 73.6248 115.861 72.9259 114.677C72.3039 113.623 71.5581 112.637 70.7153 111.751C69.1837 110.139 67.2842 108.811 65.1572 108.122C63.3246 107.527 61.2947 107.45 59.5088 108.249C57.8535 108.988 56.5024 110.4 55.77 112.052C55.0176 113.747 54.8604 115.647 54.9941 117.479C55.148 119.59 55.6663 121.666 56.3352 123.666C57.004 125.666 57.9036 127.783 58.8701 129.759C59.7296 131.518 60.666 133.244 61.6759 134.926C61.8799 135.267 62.0873 135.605 62.2946 135.943C62.3682 136.06 62.5521 135.953 62.4819 135.832H62.4785Z" fill="#ADBACF"/>
<path d="M91.2097 135.822C87.7217 95.8724 96.2094 81.2782 105.493 80.6227C109.891 80.3117 122.773 82.8433 107.219 135.799" fill="white"/>
<path d="M91.2762 135.822C90.9986 131.595 90.6842 127.378 90.5772 123.141C90.4836 119.539 90.5003 115.931 90.6742 112.333C90.8213 109.299 91.0788 106.269 91.5103 103.263C91.8647 100.788 92.3329 98.3269 92.9784 95.909C93.5068 93.9326 94.1488 91.9829 94.9816 90.1135C95.6538 88.6052 96.4463 87.1438 97.4195 85.8061C98.2121 84.7159 99.1317 83.706 100.195 82.8699C101.098 82.1609 102.111 81.5857 103.198 81.2179C104.034 80.9336 104.914 80.7664 105.8 80.7363C106.242 80.7229 106.737 80.7463 107.134 80.8065C107.666 80.8868 108.185 81.0239 108.683 81.2279C109.221 81.4452 109.786 81.7797 110.255 82.1509C110.837 82.6157 111.345 83.1709 111.773 83.7795C112.318 84.552 112.743 85.4048 113.081 86.2843C113.522 87.4348 113.826 88.6353 114.04 89.8493C114.325 91.4278 114.458 93.033 114.515 94.6349C114.585 96.6949 114.515 98.7583 114.368 100.815C114.181 103.417 113.86 106.012 113.462 108.59C112.97 111.774 112.355 114.938 111.666 118.085C110.826 121.91 109.873 125.709 108.847 129.492C108.278 131.585 107.723 133.685 107.111 135.766C107.074 135.896 107.275 135.949 107.315 135.822C107.95 133.659 108.603 131.502 109.191 129.325C109.733 127.321 110.251 125.315 110.746 123.302C111.599 119.827 112.372 116.332 113.024 112.814C113.552 109.971 114 107.116 114.325 104.239C114.585 101.935 114.763 99.6178 114.806 97.3002C114.84 95.4776 114.789 93.6483 114.592 91.8358C114.442 90.4379 114.208 89.0433 113.826 87.6889C113.535 86.6522 113.154 85.6356 112.642 84.6858C112.241 83.9434 111.756 83.2378 111.171 82.6291C110.696 82.1308 110.151 81.6961 109.552 81.3583C109.044 81.0707 108.496 80.8466 107.927 80.6995C107.439 80.5724 106.934 80.4988 106.429 80.4754C105.84 80.4487 105.252 80.4888 104.67 80.5824C103.57 80.7563 102.506 81.1342 101.533 81.6693C100.439 82.2713 99.4595 83.0705 98.6 83.9735C97.5633 85.0637 96.6938 86.3078 95.948 87.6154C95.0317 89.2239 94.2993 90.9395 93.6907 92.6852C92.9416 94.8355 92.3764 97.0494 91.9316 99.2833C91.3899 102.006 91.022 104.761 90.7678 107.524C90.4635 110.841 90.3264 114.175 90.2963 117.506C90.2629 121.469 90.3899 125.432 90.6274 129.388C90.7545 131.535 90.9083 133.682 91.1391 135.819C91.1491 135.906 91.2828 135.909 91.2762 135.819V135.822Z" fill="#ADBACF"/>
<path d="M107.302 80.7163L99.0986 135.799" stroke="#ADBACF" stroke-width="0.347799" stroke-linejoin="round"/>
<path d="M120.301 135.822C123.525 108.911 133.735 95.4608 144.189 97.6112C152.315 99.2833 155.144 111.496 140.159 135.806" fill="white"/>
<path d="M120.364 135.842C120.732 133.371 121.066 130.896 121.524 128.438C121.942 126.204 122.431 123.987 123.006 121.79C123.992 118.034 125.236 114.329 126.895 110.814C128.199 108.055 129.765 105.38 131.761 103.059C133.313 101.256 135.149 99.6478 137.309 98.6178C139.155 97.7382 141.208 97.357 143.245 97.5944C144.867 97.7851 146.435 98.3636 147.673 99.4471C148.96 100.577 149.78 102.126 150.225 103.765C150.83 105.998 150.8 108.373 150.512 110.654C150.101 113.918 149.138 117.108 147.967 120.175C146.349 124.415 144.275 128.465 142.021 132.401C141.379 133.521 140.74 134.655 140.061 135.755C139.991 135.869 140.172 135.976 140.242 135.862C140.954 134.705 141.68 133.555 142.359 132.378C142.998 131.271 143.616 130.147 144.212 129.017C145.272 127.01 146.265 124.967 147.161 122.88C147.93 121.094 148.629 119.275 149.225 117.422C149.726 115.857 150.154 114.262 150.465 112.647C150.726 111.286 150.907 109.908 150.96 108.523C151.004 107.363 150.954 106.199 150.773 105.055C150.619 104.092 150.365 103.146 149.98 102.246C149.643 101.46 149.201 100.718 148.646 100.062C148.134 99.4572 147.529 98.9355 146.857 98.5208C146.178 98.1028 145.436 97.7951 144.663 97.5944C143.713 97.347 142.717 97.2399 141.737 97.2667C140.71 97.2935 139.687 97.474 138.71 97.7851C137.674 98.1161 136.687 98.5944 135.767 99.1729C134.754 99.8117 133.821 100.571 132.962 101.404C131.985 102.35 131.106 103.39 130.303 104.484C129.393 105.724 128.577 107.032 127.845 108.383C127.012 109.915 126.277 111.496 125.618 113.112C124.872 114.931 124.223 116.787 123.651 118.67C123.016 120.757 122.471 122.87 121.999 124.997C121.478 127.365 121.043 129.749 120.685 132.147C120.501 133.371 120.341 134.598 120.227 135.829C120.22 135.906 120.351 135.923 120.361 135.846L120.364 135.842Z" fill="#ADBACF"/>
<path d="M144.188 97.6147L128.574 135.809" stroke="#ADBACF" stroke-width="0.347799" stroke-linejoin="round"/>
<path d="M61.0811 107.905L70.4516 135.906" stroke="#ADBACF" stroke-width="0.347799" stroke-linejoin="round"/>
<path d="M119.395 135.886C123.284 129.522 130.892 114.994 122.923 109.841C118.545 107.012 111.74 110.486 108.743 116.723C105.897 122.646 105.546 128.746 104.252 135.799" fill="white"/>
<path d="M119.488 135.943C120.421 134.434 121.3 132.893 122.116 131.318C123.08 129.458 123.962 127.552 124.702 125.596C125.434 123.653 126.043 121.649 126.35 119.593C126.621 117.783 126.678 115.894 126.186 114.115C125.725 112.443 124.748 110.988 123.344 109.968C121.825 108.868 119.969 108.523 118.13 108.818C116.08 109.145 114.181 110.182 112.602 111.5C110.763 113.038 109.362 114.998 108.372 117.175C107.228 119.686 106.475 122.348 105.924 125.047C105.348 127.863 104.964 130.716 104.496 133.551C104.372 134.291 104.245 135.03 104.111 135.769C104.078 135.953 104.362 136.033 104.395 135.846C104.917 133.01 105.305 130.15 105.8 127.311C106.265 124.649 106.84 121.997 107.763 119.452C108.619 117.095 109.739 114.857 111.452 113.005C112.893 111.443 114.692 110.142 116.719 109.46C118.455 108.874 120.408 108.767 122.103 109.55C123.665 110.269 124.912 111.61 125.581 113.185C126.273 114.814 126.38 116.633 126.23 118.375C126.059 120.379 125.548 122.348 124.906 124.251C124.237 126.228 123.407 128.151 122.491 130.023C121.685 131.672 120.802 133.281 119.879 134.866C119.689 135.19 119.498 135.515 119.304 135.839C119.234 135.959 119.418 136.066 119.491 135.949L119.488 135.943Z" fill="#ADBACF"/>
<path d="M120.649 108.955L111.633 135.906" stroke="#ADBACF" stroke-width="0.347799" stroke-linejoin="round"/>
<path d="M27.4385 135.802H161.783" stroke="#ADBACF" stroke-width="0.347799" stroke-linejoin="round"/>
<path d="M166.053 135.802H176.503" stroke="#ADBACF" stroke-width="0.347799" stroke-linejoin="round"/>
<path d="M17.8906 135.802H24.2346" stroke="#ADBACF" stroke-width="0.347799" stroke-linejoin="round"/>
<path d="M98.5669 72.7334H87.8721V135.805H98.5669V72.7334Z" fill="#0126E1"/>
<path d="M92.2732 74.4692H36.8861L29.2178 84.0002C24.1814 90.0499 30.5421 95.9224 39.4679 95.9224H56.7709C67.8135 95.9224 78.1405 91.4478 84.3674 83.9634L92.2698 74.4658L92.2732 74.4692Z" fill="#3238F5"/>
<path d="M64.5791 13.7314H118.261C133.544 13.7314 145.954 26.1385 145.954 41.425V74.4693H64.5791V13.7314Z" fill="#3238F5"/>
<path d="M64.5793 13.7314C79.8624 13.7314 92.2728 26.1385 92.2728 41.425V74.4693H36.8857V41.425C36.8857 26.1419 49.2928 13.7314 64.5793 13.7314Z" fill="#22252C"/>
<path d="M107.644 46.7784C109.259 45.4831 109.518 43.1236 108.223 41.5084C106.927 39.8933 104.568 39.634 102.953 40.9294C101.338 42.2248 101.078 44.5843 102.374 46.1994C103.669 47.8146 106.029 48.0738 107.644 46.7784Z" fill="#2336EC"/>
<g style="mix-blend-mode:multiply">
<path d="M107.135 43.8428C107.135 44.8561 106.312 45.6788 105.299 45.6788C104.286 45.6788 103.463 44.8561 103.463 43.8428C103.463 42.8295 104.286 42.0068 105.299 42.0068C106.312 42.0068 107.135 42.8295 107.135 43.8428Z" fill="#3238F5"/>
</g>
<path d="M105.298 0C105.75 0 106.114 0.364521 106.114 0.815992V43.7525C106.114 44.204 105.75 44.5685 105.298 44.5685C104.847 44.5685 104.482 44.204 104.482 43.7525V0.815992C104.482 0.364521 104.847 0 105.298 0Z" fill="#0126E1"/>
<path d="M105.299 8.26358V0L117.679 4.13012L105.299 8.26358Z" fill="#0126E1"/>
</svg>
