<svg width="229" height="170" viewBox="0 0 229 170" fill="none" xmlns="http://www.w3.org/2000/svg">
<path d="M228.119 149.394H0V149.509H228.119V149.394Z" fill="#EBEBEB"/>
<path d="M108.131 129.046H20.0349C18.598 129.046 17.4287 127.877 17.4287 126.44V2.60209C17.4287 1.16518 18.598 0 20.0349 0H108.131C109.568 0 110.733 1.16929 110.733 2.60209V126.44C110.733 127.877 109.564 129.046 108.131 129.046ZM20.0349 0.115282C18.6598 0.115282 17.544 1.23106 17.544 2.60621V126.444C17.544 127.819 18.6598 128.935 20.0349 128.935H108.131C109.502 128.935 110.622 127.819 110.622 126.444V2.60621C110.622 1.23517 109.506 0.115282 108.131 0.115282H20.0349Z" fill="#EBEBEB"/>
<path d="M206.816 129.046H118.72C117.283 129.046 116.118 127.877 116.118 126.44V2.60209C116.118 1.16518 117.287 0 118.72 0H206.816C208.253 0 209.423 1.16929 209.423 2.60209V126.44C209.423 127.877 208.253 129.046 206.816 129.046ZM118.72 0.115282C117.349 0.115282 116.229 1.23106 116.229 2.60621V126.444C116.229 127.819 117.345 128.935 118.72 128.935H206.816C208.192 128.935 209.307 127.819 209.307 126.444V2.60621C209.307 1.23517 208.192 0.115282 206.816 0.115282H118.72Z" fill="#EBEBEB"/>
<path d="M35.2553 153.737H23.3936V153.853H35.2553V153.737Z" fill="#EBEBEB"/>
<path d="M86.7625 152.498H66.2217V152.613H86.7625V152.498Z" fill="#EBEBEB"/>
<path d="M63.4465 157.974H35.7129V158.089H63.4465V157.974Z" fill="#EBEBEB"/>
<path d="M204.72 157.208H195.946V157.323H204.72V157.208Z" fill="#EBEBEB"/>
<path d="M191.883 157.208H166.657V157.323H191.883V157.208Z" fill="#EBEBEB"/>
<path d="M151.246 155.281H117.271V155.397H151.246V155.281Z" fill="#EBEBEB"/>
<path d="M87.0624 73.2207L81.29 149.393H136.943L142.715 73.2207H87.0624ZM122.059 127.062C121.589 133.274 116.171 138.314 109.954 138.314C103.737 138.314 99.0847 133.279 99.554 127.062L101.584 100.279C102.053 94.0662 107.476 89.0226 113.688 89.0226C116.797 89.0226 119.514 90.2825 121.396 92.3205C123.277 94.3544 124.323 97.1706 124.089 100.279L122.059 127.062Z" fill="#E6E6E5"/>
<path d="M154.606 149.394H73.4551L73.9203 144.396H155.071L154.606 149.394Z" fill="#E6E6E5"/>
<path d="M185.789 121.108H192.974C193.386 121.108 193.703 120.771 193.682 120.363L193.657 119.853C193.637 119.441 193.283 119.107 192.875 119.107H185.691C185.279 119.107 184.962 119.445 184.982 119.853L185.007 120.363C185.028 120.775 185.382 121.108 185.789 121.108Z" fill="#E0E0DF"/>
<path d="M173.772 121.108H180.956C181.368 121.108 181.685 120.771 181.665 120.363L181.64 119.853C181.619 119.441 181.265 119.107 180.858 119.107H173.673C173.261 119.107 172.944 119.445 172.965 119.853L172.99 120.363C173.01 120.775 173.364 121.108 173.772 121.108Z" fill="#E0E0DF"/>
<path d="M198.561 120.544H30.8423C28.9072 120.544 27.2603 118.975 27.1656 117.04L22.1179 16.2958C22.0191 14.3607 23.5095 12.792 25.4446 12.792H193.168C195.103 12.792 196.75 14.3607 196.845 16.2958L201.892 117.04C201.991 118.975 200.501 120.544 198.566 120.544H198.561Z" fill="#E0E0DF"/>
<path d="M200.62 120.544H32.897C30.9619 120.544 29.315 118.975 29.2203 117.04L24.1726 16.2958C24.0738 14.3607 25.5642 12.792 27.4993 12.792H195.223C197.158 12.792 198.805 14.3607 198.899 16.2958L203.947 117.04C204.046 118.975 202.555 120.544 200.62 120.544Z" fill="#E6E6E5"/>
<path d="M33.8772 113.516L29.1836 19.8283C29.1218 18.6178 30.0564 17.6338 31.2669 17.6338H191.933C193.144 17.6338 194.177 18.6178 194.239 19.8283L198.932 113.516C198.994 114.726 198.06 115.71 196.849 115.71H36.1828C34.9724 115.71 33.9389 114.726 33.8772 113.516Z" fill="#F5F5F5"/>
<path d="M39.0813 22.4267C39.1348 23.4972 38.3072 24.3701 37.2368 24.3701C36.1663 24.3701 35.2523 23.5013 35.1987 22.4267C35.1452 21.3562 35.9728 20.4834 37.0433 20.4834C38.1137 20.4834 39.0278 21.3521 39.0813 22.4267Z" fill="white"/>
<path d="M47.8752 22.4267C47.9288 23.4972 47.1012 24.3701 46.0307 24.3701C44.9602 24.3701 44.0462 23.5013 43.9927 22.4267C43.9392 21.3562 44.7667 20.4834 45.8372 20.4834C46.9077 20.4834 47.8217 21.3521 47.8752 22.4267Z" fill="white"/>
<path d="M56.6653 22.4267C56.7188 23.4972 55.8912 24.3701 54.8208 24.3701C53.7503 24.3701 52.8363 23.5013 52.7827 22.4267C52.7292 21.3562 53.5568 20.4834 54.6272 20.4834C55.6977 20.4834 56.6117 21.3521 56.6653 22.4267Z" fill="white"/>
<g opacity="0.6">
<path d="M50.584 115.71H73.7392L94.9059 17.6299H71.7547L50.584 115.71Z" fill="white"/>
<path d="M150.229 115.71H156.087L177.258 17.6299H171.399L150.229 115.71Z" fill="white"/>
<path d="M78.8857 115.71H111.737L132.904 17.6299H100.052L78.8857 115.71Z" fill="white"/>
</g>
<path d="M114.055 170C162.909 170 202.514 167.687 202.514 164.833C202.514 161.979 162.909 159.666 114.055 159.666C65.2009 159.666 25.5967 161.979 25.5967 164.833C25.5967 167.687 65.2009 170 114.055 170Z" fill="#F5F5F5"/>
<path d="M164.516 94.9426C164.463 94.9426 164.405 94.9426 164.352 94.9344C152.202 93.938 143.836 83.5544 143.486 83.1098C142.786 82.2287 142.934 80.9441 143.815 80.2483C144.696 79.5484 145.977 79.6966 146.676 80.5777C146.775 80.7012 153.931 89.5244 163.841 90.7843C167.057 87.5934 169.762 79.1572 169.465 76.6046C169.465 76.5799 169.461 76.5593 169.457 76.5345C169.391 75.7111 169.239 72.9032 170.046 71.2233C170.532 70.2105 171.75 69.7823 172.767 70.2723C173.78 70.7581 174.208 71.9768 173.718 72.9937C173.517 73.4137 173.422 74.9288 173.517 76.1846C173.97 80.3842 170.33 90.9778 165.76 94.5186C165.402 94.7986 164.961 94.9468 164.512 94.9468L164.516 94.9426Z" fill="#263238"/>
<path d="M67.8974 83.8887C64.2825 83.8887 54.0389 82.9993 45.7386 73.7233C45.0922 73.0027 45.0428 71.924 45.6233 71.15C48.9171 66.7199 54.7306 56.258 55.6364 52.8489C55.2617 52.2025 54.5865 51.2679 53.7466 50.8727C53.096 50.568 52.6555 49.9422 52.5855 49.2299L52.2561 45.8908C52.145 44.771 52.9643 43.7746 54.0842 43.6634C55.2041 43.5523 56.2004 44.3716 56.3116 45.4915L56.5422 47.8136C58.5349 49.2422 59.5271 51.4697 59.6465 51.7579C59.7824 52.0831 59.8359 52.4372 59.7948 52.7872C59.3748 56.4103 53.5036 66.8846 49.8887 72.1834C58.3249 80.5908 68.4039 79.825 68.8485 79.7838C69.9643 79.6932 70.9565 80.5125 71.0595 81.6324C71.1583 82.7523 70.339 83.7404 69.2232 83.8434C69.1285 83.8516 68.6591 83.8928 67.9016 83.8928L67.8974 83.8887Z" fill="#263238"/>
<path d="M133.612 164.767H128.152C127.514 164.767 126.913 164.47 126.53 163.96C126.143 163.453 126.019 162.795 126.188 162.181C127.617 157.055 128.317 152.88 128.84 146.346C126.909 137.243 125.085 128.914 125.068 128.827C124.83 127.728 125.525 126.641 126.625 126.402C127.724 126.164 128.811 126.859 129.05 127.959C129.07 128.045 130.931 136.564 132.887 145.79C132.928 145.984 132.941 146.177 132.924 146.375C132.463 152.242 131.87 156.298 130.791 160.691H133.612C134.736 160.691 135.65 161.605 135.65 162.729C135.65 163.853 134.736 164.767 133.612 164.767Z" fill="#263238"/>
<path d="M91.3945 164.767H88.3107C87.7219 164.767 87.162 164.512 86.775 164.067C86.3879 163.622 86.2109 163.033 86.2932 162.449C86.8161 158.706 89.5047 151.892 92.3579 145.045C93.3749 136.012 94.2107 128.255 94.2189 128.177C94.3383 127.057 95.3429 126.242 96.4628 126.37C97.5827 126.489 98.3938 127.494 98.2702 128.613C98.262 128.692 97.4097 136.621 96.3763 145.791C96.3557 145.98 96.3063 146.169 96.2322 146.346C94.2065 151.196 91.9009 156.907 90.8469 160.691H91.3945C92.5185 160.691 93.4325 161.605 93.4325 162.729C93.4325 163.853 92.5185 164.767 91.3945 164.767Z" fill="#263238"/>
<path d="M93.1687 25.5635L69.4165 49.3157C68.2225 75.6453 68.3213 103.301 69.4165 131.981H147.965C146.408 94.9757 146.26 59.3576 147.965 25.5635H93.1728H93.1687Z" fill="white"/>
<path d="M147.961 132.389H69.4124C69.1942 132.389 69.013 132.216 69.0048 131.998C67.8643 102.222 67.8643 74.398 69.0048 49.2994C69.0089 49.1965 69.0501 49.1018 69.1242 49.0318L92.8764 25.2796C92.9546 25.2013 93.0576 25.1602 93.1646 25.1602H147.957C148.068 25.1602 148.175 25.2054 148.253 25.2878C148.331 25.3701 148.368 25.4772 148.364 25.5884C146.726 58.1391 146.726 92.9337 148.364 131.969C148.368 132.08 148.327 132.187 148.253 132.27C148.175 132.348 148.072 132.393 147.961 132.393V132.389ZM69.8076 131.574H147.537C145.919 92.8596 145.919 58.3038 147.537 25.9712H93.3417L69.82 49.4929C68.6919 74.4186 68.6919 102.029 69.8118 131.574H69.8076Z" fill="#263238"/>
<path d="M97.7595 85.9964C97.6689 84.0119 96.5408 82.4391 95.2356 82.4844C93.9305 82.5296 92.9465 84.1806 93.037 86.1651C93.1276 88.1496 94.2557 89.7224 95.5609 89.6772C96.8661 89.6319 97.8501 87.9809 97.7595 85.9964Z" fill="#3537F5"/>
<path d="M125.303 85.3743C125.213 83.3898 124.085 81.817 122.78 81.8623C121.474 81.9076 120.49 83.5586 120.581 85.5431C120.672 87.5276 121.8 89.1004 123.105 89.0551C124.41 89.0098 125.394 87.3588 125.303 85.3743Z" fill="#3537F5"/>
<path d="M104.635 94.1357C111.857 91.5583 117.435 94.5886 117.695 94.7286C117.979 94.8851 118.078 95.2392 117.921 95.5191C117.765 95.7991 117.407 95.8979 117.122 95.7415C117.057 95.7044 110.556 92.2006 102.795 96.2026C102.506 96.3508 102.152 96.2396 102 95.9556C101.848 95.6715 101.959 95.3174 102.247 95.1692C103.058 94.7492 103.857 94.4075 104.635 94.1275V94.1357Z" fill="#3537F5"/>
<path d="M93.8186 67.3616C94.0121 67.3657 94.2097 67.4192 94.3909 67.5263C94.9508 67.8556 95.1361 68.572 94.8108 69.1237C91.5294 74.6655 86.1235 74.9373 85.8971 74.9496C85.2507 74.9743 84.699 74.472 84.6701 73.8297C84.6413 73.1874 85.1354 72.6481 85.7818 72.6193C85.9588 72.611 90.1708 72.3516 92.7893 67.9297C93.0116 67.5551 93.411 67.3533 93.8227 67.3616H93.8186Z" fill="#3537F5"/>
<path d="M121.379 66.6906C121.75 66.6207 122.153 66.7277 122.442 67.0159C126.106 70.6802 130.26 69.935 130.433 69.898C131.067 69.7744 131.685 70.1862 131.817 70.8161C131.948 71.446 131.545 72.0554 130.911 72.183C130.68 72.2242 125.369 73.2411 120.778 68.6504C120.321 68.1934 120.321 67.4523 120.778 67.0036C120.947 66.8348 121.157 66.7318 121.375 66.6906H121.379Z" fill="#3537F5"/>
<path opacity="0.2" d="M146.775 68.391L143.444 68.7039C142.25 68.8151 141.159 68.0204 140.895 66.8511L136.276 46.1456C135.996 44.894 136.757 43.6465 137.997 43.3253L146.935 40.9785L146.779 68.391H146.775Z" fill="black"/>
<path opacity="0.2" d="M95.3586 51.4361C93.0365 45.0956 90.7144 34.9549 93.1683 25.5635L69.416 49.3157C76.1271 51.5596 86.8319 52.5395 95.3627 51.4361H95.3586Z" fill="black"/>
<path d="M93.1683 49.3157C90.5662 41.6247 91.6243 31.167 93.1683 25.5635L69.416 49.3157C76.6088 50.625 84.6415 50.4191 93.1683 49.3157Z" fill="white"/>
<path d="M80.2772 50.6299C76.3123 50.6299 72.685 50.3252 69.3418 49.7158C69.1936 49.687 69.0701 49.58 69.0248 49.4359C68.9795 49.2918 69.0166 49.1353 69.1236 49.0283L92.8759 25.276C93.0076 25.1443 93.2094 25.1196 93.3699 25.2101C93.5305 25.3048 93.6087 25.4901 93.5593 25.6713C92.1224 30.8919 90.9366 41.4608 93.5511 49.1888C93.5923 49.3041 93.5758 49.4318 93.5099 49.5347C93.444 49.6376 93.337 49.7076 93.2176 49.7241C88.5281 50.3293 84.2338 50.634 80.273 50.634L80.2772 50.6299ZM70.2559 49.0488C76.5676 50.0946 83.9003 50.0699 92.6288 48.9747C90.4838 42.1607 90.9655 33.144 92.4106 26.8941L70.2559 49.0488Z" fill="#263238"/>
<path d="M174.784 84.0204C174.484 84.0204 174.208 83.8186 174.126 83.5098L165.759 51.6302C165.665 51.2679 165.883 50.8932 166.245 50.7985C166.612 50.7038 166.982 50.922 167.077 51.2843L175.443 83.164C175.538 83.5263 175.32 83.901 174.957 83.9956C174.9 84.0121 174.842 84.0204 174.784 84.0204Z" fill="#263238"/>
<path d="M190.07 37.3411L189.628 37.457L190.266 39.8903L190.708 39.7743L190.07 37.3411Z" fill="#3537F5"/>
<path d="M188.927 34.737L187.169 28.0383C186.762 26.4861 185.358 25.4033 183.756 25.4033C183.451 25.4033 183.151 25.4445 182.859 25.5186L178.264 26.7249L178.148 26.2844L182.743 25.078C183.073 24.9916 183.414 24.9463 183.756 24.9463C185.568 24.9463 187.153 26.1691 187.614 27.923L189.372 34.6218L188.931 34.737H188.927Z" fill="#3537F5"/>
<path d="M183.14 26.6411L139.644 38.0522C138.366 38.3874 137.602 39.6951 137.937 40.973L143.441 61.9526C143.776 63.2304 145.084 63.9946 146.362 63.6593L189.858 52.2483C191.136 51.913 191.9 50.6053 191.565 49.3275L186.061 28.3479C185.726 27.07 184.418 26.3059 183.14 26.6411Z" fill="#3537F5"/>
<path d="M159.435 46.3925C159.534 46.7599 159.566 47.1171 159.531 47.4641C159.494 47.8063 159.4 48.123 159.248 48.4144C159.096 48.7058 158.889 48.9556 158.628 49.1637C158.367 49.3718 158.062 49.5226 157.713 49.6159C157.36 49.7105 157.019 49.7331 156.688 49.6835C156.362 49.6327 156.061 49.5191 155.784 49.3428C155.506 49.1665 155.266 48.9392 155.064 48.661C154.86 48.378 154.709 48.0527 154.611 47.6853C154.511 47.313 154.479 46.9558 154.515 46.6137C154.55 46.2667 154.644 45.9499 154.798 45.6633C154.95 45.3719 155.154 45.1228 155.411 44.916C155.672 44.7078 155.979 44.5564 156.332 44.4618C156.681 44.3685 157.02 44.3466 157.351 44.3962C157.681 44.4457 157.985 44.5587 158.262 44.735C158.538 44.9065 158.778 45.1338 158.982 45.4168C159.185 45.695 159.336 46.0202 159.435 46.3925ZM158.82 46.5574C158.715 46.1661 158.543 45.8412 158.305 45.5827C158.072 45.323 157.799 45.143 157.486 45.0428C157.172 44.9427 156.839 44.9399 156.486 45.0345C156.133 45.1291 155.843 45.2988 155.617 45.5435C155.396 45.7869 155.249 46.0794 155.177 46.421C155.105 46.7625 155.121 47.129 155.226 47.5203C155.33 47.9069 155.499 48.2324 155.733 48.4969C155.967 48.7567 156.24 48.9366 156.553 49.0368C156.871 49.1357 157.207 49.1379 157.56 49.0432C157.913 48.9486 158.2 48.7796 158.422 48.5362C158.643 48.2928 158.789 48.0003 158.862 47.6587C158.937 47.3111 158.923 46.944 158.82 46.5574ZM164.028 45.8523C164.128 46.2246 164.133 46.5786 164.044 46.9145C163.96 47.2491 163.799 47.5376 163.563 47.7801C163.331 48.0213 163.04 48.1886 162.692 48.2819C162.344 48.3753 162.006 48.3761 161.68 48.2846C161.354 48.193 161.068 48.024 160.823 47.7776C160.583 47.53 160.413 47.2201 160.313 46.8478C160.213 46.4756 160.205 46.1222 160.29 45.7876C160.379 45.4517 160.542 45.1625 160.778 44.9201C161.015 44.6776 161.308 44.5097 161.656 44.4163C162.005 44.323 162.34 44.3227 162.661 44.4156C162.987 44.5072 163.271 44.6768 163.511 44.9244C163.756 45.1708 163.928 45.4801 164.028 45.8523ZM163.456 46.0058C163.381 45.729 163.259 45.5009 163.088 45.3216C162.922 45.1411 162.725 45.0174 162.498 44.9505C162.275 44.8823 162.042 44.8808 161.798 44.9461C161.555 45.0113 161.351 45.1298 161.188 45.3015C161.029 45.4719 160.92 45.6775 160.862 45.9182C160.804 46.1589 160.811 46.4176 160.886 46.6944C160.959 46.9664 161.08 47.1921 161.251 47.3714C161.422 47.5506 161.619 47.6768 161.844 47.7497C162.071 47.8166 162.307 47.8174 162.55 47.7522C162.794 47.687 162.995 47.5691 163.154 47.3987C163.316 47.2222 163.424 47.0142 163.477 46.7748C163.536 46.5341 163.528 46.2778 163.456 46.0058ZM166.207 43.2354C166.531 43.1485 166.844 43.1516 167.145 43.2448C167.446 43.338 167.709 43.508 167.934 43.7547C168.163 44.0001 168.328 44.3089 168.428 44.6811C168.526 45.0486 168.538 45.3984 168.463 45.7304C168.392 46.0564 168.25 46.3374 168.037 46.5735C167.828 46.8035 167.563 46.9614 167.243 47.047C167.067 47.0944 166.893 47.1129 166.721 47.1026C166.553 47.0862 166.393 47.0524 166.241 47.001C166.093 46.9436 165.961 46.8715 165.846 46.7847C165.729 46.6932 165.637 46.5977 165.569 46.4981L165.7 46.3557L166.266 48.4675C166.288 48.5486 166.28 48.6248 166.243 48.6962C166.206 48.7675 166.144 48.8147 166.058 48.8377C165.977 48.8594 165.9 48.8493 165.828 48.8074C165.761 48.769 165.716 48.7068 165.693 48.6209L164.468 44.0467C164.446 43.9655 164.454 43.8917 164.493 43.8251C164.535 43.7525 164.596 43.7053 164.677 43.6836C164.763 43.6606 164.84 43.6707 164.908 43.7139C164.974 43.7523 165.019 43.8121 165.04 43.8932L165.211 44.5303L165.088 44.5018C165.09 44.3736 165.116 44.2437 165.168 44.1122C165.224 43.9794 165.302 43.8565 165.399 43.7434C165.5 43.6242 165.618 43.521 165.753 43.4336C165.893 43.345 166.044 43.2789 166.207 43.2354ZM166.284 43.7824C166.046 43.8463 165.849 43.9629 165.695 44.1321C165.546 44.3 165.446 44.5006 165.396 44.7339C165.351 44.966 165.364 45.2157 165.436 45.4829C165.506 45.7454 165.619 45.9682 165.776 46.1513C165.937 46.3332 166.124 46.4595 166.338 46.5302C166.556 46.5996 166.784 46.6024 167.023 46.5384C167.261 46.4745 167.455 46.3586 167.605 46.1907C167.754 46.0228 167.853 45.8198 167.902 45.5816C167.951 45.3435 167.94 45.0932 167.869 44.8308C167.798 44.5635 167.682 44.3413 167.522 44.1643C167.362 43.9872 167.175 43.8633 166.962 43.7926C166.749 43.7219 166.523 43.7185 166.284 43.7824ZM169.421 45.7731C169.361 45.7226 169.325 45.6633 169.312 45.5952C169.297 45.5224 169.321 45.4494 169.383 45.3765C169.422 45.3303 169.473 45.3013 169.536 45.2894C169.605 45.2763 169.673 45.2913 169.74 45.3345C169.916 45.4562 170.103 45.5418 170.3 45.5912C170.496 45.6358 170.718 45.6249 170.967 45.5584C171.08 45.5229 171.189 45.4731 171.295 45.409C171.4 45.345 171.48 45.2621 171.535 45.1605C171.593 45.0529 171.604 44.9299 171.567 44.7915C171.531 44.6578 171.462 44.5637 171.361 44.5091C171.258 44.4497 171.135 44.4134 170.994 44.4002C170.851 44.3822 170.698 44.3746 170.535 44.3774C170.366 44.3766 170.198 44.3705 170.031 44.3589C169.863 44.3425 169.706 44.3104 169.561 44.2625C169.418 44.2086 169.292 44.1298 169.183 44.0262C169.077 43.9165 168.999 43.771 168.951 43.5897C168.893 43.3749 168.9 43.1735 168.973 42.9853C169.05 42.7958 169.175 42.6319 169.347 42.4936C169.525 42.354 169.73 42.2529 169.964 42.1902C170.098 42.1544 170.241 42.134 170.393 42.1291C170.549 42.1181 170.706 42.1322 170.865 42.1715C171.022 42.206 171.171 42.2736 171.31 42.3743C171.366 42.4105 171.406 42.4638 171.43 42.5341C171.454 42.6044 171.44 42.6771 171.389 42.7523C171.346 42.8045 171.291 42.8372 171.223 42.8504C171.16 42.8622 171.101 42.8524 171.046 42.821C170.914 42.7285 170.763 42.6717 170.594 42.6506C170.428 42.6234 170.255 42.6341 170.073 42.6827C169.959 42.7134 169.851 42.7602 169.75 42.823C169.649 42.8858 169.572 42.968 169.517 43.0696C169.466 43.1651 169.459 43.2821 169.496 43.4205C169.535 43.5481 169.606 43.6416 169.709 43.701C169.812 43.7603 169.94 43.7977 170.092 43.8132C170.243 43.8238 170.409 43.8306 170.589 43.8336C170.752 43.8308 170.909 43.8372 171.062 43.8526C171.218 43.8619 171.364 43.8918 171.5 43.9423C171.637 43.9927 171.755 44.0734 171.857 44.1844C171.957 44.2905 172.032 44.4391 172.083 44.63C172.142 44.8495 172.131 45.057 172.051 45.2525C171.969 45.4432 171.837 45.6091 171.655 45.7499C171.476 45.8848 171.27 45.9835 171.036 46.0462C170.773 46.1165 170.5 46.1361 170.215 46.1049C169.936 46.0725 169.671 45.9619 169.421 45.7731ZM173.021 43.8724C172.906 43.9031 172.827 43.8553 172.783 43.729L171.861 40.7765C171.827 40.668 171.827 40.5734 171.862 40.4925C171.895 40.4068 171.962 40.3506 172.062 40.3237C172.167 40.2956 172.256 40.3103 172.327 40.3678C172.398 40.4206 172.445 40.5024 172.47 40.6135L173.148 43.6312C173.173 43.7626 173.131 43.843 173.021 43.8724ZM173.376 45.3423C173.276 45.3692 173.192 45.361 173.124 45.3178C173.055 45.2698 173.007 45.1957 172.98 45.0955L172.942 44.9524C172.915 44.8521 172.92 44.7664 172.957 44.695C172.995 44.6237 173.063 44.5746 173.163 44.5477L173.228 44.5305C173.328 44.5036 173.412 44.5118 173.48 44.555C173.548 44.5982 173.595 44.6699 173.622 44.7701L173.66 44.9133C173.687 45.0135 173.683 45.1017 173.647 45.1778C173.61 45.2491 173.541 45.2982 173.441 45.3251L173.376 45.3423Z" fill="white"/>
</svg>
