<svg width="203" height="193" viewBox="0 0 203 193" fill="none" xmlns="http://www.w3.org/2000/svg">
<path d="M165.21 40.6603H127.844V140.121H165.21V40.6603Z" fill="#EBEBEA"/>
<path d="M153.801 52.8501H161.683V44.9681H153.801V52.8501Z" fill="#EBEBEA"/>
<path d="M161.899 53.0706H153.584V44.7561H161.899V53.0706ZM154.017 52.6381H161.466V45.1886H154.017V52.6381Z" fill="white"/>
<path d="M139.262 44.973H131.38V52.8551H139.262V44.973Z" fill="#EBEBEA"/>
<path d="M139.478 53.0706H131.164V44.7561H139.478V53.0706ZM131.596 52.6381H139.046V45.1886H131.596V52.6381Z" fill="white"/>
<path d="M150.472 44.973H142.59V52.8551H150.472V44.973Z" fill="#EBEBEA"/>
<path d="M150.468 44.973H146.529V52.8551H150.468V44.973Z" fill="#EBEBEA"/>
<path d="M150.688 53.0706H142.374V44.7561H150.688V53.0706ZM142.806 52.6381H150.256V45.1886H142.806V52.6381Z" fill="white"/>
<path d="M146.529 45.1886H150.256V52.6339H146.529V53.0706H150.688V44.7561H146.529V45.1886Z" fill="white"/>
<path d="M166.872 39.6765H126.19V41.6396H166.872V39.6765Z" fill="#DBDBD9"/>
<path d="M166.872 56.1824H126.19V58.1455H166.872V56.1824Z" fill="#DBDBD9"/>
<path d="M153.801 69.356H161.683V61.4739H153.801V69.356Z" fill="#EBEBEA"/>
<path d="M161.899 69.5716H153.584V61.2571H161.899V69.5716ZM154.017 69.1391H161.466V61.6895H154.017V69.1391Z" fill="white"/>
<path d="M139.262 61.474H131.38V69.356H139.262V61.474Z" fill="#EBEBEA"/>
<path d="M139.478 69.5716H131.164V61.2571H139.478V69.5716ZM131.596 69.1391H139.046V61.6895H131.596V69.1391Z" fill="white"/>
<path d="M150.472 61.474H142.59V69.356H150.472V61.474Z" fill="#EBEBEA"/>
<path d="M150.468 61.474H146.529V69.356H150.468V61.474Z" fill="#EBEBEA"/>
<path d="M150.688 69.5716H142.374V61.2571H150.688V69.5716ZM142.806 69.1391H150.256V61.6895H142.806V69.1391Z" fill="white"/>
<path d="M146.529 61.6895H150.256V69.1391H146.529V69.5716H150.688V61.2571H146.529V61.6895Z" fill="white"/>
<path d="M166.872 72.6849H126.19V74.648H166.872V72.6849Z" fill="#DBDBD9"/>
<path d="M153.801 85.8585H161.683V77.9765H153.801V85.8585Z" fill="#EBEBEA"/>
<path d="M161.899 86.0791H153.584V77.7646H161.899V86.0791ZM154.017 85.6467H161.466V78.1971H154.017V85.6467Z" fill="white"/>
<path d="M139.262 77.98H131.38V85.862H139.262V77.98Z" fill="#EBEBEA"/>
<path d="M139.478 86.0791H131.164V77.7646H139.478V86.0791ZM131.596 85.6467H139.046V78.1971H131.596V85.6467Z" fill="white"/>
<path d="M150.472 77.98H142.59V85.862H150.472V77.98Z" fill="#EBEBEA"/>
<path d="M150.468 77.98H146.529V85.862H150.468V77.98Z" fill="#EBEBEA"/>
<path d="M150.688 86.0791H142.374V77.7646H150.688V86.0791ZM142.806 85.6467H150.256V78.1971H142.806V85.6467Z" fill="white"/>
<path d="M146.529 78.1971H150.256V85.6467H146.529V86.0791H150.688V77.7646H146.529V78.1971Z" fill="white"/>
<path d="M166.872 89.1909H126.19V91.154H166.872V89.1909Z" fill="#DBDBD9"/>
<path d="M153.801 102.365H161.683V94.4825H153.801V102.365Z" fill="#EBEBEA"/>
<path d="M161.899 102.58H153.584V94.2656H161.899V102.58ZM154.017 102.148H161.466V94.6981H154.017V102.148Z" fill="white"/>
<path d="M139.262 94.4825H131.38V102.365H139.262V94.4825Z" fill="#EBEBEA"/>
<path d="M139.478 102.58H131.164V94.2656H139.478V102.58ZM131.596 102.148H139.046V94.6981H131.596V102.148Z" fill="white"/>
<path d="M150.472 94.4825H142.59V102.365H150.472V94.4825Z" fill="#EBEBEA"/>
<path d="M150.468 94.4825H146.529V102.365H150.468V94.4825Z" fill="#EBEBEA"/>
<path d="M150.688 102.58H142.374V94.2656H150.688V102.58ZM142.806 102.148H150.256V94.6981H142.806V102.148Z" fill="white"/>
<path d="M146.529 94.6981H150.256V102.148H146.529V102.58H150.688V94.2656H146.529V94.6981Z" fill="white"/>
<path d="M166.872 105.692H126.19V107.655H166.872V105.692Z" fill="#DBDBD9"/>
<path d="M153.801 118.87H161.683V110.988H153.801V118.87Z" fill="#EBEBEA"/>
<path d="M161.899 119.086H153.584V110.771H161.899V119.086ZM154.017 118.654H161.466V111.204H154.017V118.654Z" fill="white"/>
<path d="M139.262 110.988H131.38V118.87H139.262V110.988Z" fill="#EBEBEA"/>
<path d="M139.478 119.086H131.164V110.771H139.478V119.086ZM131.596 118.654H139.046V111.204H131.596V118.654Z" fill="white"/>
<path d="M150.472 110.988H142.59V118.87H150.472V110.988Z" fill="#EBEBEA"/>
<path d="M150.468 110.988H146.529V118.87H150.468V110.988Z" fill="#EBEBEA"/>
<path d="M150.688 119.086H142.374V110.771H150.688V119.086ZM142.806 118.654H150.256V111.204H142.806V118.654Z" fill="white"/>
<path d="M146.529 111.204H150.256V118.654H146.529V119.086H150.688V110.771H146.529V111.204Z" fill="white"/>
<path d="M166.872 122.198H126.19V124.161H166.872V122.198Z" fill="#DBDBD9"/>
<path d="M153.801 140.12H161.683V127.493H153.801V140.12Z" fill="#EBEBEA"/>
<path d="M153.584 127.274V140.121H154.017V135.156V127.707H161.466V128.457V135.156V140.121H161.899V127.274H153.584Z" fill="white"/>
<path d="M139.262 127.489H131.38V140.116H139.262V127.489Z" fill="#EBEBEA"/>
<path d="M131.159 127.274V140.121H131.596V135.156V134.346V127.707H139.041V134.346V135.156V140.121H139.478V127.274H131.159Z" fill="white"/>
<path d="M150.472 127.489H142.59V140.116H150.472V127.489Z" fill="#EBEBEA"/>
<path d="M150.468 127.489H146.529V140.116H150.468V127.489Z" fill="#EBEBEA"/>
<path d="M142.374 127.274V140.121H142.806V139.689V132.599V127.707H150.256V132.599V135.156V135.589H150.688V127.274H142.374Z" fill="white"/>
<path d="M150.688 140.121V127.274H146.529V127.707H150.256V140.121H150.688Z" fill="white"/>
<path d="M91.164 57.3749H44.3086V140.121H91.164V57.3749Z" fill="#EBEBEA"/>
<path d="M91.1641 57.3749H67.7385V140.121H91.1641V57.3749Z" fill="#EBEBEA"/>
<path d="M86.763 44.1797L58.877 50.777V57.3743H86.763V44.1797Z" fill="#EBEBEA"/>
<path d="M67.7384 48.683L58.877 50.7775V57.3748H67.7384V48.683Z" fill="#EBEBEA"/>
<path d="M79.4533 60.8248H56.0234V66.8625H79.4533V60.8248Z" fill="#EBEBEA"/>
<path d="M79.4535 60.8248H67.7385V66.8625H79.4535V60.8248Z" fill="#EBEBEA"/>
<path d="M79.6697 67.0796H55.8074V60.6095H79.6697V67.0796ZM56.2398 66.6472H79.233V61.042H56.2398V66.6472Z" fill="white"/>
<path d="M67.7385 61.042H79.2372V66.6472H67.7385V67.0796H79.6697V60.6095H67.7385V61.042Z" fill="white"/>
<path d="M52.356 60.8248H44.3086V66.8625H52.356V60.8248Z" fill="#EBEBEA"/>
<path d="M44.3086 60.6095V61.042H52.144V66.6472H44.3086V67.0796H52.5765V60.6095H44.3086Z" fill="white"/>
<path d="M83.121 66.8634H91.1683V60.8257H83.121V66.8634Z" fill="#EBEBEA"/>
<path d="M91.1683 67.0796V66.6472H83.3329V61.042H91.1683V60.6095H82.9004V67.0796H91.1683Z" fill="white"/>
<path d="M79.4533 70.5352H56.0234V76.5728H79.4533V70.5352Z" fill="#EBEBEA"/>
<path d="M79.4535 70.5352H67.7385V76.5728H79.4535V70.5352Z" fill="#EBEBEA"/>
<path d="M79.6697 76.7851H55.8074V70.3149H79.6697V76.7851ZM56.2398 76.3526H79.233V70.7474H56.2398V76.3526Z" fill="white"/>
<path d="M67.7385 70.7507H79.2372V76.3516H67.7385V76.7841H79.6697V70.3182H67.7385V70.7507Z" fill="white"/>
<path d="M52.356 70.5352H44.3086V76.5728H52.356V70.5352Z" fill="#EBEBEA"/>
<path d="M44.3086 70.3182V70.7507H52.144V76.3516H44.3086V76.7841H52.5765V70.3182H44.3086Z" fill="white"/>
<path d="M83.121 76.5688H91.1683V70.5312H83.121V76.5688Z" fill="#EBEBEA"/>
<path d="M91.1683 76.7841V76.3516H83.3329V70.7507H91.1683V70.3182H82.9004V76.7841H91.1683Z" fill="white"/>
<path d="M79.4533 80.2407H56.0234V86.2784H79.4533V80.2407Z" fill="#EBEBEA"/>
<path d="M79.4535 80.2407H67.7385V86.2784H79.4535V80.2407Z" fill="#EBEBEA"/>
<path d="M79.6697 86.4938H55.8074V80.0237H79.6697V86.4938ZM56.2398 86.0614H79.233V80.4562H56.2398V86.0614Z" fill="white"/>
<path d="M67.7385 80.4562H79.2372V86.0614H67.7385V86.4938H79.6697V80.0237H67.7385V80.4562Z" fill="white"/>
<path d="M52.356 80.2407H44.3086V86.2784H52.356V80.2407Z" fill="#EBEBEA"/>
<path d="M44.3086 80.0237V80.4562H52.144V86.0614H44.3086V86.4938H52.5765V80.0237H44.3086Z" fill="white"/>
<path d="M83.121 86.2776H91.1683V80.2399H83.121V86.2776Z" fill="#EBEBEA"/>
<path d="M91.1683 86.4938V86.0614H83.3329V80.4562H91.1683V80.0237H82.9004V86.4938H91.1683Z" fill="white"/>
<path d="M79.4533 89.9445H56.0234V95.9821H79.4533V89.9445Z" fill="#EBEBEA"/>
<path d="M79.4535 89.9445H67.7385V95.9821H79.4535V89.9445Z" fill="#EBEBEA"/>
<path d="M79.6697 96.1993H55.8074V89.7291H79.6697V96.1993ZM56.2398 95.7668H79.233V90.1616H56.2398V95.7668Z" fill="white"/>
<path d="M67.7385 90.1616H79.2372V95.7668H67.7385V96.1993H79.6697V89.7291H67.7385V90.1616Z" fill="white"/>
<path d="M52.356 89.9445H44.3086V95.9821H52.356V89.9445Z" fill="#EBEBEA"/>
<path d="M44.3086 89.7291V90.1616H52.144V95.7668H44.3086V96.1993H52.5765V89.7291H44.3086Z" fill="white"/>
<path d="M83.121 95.9863H91.1683V89.9487H83.121V95.9863Z" fill="#EBEBEA"/>
<path d="M91.1683 96.1993V95.7668H83.3329V90.1616H91.1683V89.7291H82.9004V96.1993H91.1683Z" fill="#EBEBEA"/>
<path d="M79.4533 99.6549H56.0234V105.693H79.4533V99.6549Z" fill="#EBEBEA"/>
<path d="M79.4535 99.6549H67.7385V105.693H79.4535V99.6549Z" fill="#EBEBEA"/>
<path d="M79.6697 105.908H55.8074V99.438H79.6697V105.908ZM56.2398 105.476H79.233V99.8704H56.2398V105.476Z" fill="white"/>
<path d="M67.7385 99.8704H79.2372V105.471H67.7385V105.908H79.6697V99.438H67.7385V99.8704Z" fill="white"/>
<path d="M52.356 99.6549H44.3086V105.693H52.356V99.6549Z" fill="#EBEBEA"/>
<path d="M44.3086 99.438V99.8704H52.144V105.471H44.3086V105.908H52.5765V99.438H44.3086Z" fill="white"/>
<path d="M83.121 105.688H91.1683V99.6508H83.121V105.688Z" fill="#EBEBEA"/>
<path d="M91.1683 105.908V105.471H83.3329V99.8704H91.1683V99.438H82.9004V105.908H91.1683Z" fill="#EBEBEA"/>
<path d="M79.4533 109.36H56.0234V115.398H79.4533V109.36Z" fill="#EBEBEA"/>
<path d="M79.4535 109.36H67.7385V115.398H79.4535V109.36Z" fill="#EBEBEA"/>
<path d="M79.6697 115.614H55.8074V109.143H79.6697V115.614ZM56.2398 115.181H79.233V109.576H56.2398V115.181Z" fill="white"/>
<path d="M67.7385 109.576H79.2372V115.181H67.7385V115.614H79.6697V109.143H67.7385V109.576Z" fill="white"/>
<path d="M52.356 109.36H44.3086V115.398H52.356V109.36Z" fill="#EBEBEA"/>
<path d="M44.3086 109.143V109.576H52.144V115.181H44.3086V115.614H52.5765V109.143H44.3086Z" fill="white"/>
<path d="M83.121 115.397H91.1683V109.36H83.121V115.397Z" fill="#EBEBEA"/>
<path d="M91.1683 115.614V115.181H83.3329V109.576H91.1683V109.143H82.9004V115.614H91.1683Z" fill="#EBEBEA"/>
<path d="M79.4533 119.069H56.0234V125.107H79.4533V119.069Z" fill="#EBEBEA"/>
<path d="M79.4535 119.069H67.7385V125.107H79.4535V119.069Z" fill="#EBEBEA"/>
<path d="M79.6697 125.319H55.8074V118.849H79.6697V125.319ZM56.2398 124.887H79.233V119.281H56.2398V124.887Z" fill="white"/>
<path d="M67.7385 119.286H79.2372V124.887H67.7385V125.319H79.6697V118.849H67.7385V119.286Z" fill="white"/>
<path d="M52.356 119.069H44.3086V125.107H52.356V119.069Z" fill="#EBEBEA"/>
<path d="M44.3086 118.849V119.286H52.144V124.887H44.3086V125.319H52.5765V118.849H44.3086Z" fill="white"/>
<path d="M83.121 125.103H91.1683V119.065H83.121V125.103Z" fill="#EBEBEA"/>
<path d="M91.1683 125.319V124.887H83.3329V119.286H91.1683V118.849H82.9004V125.319H91.1683Z" fill="#EBEBEA"/>
<path d="M79.4533 128.775H56.0234V140.121H79.4533V128.775Z" fill="#EBEBEA"/>
<path d="M79.4535 128.775H67.7385V140.121H79.4535V128.775Z" fill="#EBEBEA"/>
<path d="M79.6697 140.12V128.558H67.7385V128.99H79.2372V140.12H79.6697Z" fill="white"/>
<path d="M55.8074 140.12V128.558H67.7385V128.99H56.2398V140.12H55.8074Z" fill="white"/>
<path d="M52.356 128.775H44.3086V140.121H52.356V128.775Z" fill="#EBEBEA"/>
<path d="M52.144 140.12V128.99H44.3086V128.558H52.5765V140.12H52.144Z" fill="white"/>
<path d="M91.1642 128.775H83.1168V140.121H91.1642V128.775Z" fill="#EBEBEA"/>
<path d="M83.3329 140.12V128.99H91.1683V128.558H82.9004V140.12H83.3329Z" fill="#EBEBEA"/>
<path d="M92.6098 55.4404H42.8712V57.3696H92.6098V55.4404Z" fill="#DBDBD9"/>
<path d="M92.6057 55.4404H67.7385V57.3696H92.6057V55.4404Z" fill="#DBDBD9"/>
<path d="M48.0779 20.6813H10.1348V140.12H48.0779V20.6813Z" fill="#EBEBEA"/>
<path d="M50.7619 17.137H7.45105V20.6815H50.7619V17.137Z" fill="#DBDBD9"/>
<path d="M50.7619 53.0405H7.45105V54.8128H50.7619V53.0405Z" fill="#DBDBD9"/>
<path d="M32.1739 24.3663H26.043V34.9068H32.1739V24.3663Z" fill="#EBEBEA"/>
<path d="M32.3902 35.1224H25.8268V24.1494H32.3902V35.1224ZM26.2593 34.6899H31.9577V24.5819H26.2593V34.6899Z" fill="white"/>
<path d="M29.1084 24.5861H31.9576V34.6899H29.1084V35.1224H32.3901V24.1494H29.1084V24.5861Z" fill="white"/>
<path d="M21.044 24.3663H14.9131V34.9068H21.044V24.3663Z" fill="#EBEBEA"/>
<path d="M21.2646 35.1224H14.7012V24.1494H21.2646V35.1224ZM15.1336 34.6899H20.8321V24.5819H15.1336V34.6899Z" fill="white"/>
<path d="M43.3376 24.3663H37.2067V34.9068H43.3376V24.3663Z" fill="#EBEBEA"/>
<path d="M43.554 35.1224H36.9906V24.1494H43.554V35.1224ZM37.4231 34.6899H43.1215V24.5819H37.4231V34.6899Z" fill="white"/>
<path d="M32.1739 38.8119H26.043V49.3524H32.1739V38.8119Z" fill="#EBEBEA"/>
<path d="M32.1739 38.8119H29.1084V49.3524H32.1739V38.8119Z" fill="#EBEBEA"/>
<path d="M32.3902 49.5679H25.8268V38.595H32.3902V49.5679ZM26.2593 49.1354H31.9577V39.0275H26.2593V49.1354Z" fill="white"/>
<path d="M29.1084 39.0275H31.9576V49.1354H29.1084V49.5679H32.3901V38.595H29.1084V39.0275Z" fill="white"/>
<path d="M21.044 38.8119H14.9131V49.3524H21.044V38.8119Z" fill="#EBEBEA"/>
<path d="M21.2646 49.5679H14.7012V38.595H21.2646V49.5679ZM15.1336 49.1354H20.8321V39.0275H15.1336V49.1354Z" fill="white"/>
<path d="M43.3376 38.8119H37.2067V49.3524H43.3376V38.8119Z" fill="#EBEBEA"/>
<path d="M43.554 49.5679H36.9906V38.595H43.554V49.5679ZM37.4231 49.1354H43.1215V39.0275H37.4231V49.1354Z" fill="white"/>
<path d="M50.7619 87.1687H7.45105V88.941H50.7619V87.1687Z" fill="#DBDBD9"/>
<path d="M32.1739 58.4978H26.043V69.0383H32.1739V58.4978Z" fill="#EBEBEA"/>
<path d="M32.1739 58.4978H29.1084V69.0383H32.1739V58.4978Z" fill="#EBEBEA"/>
<path d="M32.3902 69.2537H25.8268V58.2808H32.3902V69.2537ZM26.2593 68.8212H31.9577V58.7132H26.2593V68.8212Z" fill="white"/>
<path d="M29.1084 58.7132H31.9576V68.8212H29.1084V69.2537H32.3901V58.2808H29.1084V58.7132Z" fill="white"/>
<path d="M21.044 58.4978H14.9131V69.0383H21.044V58.4978Z" fill="#EBEBEA"/>
<path d="M21.2646 69.2537H14.7012V58.2808H21.2646V69.2537ZM15.1336 68.8212H20.8321V58.7132H15.1336V68.8212Z" fill="white"/>
<path d="M43.3376 58.4978H37.2067V69.0383H43.3376V58.4978Z" fill="#EBEBEA"/>
<path d="M43.554 69.2537H36.9906V58.2808H43.554V69.2537ZM37.4231 68.8212H43.1215V58.7132H37.4231V68.8212Z" fill="white"/>
<path d="M32.1739 72.9434H26.043V83.4838H32.1739V72.9434Z" fill="#EBEBEA"/>
<path d="M32.1739 72.9434H29.1084V83.4838H32.1739V72.9434Z" fill="#EBEBEA"/>
<path d="M32.3902 83.6994H25.8268V72.7264H32.3902V83.6994ZM26.2593 83.2669H31.9577V73.1589H26.2593V83.2669Z" fill="white"/>
<path d="M29.1084 73.1589H31.9576V83.2669H29.1084V83.6994H32.3901V72.7264H29.1084V73.1589Z" fill="white"/>
<path d="M21.044 72.9434H14.9131V83.4838H21.044V72.9434Z" fill="#EBEBEA"/>
<path d="M21.2646 83.6994H14.7012V72.7264H21.2646V83.6994ZM15.1336 83.2669H20.8321V73.1589H15.1336V83.2669Z" fill="white"/>
<path d="M43.3376 72.9434H37.2067V83.4838H43.3376V72.9434Z" fill="#EBEBEA"/>
<path d="M43.554 83.6994H36.9906V72.7264H43.554V83.6994ZM37.4231 83.2669H43.1215V73.1589H37.4231V83.2669Z" fill="white"/>
<path d="M50.7619 121.3H7.45105V123.072H50.7619V121.3Z" fill="#DBDBD9"/>
<path d="M32.1739 92.6292H26.043V103.17H32.1739V92.6292Z" fill="#EBEBEA"/>
<path d="M32.1739 92.6292H29.1084V103.17H32.1739V92.6292Z" fill="#EBEBEA"/>
<path d="M32.3902 103.385H25.8268V92.4122H32.3902V103.385ZM26.2593 102.953H31.9577V92.8447H26.2593V102.953Z" fill="white"/>
<path d="M29.1084 92.8447H31.9576V102.953H29.1084V103.385H32.3901V92.4122H29.1084V92.8447Z" fill="white"/>
<path d="M21.044 92.6292H14.9131V103.17H21.044V92.6292Z" fill="#EBEBEA"/>
<path d="M21.2646 103.385H14.7012V92.4122H21.2646V103.385ZM15.1336 102.953H20.8321V92.8447H15.1336V102.953Z" fill="white"/>
<path d="M43.3376 92.6292H37.2067V103.17H43.3376V92.6292Z" fill="#EBEBEA"/>
<path d="M43.554 103.385H36.9906V92.4122H43.554V103.385ZM37.4231 102.953H43.1215V92.8447H37.4231V102.953Z" fill="white"/>
<path d="M32.1739 107.075H26.043V117.615H32.1739V107.075Z" fill="#EBEBEA"/>
<path d="M32.1739 107.075H29.1084V117.615H32.1739V107.075Z" fill="#EBEBEA"/>
<path d="M32.3902 117.831H25.8268V106.858H32.3902V117.831ZM26.2593 117.398H31.9577V107.29H26.2593V117.398Z" fill="white"/>
<path d="M29.1084 107.29H31.9576V117.394H29.1084V117.831H32.3901V106.858H29.1084V107.29Z" fill="white"/>
<path d="M21.044 107.075H14.9131V117.615H21.044V107.075Z" fill="#EBEBEA"/>
<path d="M21.2646 117.831H14.7012V106.858H21.2646V117.831ZM15.1336 117.398H20.8321V107.29H15.1336V117.398Z" fill="white"/>
<path d="M43.3376 107.075H37.2067V117.615H43.3376V107.075Z" fill="#EBEBEA"/>
<path d="M43.554 117.831H36.9906V106.858H43.554V117.831ZM37.4231 117.398H43.1215V107.29H37.4231V117.398Z" fill="white"/>
<path d="M32.1739 126.761H26.043V140.121H32.1739V126.761Z" fill="#EBEBEA"/>
<path d="M32.1739 126.761H29.1084V140.121H32.1739V126.761Z" fill="#EBEBEA"/>
<path d="M31.9576 140.12V126.976H29.1084V126.544H32.3901V140.12H31.9576Z" fill="white"/>
<path d="M25.8268 140.12V126.544H29.1085V126.976H26.2593V140.12H25.8268Z" fill="white"/>
<path d="M21.044 126.761H14.9131V137.301H21.044V126.761Z" fill="#EBEBEA"/>
<path d="M21.2646 137.517H14.7012V126.544H21.2646V137.517ZM15.1336 137.084H20.8321V126.976H15.1336V137.084Z" fill="white"/>
<path d="M43.3376 126.761H37.2067V137.301H43.3376V126.761Z" fill="#EBEBEA"/>
<path d="M43.554 137.517H36.9906V126.544H43.554V137.517ZM37.4231 137.084H43.1215V126.976H37.4231V137.084Z" fill="white"/>
<path d="M129.828 27.6821H94.8656V140.121H129.828V27.6821Z" fill="#EBEBEA"/>
<path d="M122.98 11.3965H101.709V27.6821H122.98V11.3965Z" fill="#EBEBEA"/>
<path d="M130.935 26.6768H93.7588V28.6865H130.935V26.6768Z" fill="#DBDBD9"/>
<path d="M104.745 31.2728H99.7627V47.1768H104.745V31.2728Z" fill="#EBEBEA"/>
<path d="M104.961 47.3982H99.5465V31.0575H104.961V47.3982ZM99.979 46.9657H104.528V31.4942H99.979V46.9657Z" fill="white"/>
<path d="M124.931 31.2728H119.949V47.1768H124.931V31.2728Z" fill="#EBEBEA"/>
<path d="M125.147 47.3982H119.733V31.0575H125.147V47.3982ZM120.165 46.9657H124.715V31.4942H120.165V46.9657Z" fill="white"/>
<path d="M114.836 31.2728H109.854V47.1768H114.836V31.2728Z" fill="#EBEBEA"/>
<path d="M115.052 47.3982H109.637V31.0575H115.052V47.3982ZM110.07 46.9657H114.619V31.4942H110.07V46.9657Z" fill="white"/>
<path d="M112.347 31.49H114.619V46.9657H112.347V47.3982H115.052V31.0575H112.347V31.49Z" fill="white"/>
<path d="M104.745 49.9832H99.7627V65.8871H104.745V49.9832Z" fill="#EBEBEA"/>
<path d="M104.961 66.1035H99.5465V49.7628H104.961V66.1035ZM99.979 65.671H104.528V50.1995H99.979V65.671Z" fill="white"/>
<path d="M124.931 49.9832H119.949V65.8871H124.931V49.9832Z" fill="#EBEBEA"/>
<path d="M125.147 66.1035H119.733V49.7628H125.147V66.1035ZM120.165 65.671H124.715V50.1995H120.165V65.671Z" fill="white"/>
<path d="M114.836 49.9832H109.854V65.8871H114.836V49.9832Z" fill="#EBEBEA"/>
<path d="M114.836 49.9832H112.347V65.8871H114.836V49.9832Z" fill="#EBEBEA"/>
<path d="M115.052 66.1035H109.637V49.7628H115.052V66.1035ZM110.07 65.671H114.619V50.1995H110.07V65.671Z" fill="white"/>
<path d="M112.347 50.2003H114.619V65.6718H112.347V66.1043H115.052V49.7678H112.347V50.2003Z" fill="white"/>
<path d="M104.745 68.6952H99.7627V84.5992H104.745V68.6952Z" fill="#EBEBEA"/>
<path d="M104.961 84.8156H99.5465V68.4749H104.961V84.8156ZM99.979 84.3831H104.528V68.9116H99.979V84.3831Z" fill="white"/>
<path d="M124.931 68.6952H119.949V84.5992H124.931V68.6952Z" fill="#EBEBEA"/>
<path d="M125.147 84.8156H119.733V68.4749H125.147V84.8156ZM120.165 84.3831H124.715V68.9116H120.165V84.3831Z" fill="white"/>
<path d="M114.836 68.6952H109.854V84.5992H114.836V68.6952Z" fill="#EBEBEA"/>
<path d="M114.836 68.6952H112.347V84.5992H114.836V68.6952Z" fill="#EBEBEA"/>
<path d="M115.052 84.8156H109.637V68.4749H115.052V84.8156ZM110.07 84.3831H114.619V68.9116H110.07V84.3831Z" fill="white"/>
<path d="M112.347 68.9106H114.619V84.3821H112.347V84.8146H115.052V68.4781H112.347V68.9106Z" fill="white"/>
<path d="M104.745 87.4005H99.7627V103.304H104.745V87.4005Z" fill="#EBEBEA"/>
<path d="M104.961 103.526H99.5465V87.1852H104.961V103.526ZM99.979 103.093H104.528V87.6219H99.979V103.093Z" fill="white"/>
<path d="M124.931 87.4005H119.949V103.304H124.931V87.4005Z" fill="#EBEBEA"/>
<path d="M125.147 103.526H119.733V87.1852H125.147V103.526ZM120.165 103.093H124.715V87.6219H120.165V103.093Z" fill="white"/>
<path d="M114.836 87.4005H109.854V103.304H114.836V87.4005Z" fill="#EBEBEA"/>
<path d="M114.836 87.4005H112.347V103.304H114.836V87.4005Z" fill="#EBEBEA"/>
<path d="M115.052 103.526H109.637V87.1852H115.052V103.526ZM110.07 103.093H114.619V87.6219H110.07V103.093Z" fill="white"/>
<path d="M112.347 87.6177H114.619V103.093H112.347V103.526H115.052V87.1852H112.347V87.6177Z" fill="white"/>
<path d="M104.745 106.113H99.7627V122.017H104.745V106.113Z" fill="#EBEBEA"/>
<path d="M104.961 122.236H99.5465V105.896H104.961V122.236ZM99.979 121.804H104.528V106.332H99.979V121.804Z" fill="white"/>
<path d="M124.931 106.113H119.949V122.017H124.931V106.113Z" fill="#EBEBEA"/>
<path d="M125.147 122.236H119.733V105.896H125.147V122.236ZM120.165 121.804H124.715V106.332H120.165V121.804Z" fill="white"/>
<path d="M114.836 106.113H109.854V122.017H114.836V106.113Z" fill="#EBEBEA"/>
<path d="M114.836 106.113H112.347V122.017H114.836V106.113Z" fill="#EBEBEA"/>
<path d="M115.052 122.236H109.637V105.896H115.052V122.236ZM110.07 121.804H114.619V106.332H110.07V121.804Z" fill="white"/>
<path d="M112.347 106.328H114.619V121.799H112.347V122.236H115.052V105.896H112.347V106.328Z" fill="white"/>
<path d="M104.745 124.212H99.7627V140.116H104.745V124.212Z" fill="#EBEBEA"/>
<path d="M99.979 140.12V124.644H104.528V140.12H104.961V124.212H99.5465V140.12H99.979Z" fill="white"/>
<path d="M124.931 124.429H119.949V140.116H124.931V124.429Z" fill="#EBEBEA"/>
<path d="M119.733 140.12H120.165V124.644H124.715V140.12H125.147V124.212H119.733V140.12Z" fill="white"/>
<path d="M114.836 124.429H109.854V140.116H114.836V124.429Z" fill="#EBEBEA"/>
<path d="M114.836 124.429H112.347V140.116H114.836V124.429Z" fill="#EBEBEA"/>
<path d="M109.637 140.12H110.07V124.644H114.619V140.12H115.052V124.212H109.637V140.12Z" fill="white"/>
<path d="M112.347 124.644H114.619V140.12H115.052V124.212H112.347V124.644Z" fill="white"/>
<path d="M32.2248 9.16257C32.2248 7.36908 30.7069 5.9275 28.888 6.05469C27.3277 6.16069 26.0727 7.4454 25.9964 9.00569C25.9667 9.60352 26.1066 10.1632 26.3695 10.6508L28.7778 15.0561C28.888 15.2553 29.1721 15.2596 29.2865 15.0645L31.7669 10.7907C32.0595 10.3158 32.2248 9.7604 32.2248 9.16257Z" fill="#DBDBD9"/>
<path d="M29.1084 11.5116C30.4057 11.5116 31.4574 10.4599 31.4574 9.16265C31.4574 7.86537 30.4057 6.81372 29.1084 6.81372C27.8112 6.81372 26.7595 7.86537 26.7595 9.16265C26.7595 10.4599 27.8112 11.5116 29.1084 11.5116Z" fill="#EBEBEA"/>
<path d="M70.8548 40.3973C70.8548 38.6038 69.3369 37.1622 67.518 37.2894C65.9577 37.3954 64.7027 38.6801 64.6264 40.2404C64.5967 40.8383 64.7366 41.3979 64.9995 41.8855L67.4078 46.2908C67.518 46.4901 67.8021 46.4943 67.9166 46.2993L70.3969 42.0254C70.6895 41.5506 70.8548 40.9951 70.8548 40.3973Z" fill="#DBDBD9"/>
<path d="M67.7386 42.7462C69.0358 42.7462 70.0875 41.6945 70.0875 40.3973C70.0875 39.1 69.0358 38.0483 67.7386 38.0483C66.4413 38.0483 65.3896 39.1 65.3896 40.3973C65.3896 41.6945 66.4413 42.7462 67.7386 42.7462Z" fill="#EBEBEA"/>
<path d="M115.463 3.11568C115.463 1.32219 113.945 -0.11938 112.126 0.00781809C110.566 0.113816 109.311 1.39851 109.235 2.95881C109.205 3.55664 109.345 4.11631 109.608 4.6039L112.016 9.00918C112.126 9.20846 112.41 9.2127 112.525 9.01767L115.005 4.74381C115.298 4.26894 115.463 3.71351 115.463 3.11568Z" fill="#DBDBD9"/>
<path d="M112.347 5.46469C113.644 5.46469 114.696 4.41304 114.696 3.11577C114.696 1.8185 113.644 0.766846 112.347 0.766846C111.05 0.766846 109.998 1.8185 109.998 3.11577C109.998 4.41304 111.05 5.46469 112.347 5.46469Z" fill="#EBEBEA"/>
<path d="M149.645 31.8031C149.645 30.0096 148.128 28.568 146.309 28.6952C144.748 28.8012 143.493 30.0859 143.417 31.6462C143.387 32.244 143.527 32.8037 143.79 33.2913L146.198 37.6966C146.309 37.8958 146.593 37.9001 146.707 37.705L149.188 33.4312C149.48 32.9563 149.645 32.4009 149.645 31.8031Z" fill="#DBDBD9"/>
<path d="M148.878 31.8031C148.878 33.1006 147.827 34.1521 146.529 34.1521C145.232 34.1521 144.18 33.1006 144.18 31.8031C144.18 30.5057 145.232 29.4542 146.529 29.4542C147.827 29.4542 148.878 30.5057 148.878 31.8031Z" fill="#EBEBEA"/>
<path d="M114.115 85.5654H71.0966V140.116H114.115V85.5654Z" fill="#DDED95"/>
<path d="M115.887 83.8264H69.3285V85.5648H115.887V83.8264Z" fill="#C0CF7B"/>
<g style="mix-blend-mode:multiply">
<path d="M96.7226 89.0551H88.4929V100.003H96.7226V89.0551Z" fill="#DDED95"/>
</g>
<path d="M97.6342 100.218H87.5813V101.829H97.6342V100.218Z" fill="white"/>
<path d="M96.9389 100.218H88.2725V88.8381H96.9389V100.218ZM88.7092 99.7856H96.5064V89.2748H88.7092V99.7856Z" fill="white"/>
<path d="M96.7226 94.3119H88.4929V94.7444H96.7226V94.3119Z" fill="white"/>
<g style="mix-blend-mode:multiply">
<path d="M109.989 89.0551H101.76V100.003H109.989V89.0551Z" fill="#DDED95"/>
</g>
<path d="M110.901 100.218H100.848V101.829H110.901V100.218Z" fill="white"/>
<path d="M110.206 100.218H101.539V88.8381H110.206V100.218ZM101.976 99.7856H109.773V89.2748H101.976V99.7856Z" fill="white"/>
<path d="M109.989 94.3119H101.76V94.7444H109.989V94.3119Z" fill="white"/>
<g style="mix-blend-mode:multiply">
<path d="M83.4518 89.0551H75.222V100.003H83.4518V89.0551Z" fill="#DDED95"/>
</g>
<path d="M84.3674 100.218H74.3146V101.829H84.3674V100.218Z" fill="white"/>
<path d="M83.672 100.218H75.0056V88.8381H83.672V100.218ZM75.4423 99.7856H83.2396V89.2748H75.4423V99.7856Z" fill="white"/>
<path d="M83.4518 94.3119H75.222V94.7444H83.4518V94.3119Z" fill="white"/>
<g style="mix-blend-mode:multiply">
<path d="M96.7226 105.319H88.4929V116.267H96.7226V105.319Z" fill="#DDED95"/>
</g>
<path d="M97.6342 116.482H87.5813V118.093H97.6342V116.482Z" fill="white"/>
<path d="M96.9389 116.482H88.2725V105.102H96.9389V116.482ZM88.7092 116.05H96.5064V105.539H88.7092V116.05Z" fill="white"/>
<path d="M96.7226 110.576H88.4929V111.009H96.7226V110.576Z" fill="white"/>
<g style="mix-blend-mode:multiply">
<path d="M109.989 105.319H101.76V116.267H109.989V105.319Z" fill="#DDED95"/>
</g>
<path d="M110.901 116.482H100.848V118.093H110.901V116.482Z" fill="white"/>
<path d="M110.206 116.482H101.539V105.102H110.206V116.482ZM101.976 116.05H109.773V105.539H101.976V116.05Z" fill="white"/>
<path d="M109.989 110.576H101.76V111.009H109.989V110.576Z" fill="white"/>
<g style="mix-blend-mode:multiply">
<path d="M83.4518 105.319H75.222V116.267H83.4518V105.319Z" fill="#DDED95"/>
</g>
<path d="M84.3674 116.482H74.3146V118.093H84.3674V116.482Z" fill="white"/>
<path d="M83.672 116.482H75.0056V105.102H83.672V116.482ZM75.4423 116.05H83.2396V105.539H75.4423V116.05Z" fill="white"/>
<path d="M83.4518 110.576H75.222V111.009H83.4518V110.576Z" fill="white"/>
<g style="mix-blend-mode:multiply">
<path d="M96.7226 121.588H88.4929V140.121H96.7226V121.588Z" fill="#DDED95"/>
</g>
<path d="M88.2767 121.368V140.121H88.7092V132.316V129.878V121.805H96.5064V129.878V132.316V140.121H96.9389V121.368H88.2767Z" fill="white"/>
<path d="M96.7226 124.674H88.4929V125.106H96.7226V124.674Z" fill="white"/>
<g style="mix-blend-mode:multiply">
<path d="M109.989 121.588H101.76V132.536H109.989V121.588Z" fill="#DDED95"/>
</g>
<path d="M110.901 132.748H100.848V134.359H110.901V132.748Z" fill="white"/>
<path d="M110.206 132.748H101.539V121.368H110.206V132.748ZM101.976 132.316H109.773V121.805H101.976V132.316Z" fill="white"/>
<path d="M109.989 126.842H101.76V127.274H109.989V126.842Z" fill="white"/>
<g style="mix-blend-mode:multiply">
<path d="M83.4518 121.588H75.222V132.536H83.4518V121.588Z" fill="#DDED95"/>
</g>
<path d="M84.3674 132.748H74.3146V134.359H84.3674V132.748Z" fill="white"/>
<path d="M83.672 132.748H75.0056V121.368H83.672V132.748ZM75.4423 132.316H83.2396V121.805H75.4423V132.316Z" fill="white"/>
<path d="M83.4518 126.842H75.222V127.274H83.4518V126.842Z" fill="white"/>
<path d="M98.2745 69.4362C98.2745 66.1715 95.5185 63.5512 92.2029 63.7802C89.3621 63.9752 87.0811 66.3072 86.9411 69.1522C86.886 70.2376 87.1404 71.2594 87.6195 72.1413L92.0036 80.159C92.2029 80.5194 92.7202 80.5279 92.9279 80.1718L97.4392 72.4C97.9692 71.5392 98.2745 70.5259 98.2745 69.4405V69.4362Z" fill="#DDED95"/>
<g style="mix-blend-mode:multiply">
<path d="M95.7127 72.3896C97.3321 70.6724 97.2527 67.9675 95.5355 66.3481C93.8182 64.7287 91.1133 64.808 89.4939 66.5253C87.8745 68.2425 87.9539 70.9474 89.6711 72.5668C91.3884 74.1862 94.0933 74.1069 95.7127 72.3896Z" fill="#DDED95"/>
</g>
<path d="M92.6057 66.8203L93.195 68.6307H95.0945L93.5596 69.7458L94.1448 71.5563L92.6057 70.437L91.0708 71.5563L91.6559 69.7458L90.1168 68.6307H92.0206L92.6057 66.8203Z" fill="#DDED95"/>
<path d="M173.173 142.898H2.17646C1.40904 142.898 0.785767 142.275 0.785767 141.507C0.785767 140.74 1.40904 140.116 2.17646 140.116H173.177C173.945 140.116 174.568 140.74 174.568 141.507C174.568 142.275 173.945 142.898 173.177 142.898H173.173Z" fill="#DBDBD9"/>
<g style="mix-blend-mode:multiply">
<path d="M126.186 140.12H55.8074V142.897H126.186V140.12Z" fill="#DBDBD9"/>
</g>
<path d="M141.526 139.87L136.739 146.026L195.861 192.135C197.421 193.395 199.681 193.263 201.088 191.834C202.712 190.189 202.56 187.497 200.758 186.047L141.526 139.87Z" fill="#3238F5"/>
<path d="M144.015 133.189L130.85 150.124C128.943 152.577 125.403 153.021 122.949 151.113L118.852 147.928L138.927 122.102L143.025 125.287C145.478 127.195 145.922 130.735 144.015 133.189Z" fill="#202CE6"/>
<path d="M92.0334 160.354C62.2436 160.354 38.0082 136.118 38.0082 106.329C38.0082 76.5389 62.2436 52.3035 92.0334 52.3035C121.823 52.3035 146.059 76.5389 146.059 106.329C146.059 136.118 121.823 160.354 92.0334 160.354ZM92.0334 60.9656C67.022 60.9656 46.6704 81.3173 46.6704 106.329C46.6704 131.34 67.022 151.692 92.0334 151.692C117.045 151.692 137.396 131.34 137.396 106.329C137.396 81.3173 117.045 60.9656 92.0334 60.9656Z" fill="#3238F5"/>
<path d="M144.651 139.389L137.019 149.207C136.14 150.339 134.503 150.544 133.372 149.664L132.02 148.613L142.842 134.691L144.194 135.742C145.326 136.622 145.531 138.258 144.651 139.389Z" fill="#0027DE"/>
<path d="M54.4125 104.421C54.3574 104.421 54.3023 104.421 54.2472 104.412C53.2932 104.323 52.5978 103.475 52.6869 102.521C54.2302 86.384 65.7628 72.6085 81.387 68.2499C82.3113 67.9912 83.2653 68.5297 83.5239 69.454C83.7825 70.3741 83.2441 71.3323 82.3198 71.5909C68.0651 75.568 57.5458 88.1309 56.1382 102.856C56.0534 103.751 55.2987 104.425 54.4168 104.425L54.4125 104.421Z" fill="white"/>
</svg>
