<svg width="16" height="15" viewBox="0 0 16 15" fill="none" xmlns="http://www.w3.org/2000/svg">
<g opacity="0.8" clip-path="url(#clip0_837_87070)">
<path d="M2.5402 8.85378C2.07697 8.92532 1.71384 9.14356 1.48945 9.56776C1.42152 9.69639 1.38539 9.83442 1.35143 9.9916C1.18269 9.83406 1.06345 9.65267 0.954326 9.46587C0.724883 9.07274 0.576738 8.64999 0.521816 8.19652C0.518926 8.1734 0.521816 8.14774 0.492188 8.13835V7.35968C0.545664 7.32066 0.535547 7.25743 0.544219 7.20504C0.772217 5.81031 1.92305 4.67429 3.30946 4.47303C3.61009 4.42931 3.90999 4.41703 4.2117 4.45172C4.17376 4.51242 4.13618 4.57385 4.09752 4.63383C3.49844 5.5581 3.08327 6.56187 2.79854 7.62309C2.68979 8.02886 2.62041 8.44259 2.5402 8.85414V8.85378Z" fill="#3537F5"/>
<path d="M7.15381 14.7996C6.9287 14.7262 6.69059 14.7071 6.46548 14.6287C6.0355 14.4787 5.64707 14.2627 5.29297 13.944C5.52097 13.8966 5.72114 13.8269 5.89566 13.6979C6.21544 13.462 6.37948 13.1371 6.43802 12.7516C6.47018 12.7429 6.50197 12.7306 6.53485 12.7256C7.29834 12.6125 8.04015 12.4166 8.76172 12.1446C9.49485 11.8681 10.189 11.5155 10.8404 11.0801C10.9514 12.5171 10.3899 13.6134 9.16279 14.3642C8.79099 14.5918 8.37727 14.7125 7.94584 14.771C7.91982 14.7747 7.88622 14.7606 7.87466 14.8H7.15381V14.7996Z" fill="#3537F5"/>
<path d="M6.24613 11.684C6.15363 11.6561 6.11316 11.5673 6.04343 11.5127C6.03439 11.4487 5.9802 11.4188 5.94081 11.379C5.39376 10.8276 4.84562 10.2773 4.29785 9.72701C4.67399 9.02531 5.09386 8.35071 5.55925 7.70502C5.89167 7.2436 6.23168 6.78725 6.60782 6.35943C6.83799 6.09747 7.05117 5.81889 7.29326 5.56849C7.50608 5.34808 7.68856 5.09804 7.93281 4.90798C7.93173 4.96073 7.93101 5.01349 7.9292 5.06624C7.87355 6.50613 9.05293 7.55796 10.4729 7.33394C12.0151 7.09112 12.7854 5.2198 11.863 3.95118C11.4066 3.32355 10.7815 3.02654 10.0094 3.02835C10.1459 2.91742 10.2789 2.80144 10.4202 2.69629C10.8415 2.3823 11.2596 2.06396 11.7112 1.79297C11.7343 1.81646 11.76 1.83813 11.781 1.86379C12.4173 2.64679 13.1446 3.33331 13.9677 3.91758C14.1549 4.05055 14.3475 4.17557 14.5375 4.3042C14.5173 4.54412 14.3955 4.74899 14.3048 4.96326C14.0483 5.56849 13.7386 6.14733 13.3791 6.69655C13.0835 7.14785 12.7594 7.57892 12.4017 7.98541C12.0913 8.3377 11.7611 8.6694 11.4182 8.9881C11.1457 9.24139 10.8574 9.47806 10.5546 9.69558C10.5112 9.72665 10.4715 9.76025 10.443 9.80542C10.3819 9.79783 10.349 9.84697 10.3075 9.87552C9.67839 10.3095 9.01607 10.6834 8.31654 10.9927C7.64845 11.2883 6.95578 11.5091 6.24758 11.6832L6.24613 11.684Z" fill="#ADAEFF"/>
<path d="M7.93227 4.90857C7.68837 5.09863 7.50554 5.34867 7.29272 5.56908C7.05063 5.81984 6.8378 6.09807 6.60728 6.36003C6.23113 6.7882 5.89112 7.24456 5.5587 7.70562C5.09331 8.35095 4.67381 9.02591 4.2973 9.72761C4.1264 9.56465 3.95549 9.40169 3.78494 9.23873C3.71448 9.18164 3.63391 9.13322 3.60645 9.03783C3.61584 9.00098 3.6256 8.96412 3.63463 8.9269C3.98259 7.48231 4.59034 6.15588 5.44199 4.93929C5.46078 4.91255 5.49077 4.89051 5.48282 4.85112C5.6353 4.72972 5.72491 4.55664 5.84487 4.40886C6.29581 3.85386 6.78613 3.33933 7.32668 2.87032C8.07607 2.21993 8.89412 1.67469 9.78118 1.23423C10.1707 1.04056 10.5678 0.859531 10.984 0.726562C11.1929 1.09512 11.4368 1.43982 11.7053 1.76719C11.7071 1.77622 11.7089 1.78489 11.71 1.79393C11.2583 2.06456 10.8399 2.38289 10.4189 2.69725C10.278 2.80239 10.145 2.91838 10.0081 3.02931C9.30134 3.07881 8.73116 3.37907 8.31347 3.95611C8.10715 4.24156 7.99839 4.56676 7.93154 4.90857H7.93227Z" fill="#797AFF"/>
<path d="M11.7108 1.79326C11.7093 1.78423 11.7079 1.77556 11.7061 1.76652C11.7556 1.76219 11.7957 1.73617 11.8361 1.71016C12.6816 1.1613 13.5694 0.692295 14.5038 0.315068C14.7459 0.21751 14.9829 0.0953809 15.2482 0.0625C15.2767 0.731318 15.2272 1.3958 15.1318 2.05703C15.0281 2.77499 14.855 3.47669 14.6166 4.16177C14.5992 4.21163 14.6072 4.28173 14.5367 4.30449C14.3466 4.17586 14.1541 4.05084 13.9669 3.91787C13.1438 3.3336 12.4168 2.64708 11.7801 1.86408C11.7595 1.83843 11.7339 1.81675 11.7104 1.79326H11.7108Z" fill="#3537F5"/>
<path d="M6.24645 11.6834C6.95466 11.5088 7.64732 11.2881 8.31542 10.9929C9.01459 10.6836 9.67727 10.3096 10.3063 9.87564C10.3479 9.84709 10.3808 9.79759 10.4418 9.80554C10.6315 10.1723 10.7761 10.5546 10.8328 10.9658C10.8379 11.0033 10.8379 11.0416 10.84 11.0796C10.1885 11.515 9.49443 11.8676 8.7613 12.1441C8.03937 12.4161 7.29792 12.612 6.53443 12.7251C6.50155 12.7298 6.46976 12.7421 6.4376 12.7511C6.45783 12.38 6.3787 12.027 6.24609 11.6834H6.24645Z" fill="#2C2ED0"/>
<path d="M5.4828 4.85044C5.49075 4.88982 5.46076 4.91187 5.44197 4.9386C4.59032 6.15483 3.98257 7.48163 3.63461 8.92622C3.62558 8.96344 3.61582 9.00029 3.60643 9.03715C3.47418 8.99704 3.34266 8.95549 3.20969 8.91719C2.99036 8.85395 2.76453 8.85504 2.53906 8.85359C2.61928 8.44204 2.68865 8.02832 2.79741 7.62255C3.08178 6.56133 3.4973 5.55756 4.09639 4.63328C4.13541 4.5733 4.17263 4.51187 4.21057 4.45117C4.61092 4.48188 4.98489 4.60257 5.34152 4.78215C5.38813 4.80563 5.43547 4.82768 5.48244 4.85044H5.4828Z" fill="#2C2ED0"/>
<path d="M15.2477 0.0607235C14.9825 0.0936044 14.7454 0.215733 14.5033 0.313292C13.569 0.690518 12.6812 1.15952 11.8357 1.70838C11.7952 1.73476 11.7551 1.76041 11.7056 1.76475C11.4371 1.43738 11.1932 1.09304 10.9844 0.724122C11.5459 0.505518 12.1269 0.354845 12.7166 0.240304C13.509 0.0863778 14.31 0.0133895 15.118 0.0336239C15.1613 0.0347079 15.2141 0.00688563 15.2477 0.0603622V0.0607235Z" fill="#2C2ED0"/>
<path d="M3.78518 9.23828C3.95608 9.40124 4.12699 9.5642 4.29754 9.72716C4.84531 10.2778 5.39345 10.8278 5.9405 11.3792C5.97988 11.4189 6.03444 11.4489 6.04312 11.5128C5.76598 11.9385 5.44259 12.3222 5.03284 12.6272C4.68416 12.8866 4.30151 13.0749 3.85383 13.1872C3.94019 12.8975 4.02004 12.6297 4.11109 12.3237C3.46323 12.7023 2.83344 13.0373 2.10825 13.1822C2.25531 12.4606 2.58412 11.8308 2.96821 11.1815C2.66578 11.2711 2.39623 11.3506 2.10645 11.4362C2.21521 10.9853 2.40924 10.6016 2.67084 10.2489C2.97544 9.83845 3.36604 9.52337 3.78445 9.23864L3.78518 9.23828Z" fill="#FBC301"/>
<path d="M7.93226 4.90662C7.99911 4.56481 8.10787 4.23961 8.31419 3.95416C8.73188 3.37676 9.30206 3.0765 10.0088 3.02736C10.781 3.02519 11.4061 3.32256 11.8624 3.95019C12.7845 5.21845 12.0142 7.08977 10.4724 7.33294C9.05238 7.5566 7.87301 6.50514 7.92865 5.06525C7.93082 5.01249 7.93118 4.95974 7.93226 4.90698V4.90662ZM11.5499 5.20183C11.5528 4.40582 10.8944 3.74387 10.0963 3.73989C9.30242 3.73592 8.63324 4.39679 8.62782 5.1899C8.6224 5.98699 9.29447 6.66268 10.0916 6.66232C10.885 6.66196 11.5466 5.99928 11.5495 5.20183H11.5499Z" fill="#2C2ED0"/>
<path d="M11.5506 5.20316C11.5477 6.00061 10.8862 6.66293 10.0927 6.66365C9.29559 6.66401 8.62352 5.98833 8.62894 5.19124C8.63436 4.39776 9.30354 3.73725 10.0974 3.74123C10.8956 3.7452 11.5539 4.40752 11.551 5.20316H11.5506Z" fill="#A0D7F0"/>
</g>
<defs>
<clipPath id="clip0_837_87070">
<rect width="14.8" height="14.8" fill="white" transform="translate(0.489258 0.00195312)"/>
</clipPath>
</defs>
</svg>
