<svg width="54" height="46" viewBox="0 0 54 46" fill="none" xmlns="http://www.w3.org/2000/svg">
<path d="M48.1439 40.6108C48.122 40.6337 48.0991 40.6575 48.0763 40.6804C47.859 40.9062 47.6342 41.1244 47.4036 41.334C47.2502 41.4741 47.0939 41.6103 46.9348 41.7427C46.125 42.4192 45.2798 42.9718 44.4242 43.4225C44.2565 43.5111 44.0879 43.595 43.9193 43.6769L41.9937 44.4448C41.7326 44.5296 41.4735 44.6068 41.2162 44.6764C40.2091 44.9508 39.2363 45.1156 38.3417 45.209C36.6867 45.3814 35.3013 45.31 34.4734 45.2271C34.4381 45.2233 34.4048 45.2204 34.3714 45.2166C33.9713 45.1747 33.7207 45.1308 33.6597 45.1204C30.6394 44.5649 27.1541 42.4373 27.1541 42.4373C25.42 41.3473 23.0762 40.0192 19.7272 38.388C19.4956 38.2756 19.2593 38.1612 19.0183 38.0459L14.5774 38.6195C14.5774 38.6195 14.5774 38.6195 14.5755 38.6195C14.5383 38.6195 14.5002 38.6186 14.4621 38.6176C14.4554 38.6176 14.4487 38.6176 14.4411 38.6176C14.4249 38.6176 14.4087 38.6176 14.3925 38.6176C14.2772 38.6148 14.1619 38.6109 14.0467 38.6062C14.0038 38.6043 13.9609 38.6024 13.918 38.5995C13.9056 38.5995 13.8923 38.5995 13.879 38.5976C13.8494 38.5957 13.8199 38.5938 13.7904 38.5919C13.3588 38.5652 12.9271 38.5204 12.4984 38.4575C11.1654 38.2622 9.85156 37.8935 8.60151 37.3428C7.32382 36.7806 6.11284 36.0289 5.01618 35.079C4.69414 34.7998 4.38735 34.5083 4.09675 34.2062C4.07388 34.1834 4.05197 34.1605 4.03005 34.1376C3.94716 34.05 3.86522 33.9623 3.78519 33.8728C3.51079 33.5698 3.25258 33.2563 3.00962 32.9343C3.00391 32.9266 2.99914 32.92 2.99343 32.9123L2.99152 32.9104C-1.37223 27.1137 -0.931086 18.4186 4.11295 13.043C6.0471 10.9821 8.57102 9.51772 11.2931 8.77931C12.5908 8.42678 13.9209 8.25433 15.2634 8.21241C17.9483 8.12856 19.8139 9.09373 22.3082 7.53498C23.5097 6.78418 24.6168 5.84569 25.946 5.35406C28.4356 4.43462 31.3949 5.37883 33.1157 7.34347C34.8793 9.3567 34.8497 11.8644 37.8843 12.5085C38.9934 12.7438 40.1377 12.7286 41.2658 12.8382C41.8832 12.8982 42.4958 13.002 43.0989 13.1459C55.5575 16.1167 55.7643 32.5894 48.142 40.6127L48.1439 40.6108Z" fill="#F3F4F6"/>
<path d="M2.86204 19.8379C2.86204 19.8379 2.86203 19.8379 2.86108 19.8379C2.84488 19.8379 2.8306 19.8283 2.82393 19.814L2.50379 19.1852L1.89496 18.8289C1.88163 18.8212 1.87305 18.806 1.87305 18.7898C1.87305 18.7736 1.88257 18.7593 1.89687 18.7526L2.52571 18.4325L2.88205 17.8237C2.88967 17.8103 2.90491 17.8018 2.92111 17.8018C2.93731 17.8018 2.9516 17.8113 2.95827 17.8256L3.2784 18.4544L3.88723 18.8108C3.90057 18.8184 3.90914 18.8336 3.90914 18.8498C3.90914 18.866 3.89962 18.8803 3.88532 18.887L3.25649 19.2071L2.90015 19.8159C2.89253 19.8293 2.87823 19.8379 2.86204 19.8379ZM2.00835 18.7936L2.55905 19.1166C2.56667 19.1204 2.57239 19.1271 2.5762 19.1347L2.86585 19.7035L3.18884 19.1528C3.19265 19.1452 3.19932 19.1395 3.20694 19.1357L3.77576 18.846L3.22505 18.523C3.21742 18.5192 3.21171 18.5125 3.2079 18.5049L2.91825 17.9361L2.59526 18.4868C2.59145 18.4944 2.58478 18.5001 2.57715 18.504L2.00835 18.7936Z" fill="#3537F5"/>
<path d="M51.2683 23.5777L50.1898 22.945L49.6229 21.8303C49.6105 21.8055 49.5848 21.7893 49.5562 21.7883C49.5266 21.7883 49.5009 21.8026 49.4876 21.8264L48.8549 22.905L47.7402 23.4719C47.7154 23.4843 47.6992 23.51 47.6982 23.5386C47.6982 23.5672 47.7125 23.5939 47.7364 23.6081L48.8149 24.2408L49.3818 25.3555C49.3942 25.3813 49.4199 25.3975 49.4485 25.3975H49.4504C49.478 25.3975 49.5038 25.3832 49.5171 25.3594L50.1498 24.2808L51.2645 23.7139C51.2902 23.7015 51.3064 23.6758 51.3064 23.6472C51.3064 23.6186 51.2921 23.592 51.2683 23.5777Z" fill="#3537F5"/>
<path d="M41.5992 13.1368C40.9646 13.1368 40.4473 12.6204 40.4473 11.9849C40.4473 11.3494 40.9637 10.833 41.5992 10.833C42.2347 10.833 42.7511 11.3494 42.7511 11.9849C42.7511 12.6204 42.2347 13.1368 41.5992 13.1368ZM41.5992 10.9245C41.0142 10.9245 40.5387 11.3999 40.5387 11.9849C40.5387 12.5699 41.0142 13.0454 41.5992 13.0454C42.1842 13.0454 42.6596 12.5699 42.6596 11.9849C42.6596 11.3999 42.1842 10.9245 41.5992 10.9245Z" fill="#3537F5"/>
<mask id="mask0_392_15127" style="mask-type:luminance" maskUnits="userSpaceOnUse" x="12" y="0" width="35" height="35">
<path d="M29.5 35C39.165 35 47 27.165 47 17.5C47 7.83502 39.165 0 29.5 0C19.835 0 12 7.83502 12 17.5C12 27.165 19.835 35 29.5 35Z" fill="white"/>
</mask>
<g mask="url(#mask0_392_15127)">
<path d="M24.1853 25.3132C24.0193 25.7383 23.8169 26.1422 23.5742 26.5127C23.0015 27.4017 22.2115 28.0914 21.2004 28.3663C21.1917 28.3681 21.1812 28.3705 21.1726 28.3723C18.7431 29.0196 15.292 28.1931 15.292 28.1931C15.3174 27.5415 15.4115 26.9336 15.5626 26.3711C15.6177 26.1652 15.6777 25.9647 15.7477 25.7716C15.7563 25.7443 15.7669 25.7153 15.7774 25.688C17.1996 21.7945 21.3682 20.1244 23.6039 19.1956C23.6126 19.1998 23.6188 19.2059 23.6274 19.2101C24.896 19.993 25.1134 22.9456 24.1853 25.3132Z" fill="#DFEE95"/>
<path d="M43.7348 28.1931C43.7348 28.1931 40.2812 29.0196 37.8523 28.3723C37.8437 28.3705 37.835 28.3681 37.8269 28.3663C36.6326 28.0417 35.7466 27.1358 35.1591 26.0089C35.0421 25.7861 34.9356 25.553 34.8421 25.3132C33.914 22.9456 34.1307 19.993 35.3999 19.2101C35.4086 19.2059 35.4148 19.1998 35.4235 19.1956C36.4686 19.6309 37.9384 20.2292 39.3519 21.1411V21.1405C39.3773 21.1575 39.4033 21.1738 39.4305 21.1908C39.4602 21.2114 39.4924 21.2301 39.524 21.2531C41.2378 22.3921 42.8413 24.0083 43.4648 26.3711C43.6159 26.933 43.7094 27.5415 43.7354 28.1931H43.7348Z" fill="#DFEE95"/>
<path d="M38.0373 24.549C38.0268 25.6528 37.9754 26.9396 37.8522 28.3723C37.6689 30.4795 37.3266 32.8992 36.7241 35.5084C35.5125 40.7662 35.3744 42.5737 29.5323 42.8898V42.8916C29.5069 42.8898 29.5199 42.8898 29.4939 42.8916V42.8898C23.6517 42.5731 23.5173 40.7765 22.302 35.5084C21.6995 32.8992 21.3565 30.4795 21.1739 28.3723C21.1101 27.6166 21.0631 26.902 21.0334 26.2335C20.8736 22.6022 21.172 20.3284 21.172 20.3284C22.0599 19.8622 22.8623 19.4958 23.6288 19.21C24.1953 18.9975 24.7445 18.831 25.2936 18.702C26.5901 18.3962 27.8996 18.2878 29.4945 18.269H29.5329C31.8088 18.2939 33.4997 18.5046 35.4004 19.21C36.1669 19.4952 36.9675 19.8616 37.8553 20.3284C37.8553 20.3284 38.064 21.9131 38.0386 24.549H38.0373Z" fill="#DFEE95"/>
<path d="M38.2509 23.0068C38.3085 24.3554 38.2769 25.7039 38.1636 27.0487C38.1252 27.4968 38.0695 27.9443 38.0039 28.3906C37.9915 28.4729 37.9135 28.5299 37.8293 28.5184C37.7457 28.5068 37.6875 28.4312 37.6986 28.3494C37.8076 27.4684 37.8856 26.574 37.9339 25.6881C37.9834 24.7986 38.0094 23.9048 38.0113 23.0141C38.0119 22.8633 38.2404 22.8536 38.2509 23.0075V23.0068Z" fill="#0D1016"/>
<path d="M21.014 23.0136C21.0177 24.35 21.0704 25.6894 21.1861 27.0216C21.2227 27.4533 21.2741 27.9238 21.3267 28.3525C21.3446 28.5457 21.0549 28.5844 21.0215 28.3907C20.8871 27.4999 20.8122 26.6019 20.7757 25.7027C20.7397 24.8035 20.7336 23.9067 20.7738 23.0069C20.7837 22.8561 21.0122 22.8598 21.0134 23.0136H21.014Z" fill="#0D1016"/>
<path d="M36.4529 8.56205C36.9209 11.454 37.2256 22.1586 33.7596 22.1586C29.2164 24.2997 23.3043 23.3018 23.3043 20.3741C23.3043 17.4463 21.4927 6.07394 24.9586 6.07394C28.4245 6.07394 35.7291 4.08599 36.4535 8.56205H36.4529Z" fill="#2A38B7"/>
<path d="M34.2501 11.2517C34.2501 11.2517 33.8149 14.6826 30.8151 16.9067C27.8154 19.1308 30.7427 11.7961 30.7427 11.7961L34.2507 11.2517H34.2501Z" fill="#243077"/>
<path d="M24.4043 11.6206C24.4043 11.6206 25.2723 15.2737 27.2065 16.655C29.1401 18.0356 28.2968 14.9213 28.2968 14.9213L24.4049 11.6206H24.4043Z" fill="#243077"/>
<path d="M27.2061 16.6549C27.7979 17.2955 28.4542 17.7533 28.7675 17.7254C29.1167 17.6945 30.5519 17.4414 32.0167 15.835C32.2037 14.8177 32.5325 14.1038 32.5325 14.1038L27.2061 13.936V16.6549Z" fill="#B7A69A"/>
<path d="M34.859 9.74586C34.5884 10.5318 34.2869 11.1398 34.129 11.422C33.8975 12.2661 33.5768 12.9763 33.2071 13.5728C31.6649 16.0603 29.2645 16.5702 28.8478 16.572C27.9952 16.575 26.1118 15.2277 25.1899 13.7829C24.268 12.3393 24.3157 10.243 24.1906 9.90391C23.8805 9.25539 23.3461 7.78093 24.2699 4.91497C25.1949 2.04962 29.366 0.107692 33.2474 2.63577C36.0521 4.46143 35.5617 7.70342 34.859 9.74586Z" fill="#F5DCCB"/>
<path d="M25.7734 7.47748C25.7734 7.47748 29.2226 6.03633 32.7833 7.69365C32.7833 7.69365 30.5705 4.83557 29.5978 4.52856C29.5978 4.52856 26.7616 5.88192 25.7734 7.47748Z" fill="white"/>
<path d="M32.3864 11.0373L32.4656 11.1202C32.5201 11.1844 32.4037 11.245 32.3789 11.1657L32.3523 11.0555C32.3467 11.0367 32.3734 11.0228 32.3864 11.0373Z" fill="#D29691"/>
<path d="M32.5088 10.9254L32.6072 10.9551C32.6902 10.9866 32.6141 11.0974 32.5528 11.035L32.4871 10.9575C32.4741 10.943 32.4902 10.92 32.5088 10.926V10.9254Z" fill="#D29691"/>
<path d="M32.5824 10.789L32.6969 10.7709C32.7817 10.763 32.7694 10.8902 32.6876 10.8665L32.5793 10.8272C32.5601 10.8211 32.5632 10.7914 32.583 10.7896L32.5824 10.789Z" fill="#D29691"/>
<path d="M25.1793 10.6638L25.1489 10.7734C25.1211 10.8522 25.0084 10.7886 25.0641 10.7256L25.1458 10.6451C25.1594 10.6305 25.1854 10.6451 25.1793 10.6638Z" fill="#D29691"/>
<path d="M25.0474 10.5614L24.9793 10.6371C24.9167 10.6983 24.8437 10.5838 24.9272 10.556L25.0269 10.5294C25.0455 10.5239 25.061 10.5481 25.0474 10.5614Z" fill="#D29691"/>
<path d="M24.9607 10.4282L24.8511 10.4645C24.7687 10.4863 24.7601 10.3579 24.8449 10.3688L24.9588 10.3906C24.9786 10.3936 24.9805 10.4233 24.9613 10.4288L24.9607 10.4282Z" fill="#D29691"/>
<path d="M24.6156 9.47317C24.6156 9.47317 24.3178 10.2519 24.3667 11.4799C23.8584 12.3167 22.7817 12.3555 22.9111 10.5456C23.095 7.9648 23.3847 5.94658 23.924 4.95594C25.1456 2.71064 26.837 1.48809 29.7228 1.31309C32.3653 1.15262 35.0511 3.63771 35.4034 4.46304C36.1414 6.19 36.3365 7.39379 36.5036 8.86643C36.6436 10.0963 35.1031 11.8311 34.5267 12.0436C33.9949 10.4983 33.6624 9.38355 32.995 8.3154C31.9796 6.69017 30.88 5.47427 29.5606 5.07462C28.8406 5.00256 25.9393 6.35168 24.6156 9.47377V9.47317Z" fill="#2A38B7"/>
<path d="M23.1081 16.3431C23.1081 16.3431 22.3503 16.7815 22.1992 18.8167C21.8934 19.3296 21.177 19.4955 20.8662 19.8715C19.9753 20.95 20.5207 21.9019 20.5207 21.9019C20.5207 21.9019 22.0259 21.435 24.4225 22.2022C26.8192 22.9694 33.0614 29.3989 39.4509 21.7904C39.4509 21.7904 39.0379 20.6145 37.4863 20.118C36.9217 19.9369 36.861 13.9979 36.7124 13.6661C36.5638 13.3343 30.6362 17.5457 30.6362 17.5457L28.3881 18.3753L23.1075 16.3425L23.1081 16.3431Z" fill="#2A38B7"/>
<path d="M28.6142 17.749C29.577 18.423 30.5608 19.0564 31.6096 19.5874C33.4088 20.3546 35.4451 20.5484 37.3626 20.1312L37.3682 20.1493C35.4489 20.9087 33.3964 20.4775 31.5836 19.6443C30.4784 19.2138 29.429 18.6077 28.6006 17.7629L28.6136 17.749H28.6142Z" fill="#243077"/>
<path d="M31.6952 19.6166C32.5125 19.5366 33.3192 19.4609 34.1111 19.2611C35.4063 18.8294 36.3784 17.7752 36.8539 16.5356L36.8731 16.5405C36.6545 18.0204 35.5252 18.896 34.1315 19.3199C33.6189 19.5191 33.0777 19.6717 32.5211 19.682C32.2444 19.6929 31.967 19.6832 31.6934 19.6353L31.6946 19.616L31.6952 19.6166Z" fill="#243077"/>
<path d="M23.0645 16.4666C24.2489 18.5617 25.7397 20.5478 27.7074 21.9896C29.5289 23.3096 31.8933 23.7383 34.1006 23.3314C35.9202 23.0492 37.6061 22.13 38.9546 20.9523C37.2928 22.7634 34.7649 23.7601 32.276 23.6578C28.2603 23.5603 24.4817 19.915 23.0645 16.4666Z" fill="#243077"/>
<path d="M22.2084 18.813C22.5619 19.3483 22.8783 19.889 23.2207 20.4255C23.8924 21.2502 24.766 21.8848 25.522 22.632L25.5109 22.6478C24.9363 22.3468 24.4107 21.9424 23.9773 21.4658C23.6764 21.1582 23.4448 20.7918 23.1705 20.463C22.7328 19.9895 22.3452 19.453 22.1904 18.8203L22.209 18.8136L22.2084 18.813Z" fill="#243077"/>
<path d="M32.146 18.4156C32.146 18.4156 32.3423 18.2449 32.6376 17.9887C32.7837 17.8598 32.954 17.7102 33.136 17.5491C33.2258 17.468 33.3186 17.3838 33.4134 17.2984C33.5062 17.2119 33.601 17.1241 33.6951 17.0356C33.7873 16.946 33.8808 16.857 33.9706 16.7674C34.0585 16.6766 34.1495 16.5906 34.2306 16.5016C34.3105 16.412 34.3959 16.3308 34.4665 16.2466C34.5371 16.1625 34.6102 16.0868 34.6714 16.0129C34.7321 15.9384 34.7885 15.87 34.838 15.8095C34.8888 15.7495 34.9259 15.6926 34.9606 15.6484C35.0293 15.5588 35.0689 15.5073 35.0689 15.5073L35.0714 15.5043C35.0887 15.4813 35.1222 15.477 35.1451 15.494C35.1655 15.5091 35.1717 15.5358 35.1612 15.5576C35.1612 15.5576 35.1321 15.6169 35.0813 15.7198C35.0541 15.7701 35.0262 15.8361 34.9829 15.9039C34.9401 15.9723 34.8925 16.0498 34.8405 16.134C34.7854 16.2164 34.7222 16.3036 34.6547 16.395C34.5872 16.487 34.5105 16.5785 34.4318 16.6741C34.3526 16.7698 34.2647 16.8625 34.178 16.96C34.0882 17.0538 33.9941 17.1465 33.9006 17.2409C33.7087 17.4226 33.513 17.6006 33.3192 17.7544C33.271 17.7932 33.2239 17.8319 33.1775 17.8695C33.1298 17.9052 33.0834 17.9403 33.0382 17.9742C32.9484 18.0432 32.8599 18.105 32.7787 18.1613C32.4531 18.3878 32.2166 18.5119 32.2166 18.5119C32.1875 18.5277 32.1503 18.5168 32.1342 18.4883C32.1206 18.4635 32.1268 18.4338 32.1472 18.4156H32.146Z" fill="#243077"/>
<path d="M33.7646 18.3006C33.7646 18.3006 33.7894 18.2625 33.8321 18.1953C33.8538 18.162 33.8798 18.122 33.9113 18.0772C33.9417 18.0312 33.9764 17.9791 34.0147 17.924C34.0927 17.8138 34.1794 17.6818 34.2797 17.5467C34.328 17.4783 34.3782 17.4069 34.4296 17.3348C34.4809 17.2634 34.5336 17.1907 34.5862 17.1174C34.6376 17.0442 34.689 16.9709 34.7397 16.8988C34.7911 16.8274 34.845 16.7583 34.8896 16.6875C34.9354 16.6173 34.9831 16.5519 35.027 16.4883C35.0691 16.4241 35.1174 16.3672 35.1515 16.3103C35.2957 16.0844 35.4072 15.9379 35.4072 15.9379L35.4097 15.9348C35.427 15.9118 35.4604 15.907 35.4839 15.9239C35.5025 15.9379 35.5093 15.9615 35.5025 15.9821C35.5025 15.9821 35.4443 16.1552 35.3341 16.409C35.3075 16.4731 35.2716 16.5379 35.2344 16.6076C35.1967 16.6766 35.1589 16.7511 35.1162 16.8256C35.0326 16.9763 34.928 17.1265 34.8277 17.2803C34.7775 17.3572 34.7187 17.4281 34.6661 17.5007C34.6122 17.5728 34.5583 17.6436 34.5032 17.7096C34.4488 17.7762 34.3943 17.8392 34.3416 17.8979C34.2903 17.9579 34.2395 18.0124 34.1912 18.0614C34.0971 18.162 34.0129 18.2413 33.9522 18.2952C33.8921 18.3503 33.8562 18.3781 33.8562 18.3781L33.8544 18.3793C33.8284 18.3999 33.79 18.3957 33.7689 18.3697C33.7528 18.3497 33.7516 18.3218 33.7652 18.3012L33.7646 18.3006Z" fill="#243077"/>
<path d="M30.5772 9.17165C30.5858 8.59822 32.0352 8.75263 31.9634 9.33151C31.9027 9.82139 30.5704 9.63852 30.5772 9.17165Z" fill="#0D1016"/>
<path d="M30.1369 14.2158C30.0273 14.3151 29.8973 14.3817 29.7611 14.4217C29.2441 14.5755 28.5971 14.349 28.3117 13.9161C28.3024 13.9027 28.2937 13.89 28.2875 13.8743C28.2132 13.7489 28.1643 13.6085 28.155 13.4643C28.1451 13.3196 28.1755 13.1059 28.321 13.0362C28.4652 12.969 28.6411 12.9793 28.7636 13.0853C28.8237 13.1368 28.885 13.1937 28.9407 13.2524C29.1568 13.4728 29.4187 13.5957 29.727 13.6284C29.8242 13.6381 29.927 13.649 30.0205 13.6781C30.2731 13.7568 30.3344 14.0396 30.1369 14.2164V14.2158Z" fill="white"/>
<path d="M26.2737 9.33898C26.1455 8.77886 27.5924 8.60023 27.6599 9.17972C27.7169 9.66959 26.3777 9.79494 26.2737 9.33898Z" fill="#0D1016"/>
<path d="M29.4911 9.85786C29.636 10.3695 29.7183 10.8757 29.7938 11.3995C29.8979 12.0868 29.5994 12.3871 28.9165 12.4453C28.7877 12.4537 28.5754 12.481 28.5822 12.3072C28.5884 12.2485 28.6354 12.2037 28.693 12.197C28.8286 12.1855 28.9295 12.1492 29.0608 12.1249C29.4923 12.0602 29.535 11.8077 29.4917 11.4322C29.4682 11.1785 29.431 10.9218 29.4025 10.6656C29.3734 10.444 29.3357 10.1164 29.2992 9.90024C29.2812 9.78277 29.4564 9.74341 29.4917 9.85846L29.4911 9.85786Z" fill="#E0A080"/>
<path d="M26.4793 10.8254C26.696 10.3833 27.2328 10.3561 27.5721 10.6807C27.7287 10.8175 27.5529 11.0603 27.3696 10.964C27.2619 10.9035 27.1405 10.8217 27.0161 10.8193C26.9084 10.8127 26.7963 10.8884 26.7201 10.9616L26.6725 10.9919C26.5616 11.0658 26.4186 10.9398 26.4793 10.8248V10.8254Z" fill="#0D1016"/>
<path d="M30.6916 10.829C30.9083 10.387 31.4451 10.3598 31.7844 10.6843C31.941 10.8212 31.7652 11.0646 31.5819 10.9677C31.4742 10.9072 31.3528 10.8254 31.2284 10.823C31.1206 10.8163 31.0086 10.892 30.933 10.9653L30.8854 10.9956C30.7745 11.0694 30.6315 10.9435 30.6922 10.8284L30.6916 10.829Z" fill="#0D1016"/>
</g>
<mask id="mask1_392_15127" style="mask-type:luminance" maskUnits="userSpaceOnUse" x="20" y="13" width="33" height="33">
<path d="M36.5 46C45.6127 46 53 38.6127 53 29.5C53 20.3873 45.6127 13 36.5 13C27.3873 13 20 20.3873 20 29.5C20 38.6127 27.3873 46 36.5 46Z" fill="white"/>
</mask>
<g mask="url(#mask1_392_15127)">
<path d="M43.3903 34.4976C43.3903 34.4976 42.0282 29.5111 42.4121 26.8371L41.1236 25.4202V30.0652C41.1236 32.5127 39.0947 34.4976 36.5916 34.4976C34.0884 34.4976 32.0595 32.5133 32.0595 30.0652V25.4202L30.771 26.8359C31.1549 29.5105 29.7928 34.497 29.7928 34.497L29.417 39.0457L36.5916 44.636L43.7661 39.0457L43.3903 34.497V34.4976Z" fill="#E0E9EF"/>
<path d="M36.5919 44.6753L36.5727 44.6602L29.3857 39.0596L29.387 39.0439L29.7628 34.4922V34.4897C29.7671 34.477 30.107 33.226 30.3962 31.6643C30.6624 30.2244 30.9385 28.2189 30.741 26.8413V26.8371V26.8256L30.7491 26.8165L32.0914 25.342V30.0658C32.0914 31.2417 32.5594 32.3474 33.4101 33.1788C34.2602 34.0102 35.3908 34.4685 36.5931 34.4685C37.7955 34.4685 38.926 34.0108 39.7761 33.1788C40.6262 32.3474 41.0949 31.2417 41.0949 30.0658V25.342L42.4446 26.8256V26.8419C42.2465 28.2189 42.5226 30.225 42.7894 31.665C43.0786 33.2266 43.4185 34.4782 43.4222 34.4903L43.4234 34.4958L43.8005 39.0609L43.7875 39.0705L36.5944 44.6759L36.5919 44.6753ZM29.4495 39.033L36.5919 44.5984L43.7342 39.033L43.3603 34.5025C43.3423 34.4371 43.0105 33.2048 42.7275 31.6752C42.4613 30.2353 42.1852 28.2304 42.3802 26.8462L41.1543 25.4995V30.0658C41.1543 31.2574 40.6794 32.3783 39.8182 33.2212C38.9564 34.0641 37.811 34.5279 36.5919 34.5279C35.3728 34.5279 34.2274 34.0634 33.3656 33.2212C32.5037 32.3783 32.0295 31.258 32.0295 30.0658V25.4995L30.8036 26.8462C30.9986 28.231 30.7231 30.2353 30.4562 31.6752C30.1733 33.2048 29.8408 34.4371 29.8235 34.5025L29.4495 39.033Z" fill="#E3DEDF"/>
<path d="M40.2803 37.5458C40.2561 37.4434 40.2487 37.4501 40.1379 37.1528C39.9874 36.7477 39.5646 35.5548 39.3404 34.0343C39.3045 33.7909 39.2581 33.4306 39.2253 32.988C39.2253 32.1984 38.8854 31.4875 38.3424 30.9837C37.8353 30.5126 37.1518 30.2219 36.397 30.2219C36.0584 30.2219 35.7352 30.2831 35.4337 30.3903C34.7124 30.6464 34.1279 31.1793 33.8165 31.8599C33.6586 32.205 33.5688 32.5859 33.5688 32.9892V33.0049C33.5688 34.156 33.5335 34.9069 33.5187 35.3816C33.4611 37.2648 33.6598 37.1152 33.5187 38.0042C33.3367 39.1522 33.0351 39.2134 33.1707 39.7033C33.4692 40.7787 35.1687 41.3715 36.397 41.3715C37.6254 41.3715 38.6959 40.8295 39.4129 39.9794C39.655 39.6924 40.5397 38.6612 40.279 37.5464L40.2803 37.5458Z" fill="#D17E79"/>
<path d="M32.2797 28.9043C32.2797 29.5535 32.45 30.2704 31.7875 30.2704C30.761 30.2704 30.0898 29.4681 30.0898 28.819C30.0898 28.1698 30.4186 27.729 31.0805 27.729C31.7423 27.729 32.2791 28.2552 32.2791 28.9043H32.2797Z" fill="#D17E79"/>
<path d="M31.152 29.2172C31.1068 29.3631 30.9365 29.4043 30.809 29.3201C30.5471 29.1518 30.3521 28.5166 30.7458 28.5166C30.7737 28.5166 30.8016 28.5227 30.8251 28.5342C31.0053 28.6256 31.2052 29.0616 31.1526 29.2172H31.152Z" fill="#75363F"/>
<path d="M40.5157 28.9043C40.5157 29.5535 40.3455 30.2704 41.0079 30.2704C42.0345 30.2704 42.7056 29.4681 42.7056 28.819C42.7056 28.1698 42.3768 27.729 41.7144 27.729C41.0519 27.729 40.5157 28.2552 40.5157 28.9043Z" fill="#D17E79"/>
<path d="M41.643 29.2172C41.6882 29.3631 41.8584 29.4043 41.986 29.3201C42.2479 29.1518 42.4429 28.5166 42.0491 28.5166C42.0213 28.5166 41.9934 28.5227 41.9699 28.5342C41.7897 28.6256 41.5897 29.0616 41.6423 29.2172H41.643Z" fill="#75363F"/>
<path d="M40.9141 31.7568C40.8602 31.8652 40.8033 31.9663 40.7414 32.0656C40.0628 33.1423 38.4636 34.6833 36.4167 34.7063H36.3771C34.3314 34.6833 32.7304 33.1423 32.0543 32.0656C31.9868 31.9591 31.9236 31.8464 31.866 31.7278C30.8463 29.675 31.146 26.0794 32.0066 24.3058C32.8895 22.4935 34.4807 21.5331 36.3771 21.4925C36.3851 21.4907 36.3913 21.4907 36.3987 21.4907C36.4049 21.4907 36.4105 21.4907 36.4167 21.4925C38.3156 21.5331 39.9062 22.4935 40.7872 24.3058C41.654 26.0873 41.9499 29.7095 40.9141 31.7568Z" fill="#D17E79"/>
<path d="M40.9143 31.7568C40.8604 31.8652 40.8035 31.9663 40.7415 32.0656C40.063 33.1423 38.4637 34.6833 36.4169 34.7063H36.3772C34.3316 34.6833 32.7305 33.1423 32.0544 32.0656C31.9869 31.9591 31.9238 31.8464 31.8662 31.7278C32.6655 31.9215 33.5267 31.7938 34.2134 31.3414C34.6115 31.0792 34.9501 30.7359 35.3662 30.4991C35.8665 30.2145 36.667 30.1534 37.2131 30.3417C37.7914 30.5409 38.2111 31.0132 38.7089 31.3414C39.3559 31.7683 40.1571 31.9058 40.9149 31.7568H40.9143Z" fill="#0D1016"/>
<path d="M34.8083 31.9748C34.5755 32.2279 34.3136 32.4471 34.0102 32.6166C33.879 32.6735 33.5707 32.874 33.4988 32.6517C33.4796 32.5803 33.5211 32.5076 33.5911 32.484C33.6809 32.4501 33.7725 32.4071 33.8629 32.3575C34.1415 32.2055 34.4028 32.0099 34.6541 31.8167C34.7606 31.7356 34.8962 31.8761 34.8083 31.9748Z" fill="#555A63"/>
<path d="M35.6203 32.5345C35.463 32.8379 35.268 33.1164 35.0209 33.3574C34.9095 33.4458 34.6649 33.7177 34.5362 33.5215C34.499 33.4573 34.5194 33.3762 34.5807 33.3356C34.6587 33.2799 34.7355 33.2151 34.8092 33.1443C35.0377 32.9269 35.2383 32.6707 35.429 32.4207C35.5101 32.3153 35.6785 32.4164 35.6196 32.5345H35.6203Z" fill="#555A63"/>
<path d="M38.51 32.0045C38.7428 32.2171 38.9849 32.4333 39.2486 32.607C39.3359 32.6652 39.4245 32.716 39.513 32.7584C39.6728 32.8384 39.5718 33.0721 39.4022 33.017C38.9595 32.8468 38.6264 32.5053 38.3398 32.1468C38.2599 32.0385 38.4122 31.9107 38.5094 32.0045H38.51Z" fill="#555A63"/>
<path d="M37.4977 32.4035C37.6741 32.6627 37.8593 32.9279 38.0747 33.1562C38.1459 33.2325 38.2202 33.3021 38.2964 33.3627C38.4332 33.4747 38.2784 33.6824 38.128 33.5891C38.0215 33.5225 37.9336 33.4414 37.8518 33.3572C37.6184 33.1035 37.4395 32.8153 37.2989 32.5034C37.2748 32.4477 37.3014 32.3835 37.3584 32.3599C37.4098 32.3387 37.4686 32.3581 37.4971 32.4029L37.4977 32.4035Z" fill="#555A63"/>
<path d="M36.5696 32.5343C36.6234 32.9455 36.6717 33.3833 36.7881 33.7799C36.8104 33.8544 36.7664 33.9325 36.6903 33.9537C36.6197 33.9737 36.5454 33.9379 36.5175 33.8732C36.4699 33.7623 36.4408 33.6509 36.416 33.5395C36.3504 33.2083 36.33 32.8758 36.3461 32.5392C36.3498 32.4786 36.4024 32.4326 36.4643 32.4362C36.52 32.4393 36.564 32.4817 36.5696 32.5343Z" fill="#555A63"/>
<path d="M37.9043 26.4973C37.913 25.9057 39.4076 26.0656 39.3333 26.6626C39.2708 27.1676 37.8969 26.9793 37.9043 26.4973Z" fill="#0D1016"/>
<path d="M33.4672 26.6698C33.3354 26.0928 34.8269 25.9081 34.8962 26.5057C34.955 27.0107 33.5743 27.1403 33.4672 26.6698Z" fill="#0D1016"/>
<path d="M36.808 27.1997C36.9641 27.7278 37.0563 28.2503 37.1343 28.7905C37.2334 29.3621 37.0154 29.7974 36.4019 29.8804C36.2638 29.8998 36.1059 29.9258 35.9635 29.9028C35.7778 29.8774 35.7747 29.6176 35.9573 29.5861C36.0093 29.5764 36.0855 29.5679 36.135 29.5528C36.3808 29.4856 36.7133 29.4783 36.7474 29.178C36.7888 28.9479 36.6749 28.2842 36.6594 28.0426L36.6124 27.6472C36.5981 27.514 36.5796 27.3808 36.5616 27.253C36.5424 27.1035 36.761 27.0556 36.808 27.1997Z" fill="#AB5555"/>
<path d="M35.7071 30.9103C35.9312 31.1471 36.2272 31.3324 36.5485 31.4069C36.7423 31.4517 36.9367 31.4541 37.1367 31.4365C37.2475 31.4208 37.3515 31.4995 37.3583 31.6097C37.3645 31.7054 37.2958 31.7889 37.2011 31.8053C37.1602 31.8126 37.1187 31.8186 37.0772 31.8241C36.7856 31.8658 36.4785 31.8235 36.2104 31.7036C35.9027 31.5685 35.6402 31.353 35.46 31.0738C35.3659 30.914 35.5894 30.768 35.7071 30.9103Z" fill="#CC7A66"/>
<path d="M33.5809 28.0438C33.8156 27.5697 34.3845 27.5412 34.7504 27.8888C34.9176 28.0371 34.7313 28.2939 34.5338 28.1921C34.418 28.1274 34.288 28.0396 34.1555 28.0371C34.0744 28.0323 33.979 28.0741 33.9128 28.1268C33.8886 28.1425 33.8589 28.1734 33.8391 28.1891L33.7877 28.2218C33.6694 28.3005 33.5159 28.1661 33.5809 28.0432V28.0438Z" fill="#0D1016"/>
<path d="M38.0897 28.0479C38.3243 27.5738 38.8933 27.5454 39.2592 27.8929C39.4264 28.0413 39.24 28.298 39.0425 28.1963C38.9268 28.1315 38.7967 28.0437 38.6642 28.0413C38.5831 28.0364 38.4878 28.0782 38.4215 28.1309C38.3974 28.1466 38.3677 28.1775 38.3479 28.1933L38.2965 28.226C38.1782 28.3047 38.0247 28.1703 38.0897 28.0473V28.0479Z" fill="#0D1016"/>
<path d="M41.1238 24.5165C38.121 24.0515 35.0625 24.0515 32.0597 24.5165C31.9717 23.9734 31.8838 23.4302 31.7959 22.887C34.9733 22.3947 38.2102 22.3947 41.3876 22.887C41.2997 23.4302 41.2117 23.9734 41.1238 24.5165Z" fill="#EBF1F4"/>
<path d="M29.7928 34.4974L29.417 28.3247L30.771 26.8369C31.1549 29.5109 29.7928 34.4974 29.7928 34.4974Z" fill="#EBF1F4"/>
<path d="M29.7733 34.6845L29.3857 28.3143L30.7918 26.769L30.8011 26.8332C30.9998 28.2181 30.7231 30.2308 30.4556 31.6756C30.1665 33.2397 29.8253 34.4931 29.8222 34.5053L29.7733 34.6845ZM29.4483 28.3361L29.8117 34.306C29.9163 33.9021 30.1714 32.877 30.3956 31.6647C30.6581 30.2472 30.9299 28.281 30.7491 26.9065L29.4483 28.3361Z" fill="#E3DEDF"/>
<path d="M33.4516 23.8905L32.4734 24.9653L32.0592 25.4207L30.7708 26.8364L29.4167 28.3248C28.6044 27.4377 29.6043 24.1624 29.6043 24.1624H30.6364L33.451 23.8899L33.4516 23.8905Z" fill="#F3F6F8"/>
<path d="M29.4173 28.3701L29.3944 28.3453C29.0507 27.9705 28.9777 27.15 29.1764 25.9069C29.3238 24.9859 29.5733 24.1629 29.5758 24.1545L29.5826 24.1333H30.6357L33.5271 23.8535L29.4173 28.3707V28.3701ZM29.6278 24.1926C29.5448 24.4742 28.6991 27.4176 29.4173 28.2793L30.7398 26.8254L30.7478 26.8164L32.0362 25.4006L32.4504 24.9453L33.3767 23.9274L30.6382 24.1926H29.6278Z" fill="#E3DEDF"/>
<path d="M43.3902 34.4974L43.766 28.3247L42.4119 26.8369C42.0281 29.5109 43.3902 34.4974 43.3902 34.4974Z" fill="#EBF1F4"/>
<path d="M43.4099 34.6845L43.3609 34.5053C43.3572 34.4925 43.0167 33.2391 42.7276 31.6756C42.4601 30.2308 42.1833 28.2187 42.3821 26.8332L42.3914 26.769L43.7974 28.3143V28.3265L43.4099 34.6839V34.6845ZM42.4335 26.9059C42.2533 28.2804 42.5251 30.2466 42.7876 31.6647C43.0118 32.8764 43.2668 33.9015 43.3715 34.3054L43.7349 28.3355L42.4341 26.9059H42.4335Z" fill="#E3DEDF"/>
<path d="M39.7314 23.8905L40.7097 24.9653L41.1239 25.4207L42.4123 26.8364L43.7664 28.3248C44.5787 27.4377 43.5788 24.1624 43.5788 24.1624H42.5467L39.7321 23.8899L39.7314 23.8905Z" fill="#F3F6F8"/>
<path d="M43.7661 28.3703L39.6562 23.853L42.5476 24.1328H43.6008L43.6076 24.154C43.6101 24.1625 43.8602 24.9854 44.0069 25.9064C44.2057 27.1495 44.132 27.97 43.789 28.3448L43.7661 28.3697V28.3703ZM42.443 26.8262L43.7655 28.28C44.4837 27.4184 43.6385 24.4743 43.555 24.1933H42.5427L39.8061 23.9281L40.7323 24.946L41.1465 25.4014L42.443 26.8256V26.8262Z" fill="#E3DEDF"/>
<path d="M40.4861 21.59C39.7333 22.1453 37.6517 22.1931 36.5918 22.2137C35.5318 22.1931 33.4503 22.1453 32.6974 21.59C32.5878 21.4895 32.6082 21.3793 32.6918 21.2721C32.6918 21.2703 32.6937 21.2691 32.6949 21.2672C32.7197 21.2364 32.7494 21.2055 32.7828 21.1764C32.7859 21.1734 32.7897 21.1698 32.7927 21.1673C32.7934 21.1655 32.7952 21.1649 32.7971 21.1631C32.807 21.1558 32.8169 21.148 32.8262 21.1389C32.8367 21.1316 32.8472 21.1237 32.8578 21.1159C32.9649 21.0408 33.0732 20.9705 33.1809 20.9057H33.1816C33.2361 20.8712 33.2912 20.8397 33.3456 20.8101C34.9919 19.8854 36.5905 20.0053 36.5905 20.0053C36.5905 20.0053 38.1891 19.8854 39.8354 20.8101C39.8899 20.8397 39.945 20.8718 39.9995 20.9057H40.0001C40.1079 20.9705 40.2162 21.0408 40.3233 21.1159C40.3338 21.1237 40.3444 21.1316 40.3549 21.1389C40.3648 21.148 40.3747 21.1558 40.384 21.1631C40.3858 21.1649 40.3871 21.1655 40.3883 21.1673C40.3914 21.1698 40.3951 21.1728 40.3982 21.1764C40.4317 21.2061 40.462 21.2364 40.4861 21.2672C40.488 21.2691 40.4892 21.2703 40.4892 21.2721C40.5728 21.3793 40.5933 21.4895 40.4837 21.59H40.4861Z" fill="#F3F6F8"/>
<path d="M36.5919 22.2441C35.571 22.2241 33.4492 22.1823 32.679 21.6143L32.6765 21.6125C32.6004 21.5429 32.5372 21.4248 32.6648 21.2583C32.6672 21.254 32.6697 21.2504 32.6722 21.2486C32.6957 21.2189 32.7254 21.188 32.7626 21.1553C32.7651 21.1529 32.7682 21.1499 32.7713 21.1468C32.7731 21.1444 32.775 21.1432 32.7762 21.1426L32.7793 21.1402C32.788 21.1335 32.7973 21.1263 32.8065 21.1184L32.8096 21.116C32.8195 21.1093 32.8301 21.1014 32.84 21.0942C32.9458 21.0197 33.0554 20.9488 33.1663 20.8822L33.1743 20.878C33.2269 20.8453 33.2802 20.8144 33.3328 20.786C34.1872 20.3064 35.028 20.112 35.5834 20.0333C36.1616 19.9515 36.5591 19.9752 36.5932 19.977C36.6272 19.9745 37.0247 19.9515 37.603 20.0333C38.1584 20.112 38.9992 20.3064 39.8536 20.7866C39.9062 20.815 39.9601 20.8465 40.0133 20.8798L40.0195 20.8828C40.1303 20.9494 40.2399 21.0203 40.3445 21.0942C40.3557 21.1026 40.3656 21.1099 40.3761 21.1172L40.3792 21.1196C40.3885 21.1275 40.3972 21.1353 40.4064 21.1414L40.4095 21.1444C40.4095 21.1444 40.412 21.1462 40.4139 21.1487C40.417 21.1511 40.4201 21.1541 40.4225 21.1571C40.4597 21.1898 40.4888 21.2201 40.5129 21.2504C40.5148 21.2528 40.5179 21.2558 40.5204 21.2601C40.6479 21.4266 40.5841 21.5447 40.5086 21.6143L40.5061 21.6161C39.7353 22.1841 37.6135 22.2259 36.5938 22.2459L36.5919 22.2441ZM32.7168 21.5677C33.4727 22.1236 35.579 22.1647 36.5919 22.1841C37.603 22.1641 39.7099 22.123 40.4659 21.5677C40.5513 21.4878 40.5519 21.4 40.4671 21.291L40.4609 21.2825C40.4399 21.2558 40.4133 21.2286 40.3798 21.1995L40.3786 21.1983C40.3786 21.1983 40.3743 21.1941 40.3718 21.1923L40.3662 21.188V21.1862C40.3563 21.1795 40.347 21.1717 40.3377 21.1638C40.3272 21.1565 40.3173 21.1487 40.3068 21.1414C40.2058 21.0706 40.1 21.0021 39.9929 20.9373L39.9842 20.9325C39.9303 20.8986 39.8758 20.8665 39.822 20.8374C38.2023 19.9273 36.6099 20.0351 36.5938 20.0363H36.5913H36.5889C36.5851 20.0363 36.1839 20.0079 35.5883 20.092C35.0392 20.1701 34.207 20.3627 33.3613 20.8374C33.3068 20.8665 33.2523 20.8986 33.1985 20.9325L33.1898 20.9373C33.0827 21.0021 32.9768 21.0706 32.8759 21.142C32.866 21.1493 32.8555 21.1571 32.8455 21.1644C32.8363 21.1723 32.827 21.1802 32.8177 21.1868V21.1886L32.8109 21.1929C32.8084 21.1947 32.8065 21.1965 32.8041 21.1989L32.8028 21.2001C32.7694 21.2298 32.7428 21.2571 32.7217 21.2831L32.7155 21.2916C32.6307 21.4006 32.6307 21.489 32.7168 21.5683V21.5677Z" fill="#E3DEDF"/>
<path d="M42.5462 24.163L39.7316 23.8906H38.5967C38.4376 23.8906 38.2809 23.9233 38.1354 23.9862L37.2426 24.3726L36.8427 24.5457C36.6836 24.6154 36.5003 24.6154 36.3412 24.5457L36.0273 24.4095L35.0484 23.9856C34.9035 23.9227 34.7463 23.89 34.5872 23.89H33.4523L30.6377 24.1624L32.1496 22.0134L32.37 21.7004L32.4691 21.5593L32.6709 21.2735L32.7019 21.2293C32.7434 21.1984 32.7849 21.1675 32.827 21.1396C32.8171 21.1487 32.8071 21.1566 32.7972 21.1639C32.7954 21.1651 32.7941 21.1663 32.7929 21.1675C32.7898 21.1699 32.7867 21.173 32.783 21.1766C32.7496 21.2063 32.7192 21.2365 32.6951 21.268C32.6932 21.2692 32.692 21.271 32.692 21.2729C32.6084 21.38 32.588 21.4896 32.6976 21.5908C33.4504 22.146 35.532 22.1939 36.5919 22.2145C37.6519 22.1939 39.7334 22.146 40.4863 21.5908C40.5959 21.4902 40.5755 21.38 40.4919 21.2729C40.4919 21.271 40.49 21.2698 40.4888 21.268C40.464 21.2371 40.4343 21.2063 40.4009 21.1766C40.3978 21.1736 40.3941 21.1699 40.391 21.1675C40.391 21.1663 40.3885 21.1651 40.3872 21.1639C40.3773 21.1566 40.3674 21.1487 40.3575 21.1396C40.399 21.1675 40.4405 21.1984 40.4826 21.2293L40.5135 21.2735L40.7154 21.5593L40.8144 21.7004L41.0349 22.0134L42.5468 24.1624L42.5462 24.163Z" fill="#FCFFFB"/>
<path d="M36.5916 24.628C36.5018 24.628 36.4121 24.6098 36.3285 24.5735L35.0357 24.0134C34.8927 23.9516 34.7422 23.9202 34.5868 23.9202H33.4532L30.5742 24.1987L32.6787 21.208L32.6824 21.205C32.7226 21.1747 32.766 21.1432 32.8087 21.1147L32.8465 21.1614C32.8359 21.1711 32.826 21.1789 32.8161 21.1862V21.1874L32.8112 21.191C32.8087 21.1929 32.8068 21.1953 32.8044 21.1977L32.8031 21.1989C32.7703 21.228 32.7431 21.2558 32.722 21.2825L32.7158 21.291C32.631 21.3999 32.631 21.4878 32.7171 21.5677C33.473 22.1236 35.5793 22.1647 36.5922 22.1847C37.6039 22.1647 39.7102 22.1236 40.4662 21.5677C40.5516 21.4878 40.5522 21.3999 40.4674 21.291L40.4612 21.2825C40.4395 21.2552 40.4123 21.2274 40.3801 21.1989L40.3789 21.1977C40.3789 21.1977 40.3739 21.1929 40.3727 21.1916L40.3653 21.1868V21.185C40.3541 21.1771 40.3448 21.1692 40.3362 21.1614L40.3745 21.1147C40.4179 21.1438 40.4618 21.1765 40.5008 21.205L40.5046 21.208L41.0593 21.9964L42.609 24.1987L39.73 23.9202H38.5964C38.4416 23.9202 38.2905 23.9516 38.1475 24.0134L36.8554 24.5735C36.7718 24.6098 36.682 24.628 36.5922 24.628H36.5916ZM33.4501 23.8602H34.5868C34.7503 23.8602 34.91 23.8935 35.0605 23.9589L36.3532 24.519C36.5049 24.585 36.6783 24.585 36.83 24.519L38.1221 23.9589C38.2732 23.8935 38.4323 23.8602 38.5958 23.8602H39.7337L42.4827 24.1266L40.7875 21.7172L40.5906 21.4369C40.5912 21.512 40.551 21.5701 40.5058 21.6119L40.5033 21.6137C39.7325 22.1817 37.6107 22.2235 36.5916 22.2434C35.5707 22.2235 33.4489 22.1817 32.6787 21.6137L32.6762 21.6119C32.631 21.5707 32.5907 21.5126 32.5914 21.4375L32.1747 22.0303L30.6999 24.126L33.4501 23.8596V23.8602Z" fill="#E3DEDF"/>
<path d="M41.0339 22.0135C40.9082 22.3193 40.5621 22.6226 40.0352 22.8491C38.9771 23.3008 37.7766 23.4843 36.5915 23.4903C35.4065 23.4837 34.2066 23.3008 33.1479 22.8491C32.621 22.6232 32.2749 22.3199 32.1492 22.0135C32.0291 21.721 32.1115 21.4273 32.4316 21.199C32.4415 21.1924 32.4501 21.1857 32.4594 21.1784C32.4675 21.173 32.4749 21.1682 32.483 21.1633C32.4854 21.1615 32.4885 21.1591 32.491 21.1579C32.5046 21.1482 32.5195 21.1397 32.5337 21.1306C32.5802 21.1034 32.6303 21.0779 32.6842 21.0531C32.7294 21.0313 32.7739 21.0137 32.8198 20.9974C32.8291 20.9932 32.8377 20.9901 32.847 20.9877C32.9547 20.9483 33.0742 20.9132 33.2061 20.8848C33.1987 20.889 33.1906 20.8938 33.1832 20.8993H33.1826C33.1491 20.9211 33.1108 20.9447 33.0705 20.972C33.0649 20.975 33.0594 20.9792 33.0544 20.9817C32.9925 21.0222 32.9256 21.0676 32.8581 21.1173C32.8532 21.1215 32.8476 21.1246 32.8421 21.1282C32.8365 21.1324 32.8315 21.1361 32.8266 21.1403C32.8167 21.1494 32.8068 21.1573 32.7975 21.1645C32.7956 21.1663 32.7944 21.1669 32.7931 21.1688C32.7628 21.1918 32.7343 21.2166 32.7065 21.2414C32.6959 21.2505 32.686 21.259 32.6774 21.2681C32.6749 21.2705 32.673 21.2723 32.6706 21.2747C32.6415 21.3032 32.6124 21.3329 32.587 21.3631C32.5851 21.3649 32.5839 21.3674 32.5826 21.3686C32.5312 21.4303 32.491 21.4945 32.4681 21.5605C32.4353 21.655 32.4402 21.7513 32.5015 21.8488C32.9727 22.4052 34.4599 22.5578 35.1911 22.6353C35.6566 22.6759 36.1235 22.6995 36.5909 22.7038C37.0578 22.6989 37.5252 22.6759 37.9908 22.6353C38.7226 22.5578 40.2092 22.4052 40.6803 21.8488C40.7416 21.7513 40.7466 21.655 40.7138 21.5605C40.6909 21.4951 40.6506 21.4303 40.5992 21.3686C40.5986 21.3668 40.5967 21.3643 40.5949 21.3631C40.5695 21.3329 40.541 21.3032 40.5113 21.2747C40.5088 21.2723 40.507 21.2705 40.5045 21.2681C40.4952 21.259 40.4859 21.2505 40.4754 21.2414C40.4475 21.2166 40.4191 21.1918 40.3887 21.1688C40.3881 21.1669 40.3862 21.1663 40.3844 21.1645C40.3745 21.1573 40.3646 21.1494 40.3553 21.1403C40.3503 21.1361 40.3454 21.1324 40.3398 21.1282C40.3342 21.1239 40.3287 21.1209 40.3237 21.1173C40.2568 21.0676 40.19 21.0222 40.1274 20.9817C40.1225 20.9792 40.1169 20.975 40.1113 20.972C40.0711 20.9447 40.0327 20.9211 39.9993 20.8993H39.9987C39.9912 20.8938 39.9832 20.889 39.9757 20.8848C40.1082 20.9132 40.2271 20.949 40.3348 20.9877C40.3441 20.9901 40.3528 20.9932 40.3621 20.9974C40.4079 21.0143 40.4525 21.0319 40.4977 21.0531C40.5515 21.0779 40.6017 21.1034 40.6481 21.1306C40.6618 21.1397 40.6766 21.1482 40.6909 21.1579C40.6933 21.1597 40.6964 21.1621 40.6989 21.1633C40.7069 21.1682 40.7144 21.173 40.7224 21.1784C40.7317 21.1857 40.7404 21.193 40.7503 21.199C41.0704 21.4273 41.1527 21.7216 41.0326 22.0135H41.0339Z" fill="#1D1D1B"/>
<path d="M40.8134 21.7003C40.7986 21.7324 40.7806 21.7645 40.7577 21.7978C40.4221 22.2108 39.8915 22.373 39.4012 22.5287C38.4861 22.7812 37.5394 22.8896 36.5915 22.8962C35.6436 22.8896 34.697 22.7812 33.7819 22.5287C33.2921 22.373 32.7609 22.2108 32.4253 21.7978C32.4024 21.7645 32.3845 21.7324 32.3696 21.7003C32.265 21.4793 32.3337 21.3 32.4829 21.1626C32.5102 21.1372 32.5393 21.1129 32.5708 21.0905C32.5814 21.0839 32.5913 21.0772 32.6018 21.0706C32.6148 21.0609 32.629 21.053 32.6433 21.0439C32.6897 21.0167 32.738 20.9912 32.7894 20.9694C32.8327 20.9494 32.8767 20.9319 32.9207 20.9161C32.9299 20.9119 32.9386 20.9089 32.9467 20.9065C33.0587 20.8683 33.1714 20.8405 33.2736 20.8217H33.2742C33.299 20.8168 33.3225 20.8126 33.3454 20.8096C33.2909 20.8392 33.2358 20.8713 33.1813 20.9052H33.1807C33.1448 20.9258 33.107 20.9476 33.0699 20.97C33.0643 20.9731 33.0587 20.9773 33.0538 20.9797C32.9801 21.0251 32.9058 21.0742 32.8414 21.1269C32.8358 21.1311 32.8309 21.1347 32.8259 21.139C32.821 21.142 32.816 21.1462 32.8111 21.1499C32.8055 21.1547 32.8005 21.159 32.7962 21.1626C32.7944 21.1644 32.7931 21.165 32.7919 21.1668C32.7888 21.1693 32.7851 21.1723 32.782 21.1759C32.7485 21.2056 32.7182 21.2359 32.6941 21.2667C32.6922 21.2686 32.691 21.2698 32.691 21.2716C32.6074 21.3788 32.5869 21.489 32.6965 21.5895C33.4494 22.1448 35.5309 22.1926 36.5909 22.2132C37.6509 22.1926 39.7324 22.1448 40.4853 21.5895C40.5949 21.489 40.5744 21.3788 40.4908 21.2716C40.4908 21.2698 40.489 21.2686 40.4877 21.2667C40.463 21.2359 40.4333 21.205 40.3998 21.1759C40.3967 21.1729 40.393 21.1693 40.3899 21.1668C40.3893 21.165 40.3875 21.1644 40.3856 21.1626C40.3813 21.1584 40.3763 21.1547 40.3707 21.1499C40.3658 21.1456 40.3608 21.142 40.3559 21.139C40.3509 21.1347 40.346 21.1311 40.3404 21.1269C40.276 21.0742 40.2017 21.0251 40.128 20.9797C40.1231 20.9773 40.1175 20.9731 40.1119 20.97C40.0742 20.9476 40.037 20.9258 40.0011 20.9052H40.0005C39.946 20.8707 39.8909 20.8392 39.8364 20.8096C39.8593 20.8126 39.8829 20.8168 39.9076 20.8217H39.9082C40.0104 20.8398 40.1231 20.8677 40.2351 20.9065C40.2432 20.9089 40.2525 20.9119 40.2611 20.9161C40.3051 20.9319 40.3491 20.9494 40.3924 20.9694C40.4438 20.9912 40.4921 21.0167 40.5385 21.0439C40.5534 21.053 40.567 21.0609 40.58 21.0706C40.5905 21.0772 40.6004 21.0839 40.611 21.0905C40.6425 21.1129 40.6723 21.1366 40.6989 21.1626C40.8481 21.3 40.9168 21.4787 40.8122 21.7003H40.8134Z" fill="#242422"/>
<path d="M39.2598 43.3431C39.2598 43.3431 42.8037 36.8361 43.5547 31.6279C43.5547 31.6279 46.3068 40.6109 39.2598 43.3431Z" fill="#F3F6F8"/>
<path d="M39.1934 43.4007L39.2324 43.3286C39.241 43.3123 40.1295 41.6767 41.0972 39.426C41.6656 38.1041 42.1504 36.8325 42.5373 35.6457C43.0209 34.1628 43.3527 32.8094 43.5236 31.6232L43.5434 31.4875L43.5837 31.6183C43.5905 31.6407 44.2709 33.8988 44.0802 36.4619C43.9681 37.9685 43.5812 39.2849 42.9298 40.3743C42.1157 41.7367 40.8848 42.7443 39.2708 43.3704L39.1934 43.4007ZM43.5638 31.7734C43.3868 32.9287 43.0617 34.2372 42.5961 35.6645C42.2086 36.8531 41.7232 38.1265 41.1542 39.4502C40.2998 41.4364 39.5073 42.9447 39.3259 43.285C40.8886 42.6625 42.0829 41.6737 42.8772 40.3458C43.5236 39.2649 43.9075 37.9576 44.0195 36.4607C44.183 34.2681 43.7062 32.2996 43.5645 31.774L43.5638 31.7734Z" fill="#E3DEDF"/>
<path d="M50.2283 46.6964H22.7715C22.7715 41.9823 26.4776 40.5799 26.4776 40.5799L33.4677 36.8208V35.2325C34.3729 35.3754 35.2793 35.456 36.1869 35.4729C36.3956 35.4772 36.6049 35.4778 36.8135 35.4735C37.7187 35.4602 38.6251 35.3815 39.5321 35.2319V36.8202L46.5222 40.5793C46.5222 40.5793 50.2283 41.9817 50.2283 46.6958V46.6964Z" fill="white"/>
<path d="M50.2596 46.7266H22.7402V46.6957C22.7402 45.6167 22.9359 44.6218 23.3216 43.7395C23.6306 43.0335 24.0615 42.3971 24.602 41.8491C25.5016 40.9366 26.4142 40.5714 26.4643 40.552L33.4364 36.8026V35.1962L33.473 35.2016C34.3763 35.3439 35.2895 35.4251 36.1879 35.442C36.412 35.4462 36.6163 35.4469 36.8132 35.4426C37.7221 35.4293 38.6353 35.3481 39.5269 35.2016L39.5634 35.1956V36.802L46.5355 40.5514C46.5851 40.5708 47.4983 40.936 48.3979 41.8485C48.9384 42.3971 49.3693 43.0329 49.6783 43.7389C50.064 44.6212 50.2596 45.6161 50.2596 46.6951V46.726V46.7266ZM22.8028 46.6654H50.1971C50.1934 45.607 49.9996 44.6315 49.6213 43.7656C49.3155 43.0662 48.8895 42.4364 48.3545 41.8939C47.4432 40.9687 46.5201 40.612 46.5108 40.609L46.507 40.6072L39.5009 36.839V35.2688C38.6174 35.4123 37.7134 35.4917 36.8138 35.505C36.6163 35.5086 36.4114 35.5086 36.186 35.5044C35.297 35.4874 34.393 35.4087 33.4984 35.2688V36.8396L26.4885 40.609C26.4792 40.6126 25.5561 40.9693 24.6447 41.8939C24.1098 42.4371 23.6838 43.0668 23.3779 43.7656C22.9997 44.6315 22.8059 45.607 22.8021 46.6654H22.8028Z" fill="#E3DEDF"/>
<path d="M35.8008 37.688H35.7383V48.6196H35.8008V37.688Z" fill="#E3DEDF"/>
<path d="M37.2608 37.688H37.1982V48.6196H37.2608V37.688Z" fill="#E3DEDF"/>
<path d="M22.8028 48.6203H22.7402V46.6965C22.7402 45.6175 22.9359 44.6226 23.3216 43.7403C23.6306 43.0343 24.0615 42.3979 24.602 41.8499C25.5016 40.9374 26.4142 40.5722 26.4643 40.5528L33.4525 36.7943L34.1293 36.4304L34.1596 36.4843L33.4829 36.8482L26.491 40.6086H26.4891C26.4798 40.6128 25.5567 40.9694 24.6453 41.8947C24.1104 42.4379 23.6844 43.0676 23.3786 43.7664C22.9966 44.6408 22.8028 45.6266 22.8028 46.6971V48.6209V48.6203Z" fill="#E3DEDF"/>
<path d="M50.2592 48.6203H50.1967V46.6965C50.1967 45.6259 50.0029 44.6402 49.6209 43.7658C49.315 43.0664 48.8891 42.4366 48.3541 41.8941C47.4428 40.9688 46.5196 40.6122 46.5103 40.6092L46.5066 40.6073L39.5166 36.8482L38.8398 36.4843L38.8702 36.4304L39.5469 36.7943L46.5351 40.5528C46.5846 40.5722 47.4979 40.9374 48.3975 41.8499C48.938 42.3985 49.3689 43.0343 49.6778 43.7403C50.0636 44.6226 50.2592 45.6175 50.2592 46.6965V48.6203Z" fill="#E3DEDF"/>
<path d="M46.0962 44.4958L46.1427 48.6195H46.0498L46.0962 44.4958Z" fill="#E3DEDF"/>
<path d="M36.542 35.4735L35.4294 37.688C34.7793 37.6219 33.5429 37.3349 32.8848 37.1339L33.4674 35.2319C34.3726 35.3748 35.6344 35.456 36.5414 35.4729L36.542 35.4735Z" fill="#F3F6F8"/>
<path d="M35.4479 37.7207L35.4263 37.7183C34.7991 37.6547 33.562 37.3726 32.8754 37.1631L32.8457 37.154L33.445 35.1975L33.4723 35.2017C34.4437 35.3549 35.7334 35.427 36.542 35.4421L36.5909 35.4434L35.4473 37.7201L35.4479 37.7207ZM32.9237 37.114C33.6048 37.3193 34.7898 37.5887 35.4114 37.6553L36.4924 35.5033C35.6869 35.4863 34.4418 35.4149 33.4902 35.2671L32.9243 37.114H32.9237Z" fill="#E3DEDF"/>
<path d="M39.5318 35.2327L40.1664 37.1625C39.5151 37.352 38.2254 37.6118 37.5673 37.6814L36.542 35.4737C37.4472 35.4603 38.6254 35.3816 39.5318 35.2327Z" fill="#F3F6F8"/>
<path d="M37.5485 37.7141L37.5392 37.6941L36.4941 35.4434H36.5418C37.3492 35.4312 38.5571 35.3616 39.5273 35.2017L39.5539 35.1975L40.2071 37.1824L40.1762 37.1915C39.5106 37.3847 38.2203 37.6426 37.5714 37.7117L37.5492 37.7141H37.5485ZM36.5901 35.5033L37.5863 37.6487C38.229 37.5772 39.4635 37.3314 40.1272 37.1419L39.5106 35.2671C38.5608 35.421 37.3919 35.49 36.5901 35.5033Z" fill="#E3DEDF"/>
<path d="M37.5672 37.6814C37.2124 37.7195 36.8571 37.7401 36.4992 37.7419C36.1438 37.7425 35.7866 37.7256 35.4287 37.688L36.5413 35.4736C36.3327 35.4779 36.7499 35.4779 36.5413 35.4736L37.5666 37.6814H37.5672Z" fill="#F3F6F8"/>
<path d="M36.4755 37.7727C36.1207 37.7727 35.7678 37.7545 35.4254 37.7188L35.3809 37.714L36.4897 35.5068C36.4712 35.5062 36.4501 35.502 36.4495 35.4759C36.4495 35.4457 36.4798 35.4445 36.4934 35.4445C36.5003 35.4445 36.5095 35.4445 36.5213 35.4438H36.5405H36.5603C36.5721 35.4438 36.5814 35.4438 36.5876 35.4445C36.6006 35.4445 36.6315 35.4463 36.6315 35.4759C36.6315 35.5026 36.6086 35.5062 36.59 35.5068L37.6122 37.7073L37.5695 37.7122C37.2129 37.7509 36.8525 37.7709 36.4984 37.7727C36.4904 37.7727 36.4823 37.7727 36.4743 37.7727H36.4755ZM35.4768 37.6625C35.8105 37.6958 36.1548 37.7115 36.499 37.7115C36.8365 37.7097 37.1801 37.6916 37.5206 37.6558L36.5405 35.5456L35.4768 37.6625Z" fill="#E3DEDF"/>
<path d="M43.7834 44.2209H39.543V49.1711H43.7834V44.2209Z" fill="#F3F6F8"/>
<path d="M43.8147 49.202H39.5117V44.1907H43.8147V49.202ZM39.5743 49.1409H43.7522V44.2518H39.5743V49.1409Z" fill="#E3DEDF"/>
<path d="M43.7834 44.2209V45.5737H42.0622L41.6629 45.1831L41.2642 45.5737H39.543V44.2209H43.7834Z" fill="#F3F6F8"/>
<path d="M43.8147 45.6041H42.0496L41.6632 45.2262L41.2769 45.6041H39.5117V44.1902H43.8147V45.6041ZM42.0749 45.5429H43.7522V44.2513H39.5743V45.5429H41.2515L41.6638 45.1397L42.0762 45.5429H42.0749Z" fill="#E3DEDF"/>
</g>
<mask id="mask2_392_15127" style="mask-type:luminance" maskUnits="userSpaceOnUse" x="0" y="9" width="33" height="33">
<path d="M16.5 42C25.6127 42 33 34.6127 33 25.5C33 16.3873 25.6127 9 16.5 9C7.3873 9 0 16.3873 0 25.5C0 34.6127 7.3873 42 16.5 42Z" fill="white"/>
</mask>
<g mask="url(#mask2_392_15127)">
<path d="M13.4667 26.5989C13.4667 26.6049 13.4648 26.6092 13.4648 26.6158" stroke="#555A63" stroke-width="0.258" stroke-miterlimit="10" stroke-linecap="round"/>
<path d="M20.6952 31.4905C20.6952 33.7557 18.8174 35.5947 16.5012 35.5947C14.185 35.5947 12.3047 33.7564 12.3047 31.4905C12.3047 30.9449 12.413 30.4241 12.6136 29.9476C12.6198 29.9288 12.626 29.91 12.6347 29.8937C12.9882 28.9152 13.2099 28.2467 13.3157 27.7011C13.3925 27.3057 13.4241 26.9908 13.4649 26.616V26.5996C13.4649 24.9587 14.8233 23.6301 16.5012 23.6301C18.1791 23.6301 19.535 24.9587 19.535 26.5996C19.5777 26.9805 19.6093 27.299 19.6885 27.7011C19.7969 28.257 20.0228 28.94 20.3888 29.9476C20.5869 30.4241 20.6952 30.9449 20.6952 31.4905Z" fill="#F8A384"/>
<path d="M16.4999 29.5667C18.176 29.5667 19.5349 28.2378 19.5349 26.5984C19.5349 24.9591 18.176 23.6301 16.4999 23.6301C14.8237 23.6301 13.4648 24.9591 13.4648 26.5984C13.4648 28.2378 14.8237 29.5667 16.4999 29.5667Z" fill="#F8A384"/>
<path d="M16.5006 35.5935C18.8179 35.5935 20.6965 33.7563 20.6965 31.4899C20.6965 29.2235 18.8179 27.3862 16.5006 27.3862C14.1833 27.3862 12.3047 29.2235 12.3047 31.4899C12.3047 33.7563 14.1833 35.5935 16.5006 35.5935Z" fill="#F8A384"/>
<path d="M11.1726 37.3991C11.0066 37.8242 10.8042 38.2281 10.5615 38.5987C9.98879 39.4876 9.19877 40.1773 8.18772 40.4522C8.17905 40.454 8.16853 40.4564 8.15986 40.4583C5.73098 41.1056 2.2793 40.279 2.2793 40.279C2.30468 39.6275 2.39879 39.0195 2.54986 38.457C2.60496 38.2511 2.66502 38.0507 2.73498 37.8575C2.74365 37.8303 2.75417 37.8012 2.7647 37.774C4.18686 33.8804 8.35551 32.2104 10.5912 31.2815C10.5999 31.2857 10.6061 31.2918 10.6147 31.296C11.8833 32.079 12.1007 35.0315 11.1726 37.3991Z" fill="#DFEE95"/>
<path d="M30.7215 40.279C30.7215 40.279 27.268 41.1056 24.8391 40.4583C24.8304 40.4564 24.8218 40.454 24.8137 40.4522C23.6194 40.1276 22.7334 39.2218 22.1459 38.0949C22.0288 37.872 21.9223 37.6389 21.8282 37.3991C20.9001 35.0315 21.1175 32.079 22.3861 31.296C22.3947 31.2918 22.4009 31.2857 22.4096 31.2815C23.4553 31.7169 24.9239 32.3145 26.338 33.2264C26.3634 33.2434 26.3888 33.2598 26.4167 33.2767C26.4464 33.2973 26.4786 33.3161 26.5101 33.3391C28.2239 34.4781 29.8275 36.0936 30.451 38.457C30.602 39.0189 30.6955 39.6275 30.7215 40.279Z" fill="#DFEE95"/>
<path d="M24.8414 32.4139C23.436 31.6751 22.2497 31.0484 20.6963 30.7251C20.5069 30.871 17.4688 33.0382 16.5023 35.4579C15.5333 33.0321 12.5534 30.8559 12.3788 30.7227C11.1542 30.9945 10.0998 31.3936 8.1588 32.4133C8.1588 32.4133 7.86099 34.687 8.02073 38.3184C8.05045 38.9699 8.09503 39.6675 8.15694 40.405V40.4093C8.1588 40.4262 8.1588 40.4408 8.16128 40.4571C8.34454 42.5643 8.68692 44.984 9.28996 47.5932C10.5059 52.8613 10.6397 54.6585 16.4819 54.9746V54.9764C16.5072 54.9746 16.4949 54.9746 16.5202 54.9764V54.9746C22.3624 54.6579 22.5005 52.8504 23.7121 47.5932C24.3146 44.984 24.6576 42.5643 24.8408 40.4571V40.4468C24.964 39.0184 25.0154 37.7359 25.0259 36.6344C25.0513 33.9986 24.8427 32.4139 24.8427 32.4139H24.8414Z" fill="#DFEE95"/>
<path d="M25.2392 35.0916C25.2968 36.4401 25.2652 37.7886 25.1519 39.1335C25.1135 39.5815 25.0578 40.029 24.9921 40.4753C24.9798 40.5577 24.9018 40.6146 24.8176 40.6031C24.734 40.5916 24.6758 40.5159 24.6869 40.4341C24.7959 39.5531 24.8739 38.6587 24.9222 37.7728C24.9717 36.8833 24.9977 35.9896 24.9996 35.0988C25.0002 34.9481 25.2287 34.9384 25.2392 35.0922V35.0916Z" fill="#0D1016"/>
<path d="M8.00133 35.098C8.00505 36.4344 8.05705 37.7739 8.17345 39.106C8.20998 39.5378 8.26137 40.0083 8.314 40.437C8.33195 40.6301 8.0422 40.6689 8.00876 40.4751C7.87441 39.5844 7.79949 38.6864 7.76296 37.7872C7.72705 36.888 7.72086 35.9912 7.76111 35.0914C7.77101 34.9406 7.99947 34.9442 8.00071 35.098H8.00133Z" fill="#0D1016"/>
<mask id="mask3_392_15127" style="mask-type:luminance" maskUnits="userSpaceOnUse" x="7" y="30" width="19" height="25">
<path d="M24.8414 32.4139C23.436 31.6751 22.2497 31.0484 20.6963 30.7251C20.5069 30.871 17.4688 33.0382 16.5023 35.4579C15.5333 33.0321 12.5534 30.8559 12.3788 30.7227C11.1542 30.9945 10.0998 31.3936 8.1588 32.4133C8.1588 32.4133 7.86099 34.687 8.02073 38.3184C8.05045 38.9699 8.09503 39.6675 8.15694 40.405V40.4093C8.1588 40.4262 8.1588 40.4408 8.16128 40.4571C8.34454 42.5643 8.68692 44.984 9.28996 47.5932C10.5059 52.8613 10.6397 54.6585 16.4819 54.9746V54.9764C16.5072 54.9746 16.4949 54.9746 16.5202 54.9764V54.9746C22.3624 54.6579 22.5005 52.8504 23.7121 47.5932C24.3146 44.984 24.6576 42.5643 24.8408 40.4571V40.4468C24.964 39.0184 25.0154 37.7359 25.0259 36.6344C25.0513 33.9986 24.8427 32.4139 24.8427 32.4139H24.8414Z" fill="white"/>
</mask>
<g mask="url(#mask3_392_15127)">
<path d="M10.502 34.8954C9.06436 33.0346 9.06003 30.6682 10.4921 29.6103C11.9242 28.5525 14.2503 29.2034 15.6873 31.0642C17.1249 32.925 17.1292 35.2914 15.6972 36.3492C14.2651 37.4071 11.939 36.7562 10.502 34.8954Z" fill="#0D1016"/>
<path d="M22.4744 34.8954C23.912 33.0346 23.9163 30.6682 22.4843 29.6103C21.0522 28.5525 18.7261 29.2034 17.2891 31.0642C15.8515 32.925 15.8471 35.2914 17.2792 36.3492C18.7113 37.4071 21.0374 36.7562 22.4744 34.8954Z" fill="#0D1016"/>
</g>
<path d="M12.0807 22.2252C12.0807 22.9221 12.2634 23.6912 11.5526 23.6912C10.4511 23.6912 9.73047 22.8301 9.73047 22.1337C9.73047 21.4374 10.0834 20.9639 10.7941 20.9639C11.5049 20.9639 12.0807 21.5288 12.0807 22.2252Z" fill="#F8A384"/>
<path d="M20.9195 22.2252C20.9195 22.9221 20.7368 23.6912 21.4476 23.6912C22.5491 23.6912 23.2697 22.8301 23.2697 22.1337C23.2697 21.4374 22.9168 20.9639 22.2061 20.9639C21.4953 20.9639 20.9195 21.5288 20.9195 22.2252Z" fill="#F8A384"/>
<path d="M10.8721 22.5516C10.8238 22.7079 10.6405 22.7527 10.5037 22.6618C10.2232 22.4814 10.0133 21.7996 10.4356 21.7996C10.4653 21.7996 10.495 21.8056 10.5204 21.8183C10.7136 21.9164 10.9284 22.3845 10.8715 22.551L10.8721 22.5516Z" fill="#B0594D"/>
<path d="M22.1285 22.5516C22.1768 22.7079 22.36 22.7527 22.4968 22.6618C22.7773 22.4814 22.9872 21.7996 22.565 21.7996C22.5352 21.7996 22.5055 21.8056 22.4795 21.8183C22.2863 21.9164 22.0715 22.3845 22.1285 22.551V22.5516Z" fill="#B0594D"/>
<path d="M12.5995 25.1656C12.5599 25.3897 12.5271 25.6349 12.472 25.8753C12.3271 26.5026 12.1197 27.1039 11.6727 27.5974C11.5891 27.6901 11.5885 27.77 11.6578 27.8754C11.7879 28.0722 11.8894 28.2835 11.9575 28.5112C12.1791 29.2554 11.9779 29.9245 11.5854 30.5603C11.4962 30.705 11.3978 30.8449 11.2703 30.9617C11.1718 31.052 11.147 31.1561 11.2077 31.279C11.4436 31.7604 11.4975 32.2733 11.4938 32.8001C11.4907 33.27 11.3619 33.6981 11.1043 34.0917C11.0684 34.1462 11.0313 34.2001 10.9941 34.254C10.9328 34.343 10.9489 34.4199 11.017 34.501C11.5699 35.1562 11.8188 35.9416 11.9451 36.7554C12.1024 37.7697 11.8733 38.7228 11.2919 39.5857C11.144 39.8055 10.9514 39.9877 10.7452 40.1512C10.492 40.3516 10.1632 40.2142 10.1211 39.8975C10.1075 39.797 10.1211 39.6892 10.1422 39.5887C10.2964 38.8633 10.066 38.2553 9.55401 37.7333C9.36022 37.5359 9.16024 37.3452 8.96211 37.1526C8.48662 36.6906 8.23958 36.1257 8.2111 35.4778C8.20243 35.2749 8.25939 35.0654 8.31264 34.865C8.35784 34.693 8.32812 34.5634 8.19315 34.4453C8.04332 34.3139 7.93311 34.1492 7.82971 33.9821C7.60806 33.6249 7.54429 33.2409 7.58825 32.8225C7.66502 32.0868 7.96778 31.4486 8.3987 30.8558C8.50581 30.7086 8.51448 30.6959 8.39189 30.5536C8.12752 30.2454 7.97335 29.8936 7.90339 29.5006C7.8712 29.3189 7.86005 29.1355 7.89224 28.9568C8.01483 28.2623 8.29035 27.6362 8.79495 27.1209C8.89896 27.0149 8.97945 26.9253 8.93611 26.7503C8.68536 25.733 9.03703 24.852 9.63573 24.0472C9.86048 23.7457 10.0995 23.4423 10.4326 23.2352C10.5112 23.1862 10.5867 23.1329 10.6623 23.0802C11.0814 22.7908 11.5185 22.9143 11.8287 23.1922C12.0764 23.4138 12.2621 23.6821 12.3717 23.9988C12.5011 24.3712 12.5451 24.7587 12.5995 25.1662V25.1656Z" fill="#0D1016"/>
<path d="M10.3382 24.8102C9.99708 25.3812 9.92031 26.0757 10.0324 26.7218C10.0683 26.9186 9.77605 26.9774 9.73085 26.7824L9.70361 26.6474C9.63179 26.2859 9.64789 25.9074 9.73271 25.5489C9.81505 25.2322 9.9395 24.9307 10.1469 24.6691C10.2447 24.5534 10.4243 24.6867 10.3382 24.8102Z" fill="#555A63"/>
<path d="M11.3946 25.8258C11.1637 26.1625 11.0566 26.5694 11.0336 26.9715C11.0262 27.0544 10.9513 27.115 10.8665 27.1077C10.6962 27.0884 10.7241 26.9073 10.7272 26.785C10.7451 26.4913 10.8374 26.2025 10.9928 25.9506C11.0584 25.8452 11.1247 25.7562 11.2175 25.6666C11.2652 25.6218 11.3414 25.623 11.3872 25.6696C11.4305 25.7132 11.4305 25.7798 11.394 25.8258H11.3946Z" fill="#555A63"/>
<path d="M9.53927 28.1619C9.31204 28.785 9.36653 29.4814 9.59871 30.096C9.67114 30.2831 9.39501 30.3933 9.3139 30.2098L9.2619 30.0821C9.12321 29.7393 9.06811 29.3651 9.08358 28.9969C9.10463 28.6706 9.17026 28.3515 9.32505 28.0572C9.40058 27.9264 9.59994 28.0233 9.53989 28.1613L9.53927 28.1619Z" fill="#555A63"/>
<path d="M10.7696 28.9691C10.6514 29.2428 10.5975 29.5504 10.6068 29.8483C10.6068 29.9488 10.6198 30.0487 10.6297 30.1499C10.6433 30.2358 10.5814 30.317 10.4923 30.3249C10.3214 30.337 10.3146 30.1535 10.2948 30.0324C10.257 29.7405 10.2935 29.4396 10.3988 29.1647C10.444 29.049 10.4916 28.9497 10.5666 28.845C10.605 28.7923 10.6799 28.7802 10.7337 28.8177C10.7845 28.8528 10.7969 28.9182 10.7696 28.9697V28.9691Z" fill="#555A63"/>
<path d="M9.04318 31.5425C8.81595 32.1656 8.87044 32.862 9.10261 33.4766C9.17505 33.6637 8.89892 33.7739 8.81781 33.5904L8.7658 33.4627C8.62711 33.1199 8.57201 32.7457 8.58749 32.3776C8.60854 32.0512 8.67479 31.7321 8.82895 31.4378C8.90449 31.307 9.10447 31.4039 9.04379 31.5419L9.04318 31.5425Z" fill="#555A63"/>
<path d="M10.2736 32.3497C10.1553 32.6234 10.1014 32.931 10.1107 33.2289C10.1107 33.3294 10.1237 33.4294 10.1336 33.5305C10.1472 33.6165 10.0853 33.6976 9.99618 33.7055C9.82529 33.7176 9.81848 33.5341 9.79867 33.413C9.7609 33.1211 9.79743 32.8202 9.90269 32.5453C9.94788 32.4296 9.99556 32.3303 10.0705 32.2256C10.1089 32.1729 10.1838 32.1608 10.2376 32.1983C10.2884 32.2334 10.3008 32.2988 10.2736 32.3503V32.3497Z" fill="#555A63"/>
<path d="M8.36382 34.5774C9.21699 34.7694 10.137 34.664 10.9215 34.2837C11.0001 34.2425 11.0998 34.2728 11.1363 34.3534C11.1704 34.4266 11.1388 34.5132 11.0664 34.5495L10.9066 34.6295C10.5333 34.8123 10.1178 34.9183 9.7024 34.9522C9.22257 34.9904 8.75017 34.9504 8.28891 34.8002C8.22638 34.779 8.19294 34.7124 8.21461 34.6513C8.23566 34.5901 8.30315 34.5586 8.36444 34.5774H8.36382Z" fill="#D1883A"/>
<path d="M10.6974 35.7218C11.3388 36.7639 11.4701 38.1451 10.8435 39.2224C10.8026 39.295 10.7085 39.3217 10.6342 39.2817C10.5606 39.2424 10.5339 39.1521 10.5717 39.0801C10.6342 38.9547 10.6943 38.8282 10.7401 38.6962C11.0404 37.9017 10.9704 37.0116 10.6658 36.2274C10.615 36.0936 10.555 35.958 10.4894 35.8381C10.42 35.7055 10.6132 35.5947 10.6974 35.7212V35.7218Z" fill="#555A63"/>
<path d="M9.60975 35.6917C9.86669 35.9841 10.0196 36.3414 10.0741 36.7198C10.0927 36.8452 10.0939 36.973 10.0852 37.0989C10.0797 37.1819 10.0066 37.2448 9.92179 37.2394C9.83945 37.2345 9.77753 37.1667 9.77753 37.088C9.77196 36.9784 9.76887 36.87 9.75091 36.7622C9.70819 36.4413 9.59179 36.1149 9.42277 35.8388C9.33671 35.7177 9.50883 35.5833 9.60975 35.6917Z" fill="#555A63"/>
<path d="M23.1503 25.1802C23.0444 25.437 22.8704 25.6665 22.6346 25.8215C22.1683 26.1285 21.4935 26.0643 21.0985 25.6731C21.0849 25.6604 21.0353 25.5938 21.0322 25.5532C21.117 25.4866 21.2112 25.4249 21.309 25.3679C21.3529 25.3728 21.387 25.4152 21.4161 25.4412C21.4557 25.4794 21.4972 25.5121 21.5455 25.5387C21.6353 25.5896 21.7399 25.621 21.8408 25.6338C22.1448 25.6743 22.4253 25.5314 22.603 25.2929C22.7931 25.0379 22.8643 24.7061 22.8191 24.3967C22.7658 24.0346 22.5497 23.7191 22.2389 23.5193C22.073 23.4121 21.8656 23.2771 22.0581 23.1862C22.455 22.9973 23.6215 24.0467 23.1509 25.1808L23.1503 25.1802Z" fill="#FFE9AC"/>
<path d="M9.86945 25.1802C9.97532 25.437 10.1493 25.6665 10.3852 25.8215C10.8514 26.1285 11.5263 26.0643 11.9213 25.6731C11.9349 25.6604 11.9844 25.5938 11.9875 25.5532C11.9027 25.4866 11.8086 25.4249 11.7108 25.3679C11.6668 25.3728 11.6327 25.4152 11.6036 25.4412C11.564 25.4794 11.5225 25.5121 11.4742 25.5387C11.3845 25.5896 11.2798 25.621 11.1789 25.6338C10.8749 25.6743 10.5945 25.5314 10.4168 25.2929C10.2267 25.0379 10.1555 24.7061 10.2007 24.3967C10.2539 24.0346 10.47 23.7191 10.7808 23.5193C10.9467 23.4121 11.1542 23.2771 10.9616 23.1862C10.5647 22.9973 9.39828 24.0467 9.86883 25.1808L9.86945 25.1802Z" fill="#FFE9AC"/>
<path d="M21.1614 25.6084C20.4352 26.7638 18.7177 28.4175 16.5216 28.4423H16.4795C14.284 28.4175 12.5666 26.7638 11.8397 25.6084C10.5098 23.4927 10.8107 19.2928 11.7895 17.2812C12.7362 15.3363 14.4432 14.3057 16.4795 14.2621C16.4875 14.2603 16.4937 14.2603 16.5018 14.2603C16.508 14.2603 16.516 14.2603 16.5216 14.2621C18.5579 14.3057 20.2655 15.3363 21.2116 17.2812C22.1904 19.2928 22.4913 23.4927 21.1608 25.6084H21.1614Z" fill="#F8A384"/>
<path d="M18.1172 19.6337C18.1265 18.9991 19.7301 19.1705 19.6508 19.8111C19.5833 20.3531 18.1098 20.1508 18.1172 19.6337Z" fill="#0D1016"/>
<path d="M13.3556 19.8182C13.2138 19.1987 14.8143 19.0007 14.8892 19.642C14.9523 20.1845 13.4707 20.3232 13.3556 19.8182Z" fill="#0D1016"/>
<path d="M16.941 20.3869C17.1088 20.9536 17.2073 21.5144 17.2915 22.0938C17.3955 22.7024 17.1713 23.1723 16.5051 23.2637C16.3566 23.2849 16.1882 23.3122 16.0346 23.2879C15.8352 23.2607 15.8315 22.9815 16.0278 22.9482C16.0835 22.9379 16.1659 22.9289 16.2185 22.9125C16.4822 22.8398 16.8389 22.8326 16.876 22.5104C16.9206 22.2634 16.7986 21.5513 16.7819 21.2921L16.7318 20.8676C16.7163 20.7247 16.6971 20.5818 16.6773 20.4444C16.6568 20.2839 16.8909 20.2325 16.9416 20.3875L16.941 20.3869Z" fill="#CC7A66"/>
<path d="M19.5965 21.1171C19.3451 21.6263 18.7334 21.6566 18.3409 21.283C18.162 21.1238 18.3613 20.8482 18.5731 20.9572C18.6969 21.0269 18.8368 21.1207 18.9792 21.1232C19.0857 21.1292 19.2027 21.0638 19.2826 20.9924C19.3086 20.9651 19.3445 20.9433 19.3736 20.9251C19.5024 20.841 19.664 20.9833 19.5959 21.1171H19.5965Z" fill="#0D1016"/>
<path d="M14.8602 21.1136C14.6088 21.6228 13.9971 21.6531 13.6046 21.2801C13.4256 21.1208 13.625 20.8453 13.8367 20.9543C13.9606 21.0239 14.1005 21.1178 14.2429 21.1202C14.3494 21.1263 14.4664 21.0609 14.5463 20.9894C14.5723 20.9622 14.6082 20.9404 14.6373 20.9222C14.7661 20.838 14.9277 20.9803 14.8596 21.1142L14.8602 21.1136Z" fill="#0D1016"/>
<path d="M17.6574 25.2281C17.5311 25.3807 17.3744 25.4909 17.206 25.5647C16.5931 25.8372 15.8093 25.6356 15.4322 25.1518C15.4204 25.1372 15.4087 25.1233 15.4006 25.1058C15.3034 24.9689 15.2316 24.8109 15.2 24.6425C15.1685 24.4748 15.1672 24.2187 15.3059 24.1054C15.4464 23.994 15.6359 23.9656 15.7857 24.0643C15.86 24.1127 15.938 24.1684 16.0099 24.2277C16.2947 24.453 16.6253 24.5535 17.0104 24.5299C17.1348 24.5214 17.2686 24.5136 17.3949 24.5311C17.7465 24.5814 17.8883 24.9514 17.6568 25.2281H17.6574Z" fill="#0D1016"/>
<path d="M13.9507 15.8611C13.978 17.0921 13.5997 18.1596 12.975 19.1533C12.1565 20.4546 10.5777 21.8939 9.50966 20.81C7.46837 18.7373 9.39388 15.6394 11.2631 14.2927C11.6222 14.0342 12.0246 13.878 12.4592 13.7829C13.0251 13.6594 13.5384 14.0142 13.7074 14.4587C13.8851 14.9267 13.9848 15.4069 13.9514 15.8605L13.9507 15.8611Z" fill="#0D1016"/>
<path d="M18.9908 12.225C20.0285 12.6125 20.7491 12.9819 21.8215 14.2408C23.9519 16.7422 23.9278 19.8704 23.0536 20.9306C22.5434 21.5495 21.2742 21.449 20.3739 20.0133C19.6848 18.913 19.5957 18.365 19.4229 18.2245C19.3257 18.3656 19.1598 18.9372 18.4781 18.9348C17.1018 18.9306 16.4988 17.7668 16.3248 17.8315C16.2753 17.8503 16.2914 17.9642 16.2827 18.0471C16.2102 18.7762 15.5187 19.1213 14.7268 18.6284C13.9374 18.1367 13.6216 17.4289 13.2378 16.6913C11.7902 13.9132 15.2122 10.8159 18.9902 12.225H18.9908Z" fill="#0D1016"/>
<path d="M13.1289 14.1723C13.062 14.9341 12.8899 16.807 13.4465 17.3604C13.5988 17.4918 13.4069 17.7152 13.2477 17.5905C12.7846 17.1775 12.7617 16.4303 12.7413 15.8654C12.7388 15.2835 12.7908 14.7106 12.8917 14.1378C12.9215 13.99 13.145 14.0215 13.1289 14.1723Z" fill="#555A63"/>
<path d="M13.7638 13.8811C15.2473 13.0594 17.083 12.7918 18.7188 13.3125C19.8636 13.6849 20.8975 14.4019 21.5835 15.3774C22.576 16.8004 22.8571 18.6048 22.6138 20.2894C22.576 20.4814 22.2856 20.442 22.3098 20.2428C22.3513 19.9806 22.3705 19.7008 22.3773 19.4277C22.4299 17.4392 21.7408 15.4331 20.0091 14.2753C18.6668 13.3537 17.0255 13.1103 15.4429 13.5002C14.9055 13.6292 14.3718 13.8187 13.8889 14.0815C13.7558 14.1603 13.6264 13.9677 13.7638 13.8811Z" fill="#555A63"/>
<path d="M14.0754 14.9128C16.4764 14.0596 19.2544 14.2915 20.3218 16.8844C20.3732 17.0291 20.4648 17.2362 20.4989 17.3846C20.5751 17.6274 20.6333 17.9053 20.684 18.1536C20.7212 18.354 20.4184 18.4097 20.3806 18.2069C19.9596 15.9567 18.5728 14.6639 16.1829 14.762C15.5012 14.7905 14.8059 14.9164 14.162 15.1314C14.0165 15.1859 13.9249 14.9728 14.0747 14.9128H14.0754Z" fill="#555A63"/>
<path d="M14.3906 16.2306C15.9279 15.7141 17.8119 15.903 18.4001 17.6088C18.4286 17.6869 18.3871 17.7735 18.3072 17.8013C18.2274 17.8298 18.1395 17.7886 18.1104 17.7111C18.0423 17.5494 17.9704 17.389 17.872 17.2467C17.1767 16.1355 15.6208 16.1319 14.4692 16.4522C14.32 16.4994 14.2414 16.2857 14.3906 16.2306Z" fill="#555A63"/>
<path d="M11.7109 15.0709C10.8175 16.2777 10.0337 17.8926 10.043 19.4028C10.0473 19.6232 10.0684 19.843 10.1092 20.0592C10.1266 20.1416 10.0708 20.2227 9.98664 20.2378C9.9043 20.253 9.82505 20.2003 9.80771 20.1198C9.70617 19.6523 9.69936 19.1703 9.76189 18.6986C9.89253 17.7643 10.2591 16.8844 10.7302 16.07C10.9649 15.6716 11.22 15.2822 11.5196 14.9274C11.6274 14.7808 11.8335 14.9334 11.7109 15.0709Z" fill="#555A63"/>
<path d="M12.1785 16.9322C11.6435 17.7521 11.147 18.6834 11.1414 19.6753C11.1458 19.8715 10.8517 19.8878 10.8337 19.691C10.8003 19.1497 10.9526 18.6235 11.1668 18.1348C11.3854 17.6534 11.6547 17.2071 11.9872 16.7911C12.028 16.7403 12.1036 16.7312 12.1556 16.7718C12.2063 16.8111 12.2156 16.882 12.1785 16.9328V16.9322Z" fill="#555A63"/>
</g>
</svg>
