<svg width="355" height="354" viewBox="0 0 355 354" fill="none" xmlns="http://www.w3.org/2000/svg">
<path d="M177.5 0L184.004 139.023L235.297 9.64453L196.308 143.247L286.83 37.533L206.573 151.237L326.516 80.6432L213.688 162.127L350.053 134.304L216.881 174.737L354.892 192.699L215.807 187.701L340.508 249.502L210.581 199.613L308.459 298.556L201.771 209.184L262.219 334.546L190.331 215.375L206.798 353.572L177.5 217.516L148.202 353.572L164.669 215.375L92.7814 334.546L153.229 209.184L46.5411 298.556L144.419 199.613L14.4924 249.502L139.193 187.701L0.107956 192.699L138.119 174.737L4.94675 134.304L141.312 162.127L28.4844 80.6432L148.427 151.237L68.1701 37.533L158.692 143.247L119.703 9.64453L170.996 139.023L177.5 0Z" fill="url(#paint0_diamond_1555_22662)"/>
<defs>
<radialGradient id="paint0_diamond_1555_22662" cx="0" cy="0" r="1" gradientUnits="userSpaceOnUse" gradientTransform="translate(177.5 178) rotate(89.661) scale(84.5015)">
<stop stop-color="#DDED95" stop-opacity="0.5"/>
<stop offset="1" stop-color="#DDED95" stop-opacity="0.1"/>
</radialGradient>
</defs>
</svg>
