<svg width="224" height="188" viewBox="0 0 224 188" fill="none" xmlns="http://www.w3.org/2000/svg">
<g clip-path="url(#clip0_2024_247708)">
<path d="M180.171 89.9456C180.171 89.9456 179.905 90.4718 179.133 91.1781C178.371 91.8702 176.986 92.7235 175.076 92.8088C174.133 92.8468 173.076 92.6998 172.057 92.2352C171.052 91.7659 170.057 91.0311 169.343 89.993C168.976 89.4857 168.681 88.9026 168.476 88.2769C168.262 87.6559 168.143 86.9875 168.133 86.3048C168.09 84.9396 168.524 83.5174 169.357 82.3275C170.209 81.1519 171.409 80.2701 172.719 79.8577C173.367 79.6349 174.043 79.5259 174.7 79.5211C175.357 79.5069 176.009 79.5875 176.609 79.7629C177.833 80.0853 178.857 80.7774 179.638 81.5643C180.419 82.3654 180.909 83.3088 181.186 84.2048C181.738 86.0299 181.39 87.6132 180.99 88.5566C180.576 89.5189 180.167 89.9408 180.167 89.9408C180.129 89.9171 180.49 89.462 180.852 88.4997C181.205 87.5611 181.495 86.0204 180.933 84.2806C180.652 83.4226 180.167 82.5266 179.414 81.7776C178.662 81.0334 177.681 80.3886 176.519 80.09C175.948 79.9241 175.329 79.8577 174.705 79.8719C174.081 79.8814 173.443 79.9857 172.829 80.199C171.59 80.5972 170.462 81.4268 169.657 82.5408C168.871 83.6644 168.462 85.0012 168.495 86.2953C168.495 86.9401 168.609 87.5753 168.809 88.1631C169 88.7557 169.271 89.3103 169.619 89.7939C170.286 90.7846 171.224 91.491 172.181 91.9508C173.143 92.4106 174.152 92.5623 175.057 92.5434C176.89 92.4912 178.257 91.709 179.029 91.0643C179.814 90.4054 180.129 89.9124 180.162 89.9408L180.171 89.9456Z" fill="#E0E0E0"/>
<path d="M184.605 97.4314C184.605 97.4314 184.676 97.4504 184.824 97.5073C184.981 97.5689 185.195 97.6543 185.471 97.7585C186.062 97.9956 186.919 98.3369 188.024 98.7778L187.952 98.7967C188.843 97.5263 190.019 95.8529 191.438 93.8334V93.9519C190.695 93.1318 189.867 92.2169 188.976 91.2403L188.933 91.1929L188.957 91.1313C189.386 89.9746 189.695 88.6852 189.814 87.3057V87.2298L189.89 87.2014C190.948 86.7605 192.095 86.2865 193.286 85.7934L193.205 85.9404C192.876 84.0584 192.528 82.0674 192.162 79.9721L192.3 80.0953C191.162 80.0384 189.909 79.9721 188.624 79.9057H188.528L188.49 79.8156C187.981 78.7111 187.276 77.5591 186.395 76.5115L186.333 76.4356L186.371 76.3456C186.805 75.2979 187.286 74.1412 187.776 72.9608L187.833 73.1599C186.271 72.0649 184.586 70.8797 182.862 69.6662L183.081 69.6519C182.228 70.4152 181.295 71.2542 180.348 72.1028L180.267 72.1739L180.167 72.136C179.014 71.7093 177.7 71.3965 176.343 71.2779L176.233 71.2685L176.19 71.1689C175.748 70.107 175.267 68.9551 174.781 67.7842L174.981 67.8932C173.081 68.2156 171.048 68.5664 168.981 68.9172L169.133 68.7465C169.071 69.9032 169.005 71.1499 168.938 72.4062V72.52L168.828 72.5674C167.695 73.0793 166.548 73.7857 165.514 74.6437C165.428 74.6579 165.705 74.6153 165.324 74.6722H165.319H165.305L165.276 74.6579L165.224 74.6342L165.119 74.5916L164.905 74.5015L164.476 74.3261L163.624 73.9753C163.057 73.743 162.49 73.506 161.928 73.2737L162.152 73.2073C160.962 74.8807 159.79 76.5257 158.633 78.1517L158.619 77.9194C159.448 78.8343 160.267 79.7445 161.076 80.6405L161.152 80.7211L161.114 80.8254C160.652 82.0626 160.362 83.3473 160.248 84.632L160.238 84.741L160.138 84.7837C158.99 85.2578 157.857 85.7223 156.738 86.1822L156.848 85.9878C157.195 88.0262 157.538 90.0173 157.867 91.9609L157.705 91.8187C158.952 91.885 160.176 91.9514 161.376 92.0178H161.476L161.519 92.1173C162.076 93.3309 162.786 94.4449 163.605 95.4262L163.667 95.5021L163.628 95.5921C163.143 96.7488 162.671 97.8723 162.214 98.9721L162.162 98.7872C163.905 100.025 165.552 101.186 167.124 102.3L166.943 102.309C167.905 101.451 168.809 100.646 169.686 99.8681L169.748 99.8159L169.824 99.8444C171.138 100.333 172.424 100.603 173.657 100.721H173.733L173.762 100.797C174.267 102.03 174.724 103.139 175.157 104.187L175.038 104.12C177.362 103.736 179.343 103.405 181.043 103.125L180.971 103.201C181.057 101.741 181.128 100.541 181.19 99.5457V99.5078L181.224 99.4936C182.443 98.9437 183.271 98.3938 183.814 98.0193C184.071 97.8344 184.267 97.6874 184.409 97.5832C184.543 97.4789 184.609 97.4362 184.609 97.4409C184.609 97.4457 184.548 97.5026 184.428 97.6068C184.305 97.7111 184.114 97.8723 183.852 98.0667C183.324 98.4601 182.5 99.029 181.276 99.5979L181.309 99.5457C181.262 100.546 181.205 101.741 181.138 103.205V103.272L181.067 103.281C179.371 103.575 177.395 103.921 175.071 104.329L174.986 104.343L174.952 104.263C174.514 103.22 174.048 102.11 173.533 100.883L173.638 100.958C172.381 100.849 171.076 100.579 169.733 100.091L169.871 100.067C169.005 100.849 168.105 101.66 167.143 102.523L167.057 102.599L166.962 102.532C165.39 101.428 163.738 100.271 161.986 99.0432L161.886 98.9721L161.933 98.8583C162.39 97.7585 162.852 96.635 163.333 95.4736L163.357 95.6395C162.514 94.6393 161.786 93.5016 161.214 92.2643L161.357 92.3638C160.152 92.3022 158.928 92.2358 157.686 92.1742L157.548 92.1647L157.524 92.0272C157.186 90.0884 156.843 88.0973 156.49 86.0589L156.467 85.9167L156.6 85.8646C157.719 85.4047 158.848 84.9354 160 84.4614L159.89 84.6131C160.009 83.2999 160.3 81.9821 160.776 80.7116L160.809 80.8965C160 80.0005 159.176 79.0903 158.348 78.1754L158.248 78.0664L158.333 77.9479C159.49 76.3219 160.662 74.6722 161.848 72.9988L161.933 72.8755L162.071 72.9324C162.633 73.1647 163.2 73.397 163.767 73.6292L164.619 73.98L165.048 74.1554L165.262 74.2455L165.367 74.2882L165.419 74.3119L165.448 74.3214H165.462L165.467 74.3308C165.086 74.3925 165.362 74.3498 165.276 74.3593C166.333 73.4775 167.509 72.757 168.671 72.2308L168.562 72.392C168.628 71.1357 168.695 69.889 168.757 68.737L168.767 68.5901L168.914 68.5664C170.976 68.2156 173.014 67.8695 174.914 67.5471L175.057 67.5234L175.114 67.6562C175.6 68.8223 176.081 69.979 176.519 71.0409L176.367 70.9319C177.752 71.0551 179.105 71.3775 180.281 71.8184L180.1 71.8515C181.048 71.003 181.986 70.1687 182.838 69.4054L182.943 69.3106L183.057 69.3912C184.781 70.6095 186.462 71.7947 188.019 72.8992L188.128 72.975L188.076 73.0983C187.586 74.274 187.1 75.4306 186.662 76.4783L186.638 76.3124C187.538 77.3837 188.252 78.5641 188.767 79.6924L188.633 79.6023C189.919 79.6734 191.171 79.7398 192.305 79.8062H192.424L192.443 79.9294C192.8 82.0247 193.138 84.0205 193.457 85.9025L193.476 86.0068L193.376 86.0447C192.181 86.533 191.033 87.0023 189.971 87.4337L190.048 87.3294C189.914 88.7326 189.595 90.041 189.152 91.2071L189.133 91.0981C190.014 92.0841 190.838 93.0038 191.581 93.8286L191.633 93.8855L191.59 93.9472C190.148 95.9524 188.952 97.6116 188.048 98.8726L188.019 98.9105L187.976 98.8915C186.89 98.427 186.052 98.0714 185.467 97.8249C185.19 97.7064 184.981 97.6116 184.819 97.5405C184.671 97.4741 184.6 97.4409 184.6 97.4362L184.605 97.4314Z" fill="#EBEBEA"/>
<path fill-rule="evenodd" clip-rule="evenodd" d="M178.762 52.3404C177.305 53.554 175.705 54.5447 174.014 55.3174L173.738 60.4894L165.257 61.9352L163.267 57.152C161.419 56.9861 159.576 56.5784 157.795 55.9195L153.929 59.3801L146.905 54.431L148.895 49.6478C147.676 48.1972 146.676 46.6043 145.905 44.9215L140.709 44.6465L139.257 36.2036L144.062 34.2221C144.229 32.3827 144.638 30.5482 145.305 28.7752L141.829 24.9259L146.8 17.9336L151.605 19.9151C153.062 18.7016 154.662 17.7108 156.352 16.9381L156.629 11.7662L165.109 10.3203L167.1 15.1035C168.948 15.2694 170.79 15.6771 172.571 16.336L176.438 12.8755L183.462 17.8246L181.471 22.603C182.69 24.0536 183.69 25.6465 184.462 27.3293L189.657 27.6043L191.109 36.0472L186.305 38.0287C186.138 39.868 185.729 41.7026 185.067 43.4756L188.543 47.3249L183.571 54.3172L178.767 52.3356L178.762 52.3404ZM172.495 41.75C175.438 37.6068 174.452 31.8708 170.29 28.9411C166.128 26.0115 160.367 26.9928 157.424 31.136C154.481 35.2792 155.467 41.0153 159.629 43.9449C163.79 46.8745 169.552 45.8933 172.495 41.75Z" fill="#EBEBEA"/>
<path fill-rule="evenodd" clip-rule="evenodd" d="M72.2381 50.7867C73.4666 52.0903 74.4952 53.541 75.3143 55.0864L80.2285 55.0674L82.0571 62.9557L77.6285 65.0794C77.5714 66.8239 77.2857 68.5779 76.7523 70.2845L80.2428 73.7309L75.9285 80.5952L71.2905 78.9834C69.9809 80.2064 68.5238 81.2304 66.9714 82.0458L66.9904 86.938L59.0666 88.7584L56.9285 84.3497C55.1762 84.2928 53.4143 84.0036 51.7 83.4774L48.2381 86.9522L41.3428 82.6573L42.9619 78.04C41.7333 76.7364 40.7047 75.2858 39.8857 73.7404L34.9666 73.7593L33.1381 65.8711L37.5666 63.7473C37.6238 62.0028 37.9143 60.2488 38.4428 58.5422L34.9571 55.0958L39.2714 48.2316L43.9095 49.8433C45.219 48.6203 46.6762 47.5963 48.2285 46.781L48.2095 41.8887L56.1333 40.0684L58.2714 44.4771C60.0238 44.5339 61.7857 44.8231 63.5 45.3493L66.9619 41.8792L73.8571 46.1742L72.2381 50.7914V50.7867ZM62.5381 57.2433C58.4524 54.7024 53.0714 55.9349 50.5143 60.0023C47.9571 64.0697 49.2 69.4265 53.2857 71.9721C57.3714 74.5178 62.7523 73.2805 65.3095 69.2132C67.8666 65.1458 66.6238 59.789 62.5381 57.2433Z" fill="#EBEBEA"/>
<path fill-rule="evenodd" clip-rule="evenodd" d="M77.0286 17.6023C77.7095 18.3228 78.2762 19.1287 78.7334 19.982L81.4572 19.9725L82.4667 24.3386L80.0143 25.5142C79.981 26.4813 79.8238 27.4484 79.5286 28.3965L81.4619 30.3022L79.0762 34.1041L76.5096 33.2128C75.7857 33.8907 74.9762 34.4549 74.1191 34.91L74.1286 37.6215L69.7429 38.6265L68.5619 36.1852C67.5905 36.152 66.6191 35.9955 65.6667 35.7016L63.7524 37.6263L59.9334 35.2513L60.8286 32.6961C60.1476 31.9756 59.581 31.1697 59.1238 30.3164L56.4 30.3259L55.3905 25.9598L57.8429 24.7842C57.8762 23.8171 58.0334 22.85 58.3286 21.9019L56.4 19.9962L58.7857 16.1943L61.3524 17.0856C62.0762 16.4077 62.8857 15.8435 63.7429 15.3885L63.7334 12.6769L68.1191 11.6719L69.3 14.1132C70.2715 14.1464 71.2429 14.3029 72.1953 14.5968L74.1096 12.6721L77.9286 15.0471L77.0334 17.6023H77.0286ZM71.6572 21.1766C69.3953 19.7687 66.4143 20.4513 65 22.7031C63.5857 24.9548 64.2715 27.9224 66.5334 29.3304C68.7953 30.7383 71.7762 30.0557 73.1905 27.8039C74.6048 25.5522 73.9191 22.5846 71.6572 21.1766Z" fill="#EBEBEA"/>
<path d="M38.8476 25.6742C38.8476 25.6742 38.9285 25.7073 39.0666 25.7974C39.2095 25.8827 39.4047 26.0297 39.6285 26.2478C40.0714 26.6792 40.6333 27.4756 40.7523 28.6133C40.8095 29.1727 40.7523 29.8126 40.5095 30.4337C40.2618 31.0499 39.8523 31.6709 39.2523 32.1308C38.9571 32.3678 38.619 32.5622 38.2476 32.7044C37.8809 32.8561 37.4809 32.9461 37.0714 32.9746C36.2476 33.0457 35.3761 32.8371 34.6333 32.382C33.8952 31.9127 33.3238 31.2253 33.0285 30.4574C32.8714 30.0781 32.7857 29.6799 32.7571 29.2864C32.7238 28.893 32.7523 28.5043 32.838 28.1345C32.9904 27.395 33.3714 26.755 33.819 26.2667C34.2761 25.7737 34.8285 25.4466 35.3571 25.2523C36.438 24.8635 37.4047 25.0152 37.9857 25.2238C38.2809 25.3281 38.4999 25.4371 38.638 25.5272C38.7761 25.6125 38.8476 25.6647 38.8428 25.6694C38.8285 25.6931 38.5428 25.494 37.9523 25.3139C37.3761 25.1385 36.4428 25.02 35.4142 25.4134C34.9095 25.6125 34.3904 25.9301 33.9666 26.4042C33.5476 26.8783 33.1904 27.485 33.0571 28.1819C32.9809 28.528 32.9571 28.8977 32.9904 29.2675C33.019 29.6372 33.1047 30.0117 33.2523 30.3673C33.5333 31.0878 34.0714 31.7326 34.7618 32.1734C35.4618 32.6001 36.2761 32.7992 37.0523 32.7328C37.438 32.7091 37.8142 32.6238 38.1618 32.4816C38.5095 32.3488 38.8333 32.1687 39.1095 31.9459C39.6809 31.5192 40.0761 30.9361 40.319 30.3531C40.5618 29.7652 40.619 29.1585 40.5761 28.6228C40.4857 27.5324 39.9666 26.7503 39.5571 26.3094C39.138 25.8638 38.8285 25.6931 38.8476 25.6694V25.6742Z" fill="#E0E0E0"/>
<path d="M43.2 22.7781C43.2 22.7781 43.2095 22.7354 43.2381 22.6454C43.2714 22.5458 43.3143 22.4178 43.3667 22.2519C43.4905 21.8869 43.6619 21.3702 43.8905 20.6923L43.9048 20.7397C43.1095 20.2514 42.0619 19.6114 40.8 18.834L40.8762 18.8245C40.4095 19.2985 39.8857 19.8247 39.3286 20.3889L39.3 20.4221L39.2571 20.4078C38.5476 20.1945 37.7619 20.0523 36.9286 20.0286H36.8809L36.8571 19.9812C36.5571 19.3649 36.2333 18.7012 35.8905 18.0044L35.9905 18.0518C34.8714 18.3125 33.6857 18.5875 32.4381 18.8766L32.5143 18.7818C32.5143 19.4597 32.5238 20.2087 32.5286 20.9767V21.0383L32.4762 21.0668C31.8286 21.4081 31.1619 21.8679 30.5619 22.4273L30.5143 22.47L30.4524 22.451C29.8048 22.2282 29.0952 21.9817 28.3714 21.7304L28.5 21.683C27.8952 22.6501 27.2381 23.693 26.5714 24.7644L26.5571 24.6222C27.0429 25.101 27.5809 25.6319 28.1238 26.1676L28.1762 26.2197L28.1571 26.2861C27.9429 26.9877 27.7952 27.7794 27.7714 28.59V28.6611L27.7048 28.6943C27.0809 28.9929 26.4048 29.32 25.719 29.6471L25.7857 29.5097C26.0476 30.6284 26.3238 31.8325 26.6048 33.0508L26.4857 32.956C27.1809 32.956 27.9333 32.9513 28.6905 32.9465H28.7667L28.8 33.0129C29.1476 33.6718 29.6095 34.3308 30.1571 34.9139C30.1714 34.9707 30.1333 34.7906 30.1857 35.0371V35.0418V35.0513L30.1762 35.0656L30.1667 35.0987L30.1428 35.1651L30.0952 35.2978L30.0048 35.5586L29.8238 36.08C29.7048 36.4261 29.5809 36.7721 29.4619 37.1135L29.4095 36.9665C30.4571 37.616 31.4857 38.2607 32.5048 38.8912L32.3524 38.9101C32.8762 38.3839 33.3952 37.8672 33.9048 37.3552L33.9571 37.3031L34.0286 37.3268C34.7857 37.5591 35.5667 37.6871 36.3429 37.7155H36.4143L36.4476 37.7819C36.7714 38.4503 37.0905 39.1092 37.4048 39.7587L37.2714 39.6971C38.4857 39.4221 39.6714 39.1472 40.8286 38.8864L40.7381 38.9955C40.7381 38.2512 40.7381 37.5211 40.7333 36.8006V36.7342L40.7905 36.701C41.5 36.3313 42.1429 35.8714 42.7048 35.3452L42.7524 35.3026L42.8143 35.3263C43.5286 35.5775 44.219 35.8193 44.8952 36.0516L44.7762 36.0942C45.4571 35.0134 46.1048 33.9895 46.719 33.0176L46.7333 33.1362C46.1857 32.591 45.6714 32.079 45.1714 31.586L45.1333 31.5481L45.1476 31.4959C45.3952 30.6948 45.5143 29.9221 45.5429 29.1826V29.1351L45.5905 29.1162C46.3143 28.7701 46.9667 28.462 47.5809 28.1681L47.5429 28.2487C47.2333 26.8787 46.9667 25.7077 46.7429 24.7075L46.7952 24.7502C45.9143 24.7502 45.1905 24.7454 44.5905 24.7407H44.5667L44.5571 24.7217C44.1857 24.0154 43.8286 23.5366 43.5857 23.2284C43.4667 23.0815 43.3714 22.9725 43.3048 22.8871C43.2381 22.8113 43.2095 22.7734 43.2143 22.7734C43.2143 22.7734 43.2524 22.8065 43.319 22.8729C43.3857 22.944 43.4905 23.0483 43.6143 23.2C43.8667 23.5034 44.2381 23.9727 44.6238 24.679L44.5905 24.6601C45.1952 24.6553 45.9143 24.6459 46.7952 24.6364H46.8381L46.8476 24.679C47.0857 25.6793 47.3619 26.8455 47.6857 28.2155L47.7 28.2724L47.6476 28.2961C47.0333 28.5947 46.3857 28.9076 45.6667 29.2584L45.7143 29.1873C45.6905 29.941 45.5762 30.728 45.3238 31.5481L45.3 31.458C45.8 31.951 46.319 32.4583 46.8667 32.9987L46.919 33.0508L46.8809 33.1172C46.2714 34.0937 45.6333 35.1177 44.9524 36.1985L44.9095 36.2696L44.8333 36.2412C44.1571 36.0089 43.4667 35.7672 42.7524 35.5206L42.8619 35.4969C42.2905 36.0326 41.6286 36.5067 40.9048 36.8907L40.9619 36.7911C40.9619 37.5117 40.9714 38.2417 40.9714 38.986V39.076L40.8809 39.095C39.7238 39.3605 38.5381 39.6354 37.3286 39.9151L37.2381 39.9341L37.1952 39.8487C36.8809 39.1993 36.5619 38.5404 36.2333 37.8719L36.3381 37.9383C35.5428 37.9146 34.7381 37.7819 33.9619 37.5448L34.0857 37.5164C33.5714 38.0331 33.0571 38.5498 32.5333 39.076L32.4619 39.1472L32.3809 39.095C31.3619 38.4645 30.3333 37.8198 29.2857 37.1704L29.2 37.1182L29.2333 37.0234C29.3524 36.6821 29.4762 36.336 29.5952 35.99L29.7762 35.4685L29.8667 35.2078L29.9143 35.075L29.9381 35.0087L29.9476 34.9755V34.9613L29.9571 34.9518V34.947C30.0095 35.1983 29.9714 35.0181 29.9857 35.0703C29.419 34.4682 28.9429 33.7903 28.5905 33.1172L28.7 33.1836C27.9429 33.1836 27.1905 33.1883 26.4952 33.193H26.3952L26.3714 33.0982C26.0905 31.8799 25.8143 30.6806 25.5524 29.5571L25.5286 29.4622L25.6143 29.4196C26.3 29.0925 26.9809 28.7654 27.6 28.4667L27.5333 28.571C27.5619 27.7367 27.7095 26.9213 27.9333 26.2055L27.9619 26.324C27.419 25.7883 26.8857 25.2574 26.4 24.7786L26.3333 24.7122L26.3809 24.6364C27.0524 23.5698 27.7095 22.5268 28.319 21.5598L28.3667 21.4839L28.4476 21.5124C29.1714 21.7636 29.8809 22.0149 30.5286 22.2377L30.419 22.2614C31.0333 21.6878 31.719 21.2185 32.3809 20.8771L32.3286 20.9672C32.3286 20.1992 32.3286 19.4502 32.3286 18.7723V18.6965L32.4048 18.6775C33.6524 18.3931 34.8428 18.1229 35.9619 17.8716L36.0333 17.8574L36.0619 17.919C36.3952 18.6159 36.719 19.2843 37.0143 19.9006L36.9429 19.8532C37.7905 19.8816 38.5905 20.0333 39.3095 20.2561L39.2381 20.2751C39.8 19.7157 40.3238 19.1943 40.7952 18.7249L40.8333 18.687L40.8762 18.7155C42.1286 19.5071 43.1667 20.1613 43.9571 20.6591L43.9857 20.678L43.9762 20.7065C43.7333 21.3702 43.5476 21.8774 43.419 22.2377C43.3571 22.4036 43.3095 22.5363 43.2714 22.6311C43.2381 22.7212 43.219 22.7639 43.2143 22.7639L43.2 22.7781Z" fill="#E0E0E0"/>
<path d="M143.386 185.635L80.1198 185.345C72.5103 185.312 66.3674 179.145 66.4008 171.569L67.0722 13.6671C67.1055 6.08224 73.3055 -0.0330493 80.9198 0.000134413L144.186 0.289307C151.796 0.322491 157.934 6.48992 157.906 14.0653L157.234 171.968C157.201 179.548 151.001 185.663 143.391 185.63L143.386 185.635Z" fill="black"/>
<path d="M144.333 5.0726L132.051 5.01492C130.406 5.00531 129.062 6.40883 129.057 8.144L129.048 10.3887C129.043 12.1239 127.698 13.5274 126.054 13.5178L102.115 13.4072C100.47 13.3976 99.1403 11.9845 99.1451 10.2493L99.1546 8.00461C99.1594 6.26944 97.834 4.8563 96.1844 4.84669L91.8649 4.82746L81.1139 4.7794C75.7742 4.75536 71.4309 9.10051 71.4071 14.4791L70.7539 170.751C70.73 176.129 75.0352 180.508 80.375 180.537L143.594 180.83C148.933 180.854 153.277 176.509 153.301 171.13L153.954 14.8588C153.978 9.48023 149.672 5.10144 144.333 5.0774V5.0726Z" fill="#FAFAFA"/>
<path d="M117.858 57.8859C117.858 57.8859 117.858 57.8479 117.867 57.7768C117.877 57.6962 117.896 57.5872 117.915 57.445C117.963 57.1416 118.025 56.7007 118.11 56.1319L118.129 56.1651C117.429 55.8901 116.506 55.5251 115.387 55.0889L115.444 55.0747C115.139 55.5156 114.801 56.0086 114.439 56.5348L114.42 56.5633H114.387C113.791 56.4874 113.148 56.4874 112.482 56.587H112.448L112.429 56.5633C112.101 56.1176 111.748 55.6341 111.382 55.1269L111.458 55.1506C110.606 55.5156 109.701 55.9043 108.748 56.3073L108.791 56.2314C108.891 56.7718 109.001 57.3644 109.115 57.9759L109.125 58.0186L109.087 58.047C108.62 58.4073 108.153 58.8672 107.758 59.4028L107.729 59.4408L107.682 59.4313C107.139 59.3459 106.534 59.2511 105.925 59.1516L106.01 59.1042C105.667 59.9575 105.296 60.8819 104.915 61.83L104.887 61.7304C105.344 62.0433 105.844 62.3894 106.353 62.7354L106.396 62.7639V62.816C106.315 63.4038 106.315 64.058 106.41 64.7075L106.42 64.7596L106.377 64.7928C105.925 65.1199 105.434 65.4755 104.934 65.831L104.963 65.7267C105.329 66.58 105.72 67.4949 106.12 68.4241L106.02 68.3719C106.572 68.2724 107.172 68.1633 107.772 68.0543L107.825 68.0448L107.858 68.0875C108.229 68.5615 108.691 69.0214 109.21 69.4101C109.225 69.448 109.177 69.3248 109.244 69.4954V69.5002V69.5191V69.5476L109.229 69.6045L109.21 69.7135L109.177 69.9316L109.106 70.3724C109.058 70.6663 109.01 70.9555 108.963 71.2447L108.906 71.1451C109.829 71.5149 110.744 71.8799 111.639 72.2402L111.529 72.2734C111.872 71.7804 112.206 71.2968 112.544 70.8133L112.572 70.7706H112.625C113.263 70.856 113.901 70.8465 114.525 70.7564L114.577 70.7469L114.61 70.7896C114.963 71.2779 115.31 71.7567 115.653 72.226L115.548 72.1975C116.472 71.8041 117.377 71.4201 118.258 71.0503L118.21 71.1404C118.101 70.5478 117.996 69.9647 117.891 69.3959L117.882 69.3485L117.92 69.32C118.434 68.9218 118.877 68.4667 119.253 67.969L119.282 67.9311L119.329 67.9405C119.934 68.0401 120.515 68.1302 121.087 68.225L121.006 68.2724C121.396 67.3148 121.763 66.4141 122.11 65.5513L122.134 65.6319C121.62 65.2764 121.139 64.9445 120.672 64.6222L120.639 64.5985V64.5605C120.729 63.8874 120.71 63.2569 120.629 62.6643V62.6264L120.653 62.6074C121.177 62.2329 121.653 61.8916 122.101 61.574L122.082 61.6404C121.639 60.5927 121.263 59.7015 120.939 58.9383L120.982 58.962C120.282 59.0852 119.706 59.1848 119.229 59.2701H119.21L119.201 59.2606C118.806 58.7486 118.453 58.4215 118.215 58.213C118.096 58.1134 118.01 58.0376 117.944 57.9807C117.882 57.9285 117.853 57.9048 117.853 57.9048C117.853 57.9048 117.891 57.9285 117.953 57.9712C118.015 58.0186 118.115 58.0897 118.234 58.1893C118.477 58.3931 118.844 58.7155 119.248 59.2227L119.22 59.2132C119.696 59.1231 120.272 59.0141 120.972 58.8814H121.006L121.02 58.9051C121.348 59.6683 121.734 60.5548 122.187 61.5977L122.206 61.6356L122.172 61.6593C121.729 61.9817 121.258 62.323 120.734 62.7022L120.758 62.6454C120.848 63.2474 120.867 63.8921 120.787 64.5748L120.758 64.5131C121.225 64.8307 121.71 65.1626 122.225 65.5181L122.272 65.5513L122.253 65.6034C121.906 66.4662 121.544 67.3717 121.158 68.3293L121.134 68.3861L121.072 68.3767C120.501 68.2866 119.915 68.1918 119.315 68.097L119.391 68.0685C119.01 68.5758 118.558 69.0451 118.034 69.4528L118.063 69.3722C118.167 69.941 118.277 70.5241 118.387 71.1167L118.401 71.1831L118.339 71.2115C117.458 71.586 116.553 71.97 115.629 72.3634L115.567 72.3919L115.525 72.335C115.182 71.861 114.834 71.3869 114.482 70.8986L114.567 70.9318C113.934 71.0266 113.277 71.0361 112.625 70.9555L112.71 70.9176C112.377 71.4011 112.039 71.8847 111.701 72.3777L111.658 72.4346L111.591 72.4061C110.691 72.0458 109.782 71.6808 108.858 71.311L108.791 71.2826L108.801 71.2115C108.848 70.9223 108.896 70.6332 108.944 70.3392L109.015 69.8984L109.048 69.6803L109.067 69.5713L109.077 69.5144V69.4859L109.082 69.4717V69.4622C109.153 69.6329 109.101 69.5097 109.115 69.5476C108.577 69.1494 108.106 68.6801 107.725 68.1918L107.81 68.225C107.21 68.334 106.61 68.443 106.058 68.5426L105.987 68.5568L105.958 68.4904C105.563 67.5613 105.167 66.6464 104.801 65.7931L104.772 65.7267L104.829 65.684C105.329 65.3238 105.82 64.973 106.272 64.6459L106.239 64.7312C106.144 64.0675 106.144 63.3991 106.22 62.7971L106.258 62.8776C105.753 62.5268 105.248 62.1808 104.796 61.8679L104.739 61.83L104.763 61.7684C105.144 60.825 105.52 59.9006 105.863 59.0473L105.887 58.9857L105.948 58.9951C106.558 59.0947 107.163 59.1895 107.706 59.2796L107.629 59.308C108.034 58.7676 108.515 58.2983 108.991 57.9285L108.963 57.9996C108.853 57.3881 108.744 56.7955 108.648 56.2551L108.639 56.1982L108.691 56.1745C109.644 55.7716 110.548 55.3876 111.406 55.0273L111.453 55.0084L111.482 55.051C111.848 55.5583 112.196 56.0418 112.52 56.4921L112.463 56.4684C113.144 56.3736 113.796 56.3784 114.401 56.4542L114.348 56.4779C114.715 55.9517 115.058 55.4635 115.367 55.0226L115.387 54.9941L115.42 55.0084C116.529 55.4587 117.448 55.8332 118.148 56.1176L118.172 56.1271V56.1508C118.072 56.715 117.996 57.1463 117.944 57.445C117.92 57.5872 117.896 57.6962 117.882 57.7816C117.867 57.8574 117.858 57.8953 117.858 57.8953V57.8859Z" fill="#FAFAFA"/>
<path d="M224 185.492C224 185.559 173.852 185.616 112.005 185.616C50.1571 185.616 0 185.559 0 185.492C0 185.426 50.1381 185.369 112.005 185.369C173.871 185.369 224 185.426 224 185.492Z" fill="#263238"/>
<path d="M139.433 167.449H83.419C82.083 167.449 81 168.527 81 169.857V169.971C81 171.301 82.083 172.379 83.419 172.379H139.433C140.769 172.379 141.852 171.301 141.852 169.971V169.857C141.852 168.527 140.769 167.449 139.433 167.449Z" fill="#E0E0E0"/>
<path d="M110.867 167.449H83.419C82.083 167.449 81 168.527 81 169.857V169.971C81 171.301 82.083 172.379 83.419 172.379H110.867C112.203 172.379 113.286 171.301 113.286 169.971V169.857C113.286 168.527 112.203 167.449 110.867 167.449Z" fill="#3537F5"/>
<path fill-rule="evenodd" clip-rule="evenodd" d="M104.616 56.261C104.966 56.261 105.249 55.9787 105.249 55.6305C105.249 55.2823 104.966 55 104.616 55C104.266 55 103.982 55.2823 103.982 55.6305C103.982 55.9787 104.266 56.261 104.616 56.261ZM140.086 63.7463L140.72 65.031L142.144 65.2349L141.115 66.2351L141.358 67.6431L140.086 66.9746L138.815 67.6431L139.058 66.2351L138.029 65.2349L139.448 65.031L140.086 63.7463ZM86.9911 80.177L87.8149 81.8314L89.6483 82.0969L88.3197 83.3863L88.634 85.2114L86.9911 84.3487L85.3483 85.2114L85.6626 83.3863L84.334 82.0969L86.1721 81.8314L86.9911 80.177ZM139.386 95.2377L138.838 94.4934L138.576 95.3799L137.695 95.6738L138.467 96.1905L138.472 97.1149L139.205 96.5461L140.091 96.8257L139.776 95.9582L140.314 95.2045L139.386 95.2377ZM86.3636 69.1742C85.8827 69.1742 85.4922 68.7855 85.4922 68.3067C85.4922 67.8279 85.8827 67.4392 86.3636 67.4392C86.8446 67.4392 87.235 67.8279 87.235 68.3067C87.235 68.7855 86.8446 69.1742 86.3636 69.1742ZM86.3636 67.918C86.1493 67.918 85.9684 68.0934 85.9684 68.3115C85.9684 68.5295 86.1446 68.7049 86.3636 68.7049C86.5827 68.7049 86.7589 68.5295 86.7589 68.3115C86.7589 68.0934 86.5827 67.918 86.3636 67.918ZM134.625 80.2669C134.625 80.7457 135.015 81.1344 135.496 81.1344C135.977 81.1344 136.368 80.7457 136.368 80.2669C136.368 79.7881 135.977 79.3994 135.496 79.3994C135.015 79.3994 134.625 79.7881 134.625 80.2669ZM135.101 80.2717C135.101 80.0536 135.282 79.8782 135.496 79.8782C135.715 79.8782 135.892 80.0536 135.892 80.2717C135.892 80.4897 135.715 80.6651 135.496 80.6651C135.277 80.6651 135.101 80.4897 135.101 80.2717ZM81.6333 97.0627C81.9831 97.0627 82.2667 96.7805 82.2667 96.4323C82.2667 96.084 81.9831 95.8018 81.6333 95.8018C81.2836 95.8018 81 96.084 81 96.4323C81 96.7805 81.2836 97.0627 81.6333 97.0627ZM110.735 106.027C111.087 106.027 111.368 105.743 111.368 105.397C111.368 105.046 111.087 104.766 110.735 104.766C110.383 104.766 110.102 105.046 110.102 105.397C110.102 105.747 110.383 106.027 110.735 106.027ZM123.281 62.0064C123.281 62.4852 123.672 62.874 124.153 62.874C124.634 62.874 125.024 62.4852 125.024 62.0064C125.024 61.5276 124.634 61.1389 124.153 61.1389C123.672 61.1389 123.281 61.5276 123.281 62.0064ZM123.757 62.0112C123.757 61.7931 123.934 61.6177 124.153 61.6177C124.372 61.6177 124.548 61.7931 124.548 62.0112C124.548 62.2292 124.372 62.4046 124.153 62.4046C123.934 62.4046 123.757 62.2292 123.757 62.0112Z" fill="#DFEE95"/>
<rect x="92" y="61" width="39.2" height="39.0339" rx="9" fill="#DFED95"/>
<path d="M103.288 65.0625C103.39 65.0496 103.614 65.0324 103.787 65.0216C103.961 65.0129 104.622 65.0043 106.412 65V73.8857L97.5078 73.8749L97.5013 72.6779C97.497 71.9468 97.5035 71.3602 97.5187 71.1682C97.5317 70.9957 97.5577 70.7541 97.5751 70.629C97.5924 70.504 97.6336 70.2948 97.664 70.1653C97.6944 70.0359 97.7529 69.8181 97.792 69.6844C97.8332 69.5528 97.9156 69.3199 97.9764 69.1668C98.0371 69.0158 98.152 68.7678 98.2323 68.6125C98.3126 68.4572 98.4405 68.2329 98.5186 68.11C98.5945 67.9871 98.7269 67.7973 98.8093 67.6873C98.8917 67.5773 99.0088 67.4306 99.0696 67.3595C99.1281 67.2904 99.2648 67.1416 99.3732 67.0295C99.4795 66.9195 99.6661 66.7448 99.7854 66.6413C99.9047 66.5377 100.08 66.3954 100.176 66.3242C100.271 66.2531 100.432 66.1409 100.534 66.0762C100.636 66.0115 100.801 65.9101 100.902 65.8519C101.004 65.7958 101.18 65.7052 101.293 65.6513C101.406 65.5996 101.62 65.509 101.77 65.4508C101.92 65.3904 102.178 65.3063 102.345 65.261C102.512 65.2157 102.751 65.1574 102.876 65.1316C103.002 65.1078 103.187 65.0776 103.288 65.0625Z" fill="url(#paint0_linear_2024_247708)"/>
<path d="M107.449 69.5011C107.447 67.0403 107.453 65.0216 107.464 65.0151C107.475 65.0065 109.503 65 116.466 65L125.439 73.918L125.457 77.1963C125.467 78.9993 125.48 80.9813 125.5 82.7283L123.945 82.7218C122.446 82.7153 122.377 82.7132 122.116 82.6679C121.967 82.6398 121.708 82.5859 121.541 82.5449C121.374 82.5061 121.105 82.4263 120.945 82.3702C120.784 82.3163 120.554 82.2257 120.435 82.174C120.316 82.1201 120.116 82.023 119.99 81.9583C119.865 81.8914 119.641 81.7577 119.492 81.6607C119.342 81.5636 119.119 81.4019 118.993 81.3048C118.867 81.2056 118.639 81.0029 118.485 80.8541C118.333 80.7052 118.129 80.4896 118.034 80.3774C117.939 80.2653 117.795 80.0798 117.713 79.9676C117.633 79.8555 117.518 79.683 117.455 79.5838C117.394 79.4867 117.277 79.2775 117.197 79.1201C117.116 78.9648 116.999 78.7103 116.939 78.555C116.878 78.3997 116.793 78.1625 116.752 78.0266C116.711 77.8907 116.65 77.6578 116.62 77.509C116.589 77.3602 116.548 77.138 116.526 77.0129C116.496 76.8253 116.49 76.5514 116.466 73.9827L107.453 73.972L107.449 69.5011Z" fill="url(#paint1_linear_2024_247708)"/>
<path d="M97.5165 80.5651C97.5013 78.775 97.497 77.3019 97.5057 77.2912C97.5143 77.2804 98.0176 77.2717 98.6965 77.2717C99.3429 77.2717 100.039 77.2825 100.241 77.2933C100.443 77.3063 100.707 77.33 100.827 77.3472C100.946 77.3666 101.156 77.4055 101.293 77.4357C101.43 77.4659 101.629 77.5155 101.738 77.5457C101.846 77.5758 102.05 77.6449 102.193 77.6966C102.336 77.7505 102.62 77.8735 102.822 77.9727C103.03 78.074 103.328 78.2444 103.505 78.3609C103.679 78.4752 103.913 78.6434 104.026 78.7318C104.139 78.8224 104.384 79.0467 104.568 79.2322C104.755 79.4177 104.967 79.6441 105.041 79.7347C105.115 79.8275 105.225 79.972 105.284 80.0539C105.345 80.1359 105.442 80.2847 105.505 80.3817C105.566 80.4809 105.668 80.6535 105.729 80.7656C105.792 80.8778 105.896 81.0913 105.961 81.2401C106.028 81.3889 106.13 81.6607 106.191 81.844C106.251 82.0273 106.325 82.2948 106.358 82.4371C106.39 82.5794 106.436 82.821 106.462 82.9763C106.503 83.2351 106.507 83.3602 106.52 86.028H115.544V95H106.51L97.5512 86.0927L97.5469 84.954C97.5447 84.3285 97.5295 82.353 97.5165 80.5651Z" fill="url(#paint2_linear_2024_247708)"/>
<path d="M116.585 95V90.5679V86.1359L125.489 86.1467L125.496 87.2897C125.5 87.9648 125.493 88.5773 125.478 88.7886C125.465 88.9849 125.439 89.2459 125.422 89.371C125.405 89.496 125.374 89.6643 125.355 89.7484C125.337 89.8303 125.29 90.0201 125.248 90.1689C125.207 90.3178 125.133 90.5442 125.086 90.6758C125.036 90.8073 124.94 91.0338 124.871 91.1826C124.802 91.3314 124.689 91.5492 124.619 91.6679C124.552 91.7865 124.437 91.972 124.363 92.0776C124.292 92.1833 124.181 92.3386 124.116 92.4227C124.051 92.5047 123.906 92.6794 123.789 92.8109C123.674 92.9425 123.472 93.1452 123.342 93.2617C123.209 93.3803 123.014 93.5442 122.908 93.6262C122.802 93.7081 122.63 93.8311 122.528 93.8979C122.426 93.9669 122.266 94.0661 122.17 94.1201C122.075 94.1761 121.865 94.284 121.704 94.3616C121.544 94.4393 121.294 94.5449 121.151 94.5967C121.008 94.6506 120.765 94.7283 120.609 94.7692C120.453 94.8124 120.229 94.8663 120.11 94.89C119.99 94.9137 119.75 94.9482 119.574 94.9676C119.322 94.9935 118.967 95 116.585 95Z" fill="url(#paint3_linear_2024_247708)"/>
<path d="M73.3842 163.698H40.0509V159.043H73.3842V163.698ZM40.1652 163.584H73.27V159.152H40.1652V163.584Z" fill="#455A62"/>
<path d="M73.3271 159.096H40.108V163.642H73.3271V159.096Z" fill="#455A62"/>
<path d="M43.6 163.641L47.97 185.613H65.6605L70.2843 163.641L43.6 163.641Z" fill="#455A62"/>
<path d="M55.4701 162.812C55.4034 162.812 55.3224 151.932 55.2843 138.517C55.2462 125.096 55.2701 114.217 55.332 114.217C55.3986 114.217 55.4796 125.092 55.5177 138.517C55.5558 151.932 55.532 162.812 55.4701 162.812Z" fill="#263238"/>
<path d="M62.87 135.587C62.87 135.587 62.8462 135.677 62.7795 135.838C62.7033 136.023 62.6033 136.255 62.4843 136.545C62.4176 136.701 62.3462 136.867 62.27 137.052C62.2033 137.241 62.1271 137.45 62.0509 137.668C61.97 137.891 61.8843 138.128 61.7938 138.374C61.7033 138.626 61.6366 138.901 61.5462 139.18C61.1843 140.309 60.8938 141.693 60.6176 143.229C60.3747 144.774 60.1938 146.485 60.1033 148.292C59.9414 151.904 60.1462 155.18 60.3652 157.54C60.47 158.721 60.5795 159.674 60.6605 160.333C60.6938 160.641 60.7224 160.892 60.7462 161.091C60.7605 161.266 60.7652 161.356 60.7605 161.356C60.7509 161.356 60.7319 161.266 60.6985 161.096C60.6652 160.897 60.6224 160.65 60.57 160.342C60.4652 159.688 60.3319 158.735 60.2033 157.555C59.9414 155.194 59.7081 151.909 59.87 148.277C59.9605 146.466 60.1509 144.741 60.4081 143.191C60.6986 141.645 61.0081 140.256 61.3938 139.128C61.4843 138.844 61.5605 138.574 61.6557 138.322C61.7509 138.076 61.8462 137.839 61.9319 137.616C62.0176 137.398 62.0985 137.194 62.1747 137.004C62.2557 136.82 62.3414 136.654 62.4128 136.502C62.5509 136.222 62.6604 135.995 62.7509 135.815C62.8319 135.658 62.8747 135.577 62.8843 135.582L62.87 135.587Z" fill="#263238"/>
<path d="M62.0224 126.788C62.0224 126.788 61.9938 126.916 61.9176 127.148C61.8319 127.4 61.7177 127.736 61.57 128.158C61.4938 128.381 61.4081 128.623 61.3177 128.888C61.2367 129.158 61.1462 129.452 61.051 129.765C60.8558 130.396 60.6319 131.111 60.4319 131.913C60.3272 132.316 60.2129 132.733 60.0986 133.169C59.9986 133.61 59.8939 134.07 59.7891 134.544C59.5558 135.492 59.3891 136.52 59.1748 137.592C58.8081 139.753 58.4843 142.143 58.2653 144.66C58.0557 147.182 57.9653 149.59 57.9319 151.785C57.9272 153.975 57.951 155.952 58.0415 157.606C58.07 158.436 58.1224 159.185 58.1653 159.839C58.2034 160.498 58.2462 161.062 58.2891 161.527C58.3224 161.972 58.351 162.328 58.37 162.593C58.3843 162.835 58.3891 162.968 58.3843 162.968C58.3748 162.968 58.3557 162.84 58.3224 162.598C58.2891 162.333 58.251 161.982 58.1986 161.536C58.1415 161.076 58.0891 160.507 58.0367 159.853C57.9796 159.194 57.9177 158.445 57.8748 157.616C57.7605 155.957 57.7177 153.98 57.7129 151.78C57.7319 149.585 57.8177 147.168 58.0272 144.636C58.251 142.109 58.5796 139.716 58.9605 137.549C59.1796 136.473 59.3557 135.444 59.5986 134.496C59.7129 134.022 59.8177 133.562 59.9224 133.121C60.0415 132.685 60.1605 132.263 60.27 131.865C60.4796 131.059 60.7177 130.348 60.9272 129.718C61.0319 129.405 61.1272 129.116 61.2129 128.845C61.3129 128.585 61.4034 128.343 61.4891 128.12C61.651 127.703 61.7796 127.371 61.8748 127.125C61.9653 126.897 62.0177 126.779 62.0272 126.783L62.0224 126.788Z" fill="#263238"/>
<path d="M53.37 164.736C53.37 164.736 53.3604 164.693 53.3509 164.608C53.3414 164.508 53.3319 164.385 53.3176 164.233C53.2938 163.887 53.2604 163.404 53.2176 162.792C53.1366 161.522 53.0224 159.716 52.8843 157.492C52.5938 153.017 52.1795 146.84 51.4224 140.042C51.0366 136.643 50.589 133.415 50.1223 130.49C49.8747 129.03 49.6509 127.641 49.3938 126.347C49.1604 125.048 48.9081 123.849 48.6747 122.754C48.4557 121.654 48.2128 120.668 48.0176 119.8C47.8271 118.933 47.6366 118.189 47.4842 117.582C47.3366 116.984 47.2223 116.515 47.1414 116.179C47.1081 116.027 47.0795 115.908 47.0557 115.814C47.0366 115.733 47.0319 115.686 47.0366 115.686C47.0366 115.686 47.0557 115.723 47.0795 115.804C47.1081 115.899 47.1414 116.017 47.1843 116.164C47.2795 116.501 47.4081 116.965 47.5747 117.558C47.7462 118.16 47.9414 118.904 48.1462 119.772C48.3557 120.639 48.6081 121.621 48.8366 122.721C49.0795 123.816 49.3414 125.015 49.5843 126.314C49.8462 127.608 50.0795 128.997 50.3319 130.457C50.8081 133.387 51.2652 136.615 51.6509 140.019C52.4081 146.821 52.7985 153.008 53.0462 157.488C53.17 159.725 53.2509 161.541 53.3033 162.792C53.3271 163.404 53.3462 163.887 53.3557 164.233C53.3557 164.385 53.3604 164.513 53.3652 164.608C53.3652 164.693 53.3652 164.736 53.3605 164.736H53.37Z" fill="#263238"/>
<path d="M55.1985 119.446C55.0557 117.905 53.489 116.744 51.9366 116.725C50.3795 116.711 48.9319 117.635 47.9795 118.863C47.0271 120.086 46.5033 121.584 46.0747 123.072C45.0271 126.704 44.4557 130.52 44.9033 134.269C45.3509 138.019 46.8795 141.712 49.5842 144.367C50.0223 144.798 50.5938 145.23 51.1985 145.102C51.5271 145.03 51.7985 144.803 52.0509 144.58C57.3652 139.802 60.4319 132.648 60.2223 125.523C60.1795 124.096 59.9938 122.613 59.1985 121.423C58.4033 120.233 56.5557 118.972 55.2033 119.451" fill="#DFEE95"/>
<path d="M43.5891 107.1C42.8605 108.418 42.1272 109.731 41.3986 111.049C41.3462 111.139 41.2796 111.243 41.1748 111.253C41.0605 111.262 40.9748 111.153 40.9129 111.059C38.9843 108.11 37.051 105.161 35.1224 102.213L36.4558 101.459L43.5891 107.1Z" fill="#DFEE95"/>
<g opacity="0.2">
<path d="M43.5891 107.1C42.8605 108.418 42.1272 109.731 41.3986 111.049C41.3462 111.139 41.2796 111.243 41.1748 111.253C41.0605 111.262 40.9748 111.153 40.9129 111.059C38.9843 108.11 37.051 105.161 35.1224 102.213L36.4558 101.459L43.5891 107.1Z" fill="black"/>
</g>
<path d="M55.332 114.216C48.7462 110.348 42.1653 106.48 35.5796 102.616C35.3796 102.498 35.1605 102.36 35.0986 102.133C35.0177 101.843 35.2415 101.559 35.451 101.346C38.1653 98.5583 42.1129 96.937 46.0034 97.2167C49.8939 97.4964 53.6415 99.7339 55.5463 103.123C57.451 106.513 57.5129 110.997 55.3272 114.216" fill="#DFEE95"/>
<path d="M38.432 98.9096C38.432 98.9096 38.5225 98.8906 38.6891 98.8764C38.8606 98.8669 39.113 98.8384 39.4368 98.8384C40.0844 98.8242 41.0272 98.8669 42.1749 99.0565C43.3225 99.2461 44.6701 99.6112 46.0796 100.237C47.4844 100.858 48.9415 101.759 50.2701 102.944C51.5844 104.138 52.632 105.494 53.3939 106.826C54.1606 108.158 54.6606 109.457 54.9606 110.576C55.2653 111.695 55.4034 112.624 55.4511 113.269C55.4891 113.591 55.4796 113.842 55.4891 114.013C55.4891 114.184 55.4891 114.274 55.4844 114.274C55.4653 114.274 55.4368 113.918 55.3606 113.283C55.2844 112.648 55.1225 111.728 54.8034 110.628C54.1796 108.438 52.7272 105.485 50.113 103.129C47.4939 100.773 44.4034 99.6301 42.1511 99.2319C41.0177 99.0233 40.0844 98.957 39.4415 98.9427C38.7987 98.9285 38.4368 98.9427 38.4368 98.919L38.432 98.9096Z" fill="#263238"/>
<path d="M52.6605 106.209C52.67 106.238 52.2938 106.413 51.6605 106.66C51.0319 106.906 50.151 107.224 49.17 107.532C48.1843 107.845 47.2843 108.091 46.6271 108.248C45.97 108.409 45.5557 108.485 45.5509 108.452C45.5414 108.418 45.9414 108.286 46.5843 108.087C47.3129 107.859 48.1605 107.598 49.0986 107.304C50.0319 107.006 50.8795 106.731 51.6081 106.499C52.2509 106.295 52.651 106.171 52.6605 106.205V106.209Z" fill="#263238"/>
<path d="M49.551 97.8945C49.6129 97.8898 49.7558 98.8711 49.7843 100.089C49.8177 101.308 49.7272 102.294 49.6605 102.294C49.5939 102.294 49.5796 101.308 49.5462 100.099C49.5177 98.8901 49.4843 97.904 49.5462 97.8993L49.551 97.8945Z" fill="#263238"/>
<path d="M35.413 102.393C35.4034 102.364 35.9511 102.165 36.8463 101.89C37.7415 101.615 38.9939 101.264 40.3844 100.932C41.7796 100.601 43.0511 100.345 43.9749 100.179C44.8987 100.018 45.4749 99.9464 45.4796 99.9749C45.4844 100.008 44.9177 100.136 44.0034 100.34C43.0891 100.544 41.8272 100.823 40.4368 101.155C39.0463 101.487 37.7939 101.809 36.8891 102.046C35.9796 102.279 35.4177 102.421 35.4082 102.388L35.413 102.393Z" fill="#263238"/>
<path d="M46.2271 115.8C44.5271 114.515 42.7319 114.264 40.6033 114.349C38.4748 114.434 36.3986 115.079 34.4462 115.932C31.1176 117.383 27.9843 119.526 25.9938 122.555C24.0033 125.584 23.3129 129.595 24.8033 132.894C24.951 133.221 25.1462 133.567 25.4795 133.709C25.8319 133.861 26.2319 133.743 26.5938 133.624C30.3795 132.396 34.1938 131.154 37.6795 129.225C41.1605 127.3 44.3319 124.622 46.2033 121.118C46.6509 120.279 47.0271 119.379 47.0986 118.431C47.17 117.483 46.9081 116.473 46.2319 115.804" fill="#DFEE95"/>
<path d="M46.2605 115.402C46.2605 115.402 46.17 115.449 45.989 115.511C45.7843 115.582 45.5224 115.672 45.1938 115.781C45.0176 115.838 44.8271 115.904 44.6176 115.971C44.4081 116.047 44.189 116.137 43.9462 116.232C43.4652 116.426 42.9128 116.616 42.3271 116.9C42.0319 117.033 41.7224 117.175 41.3986 117.322C41.0747 117.469 40.7557 117.654 40.4129 117.824C39.7271 118.161 39.0319 118.588 38.2938 119.024C36.8414 119.939 35.3033 121.038 33.8081 122.333C32.3271 123.646 31.0319 125.02 29.9367 126.338C29.4081 127.011 28.8938 127.647 28.47 128.282C28.2557 128.595 28.0319 128.889 27.8414 129.187C27.6557 129.486 27.4748 129.775 27.3033 130.05C26.9462 130.591 26.6843 131.117 26.4319 131.567C26.3081 131.795 26.189 131.999 26.089 132.198C25.9938 132.392 25.9081 132.577 25.8271 132.743C25.6748 133.051 25.5509 133.297 25.4557 133.492C25.37 133.662 25.3176 133.748 25.3128 133.748C25.3033 133.748 25.3414 133.648 25.4129 133.473C25.4986 133.274 25.6081 133.018 25.7462 132.705C25.8224 132.534 25.9033 132.349 25.9938 132.15C26.089 131.951 26.2033 131.738 26.3224 131.51C26.5652 131.055 26.8176 130.519 27.17 129.97C27.3367 129.69 27.5128 129.396 27.6986 129.093C27.8843 128.789 28.1033 128.491 28.3176 128.173C28.7367 127.528 29.2462 126.888 29.7747 126.206C30.87 124.874 32.1652 123.48 33.6605 122.157C35.1652 120.849 36.7176 119.749 38.189 118.839C38.9367 118.407 39.6414 117.981 40.3319 117.649C40.6748 117.478 41.0033 117.298 41.3271 117.156C41.6557 117.014 41.9652 116.876 42.2652 116.748C42.8605 116.473 43.4224 116.288 43.9081 116.108C44.1509 116.023 44.3795 115.933 44.589 115.867C44.7986 115.805 44.9938 115.748 45.17 115.696C45.5033 115.601 45.77 115.525 45.9795 115.464C46.1652 115.411 46.2652 115.392 46.2652 115.397L46.2605 115.402Z" fill="#263238"/>
<path d="M32.989 122.554C33.008 122.616 31.1557 123.208 28.8557 123.881C26.5557 124.55 24.6747 125.043 24.6557 124.981C24.6366 124.92 26.489 124.327 28.789 123.654C31.089 122.985 32.9699 122.492 32.989 122.554Z" fill="#263238"/>
<path d="M32.8224 131.632C32.7891 131.632 32.751 131.144 32.7319 130.352C32.7081 129.561 32.7081 128.466 32.7414 127.257C32.7748 126.048 32.8414 124.953 32.9081 124.166C32.9748 123.374 33.0367 122.891 33.07 122.891C33.1033 122.891 33.0986 123.384 33.07 124.175C33.0414 125.043 33.0081 126.1 32.9748 127.266C32.9462 128.432 32.9176 129.489 32.8986 130.357C32.8795 131.149 32.8557 131.637 32.8224 131.637V131.632Z" fill="#263238"/>
<path d="M40.6319 127.671C40.5652 127.671 40.3604 125.447 40.17 122.698C39.9795 119.948 39.8747 117.716 39.9414 117.711C40.0081 117.711 40.2128 119.93 40.4033 122.684C40.5938 125.433 40.6985 127.666 40.6319 127.671Z" fill="#263238"/>
<path d="M30.9081 117.496C30.9081 117.463 31.4176 117.448 32.2319 117.458C33.0509 117.463 34.1748 117.486 35.4224 117.529C36.6652 117.572 37.7938 117.619 38.6081 117.667C39.4224 117.714 39.9271 117.761 39.9271 117.795C39.9271 117.828 39.4224 117.842 38.6033 117.832C37.789 117.828 36.6605 117.804 35.4129 117.761C34.1652 117.719 33.0414 117.671 32.2271 117.624C31.4129 117.576 30.9081 117.529 30.9081 117.496Z" fill="#263238"/>
<path d="M50.4319 145.423C50.4319 145.423 50.4129 145.333 50.4034 145.153C50.3938 144.949 50.3843 144.693 50.37 144.38C50.3415 143.707 50.3319 142.735 50.3605 141.536C50.3843 140.337 50.4605 138.905 50.6034 137.322C50.7558 135.738 50.9796 134.008 51.2986 132.202C51.6272 130.396 52.0177 128.694 52.4224 127.158C52.8367 125.622 53.2605 124.257 53.6558 123.119C54.0462 121.981 54.3939 121.071 54.651 120.455C54.7748 120.166 54.8748 119.929 54.951 119.744C55.0224 119.583 55.0653 119.497 55.07 119.502C55.0796 119.502 55.051 119.592 54.9939 119.763C54.9272 119.952 54.8415 120.194 54.7367 120.493C54.5034 121.123 54.1843 122.038 53.8129 123.176C53.4367 124.314 53.0367 125.684 52.6319 127.215C52.2415 128.751 51.8557 130.448 51.5319 132.249C51.2129 134.051 50.9843 135.776 50.8224 137.35C50.67 138.924 50.57 140.351 50.5272 141.546C50.4796 142.74 50.4605 143.712 50.4653 144.385C50.4653 144.698 50.4605 144.954 50.4558 145.158C50.451 145.333 50.4462 145.428 50.4367 145.428L50.4319 145.423Z" fill="#263238"/>
<path d="M51.4748 132.008C51.4748 132.008 51.1986 132.363 50.6891 132.871C50.1795 133.378 49.451 134.06 48.6272 134.781C47.7986 135.502 47.0272 136.132 46.4557 136.568C45.8843 137.004 45.5176 137.256 45.4938 137.232C45.4748 137.203 45.8034 136.91 46.3462 136.44C46.951 135.914 47.6748 135.293 48.47 134.606C49.2605 133.909 49.9748 133.283 50.5748 132.752C51.1129 132.278 51.4557 131.989 51.4748 132.013V132.008Z" fill="#263238"/>
<path d="M57.7271 137.023C57.6986 137.042 57.3843 136.591 56.889 135.866C56.3509 135.084 55.6795 134.107 54.9367 133.031C54.1795 131.965 53.4938 131.002 52.9462 130.225C52.4319 129.509 52.1224 129.059 52.1462 129.04C52.17 129.021 52.5319 129.433 53.0795 130.125C53.6271 130.817 54.3605 131.794 55.1319 132.898C55.9033 134.003 56.57 135.027 57.0319 135.776C57.4938 136.53 57.7557 137.009 57.7319 137.023H57.7271Z" fill="#263238"/>
<path d="M54.4509 121.255C54.4843 121.312 52.4081 122.701 49.8128 124.365C47.2176 126.029 45.0843 127.328 45.0462 127.276C45.0128 127.219 47.089 125.83 49.6843 124.166C52.2795 122.502 54.4128 121.203 54.4509 121.255Z" fill="#263238"/>
<path d="M60.3082 127.547C60.2605 127.595 58.8558 126.301 57.1653 124.66C55.4748 123.016 54.1415 121.65 54.1891 121.603C54.2367 121.555 55.6415 122.85 57.332 124.495C59.0224 126.135 60.351 127.505 60.3082 127.552V127.547Z" fill="#263238"/>
<path d="M61.7795 127.424L63.5605 127.277C64.8272 127.173 66.0557 126.798 67.1605 126.182C67.7081 125.874 68.2557 125.575 68.8367 125.343C71.0415 124.461 73.4986 124.618 75.87 124.499C79.7415 124.305 83.57 123.333 87.0605 121.65C87.2605 121.555 87.4414 121.404 87.5462 121.209C87.9129 120.546 87.2319 119.953 86.6462 119.593C83.6415 117.749 80.5843 115.886 77.1795 114.971C73.7748 114.056 69.9081 114.212 67.0034 116.203C63.5938 118.54 62.351 123.342 61.7748 127.424" fill="#DFEE95"/>
<path d="M87.5938 120.99C87.5938 120.99 87.4843 120.947 87.2938 120.848C87.0795 120.734 86.7986 120.592 86.4509 120.407C85.7176 120.023 84.6652 119.459 83.3319 118.819C81.9986 118.188 80.3795 117.477 78.5033 116.965C76.6319 116.448 74.47 116.178 72.2414 116.458C70.0224 116.747 67.9795 117.61 66.5319 118.899C65.0747 120.184 64.189 121.734 63.5605 123.057C62.9319 124.389 62.5462 125.517 62.2652 126.295C62.1319 126.664 62.0271 126.963 61.9462 127.19C61.87 127.394 61.8271 127.499 61.8224 127.499C61.8176 127.499 61.8414 127.385 61.9033 127.176C61.9747 126.944 62.0652 126.645 62.1795 126.266C62.4319 125.484 62.7986 124.341 63.4081 122.99C64.0224 121.654 64.9081 120.065 66.389 118.743C67.8605 117.411 69.9509 116.529 72.2081 116.23C74.4747 115.941 76.67 116.226 78.5605 116.761C80.4557 117.292 82.0747 118.022 83.4081 118.676C84.7366 119.335 85.7795 119.923 86.4986 120.331C86.8414 120.53 87.1128 120.691 87.3224 120.81C87.5081 120.924 87.6033 120.985 87.6033 120.99H87.5938Z" fill="#263238"/>
<path d="M83.3129 123.28C83.2748 123.333 80.9463 121.835 78.1082 119.929C75.2701 118.023 72.9986 116.435 73.032 116.378C73.0701 116.326 75.3986 117.824 78.2415 119.73C81.0796 121.636 83.351 123.224 83.3177 123.28H83.3129Z" fill="#263238"/>
<path d="M81.0748 116.156C81.089 116.217 80.2795 116.426 79.2557 116.521C78.2319 116.616 77.3986 116.559 77.3986 116.492C77.3986 116.426 78.2224 116.379 79.2319 116.284C80.2414 116.194 81.0605 116.089 81.0748 116.156Z" fill="#263238"/>
<path d="M70.6176 114.292C70.6747 114.325 70.3319 115.008 69.8509 115.814C69.37 116.62 68.9366 117.25 68.8843 117.217C68.8319 117.184 69.17 116.501 69.6509 115.695C70.1319 114.89 70.5652 114.259 70.6176 114.292Z" fill="#263238"/>
<path d="M72.7081 124.646C72.6938 124.674 72.2605 124.446 71.5843 124.039C70.9129 123.631 69.9986 123.034 69.0272 122.332C68.0557 121.631 67.1986 120.962 66.5795 120.479C65.9653 119.99 65.5938 119.678 65.6129 119.654C65.6319 119.63 66.0414 119.896 66.6795 120.346C67.3795 120.853 68.2272 121.465 69.1653 122.143C70.1367 122.844 71.0272 123.456 71.6748 123.901C72.3224 124.342 72.7224 124.617 72.7081 124.646Z" fill="#263238"/>
<path d="M64.4033 134.96C62.7033 134.515 60.6747 136.16 60.3271 137.876C59.9747 139.592 60.6223 141.346 61.3795 142.924C63.0557 146.423 65.3652 149.665 68.4128 152.083C71.4557 154.496 75.2699 156.041 79.1652 156.022C78.4461 152.699 79.3557 149.224 78.9557 145.849C78.608 142.901 77.2271 140.085 75.108 137.999C72.989 135.913 70.1461 134.567 67.1842 134.244C66.0985 134.126 64.8414 133.96 64.408 134.955" fill="#DFEE95"/>
<path d="M79.1604 156.027C79.1604 156.027 79.0747 155.994 78.9176 155.913C78.7652 155.828 78.5414 155.695 78.2795 155.486C77.7461 155.083 77.1319 154.306 76.5985 153.249C76.3271 152.723 76.0223 152.154 75.7271 151.528C75.4414 150.898 75.1319 150.224 74.8128 149.513C74.489 148.807 74.1318 148.077 73.689 147.361C73.2461 146.645 72.7223 145.948 72.1414 145.266C70.9795 143.905 69.7271 142.725 68.6461 141.601C67.5557 140.483 66.6414 139.402 65.9795 138.416C65.3128 137.434 64.908 136.557 64.6795 135.941C64.5699 135.628 64.489 135.387 64.4509 135.216C64.408 135.045 64.389 134.96 64.3985 134.955C64.4223 134.95 64.5176 135.301 64.7652 135.908C65.0176 136.51 65.4414 137.368 66.1176 138.326C66.789 139.288 67.708 140.345 68.8033 141.454C69.889 142.568 71.1461 143.744 72.3223 145.119C72.908 145.806 73.4414 146.517 73.8842 147.247C74.3318 147.977 74.689 148.717 75.008 149.428C75.3223 150.139 75.6223 150.812 75.9033 151.447C76.189 152.073 76.4842 152.652 76.7461 153.178C77.2604 154.235 77.8319 155.003 78.3366 155.42C78.8319 155.847 79.1699 156.003 79.1557 156.027H79.1604Z" fill="#263238"/>
<path d="M70.37 153.264C70.3414 153.259 70.3938 152.823 70.5271 152.126C70.6605 151.429 70.8795 150.471 71.1748 149.429C71.47 148.386 71.7843 147.456 72.0367 146.793C72.289 146.129 72.47 145.731 72.5033 145.74C72.5367 145.75 72.4081 146.172 72.1986 146.85C71.989 147.523 71.6986 148.457 71.4033 149.495C71.1081 150.533 70.8652 151.476 70.6938 152.164C70.5176 152.851 70.4081 153.273 70.3748 153.268L70.37 153.264Z" fill="#263238"/>
<path d="M78.8414 145.104C78.8319 145.137 78.3747 145.019 77.6414 144.829C76.9081 144.639 75.8985 144.379 74.77 144.127C73.6462 143.876 72.6176 143.677 71.8747 143.54C71.1319 143.397 70.67 143.312 70.6747 143.274C70.6747 143.241 71.1461 143.274 71.9033 143.374C72.6557 143.473 73.6938 143.644 74.8271 143.895C75.9604 144.151 76.97 144.436 77.6938 144.668C78.4176 144.9 78.8557 145.071 78.8462 145.104H78.8414Z" fill="#263238"/>
<path d="M64.0604 147.475C64.0271 147.47 64.0937 146.963 64.2461 146.157C64.3937 145.351 64.6318 144.237 64.9509 143.024C65.2699 141.81 65.608 140.725 65.8747 139.947C66.1414 139.17 66.3318 138.696 66.3604 138.705C66.3937 138.715 66.2604 139.208 66.0318 139.995C65.808 140.782 65.4937 141.872 65.1795 143.081C64.8604 144.29 64.5985 145.389 64.408 146.191C64.2176 146.987 64.0937 147.48 64.0604 147.475Z" fill="#263238"/>
<path d="M74.9367 137.995C74.9319 138.061 72.8081 137.891 70.1986 137.611C67.589 137.336 65.4748 137.061 65.4843 136.995C65.489 136.928 67.6129 137.099 70.2271 137.379C72.8367 137.654 74.9509 137.929 74.9414 137.995H74.9367Z" fill="#263238"/>
<path d="M73.3842 163.622C73.3842 163.688 65.9223 163.741 56.7223 163.741C47.5223 163.741 40.0557 163.688 40.0557 163.622C40.0557 163.556 47.5176 162.497 56.7223 162.497C70.3994 162.098 73.3842 163.556 73.3842 163.622Z" fill="#263238"/>
<path d="M68.1938 173.179C68.1938 173.245 63.1653 173.298 56.9653 173.298C50.7653 173.298 45.7367 173.245 45.7367 173.179C45.7367 173.113 50.7653 173.061 56.9653 173.061C63.1653 173.061 68.1938 173.113 68.1938 173.179Z" fill="#263238"/>
<path d="M68.389 174.544C68.389 174.611 63.3604 174.663 57.1604 174.663C50.9604 174.663 45.9319 174.611 45.9319 174.544C45.9319 174.478 50.9604 174.426 57.1604 174.426C63.3604 174.426 68.389 174.478 68.389 174.544Z" fill="#455A64"/>
<path d="M68.3891 172.056C68.3891 172.122 63.1891 172.175 56.7748 172.175C50.3605 172.175 45.1605 172.122 45.1605 172.056C45.1605 171.99 50.3605 171.938 56.7748 171.938C63.1891 171.938 68.3891 171.99 68.3891 172.056Z" fill="#263238"/>
<path d="M120.832 162.331V161.47H120.982C121.138 161.47 121.297 161.459 121.459 161.437C121.626 161.409 121.773 161.375 121.901 161.336C122.029 161.292 122.127 161.247 122.194 161.203C122.199 160.985 122.185 160.754 122.152 160.509C122.119 160.259 122.077 160.011 122.027 159.766C121.977 159.521 121.929 159.306 121.885 159.122C121.935 159.089 121.996 159.058 122.068 159.03C122.146 158.997 122.23 158.98 122.319 158.98C122.447 158.98 122.553 159.019 122.637 159.097C122.72 159.17 122.781 159.303 122.82 159.498C122.848 159.599 122.873 159.732 122.896 159.899C122.918 160.061 122.935 160.231 122.946 160.409C122.962 160.582 122.971 160.743 122.971 160.894C122.971 161.178 122.943 161.4 122.887 161.562C122.831 161.723 122.712 161.863 122.528 161.98C122.355 162.086 122.127 162.172 121.843 162.239C121.564 162.3 121.28 162.331 120.991 162.331H120.832ZM121.584 158.354C121.445 158.354 121.333 158.312 121.25 158.228C121.166 158.139 121.124 158.025 121.124 157.886C121.124 157.741 121.166 157.627 121.25 157.543C121.333 157.46 121.445 157.418 121.584 157.418C121.729 157.418 121.843 157.46 121.926 157.543C122.01 157.627 122.052 157.741 122.052 157.886C122.052 158.025 122.01 158.139 121.926 158.228C121.843 158.312 121.729 158.354 121.584 158.354ZM122.829 158.354C122.684 158.354 122.57 158.312 122.486 158.228C122.403 158.139 122.361 158.025 122.361 157.886C122.361 157.741 122.403 157.627 122.486 157.543C122.57 157.46 122.684 157.418 122.829 157.418C122.974 157.418 123.088 157.46 123.171 157.543C123.255 157.627 123.297 157.741 123.297 157.886C123.297 158.025 123.255 158.139 123.171 158.228C123.088 158.312 122.974 158.354 122.829 158.354Z" fill="#0D1016"/>
<path d="M120.851 162.329C120.367 162.329 120.016 162.196 119.798 161.928C119.587 161.655 119.481 161.296 119.481 160.851L120.074 160.583C120.085 160.823 120.121 161.007 120.183 161.135C120.244 161.263 120.33 161.352 120.442 161.402C120.559 161.447 120.701 161.469 120.868 161.469H120.976V162.329H120.851ZM120.976 162.329V161.469C121.004 161.519 121.027 161.58 121.043 161.653C121.066 161.72 121.077 161.8 121.077 161.895C121.077 161.995 121.066 162.082 121.043 162.154C121.021 162.226 120.999 162.285 120.976 162.329ZM119.498 160.433L119.548 160.692C119.264 160.553 118.988 160.422 118.721 160.299C118.453 160.171 118.197 160.068 117.952 159.99C117.707 159.907 117.473 159.865 117.25 159.865C117.011 159.865 116.791 159.904 116.59 159.982C116.395 160.054 116.228 160.157 116.089 160.291C116.011 160.241 115.938 160.174 115.872 160.09C115.81 160.001 115.78 159.895 115.78 159.773C115.78 159.628 115.844 159.5 115.972 159.389C116.1 159.277 116.27 159.191 116.482 159.13C116.699 159.063 116.936 159.029 117.192 159.029C117.47 159.029 117.746 159.071 118.019 159.155C118.292 159.233 118.551 159.33 118.796 159.447C119.046 159.564 119.272 159.684 119.473 159.806C119.679 159.929 119.851 160.032 119.991 160.115C120.018 160.177 120.041 160.238 120.057 160.299C120.074 160.36 120.082 160.45 120.082 160.567C120.082 160.639 120.074 160.717 120.057 160.801C120.041 160.878 120.021 160.943 119.999 160.993C119.765 161.11 119.495 161.243 119.189 161.394C118.882 161.544 118.545 161.692 118.178 161.837C117.81 161.981 117.417 162.101 117 162.196C116.587 162.285 116.153 162.329 115.696 162.329H115.161V161.469H115.629C116.147 161.469 116.629 161.413 117.075 161.302C117.526 161.19 117.952 161.054 118.353 160.892C118.754 160.731 119.136 160.578 119.498 160.433Z" fill="#0D1016"/>
<path d="M115.199 162.33C114.931 162.33 114.706 162.288 114.522 162.204C114.338 162.121 114.191 162.009 114.079 161.87C113.973 161.731 113.89 161.583 113.829 161.427L113.687 161.268C113.547 160.945 113.397 160.622 113.235 160.299C113.079 159.976 112.926 159.67 112.776 159.38C112.631 159.091 112.497 158.837 112.375 158.62C112.442 158.548 112.523 158.484 112.617 158.428C112.717 158.367 112.823 158.336 112.935 158.336C113.052 158.336 113.152 158.364 113.235 158.419C113.319 158.47 113.391 158.57 113.453 158.72L114.263 160.625C114.369 160.87 114.489 161.074 114.622 161.235C114.756 161.391 114.962 161.469 115.241 161.469H115.299V162.33H115.199ZM112.124 162.33C111.957 162.33 111.796 162.316 111.64 162.288C111.484 162.26 111.361 162.226 111.272 162.188C111.127 162.126 111.024 162.054 110.963 161.97C110.907 161.887 110.879 161.792 110.879 161.686C110.879 161.586 110.896 161.5 110.93 161.427C110.963 161.355 110.999 161.296 111.038 161.252C111.189 161.324 111.361 161.38 111.556 161.419C111.751 161.458 111.949 161.475 112.149 161.469C112.4 161.463 112.631 161.436 112.843 161.385C113.054 161.33 113.23 161.26 113.369 161.177C113.514 161.087 113.606 160.993 113.645 160.893L114.18 161.36C114.135 161.505 114.035 161.653 113.879 161.803C113.723 161.954 113.5 162.079 113.21 162.179C112.926 162.279 112.564 162.33 112.124 162.33ZM115.299 162.33V161.469C115.333 161.519 115.358 161.58 115.374 161.653C115.397 161.72 115.408 161.8 115.408 161.895C115.408 161.995 115.397 162.082 115.374 162.154C115.352 162.226 115.327 162.285 115.299 162.33Z" fill="#0D1016"/>
<path d="M107.933 162.331V161.47H108.083C108.239 161.47 108.398 161.459 108.559 161.437C108.726 161.409 108.874 161.376 109.002 161.337C109.13 161.292 109.228 161.247 109.294 161.203C109.3 160.986 109.286 160.754 109.253 160.509C109.219 160.259 109.177 160.011 109.127 159.766C109.077 159.521 109.03 159.306 108.985 159.123C109.035 159.089 109.097 159.058 109.169 159.031C109.247 158.997 109.331 158.98 109.42 158.98C109.548 158.98 109.654 159.019 109.737 159.097C109.821 159.17 109.882 159.304 109.921 159.498C109.949 159.599 109.974 159.732 109.996 159.899C110.019 160.061 110.035 160.231 110.046 160.409C110.063 160.582 110.071 160.743 110.071 160.894C110.071 161.178 110.044 161.401 109.988 161.562C109.932 161.724 109.812 161.863 109.629 161.98C109.456 162.086 109.228 162.172 108.944 162.239C108.665 162.3 108.381 162.331 108.091 162.331H107.933ZM108.643 163.876C108.504 163.876 108.392 163.832 108.309 163.743C108.225 163.659 108.183 163.548 108.183 163.409C108.183 163.264 108.225 163.15 108.309 163.066C108.392 162.982 108.504 162.941 108.643 162.941C108.788 162.941 108.902 162.982 108.985 163.066C109.069 163.15 109.111 163.264 109.111 163.409C109.111 163.548 109.069 163.659 108.985 163.743C108.902 163.832 108.788 163.876 108.643 163.876ZM109.888 163.876C109.743 163.876 109.629 163.832 109.545 163.743C109.462 163.659 109.42 163.548 109.42 163.409C109.42 163.264 109.462 163.15 109.545 163.066C109.629 162.982 109.743 162.941 109.888 162.941C110.032 162.941 110.147 162.982 110.23 163.066C110.314 163.15 110.356 163.264 110.356 163.409C110.356 163.548 110.314 163.659 110.23 163.743C110.147 163.832 110.032 163.876 109.888 163.876Z" fill="#0D1016"/>
<path d="M103.955 162.464C103.214 162.464 102.618 162.38 102.167 162.213C101.716 162.041 101.39 161.796 101.189 161.478C100.989 161.161 100.889 160.785 100.889 160.35C100.889 159.988 100.936 159.721 101.031 159.548C101.125 159.37 101.259 159.281 101.432 159.281C101.515 159.281 101.59 159.292 101.657 159.314C101.724 159.331 101.777 159.353 101.816 159.381C101.788 159.504 101.763 159.629 101.741 159.757C101.724 159.88 101.716 160.013 101.716 160.158C101.716 160.509 101.802 160.793 101.975 161.01C102.147 161.222 102.406 161.375 102.752 161.47C103.097 161.565 103.526 161.612 104.038 161.612C104.462 161.612 104.838 161.576 105.166 161.503C105.495 161.431 105.773 161.344 106.002 161.244C106.23 161.138 106.4 161.038 106.511 160.943L106.303 161.428L106.336 159.699C106.375 159.682 106.425 159.665 106.486 159.648C106.553 159.632 106.623 159.623 106.695 159.623C106.807 159.623 106.896 159.651 106.963 159.707C107.035 159.763 107.074 159.849 107.08 159.966L107.096 160.751C107.107 161.008 107.185 161.191 107.33 161.303C107.475 161.414 107.695 161.47 107.99 161.47H108.065V162.33H107.965C107.542 162.33 107.205 162.258 106.954 162.113C106.704 161.963 106.556 161.737 106.511 161.436L106.854 161.587C106.687 161.748 106.461 161.896 106.177 162.03C105.893 162.163 105.562 162.269 105.183 162.347C104.81 162.425 104.4 162.464 103.955 162.464ZM108.065 162.33V161.47C108.099 161.52 108.124 161.581 108.141 161.654C108.163 161.72 108.174 161.801 108.174 161.896C108.174 161.996 108.163 162.083 108.141 162.155C108.118 162.227 108.093 162.286 108.065 162.33ZM104.164 157.902C104.025 157.902 103.913 157.863 103.83 157.785C103.752 157.702 103.713 157.59 103.713 157.451C103.713 157.317 103.752 157.209 103.83 157.125C103.913 157.042 104.025 157 104.164 157C104.297 157 104.403 157.042 104.481 157.125C104.565 157.209 104.607 157.317 104.607 157.451C104.607 157.59 104.565 157.702 104.481 157.785C104.403 157.863 104.297 157.902 104.164 157.902ZM103.537 158.997C103.398 158.997 103.286 158.955 103.203 158.871C103.119 158.782 103.078 158.668 103.078 158.529C103.078 158.384 103.119 158.27 103.203 158.186C103.286 158.103 103.398 158.061 103.537 158.061C103.682 158.061 103.796 158.103 103.88 158.186C103.963 158.27 104.005 158.384 104.005 158.529C104.005 158.668 103.963 158.782 103.88 158.871C103.796 158.955 103.682 158.997 103.537 158.997ZM104.782 158.997C104.637 158.997 104.523 158.955 104.439 158.871C104.356 158.782 104.314 158.668 104.314 158.529C104.314 158.384 104.356 158.27 104.439 158.186C104.523 158.103 104.637 158.061 104.782 158.061C104.927 158.061 105.041 158.103 105.125 158.186C105.208 158.27 105.25 158.384 105.25 158.529C105.25 158.668 105.208 158.782 105.125 158.871C105.041 158.955 104.927 158.997 104.782 158.997Z" fill="#0D1016"/>
</g>
<defs>
<linearGradient id="paint0_linear_2024_247708" x1="111.5" y1="65" x2="111.5" y2="95" gradientUnits="userSpaceOnUse">
<stop stop-color="#356BF5"/>
<stop offset="1" stop-color="#3537F5"/>
</linearGradient>
<linearGradient id="paint1_linear_2024_247708" x1="111.5" y1="65" x2="111.5" y2="95" gradientUnits="userSpaceOnUse">
<stop stop-color="#356BF5"/>
<stop offset="1" stop-color="#3537F5"/>
</linearGradient>
<linearGradient id="paint2_linear_2024_247708" x1="111.5" y1="65" x2="111.5" y2="95" gradientUnits="userSpaceOnUse">
<stop stop-color="#356BF5"/>
<stop offset="1" stop-color="#3537F5"/>
</linearGradient>
<linearGradient id="paint3_linear_2024_247708" x1="111.5" y1="65" x2="111.5" y2="95" gradientUnits="userSpaceOnUse">
<stop stop-color="#356BF5"/>
<stop offset="1" stop-color="#3537F5"/>
</linearGradient>
<clipPath id="clip0_2024_247708">
<rect width="224" height="188" fill="white"/>
</clipPath>
</defs>
</svg>
