<svg width="207" height="207" viewBox="0 0 207 207" fill="none" xmlns="http://www.w3.org/2000/svg">
<ellipse cx="84.4025" cy="84.3752" rx="84.4025" ry="84.3752" transform="matrix(0.9967 0.0811694 -0.0812223 0.996696 13.7065 0)" fill="#3537F5" fill-opacity="0.5"/>
<path d="M95.6447 79.9928C95.7347 81.1178 95.5546 82.4453 95.127 83.7503C94.7894 84.7853 94.1817 85.6103 93.3414 86.2928C92.4861 86.9828 91.5408 87.1103 90.513 86.8328C89.0725 86.4428 87.8796 85.6178 86.7843 84.6503C84.526 82.6553 82.6054 80.3453 80.6397 78.0728C79.1017 76.2953 77.5112 74.5553 75.6956 73.0478C74.4127 71.9828 72.9947 71.1503 71.3667 70.7078C71.1266 70.6403 70.894 70.5503 70.6689 70.4378C70.4289 70.3253 70.3914 69.9953 70.6014 69.8078C70.9015 69.5378 71.2091 69.2828 71.5317 69.0428C73.9475 67.2653 75.0579 64.7228 75.5906 61.9028C75.9507 59.9978 75.0354 58.3253 73.3323 57.3728C72.9422 57.1553 72.5146 57.0053 72.0944 56.8328C70.924 56.3528 69.8287 55.7603 68.9659 54.8078C67.8405 53.5628 67.833 51.9803 68.9584 50.7428C69.5736 50.0678 70.3238 49.5578 71.2016 49.2803C72.4395 48.8828 73.6849 48.4703 74.9454 48.1478C77.3536 47.5328 79.1392 46.2128 79.5969 42.5903C79.7319 41.5028 79.867 40.4153 80.3321 39.3803C80.8648 38.1953 81.6826 37.2578 82.7254 36.5378C83.4606 36.0278 84.2784 35.6228 85.0812 35.2178C86.154 34.6703 87.2644 34.1978 88.3222 33.6353C88.8924 33.3353 89.4251 32.9453 89.9277 32.5328C90.9406 31.7003 91.5558 30.6428 91.6008 29.3003C91.6008 29.1503 91.6083 29.0003 91.6383 28.8503C91.6983 28.5128 91.9834 28.3403 92.3061 28.4678C93.2063 28.8128 94.0316 29.2928 94.7443 29.9303C96.0573 31.1078 97.1976 32.4203 98.0379 33.9953C99.726 37.1753 100.739 40.5653 101.309 44.0978C101.669 46.3178 101.977 48.5603 101.894 50.8178C101.752 54.8378 100.866 58.6478 98.6081 62.0603C96.1323 65.7953 92.6661 68.1053 88.3447 69.1328C87.1368 69.4178 85.8764 69.5603 84.616 69.5453C84.3159 69.5453 84.0158 69.5753 83.7157 69.5978C83.4081 69.6203 83.108 69.6728 82.9505 69.9803C82.8454 70.1753 83.2281 70.3853 83.7682 70.4003C85.7339 70.4528 87.6695 70.2953 89.5676 69.7403C89.8077 69.6728 90.0478 69.5828 90.2879 69.5303C90.6705 69.4478 90.9931 69.5453 91.1506 69.9353C91.7583 71.4578 92.8387 72.6653 93.874 73.8803C95.157 75.3878 95.6672 77.0903 95.6447 79.0103C95.6447 79.2578 95.6447 79.5128 95.6447 80.0003V79.9928Z" fill="#F8A384"/>
<path d="M49.0625 155.045C49.01 154.857 48.95 154.655 48.935 154.467C48.8749 154.062 49.085 153.792 49.5052 153.74C50.2929 153.642 51.0882 153.5 51.8834 153.477C54.5018 153.41 57.0526 152.847 59.6034 152.36C61.1339 152.067 62.5894 151.497 64.0974 151.122C64.3375 151.062 64.5776 150.972 64.8252 150.942C65.1028 150.89 65.3428 151.032 65.3803 151.31C65.4479 151.7 65.4704 152.097 65.4779 152.495C65.5079 153.897 65.5604 155.315 65.5154 156.71C65.4554 158.622 65.808 160.505 65.808 162.402C65.808 165.162 66.1006 167.9 66.1981 170.652C66.2657 172.392 66.3482 174.147 66.4757 175.887C66.6033 177.53 66.8733 179.165 67.5411 180.702C68.1788 182.172 68.6289 183.71 69.0415 185.262C69.6793 187.632 69.6568 190.01 69.3417 192.402C69.1616 193.737 68.884 195.072 68.5464 196.377C67.9762 198.53 67.0609 200.517 65.748 202.332C65.2828 202.977 64.7351 203.57 64.1124 204.087C63.8798 204.275 63.6473 204.462 63.3847 204.612C62.9871 204.83 62.5369 205.047 62.1093 204.74C61.6291 204.41 61.8392 203.922 61.9892 203.502C62.717 201.53 63.5648 199.602 64.4951 197.72C64.8027 197.09 65.0503 196.437 65.3053 195.777C65.3954 195.53 65.3128 195.267 65.0277 195.162C64.8177 195.08 64.6376 195.162 64.5026 195.335C64.3825 195.492 64.27 195.665 64.1725 195.83C63.7748 196.527 63.3772 197.225 62.9795 197.922C61.8317 199.925 60.5788 201.852 58.8157 203.397C58.328 203.825 57.8104 204.222 57.2852 204.605C57.0826 204.732 56.8276 204.815 56.5875 204.852C56.2424 204.912 55.8672 204.515 55.9723 204.185C56.0623 203.847 56.2123 203.525 56.3624 203.21C57.1126 201.62 58.0955 200.165 59.0108 198.672C59.7385 197.465 60.3312 196.19 60.9689 194.952C61.0589 194.772 61.1265 194.585 61.179 194.397C61.239 194.135 61.1789 193.88 60.9089 193.76C60.6913 193.662 60.5188 193.812 60.4137 193.97C60.2036 194.255 60.0386 194.555 59.8435 194.855C58.8757 196.437 57.9229 198.027 56.9326 199.595C56.1523 200.84 55.042 201.792 53.9616 202.767C53.7441 202.955 53.4664 203.105 53.1964 203.232C52.8287 203.405 52.4611 203.12 52.5211 202.737C52.6337 202.092 52.9112 201.492 53.1663 200.892C54.1641 198.53 55.3045 196.25 56.4524 193.97C56.8425 193.205 57.1576 192.417 57.3977 191.6C57.4502 191.412 57.5102 191.202 57.4877 191.015C57.4652 190.895 57.3377 190.767 57.2177 190.677C57.0976 190.587 56.9101 190.587 56.8125 190.715C56.5124 191.105 56.1823 191.495 55.9422 191.93C55.1845 193.295 54.2767 194.547 53.3314 195.785C52.9113 196.34 52.3936 196.82 51.9059 197.33C51.7258 197.51 51.4783 197.63 51.2157 197.517C50.9081 197.39 50.7955 197.082 50.8256 196.767C50.8781 196.317 50.9531 195.875 51.0807 195.44C51.3432 194.63 51.6208 193.827 51.9509 193.04C53.2939 189.785 54.3517 186.447 54.9219 182.975C55.0119 182.375 55.1995 181.797 55.3196 181.212C55.4171 180.725 55.4921 180.23 55.5296 179.96C55.5221 179.225 55.4396 178.745 55.2895 178.257C52.9263 170.592 50.9756 162.815 49.055 155.03L49.0625 155.045ZM60.8638 178.58C60.2637 178.64 59.6785 178.767 59.0933 178.887C58.8832 178.925 58.7332 179.097 58.7257 179.307C58.6957 179.607 58.9132 179.742 59.1608 179.825C59.3034 179.862 59.4609 179.862 59.7685 179.907C60.6763 179.562 61.8016 179.72 62.8745 179.45C63.2646 179.352 63.6623 179.307 64.0524 179.187C64.1649 179.157 64.285 178.985 64.3075 178.872C64.345 178.64 64.165 178.505 63.9924 178.415C63.9024 178.377 63.8048 178.347 63.6998 178.347C62.7545 178.415 61.8092 178.475 60.8638 178.587V178.58Z" fill="#F8A384"/>
<path d="M90.5293 77.8398C87.9709 77.7873 85.9378 76.8348 84.2047 75.1623C83.1994 74.1948 82.4941 73.0773 82.209 71.7048C82.1565 71.4648 82.1115 71.2098 82.1265 70.9698C82.1565 70.4223 82.4491 70.2123 83.0193 70.2873C85.135 70.5648 87.2132 70.3248 89.2688 69.8148C89.6065 69.7323 89.9365 69.6048 90.2817 69.5223C90.6643 69.4323 90.9869 69.5223 91.1519 69.9123C91.8121 71.5248 93.0426 72.7323 94.0404 74.1048C94.273 74.4273 94.5356 74.7348 94.7456 75.0798C95.1358 75.7023 95.0757 76.0323 94.453 76.4748C93.5902 77.0898 92.6524 77.5623 91.5721 77.6898C91.1744 77.7348 90.7768 77.8023 90.5217 77.8398H90.5293Z" fill="#D98681"/>
<path d="M153.584 73.9031C153.792 74.0534 154.03 74.1478 154.249 74.2557C155.608 74.9998 157.068 75.5579 158.393 76.3744C160.607 77.744 162.868 79.0372 164.847 80.7564C165.445 81.2773 166.134 81.7091 166.779 82.1771C167.131 82.4182 167.458 82.3617 167.689 82.0286C167.807 81.8693 167.892 81.6803 167.982 81.5056C171.818 74.4633 175.618 67.4078 179.049 60.1557C179.268 59.7011 179.53 59.2885 180.024 58.7303C180.234 58.5674 180.614 58.2375 181.02 57.9395C181.51 57.5853 182.034 57.2917 182.506 56.9274C185.267 54.7385 188.296 52.987 191.493 51.491C192.256 51.1353 193.011 50.7198 193.746 50.2942C194.125 50.0663 194.491 49.7953 194.833 49.4925C195.063 49.2923 195.184 48.9836 195.041 48.6815C194.937 48.4308 194.676 48.3426 194.408 48.3586C193.715 48.3967 193 48.4101 192.324 48.5294C190.792 48.797 189.27 49.1242 187.798 49.6242C187.329 49.7845 186.825 49.8534 186.333 49.9346C186.175 49.9571 186.038 49.8333 186.008 49.6779C185.975 49.539 185.97 49.3608 186.041 49.2543C186.153 49.1042 186.338 48.9878 186.505 48.892C187.225 48.4397 187.987 48.0767 188.796 47.7701C191.188 46.8609 193.579 45.9517 195.901 44.8832C196.493 44.6088 197.099 44.3539 197.605 43.9481C197.926 43.7062 197.838 43.2473 197.453 43.1331C197.167 43.0369 196.864 42.9614 196.572 42.9528C195.119 42.9551 193.651 42.907 192.241 43.2954C190.446 43.788 188.674 44.3289 186.891 44.8338C186.559 44.9305 186.223 45.0365 185.883 45.1044C185.687 45.154 185.457 45.143 185.363 44.9282C185.25 44.6487 185.384 44.4377 185.596 44.2819C185.759 44.1718 185.945 44.0862 186.126 44.01C187.434 43.5109 188.732 42.9759 190.086 42.5806C191.771 42.0886 193.472 41.6779 195.107 41.0132C195.427 40.8805 195.753 40.7385 196.05 40.5503C196.342 40.3714 196.341 39.8326 196.042 39.6386C195.826 39.5142 195.595 39.3939 195.359 39.3613C194.709 39.2775 194.063 39.2318 193.415 39.2099C191.079 39.1576 188.844 39.7475 186.643 40.4527C185.885 40.6971 185.116 40.953 184.355 41.1831C184.162 41.247 183.966 41.2966 183.772 41.3297C183.555 41.3618 183.372 41.298 183.266 41.0946C183.124 40.8235 183.242 40.5858 183.473 40.464C184.095 40.1337 184.729 39.8158 185.375 39.5648C187.334 38.8054 189.267 37.9597 191.125 36.9877C191.519 36.7865 191.995 36.5695 191.877 36.0025C191.765 35.488 191.296 35.3517 190.844 35.2492C190.557 35.1767 190.248 35.1651 189.955 35.1493C189.147 35.1118 188.344 35.1742 187.564 35.3395C185.382 35.789 183.348 36.6405 181.482 37.8495C180.36 38.5834 179.254 39.3749 178.22 40.2474C177.686 40.6936 177.171 41.1562 176.683 41.6405C175.476 42.8374 174.427 44.1674 173.626 45.7137C172.894 47.1387 172.182 48.581 171.662 50.0923C171.118 51.681 170.218 53.0688 169.198 54.3666C168.128 55.7338 166.994 57.0962 165.871 58.4162C164.087 60.5232 162.453 62.7425 160.599 64.7684C159.309 66.1843 158.298 67.8076 156.967 69.165C155.996 70.1751 155.082 71.2467 154.155 72.2988C153.891 72.6022 153.64 72.9179 153.423 73.2468C153.274 73.4856 153.35 73.7448 153.582 73.8959L153.584 73.9031Z" fill="#F8A384"/>
<path d="M176.683 41.6405C175.476 42.8374 174.427 44.1674 173.626 45.7137L173.682 43.4978L173.626 40.464L174.432 37.4978C174.432 36.7479 174.657 35.323 175.557 35.623C176.457 35.923 176.933 36.2477 177.058 36.3726L177.058 38.6226L176.683 41.6405Z" fill="#F8A384"/>
<path fill-rule="evenodd" clip-rule="evenodd" d="M152.805 72.8416L152.79 72.8695L152.764 72.8614C152.525 73.2749 152.534 73.7333 152.767 74.1028C152.842 74.2527 152.979 74.4003 153.144 74.5085C153.29 74.6066 153.446 74.686 153.602 74.7655L153.713 74.8266L153.886 74.9091C154.322 75.1434 154.783 75.3659 155.247 75.5899C155.384 75.6563 155.522 75.7229 155.66 75.7899C156.474 76.1694 157.246 76.5379 157.979 76.9879C159.926 78.1932 162.195 80.156 164.025 81.739L164.623 82.26C164.936 82.5281 165.275 82.7805 165.613 83.0258C165.675 83.0598 165.732 83.102 165.79 83.1443C165.818 83.1654 165.847 83.1865 165.877 83.2066C165.902 83.2266 165.929 83.2442 165.955 83.2618C165.982 83.2794 166.008 83.297 166.034 83.317C166.221 83.4498 166.408 83.5826 166.603 83.7134C166.82 83.8687 167.042 83.9601 167.262 83.9897C169.753 80.1364 171.925 76.7349 173.152 74.8124C173.256 74.6495 173.354 74.4972 173.444 74.3561C173.643 73.9934 173.829 73.642 174.014 73.2834C176.087 69.3575 178.092 65.4125 179.985 61.4062C180.15 61.0612 180.355 60.72 180.807 60.2053L181.006 60.0301C181.209 59.8692 181.463 59.6699 181.72 59.4778C181.753 59.4554 181.786 59.433 181.819 59.4106C181.986 59.2965 182.152 59.184 182.329 59.0735C182.631 58.876 182.937 58.6692 183.226 58.4522C183.931 57.8949 184.639 57.2973 185.348 56.6998C187.38 54.9891 189.491 53.2244 191.787 52.1478C192.606 51.768 193.419 51.312 194.095 50.9269C194.53 50.6751 194.933 50.3698 195.319 50.0307C195.815 49.5889 195.968 48.9349 195.705 48.3554C195.5 47.8682 194.975 47.5684 194.344 47.604L193.966 47.6206C193.388 47.6487 192.772 47.6802 192.17 47.7857C191.218 47.954 190.154 48.1632 189.044 48.456C191.59 47.4862 193.895 46.6022 196.19 45.5493L196.432 45.4397C196.977 45.1944 197.541 44.9285 198.055 44.5206C198.416 44.2589 198.592 43.8169 198.516 43.3702C198.438 42.9163 198.112 42.5505 197.657 42.4099C197.406 42.3269 196.999 42.219 196.582 42.2081L196.136 42.2055C195.376 42.2007 194.611 42.2051 193.84 42.2663C194.361 42.0984 194.879 41.9161 195.382 41.7144C195.434 41.6918 195.485 41.6695 195.536 41.6473C195.849 41.5109 196.155 41.3777 196.454 41.1827C196.787 40.984 196.997 40.5789 197.014 40.1286C197.014 39.6753 196.807 39.2593 196.448 39.0203C196.155 38.8479 195.834 38.6839 195.468 38.6346C194.775 38.5397 194.105 38.4931 193.436 38.4774C191.634 38.4333 189.898 38.7525 188.255 39.201C189.406 38.7008 190.466 38.1805 191.485 37.6564C191.492 37.653 191.498 37.6495 191.505 37.6459C191.929 37.4264 192.851 36.9495 192.612 35.8428C192.397 34.8684 191.488 34.6411 191.036 34.5283C191.032 34.5273 191.028 34.5262 191.023 34.5252C190.678 34.4386 190.344 34.4189 190.036 34.4073C189.085 34.3644 188.228 34.4271 187.405 34.605C185.172 35.0692 183.045 35.9481 181.072 37.2196C179.786 38.0636 178.698 38.8581 177.731 39.6714C177.5 39.8664 177.276 40.0609 177.059 40.2553L177.059 42.3256C177.559 41.8179 178.111 41.3131 178.719 40.805C179.632 40.0229 180.676 39.2648 181.903 38.4613C183.719 37.2906 185.677 36.4767 187.735 36.0557C188.426 35.9084 189.167 35.8485 189.942 35.88C189.984 35.8826 190.025 35.885 190.065 35.8873C190.299 35.9009 190.504 35.9128 190.685 35.9602C190.793 35.9832 191.101 36.0494 191.153 36.1202C191.153 36.1353 191.071 36.1772 190.984 36.2218C190.935 36.2472 190.884 36.2735 190.845 36.2961C189.111 37.2087 187.259 38.0385 185.122 38.8577C184.491 39.1064 183.878 39.4159 183.297 39.7094C183.245 39.7355 183.194 39.7614 183.143 39.7871C182.845 39.9444 182.621 40.1971 182.524 40.5068C182.43 40.7999 182.465 41.1335 182.615 41.4334C182.843 41.8906 183.346 42.1421 183.898 42.0513C184.137 42.0128 184.376 41.9506 184.605 41.8762L184.635 41.8668C185.128 41.7153 185.641 41.5576 186.15 41.386L186.878 41.15C188.928 40.489 191.139 39.8981 193.403 39.9406C194.028 39.9688 194.651 40.0136 195.275 40.0893C195.282 40.0872 195.301 40.0974 195.31 40.1025C195.231 40.1375 195.152 40.1701 195.074 40.2028C194.995 40.2354 194.917 40.2681 194.837 40.3031C193.724 40.7645 192.54 41.1013 191.388 41.4293C191.286 41.4585 191.183 41.4877 191.081 41.5169C189.562 41.9369 188.071 42.4504 186.666 42.9932L185.864 43.2977C185.662 43.3803 185.413 43.492 185.179 43.654C184.637 44.0466 184.442 44.635 184.67 45.2013C184.896 45.7368 185.441 45.9685 186.054 45.8207C186.312 45.7687 186.608 45.6825 186.889 45.6005L189.128 44.9466C190.223 44.627 191.325 44.3054 192.44 44.0032C193.595 43.6815 194.806 43.6851 196.085 43.6888L196.139 43.689L196.576 43.6865C196.584 43.6841 196.594 43.6863 196.604 43.6888C196.613 43.6908 196.622 43.6929 196.633 43.6933C196.474 43.7792 196.305 43.859 196.132 43.9401C196.033 43.9869 195.932 44.0342 195.832 44.0833L195.583 44.195C193.344 45.2239 191.065 46.0923 188.532 47.0507C187.638 47.3897 186.852 47.7755 186.113 48.2413C185.899 48.3662 185.65 48.5325 185.451 48.7861C185.203 49.1399 185.223 49.5322 185.284 49.8193C185.371 50.3566 185.897 50.7419 186.455 50.6727L186.621 50.6244C187.092 50.5495 187.562 50.4746 188.046 50.3101C189.575 49.7933 191.132 49.4792 192.464 49.2469C192.966 49.1471 193.496 49.1172 194.062 49.1005L194.162 49.0948C194.147 49.1059 194.132 49.1171 194.117 49.1282C193.869 49.3109 193.626 49.4896 193.373 49.63C192.732 50.0046 191.96 50.4407 191.182 50.8007C188.865 51.8836 186.8 53.5646 184.815 55.2225C184.813 55.2326 184.804 55.2389 184.796 55.2444C184.791 55.2479 184.787 55.251 184.785 55.2546C184.655 55.3707 184.537 55.4755 184.41 55.5751C183.713 56.1612 183.022 56.7381 182.322 57.2861C182.082 57.4812 181.807 57.6631 181.53 57.8378C181.44 57.9001 181.347 57.9606 181.253 58.0214C181.124 58.1055 180.993 58.1901 180.87 58.2805C180.582 58.4975 180.301 58.7124 180.087 58.8919L179.758 59.1833C179.54 59.4267 179.356 59.6523 179.203 59.8768C179.194 59.8792 179.191 59.8827 179.189 59.8856C179.187 59.8877 179.186 59.8894 179.183 59.8903C178.97 60.179 178.812 60.4673 178.661 60.7773C176.973 64.364 175.183 67.8947 173.336 71.4186C173.303 71.4672 173.28 71.5209 173.262 71.5653C173.259 71.5818 173.246 71.5932 173.239 71.5953L173.219 71.6325L173.218 71.6336C172.914 72.2222 172.609 72.8109 172.3 73.3851C172.111 73.753 171.909 74.1323 171.705 74.5043C170.371 77.0269 169 79.5599 167.616 82.0972L167.617 82.1281L167.595 82.1344L167.521 82.2812L167.425 82.4569C167.376 82.4227 167.335 82.3923 167.293 82.3619C167.271 82.3457 167.249 82.3295 167.225 82.3127C167.186 82.2865 167.148 82.2607 167.112 82.2354C167.05 82.1926 166.99 82.1513 166.924 82.1116C166.857 82.0687 166.79 82.0258 166.737 81.9787C166.633 81.9155 166.543 81.848 166.46 81.7784C166.164 81.5679 165.884 81.3604 165.634 81.1445L165.036 80.6236L164.883 80.4917C163.041 78.9041 160.787 76.9617 158.793 75.7345C157.993 75.2416 157.148 74.8396 156.332 74.4529C155.751 74.1771 155.178 73.8992 154.619 73.5933L154.545 73.5526L154.402 73.4926C154.377 73.4813 154.354 73.4693 154.332 73.4577C154.299 73.44 154.266 73.423 154.23 73.4102C154.363 73.2229 154.517 73.0294 154.721 72.7902L155.437 71.9794C155.547 71.8547 155.656 71.7295 155.766 71.604C156.221 71.084 156.68 70.5596 157.15 70.0573C157.21 69.9931 157.27 69.9307 157.33 69.8682C157.389 69.8058 157.449 69.7434 157.509 69.6792C158.262 68.9124 158.913 68.0659 159.547 67.2401C159.589 67.1864 159.631 67.1325 159.673 67.0784C160.146 66.47 160.637 65.8379 161.16 65.2691C162.061 64.2872 162.917 63.2561 163.751 62.2313C163.819 62.1448 163.888 62.0584 163.956 61.9722C164.119 61.7649 164.281 61.559 164.448 61.3557C164.556 61.215 164.658 61.0835 164.77 60.9572C164.957 60.715 165.153 60.478 165.35 60.2409C165.594 59.9273 165.848 59.6188 166.106 59.3247C166.125 59.3006 166.143 59.2766 166.161 59.2529C166.202 59.1974 166.243 59.1434 166.288 59.0919C166.313 59.0572 166.341 59.0256 166.369 58.9941C166.397 58.9625 166.425 58.9309 166.45 58.8962C167.799 57.307 168.859 56.013 169.799 54.8166C171.084 53.168 171.884 51.7859 172.378 50.3211C172.91 48.7984 173.65 47.3168 174.303 46.0478L173.49 44.4278C173.301 44.7367 173.123 45.0506 172.956 45.3706C172.285 46.6839 171.509 48.2307 170.959 49.8524C170.504 51.1572 169.781 52.3998 168.603 53.9077C167.683 55.0906 166.635 56.3732 165.287 57.9387C164.914 58.3757 164.546 58.827 164.194 59.2813C163.881 59.654 163.57 60.0339 163.263 60.4282C162.232 61.7138 161.166 63.0407 160.041 64.2753C159.436 64.9414 158.889 65.6519 158.365 66.3332L158.356 66.3456C158.312 66.4029 158.268 66.4599 158.224 66.5167C157.633 67.2802 157.079 67.9958 156.429 68.6583C155.698 69.4134 155.007 70.2025 154.334 70.9719L154.313 70.9948L153.599 71.8129C153.542 71.8843 153.484 71.9557 153.43 72.0107C153.414 72.0333 153.399 72.0504 153.385 72.0666C153.375 72.0786 153.365 72.09 153.355 72.1028C153.136 72.3699 152.954 72.6027 152.805 72.8416Z" fill="#0D1016"/>
<path d="M176.963 37.3071L177.711 37.3667L177.711 37.3654L176.963 37.3071ZM176.958 36.0319L177.707 35.9961L177.707 35.9926L176.958 36.0319ZM176.944 35.7647L176.194 35.7945L176.195 35.804L176.944 35.7647ZM176.32 34.8569L176.076 35.5663L176.086 35.5697L176.096 35.5729L176.32 34.8569ZM175.16 35.2395L174.556 34.7947L174.554 34.7983L175.16 35.2395ZM174.609 36.1598L173.928 35.8458L173.925 35.8513L174.609 36.1598ZM173.902 37.8654L173.195 37.6151L173.182 37.6524L173.173 37.6909L173.902 37.8654ZM173.418 41.0722L174.168 41.0684L174.168 40.9765L174.145 40.8874L173.418 41.0722ZM176.953 40.5481L177.699 40.4753L177.699 40.4753L176.953 40.5481ZM176.311 41.6983C176.351 42.1106 176.718 42.4122 177.13 42.372C177.543 42.3318 177.844 41.965 177.804 41.5527L176.311 41.6983ZM173.592 45.6313L174.222 46.0382L175.036 44.7783L174.406 44.3713L173.592 45.6313ZM177.711 37.3654C177.749 36.8805 177.726 36.3991 177.707 35.9961L176.209 36.0676C176.228 36.482 176.245 36.8719 176.216 37.2487L177.711 37.3654ZM177.707 35.9926L177.693 35.7254L176.195 35.804L176.209 36.0712L177.707 35.9926ZM177.693 35.7348C177.665 35.0319 177.258 34.364 176.543 34.1409L176.096 35.5729C176.106 35.5759 176.123 35.5838 176.143 35.613C176.164 35.6434 176.191 35.7019 176.194 35.7945L177.693 35.7348ZM176.563 34.1474C175.805 33.8878 175.017 34.1695 174.556 34.7947L175.764 35.6844C175.861 35.5525 175.977 35.5325 176.076 35.5663L176.563 34.1474ZM174.554 34.7983C174.319 35.1208 174.102 35.4676 173.928 35.8458L175.29 36.4737C175.413 36.2071 175.574 35.9458 175.766 35.6808L174.554 34.7983ZM173.925 35.8513C173.699 36.3531 173.42 36.9807 173.195 37.6151L174.609 38.1156C174.81 37.5467 175.066 36.9702 175.293 36.4682L173.925 35.8513ZM173.173 37.6909C173.065 38.1404 172.911 38.8435 172.798 39.4981C172.742 39.8244 172.694 40.1502 172.668 40.4315C172.646 40.6747 172.626 41.0003 172.692 41.2571L174.145 40.8874C174.152 40.9141 174.138 40.8335 174.162 40.5694C174.183 40.3433 174.224 40.0606 174.277 39.7524C174.383 39.1379 174.529 38.4675 174.631 38.0398L173.173 37.6909ZM176.206 40.6209L176.311 41.6983L177.804 41.5527L177.699 40.4753L176.206 40.6209ZM172.668 41.0761C172.67 41.4591 172.67 42.3785 172.745 43.2522C172.783 43.6864 172.841 44.1386 172.936 44.5206C172.984 44.7111 173.047 44.9085 173.134 45.0865C173.215 45.2523 173.353 45.4773 173.592 45.6313L174.406 44.3713C174.499 44.4316 174.511 44.4878 174.481 44.427C174.457 44.3783 174.425 44.2912 174.391 44.1565C174.324 43.8882 174.274 43.5275 174.24 43.1235C174.171 42.3209 174.17 41.4633 174.168 41.0684L172.668 41.0761ZM176.216 37.2474C176.128 38.3499 176.096 39.4843 176.206 40.6209L177.699 40.4753C177.6 39.459 177.627 38.4204 177.711 37.3667L176.216 37.2474Z" fill="black"/>
<path d="M43.8225 118.343C44.2726 112.785 45.308 107.34 46.921 101.993C48.1364 97.9576 49.4118 93.945 51.0173 90.045C52.5703 86.295 54.3634 82.6576 56.4566 79.1626C57.762 76.9951 59.4351 75.1276 61.2807 73.4176C62.2335 72.5326 63.2839 71.7751 64.6868 71.6851C65.272 71.6551 65.8722 71.4376 66.4199 71.1976C68.7907 70.1626 71.0339 70.6201 73.1796 71.8276C74.3125 72.4651 75.3178 73.2901 76.2556 74.2276C78.3863 76.35 80.3595 78.6076 82.3176 80.8876C83.6005 82.3576 84.9735 83.7676 86.474 85.0201C87.7869 86.1226 89.2724 86.9401 91.0129 87.2476C91.9057 87.3976 92.686 87.225 93.4363 86.7676C95.1318 85.7101 95.9721 84.1126 96.4147 82.2451C96.8799 80.2651 96.8724 78.2701 96.4823 76.2826C96.2197 75.0001 96.3397 74.88 97.6151 74.8575C98.9205 74.835 100.226 74.8501 101.636 74.8501C104.487 74.8876 139.171 83.7975 142.112 83.505C142.502 83.4675 144.16 82.3876 146.524 80.7376C147.461 80.0776 147.798 78.81 148.924 78C148.586 76.545 148.225 76.8225 148.924 77.625C152.112 75.3225 149.862 74.97 153.425 72.375C153.695 72.1725 154.281 71.4525 154.551 71.25C154.558 71.25 154.175 69.75 156.051 67.5C156.441 67.215 156.036 68.1525 156.426 67.875C156.966 70.185 157.176 66.375 157.176 66.375C156.583 64.9424 159.427 61.875 160.928 65.625C164.679 66 161.378 65.7 162.053 65.625C162.256 65.595 164.101 67.1625 164.304 67.125C165.039 66.9975 164.289 68.4976 164.95 68.2576C165.25 68.1601 165.535 68.0475 165.82 67.92C166.12 67.7925 159.045 63.525 159.338 63.375L171.806 76.5V76.875L173.067 77.1226L172.864 77.0828L173.007 77.5928C172.917 77.6303 173.195 77.6401 173.022 77.7451H173.015C172.722 77.9476 172.34 78.2401 171.837 78.6376C171.627 78.7951 171.409 78.9676 171.169 79.1776H171.162C171.049 79.2601 170.944 79.3576 170.824 79.4476C169.099 80.8426 174.193 76.1326 171.454 78.4801C171.424 78.5026 171.387 78.5325 171.357 78.5625C171.012 78.8475 170.658 80.4376 170.305 80.7376C160.552 89.0701 148.916 103.763 147.423 104.25C144.189 105.307 106.686 98.7676 103.317 99.3301C102.642 99.4501 102.552 99.3901 102.379 98.7001C102.079 97.4851 101.831 96.2626 101.524 95.0476C101.254 94.0351 100.939 93.0301 100.639 92.0176C100.601 91.8675 100.549 91.7176 100.466 91.5976C100.384 91.4851 100.256 91.3651 100.136 91.3501C99.9634 91.3276 99.9034 91.5075 99.8959 91.6651C99.8358 92.07 99.9484 92.4526 100.046 92.8501C100.631 95.0776 101.029 97.3501 101.411 99.6226C101.741 101.595 101.982 103.583 102.237 105.563C102.439 107.108 102.604 108.638 102.762 110.183C102.814 110.73 102.799 111.285 102.829 111.833C102.942 114.285 102.972 116.738 103.197 119.183C103.527 122.535 103.43 125.895 103.475 129.248C103.482 130.245 103.475 131.235 103.655 132.233C103.782 132.96 103.797 133.755 103.655 134.483C103.452 135.578 103.505 136.673 103.467 137.775C103.415 139.425 103.505 141.083 103.204 142.725C103.114 143.205 103.182 143.723 103.167 144.218C103.047 146.52 102.949 148.815 102.792 151.118C102.619 153.668 102.462 156.218 102.192 158.745C101.899 161.535 101.494 164.31 101.149 167.085C100.991 168.278 100.849 169.463 100.699 170.663C100.579 171.608 100.406 171.788 99.4607 171.81C98.1553 171.833 96.8574 171.9 95.5669 172.02C94.3815 172.133 93.1587 172.17 91.9733 171.87C91.7332 171.803 91.4781 171.81 91.223 171.818C89.6625 171.878 88.1245 171.6 86.579 171.428C84.5909 171.21 82.6177 170.88 80.622 170.64C77.3885 170.243 74.2074 169.523 71.0189 168.855C69.9911 168.638 68.9707 168.398 67.9279 168.188C67.4702 168.09 67.2227 167.813 67.2227 167.348C67.2302 166.043 66.9526 164.768 66.9301 163.455C66.8925 161.055 66.81 158.648 66.5549 156.27C66.3524 154.38 66.4424 152.46 65.9547 150.593C65.8272 150.098 65.9172 149.73 66.3749 149.445C67.4027 148.8 67.6728 147.81 67.4327 146.7C67.2752 145.943 67.2902 145.208 67.2602 144.45C67.1626 142.508 67.0426 140.558 66.9451 138.608C66.9076 137.813 66.915 137.003 66.9075 136.208C66.9 135.503 66.885 134.813 66.75 134.108C66.6375 133.53 66.6374 132.915 66.6825 132.315C66.795 130.823 66.9225 129.315 67.1026 127.838C67.4477 124.92 68.5131 122.213 69.5934 119.505C71.409 114.945 73.1196 110.348 74.2374 105.548C74.7251 103.485 75.0327 101.415 75.3103 99.3376C75.3703 98.9401 75.3103 98.5275 75.2878 98.13C75.2803 98.07 75.1677 97.9726 75.0852 97.9576C75.0027 97.9426 74.8976 97.9951 74.8376 98.0701C74.5975 98.3476 74.5901 98.7151 74.53 99.0526C74.0424 101.513 73.5247 103.958 72.8945 106.388C71.9117 110.183 70.6063 113.858 69.1508 117.488C68.1155 120.098 67.0126 122.678 66.3824 125.423C66.0823 126.75 65.8947 128.078 65.7447 129.428C65.5721 130.928 65.4071 132.435 65.5646 133.92C65.8422 136.665 65.6321 139.425 66.0222 142.163C66.1723 143.25 66.1048 144.36 66.1348 145.47C66.1573 146.115 66.1273 146.768 66.2473 147.42C66.3898 148.178 66.2548 148.358 65.5496 148.695C64.2291 149.31 62.8112 149.693 61.4083 150.06C58.3623 150.87 55.2637 151.433 52.0977 151.68C50.7998 151.793 49.5093 151.883 48.2039 151.883C47.9038 151.883 47.5962 151.883 47.3111 151.845C46.876 151.793 46.5609 151.575 46.4633 151.118C45.9757 148.71 45.398 146.318 45.0004 143.903C44.5202 140.948 44.1976 137.963 43.8225 134.985C43.755 134.438 43.785 133.883 43.7625 133.335C43.6724 130.935 43.4999 128.528 43.5149 126.128C43.5224 123.533 43.6274 120.923 43.8225 118.335V118.343ZM48.579 128.618C48.7816 128.648 48.9766 128.655 49.1792 128.655C51.715 128.678 54.2584 128.678 56.7942 128.955C57.6345 129.045 58.4898 128.993 59.3225 129.195C59.8027 129.308 60.3054 129.338 60.7855 129.143C60.9731 129.06 61.1157 128.903 61.1307 128.685C61.1382 128.453 61.0331 128.31 60.8381 128.205C60.4779 128.033 60.0878 127.92 59.6902 127.898C57.4469 127.8 55.2262 127.41 52.9754 127.598C51.52 127.598 50.0795 127.575 48.6315 127.605C48.1139 127.613 47.7913 127.883 47.8738 128.123C47.9863 128.46 48.2715 128.55 48.564 128.61L48.579 128.618Z" fill="#DDED95"/>
<path fill-rule="evenodd" clip-rule="evenodd" d="M58.5628 205.505C58.6309 205.462 58.6974 205.417 58.762 205.37C58.852 205.317 58.9271 205.257 59.0096 205.19C59.1226 205.103 59.2348 204.992 59.347 204.881C59.5849 204.645 59.8227 204.41 60.0674 204.41C60.392 204.41 60.4305 204.69 60.4714 204.988C60.4957 205.165 60.5209 205.348 60.6076 205.482C61.0503 206.187 61.7705 206.547 62.6558 206.367C64.0512 206.09 65.1241 205.272 66.0394 204.245C66.0519 204.23 66.0643 204.217 66.0766 204.203C66.116 204.159 66.1534 204.118 66.182 204.072C66.8947 203.262 67.5174 202.37 68.0425 201.432C69.4005 199.04 70.1958 196.475 70.6534 193.775C70.6596 193.734 70.6659 193.694 70.6723 193.654C70.6804 193.603 70.6887 193.552 70.697 193.501C70.7024 193.468 70.7079 193.435 70.7134 193.403C70.7212 193.356 70.729 193.309 70.7369 193.262C70.816 192.79 70.896 192.313 70.9235 191.84C70.9553 191.278 70.9459 190.709 70.9377 190.209C70.9342 190.001 70.931 189.805 70.931 189.627C71.1711 186.74 70.4809 184.19 69.468 181.752L69.3802 181.548C69.244 181.231 69.106 180.911 68.9579 180.59C68.4327 179.412 68.1626 178.257 68.1701 176.975C68.1752 175.835 68.1024 174.703 68.0296 173.571C67.9964 173.056 67.9633 172.54 67.9375 172.025C67.9356 172 67.9333 171.976 67.9308 171.951C67.9282 171.926 67.9253 171.9 67.9225 171.875C67.9191 171.844 67.9157 171.813 67.9127 171.783C67.9108 171.763 67.909 171.744 67.9075 171.725C67.84 170.555 67.9975 170.27 69.2504 170.607C71.0703 171.11 72.9156 171.531 74.7571 171.951L75.2449 172.062C77.9833 172.685 80.7592 173.067 83.5501 173.405C84.2423 173.489 84.9337 173.576 85.6251 173.664L85.6347 173.665C87.0233 173.84 88.4119 174.015 89.8072 174.17C90.7525 174.275 91.7128 174.305 92.6656 174.312C93.6942 174.322 94.7257 174.316 95.7564 174.311H95.758H95.7597H95.7613H95.7629H95.7646H95.7662C96.3862 174.308 97.006 174.305 97.6247 174.305L98.2979 174.424C99.2585 174.477 101.109 174.211 101.866 172.889C101.917 172.635 102.008 172.378 102.149 172.115C102.328 171.784 102.373 171.375 102.419 170.967C102.436 170.81 102.454 170.654 102.479 170.502C102.561 170.06 102.629 169.617 102.689 169.167C103.027 166.587 103.364 164.007 103.702 161.42C103.811 160.61 103.867 159.794 103.923 158.979C103.963 158.397 104.003 157.815 104.062 157.235C104.302 154.85 104.452 152.45 104.602 150.05C104.617 149.799 104.615 149.545 104.614 149.29C104.612 148.89 104.61 148.489 104.67 148.1C104.939 146.314 104.994 144.512 105.048 142.711C105.065 142.16 105.082 141.608 105.105 141.057C105.292 136.76 105.247 132.44 105.195 128.127C105.191 127.839 105.188 127.55 105.185 127.262C105.161 125.053 105.136 122.842 104.977 120.62L104.945 120.149C104.783 117.769 104.619 115.376 104.542 112.977C104.505 111.582 104.369 110.18 104.212 108.785C104.116 107.957 103.995 107.131 103.874 106.305C103.712 105.199 103.55 104.092 103.447 102.98C103.409 102.613 103.368 102.321 103.334 102.087C103.268 101.618 103.234 101.382 103.334 101.247C103.734 100.746 104.655 100.857 104.999 100.898L105.03 100.902C107.232 101.188 109.45 101.363 111.667 101.537C115.154 101.812 118.639 102.086 122.06 102.792C125.15 103.437 126.316 103.488 127.772 103.551C129.296 103.617 131.138 103.697 135.835 104.487C136.835 104.655 137.745 104.817 138.58 104.967C143.058 105.767 145.402 106.186 148.146 104.922L147.066 103.07C145.111 103.774 132.889 102.342 121.853 101.049C113.154 100.03 105.191 99.0969 103.574 99.3647C102.952 99.4622 102.906 99.4472 102.749 98.8172C102.639 98.3705 102.539 97.9204 102.438 97.4701C102.276 96.7484 102.115 96.0258 101.916 95.3147C101.639 94.2497 101.301 93.1922 100.963 92.1497C100.821 91.6997 100.581 91.3022 100.026 91.3097C99.6579 91.3172 99.4253 91.6922 99.3878 92.3522C99.3503 93.0572 99.4704 93.7472 99.6504 94.4222C100.242 96.6389 100.616 98.8978 100.99 101.15C101.034 101.413 101.077 101.675 101.121 101.937C101.35 103.31 101.496 104.693 101.641 106.073C101.706 106.683 101.77 107.292 101.841 107.9C102.117 110.27 102.248 112.649 102.378 115.027C102.418 115.749 102.458 116.471 102.501 117.192C102.571 118.279 102.6 119.368 102.629 120.457C102.663 121.722 102.697 122.985 102.794 124.242C103.069 127.66 103.042 131.081 103.015 134.504C103.004 135.941 102.993 137.378 103.004 138.815C102.799 139.986 102.775 141.173 102.75 142.361C102.726 143.524 102.702 144.689 102.509 145.842C102.453 146.171 102.458 146.514 102.462 146.858C102.465 147.07 102.468 147.283 102.456 147.492C102.314 150.087 102.141 152.682 101.909 155.277C101.854 155.883 101.818 156.492 101.781 157.101C101.728 157.991 101.675 158.883 101.564 159.77C101.354 161.401 101.159 163.032 100.964 164.665C100.809 165.961 100.653 167.259 100.491 168.56C100.371 169.445 100.236 170.345 100.063 171.23C99.9355 171.987 99.8755 172.032 99.0802 172.04C98.7687 172.045 98.4574 172.052 98.1462 172.058C96.4487 172.091 94.7549 172.125 93.0558 172.1C90.1448 172.047 87.2714 171.665 84.3904 171.26C82.7624 171.035 81.1268 170.817 79.4838 170.615C77.6479 170.382 75.8394 170.001 74.0357 169.62C73.3406 169.474 72.6463 169.327 71.9513 169.19C70.7735 168.95 69.6031 168.695 68.4252 168.432C67.7875 168.297 67.6899 168.177 67.6374 167.54C67.6225 167.375 67.6208 167.203 67.6191 167.034L67.6183 166.958C67.6176 166.899 67.6167 166.84 67.6149 166.782C67.5727 164.995 67.4601 163.203 67.3473 161.411L67.3471 161.407C67.2996 160.651 67.252 159.895 67.2098 159.14C67.1794 158.641 67.1524 158.142 67.1254 157.641C67.012 155.543 66.898 153.433 66.5345 151.362C66.467 150.965 66.5721 150.687 66.8722 150.447C67.75 149.765 67.9901 148.85 67.93 147.777C67.8796 146.822 67.8451 145.866 67.8107 144.91L67.8106 144.908C67.7477 143.163 67.6848 141.419 67.5249 139.685C67.2773 137.022 67.2623 134.375 67.3148 131.727C67.3749 128.127 68.3277 124.707 69.6556 121.385L69.8826 120.817C70.8501 118.398 71.8146 115.986 72.6566 113.51C73.9395 109.707 74.9823 105.845 75.5825 101.862C75.6727 101.206 75.716 100.54 75.7595 99.8729L75.7595 99.8718C75.7811 99.5402 75.8027 99.2083 75.8301 98.8772C75.8434 98.7911 75.8215 98.6991 75.8007 98.6116L75.7926 98.5772C75.7176 98.2172 75.5375 97.9022 75.1474 97.8422C74.8098 97.7972 74.5922 98.0447 74.4121 98.2922C74.2222 98.5567 74.161 98.8702 74.1012 99.1774C74.0948 99.2099 74.0885 99.2423 74.082 99.2747C73.9547 99.9149 73.8198 100.551 73.685 101.188L73.6844 101.191L73.6838 101.194C73.5489 101.83 73.4141 102.467 73.2868 103.107C72.4765 107.09 71.2836 110.96 69.8882 114.785C69.4402 116.021 68.9482 117.237 68.4565 118.453L68.4562 118.453C67.7458 120.21 67.0359 121.965 66.4595 123.777C65.5818 126.515 65.1016 129.32 65.0941 132.2C65.0909 132.695 65.0841 133.192 65.0772 133.689C65.0516 135.547 65.0259 137.411 65.1916 139.257C65.2592 140.041 65.2934 140.825 65.3275 141.608C65.3807 142.825 65.4337 144.04 65.6118 145.25C65.7151 145.926 65.7081 146.617 65.7011 147.31C65.698 147.623 65.6948 147.937 65.7018 148.25C65.7018 148.595 65.5142 148.797 65.2066 148.925C65.07 148.98 64.9344 149.042 64.7986 149.104C64.5692 149.209 64.3394 149.314 64.1038 149.39C60.6976 150.462 57.2465 151.242 53.6979 151.67C51.7397 151.91 49.8041 151.962 47.8384 151.94C47.0582 151.932 46.9906 151.842 46.8406 151.122C46.7172 150.518 46.5899 149.915 46.4625 149.311C46.1562 147.858 45.8495 146.404 45.5952 144.942C45.2504 142.918 44.9846 140.873 44.7205 138.841L44.7024 138.702C44.2073 134.862 44.0722 131.015 44.1547 127.16C44.1547 126.604 44.1434 126.047 44.132 125.491L44.132 125.489C44.1064 124.237 44.0809 122.985 44.1847 121.745C44.228 121.212 44.269 120.678 44.3101 120.145L44.3102 120.144L44.3103 120.142L44.3104 120.141L44.3105 120.14L44.3106 120.139C44.4686 118.085 44.6268 116.029 44.9125 113.982C45.7152 108.087 47.4633 102.447 49.2939 96.8147C50.997 91.5497 53.3527 86.5847 55.9336 81.6947C57.3815 78.9647 59.2947 76.5872 61.5529 74.4947C62.5058 73.6097 63.5636 72.8822 64.9666 72.7922C65.5493 72.7623 66.1395 72.5391 66.6926 72.3298L66.6996 72.3272C68.5977 71.5997 70.4359 71.7572 72.2364 72.6047C73.3843 73.1447 74.4197 73.8497 75.3275 74.7272C77.4052 76.699 79.2859 78.8546 81.1662 81.0098L81.5545 81.4547C83.2275 83.3822 84.9831 85.2497 87.0538 86.7797C88.2017 87.6347 89.4771 88.1822 90.8876 88.4297C91.9229 88.6172 92.8607 88.4222 93.746 87.8222C95.1189 86.8997 96.0868 85.6622 96.6119 84.0797C97.0171 82.8347 97.2346 81.5372 97.3172 80.2547C97.3655 79.5139 97.2601 78.7615 97.155 78.0115C97.1133 77.7135 97.0716 77.416 97.0396 77.1197C97.0346 77.0197 97.0162 76.9197 96.9979 76.8197L96.9898 76.7753C96.987 76.76 96.9843 76.7447 96.9817 76.7294C96.9783 76.7095 96.975 76.6896 96.972 76.6697C96.9195 76.3622 97.0846 76.1822 97.3697 76.1597C97.7673 76.1222 98.1649 76.1222 98.5626 76.1222C98.9553 76.1197 99.3489 76.1276 99.7422 76.1355C100.558 76.1518 101.374 76.1681 102.179 76.0922C103.188 76.0017 111.586 78.1055 120.246 80.2745C129.543 82.6033 139.14 85.0075 140.216 84.8522C140.983 84.736 141.759 84.6766 142.534 84.6173C143.109 84.5732 143.683 84.5293 144.253 84.4622L144.208 82.3397C141.604 83.0822 139.391 82.7597 134.972 82.0997C128.415 81.1262 119.875 78.712 113.01 76.7714C107.393 75.1835 102.897 73.9127 101.526 74.0072C101.432 74.0154 101.338 74.0166 101.245 74.0178C101.085 74.0198 100.928 74.0217 100.776 74.0597C99.9762 74.2608 99.1698 74.2496 98.3658 74.2384C97.9703 74.2329 97.5754 74.2274 97.1821 74.2472C96.4544 74.2847 95.9142 74.0147 95.4866 73.4597C95.1204 72.9866 94.7495 72.5167 94.3782 72.0464C93.9431 71.4951 93.5074 70.9432 93.0783 70.3847C92.9357 70.1897 92.8232 69.9572 92.7332 69.7247C92.6206 69.4172 92.6581 69.1247 92.9657 68.9372C93.1145 68.8425 93.2742 68.7587 93.4349 68.6743C93.5416 68.6183 93.6487 68.562 93.7535 68.5022C94.7888 67.8872 95.8167 67.2647 96.7095 66.4547C100.506 63.0422 102.419 58.6697 103.154 53.7122C103.364 52.3172 103.484 50.9222 103.402 49.5197C103.364 48.8222 103.552 48.3047 104.159 47.8472C105.127 47.1347 105.907 46.2047 106.538 45.1622C106.706 44.8904 106.876 44.6204 107.046 44.3505C107.492 43.6446 107.937 42.9396 108.338 42.2072C109.809 39.5222 110.597 36.6497 110.679 33.5822C110.769 29.9447 109.779 26.6447 107.475 23.7947C105.555 21.4472 103.304 19.4672 100.536 18.1322C97.7373 16.7822 94.8114 16.3997 91.7504 17.0672C89.8147 17.4947 88.0366 18.2747 86.4311 19.4372C86.026 19.7372 85.6658 19.8347 85.2082 19.5347C84.3476 18.9611 83.4005 18.5643 82.4495 18.1659C82.0574 18.0016 81.6646 17.837 81.2769 17.6597C78.456 16.3547 75.44 16.1072 72.4315 16.6022C66.6021 17.5922 62.0781 20.7272 58.6645 25.5047C56.8414 28.0547 55.566 30.8822 54.8007 33.9272C54.3281 35.7647 54.0129 37.6397 54.0129 39.5597C54.0054 41.5847 54.3056 43.5497 54.7032 45.5147C54.8685 46.3319 55.0657 47.1438 55.2631 47.9567C55.3973 48.5091 55.5315 49.0619 55.656 49.6172C55.8886 50.6222 55.806 51.6047 55.2884 52.5272C54.9944 53.0376 54.7323 53.5623 54.4704 54.0865C54.3514 54.3247 54.2324 54.5629 54.1105 54.7997C53.4128 56.1497 52.9176 57.5672 52.7975 59.0897C52.6025 61.5122 52.7976 63.9122 53.6754 66.1997C54.6732 68.7797 56.1662 70.9997 58.7845 72.2447C59.0171 72.3422 59.2347 72.4622 59.4448 72.6047C59.6473 72.7397 59.6473 72.9572 59.5047 73.1297C59.382 73.282 59.2472 73.4248 59.1113 73.5689C59.0064 73.6801 58.9008 73.792 58.7995 73.9097C58.5371 74.2121 58.2707 74.5113 58.0042 74.8108C57.1735 75.7441 56.3417 76.6787 55.626 77.7122C54.1633 79.8136 53.0276 82.1001 51.9 84.3703C51.7841 84.6036 51.6683 84.8368 51.5522 85.0697C49.9992 88.1672 48.6862 91.3622 47.5383 94.6397C46.3604 98.0447 45.2726 101.487 44.3348 104.975C43.292 108.897 42.4742 112.857 42.1741 116.93C42.1315 117.543 42.0861 118.156 42.0408 118.768L42.0406 118.77L42.0405 118.772L42.0404 118.774L42.0402 118.776L42.0401 118.778C41.8862 120.857 41.7327 122.931 41.6864 125.015C41.6189 128.382 41.7689 131.727 41.979 135.08C41.991 135.26 41.9934 135.441 41.9958 135.622C41.9994 135.895 42.003 136.167 42.039 136.437L42.0953 136.856L42.1966 137.612L42.1979 137.622L42.2013 137.647L42.2048 137.673C42.515 139.991 42.825 142.307 43.1944 144.612C43.607 147.147 44.2748 149.615 45.04 152.052C45.3401 153.035 45.8053 153.777 46.9006 153.987C47.3958 154.077 47.5908 154.407 47.6884 154.925C48.116 157.19 48.5812 159.447 49.0913 161.697C49.9717 165.614 51.0674 169.487 52.1607 173.353L52.2349 173.615C52.363 174.068 52.4855 174.524 52.608 174.98C53.0308 176.553 53.4549 178.131 54.118 179.637C54.2633 179.947 54.176 180.234 54.0866 180.529C54.0776 180.558 54.0686 180.588 54.0599 180.618C54.0567 180.628 54.0536 180.639 54.0505 180.65C53.9577 180.982 53.8618 181.314 53.7659 181.646L53.7656 181.647L53.7652 181.649L53.7649 181.65L53.7645 181.651L53.7642 181.652C53.5271 182.474 53.2896 183.296 53.0977 184.122L53.0493 184.33C52.4507 186.9 51.8543 189.461 50.8169 191.907C50.5389 192.556 50.3239 193.233 50.1082 193.912C49.9746 194.332 49.8408 194.754 49.6916 195.17C49.474 195.8 49.429 196.445 49.4815 197.105C49.579 198.357 50.3067 198.995 51.5446 198.987C51.6343 198.987 51.7342 198.956 51.8331 198.925C52.0403 198.86 52.2434 198.796 52.3399 199.025C52.422 199.201 52.297 199.484 52.1882 199.73C52.1677 199.777 52.1477 199.822 52.1299 199.865C51.9919 200.215 51.8488 200.563 51.7055 200.913C51.545 201.304 51.3842 201.696 51.2296 202.092C51.042 202.557 50.9445 203.052 50.982 203.562C51.057 204.597 51.8898 205.197 52.8726 204.905C53.1652 204.817 53.4438 204.688 53.7251 204.557L53.7259 204.557C53.8555 204.497 53.9856 204.436 54.118 204.38C54.3431 204.282 54.5381 204.335 54.5456 204.597C54.5831 205.317 54.9433 205.827 55.551 206.172C56.1469 206.221 57.5315 206.148 58.5628 205.505ZM51.4921 196.782C51.4096 196.7 51.3871 196.505 51.4096 196.362L51.3871 196.37C51.4546 196.032 51.5446 195.695 51.6647 195.365C51.7547 195.116 51.844 194.867 51.9334 194.618L51.9343 194.616L51.9351 194.614L51.936 194.611L51.9368 194.609C52.286 193.637 52.6354 192.664 53.0227 191.705C54.073 189.132 54.7857 186.485 55.2959 183.77L55.3279 183.598C55.4743 182.816 55.6203 182.035 55.8511 181.28C56.1887 180.17 56.0687 179.12 55.7385 178.032C55.2966 176.569 54.8767 175.098 54.4552 173.62L54.3485 173.246L54.2106 172.764C54.1623 172.595 54.1139 172.426 54.0655 172.257C52.52 166.97 51.2071 161.615 49.9241 156.26C49.8798 156.078 49.8128 155.898 49.7453 155.716C49.5732 155.252 49.3979 154.78 49.5865 154.257C49.7608 154.243 49.934 154.23 50.1066 154.216C50.2434 154.206 50.3798 154.196 50.516 154.185C50.8515 154.16 51.1858 154.135 51.5222 154.107C55.0783 153.845 58.5745 153.237 62.0181 152.322C62.2644 152.256 62.5067 152.17 62.749 152.084C63.3848 151.857 64.0202 151.631 64.7265 151.767C64.9095 152.442 64.8832 153.13 64.8571 153.814C64.8489 154.027 64.8408 154.24 64.839 154.452C64.8352 155.389 64.9121 156.321 64.989 157.253C65.064 158.162 65.1391 159.072 65.1391 159.987C65.1391 161.768 65.2508 163.545 65.3623 165.318C65.4143 166.144 65.4662 166.97 65.5067 167.795C65.5346 168.396 65.5531 169 65.5717 169.603C65.613 170.948 65.6543 172.294 65.7993 173.63C65.8612 174.2 65.8913 174.773 65.9213 175.347C65.975 176.372 66.0287 177.397 66.2645 178.407C66.2829 178.485 66.3008 178.563 66.3186 178.641L66.3417 178.743C66.4607 179.265 66.5781 179.781 66.7821 180.282C67.6974 182.555 68.5002 184.88 68.8753 187.317C68.9954 188.075 69.0254 188.81 69.0554 189.717C68.7778 192.77 68.4027 195.942 67.0748 198.92C66.392 200.442 65.6118 201.897 64.4339 203.09C64.0137 203.525 63.5786 203.93 63.0009 204.162C62.7533 204.267 62.4607 204.057 62.5208 203.787C62.5883 203.45 62.6783 203.097 62.8209 202.782C63.2951 201.689 63.7819 200.599 64.269 199.507C64.5371 198.907 64.8053 198.306 65.0716 197.705C65.1408 197.542 65.2123 197.382 65.2837 197.221C65.4366 196.877 65.5889 196.535 65.7168 196.182C65.8443 195.852 65.8593 195.492 65.7468 195.147C65.5667 194.6 64.8615 194.352 64.4039 194.697C63.9987 195.005 63.7512 195.44 63.5111 195.89L63.3801 196.123L63.2774 196.306C62.5001 197.693 61.7171 199.09 60.8102 200.412C59.9549 201.657 58.8671 202.692 57.7417 203.69C57.5466 203.855 57.329 203.982 57.1115 204.095C56.9989 204.155 56.8189 204.2 56.7063 204.147C56.5338 204.065 56.5788 203.892 56.6463 203.75C56.7291 203.596 56.8105 203.441 56.8917 203.286C57.0681 202.949 57.244 202.613 57.4341 202.295C57.8064 201.664 58.1885 201.035 58.5707 200.407C59.0742 199.579 59.578 198.75 60.0599 197.915C60.4761 197.181 60.8483 196.428 61.2203 195.675L61.2212 195.673L61.2221 195.671C61.3592 195.393 61.4962 195.116 61.6355 194.84C61.8605 194.397 61.8455 193.97 61.5154 193.572C61.1403 193.13 60.6001 193.055 60.2025 193.46C59.8799 193.767 59.6173 194.135 59.3847 194.525C58.6045 195.807 57.8392 197.105 57.104 198.417C56.2787 199.88 55.1083 201.035 53.9004 202.167C53.8254 202.227 53.7354 202.295 53.6453 202.317C53.5628 202.347 53.4353 202.355 53.3753 202.317C53.3152 202.265 53.2552 202.122 53.2852 202.055C53.3184 201.974 53.3514 201.894 53.3843 201.813L53.4476 201.657L53.5267 201.461L53.5276 201.458L53.5279 201.458C53.7288 200.96 53.9307 200.459 54.1555 199.977C54.6317 198.958 55.1172 197.942 55.6028 196.926L55.6035 196.925L55.6042 196.923C56.0898 195.907 56.5753 194.892 57.0515 193.872C57.3108 193.317 57.5265 192.753 57.7415 192.191L57.8195 191.987C57.846 191.918 57.8725 191.849 57.8993 191.78C58.0268 191.442 58.0418 191.09 57.9293 190.745C57.7117 190.025 56.9014 189.792 56.4062 190.34C56.1061 190.67 55.8586 191.06 55.641 191.457C54.8457 192.852 53.9154 194.15 52.9701 195.447C52.7392 195.777 52.4558 196.071 52.1732 196.363C52.1159 196.423 52.0587 196.482 52.002 196.541C51.9567 196.589 51.9117 196.637 51.8672 196.685C51.7697 196.782 51.6122 196.895 51.4921 196.782ZM90.1448 70.1297C90.4149 70.0322 90.64 70.0697 90.76 70.3622L90.7675 70.3472C91.3302 71.7797 92.343 72.9272 93.3484 74.0222C93.9936 74.7272 94.4137 75.4847 94.6913 76.3022C94.9914 77.1422 95.1264 78.0497 95.209 78.9722C95.329 80.3297 95.164 81.6722 94.8339 82.9847C94.6763 83.6222 94.4362 84.2297 94.0686 84.7772C93.1458 86.1497 92.0279 86.7947 90.0473 86.0897C89.0044 85.7072 88.0741 85.0997 87.2414 84.3647C85.4286 82.7525 83.8346 80.9372 82.2337 79.1141C81.9131 78.7491 81.5923 78.3838 81.2694 78.0197C81.1253 77.8566 80.9871 77.6866 80.8491 77.5169C80.6063 77.2183 80.3642 76.9204 80.0915 76.6622C79.6005 76.1966 79.1496 75.695 78.6987 75.1934C78.0818 74.5071 77.465 73.8208 76.7454 73.2272C75.2599 72.0122 73.7595 70.8647 71.9138 70.2572C71.3662 70.0697 71.3362 69.7997 71.8613 69.4322C74.0821 67.8797 75.1999 65.6222 75.8977 63.1022C76.2203 61.9772 76.2503 60.8147 75.9276 59.6897C75.455 58.0772 74.2621 57.1247 72.7691 56.4872C72.0414 56.1647 71.3212 55.8197 70.6009 55.4597C70.0532 55.1897 69.5956 54.7772 69.2579 54.2822C68.4402 53.0672 68.4102 52.0547 69.5281 50.9072C70.1358 50.2847 70.8935 49.9022 71.7263 49.6547C73.0167 49.2797 74.3146 48.8897 75.5975 48.4697C76.1227 48.2972 76.6404 48.1022 77.1206 47.8322C78.7186 46.9322 79.5513 45.4997 79.9414 43.7597C80.0765 43.1372 80.189 42.4847 80.2491 41.8397C80.4741 39.3197 81.7571 37.5422 83.9703 36.3947C84.7917 35.9695 85.6153 35.5606 86.4375 35.1525C87.0947 34.8262 87.7509 34.5004 88.4042 34.1672C88.8919 33.9122 89.3871 33.6497 89.8147 33.3122C91.0676 32.3297 92.0729 31.1822 92.0729 29.4422C92.0729 29.2022 92.223 29.0822 92.4706 29.1722C93.1758 29.4422 93.836 29.8022 94.4137 30.2972C96.0868 31.7222 97.2947 33.4997 98.21 35.4722C99.733 38.7722 100.551 42.2597 101.031 45.8672C101.218 47.3147 101.308 48.7547 101.308 50.5997C101.429 52.8497 100.986 55.3922 100.101 57.8747C97.9774 63.7997 93.791 67.3622 87.699 68.7272C87.2851 68.8208 86.8549 68.8399 86.4256 68.8591C86.2013 68.8691 85.9773 68.8791 85.7558 68.8997C84.9081 68.9822 84.0603 69.0722 83.2125 69.1922C82.9875 69.2222 82.7474 69.3722 82.5673 69.5222C82.2972 69.7397 82.2372 70.1147 82.3797 70.3997C82.4398 70.5047 82.5298 70.6097 82.6499 70.6772C82.8974 70.8272 83.19 70.9547 83.4826 70.9772C84.0303 71.0297 84.5855 71.0597 85.1257 70.9772C85.5919 70.9106 86.0615 70.8602 86.5313 70.8097C87.7549 70.6784 88.9793 70.5469 90.1448 70.1297Z" fill="#0D1016"/>
<path d="M52.1606 127.588C54.854 127.625 57.5399 127.835 60.2107 128.15C60.5033 128.188 60.796 128.278 61.0735 128.39C61.5387 128.585 61.8013 129.035 61.7487 129.448C61.6962 129.853 61.3211 130.213 60.826 130.31C60.6309 130.348 60.4283 130.363 60.2333 130.355C59.438 130.333 58.6202 130.37 57.84 130.243C57.0447 130.108 56.257 130.078 55.4542 130.04C53.2635 129.95 51.0728 129.853 48.8821 129.755C48.582 129.74 48.2819 129.725 47.9968 129.65C47.4341 129.508 47.119 129.163 47.134 128.758C47.149 128.323 47.4341 127.97 48.0043 127.88C48.792 127.76 49.5648 127.535 50.375 127.58C50.9752 127.61 51.5754 127.58 52.1756 127.58L52.1606 127.588Z" fill="#0D1016"/>
<path d="M60.2184 180.327C59.6482 180.304 59.1981 180.372 58.7704 180.207C58.3578 180.049 58.0502 179.674 58.0727 179.337C58.0952 178.947 58.3278 178.677 58.6504 178.534C59.0105 178.377 59.4006 178.257 59.7908 178.204C60.9236 178.054 62.0565 177.949 63.1894 177.837C63.437 177.814 63.6845 177.799 63.9321 177.822C64.4273 177.874 64.8024 178.204 64.8774 178.632C64.9525 179.052 64.7049 179.502 64.1947 179.659C62.8593 180.079 61.4788 180.214 60.2109 180.327H60.2184Z" fill="#0D1016"/>
<path d="M73.8579 53.4948C73.8729 53.6073 73.9254 53.8098 73.9104 54.0123C73.8654 54.6948 73.2877 55.0473 72.665 54.7848C71.9673 54.4998 71.0295 52.7973 71.1645 52.0623C71.2546 51.5523 71.7347 51.2973 72.2073 51.5073C72.3574 51.5748 72.5075 51.6648 72.62 51.7848C73.1002 52.2648 73.4453 52.8349 73.8504 53.4874L73.8579 53.4948Z" fill="#0D1016"/>
<path d="M94.7361 49.5646C94.8336 50.5396 94.511 51.1171 94.0008 51.5521C93.2131 52.2196 92.2903 52.6771 91.3224 53.0371C90.9323 53.1796 90.5797 53.0446 90.2646 52.8271C89.6644 52.3996 89.6194 51.6496 90.1896 51.1471C90.6772 50.7121 91.2549 50.3971 91.8476 50.1196C92.1927 49.9621 92.3202 49.6996 92.1852 49.3246C92.1252 49.1521 92.1027 48.9571 92.0427 48.7846C91.2699 46.5346 90.4896 44.2846 89.7019 42.0421C89.5743 41.6896 89.4318 41.3596 89.5593 40.9621C89.7769 40.2796 90.4746 40.0471 90.9773 40.5346C91.1724 40.7221 91.3374 40.9696 91.4575 41.2171C91.8101 41.9296 92.1627 42.6421 92.4553 43.3771C93.1531 45.1621 93.8207 46.9546 94.496 48.7471C94.6235 49.0921 94.7061 49.4596 94.7436 49.5646H94.7361Z" fill="#0D1016"/>
<path d="M92.8727 57.7611C89.512 58.5142 87.2777 56.1465 88.2669 55.1966C89.3075 54.2034 89.9817 54.8105 92 54.8101C93.7501 54.8097 94.5298 54.4729 95.0379 55.708C95.4959 56.8317 94.1376 57.4698 92.871 57.7538L92.8727 57.7611Z" fill="#0D1016"/>
<path d="M84.1802 41.6513C84.0826 41.6363 83.8426 41.6513 83.625 41.5763C82.7772 41.3063 82.4921 40.2938 83.1298 39.6788C83.6625 39.1613 84.2927 38.7488 85.0129 38.5238C85.5231 38.3663 86.0258 38.4263 86.4984 38.6888C87.2787 39.1238 87.3762 39.8588 86.7685 40.5263C86.0558 41.3138 85.358 41.6288 84.1802 41.6588V41.6513Z" fill="#0D1016"/>
<path d="M95.377 41.1423C95.1773 41.0221 94.9572 40.9251 94.7815 40.7751C94.4635 40.4755 94.2402 40.1235 94.3809 39.6559C94.5076 39.2316 94.7205 38.8857 95.1819 38.7613C95.9161 38.5669 96.6616 38.5303 97.4047 38.6613C97.6289 38.7013 97.8557 38.8018 98.0384 38.9385C98.5034 39.2804 98.8969 39.6951 98.7637 40.344C98.634 40.9862 98.1473 41.2411 97.5586 41.3504C96.8083 41.4942 96.0725 41.5612 95.377 41.1423Z" fill="#0D1016"/>
<path d="M87.621 44.0317C87.6135 43.5742 87.4409 43.1692 86.9757 42.9292C86.5331 42.7042 86.0905 42.6742 85.6478 42.9367C84.8526 43.4092 84.5225 44.7141 84.9951 45.5241C85.4077 46.2366 86.2705 46.3792 86.8857 45.8242C87.4034 45.3592 87.576 44.7442 87.621 44.0317Z" fill="#0D1016"/>
<path d="M96.0308 44.7309C96.0308 45.4734 96.3834 45.9984 96.9611 46.1109C97.6438 46.2459 98.229 45.9233 98.5141 45.2258C98.6341 44.9258 98.7016 44.6033 98.7616 44.2808C98.8892 43.5383 98.6341 43.0733 97.9964 42.8408C97.3662 42.6158 96.811 42.8108 96.4284 43.4033C96.1808 43.7858 96.0383 44.2734 96.0308 44.7309Z" fill="#0D1016"/>
<path d="M91.6047 60.4868C92.0836 60.3607 92.2334 60.1228 92.3124 59.8484C92.3932 59.5503 92.2701 59.3025 92.0232 59.1164C91.985 59.0871 91.9469 59.0579 91.9051 59.0451C91.0652 58.7427 90.194 58.5949 89.3062 58.5362C89.0478 58.5228 88.8763 58.7042 88.7865 58.935C88.6968 59.1658 88.7289 59.3896 88.9013 59.5865C88.9339 59.6248 88.9647 59.6558 88.9956 59.6868C89.8145 60.342 90.8062 60.3519 91.6119 60.485L91.6047 60.4868Z" fill="#0D1016"/>
<path d="M55.1841 61.8653C55.0265 59.4278 55.9343 57.2603 57.1422 55.2128C57.81 54.0803 58.3051 52.8878 58.7177 51.6503C59.2954 49.9403 59.3104 48.2003 58.8978 46.4678C58.6352 45.3503 58.2676 44.2478 57.885 43.1678C56.2569 38.5478 56.7521 34.0928 58.9803 29.8028C60.9084 26.0828 63.7594 23.2778 67.5482 21.4703C69.5588 20.5103 71.712 20.0528 73.9177 19.8128C74.713 19.7303 75.5157 19.6328 76.3035 19.5953C78.3067 19.4828 80.3023 19.6928 82.223 20.3303C82.6656 20.4728 83.0557 20.6678 83.3183 21.0653C83.5659 21.4403 83.3783 21.9353 82.9432 21.9803C82.7481 22.0028 82.5305 22.0328 82.3505 21.9803C81.0451 21.5528 79.6496 21.8078 78.3367 21.4628C78.1491 21.4103 77.9315 21.4103 77.7365 21.4328C75.3507 21.6878 72.9424 21.7553 70.6091 22.4153C66.3777 23.6228 63.3167 26.2853 61.156 30.0503C60.0757 31.9328 59.4605 33.9728 59.1079 36.1328C58.7628 38.2403 59.1604 40.2128 59.7381 42.1853C60.0457 43.2428 60.4208 44.2778 60.7659 45.3278C61.5086 47.5853 61.4936 49.8428 60.8184 52.1228C60.3158 53.8253 59.5205 55.3778 58.6427 56.8928C57.795 58.3553 57.3823 59.8928 57.3073 61.5953C57.2097 63.7478 57.8024 65.6453 58.8903 67.4378C59.1004 67.7753 59.3105 68.1278 59.4455 68.4953C59.5881 68.8928 59.393 69.3278 59.0629 69.5453C58.7103 69.7778 58.3051 69.7703 57.96 69.4403C57.6674 69.1703 57.3823 68.8703 57.1797 68.5328C55.9493 66.4853 54.989 64.3553 55.1691 61.8578L55.1841 61.8653Z" fill="#555A61"/>
<path d="M65.4101 47.2851C65.4326 45.6051 65.1401 44.2777 64.8325 42.9652C64.4648 41.4052 64.1572 39.8451 64.1947 38.2176C64.2397 36.3051 64.7949 34.5651 65.7552 32.9601C66.8731 31.0851 68.3586 29.5401 70.1667 28.3101C73.3402 26.1501 76.7464 24.5001 80.4901 23.6001C81.1203 23.4501 81.7655 23.3376 82.4032 23.2176C83.1684 23.0751 83.8962 23.2551 84.5939 23.5551C84.8265 23.6526 85.0065 23.8401 85.0215 24.1251C85.0441 24.4626 84.864 24.7026 84.5639 24.8301C84.3838 24.9126 84.1813 24.9576 83.9862 24.9726C80.8127 25.1376 77.9543 26.3376 75.1483 27.6951C73.1077 28.6851 71.202 29.8851 69.559 31.4451C67.6008 33.3051 66.4154 35.6002 66.2129 38.3002C66.1454 39.2227 66.4455 40.1751 66.618 41.1051C66.8356 42.2826 67.1657 43.4376 67.3833 44.6226C67.8859 47.2776 67.5033 49.7976 66.4605 52.2576C65.8753 53.6376 65.2826 55.0176 64.6599 56.3901C64.0972 57.6351 63.7521 58.9326 63.5195 60.2676C63.2494 61.8351 63.5495 63.3576 63.9922 64.8576C64.1947 65.5326 64.4123 66.2001 64.2998 66.9201C64.2097 67.5051 63.7446 67.7526 63.1969 67.5051C62.7468 67.3101 62.4691 66.9651 62.3191 66.5226C62.0415 65.7201 61.7414 64.9176 61.5464 64.0926C60.9162 61.4676 61.3063 58.9176 62.2441 56.4351C62.5967 55.4976 63.0319 54.5901 63.4295 53.6751C64.1347 52.0776 64.9375 50.5101 65.2301 48.7551C65.3276 48.1551 65.4026 47.5701 65.3951 47.2851H65.4101Z" fill="#555A61"/>
<path d="M70.5937 43.3992C70.6913 39.6492 71.8992 36.3567 74.585 33.6567C75.868 32.3667 77.2859 31.2867 78.8389 30.3492C80.602 29.2767 82.4101 28.3317 84.3832 27.7017C84.7659 27.5817 85.156 27.4767 85.5461 27.4017C85.8387 27.3492 86.1388 27.3867 86.4239 27.5217C86.8665 27.7317 86.9866 28.3317 86.6039 28.6317C86.3339 28.8492 86.0188 29.0217 85.7037 29.1492C82.6952 30.3267 79.9268 31.9242 77.391 33.9192C75.2753 35.5842 73.8873 37.7442 73.1971 40.3467C73.047 40.9167 73.0395 41.5317 73.017 42.1317C72.987 42.9342 73.0095 43.7367 73.002 44.5392C73.002 45.1617 72.837 45.7242 72.4318 46.2117C72.0717 46.6317 71.4715 46.6167 71.1414 46.1592C70.9988 45.9567 70.9088 45.7167 70.8263 45.4842C70.5862 44.8092 70.5637 44.1117 70.5937 43.4067V43.3992Z" fill="#555A61"/>
<path d="M108.212 35.368C108.212 35.7805 108.084 36.1555 107.889 36.508C107.597 37.0405 107.064 37.0705 106.689 36.5605C106.516 36.3205 106.374 36.0505 106.261 35.773C106.164 35.548 106.104 35.293 106.074 35.053C105.609 30.418 102.795 27.2305 99.464 24.3805C97.9636 23.098 96.253 22.183 94.3324 21.6655C94.1898 21.628 94.0473 21.583 93.9047 21.5155C93.4621 21.313 93.2295 20.938 93.3045 20.5855C93.387 20.233 93.7547 19.9255 94.1898 19.8955C94.4299 19.8805 94.685 19.9255 94.9251 19.9705C97.1683 20.338 99.0964 21.418 100.792 22.843C102.975 24.6805 104.956 26.7205 106.411 29.2255C107.177 30.5455 107.657 31.948 107.919 33.433C108.032 34.0705 108.107 34.7155 108.197 35.3605L108.212 35.368Z" fill="#555A61"/>
<path d="M103.995 41.6146C104.002 42.3346 103.672 42.9496 103.2 43.1071C102.765 43.2496 102.217 42.7996 102.007 41.9821C101.797 41.1646 101.692 40.3171 101.542 39.4771C101.062 36.7096 100.416 33.9871 99.0884 31.4746C97.948 29.3146 96.4325 27.4771 94.3993 26.0896C94.1142 25.8946 93.8066 25.7071 93.5516 25.4746C93.0939 25.0471 93.2815 24.3796 93.8892 24.1771C94.1968 24.0721 94.4744 24.1396 94.767 24.2146C95.5172 24.4096 96.1174 24.8596 96.7026 25.3321C99.2009 27.3796 100.972 29.9371 102.052 32.9896C103.012 35.6971 103.552 38.4871 103.957 41.3146C103.972 41.4121 103.98 41.5171 103.987 41.6146H103.995Z" fill="#555A61"/>
<path d="M158.651 62.9873C164.871 65.4169 170.016 70.341 172.602 76.1776C172.795 76.6132 172.723 77.1346 172.212 77.4726C171.793 77.7415 171.066 77.7224 170.872 77.2868C168.405 71.7119 163.579 67.016 157.637 64.6932C156.534 64.2608 157.548 62.5549 158.651 62.9873Z" fill="#0D1016"/>
<path d="M147.798 103.875C158.052 92.375 170.081 83.25 172.181 77.25" stroke="black" stroke-width="2.25" stroke-linecap="round"/>
<path d="M142.909 83.4851C153.535 72.7102 153.937 72.6853 158.27 64.4995" stroke="black" stroke-width="2.25" stroke-linecap="round"/>
<path d="M179.458 53.5938C179.208 52.4898 178.077 50.051 175.557 49.1272" stroke="black" stroke-width="1.5" stroke-linecap="round" stroke-linejoin="round"/>
<rect x="120.25" y="26.75" width="47" height="24.5" rx="9.75" fill="white" stroke="url(#paint0_linear_1435_63198)" stroke-width="0.5"/>
<path d="M116.752 44.4299C116.319 44.2679 116.319 43.6553 116.752 43.4933L121.682 41.6488C122.009 41.5266 122.357 41.7682 122.357 42.1171V45.8061C122.357 46.155 122.009 46.3966 121.682 46.2744L116.752 44.4299Z" fill="white"/>
<path d="M128.822 42.66C127.715 42.66 126.905 42.4533 126.392 42.04C125.885 41.62 125.632 41.0433 125.632 40.31C125.632 39.9367 125.692 39.6467 125.812 39.44C125.938 39.2267 126.125 39.12 126.372 39.12C126.485 39.12 126.592 39.1367 126.692 39.17C126.792 39.1967 126.868 39.23 126.922 39.27C126.895 39.3833 126.868 39.5033 126.842 39.63C126.822 39.7567 126.812 39.8933 126.812 40.04C126.812 40.3933 126.898 40.6733 127.072 40.88C127.252 41.08 127.498 41.2233 127.812 41.31C128.125 41.39 128.495 41.43 128.922 41.43C129.328 41.43 129.695 41.3933 130.022 41.32C130.355 41.24 130.635 41.1467 130.862 41.04C131.088 40.9267 131.245 40.82 131.332 40.72L131.932 41.57C131.738 41.7967 131.475 41.9933 131.142 42.16C130.815 42.32 130.452 42.4433 130.052 42.53C129.658 42.6167 129.248 42.66 128.822 42.66ZM128.412 39.89C128.278 39.89 128.182 39.8567 128.122 39.79C128.062 39.7233 128.028 39.64 128.022 39.54C128.015 39.44 128.025 39.3467 128.052 39.26C128.512 39.2333 128.858 39.1833 129.092 39.11C129.332 39.0367 129.452 38.9733 129.452 38.92C129.452 38.8867 129.432 38.8633 129.392 38.85C129.358 38.8367 129.305 38.8233 129.232 38.81L128.862 38.75C128.655 38.7167 128.485 38.6467 128.352 38.54C128.225 38.4267 128.162 38.26 128.162 38.04C128.162 37.8733 128.202 37.74 128.282 37.64C128.362 37.5333 128.472 37.43 128.612 37.33C128.718 37.2633 128.832 37.2133 128.952 37.18C129.078 37.14 129.185 37.12 129.272 37.12C129.432 37.12 129.535 37.1667 129.582 37.26C129.628 37.3467 129.652 37.48 129.652 37.66C129.365 37.7267 129.152 37.79 129.012 37.85C128.878 37.91 128.812 37.9667 128.812 38.02C128.812 38.0467 128.822 38.07 128.842 38.09C128.868 38.1033 128.925 38.1167 129.012 38.13L129.262 38.18C129.522 38.2267 129.718 38.3067 129.852 38.42C129.992 38.5267 130.062 38.6967 130.062 38.93C130.062 39.0633 130.035 39.1833 129.982 39.29C129.935 39.39 129.845 39.48 129.712 39.56C129.578 39.6467 129.382 39.7233 129.122 39.79C128.868 39.8567 128.632 39.89 128.412 39.89ZM133.092 42.51V41.27C133.138 41.3433 133.175 41.43 133.202 41.53C133.228 41.63 133.242 41.7467 133.242 41.88C133.242 42.02 133.225 42.1433 133.192 42.25C133.165 42.3567 133.132 42.4433 133.092 42.51ZM132.222 36.27L132.212 40.53C132.212 40.8033 132.272 40.9933 132.392 41.1C132.512 41.2067 132.685 41.26 132.912 41.26H133.092V42.51L132.742 42.5C132.422 42.4933 132.132 42.4333 131.872 42.32C131.612 42.2067 131.408 42.0233 131.262 41.77C131.115 41.5167 131.038 41.1833 131.032 40.77L130.992 35.83C131.052 35.8167 131.135 35.8 131.242 35.78C131.355 35.76 131.472 35.75 131.592 35.75C131.798 35.75 131.955 35.7933 132.062 35.88C132.168 35.9667 132.222 36.0967 132.222 36.27ZM132.932 42.5V41.26H133.142C133.428 41.26 133.658 41.2 133.832 41.08C134.012 40.9533 134.105 40.73 134.112 40.41L134.142 39.19C134.202 39.17 134.275 39.15 134.362 39.13C134.448 39.1033 134.545 39.09 134.652 39.09C134.798 39.09 134.925 39.13 135.032 39.21C135.138 39.29 135.195 39.42 135.202 39.6L135.232 40.44C135.245 40.7467 135.338 40.96 135.512 41.08C135.692 41.2 135.922 41.26 136.202 41.26H136.392V42.5H136.182C135.942 42.5 135.715 42.4667 135.502 42.4C135.288 42.3333 135.105 42.2267 134.952 42.08C134.798 41.9333 134.692 41.7467 134.632 41.52L134.712 41.51C134.685 41.7433 134.592 41.9333 134.432 42.08C134.278 42.22 134.088 42.3267 133.862 42.4C133.635 42.4667 133.408 42.5 133.182 42.5H132.932ZM136.392 42.5V41.26C136.438 41.3333 136.475 41.4233 136.502 41.53C136.528 41.63 136.542 41.7467 136.542 41.88C136.542 42.0133 136.525 42.1333 136.492 42.24C136.465 42.3467 136.432 42.4333 136.392 42.5ZM133.892 44.42C133.705 44.42 133.555 44.3633 133.442 44.25C133.328 44.1433 133.272 43.9933 133.272 43.8C133.272 43.6133 133.328 43.4633 133.442 43.35C133.555 43.2367 133.705 43.18 133.892 43.18C134.085 43.18 134.235 43.2367 134.342 43.35C134.455 43.4633 134.512 43.6133 134.512 43.8C134.512 43.9933 134.455 44.1433 134.342 44.25C134.235 44.3633 134.085 44.42 133.892 44.42ZM135.452 44.42C135.265 44.42 135.115 44.3633 135.002 44.25C134.888 44.1433 134.832 43.9933 134.832 43.8C134.832 43.6133 134.888 43.4633 135.002 43.35C135.115 43.2367 135.265 43.18 135.452 43.18C135.645 43.18 135.795 43.2367 135.902 43.35C136.015 43.4633 136.072 43.6133 136.072 43.8C136.072 43.9933 136.015 44.1433 135.902 44.25C135.795 44.3633 135.645 44.42 135.452 44.42ZM136.593 42.5H136.232V41.26H136.743C137.156 41.26 137.539 41.23 137.893 41.17C138.246 41.11 138.543 41.04 138.783 40.96C139.029 40.8733 139.189 40.7967 139.263 40.73C139.276 40.6233 139.289 40.4833 139.303 40.31C139.316 40.1367 139.323 39.9733 139.323 39.82L139.523 40.17C139.389 40.2167 139.233 40.2533 139.053 40.28C138.879 40.3067 138.713 40.32 138.553 40.32C137.953 40.32 137.479 40.18 137.133 39.9C136.793 39.62 136.623 39.2 136.623 38.64C136.623 38.2667 136.706 37.9367 136.873 37.65C137.039 37.3633 137.259 37.14 137.533 36.98C137.813 36.82 138.116 36.74 138.443 36.74C138.929 36.74 139.316 36.8733 139.603 37.14C139.896 37.4 140.109 37.7567 140.243 38.21C140.376 38.6567 140.443 39.1633 140.443 39.73C140.443 40.31 140.379 40.77 140.253 41.11C140.133 41.45 139.916 41.7033 139.603 41.87C139.203 42.0767 138.739 42.2333 138.213 42.34C137.693 42.4467 137.153 42.5 136.593 42.5ZM138.653 39.23C138.766 39.23 138.883 39.2267 139.003 39.22C139.129 39.2067 139.246 39.1867 139.353 39.16C139.299 38.7 139.193 38.3633 139.033 38.15C138.879 37.93 138.669 37.82 138.403 37.82C138.196 37.82 138.023 37.8967 137.883 38.05C137.743 38.2033 137.673 38.3833 137.673 38.59C137.673 38.81 137.756 38.9733 137.923 39.08C138.096 39.1867 138.339 39.2367 138.653 39.23ZM138.483 35.98C138.283 35.98 138.123 35.92 138.003 35.8C137.883 35.68 137.823 35.52 137.823 35.32C137.823 35.1267 137.883 34.97 138.003 34.85C138.123 34.73 138.283 34.67 138.483 34.67C138.676 34.67 138.829 34.73 138.943 34.85C139.063 34.97 139.123 35.1267 139.123 35.32C139.123 35.52 139.063 35.68 138.943 35.8C138.829 35.92 138.676 35.98 138.483 35.98ZM146.021 41.44L143.871 37.72C143.838 37.6667 143.808 37.61 143.781 37.55C143.761 37.49 143.744 37.4333 143.731 37.38C143.704 37.1933 143.751 37.04 143.871 36.92C143.998 36.8 144.181 36.7233 144.421 36.69C144.468 36.6833 144.514 36.68 144.561 36.68C144.614 36.6733 144.661 36.6733 144.701 36.68L147.011 41.03L146.021 41.44ZM143.451 41.86C143.451 41.72 143.461 41.6033 143.481 41.51C143.508 41.4167 143.538 41.3333 143.571 41.26H144.151C144.831 41.2533 145.384 41.17 145.811 41.01C146.244 40.8433 146.561 40.6267 146.761 40.36C146.968 40.0933 147.068 39.8 147.061 39.48L147.031 35.83C147.084 35.8167 147.164 35.8 147.271 35.78C147.384 35.76 147.498 35.75 147.611 35.75C147.804 35.75 147.951 35.7933 148.051 35.88C148.158 35.9667 148.211 36.0967 148.211 36.27L148.181 40.52C148.181 40.7133 148.214 40.8667 148.281 40.98C148.354 41.0867 148.444 41.16 148.551 41.2C148.664 41.24 148.781 41.26 148.901 41.26H149.041V42.5H148.931C148.431 42.5 148.034 42.37 147.741 42.11C147.454 41.85 147.298 41.44 147.271 40.88L147.501 40.82C147.501 41.0267 147.418 41.23 147.251 41.43C147.084 41.63 146.848 41.81 146.541 41.97C146.241 42.13 145.891 42.26 145.491 42.36C145.091 42.4533 144.661 42.5 144.201 42.5C143.941 42.5 143.751 42.4367 143.631 42.31C143.511 42.1833 143.451 42.0333 143.451 41.86ZM149.041 42.5V41.26C149.088 41.3333 149.124 41.4233 149.151 41.53C149.178 41.63 149.191 41.7467 149.191 41.88C149.191 42.0133 149.178 42.1333 149.151 42.24C149.124 42.3467 149.088 42.4333 149.041 42.5ZM152.769 42.66C152.356 42.66 151.972 42.5967 151.619 42.47C151.266 42.3433 150.966 42.19 150.719 42.01L151.529 41.85C151.349 42.0033 151.119 42.13 150.839 42.23C150.566 42.3233 150.279 42.3933 149.979 42.44C149.686 42.48 149.419 42.5 149.179 42.5H148.879V41.26H149.329C149.456 41.26 149.589 41.2567 149.729 41.25C149.869 41.2433 150.002 41.2333 150.129 41.22C150.262 41.2067 150.366 41.19 150.439 41.17L150.299 41.48C150.059 41.28 149.862 41.0433 149.709 40.77C149.562 40.49 149.489 40.1867 149.489 39.86C149.489 39.5333 149.559 39.2467 149.699 39C149.846 38.7467 150.052 38.5533 150.319 38.42C150.586 38.28 150.899 38.21 151.259 38.21L152.389 38.92C152.496 39.0133 152.589 39.1133 152.669 39.22C152.749 39.32 152.812 39.4367 152.859 39.57C152.906 39.6967 152.929 39.8467 152.929 40.02C152.929 40.3733 152.839 40.69 152.659 40.97C152.479 41.2433 152.236 41.4533 151.929 41.6L151.909 41.38C152.016 41.4267 152.136 41.4633 152.269 41.49C152.409 41.5167 152.556 41.5267 152.709 41.52C152.876 41.52 153.036 41.4933 153.189 41.44C153.349 41.38 153.476 41.29 153.569 41.17C153.662 41.0433 153.709 40.8733 153.709 40.66C153.709 40.36 153.589 40.0733 153.349 39.8C153.116 39.52 152.749 39.23 152.249 38.93L151.189 38.49C151.189 38.3233 151.202 38.1867 151.229 38.08C151.262 37.9667 151.309 37.8733 151.369 37.8C151.436 37.7267 151.506 37.6567 151.579 37.59C152.266 37.8433 152.849 38.13 153.329 38.45C153.816 38.7633 154.186 39.1167 154.439 39.51C154.692 39.9033 154.819 40.34 154.819 40.82C154.819 41.2067 154.736 41.54 154.569 41.82C154.402 42.0933 154.166 42.3033 153.859 42.45C153.552 42.59 153.189 42.66 152.769 42.66ZM151.429 41.16L151.039 41.09C151.179 41.0233 151.319 40.9467 151.459 40.86C151.599 40.7667 151.716 40.6467 151.809 40.5C151.902 40.3533 151.949 40.1667 151.949 39.94C151.949 39.6933 151.882 39.4967 151.749 39.35C151.616 39.1967 151.456 39.12 151.269 39.12C151.076 39.12 150.912 39.1933 150.779 39.34C150.646 39.4867 150.579 39.68 150.579 39.92C150.579 40.14 150.622 40.3333 150.709 40.5C150.802 40.66 150.916 40.7933 151.049 40.9C151.182 41.0067 151.309 41.0933 151.429 41.16ZM157.1 36.27L157.08 40.53C157.08 40.8033 157.14 40.9933 157.26 41.1C157.387 41.2067 157.563 41.26 157.79 41.26H157.97V42.51L157.62 42.5C157.293 42.4933 157 42.4333 156.74 42.32C156.487 42.2067 156.283 42.0233 156.13 41.77C155.983 41.5167 155.907 41.1833 155.9 40.77L155.87 35.83C155.923 35.8167 156.007 35.8 156.12 35.78C156.233 35.76 156.35 35.75 156.47 35.75C156.677 35.75 156.833 35.7933 156.94 35.88C157.047 35.9667 157.1 36.0967 157.1 36.27ZM157.97 42.51V41.27C158.01 41.3433 158.043 41.43 158.07 41.53C158.097 41.63 158.11 41.7467 158.11 41.88C158.11 42.02 158.097 42.1433 158.07 42.25C158.043 42.3567 158.01 42.4433 157.97 42.51ZM157.815 42.5V41.26H158.015C158.188 41.26 158.361 41.2467 158.535 41.22C158.715 41.1933 158.878 41.1567 159.025 41.11C159.171 41.0633 159.278 41.0133 159.345 40.96C159.358 40.7333 159.345 40.4767 159.305 40.19C159.271 39.8967 159.225 39.6067 159.165 39.32C159.105 39.0267 159.048 38.7667 158.995 38.54C159.061 38.4933 159.148 38.45 159.255 38.41C159.361 38.3633 159.475 38.34 159.595 38.34C159.788 38.34 159.941 38.39 160.055 38.49C160.175 38.59 160.261 38.7767 160.315 39.05C160.348 39.1767 160.375 39.3333 160.395 39.52C160.421 39.7067 160.441 39.8967 160.455 40.09C160.475 40.2767 160.485 40.45 160.485 40.61C160.485 40.9767 160.441 41.2733 160.355 41.5C160.275 41.72 160.111 41.91 159.865 42.07C159.658 42.1967 159.385 42.3 159.045 42.38C158.711 42.46 158.375 42.5 158.035 42.5H157.815ZM158.695 44.42C158.508 44.42 158.358 44.3633 158.245 44.25C158.131 44.1433 158.075 43.9933 158.075 43.8C158.075 43.6133 158.131 43.4633 158.245 43.35C158.358 43.2367 158.508 43.18 158.695 43.18C158.888 43.18 159.038 43.2367 159.145 43.35C159.258 43.4633 159.315 43.6133 159.315 43.8C159.315 43.9933 159.258 44.1433 159.145 44.25C159.038 44.3633 158.888 44.42 158.695 44.42ZM160.255 44.42C160.068 44.42 159.918 44.3633 159.805 44.25C159.691 44.1433 159.635 43.9933 159.635 43.8C159.635 43.6133 159.691 43.4633 159.805 43.35C159.918 43.2367 160.068 43.18 160.255 43.18C160.448 43.18 160.598 43.2367 160.705 43.35C160.818 43.4633 160.875 43.6133 160.875 43.8C160.875 43.9933 160.818 44.1433 160.705 44.25C160.598 44.3633 160.448 44.42 160.255 44.42Z" fill="black"/>
<defs>
<linearGradient id="paint0_linear_1435_63198" x1="167.5" y1="35.6855" x2="124.101" y2="57.1664" gradientUnits="userSpaceOnUse">
<stop stop-color="#7B61FF"/>
<stop offset="1" stop-color="white"/>
</linearGradient>
</defs>
</svg>
