<svg width="21" height="21" viewBox="0 0 21 21" fill="none" xmlns="http://www.w3.org/2000/svg">
<g clip-path="url(#clip0_1018_20474)">
<path d="M16.1185 8.74491C16.1185 7.26926 15.6746 5.82773 14.8445 4.60772C14.0143 3.38771 12.8364 2.44564 11.4638 1.90398C10.0911 1.36232 8.58728 1.24613 7.14773 1.57051C5.70817 1.89488 4.39949 2.64483 3.39182 3.72284C2.38414 4.80086 1.72408 6.15709 1.49743 7.61523C1.27078 9.07337 1.48803 10.566 2.12093 11.899C2.75384 13.232 3.77313 14.3438 5.0463 15.0899C6.31947 15.8359 7.78763 16.1817 9.25993 16.0822" stroke="#697485" stroke-width="1.2" stroke-linecap="round" stroke-linejoin="round"/>
<path d="M5.03125 9.87646C5.59706 11.9123 7.86031 13.1576 9.89611 12.5918C11.1401 12.1383 12.1594 11.1204 12.4977 9.87646" stroke="#697485" stroke-width="1.2" stroke-linecap="round" stroke-linejoin="round"/>
<path d="M5.76562 6.50977V7.33532" stroke="#697485" stroke-width="1.2" stroke-linecap="round"/>
<path d="M11.7617 6.50977V7.33532" stroke="#697485" stroke-width="1.2" stroke-linecap="round"/>
<path d="M16.0823 12.5891V19.6091M12.5723 16.0991H19.5923" stroke="#697485" stroke-width="1.2" stroke-linecap="round" stroke-linejoin="round"/>
</g>
<defs>
<clipPath id="clip0_1018_20474">
<rect width="19.656" height="19.656" fill="white" transform="translate(0.671875 0.671875)"/>
</clipPath>
</defs>
</svg>
