<svg width="5" height="8" viewBox="0 0 5 8" fill="none" xmlns="http://www.w3.org/2000/svg">
<path d="M4.20067 7.36999C4.29924 7.2714 4.35461 7.13769 4.35461 6.99828C4.35461 6.85887 4.29924 6.72517 4.20067 6.62657L1.59817 4.02408L4.20067 1.42159C4.29644 1.32243 4.34944 1.18963 4.34824 1.05177C4.34704 0.913923 4.29175 0.782056 4.19427 0.684577C4.09679 0.587098 3.96492 0.531805 3.82707 0.530607C3.68922 0.529409 3.55641 0.582403 3.45725 0.678173L0.483036 3.65237C0.384472 3.75097 0.329102 3.88467 0.329102 4.02408C0.329102 4.16349 0.384472 4.2972 0.483036 4.39579L3.45725 7.36999C3.55585 7.46856 3.68955 7.52393 3.82896 7.52393C3.96837 7.52393 4.10208 7.46856 4.20067 7.36999Z" fill="#292D32"/>
</svg>
