<svg width="20" height="21" viewBox="0 0 20 21" fill="none" xmlns="http://www.w3.org/2000/svg">
<path fill-rule="evenodd" clip-rule="evenodd" d="M5.83398 2.52344C5.17094 2.52344 4.53506 2.78683 4.06622 3.25567C3.59738 3.72451 3.33398 4.3604 3.33398 5.02344V17.6384C3.33391 17.8574 3.39135 18.0726 3.50057 18.2623C3.60979 18.4521 3.76694 18.6099 3.9563 18.7198C4.14566 18.8298 4.36059 18.8881 4.57955 18.8889C4.79852 18.8896 5.01385 18.8329 5.20398 18.7243L9.58732 16.2193C9.7132 16.1474 9.85567 16.1095 10.0007 16.1095C10.1456 16.1095 10.2881 16.1474 10.414 16.2193L14.7973 18.7243C14.9875 18.8329 15.2028 18.8896 15.4218 18.8889C15.6407 18.8881 15.8556 18.8298 16.045 18.7198C16.2344 18.6099 16.3915 18.4521 16.5007 18.2623C16.6099 18.0726 16.6674 17.8574 16.6673 17.6384V5.02344C16.6673 4.3604 16.4039 3.72451 15.9351 3.25567C15.4662 2.78683 14.8304 2.52344 14.1673 2.52344H5.83398Z" fill="#3537F5"/>
</svg>
