<svg width="16" height="20" viewBox="0 0 16 20" fill="none" xmlns="http://www.w3.org/2000/svg">
<path d="M0.75 18.1383V18.138V3C0.75 2.40326 0.987053 1.83097 1.40901 1.40901C1.83097 0.987053 2.40326 0.75 3 0.75H13C13.5967 0.75 14.169 0.987053 14.591 1.40901C15.0129 1.83097 15.25 2.40326 15.25 3V18.138V18.1383C15.25 18.2696 15.2156 18.3987 15.15 18.5126C15.0845 18.6265 14.9902 18.7211 14.8766 18.7871C14.763 18.8531 14.634 18.888 14.5027 18.8885C14.3713 18.889 14.2422 18.8549 14.1281 18.7898C14.1281 18.7898 14.128 18.7898 14.128 18.7898L8.86813 15.7838L8.868 15.7838C8.60364 15.6327 8.30445 15.5533 8 15.5533C7.69555 15.5533 7.39636 15.6327 7.132 15.7838L7.13187 15.7838L1.872 18.7898C1.75792 18.8549 1.62872 18.889 1.49734 18.8885C1.36596 18.888 1.23701 18.8531 1.12339 18.7871C1.00978 18.7211 0.915482 18.6265 0.849952 18.5126C0.784423 18.3987 0.749955 18.2696 0.75 18.1383Z" stroke="#292D32" stroke-width="1.5"/>
</svg>
