<svg width="14" height="17" viewBox="0 0 14 17" fill="none" xmlns="http://www.w3.org/2000/svg">
<path d="M0.833496 15.4433V15.4431V2.82812C0.833496 2.29769 1.04421 1.78898 1.41928 1.41391C1.79436 1.03884 2.30306 0.828125 2.8335 0.828125H11.1668C11.6973 0.828125 12.206 1.03884 12.581 1.41391L12.9306 1.06433L12.581 1.41391C12.9561 1.78898 13.1668 2.29769 13.1668 2.82812V15.4431V15.4433C13.1669 15.5747 13.1324 15.7038 13.0669 15.8176C13.0013 15.9315 12.9071 16.0262 12.7934 16.0921C12.6798 16.1581 12.5509 16.1931 12.4195 16.1935C12.2881 16.194 12.1589 16.16 12.0448 16.0948L7.66158 13.5898L7.66149 13.5898C7.46008 13.4747 7.23213 13.4142 7.00016 13.4142C6.7682 13.4142 6.54025 13.4747 6.33883 13.5898L6.33874 13.5898L1.9555 16.0948C1.95547 16.0948 1.95544 16.0948 1.95541 16.0948C1.84135 16.16 1.71218 16.194 1.58084 16.1935C1.44945 16.1931 1.3205 16.1581 1.20689 16.0921L0.956665 16.5231L1.20689 16.0921C1.09327 16.0262 0.998978 15.9315 0.933448 15.8176C0.867919 15.7038 0.833451 15.5747 0.833496 15.4433Z" stroke="#788291"/>
</svg>
