<svg width="28" height="28" viewBox="0 0 28 28" fill="none" xmlns="http://www.w3.org/2000/svg">
<path d="M7.88719 25.6663H20.1139C23.3339 25.6663 24.6172 23.6947 24.7689 21.2913L25.3755 11.6547C25.5389 9.13467 23.5322 6.99967 21.0005 6.99967C20.2889 6.99967 19.6355 6.59134 19.3089 5.96134L18.4689 4.26967C17.9322 3.20801 16.5322 2.33301 15.3422 2.33301H12.6705C11.4689 2.33301 10.0689 3.20801 9.53219 4.26967L8.69219 5.96134C8.36552 6.59134 7.71219 6.99967 7.00052 6.99967C4.46885 6.99967 2.46219 9.13467 2.62552 11.6547L3.23219 21.2913C3.37219 23.6947 4.66719 25.6663 7.88719 25.6663Z" stroke="#292D32" stroke-width="1.75" stroke-linecap="round" stroke-linejoin="round"/>
<path d="M12.25 9.33301H15.75" stroke="#292D32" stroke-width="1.75" stroke-linecap="round" stroke-linejoin="round"/>
<path d="M13.9997 21.0003C16.088 21.0003 17.7913 19.297 17.7913 17.2087C17.7913 15.1203 16.088 13.417 13.9997 13.417C11.9113 13.417 10.208 15.1203 10.208 17.2087C10.208 19.297 11.9113 21.0003 13.9997 21.0003Z" stroke="#292D32" stroke-width="1.75" stroke-linecap="round" stroke-linejoin="round"/>
</svg>
