<svg width="16" height="16" viewBox="0 0 16 16" fill="none" xmlns="http://www.w3.org/2000/svg">
<g clip-path="url(#clip0_496_29281)">
<path d="M9.99995 0.400047H5.99995C5.91155 0.400047 5.82676 0.435166 5.76425 0.497678C5.70174 0.56019 5.66662 0.644975 5.66662 0.73338V9.06671H2.13795C2.07207 9.06673 2.00768 9.08626 1.9529 9.12285C1.89811 9.15943 1.8554 9.21143 1.83015 9.27228C1.8049 9.33312 1.79824 9.40008 1.81102 9.46471C1.8238 9.52934 1.85544 9.58872 1.90195 9.63538L7.76395 15.502C7.79491 15.5331 7.8317 15.5577 7.8722 15.5745C7.91269 15.5913 7.95611 15.6 7.99995 15.6C8.0438 15.6 8.08721 15.5913 8.12771 15.5745C8.1682 15.5577 8.20499 15.5331 8.23595 15.502L14.098 9.63538C14.1445 9.58872 14.1761 9.52934 14.1889 9.46471C14.2017 9.40008 14.195 9.33312 14.1698 9.27228C14.1445 9.21143 14.1018 9.15943 14.047 9.12285C13.9922 9.08626 13.9278 9.06673 13.862 9.06671H10.3333V0.73338C10.3333 0.644975 10.2982 0.56019 10.2357 0.497678C10.1731 0.435166 10.0884 0.400047 9.99995 0.400047Z" fill="#D33942" fill-opacity="0.9" stroke="#D33942" stroke-opacity="0.9" stroke-linecap="round" stroke-linejoin="round"/>
</g>
<defs>
<clipPath id="clip0_496_29281">
<rect width="16" height="16" fill="white"/>
</clipPath>
</defs>
</svg>
