<svg width="14" height="16" viewBox="0 0 14 16" fill="none" xmlns="http://www.w3.org/2000/svg">
<path d="M8.99995 0.400047H4.99995C4.91155 0.400047 4.82676 0.435166 4.76425 0.497678C4.70174 0.56019 4.66662 0.644975 4.66662 0.73338V9.06671H1.13795C1.07207 9.06673 1.00768 9.08626 0.952895 9.12285C0.898112 9.15943 0.855399 9.21143 0.830147 9.27228C0.804896 9.33312 0.79824 9.40008 0.81102 9.46471C0.823799 9.52934 0.855441 9.58872 0.90195 9.63538L6.76395 15.502C6.79491 15.5331 6.8317 15.5577 6.8722 15.5745C6.91269 15.5913 6.95611 15.6 6.99995 15.6C7.0438 15.6 7.08721 15.5913 7.12771 15.5745C7.1682 15.5577 7.20499 15.5331 7.23595 15.502L13.098 9.63538C13.1445 9.58872 13.1761 9.52934 13.1889 9.46471C13.2017 9.40008 13.195 9.33312 13.1698 9.27228C13.1445 9.21143 13.1018 9.15943 13.047 9.12285C12.9922 9.08626 12.9278 9.06673 12.862 9.06671H9.33328V0.73338C9.33328 0.644975 9.29817 0.56019 9.23565 0.497678C9.17314 0.435166 9.08836 0.400047 8.99995 0.400047Z" stroke="#697485" stroke-linecap="round" stroke-linejoin="round"/>
</svg>
