<svg width="24" height="24" viewBox="0 0 24 24" fill="none" xmlns="http://www.w3.org/2000/svg">
<rect x="0.272727" y="0.272727" width="23.4545" height="23.4545" rx="11.7273" stroke="#3537F5" stroke-width="0.545455"/>
<path d="M11.9997 11.9995C13.506 11.9995 14.727 10.7784 14.727 9.27219C14.727 7.76596 13.506 6.54492 11.9997 6.54492C10.4935 6.54492 9.27246 7.76596 9.27246 9.27219C9.27246 10.7784 10.4935 11.9995 11.9997 11.9995Z" stroke="#3537F5" stroke-width="0.818182" stroke-linecap="round" stroke-linejoin="round"/>
<path d="M15.9327 14.0391L14.0017 15.9701C13.9254 16.0464 13.8545 16.1882 13.8381 16.2919L13.7345 17.0282C13.6963 17.2955 13.8818 17.4809 14.149 17.4428L14.8854 17.3391C14.989 17.3228 15.1363 17.2519 15.2072 17.1755L17.1381 15.2446C17.4708 14.9119 17.629 14.5246 17.1381 14.0337C16.6526 13.5482 16.2654 13.7064 15.9327 14.0391Z" stroke="#3537F5" stroke-width="0.818182" stroke-miterlimit="10" stroke-linecap="round" stroke-linejoin="round"/>
<path d="M15.6543 14.3174C15.8179 14.9065 16.2761 15.3646 16.8652 15.5283" stroke="#3537F5" stroke-width="0.818182" stroke-miterlimit="10" stroke-linecap="round" stroke-linejoin="round"/>
<path d="M7.31445 17.4539C7.31445 15.343 9.41447 13.6357 11.9999 13.6357C12.5672 13.6357 13.1126 13.7176 13.6199 13.8703" stroke="#3537F5" stroke-width="0.818182" stroke-linecap="round" stroke-linejoin="round"/>
</svg>
