<svg width="28" height="28" viewBox="0 0 28 28" fill="none" xmlns="http://www.w3.org/2000/svg">
<path d="M3.00993 22.1791L2.9866 22.2025C2.6716 21.5141 2.47327 20.7325 2.3916 19.8691C2.47327 20.7208 2.69493 21.4908 3.00993 22.1791Z" fill="#292D32"/>
<path d="M10.5003 12.11C12.0338 12.11 13.277 10.8668 13.277 9.33331C13.277 7.7998 12.0338 6.55664 10.5003 6.55664C8.96679 6.55664 7.72363 7.7998 7.72363 9.33331C7.72363 10.8668 8.96679 12.11 10.5003 12.11Z" fill="#292D32"/>
<path d="M18.888 2.33301H9.11134C4.86467 2.33301 2.33301 4.86467 2.33301 9.11134V18.888C2.33301 20.1597 2.55467 21.268 2.98634 22.2013C3.98967 24.418 6.13634 25.6663 9.11134 25.6663H18.888C23.1347 25.6663 25.6663 23.1347 25.6663 18.888V16.2163V9.11134C25.6663 4.86467 23.1347 2.33301 18.888 2.33301ZM23.7647 14.583C22.8547 13.8013 21.3847 13.8013 20.4747 14.583L15.6213 18.748C14.7113 19.5297 13.2413 19.5297 12.3313 18.748L11.9347 18.4213C11.1063 17.698 9.78801 17.628 8.85468 18.258L4.49134 21.1863C4.23467 20.533 4.08301 19.7747 4.08301 18.888V9.11134C4.08301 5.82134 5.82134 4.08301 9.11134 4.08301H18.888C22.178 4.08301 23.9163 5.82134 23.9163 9.11134V14.7113L23.7647 14.583Z" fill="#292D32"/>
</svg>
