<svg width="22" height="22" viewBox="0 0 22 22" fill="none" xmlns="http://www.w3.org/2000/svg">
<path d="M4.12565 16.4999V10.9999C4.12565 10.7489 4.33295 10.5416 4.58398 10.5416H6.41732C6.66835 10.5416 6.87565 10.7489 6.87565 10.9999V13.8691C6.87565 14.7283 7.34696 15.4965 8.0988 15.8958C8.84887 16.2991 9.74498 16.2385 10.4402 15.7713L10.4401 15.7714L10.185 15.391L10.4405 15.7711L4.12565 16.4999ZM4.12565 16.4999C4.12565 18.2726 5.56128 19.7083 7.33398 19.7083H14.6673C16.44 19.7083 17.8757 18.2726 17.8757 16.4999V10.9999C17.8757 10.7489 17.6684 10.5416 17.4173 10.5416H15.6115C15.3604 10.5416 15.1532 10.7489 15.1532 10.9999V13.8783C15.1532 14.7258 14.6844 15.5028 13.9425 15.9032M4.12565 16.4999L13.9425 15.9032M13.9425 15.9032C13.6076 16.0875 13.2385 16.1791 12.8615 16.1791C12.4255 16.1791 11.9891 16.053 11.6101 15.8009L13.9425 15.9032ZM10.9949 15.3994L10.741 15.2337L10.9915 14.8499L11.2467 15.2306L10.9949 15.3994Z" fill="#3537F5" stroke="#3537F5" stroke-width="0.916667"/>
<path d="M2.75065 6.41659V7.33325C2.75065 7.77166 2.85695 8.10654 3.04904 8.32674C3.23122 8.53556 3.54922 8.70825 4.12565 8.70825H17.8757C18.485 8.70825 18.7976 8.53252 18.9693 8.33086C19.1531 8.11513 19.2507 7.78285 19.2507 7.33325V6.41659C19.2507 5.96699 19.1531 5.6347 18.9693 5.41898C18.7976 5.21732 18.485 5.04159 17.8757 5.04159H4.12565C3.54922 5.04159 3.23122 5.21428 3.04904 5.4231C2.85695 5.64329 2.75065 5.97818 2.75065 6.41659Z" fill="#3537F5" stroke="#3537F5" stroke-width="0.916667"/>
<path d="M14.1475 2.41416L12.4366 4.12507H16.1395C16.1844 3.98653 16.1514 3.82872 16.0385 3.71583L14.7369 2.41416C14.5767 2.25398 14.3077 2.25398 14.1475 2.41416Z" fill="#3537F5" stroke="#3537F5" stroke-width="0.916667"/>
<path d="M5.97128 3.71583C5.85839 3.82872 5.8254 3.98653 5.87034 4.12507H9.57317L7.86226 2.41416C7.70209 2.25398 7.43312 2.25398 7.27295 2.41416L5.97128 3.71583Z" fill="#3537F5" stroke="#3537F5" stroke-width="0.916667"/>
<path d="M9.43982 14.2512L9.44378 14.2486L10.2688 13.6986C10.7275 13.3928 11.3195 13.3969 11.7803 13.6951L11.7804 13.6951L11.7837 13.6973L12.6454 14.2656L12.6454 14.2656L12.6473 14.2669C12.9425 14.4638 13.3464 14.2517 13.3464 13.8874V10.9999C13.3464 10.7489 13.1391 10.5416 12.888 10.5416H9.19385C8.94282 10.5416 8.73552 10.7489 8.73552 10.9999V13.8691C8.73552 14.2427 9.14611 14.4515 9.43982 14.2512Z" fill="#3537F5" stroke="#3537F5" stroke-width="0.916667"/>
</svg>
