<svg width="16" height="16" viewBox="0 0 16 16" fill="none" xmlns="http://www.w3.org/2000/svg">
<path fill-rule="evenodd" clip-rule="evenodd" d="M14.72 7.6793C14.72 11.214 11.8548 14.0793 8.32004 14.0793C4.78532 14.0793 1.92004 11.214 1.92004 7.6793C1.92004 4.14458 4.78532 1.2793 8.32004 1.2793C11.8548 1.2793 14.72 4.14458 14.72 7.6793ZM10.8992 5.7401C10.9891 5.8301 11.0396 5.9521 11.0396 6.0793C11.0396 6.2065 10.9891 6.3285 10.8992 6.4185L7.69924 9.6185C7.60924 9.70838 7.48724 9.75887 7.36004 9.75887C7.23284 9.75887 7.11084 9.70838 7.02084 9.6185L5.74084 8.3385C5.69368 8.29455 5.65586 8.24156 5.62962 8.18268C5.60339 8.1238 5.58928 8.06024 5.58815 7.99579C5.58701 7.93134 5.59886 7.86732 5.62301 7.80755C5.64715 7.74779 5.68308 7.69349 5.72866 7.64791C5.77424 7.60233 5.82853 7.5664 5.8883 7.54226C5.94807 7.51812 6.01209 7.50626 6.07654 7.5074C6.14099 7.50853 6.20455 7.52264 6.26343 7.54888C6.32231 7.57511 6.3753 7.61294 6.41924 7.6601L7.36004 8.6009L8.79044 7.1705L10.2208 5.7401C10.3108 5.65021 10.4328 5.59972 10.56 5.59972C10.6872 5.59972 10.8092 5.65021 10.8992 5.7401Z" fill="#149440"/>
</svg>
