<svg width="24" height="25" viewBox="0 0 24 25" fill="none" xmlns="http://www.w3.org/2000/svg">
<path d="M16.8395 20.78C15.9004 21.73 14.875 21.58 13.8879 21.13C12.8433 20.67 11.885 20.65 10.7829 21.13C9.40287 21.75 8.67454 21.57 7.85037 20.78C3.1737 15.75 3.8637 8.09 9.17287 7.81C10.4666 7.88 11.3675 8.55 12.1245 8.61C13.2554 8.37 14.3383 7.68 15.5458 7.77C16.9929 7.89 18.0854 8.49 18.8041 9.57C15.8141 11.44 16.5233 15.55 19.2641 16.7C18.7179 18.2 18.0087 19.69 16.83 20.79L16.8395 20.78ZM12.0287 7.75C11.885 5.52 13.6195 3.68 15.6129 3.5C15.8908 6.08 13.3704 8 12.0287 7.75Z" fill="black"/>
</svg>
