<svg width="22" height="23" viewBox="0 0 22 23" fill="none" xmlns="http://www.w3.org/2000/svg">
<g clip-path="url(#clip0_1072_55198)">
<path d="M16.2401 5.64129H17.6801M6.88012 1.32129H15.5201C17.0478 1.32129 18.5128 1.92814 19.5931 3.00835C20.6733 4.08856 21.2801 5.55364 21.2801 7.08129V15.7213C21.2801 17.2489 20.6733 18.714 19.5931 19.7942C18.5128 20.8744 17.0478 21.4813 15.5201 21.4813H6.88012C5.35247 21.4813 3.88739 20.8744 2.80718 19.7942C1.72697 18.714 1.12012 17.2489 1.12012 15.7213V7.08129C1.12012 5.55364 1.72697 4.08856 2.80718 3.00835C3.88739 1.92814 5.35247 1.32129 6.88012 1.32129ZM11.2001 15.7213C10.0544 15.7213 8.95557 15.2661 8.14542 14.456C7.33526 13.6458 6.88012 12.547 6.88012 11.4013C6.88012 10.2556 7.33526 9.15674 8.14542 8.34659C8.95557 7.53643 10.0544 7.08129 11.2001 7.08129C12.3459 7.08129 13.4447 7.53643 14.2548 8.34659C15.065 9.15674 15.5201 10.2556 15.5201 11.4013C15.5201 12.547 15.065 13.6458 14.2548 14.456C13.4447 15.2661 12.3459 15.7213 11.2001 15.7213Z" stroke="#3537F5" stroke-width="1.5"/>
</g>
<defs>
<clipPath id="clip0_1072_55198">
<rect width="21.6" height="21.6" fill="white" transform="translate(0.400391 0.599609)"/>
</clipPath>
</defs>
</svg>
