<svg width="30" height="30" viewBox="0 0 30 30" fill="none" xmlns="http://www.w3.org/2000/svg">
<g clip-path="url(#clip0_1423_63236)">
<path d="M28.4404 28.5214H22.5409C22.1236 28.5214 21.7864 28.1842 21.7864 27.7668V18.266C21.7864 15.0075 20.1057 15.0075 19.5512 15.0075C18.0592 15.0075 17.4247 16.1852 17.2188 16.694C17.1217 16.9226 17.0759 17.3113 17.0759 17.8545V27.7726C17.0759 28.1899 16.7387 28.5272 16.3214 28.5272H10.4162C10.2161 28.5272 10.0217 28.4472 9.87885 28.3043C9.73594 28.1614 9.65591 27.9669 9.66161 27.7669C9.66161 27.6068 9.74164 11.6749 9.66161 10.0456C9.65019 9.83984 9.72449 9.63976 9.86742 9.49113C10.0103 9.3425 10.2047 9.25674 10.4162 9.25674H16.3214C16.7387 9.25674 17.0759 9.59399 17.0759 10.0113V10.4572C18.0706 9.57113 19.5055 8.8394 21.6434 8.8394C26.371 8.8394 29.195 12.1092 29.195 17.5857V27.7668C29.195 28.1842 28.8577 28.5214 28.4404 28.5214ZM23.2955 27.0123L27.6916 27.0122V17.5856C27.6916 12.9838 25.4907 10.3485 21.6492 10.3485C19.0825 10.3485 17.8363 11.629 17.0531 12.8009C16.9616 13.1096 16.6701 13.3383 16.3271 13.3383H16.2871C16.0127 13.3383 15.7611 13.1896 15.6297 12.9496C15.5268 12.7609 15.5039 12.5436 15.5725 12.3436V10.7601H11.1879C11.228 13.9099 11.1879 24.1026 11.1765 27.0066H15.5668V17.8486C15.5668 17.0884 15.6468 16.5396 15.8183 16.1223C16.4814 14.4816 17.8762 13.4927 19.5455 13.4927C21.9236 13.4927 23.2898 15.2305 23.2898 18.2602V27.0123H23.2956L23.2955 27.0123ZM7.15206 28.5213H1.24688C0.829568 28.5213 0.492318 28.184 0.492318 27.7667V10.0112C0.492318 9.59393 0.829568 9.25665 1.24688 9.25665H7.15206C7.56937 9.25665 7.90662 9.59393 7.90662 10.0112V27.7668C7.90662 28.1841 7.56937 28.5213 7.15206 28.5213V28.5213ZM2.00149 27.0122H6.39748V10.7658H2.00152L2.00149 27.0122ZM4.20232 8.34198L4.16228 8.34195C1.83565 8.34195 0.143555 6.72989 0.143555 4.51188C0.143555 2.29959 1.86423 0.6875 4.24231 0.6875C6.58037 0.6875 8.24963 2.25382 8.29537 4.49472C8.29537 6.72989 6.5747 8.34198 4.20232 8.34198ZM4.24231 2.2024C2.69312 2.2024 1.65273 3.13421 1.65273 4.51763C1.65273 5.87814 2.68172 6.83281 4.16231 6.83281H4.20229C5.74578 6.83281 6.78617 5.901 6.78617 4.5176C6.75759 3.11705 5.75721 2.2024 4.24231 2.2024Z" fill="#3537F5"/>
</g>
<defs>
<clipPath id="clip0_1423_63236">
<rect width="29.04" height="29.04" fill="white" transform="translate(0.144043 0.0927734)"/>
</clipPath>
</defs>
</svg>
