<svg width="20" height="20" viewBox="0 0 20 20" fill="none" xmlns="http://www.w3.org/2000/svg">
<path d="M5.83333 10.0002C5.83333 10.4422 5.65774 10.8661 5.34518 11.1787C5.03262 11.4912 4.60869 11.6668 4.16667 11.6668C3.72464 11.6668 3.30072 11.4912 2.98816 11.1787C2.67559 10.8661 2.5 10.4422 2.5 10.0002C2.5 9.55814 2.67559 9.13421 2.98816 8.82165C3.30072 8.50909 3.72464 8.3335 4.16667 8.3335C4.60869 8.3335 5.03262 8.50909 5.34518 8.82165C5.65774 9.13421 5.83333 9.55814 5.83333 10.0002ZM11.6667 10.0002C11.6667 10.4422 11.4911 10.8661 11.1785 11.1787C10.866 11.4912 10.442 11.6668 10 11.6668C9.55797 11.6668 9.13405 11.4912 8.82149 11.1787C8.50893 10.8661 8.33333 10.4422 8.33333 10.0002C8.33333 9.55814 8.50893 9.13421 8.82149 8.82165C9.13405 8.50909 9.55797 8.3335 10 8.3335C10.442 8.3335 10.866 8.50909 11.1785 8.82165C11.4911 9.13421 11.6667 9.55814 11.6667 10.0002ZM17.5 10.0002C17.5 10.4422 17.3244 10.8661 17.0118 11.1787C16.6993 11.4912 16.2754 11.6668 15.8333 11.6668C15.3913 11.6668 14.9674 11.4912 14.6548 11.1787C14.3423 10.8661 14.1667 10.4422 14.1667 10.0002C14.1667 9.55814 14.3423 9.13421 14.6548 8.82165C14.9674 8.50909 15.3913 8.3335 15.8333 8.3335C16.2754 8.3335 16.6993 8.50909 17.0118 8.82165C17.3244 9.13421 17.5 9.55814 17.5 10.0002Z" fill="#697485"/>
</svg>
