<svg width="22" height="22" viewBox="0 0 22 22" fill="none" xmlns="http://www.w3.org/2000/svg">
<path d="M20.1584 17.6957L20.1584 17.6957L20.1622 17.6894C20.4573 17.2109 20.6257 16.6432 20.6257 16.0417C20.6257 14.269 19.19 12.8333 17.4173 12.8333C15.6446 12.8333 14.209 14.269 14.209 16.0417C14.209 16.6432 14.3774 17.2109 14.6724 17.6894L14.6725 17.6894L14.6762 17.6957C15.2292 18.6253 16.2465 19.25 17.4173 19.25C18.5881 19.25 19.6055 18.6253 20.1584 17.6957ZM15.3003 16.0756L15.3003 16.0757L15.2988 16.0742C14.8415 15.6475 14.8077 14.9176 15.2397 14.4548C15.6662 13.9978 16.3955 13.9638 16.8584 14.395C16.8587 14.3953 16.859 14.3955 16.8592 14.3958L18.0008 15.4517L18.1291 15.3234C18.5739 14.8786 19.3041 14.8786 19.7489 15.3234C20.1937 15.7682 20.1937 16.4984 19.7489 16.9433L18.8414 17.8508C18.6134 18.0787 18.3206 18.1867 18.0315 18.1867C17.755 18.1867 17.4685 18.0816 17.2525 17.8812C17.2524 17.8811 17.2522 17.881 17.2521 17.8809L15.3003 16.0756Z" fill="#3537F5" stroke="#3537F5" stroke-width="0.916667"/>
<path d="M18.7145 10.6917L18.7145 10.6915L18.7256 10.6945C18.7396 10.6982 18.7603 10.6959 18.779 10.6826C18.7872 10.6766 18.7907 10.6714 18.7917 10.6697V6.58171C18.7917 5.37961 18.393 4.41348 17.7285 3.74903C17.0641 3.08457 16.0979 2.68587 14.8958 2.68587H6.1875C4.9854 2.68587 4.01927 3.08457 3.35482 3.74903C2.69036 4.41348 2.29167 5.37961 2.29167 6.58171V11.8067C2.29167 13.0012 2.69307 13.9708 3.35824 14.6451C4.02288 15.3006 4.99223 15.7025 6.1875 15.7025H6.64583V16.1609V18.0125C6.64583 18.3545 7.02456 18.5381 7.27794 18.3664L7.28076 18.3645L11.1583 15.7795L11.2737 15.7025H11.4125H11.916C11.9171 15.7022 11.9197 15.7009 11.9235 15.6973C11.9305 15.6906 11.9354 15.681 11.9362 15.6699L11.9361 15.6699L11.9369 15.6603C12.1955 12.8659 14.5414 10.5417 17.4167 10.5417C17.8638 10.5417 18.2937 10.5915 18.7145 10.6917ZM13.5942 10.3675H7.48917C6.87854 10.3675 6.38 9.869 6.38 9.25837C6.38 8.64276 6.87437 8.14004 7.48917 8.14004H13.5942C14.209 8.14004 14.7033 8.64276 14.7033 9.25837C14.7033 9.869 14.2048 10.3675 13.5942 10.3675Z" fill="#3537F5" stroke="#3537F5" stroke-width="0.916667"/>
</svg>
