<svg width="20" height="20" viewBox="0 0 20 20" fill="none" xmlns="http://www.w3.org/2000/svg">
<path d="M16.1163 12.0751L15.283 10.6917C15.108 10.3834 14.9496 9.80008 14.9496 9.45842V7.35008C14.9496 5.39175 13.7996 3.70008 12.1413 2.90841C11.708 2.14175 10.908 1.66675 9.99129 1.66675C9.08296 1.66675 8.26629 2.15841 7.83296 2.93341C6.20796 3.74175 5.08296 5.41675 5.08296 7.35008V9.45842C5.08296 9.80008 4.92463 10.3834 4.74963 10.6834L3.90796 12.0751C3.57463 12.6334 3.49963 13.2501 3.70796 13.8167C3.90796 14.3751 4.38296 14.8084 4.99963 15.0167C6.61629 15.5667 8.31629 15.8334 10.0163 15.8334C11.7163 15.8334 13.4163 15.5667 15.033 15.0251C15.6163 14.8334 16.0663 14.3917 16.283 13.8167C16.4996 13.2417 16.4413 12.6084 16.1163 12.0751Z" fill="#3537F5"/>
<path d="M12.3577 16.6751C12.0077 17.6417 11.0827 18.3334 9.99941 18.3334C9.34108 18.3334 8.69108 18.0667 8.23275 17.5917C7.96608 17.3417 7.76608 17.0084 7.64941 16.6667C7.75775 16.6834 7.86608 16.6917 7.98275 16.7084C8.17441 16.7334 8.37441 16.7584 8.57441 16.7751C9.04941 16.8167 9.53275 16.8417 10.0161 16.8417C10.4911 16.8417 10.9661 16.8167 11.4327 16.7751C11.6077 16.7584 11.7827 16.7501 11.9494 16.7251C12.0827 16.7084 12.2161 16.6917 12.3577 16.6751Z" fill="#3537F5"/>
</svg>
