<svg width="21" height="20" viewBox="0 0 21 20" fill="none" xmlns="http://www.w3.org/2000/svg">
<path d="M10.3165 2.42505C13.0748 2.42505 15.3165 4.66672 15.3165 7.42505V9.83338C15.3165 10.3417 15.5332 11.1167 15.7915 11.55L16.7498 13.1417C17.3415 14.125 16.9332 15.2167 15.8498 15.5834C12.2582 16.7834 8.38318 16.7834 4.79151 15.5834C3.78318 15.2501 3.34151 14.0584 3.89151 13.1417L4.84984 11.55C5.09985 11.1167 5.31651 10.3417 5.31651 9.83338V7.42505C5.31651 4.67505 7.56651 2.42505 10.3165 2.42505Z" stroke="#788291" stroke-width="1.25" stroke-miterlimit="10" stroke-linecap="round"/>
<path d="M8.77604 2.6667C9.03438 2.5917 9.30104 2.53337 9.57604 2.50003C10.376 2.40003 11.1427 2.45837 11.8594 2.6667C11.6177 2.05003 11.0177 1.6167 10.3177 1.6167C9.61771 1.6167 9.01771 2.05003 8.77604 2.6667Z" stroke="#788291" stroke-width="1.25" stroke-miterlimit="10" stroke-linecap="round" stroke-linejoin="round"/>
<path d="M7.81641 15.8833C7.81641 17.2583 8.94141 18.3833 10.3164 18.3833C10.9997 18.3833 11.6331 18.1 12.0831 17.65C12.5331 17.2 12.8164 16.5666 12.8164 15.8833" stroke="#788291" stroke-width="1.25" stroke-miterlimit="10"/>
<rect x="-0.208333" y="0.208333" width="6.25" height="6.25" rx="3.125" transform="matrix(-1 0 0 1 8.2513 0)" fill="#D74D55"/>
<rect x="-0.208333" y="0.208333" width="6.25" height="6.25" rx="3.125" transform="matrix(-1 0 0 1 8.2513 0)" stroke="#FCFCFC" stroke-width="0.416667"/>
</svg>
