<svg width="533" height="545" viewBox="0 0 533 545" fill="none" xmlns="http://www.w3.org/2000/svg">
<mask id="mask0_472_24017" style="mask-type:luminance" maskUnits="userSpaceOnUse" x="0" y="0" width="533" height="545">
<path d="M266.5 544.98C413.684 544.98 533 422.982 533 272.49C533 121.998 413.684 0 266.5 0C119.316 0 0 121.998 0 272.49C0 422.982 119.316 544.98 266.5 544.98Z" fill="white"/>
</mask>
<g mask="url(#mask0_472_24017)">
<path d="M388.44 381.82C388.44 381.82 364.34 291.59 371.13 243.21L348.33 217.58V301.62C348.33 345.91 312.42 381.82 268.13 381.82C223.84 381.82 187.93 345.91 187.93 301.62V217.58L165.13 243.2C171.92 291.59 147.82 381.82 147.82 381.82L141.17 464.13L268.13 565.28L395.09 464.13L388.44 381.82Z" fill="#E0E9EF"/>
<path d="M268.13 565.98L267.79 565.71L140.61 464.38L140.63 464.09L147.28 381.73V381.68C147.35 381.45 153.37 358.81 158.49 330.55C163.21 304.49 168.09 268.2 164.59 243.29V243.21V243L164.73 242.83L188.48 216.15V301.62C188.48 322.9 196.77 342.9 211.81 357.94C226.86 372.99 246.86 381.27 268.13 381.27C289.4 381.27 309.41 372.98 324.45 357.94C339.5 342.89 347.78 322.89 347.78 301.62V216.15L371.67 242.99V243.29C368.17 268.21 373.05 304.5 377.77 330.55C382.88 358.81 388.9 381.45 388.96 381.68L388.98 381.78L395.65 464.38L395.42 464.56L268.12 565.98H268.13ZM141.73 463.89L268.13 564.59L394.53 463.89L387.91 381.92C387.6 380.74 381.72 358.44 376.71 330.76C371.99 304.7 367.11 268.43 370.57 243.38L348.88 219.01V301.63C348.88 323.2 340.48 343.47 325.23 358.72C309.98 373.97 289.7 382.37 268.14 382.37C246.58 382.37 226.3 373.97 211.05 358.72C195.8 343.47 187.4 323.19 187.4 301.63V219.01L165.71 243.38C169.17 268.43 164.28 304.7 159.56 330.76C154.55 358.43 148.67 380.73 148.36 381.92L141.74 463.89H141.73Z" fill="#E3DEDF"/>
<path d="M333.4 436.98C332.98 435.13 332.84 435.25 330.88 429.87C328.22 422.54 320.73 400.95 316.77 373.44C316.14 369.04 315.31 362.52 314.73 354.5C314.73 340.21 308.71 327.35 299.1 318.23C290.13 309.71 278.03 304.45 264.67 304.45C258.68 304.45 252.95 305.56 247.63 307.49C234.86 312.12 224.52 321.76 219.01 334.08C216.21 340.32 214.62 347.22 214.62 354.52V354.8C214.62 375.62 213.99 389.22 213.74 397.81C212.72 431.88 216.24 429.18 213.74 445.26C210.52 466.03 205.18 467.14 207.59 476.01C212.87 495.47 242.95 506.19 264.69 506.19C286.43 506.19 305.37 496.38 318.06 481C322.34 475.81 338.01 457.14 333.39 436.98H333.4Z" fill="#D17E79"/>
<path d="M191.82 280.62C191.82 292.37 194.83 305.33 183.11 305.33C164.95 305.33 153.07 290.82 153.07 279.07C153.07 267.32 158.89 259.35 170.61 259.35C182.33 259.35 191.83 268.87 191.83 280.62H191.82Z" fill="#D17E79"/>
<path d="M171.88 286.28C171.08 288.92 168.06 289.67 165.81 288.14C161.18 285.09 157.73 273.61 164.69 273.61C165.18 273.61 165.67 273.72 166.09 273.93C169.27 275.58 172.81 283.47 171.88 286.29V286.28Z" fill="#75363F"/>
<path d="M337.57 280.62C337.57 292.37 334.56 305.33 346.28 305.33C364.44 305.33 376.33 290.82 376.33 279.07C376.33 267.32 370.51 259.35 358.79 259.35C347.07 259.35 337.57 268.87 337.57 280.62Z" fill="#D17E79"/>
<path d="M357.51 286.28C358.31 288.92 361.33 289.67 363.58 288.14C368.21 285.09 371.66 273.61 364.7 273.61C364.21 273.61 363.72 273.72 363.3 273.93C360.12 275.58 356.58 283.47 357.51 286.29V286.28Z" fill="#75363F"/>
<path d="M344.62 332.24C343.67 334.21 342.65 336.03 341.56 337.82C329.55 357.31 301.26 385.18 265.03 385.6H264.33C228.13 385.18 199.8 357.3 187.83 337.82C186.64 335.89 185.51 333.85 184.5 331.71C166.45 294.57 171.75 229.51 186.99 197.42C202.61 164.63 230.77 147.25 264.33 146.51C264.47 146.47 264.58 146.47 264.72 146.47C264.82 146.47 264.93 146.47 265.04 146.51C298.64 147.25 326.79 164.63 342.38 197.42C357.72 229.65 362.95 295.2 344.63 332.23L344.62 332.24Z" fill="#D17E79"/>
<path d="M291.35 237.07C291.51 226.37 317.95 229.26 316.64 240.06C315.53 249.19 291.22 245.79 291.35 237.07Z" fill="#0D1016"/>
<path d="M212.84 240.19C210.51 229.75 236.9 226.41 238.13 237.22C239.17 246.36 214.74 248.7 212.84 240.19Z" fill="#0D1016"/>
<path d="M271.96 249.77C274.72 259.33 276.35 268.78 277.74 278.55C279.46 288.81 275.76 296.73 264.77 298.27C262.32 298.62 259.54 299.09 257.02 298.67C253.73 298.21 253.68 293.5 256.91 292.94C257.83 292.77 259.18 292.61 260.05 292.33C264.4 291.11 270.29 290.98 270.89 285.55C271.62 281.39 269.61 269.38 269.33 265.01L268.5 257.85C268.24 255.44 267.92 253.03 267.6 250.71C267.26 248.01 271.12 247.14 271.96 249.75V249.77Z" fill="#AB5555"/>
<path d="M349.67 188.87V261.31C349.67 293.14 332.03 320.84 305.99 335.17V313.55C305.99 311.89 305.01 310.36 303.48 309.73C303.48 309.73 303.46 309.73 303.45 309.72C303.03 309.54 302.6 309.39 302.18 309.2C301.45 308.9 300.71 308.6 299.96 308.31C299.09 307.96 298.21 307.64 297.32 307.32C296.6 307.05 295.88 306.8 295.15 306.55C294.97 306.48 294.77 306.42 294.58 306.35C293.96 306.13 293.34 305.95 292.73 305.77C292.48 305.69 292.25 305.64 292 305.57C291.05 305.29 290.11 305.02 289.16 304.77C288.81 304.67 288.46 304.55 288.11 304.47C287.41 304.29 286.72 304.12 286.02 303.95C285.85 303.92 285.67 303.87 285.49 303.83C284.72 303.65 283.95 303.48 283.19 303.33C282.56 303.21 281.92 303.08 281.29 302.98C281.19 302.96 281.11 302.95 281.01 302.93C280.74 302.88 280.46 302.85 280.17 302.8C279.9 302.75 279.65 302.7 279.39 302.67C278.4 302.52 277.4 302.39 276.42 302.27C276.05 302.22 275.67 302.17 275.3 302.12C273.83 301.95 272.36 301.82 270.87 301.74C269.07 301.62 267.26 301.57 265.46 301.57C263.66 301.57 261.85 301.62 260.05 301.74C258.56 301.82 257.09 301.96 255.62 302.12C255.25 302.17 254.87 302.22 254.5 302.27C253.51 302.39 252.51 302.52 251.53 302.67C251.26 302.7 251.01 302.75 250.75 302.8C250.47 302.85 250.18 302.88 249.91 302.93C249.81 302.95 249.73 302.96 249.63 302.98C249 303.08 248.36 303.21 247.73 303.33C246.96 303.48 246.19 303.65 245.43 303.83C245.25 303.86 245.06 303.91 244.9 303.95C244.2 304.12 243.51 304.28 242.81 304.47C242.46 304.55 242.11 304.67 241.76 304.77C240.81 305.02 239.87 305.29 238.92 305.57C238.67 305.64 238.44 305.69 238.19 305.77C237.57 305.95 236.95 306.14 236.34 306.35C236.16 306.42 235.96 306.48 235.77 306.55C235.04 306.8 234.32 307.05 233.6 307.32C232.71 307.64 231.83 307.95 230.96 308.31C230.21 308.59 229.47 308.89 228.74 309.2C228.32 309.38 227.89 309.53 227.47 309.72C227.47 309.72 227.45 309.72 227.44 309.73C225.9 310.36 224.93 311.89 224.93 313.55V335.17C198.89 320.84 181.25 293.15 181.25 261.31V188.87L172.78 198.39V295.53C172.78 346.72 214.29 388.23 265.48 388.23C316.67 388.23 358.18 346.72 358.18 295.53V198.39L349.71 188.87H349.67ZM292.35 341.16C286.17 343.25 279.66 344.63 272.91 345.22V335.61C267.93 336.59 262.96 336.59 257.98 335.61V345.22C251.23 344.64 244.72 343.25 238.54 341.16V323.52C238.54 321.93 239.44 320.44 240.89 319.77C245.25 317.75 249.61 316.28 253.98 315.33C257.8 314.49 261.63 314.06 265.45 314.06C269.27 314.06 273.1 314.49 276.92 315.33C281.28 316.28 285.64 317.74 290.01 319.77C291.46 320.44 292.36 321.92 292.36 323.52V341.16H292.35Z" fill="#261C1C"/>
<path d="M348.32 201.23C295.19 192.81 241.06 192.81 187.92 201.23C186.36 191.4 184.81 181.57 183.25 171.74C239.48 162.83 296.76 162.83 352.99 171.74C351.43 181.57 349.88 191.4 348.32 201.23Z" fill="#EBF1F4"/>
<path d="M147.81 381.82L141.16 270.14L165.12 243.22C171.91 291.6 147.81 381.83 147.81 381.83V381.82Z" fill="#EBF1F4"/>
<path d="M147.47 385.2L140.61 269.94L165.5 241.98L165.66 243.14C169.18 268.2 164.28 304.62 159.55 330.76C154.43 359.06 148.4 381.74 148.34 381.96L147.47 385.2ZM141.72 270.33L148.15 378.35C150 371.04 154.52 352.49 158.48 330.56C163.12 304.91 167.93 269.34 164.74 244.46L141.72 270.33Z" fill="#E3DEDF"/>
<path d="M212.56 189.9L195.25 209.35L187.92 217.59L165.12 243.21L141.16 270.15C126.78 254.1 144.48 194.84 144.48 194.84H162.74L212.55 189.91L212.56 189.9Z" fill="#F3F6F8"/>
<path d="M141.17 270.95L140.76 270.5C134.68 263.72 133.38 248.87 136.9 226.38C139.5 209.71 143.93 194.82 143.97 194.67L144.09 194.28H162.73L213.89 189.22L141.17 270.95ZM144.9 195.36C143.43 200.45 128.47 253.71 141.18 269.31L164.59 243.01L164.73 242.84L187.53 217.22L194.86 208.98L211.25 190.57L162.79 195.36H144.9Z" fill="#E3DEDF"/>
<path d="M388.44 381.82L395.09 270.14L371.13 243.22C364.34 291.6 388.44 381.83 388.44 381.83V381.82Z" fill="#EBF1F4"/>
<path d="M388.78 385.2L387.91 381.96C387.85 381.73 381.82 359.05 376.7 330.76C371.97 304.62 367.07 268.21 370.59 243.14L370.75 241.98L395.64 269.94V270.16L388.78 385.19V385.2ZM371.51 244.46C368.32 269.34 373.13 304.91 377.77 330.57C381.74 352.5 386.25 371.04 388.1 378.35L394.53 270.33L371.51 244.46Z" fill="#E3DEDF"/>
<path d="M323.69 189.9L341 209.35L348.33 217.59L371.13 243.21L395.09 270.15C409.47 254.1 391.77 194.84 391.77 194.84H373.51L323.7 189.91L323.69 189.9Z" fill="#F3F6F8"/>
<path d="M395.08 270.95L322.36 189.22L373.52 194.28H392.16L392.28 194.67C392.32 194.82 396.75 209.71 399.35 226.38C402.86 248.87 401.56 263.72 395.49 270.5L395.09 270.95H395.08ZM371.66 243.01L395.07 269.31C407.78 253.71 392.82 200.45 391.35 195.36H373.44L325.01 190.57L341.4 208.98L348.73 217.22L371.67 242.99L371.66 243.01Z" fill="#E3DEDF"/>
<path d="M337.04 148.28C323.72 158.32 286.88 159.19 268.13 159.57C249.37 159.19 212.54 158.33 199.22 148.28C197.28 146.46 197.64 144.47 199.12 142.53C199.12 142.5 199.15 142.47 199.18 142.44C199.61 141.88 200.15 141.33 200.74 140.79C200.8 140.73 200.86 140.67 200.91 140.63C200.92 140.6 200.95 140.59 200.98 140.56C201.15 140.43 201.33 140.29 201.5 140.13C201.69 140 201.88 139.86 202.06 139.71C203.95 138.35 205.87 137.08 207.78 135.91H207.79C208.76 135.29 209.73 134.71 210.69 134.18C239.82 117.45 268.11 119.61 268.11 119.61C268.11 119.61 296.4 117.44 325.53 134.18C326.5 134.71 327.47 135.29 328.43 135.91H328.44C330.35 137.08 332.27 138.35 334.16 139.71C334.35 139.85 334.54 140 334.72 140.13C334.89 140.29 335.07 140.43 335.24 140.56C335.27 140.59 335.3 140.6 335.31 140.63C335.37 140.67 335.43 140.73 335.48 140.79C336.07 141.32 336.61 141.87 337.04 142.44C337.07 142.47 337.1 142.5 337.1 142.53C338.57 144.47 338.94 146.46 337 148.28H337.04Z" fill="white"/>
<path d="M268.14 160.11C250.07 159.75 212.53 159 198.89 148.72L198.84 148.68C197.5 147.42 196.38 145.28 198.63 142.27C198.67 142.19 198.72 142.13 198.76 142.09C199.18 141.55 199.7 141 200.36 140.41C200.41 140.36 200.46 140.31 200.52 140.26C200.56 140.22 200.59 140.19 200.61 140.18L200.66 140.14C200.82 140.02 200.98 139.89 201.14 139.74L201.2 139.69C201.38 139.57 201.56 139.43 201.74 139.29C203.62 137.94 205.55 136.66 207.51 135.45L207.65 135.37C208.58 134.78 209.52 134.22 210.45 133.7C225.56 125.02 240.45 121.5 250.27 120.08C260.5 118.6 267.53 119.02 268.14 119.07C268.74 119.03 275.78 118.61 286.01 120.08C295.83 121.5 310.72 125.02 325.84 133.7C326.77 134.22 327.73 134.78 328.67 135.38L328.77 135.44C330.73 136.64 332.67 137.93 334.52 139.26C334.72 139.41 334.9 139.55 335.08 139.67L335.14 139.72C335.3 139.87 335.46 140 335.62 140.12L335.68 140.17C335.68 140.17 335.72 140.21 335.76 140.24C335.82 140.29 335.87 140.34 335.92 140.39C336.57 140.98 337.1 141.53 337.52 142.07C337.56 142.11 337.61 142.17 337.65 142.25C339.9 145.26 338.78 147.4 337.44 148.66L337.39 148.7C323.75 158.98 286.21 159.73 268.16 160.09L268.14 160.11ZM199.57 147.87C212.95 157.92 250.22 158.67 268.14 159.03C286.04 158.67 323.31 157.92 336.69 147.87C338.21 146.43 338.21 144.84 336.71 142.86L336.6 142.71C336.22 142.23 335.75 141.74 335.16 141.2L335.14 141.18C335.14 141.18 335.06 141.1 335.02 141.07L334.92 140.99V140.96C334.74 140.84 334.58 140.7 334.42 140.55C334.24 140.42 334.05 140.28 333.87 140.14C332.09 138.86 330.22 137.62 328.32 136.45L328.17 136.36C327.22 135.75 326.25 135.17 325.3 134.64C296.64 118.18 268.46 120.12 268.18 120.14H268.14H268.1C268.03 120.14 260.94 119.62 250.4 121.15C240.68 122.56 225.95 126.04 210.99 134.64C210.03 135.17 209.06 135.75 208.11 136.36L207.96 136.45C206.06 137.62 204.19 138.86 202.4 140.15C202.23 140.28 202.04 140.42 201.86 140.55C201.7 140.7 201.53 140.83 201.37 140.96V140.99L201.25 141.07C201.21 141.1 201.17 141.14 201.13 141.18L201.11 141.2C200.52 141.73 200.05 142.23 199.67 142.71L199.56 142.86C198.06 144.83 198.06 146.43 199.58 147.87H199.57Z" fill="#E3DEDF"/>
<path d="M373.5 194.83L323.69 189.9H303.6C300.78 189.9 298.01 190.5 295.43 191.64L279.64 198.63L272.56 201.77C269.74 203.03 266.51 203.03 263.68 201.77L258.13 199.31L240.8 191.64C238.23 190.5 235.45 189.9 232.64 189.9H212.55L162.74 194.83L189.5 155.94L193.4 150.27L195.15 147.71L198.72 142.54L199.27 141.74C200.01 141.18 200.74 140.63 201.48 140.12C201.3 140.28 201.13 140.43 200.96 140.56C200.93 140.59 200.9 140.6 200.88 140.63C200.83 140.67 200.77 140.73 200.71 140.79C200.12 141.32 199.58 141.88 199.15 142.44C199.12 142.47 199.09 142.49 199.09 142.53C197.61 144.46 197.25 146.46 199.19 148.28C212.51 158.33 249.35 159.19 268.1 159.57C286.86 159.19 323.69 158.33 337.01 148.28C338.94 146.46 338.58 144.47 337.11 142.53C337.11 142.5 337.08 142.47 337.05 142.44C336.61 141.88 336.08 141.32 335.49 140.79C335.43 140.73 335.37 140.67 335.31 140.63C335.3 140.6 335.27 140.59 335.24 140.56C335.07 140.43 334.89 140.29 334.72 140.12C335.46 140.63 336.19 141.18 336.93 141.74L337.48 142.54L341.05 147.71L342.8 150.27L346.7 155.94L373.46 194.83H373.5Z" fill="#FCFFFB"/>
<path d="M268.13 203.25C266.54 203.25 264.95 202.92 263.47 202.26L240.6 192.13C238.07 191.01 235.4 190.44 232.66 190.44H212.6L161.66 195.48L198.9 141.37L198.97 141.32C199.68 140.78 200.45 140.2 201.21 139.69L201.88 140.54C201.69 140.71 201.51 140.86 201.34 140.99V141.01L201.25 141.07C201.21 141.1 201.17 141.15 201.13 141.19L201.11 141.21C200.53 141.73 200.04 142.24 199.67 142.72L199.56 142.87C198.05 144.84 198.06 146.43 199.58 147.87C212.96 157.92 250.23 158.67 268.15 159.03C286.05 158.67 323.32 157.92 336.7 147.87C338.22 146.43 338.22 144.84 336.72 142.86L336.61 142.71C336.22 142.22 335.74 141.71 335.17 141.2L335.15 141.18C335.15 141.18 335.06 141.09 335.04 141.07L334.91 140.98V140.95C334.72 140.81 334.55 140.67 334.39 140.52L335.07 139.68C335.84 140.21 336.62 140.79 337.3 141.31L337.37 141.36L347.19 155.63L374.61 195.48L323.67 190.44H303.61C300.87 190.44 298.2 191.01 295.66 192.13L272.79 202.26C271.31 202.92 269.72 203.25 268.13 203.25ZM212.54 189.36H232.65C235.55 189.36 238.36 189.96 241.03 191.14L263.91 201.27C266.59 202.46 269.66 202.47 272.35 201.27L295.22 191.14C297.89 189.96 300.71 189.36 303.61 189.36H323.75L372.4 194.18L342.4 150.59L338.92 145.52C338.94 146.88 338.22 147.93 337.42 148.68L337.37 148.72C323.73 159 286.19 159.75 268.14 160.12C250.07 159.76 212.53 159.01 198.89 148.72L198.85 148.68C198.05 147.93 197.34 146.88 197.35 145.52L189.97 156.25L163.87 194.17L212.54 189.35V189.36Z" fill="#E3DEDF"/>
<path d="M346.73 155.94C344.5 161.47 338.38 166.97 329.06 171.05C310.33 179.23 289.09 182.54 268.12 182.65C247.15 182.53 225.91 179.23 207.18 171.05C197.86 166.96 191.73 161.47 189.51 155.94C187.39 150.65 188.85 145.33 194.51 141.2C194.68 141.08 194.84 140.95 195 140.82C195.14 140.72 195.27 140.63 195.42 140.55C195.46 140.52 195.52 140.48 195.56 140.45C195.81 140.28 196.07 140.12 196.31 139.96C197.13 139.47 198.02 139.01 198.97 138.56C199.76 138.17 200.56 137.85 201.37 137.55C201.53 137.48 201.69 137.42 201.85 137.38C203.76 136.67 205.87 136.04 208.21 135.52C208.08 135.59 207.94 135.68 207.81 135.78H207.8C207.21 136.17 206.53 136.6 205.82 137.1C205.72 137.16 205.62 137.23 205.53 137.27C204.43 138.01 203.25 138.83 202.06 139.73C201.97 139.8 201.87 139.86 201.77 139.93C201.67 140 201.58 140.07 201.5 140.15C201.33 140.31 201.15 140.45 200.98 140.58C200.95 140.61 200.92 140.62 200.91 140.65C200.38 141.07 199.87 141.52 199.38 141.96C199.19 142.12 199.02 142.28 198.86 142.44C198.82 142.48 198.79 142.51 198.74 142.56C198.22 143.08 197.71 143.61 197.27 144.16C197.24 144.19 197.21 144.23 197.2 144.26C196.29 145.37 195.58 146.54 195.18 147.73C194.6 149.44 194.69 151.18 195.77 152.95C204.11 163.02 230.42 165.78 243.37 167.18C251.61 167.92 259.87 168.34 268.14 168.42C276.41 168.33 284.67 167.91 292.91 167.18C305.86 165.78 332.17 163.02 340.51 152.95C341.59 151.19 341.68 149.44 341.1 147.73C340.7 146.55 339.99 145.37 339.08 144.26C339.07 144.23 339.04 144.19 339.01 144.16C338.56 143.61 338.06 143.08 337.54 142.56C337.5 142.52 337.47 142.49 337.42 142.44C337.26 142.28 337.09 142.12 336.9 141.96C336.41 141.51 335.9 141.06 335.37 140.65C335.36 140.62 335.33 140.61 335.3 140.58C335.13 140.45 334.95 140.31 334.78 140.15C334.69 140.08 334.61 140.01 334.51 139.93C334.41 139.86 334.31 139.8 334.22 139.73C333.04 138.83 331.85 138.01 330.75 137.27C330.66 137.23 330.56 137.15 330.46 137.1C329.75 136.61 329.07 136.18 328.48 135.78H328.47C328.34 135.68 328.2 135.59 328.07 135.52C330.41 136.04 332.52 136.68 334.43 137.38C334.59 137.42 334.75 137.48 334.91 137.55C335.72 137.85 336.51 138.17 337.31 138.56C338.26 139.01 339.15 139.47 339.97 139.96C340.22 140.12 340.48 140.28 340.72 140.45C340.76 140.48 340.82 140.52 340.86 140.55C341 140.64 341.13 140.72 341.28 140.82C341.44 140.95 341.6 141.08 341.77 141.2C347.43 145.33 348.89 150.65 346.77 155.94H346.73Z" fill="#1D1D1B"/>
<path d="M342.83 150.28C342.57 150.86 342.25 151.44 341.85 152.04C335.91 159.51 326.52 162.44 317.85 165.26C301.65 169.83 284.9 171.79 268.13 171.91C251.35 171.79 234.61 169.83 218.41 165.26C209.74 162.44 200.35 159.51 194.41 152.04C194.01 151.43 193.69 150.86 193.43 150.28C191.58 146.28 192.79 143.04 195.44 140.56C195.92 140.1 196.44 139.66 197 139.26C197.19 139.14 197.36 139.01 197.55 138.9C197.78 138.73 198.03 138.58 198.29 138.42C199.11 137.93 199.97 137.47 200.88 137.08C201.65 136.72 202.43 136.4 203.21 136.11C203.37 136.04 203.53 135.98 203.67 135.94C205.65 135.25 207.64 134.74 209.45 134.41H209.46C209.89 134.32 210.31 134.25 210.72 134.19C209.75 134.72 208.78 135.3 207.82 135.92H207.81C207.17 136.3 206.51 136.69 205.84 137.09C205.74 137.15 205.64 137.22 205.55 137.26C204.25 138.08 202.93 138.97 201.79 139.92C201.69 139.99 201.6 140.06 201.52 140.14C201.43 140.2 201.35 140.27 201.26 140.34C201.16 140.43 201.07 140.5 201 140.57C200.97 140.6 200.94 140.61 200.93 140.64C200.87 140.68 200.81 140.74 200.76 140.8C200.17 141.33 199.63 141.88 199.2 142.45C199.17 142.48 199.14 142.51 199.14 142.54C197.67 144.48 197.3 146.47 199.24 148.29C212.56 158.33 249.4 159.2 268.15 159.58C286.91 159.2 323.74 158.34 337.06 148.29C339 146.47 338.64 144.48 337.16 142.54C337.16 142.51 337.13 142.48 337.1 142.45C336.67 141.89 336.13 141.34 335.54 140.8C335.48 140.74 335.42 140.68 335.37 140.64C335.36 140.61 335.33 140.6 335.3 140.57C335.23 140.5 335.14 140.43 335.04 140.34C334.95 140.27 334.87 140.2 334.78 140.14C334.69 140.07 334.61 140 334.51 139.92C333.37 138.97 332.05 138.08 330.75 137.26C330.66 137.22 330.56 137.14 330.46 137.09C329.8 136.69 329.13 136.3 328.49 135.92H328.48C327.51 135.3 326.54 134.72 325.58 134.19C325.98 134.25 326.4 134.32 326.84 134.41H326.85C328.66 134.74 330.65 135.25 332.63 135.94C332.77 135.98 332.93 136.04 333.09 136.11C333.87 136.4 334.65 136.72 335.42 137.08C336.33 137.47 337.18 137.93 338.01 138.42C338.27 138.58 338.52 138.72 338.75 138.9C338.94 139.02 339.11 139.15 339.3 139.26C339.86 139.66 340.38 140.1 340.86 140.56C343.5 143.05 344.72 146.28 342.87 150.28H342.83Z" fill="#242422"/>
<path d="M315.35 541.87C315.35 541.87 378.07 424.13 391.35 329.89C391.35 329.89 440.05 492.43 315.35 541.87Z" fill="white"/>
<path d="M314.17 542.92L314.86 541.62C315.02 541.33 330.73 511.73 347.86 471.01C357.92 447.1 366.49 424.08 373.34 402.61C381.9 375.78 387.77 351.29 390.8 329.83L391.15 327.38L391.86 329.75C391.98 330.16 404.02 371.02 400.64 417.39C398.65 444.65 391.8 468.47 380.29 488.17C365.88 512.82 344.1 531.06 315.54 542.38L314.17 542.92ZM391.51 332.53C388.38 353.44 382.62 377.11 374.38 402.94C367.52 424.45 358.93 447.49 348.86 471.43C333.74 507.37 319.72 534.66 316.51 540.82C344.16 529.56 365.3 511.67 379.35 487.63C390.78 468.07 397.59 444.42 399.56 417.33C402.46 377.66 394.02 342.04 391.5 332.53H391.51Z" fill="#E3DEDF"/>
<path d="M509.44 602.55H23.5601C23.5601 517.26 89.14 491.89 89.14 491.89L212.84 423.87V395.13C228.86 397.71 244.9 399.17 260.96 399.48C264.65 399.55 268.36 399.57 272.05 399.49C288.07 399.25 304.11 397.82 320.16 395.12V423.86L443.86 491.88C443.86 491.88 509.44 517.25 509.44 602.54V602.55Z" fill="white"/>
<path d="M510 603.1H23.01V602.55C23.01 583.02 26.47 565.02 33.3 549.06C38.77 536.28 46.39 524.77 55.96 514.85C71.88 498.34 88.03 491.74 88.91 491.38L212.29 423.53V394.47L212.93 394.57C228.92 397.15 245.08 398.61 260.97 398.92C264.93 399 268.55 399 272.03 398.93C288.12 398.69 304.27 397.23 320.06 394.57L320.71 394.46V423.53L444.09 491.38C444.97 491.73 461.12 498.33 477.04 514.85C486.61 524.77 494.23 536.28 499.7 549.06C506.53 565.02 509.99 583.02 509.99 602.55V603.1H510ZM24.12 601.99H508.89C508.83 582.84 505.4 565.19 498.7 549.52C493.29 536.87 485.75 525.47 476.29 515.65C460.17 498.91 443.82 492.46 443.66 492.4L443.59 492.37L319.6 424.19V395.78C303.97 398.38 287.97 399.81 272.05 400.05C268.56 400.12 264.92 400.11 260.95 400.04C245.22 399.74 229.22 398.3 213.39 395.78V424.2L89.34 492.41C89.18 492.47 72.83 498.93 56.71 515.66C47.25 525.48 39.71 536.88 34.3 549.53C27.6 565.2 24.18 582.85 24.11 602L24.12 601.99Z" fill="#E3DEDF"/>
<path d="M254.14 439.55H253.03V637.35H254.14V439.55Z" fill="#E3DEDF"/>
<path d="M279.98 439.55H278.87V637.35H279.98V439.55Z" fill="#E3DEDF"/>
<path d="M24.11 637.35H23V602.54C23 583.01 26.46 565.01 33.29 549.05C38.76 536.27 46.38 524.76 55.95 514.84C71.87 498.33 88.02 491.73 88.9 491.37L212.57 423.37L224.54 416.79L225.07 417.76L213.1 424.34L89.37 492.38H89.34C89.18 492.46 72.83 498.91 56.71 515.65C47.25 525.47 39.71 536.87 34.3 549.52C27.54 565.34 24.11 583.18 24.11 602.54V637.35Z" fill="#E3DEDF"/>
<path d="M510 637.35H508.89V602.54C508.89 583.17 505.46 565.33 498.7 549.52C493.29 536.87 485.75 525.47 476.29 515.65C460.17 498.91 443.82 492.46 443.66 492.4L443.59 492.37L319.89 424.35L307.92 417.77L308.45 416.8L320.42 423.38L444.09 491.38C444.97 491.73 461.12 498.33 477.04 514.85C486.61 524.77 494.23 536.28 499.7 549.06C506.53 565.02 509.99 583.02 509.99 602.55V637.36L510 637.35Z" fill="#E3DEDF"/>
<path d="M267.25 399.48L247.57 439.55C236.07 438.35 214.18 433.16 202.54 429.53L212.85 395.12C228.87 397.7 251.19 399.17 267.25 399.48Z" fill="white"/>
<path d="M247.89 440.14L247.51 440.1C236.41 438.95 214.52 433.85 202.37 430.06L201.85 429.9L212.46 394.5L212.94 394.58C230.13 397.35 252.95 398.66 267.26 398.93L268.13 398.95L247.89 440.15V440.14ZM203.22 429.16C215.27 432.87 236.24 437.75 247.24 438.96L266.37 400.02C252.11 399.71 230.08 398.42 213.24 395.75L203.22 429.17V429.16Z" fill="#E3DEDF"/>
<path d="M320.16 395.12L331.4 430.04C319.87 433.46 297.05 438.17 285.4 439.43L267.25 399.48C283.27 399.24 304.12 397.82 320.16 395.12Z" fill="white"/>
<path d="M285.06 440.03L284.89 439.67L266.39 398.95H267.24C281.53 398.73 302.91 397.47 320.07 394.58L320.54 394.5L332.1 430.41L331.56 430.57C319.78 434.07 296.94 438.73 285.46 439.98L285.06 440.02V440.03ZM268.1 400.02L285.73 438.84C297.11 437.55 318.95 433.09 330.69 429.67L319.77 395.75C302.97 398.54 282.27 399.78 268.09 400.03L268.1 400.02Z" fill="#E3DEDF"/>
<path d="M285.4 439.43C279.13 440.12 272.84 440.49 266.51 440.52C260.22 440.53 253.9 440.22 247.57 439.55L267.25 399.48C263.56 399.55 270.94 399.55 267.25 399.48L285.4 439.43Z" fill="#F3F6F8"/>
<path d="M266.08 441.08C259.8 441.08 253.56 440.75 247.5 440.1L246.71 440.02L266.33 400.08C266 400.06 265.63 399.99 265.62 399.52C265.62 398.97 266.16 398.95 266.39 398.95C266.51 398.95 266.67 398.95 266.89 398.94H267.23H267.58C267.79 398.94 267.95 398.94 268.07 398.95C268.3 398.95 268.85 398.98 268.84 399.52C268.84 400 268.43 400.07 268.1 400.08L286.19 439.9L285.43 439.98C279.12 440.68 272.74 441.05 266.48 441.08C266.34 441.08 266.2 441.08 266.06 441.08H266.08ZM248.41 439.08C254.31 439.68 260.4 439.97 266.5 439.97C272.47 439.94 278.55 439.6 284.58 438.96L267.23 400.77L248.41 439.08Z" fill="#E3DEDF"/>
<path d="M311 267.66C310.19 271.14 307.93 273.21 305.08 273.08C298.87 272.79 296.76 264.08 299.63 259.44C302.38 254.99 309.02 256.33 310.65 261C311.37 263.08 311.51 265.53 311.01 267.66H311Z" fill="#0D1016"/>
<path d="M232.41 267.66C231.6 271.14 229.34 273.21 226.49 273.08C220.28 272.79 218.17 264.08 221.03 259.44C223.78 254.99 230.42 256.33 232.05 261C232.77 263.08 232.91 265.53 232.41 267.66Z" fill="#0D1016"/>
</g>
</svg>
