<svg width="15" height="16" viewBox="0 0 15 16" fill="none" xmlns="http://www.w3.org/2000/svg">
<path d="M11.9899 5.37811L10.1368 3.52374C8.86992 2.25499 8.2368 1.62186 7.55617 1.77186C6.87617 1.92186 6.56805 2.76374 5.95117 4.44686L5.53367 5.58624C5.3693 6.03499 5.2868 6.25936 5.13867 6.43311C5.0723 6.51108 4.99675 6.58076 4.91367 6.64061C4.72867 6.77374 4.49867 6.83686 4.03867 6.96374C3.00117 7.24999 2.4818 7.39311 2.28617 7.73249C2.20155 7.87936 2.15754 8.04611 2.15867 8.21561C2.16117 8.60749 2.5418 8.98811 3.30242 9.74999L4.18742 10.635L1.38992 13.435C1.30468 13.5254 1.25801 13.6454 1.25982 13.7696C1.26163 13.8938 1.31178 14.0124 1.39962 14.1003C1.48747 14.1881 1.60609 14.2383 1.73031 14.2401C1.85452 14.2419 1.97456 14.1952 2.06492 14.11L4.8618 11.31L5.77805 12.2275C6.5443 12.9937 6.92742 13.3775 7.3218 13.3775C7.48742 13.3775 7.65055 13.335 7.79492 13.2525C8.13742 13.0569 8.28117 12.5344 8.5693 11.4887C8.69555 11.0294 8.75867 10.8 8.89117 10.6144C8.9493 10.5337 9.0168 10.46 9.09242 10.3944C9.2643 10.2456 9.48742 10.1619 9.93305 9.99436L11.0855 9.56124C12.7505 8.93624 13.583 8.62311 13.7293 7.94499C13.8762 7.26624 13.248 6.63686 11.9899 5.37811Z" fill="#3537F5"/>
</svg>
