<svg width="19" height="18" viewBox="0 0 19 18" fill="none" xmlns="http://www.w3.org/2000/svg">
<path d="M9.00033 17.8333C7.84755 17.8333 6.76421 17.6144 5.75033 17.1766C4.73644 16.7388 3.85449 16.1452 3.10449 15.3958C2.35449 14.6458 1.76088 13.7638 1.32366 12.7499C0.886437 11.736 0.667548 10.6527 0.666992 9.49992C0.666992 8.34714 0.885881 7.26381 1.32366 6.24992C1.76144 5.23603 2.35505 4.35409 3.10449 3.60409C3.85449 2.85409 4.73644 2.26047 5.75033 1.82325C6.76421 1.38603 7.84755 1.16714 9.00033 1.16659C9.59755 1.16659 10.1739 1.22575 10.7295 1.34409C11.285 1.46242 11.8198 1.63242 12.3337 1.85409V3.72909C11.8475 3.45131 11.3231 3.23242 10.7603 3.07242C10.1975 2.91242 9.61088 2.8327 9.00033 2.83325C7.1531 2.83325 5.58005 3.4827 4.28116 4.78159C2.98227 6.08047 2.3331 7.65325 2.33366 9.49992C2.33366 11.3471 2.9831 12.9202 4.28199 14.2191C5.58088 15.518 7.15366 16.1671 9.00033 16.1666C10.8475 16.1666 12.4206 15.5174 13.7195 14.2191C15.0184 12.9208 15.6675 11.3477 15.667 9.49992C15.667 9.05547 15.622 8.62492 15.532 8.20825C15.442 7.79159 15.3203 7.38881 15.167 6.99992H16.9587C17.0837 7.4027 17.1775 7.80909 17.2403 8.21909C17.3031 8.62909 17.3342 9.05603 17.3337 9.49992C17.3337 10.6527 17.1148 11.736 16.677 12.7499C16.2392 13.7638 15.6456 14.6458 14.8962 15.3958C14.1462 16.1458 13.2642 16.7396 12.2503 17.1774C11.2364 17.6152 10.1531 17.8338 9.00033 17.8333ZM15.667 5.33325V3.66659H14.0003V1.99992H15.667V0.333252H17.3337V1.99992H19.0003V3.66659H17.3337V5.33325H15.667ZM11.917 8.66659C12.2642 8.66659 12.5595 8.5452 12.8028 8.30242C13.0462 8.05964 13.1675 7.76436 13.167 7.41659C13.167 7.06936 13.0456 6.77436 12.8028 6.53159C12.56 6.28881 12.2648 6.16714 11.917 6.16659C11.5698 6.16659 11.2748 6.28825 11.032 6.53159C10.7892 6.77492 10.6675 7.06992 10.667 7.41659C10.667 7.76381 10.7887 8.05909 11.032 8.30242C11.2753 8.54575 11.5703 8.66714 11.917 8.66659ZM6.08366 8.66659C6.43088 8.66659 6.72616 8.5452 6.96949 8.30242C7.21283 8.05964 7.33421 7.76436 7.33366 7.41659C7.33366 7.06936 7.21227 6.77436 6.96949 6.53159C6.72671 6.28881 6.43144 6.16714 6.08366 6.16659C5.73644 6.16659 5.44144 6.28825 5.19866 6.53159C4.95588 6.77492 4.83421 7.06992 4.83366 7.41659C4.83366 7.76381 4.95533 8.05909 5.19866 8.30242C5.44199 8.54575 5.73699 8.66714 6.08366 8.66659ZM9.00033 14.0833C9.94477 14.0833 10.8025 13.816 11.5737 13.2816C12.3448 12.7471 12.9037 12.0421 13.2503 11.1666H4.75033C5.09755 12.0416 5.65671 12.7466 6.42783 13.2816C7.19894 13.8166 8.05644 14.0838 9.00033 14.0833Z" fill="#788291" fill-opacity="0.9"/>
</svg>
