<svg width="17" height="17" viewBox="0 0 17 17" fill="none" xmlns="http://www.w3.org/2000/svg">
<path d="M2.11093 15.2604L4.57659 14.4377L5.0207 14.6537C6.04847 15.1524 7.22306 15.4182 8.50564 15.4182C12.7477 15.4182 15.7861 12.3871 15.7861 8.74439C15.7861 5.08836 12.7696 2.07059 8.50564 2.07059C4.24169 2.07059 1.22514 5.08836 1.22514 8.74439C1.23231 10.1435 1.69299 11.5025 2.53805 12.6176L2.94819 13.1637L2.11093 15.2592V15.2604ZM1.25304 16.8257C1.14324 16.8625 1.0252 16.8671 0.912863 16.839C0.800529 16.8109 0.698596 16.7511 0.619103 16.6669C0.539611 16.5827 0.485881 16.4775 0.46426 16.3637C0.442638 16.25 0.454029 16.1324 0.497086 16.0249L1.56853 13.3469C0.565256 12.0216 0.0189772 10.4066 0.0117188 8.74439C0.0117188 4.72312 3.2661 0.857178 8.50564 0.857178C13.7452 0.857178 16.9996 4.72312 16.9996 8.74439C16.9996 12.7657 13.7112 16.6316 8.50564 16.6316C6.99493 16.6316 5.64561 16.3064 4.49165 15.7458L1.25183 16.8257H1.25304Z" fill="#788291"/>
</svg>
