<svg width="20" height="20" viewBox="0 0 20 20" fill="none" xmlns="http://www.w3.org/2000/svg">
<mask id="path-1-inside-1_1553_117236" fill="white">
<path fill-rule="evenodd" clip-rule="evenodd" d="M4.16602 1.0415C4.33178 1.0415 4.49075 1.10735 4.60796 1.22456C4.72517 1.34177 4.79102 1.50074 4.79102 1.6665V2.57067L6.10268 2.30817C7.5971 2.0095 9.14613 2.15196 10.561 2.71817L10.7302 2.78567C11.9091 3.25721 13.2067 3.34527 14.4385 3.03734C14.6781 2.97743 14.9282 2.97293 15.1698 3.02416C15.4114 3.07539 15.6381 3.18102 15.8328 3.33302C16.0274 3.48502 16.1849 3.67938 16.2932 3.90135C16.4014 4.12331 16.4577 4.36704 16.4577 4.614V10.7532C16.4577 11.5765 15.8968 12.2948 15.0977 12.4948L14.9193 12.539C13.3171 12.9396 11.6294 12.825 10.096 12.2115C8.90639 11.7357 7.60406 11.6161 6.34768 11.8673L4.79102 12.179V18.3332C4.79102 18.4989 4.72517 18.6579 4.60796 18.7751C4.49075 18.8923 4.33178 18.9582 4.16602 18.9582C4.00026 18.9582 3.84128 18.8923 3.72407 18.7751C3.60686 18.6579 3.54102 18.4989 3.54102 18.3332V1.6665C3.54102 1.50074 3.60686 1.34177 3.72407 1.22456C3.84128 1.10735 4.00026 1.0415 4.16602 1.0415ZM4.79102 10.904L6.10268 10.6415C7.59711 10.3429 9.14612 10.4853 10.561 11.0515C11.8502 11.567 13.269 11.6633 14.616 11.3265L14.7952 11.2815C14.913 11.252 15.0175 11.184 15.0923 11.0883C15.167 10.9925 15.2076 10.8746 15.2077 10.7532V4.614C15.2077 4.557 15.1948 4.50073 15.1698 4.44948C15.1449 4.39823 15.1086 4.35334 15.0636 4.31823C15.0187 4.28312 14.9664 4.25872 14.9106 4.24686C14.8549 4.23501 14.7972 4.23603 14.7418 4.24984C13.2551 4.62165 11.689 4.51551 10.266 3.9465L10.096 3.87817C8.90639 3.40237 7.60406 3.28279 6.34768 3.534L4.79102 3.84567V10.904Z"/>
</mask>
<path fill-rule="evenodd" clip-rule="evenodd" d="M4.16602 1.0415C4.33178 1.0415 4.49075 1.10735 4.60796 1.22456C4.72517 1.34177 4.79102 1.50074 4.79102 1.6665V2.57067L6.10268 2.30817C7.5971 2.0095 9.14613 2.15196 10.561 2.71817L10.7302 2.78567C11.9091 3.25721 13.2067 3.34527 14.4385 3.03734C14.6781 2.97743 14.9282 2.97293 15.1698 3.02416C15.4114 3.07539 15.6381 3.18102 15.8328 3.33302C16.0274 3.48502 16.1849 3.67938 16.2932 3.90135C16.4014 4.12331 16.4577 4.36704 16.4577 4.614V10.7532C16.4577 11.5765 15.8968 12.2948 15.0977 12.4948L14.9193 12.539C13.3171 12.9396 11.6294 12.825 10.096 12.2115C8.90639 11.7357 7.60406 11.6161 6.34768 11.8673L4.79102 12.179V18.3332C4.79102 18.4989 4.72517 18.6579 4.60796 18.7751C4.49075 18.8923 4.33178 18.9582 4.16602 18.9582C4.00026 18.9582 3.84128 18.8923 3.72407 18.7751C3.60686 18.6579 3.54102 18.4989 3.54102 18.3332V1.6665C3.54102 1.50074 3.60686 1.34177 3.72407 1.22456C3.84128 1.10735 4.00026 1.0415 4.16602 1.0415ZM4.79102 10.904L6.10268 10.6415C7.59711 10.3429 9.14612 10.4853 10.561 11.0515C11.8502 11.567 13.269 11.6633 14.616 11.3265L14.7952 11.2815C14.913 11.252 15.0175 11.184 15.0923 11.0883C15.167 10.9925 15.2076 10.8746 15.2077 10.7532V4.614C15.2077 4.557 15.1948 4.50073 15.1698 4.44948C15.1449 4.39823 15.1086 4.35334 15.0636 4.31823C15.0187 4.28312 14.9664 4.25872 14.9106 4.24686C14.8549 4.23501 14.7972 4.23603 14.7418 4.24984C13.2551 4.62165 11.689 4.51551 10.266 3.9465L10.096 3.87817C8.90639 3.40237 7.60406 3.28279 6.34768 3.534L4.79102 3.84567V10.904Z" fill="#B51A35"/>
<path d="M4.16602 1.0415V0.041504V1.0415ZM4.79102 1.6665H5.79102H4.79102ZM4.79102 2.57067H3.79102V3.79063L4.98725 3.55123L4.79102 2.57067ZM6.10268 2.30817L5.9067 1.32756L5.90645 1.32761L6.10268 2.30817ZM10.561 2.71817L10.1895 3.64659L10.1904 3.64696L10.561 2.71817ZM10.7302 2.78567L11.1015 1.85718L11.1008 1.85688L10.7302 2.78567ZM14.4385 3.03734L14.681 4.00749L14.6811 4.00747L14.4385 3.03734ZM15.1698 3.02416L14.9623 4.0024L15.1698 3.02416ZM16.4577 4.614L15.4577 4.61388V4.614H16.4577ZM15.0977 12.4948L15.3381 13.4655L15.3405 13.4649L15.0977 12.4948ZM14.9193 12.539L14.679 11.5683L14.6768 11.5689L14.9193 12.539ZM10.096 12.2115L10.4675 11.283L10.4674 11.283L10.096 12.2115ZM6.34768 11.8673L6.15161 10.8867L6.15136 10.8868L6.34768 11.8673ZM4.79102 12.179L4.5947 11.1985L3.79102 11.3594V12.179H4.79102ZM4.79102 18.3332H5.79102H4.79102ZM3.54102 1.6665H2.54102H3.54102ZM4.79102 10.904H3.79102V12.124L4.98725 11.8846L4.79102 10.904ZM6.10268 10.6415L5.90673 9.66089L5.90645 9.66095L6.10268 10.6415ZM10.561 11.0515L10.1895 11.9799L10.1897 11.98L10.561 11.0515ZM14.616 11.3265L14.8586 12.2966L14.8596 12.2964L14.616 11.3265ZM14.7952 11.2815L14.5521 10.3115L14.5516 10.3116L14.7952 11.2815ZM15.2077 10.7532L16.2077 10.7537V10.7532H15.2077ZM15.2077 4.614L14.2077 4.61311V4.614H15.2077ZM14.7418 4.24984L14.4996 3.27962L14.4992 3.27971L14.7418 4.24984ZM10.266 3.9465L9.89305 4.87435L9.89473 4.87502L10.266 3.9465ZM10.096 3.87817L10.469 2.95032L10.4674 2.94968L10.096 3.87817ZM6.34768 3.534L6.15161 2.55341L6.15136 2.55346L6.34768 3.534ZM4.79102 3.84567L4.5947 2.86513L3.79102 3.02604V3.84567H4.79102ZM4.16602 2.0415C4.06656 2.0415 3.97118 2.002 3.90085 1.93167L5.31506 0.517455C5.01032 0.212709 4.59699 0.041504 4.16602 0.041504V2.0415ZM3.90085 1.93167C3.83052 1.86134 3.79102 1.76596 3.79102 1.6665H5.79102C5.79102 1.23553 5.61981 0.822202 5.31506 0.517455L3.90085 1.93167ZM3.79102 1.6665V2.57067H5.79102V1.6665H3.79102ZM4.98725 3.55123L6.29892 3.28873L5.90645 1.32761L4.59478 1.59011L4.98725 3.55123ZM6.29866 3.28878C7.60285 3.02813 8.9547 3.15245 10.1895 3.64659L10.9326 1.78975C9.33756 1.15146 7.59135 0.990876 5.9067 1.32756L6.29866 3.28878ZM10.1904 3.64696L10.3596 3.71446L11.1008 1.85688L10.9316 1.78938L10.1904 3.64696ZM10.3588 3.71416C11.7329 4.26375 13.2453 4.36639 14.681 4.00749L14.196 2.06719C13.1681 2.32414 12.0853 2.25066 11.1015 1.85718L10.3588 3.71416ZM14.6811 4.00747C14.7732 3.98443 14.8694 3.9827 14.9623 4.0024L15.3773 2.04592C14.987 1.96315 14.583 1.97043 14.196 2.0672L14.6811 4.00747ZM14.9623 4.0024C15.0553 4.02211 15.1425 4.06274 15.2173 4.1212L16.4482 2.54484C16.1338 2.29931 15.7675 2.12868 15.3773 2.04592L14.9623 4.0024ZM15.2173 4.1212C15.2922 4.17966 15.3528 4.25441 15.3944 4.33978L17.1919 3.46291C17.017 3.10435 16.7627 2.79037 16.4482 2.54484L15.2173 4.1212ZM15.3944 4.33978C15.4361 4.42516 15.4577 4.5189 15.4577 4.61388L17.4577 4.61413C17.4577 4.21517 17.3668 3.82146 17.1919 3.46291L15.3944 4.33978ZM15.4577 4.614V10.7532H17.4577V4.614H15.4577ZM15.4577 10.7532C15.4577 11.1175 15.2093 11.4361 14.8549 11.5248L15.3405 13.4649C16.5844 13.1536 17.4577 12.0355 17.4577 10.7532H15.4577ZM14.8573 11.5242L14.679 11.5683L15.1597 13.5097L15.3381 13.4655L14.8573 11.5242ZM14.6768 11.5689C13.2785 11.9184 11.8057 11.8184 10.4675 11.283L9.72457 13.14C11.4531 13.8315 13.3557 13.9607 15.1619 13.5091L14.6768 11.5689ZM10.4674 11.283C9.09766 10.7352 7.59819 10.5975 6.15161 10.8867L6.54375 12.8479C7.60994 12.6347 8.71512 12.7362 9.72466 13.14L10.4674 11.283ZM6.15136 10.8868L4.5947 11.1985L4.98733 13.1595L6.544 12.8479L6.15136 10.8868ZM3.79102 12.179V18.3332H5.79102V12.179H3.79102ZM3.79102 18.3332C3.79102 18.2337 3.83052 18.1383 3.90085 18.068L5.31506 19.4822C5.61981 19.1775 5.79102 18.7641 5.79102 18.3332H3.79102ZM3.90085 18.068C3.97118 17.9977 4.06656 17.9582 4.16602 17.9582V19.9582C4.59699 19.9582 5.01032 19.787 5.31506 19.4822L3.90085 18.068ZM4.16602 17.9582C4.26547 17.9582 4.36085 17.9977 4.43118 18.068L3.01697 19.4822C3.32172 19.787 3.73504 19.9582 4.16602 19.9582V17.9582ZM4.43118 18.068C4.50151 18.1383 4.54102 18.2337 4.54102 18.3332H2.54102C2.54102 18.7641 2.71222 19.1775 3.01697 19.4822L4.43118 18.068ZM4.54102 18.3332V1.6665H2.54102V18.3332H4.54102ZM4.54102 1.6665C4.54102 1.76596 4.50151 1.86134 4.43118 1.93167L3.01697 0.517455C2.71222 0.822202 2.54102 1.23553 2.54102 1.6665H4.54102ZM4.43118 1.93167C4.36085 2.002 4.26547 2.0415 4.16602 2.0415V0.041504C3.73504 0.041504 3.32171 0.212709 3.01697 0.517455L4.43118 1.93167ZM4.98725 11.8846L6.29892 11.6221L5.90645 9.66095L4.59478 9.92345L4.98725 11.8846ZM6.29863 11.6221C7.60284 11.3615 8.9547 11.4858 10.1895 11.9799L10.9325 10.1231C9.33754 9.48484 7.59137 9.32426 5.90673 9.66089L6.29863 11.6221ZM10.1897 11.98C11.674 12.5736 13.3077 12.6844 14.8586 12.2966L14.3735 10.3564C13.2304 10.6421 12.0263 10.5605 10.9323 10.123L10.1897 11.98ZM14.8596 12.2964L15.0388 12.2514L14.5516 10.3116L14.3724 10.3566L14.8596 12.2964ZM15.0383 12.2515C15.3722 12.1678 15.6686 11.975 15.8805 11.7037L14.304 10.4728C14.3664 10.3929 14.4537 10.3362 14.5521 10.3115L15.0383 12.2515ZM15.8805 11.7037C16.0923 11.4323 16.2075 11.098 16.2077 10.7537L14.2077 10.7526C14.2077 10.6512 14.2417 10.5528 14.304 10.4728L15.8805 11.7037ZM16.2077 10.7532V4.614H14.2077V10.7532H16.2077ZM16.2077 4.61489C16.2079 4.40588 16.1604 4.19957 16.0689 4.01164L14.2708 4.88732C14.2292 4.80189 14.2076 4.70812 14.2077 4.61311L16.2077 4.61489ZM16.0689 4.01164C15.9774 3.82371 15.8442 3.65913 15.6795 3.5304L14.4478 5.10606C14.3729 5.04756 14.3124 4.97275 14.2708 4.88732L16.0689 4.01164ZM15.6795 3.5304C15.5149 3.40167 15.323 3.31217 15.1185 3.26871L14.7027 5.22501C14.6098 5.20526 14.5226 5.16458 14.4478 5.10606L15.6795 3.5304ZM15.1185 3.26871C14.9141 3.22526 14.7024 3.22899 14.4996 3.27962L14.9841 5.22006C14.8919 5.24307 14.7957 5.24477 14.7027 5.22501L15.1185 3.26871ZM14.4992 3.27971C13.2164 3.60053 11.8651 3.50895 10.6373 3.01799L9.89473 4.87502C11.5129 5.52207 13.2938 5.64277 14.9845 5.21996L14.4992 3.27971ZM10.639 3.01866L10.469 2.95032L9.72306 4.80602L9.89305 4.87435L10.639 3.01866ZM10.4674 2.94968C9.09766 2.40185 7.59819 2.26417 6.15161 2.55341L6.54375 4.51459C7.60994 4.30141 8.71512 4.40288 9.72466 4.80666L10.4674 2.94968ZM6.15136 2.55346L4.5947 2.86513L4.98733 4.82621L6.544 4.51454L6.15136 2.55346ZM3.79102 3.84567V10.904H5.79102V3.84567H3.79102Z" fill="#D33942" fill-opacity="0.9" mask="url(#path-1-inside-1_1553_117236)"/>
</svg>
