<svg width="24" height="46" viewBox="0 0 24 46" fill="none" xmlns="http://www.w3.org/2000/svg">
<path d="M5.93071 19.51L14.4907 15.23C20.2407 12.35 22.6007 14.71 19.7207 20.46L18.8507 22.2C18.6007 22.71 18.6007 23.3 18.8507 23.81L19.7207 25.54C22.6007 31.29 20.2507 33.65 14.4907 30.77L5.93071 26.49C2.09071 24.57 2.09071 21.43 5.93071 19.51ZM9.16071 23.75H14.5607C14.9707 23.75 15.3107 23.41 15.3107 23C15.3107 22.59 14.9707 22.25 14.5607 22.25H9.16071C8.75071 22.25 8.41071 22.59 8.41071 23C8.41071 23.41 8.75071 23.75 9.16071 23.75Z" fill="#3537F5"/>
</svg>
