<svg width="24" height="24" viewBox="0 0 24 24" fill="none" xmlns="http://www.w3.org/2000/svg">
<path d="M5.93071 8.51001L14.4907 4.23001C20.2407 1.35001 22.6007 3.71001 19.7207 9.46001L18.8507 11.2C18.6007 11.71 18.6007 12.3 18.8507 12.81L19.7207 14.54C22.6007 20.29 20.2507 22.65 14.4907 19.77L5.93071 15.49C2.09071 13.57 2.09071 10.43 5.93071 8.51001ZM9.16071 12.75H14.5607C14.9707 12.75 15.3107 12.41 15.3107 12C15.3107 11.59 14.9707 11.25 14.5607 11.25H9.16071C8.75071 11.25 8.41071 11.59 8.41071 12C8.41071 12.41 8.75071 12.75 9.16071 12.75Z" fill="#D3DAE1"/>
</svg>
