<svg width="24" height="24" viewBox="0 0 24 24" fill="none" xmlns="http://www.w3.org/2000/svg">
<path d="M5.93071 8.51013L14.4907 4.23013C20.2407 1.35013 22.6007 3.71013 19.7207 9.46013L18.8507 11.2001C18.6007 11.7101 18.6007 12.3001 18.8507 12.8101L19.7207 14.5401C22.6007 20.2901 20.2507 22.6501 14.4907 19.7701L5.93071 15.4901C2.09071 13.5701 2.09071 10.4301 5.93071 8.51013ZM9.16071 12.7501H14.5607C14.9707 12.7501 15.3107 12.4101 15.3107 12.0001C15.3107 11.5901 14.9707 11.2501 14.5607 11.2501H9.16071C8.75071 11.2501 8.41071 11.5901 8.41071 12.0001C8.41071 12.4101 8.75071 12.7501 9.16071 12.7501Z" fill="#D3DAE1"/>
</svg>
