<svg width="19" height="16" viewBox="0 0 19 16" fill="none" xmlns="http://www.w3.org/2000/svg">
<path d="M1.54387 7.78833L1.54411 7.78857L7.80381 14.0483L7.80404 14.0485C7.80768 14.0521 7.81231 14.0546 7.81735 14.0556C7.82239 14.0566 7.82761 14.0561 7.83236 14.0541C7.83711 14.0522 7.84117 14.0488 7.84402 14.0446C7.84687 14.0403 7.84839 14.0353 7.84839 14.0301V14.0297V10.9178V10.2828L8.48238 10.3188C13.185 10.5856 16.385 13.6239 17.2774 14.5764L17.2775 14.5765C17.3262 14.6286 17.3902 14.6639 17.4602 14.6775C17.5302 14.6912 17.6027 14.6824 17.6674 14.6524C17.7321 14.6224 17.7857 14.5728 17.8206 14.5106C17.8554 14.4484 17.8698 14.3768 17.8616 14.3059L17.8616 14.3056C17.5912 11.9548 16.2986 9.6592 14.1759 7.85814L14.1759 7.85813C12.4103 6.3599 10.2829 5.42825 8.39723 5.26687L7.84839 5.2199V4.66906V1.51025L7.84839 1.50978C7.84839 1.50464 7.84687 1.49962 7.84402 1.49534C7.84117 1.49107 7.83711 1.48773 7.83236 1.48577C7.82761 1.4838 7.82239 1.48329 7.81735 1.48429C7.81231 1.48529 7.80768 1.48777 7.80405 1.49141L7.80381 1.49164L1.54411 7.75135L1.54387 7.75158C1.54145 7.75399 1.53954 7.75686 1.53823 7.76001C1.53693 7.76316 1.53625 7.76653 1.53625 7.76996C1.53625 7.77338 1.53693 7.77676 1.53823 7.7799L0.983969 8.00966L1.53823 7.7799C1.53954 7.78305 1.54146 7.78592 1.54387 7.78833Z" stroke="#788291" stroke-width="1.2"/>
</svg>
