<svg width="24" height="25" viewBox="0 0 24 25" fill="none" xmlns="http://www.w3.org/2000/svg">
<path d="M8.9125 12.4524V12.4524C8.91246 12.5778 8.87686 12.7006 8.80982 12.8065C8.74278 12.9124 8.64706 12.9972 8.53377 13.0509M8.9125 12.4524L8.49094 12.9605M8.9125 12.4524V8.4502V8.45009M8.9125 12.4524V8.45009M8.53377 13.0509L8.49094 12.9605M8.53377 13.0509C8.53378 13.0509 8.53379 13.0509 8.5338 13.0509L8.49094 12.9605M8.53377 13.0509C8.21653 13.2014 7.94548 13.4343 7.74889 13.7252C7.5523 14.0162 7.43738 14.3545 7.4161 14.705C7.39483 15.0555 7.46799 15.4053 7.62796 15.7179C7.78792 16.0305 8.02883 16.2945 8.32555 16.4823C8.62227 16.67 8.96395 16.7748 9.31493 16.7855C9.66591 16.7963 10.0134 16.7126 10.321 16.5434C10.6287 16.3741 10.8853 16.1254 11.0641 15.8232C11.2429 15.5209 11.3373 15.1763 11.3375 14.8251M8.49094 12.9605C8.15752 13.1187 7.87265 13.3634 7.66604 13.6692C7.45943 13.975 7.33864 14.3306 7.31629 14.699C7.29393 15.0674 7.37082 15.435 7.53894 15.7635C7.70705 16.092 7.96023 16.3694 8.27208 16.5668C8.58392 16.7641 8.943 16.8742 9.31187 16.8855C9.68074 16.8968 10.0459 16.8089 10.3692 16.631C10.6925 16.4531 10.9622 16.1917 11.1501 15.8741C11.338 15.5565 11.4373 15.1942 11.4375 14.8252M11.3375 14.8251V14.8252H11.4375M11.3375 14.8251V2.4502C11.3375 2.27449 11.4073 2.10598 11.5315 1.98174C11.6558 1.85749 11.8243 1.7877 12 1.7877H15.75C15.9257 1.7877 16.0942 1.85749 16.2185 1.98174C16.3427 2.10595 16.4125 2.27441 16.4125 2.45008M11.3375 14.8251L11.4375 14.8252M11.4375 14.8252L16.4125 2.45008M16.4125 2.45008C16.414 3.66634 16.8978 4.83237 17.7578 5.6924M16.4125 2.45008L17.7578 5.6924M8.9125 8.45009C8.9124 8.35381 8.89132 8.2587 8.85071 8.17139C8.81011 8.08408 8.75096 8.00667 8.67739 7.94456C8.60381 7.88244 8.51758 7.83711 8.4247 7.81172C8.33182 7.78632 8.23452 7.78148 8.13958 7.79753L8.13958 7.79753M8.9125 8.45009L8.13958 7.79753M8.13958 7.79753L8.13874 7.79768M8.13958 7.79753L8.13874 7.79768M8.13874 7.79768C4.82723 8.38671 2.3375 11.4077 2.3375 14.8252C2.3375 16.6917 3.07895 18.4817 4.39874 19.8015C5.71852 21.1212 7.50854 21.8627 9.375 21.8627C11.2415 21.8627 13.0315 21.1212 14.3513 19.8015C15.6711 18.4817 16.4125 16.6917 16.4125 14.8252V10.9569M8.13874 7.79768L16.3125 10.902M20.3375 10.7617C18.823 10.6453 17.3692 10.1133 16.1367 9.22319L16.1365 9.22303C16.0373 9.15185 15.9205 9.10943 15.7988 9.10044C15.6771 9.09145 15.5553 9.11625 15.4468 9.17209C15.3383 9.22794 15.2473 9.31267 15.1839 9.41693C15.1206 9.52112 15.0872 9.64077 15.0875 9.7627C15.0875 9.76279 15.0875 9.76288 15.0875 9.76297M20.3375 10.7617L15.0875 9.76297M20.3375 10.7617V8.32545C19.0081 8.17404 17.7682 7.57662 16.8209 6.62929C15.8736 5.68196 15.2762 4.44205 15.1247 3.1127H12.6625V14.8252V14.8252C12.6624 15.3975 12.5129 15.9598 12.2288 16.4566C11.9448 16.9534 11.5359 17.3674 11.0428 17.6577C10.5496 17.948 9.98918 18.1046 9.41696 18.1119C8.84473 18.1192 8.28051 17.977 7.78009 17.6994C7.27968 17.4217 6.8604 17.0183 6.56373 16.5289C6.26707 16.0395 6.10329 15.4812 6.08859 14.9091C6.07389 14.337 6.20878 13.771 6.47992 13.2671C6.74225 12.7795 7.12333 12.3663 7.5875 12.0656V9.30198C5.30356 10.072 3.6625 12.3171 3.6625 14.8252C3.6625 16.3402 4.26435 17.7932 5.33565 18.8645C6.40695 19.9358 7.85995 20.5377 9.375 20.5377C10.89 20.5377 12.343 19.9358 13.4143 18.8645C14.4856 17.7932 15.0875 16.3402 15.0875 14.8252L15.0875 9.76297M20.3375 10.7617L15.0875 9.76297M17.7578 5.6924C18.6178 6.55243 19.7839 7.03624 21.0001 7.0377C21.1758 7.03773 21.3442 7.10752 21.4685 7.23174C21.5927 7.35598 21.6625 7.52449 21.6625 7.7002V11.4502C21.6625 11.6259 21.5927 11.7944 21.4685 11.9187C21.3442 12.0429 21.1757 12.1127 21 12.1127M17.7578 5.6924L21 12.0127M21 12.1127V12.0127M21 12.1127C21.0001 12.1127 21.0002 12.1127 21.0002 12.1127L21 12.0127M21 12.1127C19.3975 12.1163 17.8205 11.7185 16.4125 10.9569M21 12.0127C19.396 12.0163 17.8179 11.6136 16.4125 10.843V10.9569M16.4125 10.9569C16.3791 10.9388 16.3457 10.9205 16.3125 10.902M16.3125 10.902V10.7874V10.902Z" fill="#3537F5" stroke="#3537F5" stroke-width="0.2"/>
</svg>
