<svg width="14" height="16" viewBox="0 0 14 16" fill="none" xmlns="http://www.w3.org/2000/svg">
<path d="M8.99995 15.6H4.99995C4.91155 15.6 4.82676 15.5649 4.76425 15.5024C4.70174 15.4399 4.66662 15.3551 4.66662 15.2667V6.93335H1.13795C1.07207 6.93333 1.00768 6.9138 0.952895 6.87721C0.898112 6.84063 0.855399 6.78863 0.830147 6.72778C0.804896 6.66694 0.79824 6.59998 0.81102 6.53535C0.823799 6.47073 0.855441 6.41134 0.90195 6.36468L6.76395 0.498015C6.79491 0.466972 6.8317 0.442344 6.8722 0.42554C6.91269 0.408735 6.95611 0.400085 6.99995 0.400085C7.0438 0.400085 7.08721 0.408735 7.12771 0.42554C7.1682 0.442344 7.20499 0.466972 7.23595 0.498015L13.098 6.36468C13.1445 6.41134 13.1761 6.47073 13.1889 6.53535C13.2017 6.59998 13.195 6.66694 13.1698 6.72778C13.1445 6.78863 13.1018 6.84063 13.047 6.87721C12.9922 6.9138 12.9278 6.93333 12.862 6.93335H9.33328V15.2667C9.33328 15.3551 9.29817 15.4399 9.23565 15.5024C9.17314 15.5649 9.08836 15.6 8.99995 15.6Z" fill="#149440" stroke="#149440" stroke-linecap="round" stroke-linejoin="round"/>
</svg>
