<svg width="16" height="16" viewBox="0 0 16 16" fill="none" xmlns="http://www.w3.org/2000/svg">
<g clip-path="url(#clip0_496_29286)">
<path d="M9.99995 15.6H5.99995C5.91155 15.6 5.82676 15.5649 5.76425 15.5024C5.70174 15.4399 5.66662 15.3551 5.66662 15.2667V6.93335H2.13795C2.07207 6.93333 2.00768 6.9138 1.9529 6.87721C1.89811 6.84063 1.8554 6.78863 1.83015 6.72778C1.8049 6.66694 1.79824 6.59998 1.81102 6.53535C1.8238 6.47073 1.85544 6.41134 1.90195 6.36468L7.76395 0.498015C7.79491 0.466972 7.8317 0.442344 7.8722 0.42554C7.91269 0.408735 7.95611 0.400085 7.99995 0.400085C8.0438 0.400085 8.08721 0.408735 8.12771 0.42554C8.1682 0.442344 8.20499 0.466972 8.23595 0.498015L14.098 6.36468C14.1445 6.41134 14.1761 6.47073 14.1889 6.53535C14.2017 6.59998 14.195 6.66694 14.1698 6.72778C14.1445 6.78863 14.1018 6.84063 14.047 6.87721C13.9922 6.9138 13.9278 6.93333 13.862 6.93335H10.3333V15.2667C10.3333 15.3551 10.2982 15.4399 10.2357 15.5024C10.1731 15.5649 10.0884 15.6 9.99995 15.6Z" stroke="#697485" stroke-linecap="round" stroke-linejoin="round"/>
</g>
<defs>
<clipPath id="clip0_496_29286">
<rect width="16" height="16" fill="white"/>
</clipPath>
</defs>
</svg>
