<svg width="16" height="16" viewBox="0 0 16 16" fill="none" xmlns="http://www.w3.org/2000/svg">
<g clip-path="url(#clip0_385_11768)">
<path d="M9.99995 15.6H5.99995C5.91154 15.6 5.82676 15.5648 5.76425 15.5023C5.70174 15.4398 5.66662 15.355 5.66662 15.2666V6.93329H2.13795C2.07207 6.93327 2.00768 6.91374 1.9529 6.87715C1.89811 6.84057 1.8554 6.78857 1.83015 6.72772C1.8049 6.66688 1.79824 6.59992 1.81102 6.53529C1.8238 6.47066 1.85544 6.41127 1.90195 6.36462L7.76395 0.497954C7.79491 0.466911 7.8317 0.442283 7.8722 0.425479C7.91269 0.408674 7.95611 0.400024 7.99995 0.400024C8.0438 0.400024 8.08721 0.408674 8.12771 0.425479C8.1682 0.442283 8.20499 0.466911 8.23595 0.497954L14.0979 6.36462C14.1445 6.41127 14.1761 6.47066 14.1889 6.53529C14.2017 6.59992 14.195 6.66688 14.1698 6.72772C14.1445 6.78857 14.1018 6.84057 14.047 6.87715C13.9922 6.91374 13.9278 6.93327 13.8619 6.93329H10.3333V15.2666C10.3333 15.355 10.2982 15.4398 10.2357 15.5023C10.1731 15.5648 10.0884 15.6 9.99995 15.6Z" fill="#149440" stroke="#149440" stroke-linecap="round" stroke-linejoin="round"/>
</g>
<defs>
<clipPath id="clip0_385_11768">
<rect width="16" height="16" fill="white"/>
</clipPath>
</defs>
</svg>
