<svg width="22" height="22" viewBox="0 0 22 22" fill="none" xmlns="http://www.w3.org/2000/svg">
<g clip-path="url(#clip0_1072_55180)">
<path d="M11.201 1.12598C5.85275 1.13183 1.5215 5.47208 1.52735 10.8203C1.52872 12.4433 1.93834 14.0398 2.7185 15.463L1.976 20.026L6.539 19.2835C11.2235 21.853 17.105 20.1389 19.6745 15.454C22.244 10.769 20.5304 4.88843 15.8454 2.31848C14.422 1.53762 12.8245 1.12753 11.201 1.12598ZM6.3635 5.52248H9.0005C9.11985 5.52248 9.23431 5.56989 9.3187 5.65428C9.40309 5.73867 9.4505 5.85313 9.4505 5.97248C9.43574 6.5726 9.53657 7.16995 9.7475 7.73198C9.83833 7.92011 9.85831 8.13469 9.80376 8.33636C9.74921 8.53803 9.62379 8.71328 9.4505 8.82998L8.528 9.72998C8.93703 10.5287 9.47186 11.2565 10.112 11.8855C10.7358 12.536 11.4607 13.0816 12.2585 13.501L13.1585 12.5785C13.6085 12.1285 13.8155 12.1285 14.2565 12.2815C14.8185 12.4924 15.4159 12.5932 16.016 12.5785C16.1336 12.584 16.2449 12.6331 16.3281 12.7164C16.4114 12.7996 16.4605 12.9109 16.466 13.0285V15.6655C16.4605 15.7831 16.4114 15.8944 16.3281 15.9776C16.2449 16.0608 16.1336 16.11 16.016 16.1155C13.3689 16.0002 10.8597 14.9028 8.978 13.0375C7.10977 11.1577 6.01189 8.64736 5.9 5.99948C5.90107 5.87561 5.94984 5.75693 6.03616 5.66809C6.12248 5.57925 6.23972 5.5271 6.3635 5.52248Z" stroke="#3537F5" stroke-width="1.35" stroke-linecap="round" stroke-linejoin="round"/>
</g>
<defs>
<clipPath id="clip0_1072_55180">
<rect width="21.6" height="21.6" fill="white" transform="translate(0.400391)"/>
</clipPath>
</defs>
</svg>
